<svg xmlns="http://www.w3.org/2000/svg" xmlns:xlink="http://www.w3.org/1999/xlink" contentStyleType="text/css" height="180px" preserveAspectRatio="none" style="width:190px;height:180px;background:#FFFFFF;" version="1.1" viewBox="0 0 190 180" width="190px" zoomAndPan="magnify"><defs/><g><line style="stroke:#181818;stroke-width:0.5;stroke-dasharray:5.0,5.0;" x1="17" x2="17" y1="36.4883" y2="143.7305"/><line style="stroke:#181818;stroke-width:0.5;stroke-dasharray:5.0,5.0;" x1="98" x2="98" y1="36.4883" y2="143.7305"/><rect fill="#FFFFFF" height="44.6211" style="stroke:#181818;stroke-width:1.0;" width="10" x="93" y="81.1094"/><line style="stroke:#181818;stroke-width:0.5;stroke-dasharray:5.0,5.0;" x1="135" x2="135" y1="36.4883" y2="143.7305"/><rect fill="#FFFFFF" height="44.6211" style="stroke:#181818;stroke-width:1.0;" width="10" x="130" y="81.1094"/><line style="stroke:#181818;stroke-width:0.5;stroke-dasharray:5.0,5.0;" x1="172" x2="172" y1="36.4883" y2="143.7305"/><rect fill="#FFFFFF" height="44.6211" style="stroke:#181818;stroke-width:1.0;" width="10" x="167" y="81.1094"/><rect fill="#E2E2F0" height="30.4883" rx="2.5" ry="2.5" style="stroke:#181818;stroke-width:0.5;" width="24" x="5" y="5"/><text fill="#000000" font-family="sans-serif" font-size="14" lengthAdjust="spacing" textLength="10" x="12" y="25.5352">A</text><rect fill="#E2E2F0" height="30.4883" rx="2.5" ry="2.5" style="stroke:#181818;stroke-width:0.5;" width="22" x="87" y="5"/><text fill="#000000" font-family="sans-serif" font-size="14" lengthAdjust="spacing" textLength="8" x="94" y="25.5352">B</text><rect fill="#E2E2F0" height="30.4883" rx="2.5" ry="2.5" style="stroke:#181818;stroke-width:0.5;" width="24" x="123" y="5"/><text fill="#000000" font-family="sans-serif" font-size="14" lengthAdjust="spacing" textLength="10" x="130" y="25.5352">C</text><rect fill="#E2E2F0" height="30.4883" rx="2.5" ry="2.5" style="stroke:#181818;stroke-width:0.5;" width="24" x="160" y="5"/><text fill="#000000" font-family="sans-serif" font-size="14" lengthAdjust="spacing" textLength="10" x="167" y="25.5352">D</text><rect fill="#E2E2F0" height="30.4883" rx="2.5" ry="2.5" style="stroke:#181818;stroke-width:0.5;" width="24" x="5" y="143.7305"/><text fill="#000000" font-family="sans-serif" font-size="14" lengthAdjust="spacing" textLength="10" x="12" y="164.2656">A</text><rect fill="#E2E2F0" height="30.4883" rx="2.5" ry="2.5" style="stroke:#181818;stroke-width:0.5;" width="22" x="87" y="143.7305"/><text fill="#000000" font-family="sans-serif" font-size="14" lengthAdjust="spacing" textLength="8" x="94" y="164.2656">B</text><rect fill="#E2E2F0" height="30.4883" rx="2.5" ry="2.5" style="stroke:#181818;stroke-width:0.5;" width="24" x="123" y="143.7305"/><text fill="#000000" font-family="sans-serif" font-size="14" lengthAdjust="spacing" textLength="10" x="130" y="164.2656">C</text><rect fill="#E2E2F0" height="30.4883" rx="2.5" ry="2.5" style="stroke:#181818;stroke-width:0.5;" width="24" x="160" y="143.7305"/><text fill="#000000" font-family="sans-serif" font-size="14" lengthAdjust="spacing" textLength="10" x="167" y="164.2656">D</text><polygon fill="#181818" points="81,77.1094,91,81.1094,81,85.1094,85,81.1094" style="stroke:#181818;stroke-width:1.0;"/><line style="stroke:#181818;stroke-width:1.0;" x1="17" x2="87" y1="81.1094" y2="81.1094"/><text fill="#000000" font-family="sans-serif" font-size="13" lengthAdjust="spacing" textLength="52" x="24" y="76.3672">Get data</text><polygon fill="#181818" points="118,77.1094,128,81.1094,118,85.1094,122,81.1094" style="stroke:#181818;stroke-width:1.0;"/><line style="stroke:#181818;stroke-width:1.0;" x1="103" x2="124" y1="81.1094" y2="81.1094"/><text fill="#000000" font-family="sans-serif" font-size="13" lengthAdjust="spacing" textLength="7" x="110" y="61.0566">a</text><text fill="#000000" font-family="sans-serif" font-size="13" lengthAdjust="spacing" textLength="8" x="110" y="76.3672">2</text><polygon fill="#181818" points="155,77.1094,165,81.1094,155,85.1094,159,81.1094" style="stroke:#181818;stroke-width:1.0;"/><line style="stroke:#181818;stroke-width:1.0;" x1="140" x2="161" y1="81.1094" y2="81.1094"/><line style="stroke:#181818;stroke-width:1.0;" x1="18" x2="28" y1="125.7305" y2="121.7305"/><line style="stroke:#181818;stroke-width:1.0;" x1="18" x2="28" y1="125.7305" y2="129.7305"/><line style="stroke:#181818;stroke-width:1.0;stroke-dasharray:2.0,2.0;" x1="17" x2="92" y1="125.7305" y2="125.7305"/><text fill="#000000" font-family="sans-serif" font-size="13" lengthAdjust="spacing" textLength="29" x="34" y="120.9883">Data</text><line style="stroke:#181818;stroke-width:1.0;" x1="18" x2="28" y1="125.7305" y2="121.7305"/><line style="stroke:#181818;stroke-width:1.0;" x1="18" x2="28" y1="125.7305" y2="129.7305"/><line style="stroke:#181818;stroke-width:1.0;stroke-dasharray:2.0,2.0;" x1="17" x2="129" y1="125.7305" y2="125.7305"/><line style="stroke:#181818;stroke-width:1.0;" x1="136" x2="146" y1="125.7305" y2="121.7305"/><line style="stroke:#181818;stroke-width:1.0;" x1="136" x2="146" y1="125.7305" y2="129.7305"/><line style="stroke:#181818;stroke-width:1.0;stroke-dasharray:2.0,2.0;" x1="135" x2="166" y1="125.7305" y2="125.7305"/><text fill="#000000" font-family="sans-serif" font-size="13" lengthAdjust="spacing" textLength="7" x="152" y="105.6777">a</text><text fill="#000000" font-family="sans-serif" font-size="13" lengthAdjust="spacing" textLength="8" x="152" y="120.9883">2</text><!--SRC=[KomeIapFJLGeISslKYWfAatbKlSiBYvDLL0sCpLJqDLLoCrFoKpBJ4tXSbJGjLDmqjQsKd1FBL58IIn9v59JS089EWC54sFoZ81yPn3V1SZd0ihesjafEEhgMYcuG1Gx8uI0F1S8pnd80sa60000]--></g></svg>