<svg xmlns="http://www.w3.org/2000/svg" xmlns:xlink="http://www.w3.org/1999/xlink" contentStyleType="text/css" height="253px" preserveAspectRatio="none" style="width:268px;height:253px;background:#FFFFFF;" version="1.1" viewBox="0 0 268 253" width="268px" zoomAndPan="magnify"><defs/><g><line style="stroke:#181818;stroke-width:0.5;stroke-dasharray:5.0,5.0;" x1="16.5" x2="16.5" y1="36.4883" y2="202.4199"/><line style="stroke:#181818;stroke-width:0.5;stroke-dasharray:5.0,5.0;" x1="72.5" x2="72.5" y1="36.4883" y2="202.4199"/><rect fill="#FFFFFF" height="133.9316" style="stroke:#181818;stroke-width:1.0;" width="10" x="67.5" y="50.4883"/><rect fill="#FFFFFF" height="91.6211" style="stroke:#181818;stroke-width:1.0;" width="10" x="72.5" y="92.7988"/><rect fill="#FFFFFF" height="49.3105" style="stroke:#181818;stroke-width:1.0;" width="10" x="77.5" y="135.1094"/><rect fill="#E2E2F0" height="30.4883" rx="2.5" ry="2.5" style="stroke:#181818;stroke-width:0.5;" width="23" x="5" y="5"/><text fill="#000000" font-family="sans-serif" font-size="14" lengthAdjust="spacing" textLength="9" x="12" y="25.5352">1</text><rect fill="#E2E2F0" height="30.4883" rx="2.5" ry="2.5" style="stroke:#181818;stroke-width:0.5;" width="23" x="61" y="5"/><text fill="#000000" font-family="sans-serif" font-size="14" lengthAdjust="spacing" textLength="9" x="68" y="25.5352">5</text><rect fill="#E2E2F0" height="30.4883" rx="2.5" ry="2.5" style="stroke:#181818;stroke-width:0.5;" width="23" x="5" y="202.4199"/><text fill="#000000" font-family="sans-serif" font-size="14" lengthAdjust="spacing" textLength="9" x="12" y="222.9551">1</text><rect fill="#E2E2F0" height="30.4883" rx="2.5" ry="2.5" style="stroke:#181818;stroke-width:0.5;" width="23" x="61" y="202.4199"/><text fill="#000000" font-family="sans-serif" font-size="14" lengthAdjust="spacing" textLength="9" x="68" y="222.9551">5</text><polygon fill="#181818" points="55.5,46.4883,65.5,50.4883,55.5,54.4883,59.5,50.4883" style="stroke:#181818;stroke-width:1.0;"/><line style="stroke:#181818;stroke-width:1.0;" x1="16.5" x2="61.5" y1="50.4883" y2="50.4883"/><line style="stroke:#181818;stroke-width:1.0;" x1="77.5" x2="124.5" y1="79.7988" y2="79.7988"/><line style="stroke:#181818;stroke-width:1.0;" x1="124.5" x2="124.5" y1="79.7988" y2="92.7988"/><line style="stroke:#181818;stroke-width:1.0;" x1="83.5" x2="124.5" y1="92.7988" y2="92.7988"/><polygon fill="#181818" points="93.5,88.7988,83.5,92.7988,93.5,96.7988,89.5,92.7988" style="stroke:#181818;stroke-width:1.0;"/><text fill="#000000" font-family="sans-serif" font-size="13" lengthAdjust="spacing" textLength="136" x="89.5" y="75.0566">general func activity1</text><line style="stroke:#181818;stroke-width:1.0;" x1="82.5" x2="129.5" y1="122.1094" y2="122.1094"/><line style="stroke:#181818;stroke-width:1.0;" x1="129.5" x2="129.5" y1="122.1094" y2="135.1094"/><line style="stroke:#181818;stroke-width:1.0;" x1="88.5" x2="129.5" y1="135.1094" y2="135.1094"/><polygon fill="#181818" points="98.5,131.1094,88.5,135.1094,98.5,139.1094,94.5,135.1094" style="stroke:#181818;stroke-width:1.0;"/><text fill="#000000" font-family="sans-serif" font-size="13" lengthAdjust="spacing" textLength="167" x="94.5" y="117.3672">general func sub-activity1</text><polygon fill="#181818" points="27.5,180.4199,17.5,184.4199,27.5,188.4199,23.5,184.4199" style="stroke:#181818;stroke-width:1.0;"/><line style="stroke:#181818;stroke-width:1.0;" x1="21.5" x2="76.5" y1="184.4199" y2="184.4199"/><text fill="#000000" font-family="sans-serif" font-size="13" lengthAdjust="spacing" textLength="27" x="33.5" y="179.6777">Test</text><text fill="#888888" font-family="sans-serif" font-size="10" lengthAdjust="spacing" textLength="70" x="101.25" y="243.5762">1.2024.6beta1</text><!--SRC=[KomeIapFJLGeISslKYWfAatbIilFBqajKb0jIoqgpipFqz3auZ9KqBLJC5MmuafCBiaiIon9LJ3bCWMBMIcaf-Qb5YNcAAILvYKhWEKpIoeDCLKge2ajBatInQgyfiR8eAQ62wBD4AWj9BMuX2ib5Ka9RWu0]--></g></svg>