<svg xmlns="http://www.w3.org/2000/svg" xmlns:xlink="http://www.w3.org/1999/xlink" contentStyleType="text/css" height="429px" preserveAspectRatio="none" style="width:434px;height:429px;background:#FFFFFF;" version="1.1" viewBox="0 0 434 429" width="434px" zoomAndPan="magnify"><defs/><g><rect fill="#DDDDDD" height="417.4609" style="stroke:#181818;stroke-width:0.5;" width="67.6592" x="31" y="6"/><rect fill="#FFC0CB" height="56.6211" style="stroke:#FFC0CB;stroke-width:1.0;" width="298.4355" x="123.938" y="67.4883"/><rect fill="#20DD00" fill-opacity="0.56471" height="56.6211" style="stroke:#20DD0090;stroke-width:1.0;" width="336.7466" x="48.8296" y="216.7305"/><rect fill="#FFC0CB" height="70.6211" style="stroke:#FFC0CB;stroke-width:1.0;" width="201.3765" x="48.8296" y="291.3516"/><line style="stroke:#181818;stroke-width:0.5;stroke-dasharray:5.0,5.0;" x1="64.8296" x2="64.8296" y1="41.4883" y2="385.9727"/><line style="stroke:#181818;stroke-width:0.5;stroke-dasharray:5.0,5.0;" x1="183.6855" x2="183.6855" y1="41.4883" y2="385.9727"/><line style="stroke:#181818;stroke-width:0.5;stroke-dasharray:5.0,5.0;" x1="369.5762" x2="369.5762" y1="41.4883" y2="385.9727"/><rect fill="#E2E2F0" height="30.4883" rx="2.5" ry="2.5" style="stroke:#181818;stroke-width:0.5;" width="23.6592" x="53" y="10"/><text fill="#000000" font-family="sans-serif" font-size="14" lengthAdjust="spacing" textLength="9.6592" x="60" y="30.5352">A</text><rect fill="#E2E2F0" height="30.4883" rx="2.5" ry="2.5" style="stroke:#181818;stroke-width:0.5;" width="22.0527" x="172.6592" y="10"/><text fill="#000000" font-family="sans-serif" font-size="14" lengthAdjust="spacing" textLength="8.0527" x="179.6592" y="30.5352">B</text><rect fill="#E2E2F0" height="30.4883" rx="2.5" ry="2.5" style="stroke:#181818;stroke-width:0.5;" width="23.6865" x="357.7329" y="10"/><text fill="#000000" font-family="sans-serif" font-size="14" lengthAdjust="spacing" textLength="9.6865" x="364.7329" y="30.5352">C</text><rect fill="#E2E2F0" height="30.4883" rx="2.5" ry="2.5" style="stroke:#181818;stroke-width:0.5;" width="23.6592" x="53" y="385.9727"/><text fill="#000000" font-family="sans-serif" font-size="14" lengthAdjust="spacing" textLength="9.6592" x="60" y="406.5078">A</text><rect fill="#E2E2F0" height="30.4883" rx="2.5" ry="2.5" style="stroke:#181818;stroke-width:0.5;" width="22.0527" x="172.6592" y="385.9727"/><text fill="#000000" font-family="sans-serif" font-size="14" lengthAdjust="spacing" textLength="8.0527" x="179.6592" y="406.5078">B</text><rect fill="#E2E2F0" height="30.4883" rx="2.5" ry="2.5" style="stroke:#181818;stroke-width:0.5;" width="23.6865" x="357.7329" y="385.9727"/><text fill="#000000" font-family="sans-serif" font-size="14" lengthAdjust="spacing" textLength="9.6865" x="364.7329" y="406.5078">C</text><polygon fill="#181818" points="171.6855,51.4883,181.6855,55.4883,171.6855,59.4883,175.6855,55.4883" style="stroke:#181818;stroke-width:1.0;"/><line style="stroke:#181818;stroke-width:1.0;" x1="64.8296" x2="177.6855" y1="55.4883" y2="55.4883"/><polygon fill="#181818" points="357.5762,51.4883,367.5762,55.4883,357.5762,59.4883,361.5762,55.4883" style="stroke:#181818;stroke-width:1.0;"/><line style="stroke:#181818;stroke-width:1.0;" x1="183.6855" x2="363.5762" y1="55.4883" y2="55.4883"/><path d="M123.938,67.4883 L191.123,67.4883 L191.123,74.7988 L181.123,84.7988 L123.938,84.7988 L123.938,67.4883 " fill="none" style="stroke:#000000;stroke-width:1.5;"/><rect fill="none" height="56.6211" style="stroke:#000000;stroke-width:1.5;" width="298.4355" x="123.938" y="67.4883"/><text fill="#000000" font-family="sans-serif" font-size="13" font-weight="bold" lengthAdjust="spacing" textLength="22.1851" x="138.938" y="81.0566">opt</text><text fill="#000000" font-family="sans-serif" font-size="11" font-weight="bold" lengthAdjust="spacing" textLength="29.1973" x="206.123" y="80.123">[bad]</text><ellipse cx="145.438" cy="115.3594" fill="none" rx="4" ry="4" style="stroke:#181818;stroke-width:1.5;"/><polygon fill="#181818" points="171.6855,112.1094,181.6855,116.1094,171.6855,120.1094,175.6855,116.1094" style="stroke:#181818;stroke-width:1.0;"/><line style="stroke:#181818;stroke-width:1.0;" x1="149.938" x2="177.6855" y1="116.1094" y2="116.1094"/><text fill="#000000" font-family="sans-serif" font-size="13" lengthAdjust="spacing" textLength="19.7476" x="152.938" y="111.3672">Pre</text><polygon fill="#181818" points="194.6855,112.1094,184.6855,116.1094,194.6855,120.1094,190.6855,116.1094" style="stroke:#181818;stroke-width:1.0;"/><ellipse cx="399.8735" cy="115.3594" fill="none" rx="4" ry="4" style="stroke:#181818;stroke-width:1.5;"/><line style="stroke:#181818;stroke-width:1.0;" x1="188.6855" x2="395.3735" y1="116.1094" y2="116.1094"/><text fill="#000000" font-family="sans-serif" font-size="13" lengthAdjust="spacing" textLength="198.688" x="200.6855" y="111.3672">yolo and then more to the right</text><path d="M123.938,142.1094 L191.123,142.1094 L191.123,149.4199 L181.123,159.4199 L123.938,159.4199 L123.938,142.1094 " fill="none" style="stroke:#000000;stroke-width:1.5;"/><rect fill="none" height="56.6211" style="stroke:#000000;stroke-width:1.5;" width="153.0186" x="123.938" y="142.1094"/><text fill="#000000" font-family="sans-serif" font-size="13" font-weight="bold" lengthAdjust="spacing" textLength="22.1851" x="138.938" y="155.6777">opt</text><text fill="#000000" font-family="sans-serif" font-size="11" font-weight="bold" lengthAdjust="spacing" textLength="54.8335" x="206.123" y="154.7441">[expand?]</text><ellipse cx="10.5" cy="189.9805" fill="none" rx="4" ry="4" style="stroke:#181818;stroke-width:1.5;"/><polygon fill="#181818" points="171.6855,186.7305,181.6855,190.7305,171.6855,194.7305,175.6855,190.7305" style="stroke:#181818;stroke-width:1.0;"/><line style="stroke:#181818;stroke-width:1.0;" x1="15" x2="177.6855" y1="190.7305" y2="190.7305"/><text fill="#000000" font-family="sans-serif" font-size="13" lengthAdjust="spacing" textLength="19.7476" x="152.938" y="185.9883">Pre</text><polygon fill="#181818" points="194.6855,186.7305,184.6855,190.7305,194.6855,194.7305,190.6855,190.7305" style="stroke:#181818;stroke-width:1.0;"/><ellipse cx="227.7061" cy="189.9805" fill="none" rx="4" ry="4" style="stroke:#181818;stroke-width:1.5;"/><line style="stroke:#181818;stroke-width:1.0;" x1="188.6855" x2="223.2061" y1="190.7305" y2="190.7305"/><text fill="#000000" font-family="sans-serif" font-size="13" lengthAdjust="spacing" textLength="26.5205" x="200.6855" y="185.9883">yolo</text><path d="M48.8296,216.7305 L116.0146,216.7305 L116.0146,224.041 L106.0146,234.041 L48.8296,234.041 L48.8296,216.7305 " fill="none" style="stroke:#000000;stroke-width:1.5;"/><rect fill="none" height="56.6211" style="stroke:#000000;stroke-width:1.5;" width="336.7466" x="48.8296" y="216.7305"/><text fill="#000000" font-family="sans-serif" font-size="13" font-weight="bold" lengthAdjust="spacing" textLength="22.1851" x="63.8296" y="230.2988">opt</text><text fill="#000000" font-family="sans-serif" font-size="11" font-weight="bold" lengthAdjust="spacing" textLength="25.0186" x="131.0146" y="229.3652">[OK]</text><ellipse cx="64.3296" cy="264.6016" fill="none" rx="4" ry="4" style="stroke:#181818;stroke-width:1.5;"/><polygon fill="#181818" points="171.6855,261.3516,181.6855,265.3516,171.6855,269.3516,175.6855,265.3516" style="stroke:#181818;stroke-width:1.0;"/><line style="stroke:#181818;stroke-width:1.0;" x1="68.8296" x2="177.6855" y1="265.3516" y2="265.3516"/><polygon fill="#181818" points="194.6855,261.3516,184.6855,265.3516,194.6855,269.3516,190.6855,265.3516" style="stroke:#181818;stroke-width:1.0;"/><line style="stroke:#181818;stroke-width:1.0;" x1="188.6855" x2="368.5762" y1="265.3516" y2="265.3516"/><text fill="#000000" font-family="sans-serif" font-size="13" lengthAdjust="spacing" textLength="161.8906" x="200.6855" y="260.6094">yolo and then to the right</text><path d="M48.8296,291.3516 L116.0146,291.3516 L116.0146,298.6621 L106.0146,308.6621 L48.8296,308.6621 L48.8296,291.3516 " fill="none" style="stroke:#000000;stroke-width:1.5;"/><rect fill="none" height="70.6211" style="stroke:#000000;stroke-width:1.5;" width="201.3765" x="48.8296" y="291.3516"/><text fill="#000000" font-family="sans-serif" font-size="13" font-weight="bold" lengthAdjust="spacing" textLength="22.1851" x="63.8296" y="304.9199">opt</text><text fill="#000000" font-family="sans-serif" font-size="11" font-weight="bold" lengthAdjust="spacing" textLength="34.665" x="131.0146" y="303.9863">[bad?]</text><ellipse cx="64.3296" cy="323.9121" fill="none" rx="4" ry="4" style="stroke:#181818;stroke-width:1.5;"/><polygon fill="#181818" points="171.6855,320.6621,181.6855,324.6621,171.6855,328.6621,175.6855,324.6621" style="stroke:#181818;stroke-width:1.0;"/><line style="stroke:#181818;stroke-width:1.0;" x1="68.8296" x2="177.6855" y1="324.6621" y2="324.6621"/><polygon fill="#181818" points="194.6855,349.9727,184.6855,353.9727,194.6855,357.9727,190.6855,353.9727" style="stroke:#181818;stroke-width:1.0;"/><ellipse cx="424.8735" cy="353.2227" fill="none" rx="4" ry="4" style="stroke:#181818;stroke-width:1.5;"/><line style="stroke:#181818;stroke-width:1.0;" x1="188.6855" x2="420.3735" y1="353.9727" y2="353.9727"/><text fill="#000000" font-family="sans-serif" font-size="13" lengthAdjust="spacing" textLength="26.5205" x="200.6855" y="349.2305">yolo</text><!--SRC=[hL0zJyCm4DtzAnwAr4nHJIT05L6JRWnahpgu-9HORNoMQwJ0h-SIHAaeGY2n-SxtFgz2D6rla8XVaU8pgUFU-M2YwT6OcDoJ2yQdnbZhV8lhcxF_YeUF_KAh7GygV2AmKkGjnYsmGd6FIirGZOzQSKXPYiOV1K1ocmNdzzWPYtdk_6GcdwkIHnJkq4IQiCk2InbV-C0mGfuwykWv4XAF0w9hkwJo6MeKcyvPItuhUi8AyWSJMu98ZwOW_EBlmWaDOjwMQlE3zgy5ljvLtqfc2xrUQtshyVWmTSMdifP5VP7ttwAUIY_FLD-JRl-QLFZV0000]--></g></svg>