<svg xmlns="http://www.w3.org/2000/svg" xmlns:xlink="http://www.w3.org/1999/xlink" contentStyleType="text/css" height="178px" preserveAspectRatio="none" style="width:101px;height:178px;background:#FFFFFF;" version="1.1" viewBox="0 0 101 178" width="101px" zoomAndPan="magnify"><defs/><g><line style="stroke:#181818;stroke-width:0.5;stroke-dasharray:5.0,5.0;" x1="16.5" x2="16.5" y1="36.4883" y2="142.4199"/><rect fill="#FFFFFF" height="21.3105" style="stroke:#181818;stroke-width:1.0;" width="10" x="11.5" y="44.4883"/><line style="stroke:#181818;stroke-width:0.5;stroke-dasharray:5.0,5.0;" x1="84.5" x2="84.5" y1="36.4883" y2="142.4199"/><rect fill="#FF0000" height="13" style="stroke:#181818;stroke-width:1.0;" width="10" x="79.5" y="65.7988"/><rect fill="#008000" height="13" style="stroke:#181818;stroke-width:1.0;" width="10" x="79.5" y="95.1094"/><rect fill="#008000" height="18" style="stroke:#181818;stroke-width:1.0;" width="10" x="79.5" y="124.4199"/><rect fill="#E2E2F0" height="30.4883" rx="2.5" ry="2.5" style="stroke:#181818;stroke-width:0.5;" width="23" x="5" y="5"/><text fill="#000000" font-family="sans-serif" font-size="14" lengthAdjust="spacing" textLength="9" x="12" y="25.5352">b</text><rect fill="#E2E2F0" height="30.4883" rx="2.5" ry="2.5" style="stroke:#181818;stroke-width:0.5;" width="22" x="73.5" y="5"/><text fill="#000000" font-family="sans-serif" font-size="14" lengthAdjust="spacing" textLength="8" x="80.5" y="25.5352">a</text><rect fill="#E2E2F0" height="30.4883" rx="2.5" ry="2.5" style="stroke:#181818;stroke-width:0.5;" width="23" x="5" y="142.4199"/><text fill="#000000" font-family="sans-serif" font-size="14" lengthAdjust="spacing" textLength="9" x="12" y="162.9551">b</text><rect fill="#E2E2F0" height="30.4883" rx="2.5" ry="2.5" style="stroke:#181818;stroke-width:0.5;" width="22" x="73.5" y="142.4199"/><text fill="#000000" font-family="sans-serif" font-size="14" lengthAdjust="spacing" textLength="8" x="80.5" y="162.9551">a</text><polygon fill="#181818" points="67.5,61.7988,77.5,65.7988,67.5,69.7988,71.5,65.7988" style="stroke:#181818;stroke-width:1.0;"/><line style="stroke:#181818;stroke-width:1.0;" x1="21.5" x2="73.5" y1="65.7988" y2="65.7988"/><text fill="#000000" font-family="sans-serif" font-size="13" lengthAdjust="spacing" textLength="31" x="28.5" y="61.0566">hello</text><polygon fill="#181818" points="67.5,91.1094,77.5,95.1094,67.5,99.1094,71.5,95.1094" style="stroke:#181818;stroke-width:1.0;"/><line style="stroke:#181818;stroke-width:1.0;" x1="16.5" x2="73.5" y1="95.1094" y2="95.1094"/><text fill="#000000" font-family="sans-serif" font-size="13" lengthAdjust="spacing" textLength="39" x="23.5" y="90.3672">hello2</text><polygon fill="#181818" points="67.5,120.4199,77.5,124.4199,67.5,128.4199,71.5,124.4199" style="stroke:#181818;stroke-width:1.0;"/><line style="stroke:#181818;stroke-width:1.0;" x1="16.5" x2="73.5" y1="124.4199" y2="124.4199"/><text fill="#000000" font-family="sans-serif" font-size="13" lengthAdjust="spacing" textLength="39" x="23.5" y="119.6777">hello3</text><!--SRC=[ROmx3a1048RxFSKl2eLiujLGADrZbicIO6Mo54ulnADHVuzW4R8JmRFRuMLb5JLErWbfNYIbejOF6tc6KGQw1a7hE4OetA52p-FeLCUlHOzri-mR448hpFElVYulUdVv0G00]--></g></svg>