<svg xmlns="http://www.w3.org/2000/svg" xmlns:xlink="http://www.w3.org/1999/xlink" contentStyleType="text/css" height="176px" preserveAspectRatio="none" style="width:326px;height:176px;background:#FFFFFF;" version="1.1" viewBox="0 0 326 176" width="326px" zoomAndPan="magnify"><defs/><g><rect fill="#ADD8E6" height="164.9082" style="stroke:#181818;stroke-width:0.5;" width="150.5" x="90.5" y="6"/><text fill="#000000" font-family="sans-serif" font-size="13" font-weight="bold" lengthAdjust="spacing" textLength="64" x="133.75" y="18.5684">Grouping</text><line style="stroke:#181818;stroke-width:0.5;stroke-dasharray:5.0,5.0;" x1="28.5" x2="28.5" y1="56.7988" y2="133.4199"/><line style="stroke:#181818;stroke-width:0.5;stroke-dasharray:5.0,5.0;" x1="114.5" x2="114.5" y1="56.7988" y2="133.4199"/><rect fill="#FFFFFF" height="29.3105" style="stroke:#181818;stroke-width:1.0;" width="10" x="109.5" y="86.1094"/><line style="stroke:#181818;stroke-width:0.5;stroke-dasharray:5.0,5.0;" x1="205.5" x2="205.5" y1="56.7988" y2="133.4199"/><rect fill="#FFFFFF" height="29.3105" style="stroke:#181818;stroke-width:1.0;" width="10" x="200.5" y="86.1094"/><line style="stroke:#181818;stroke-width:0.5;stroke-dasharray:5.0,5.0;" x1="296.5" x2="296.5" y1="56.7988" y2="133.4199"/><rect fill="#FFFFFF" height="29.3105" style="stroke:#181818;stroke-width:1.0;" width="10" x="291.5" y="86.1094"/><rect fill="#E2E2F0" height="30.4883" rx="2.5" ry="2.5" style="stroke:#181818;stroke-width:0.5;" width="47" x="5" y="25.3105"/><text fill="#000000" font-family="sans-serif" font-size="14" lengthAdjust="spacing" textLength="33" x="12" y="45.8457">Alice</text><rect fill="#E2E2F0" height="30.4883" rx="2.5" ry="2.5" style="stroke:#181818;stroke-width:0.5;" width="40" x="94.5" y="25.3105"/><text fill="#000000" font-family="sans-serif" font-size="14" lengthAdjust="spacing" textLength="26" x="101.5" y="45.8457">Bob</text><rect fill="#E2E2F0" height="30.4883" rx="2.5" ry="2.5" style="stroke:#181818;stroke-width:0.5;" width="63" x="174" y="25.3105"/><text fill="#000000" font-family="sans-serif" font-size="14" lengthAdjust="spacing" textLength="49" x="181" y="45.8457">Charlie</text><rect fill="#E2E2F0" height="30.4883" rx="2.5" ry="2.5" style="stroke:#181818;stroke-width:0.5;" width="47" x="273" y="25.3105"/><text fill="#000000" font-family="sans-serif" font-size="14" lengthAdjust="spacing" textLength="33" x="280" y="45.8457">Dave</text><rect fill="#E2E2F0" height="30.4883" rx="2.5" ry="2.5" style="stroke:#181818;stroke-width:0.5;" width="47" x="5" y="133.4199"/><text fill="#000000" font-family="sans-serif" font-size="14" lengthAdjust="spacing" textLength="33" x="12" y="153.9551">Alice</text><rect fill="#E2E2F0" height="30.4883" rx="2.5" ry="2.5" style="stroke:#181818;stroke-width:0.5;" width="40" x="94.5" y="133.4199"/><text fill="#000000" font-family="sans-serif" font-size="14" lengthAdjust="spacing" textLength="26" x="101.5" y="153.9551">Bob</text><rect fill="#E2E2F0" height="30.4883" rx="2.5" ry="2.5" style="stroke:#181818;stroke-width:0.5;" width="63" x="174" y="133.4199"/><text fill="#000000" font-family="sans-serif" font-size="14" lengthAdjust="spacing" textLength="49" x="181" y="153.9551">Charlie</text><rect fill="#E2E2F0" height="30.4883" rx="2.5" ry="2.5" style="stroke:#181818;stroke-width:0.5;" width="47" x="273" y="133.4199"/><text fill="#000000" font-family="sans-serif" font-size="14" lengthAdjust="spacing" textLength="33" x="280" y="153.9551">Dave</text><polygon fill="#181818" points="97.5,82.1094,107.5,86.1094,97.5,90.1094,101.5,86.1094" style="stroke:#181818;stroke-width:1.0;"/><line style="stroke:#181818;stroke-width:1.0;" x1="28.5" x2="103.5" y1="86.1094" y2="86.1094"/><text fill="#000000" font-family="sans-serif" font-size="13" lengthAdjust="spacing" textLength="47" x="35.5" y="81.3672">request</text><polygon fill="#181818" points="188.5,82.1094,198.5,86.1094,188.5,90.1094,192.5,86.1094" style="stroke:#181818;stroke-width:1.0;"/><line style="stroke:#181818;stroke-width:1.0;" x1="119.5" x2="194.5" y1="86.1094" y2="86.1094"/><text fill="#000000" font-family="sans-serif" font-size="13" lengthAdjust="spacing" textLength="47" x="126.5" y="81.3672">request</text><polygon fill="#181818" points="279.5,82.1094,289.5,86.1094,279.5,90.1094,283.5,86.1094" style="stroke:#181818;stroke-width:1.0;"/><line style="stroke:#181818;stroke-width:1.0;" x1="210.5" x2="285.5" y1="86.1094" y2="86.1094"/><text fill="#000000" font-family="sans-serif" font-size="13" lengthAdjust="spacing" textLength="47" x="217.5" y="81.3672">request</text><polygon fill="#181818" points="221.5,111.4199,211.5,115.4199,221.5,119.4199,217.5,115.4199" style="stroke:#181818;stroke-width:1.0;"/><line style="stroke:#181818;stroke-width:1.0;stroke-dasharray:2.0,2.0;" x1="215.5" x2="290.5" y1="115.4199" y2="115.4199"/><text fill="#000000" font-family="sans-serif" font-size="13" lengthAdjust="spacing" textLength="57" x="227.5" y="110.6777">response</text><polygon fill="#181818" points="130.5,111.4199,120.5,115.4199,130.5,119.4199,126.5,115.4199" style="stroke:#181818;stroke-width:1.0;"/><line style="stroke:#181818;stroke-width:1.0;stroke-dasharray:2.0,2.0;" x1="124.5" x2="199.5" y1="115.4199" y2="115.4199"/><text fill="#000000" font-family="sans-serif" font-size="13" lengthAdjust="spacing" textLength="57" x="136.5" y="110.6777">response</text><polygon fill="#181818" points="39.5,111.4199,29.5,115.4199,39.5,119.4199,35.5,115.4199" style="stroke:#181818;stroke-width:1.0;"/><line style="stroke:#181818;stroke-width:1.0;stroke-dasharray:2.0,2.0;" x1="33.5" x2="108.5" y1="115.4199" y2="115.4199"/><text fill="#000000" font-family="sans-serif" font-size="13" lengthAdjust="spacing" textLength="57" x="45.5" y="110.6777">response</text><!--SRC=[LP11QiCm44NtSuhV5DgL0-sgAING9BIRNcBY3BR0qQZoA8ISFb9T6tid_fjvyz53YDoS6IPwWyKaz8mlZUcCbzUtpGPLXIY_INgJ4_hEDQqXlqDmle6rcffsJPnCkJPtOHEe9meSpTKki3TyTguMEkeLg- -egIokyFXJJBiktyDyUAV7PR1lENPEIFm9sR4m7_WYH1WkeDgMRRoFVUa9Vq7E_oLBDgLve9Xc53FwaNzWmdrGtyjeBcYkdkXGgE2nqO3k]--></g></svg>