<svg xmlns="http://www.w3.org/2000/svg" xmlns:xlink="http://www.w3.org/1999/xlink" contentStyleType="text/css" height="372px" preserveAspectRatio="none" style="width:373px;height:372px;background:#FFFFFF;" version="1.1" viewBox="0 0 373 372" width="373px" zoomAndPan="magnify"><defs/><g><rect fill="#ADD8E6" height="322.9727" rx="5" ry="5" style="stroke:#181818;stroke-width:0.5;" width="240.5" x="23" y="43.4883"/><text fill="#000000" font-family="sans-serif" font-size="13" font-weight="bold" lengthAdjust="spacing" textLength="58" x="114.25" y="56.0566">Device 1</text><rect fill="#90EE90" height="322.9727" rx="5" ry="5" style="stroke:#181818;stroke-width:0.5;" width="92" x="275.5" y="43.4883"/><text fill="#000000" font-family="sans-serif" font-size="13" font-weight="bold" lengthAdjust="spacing" textLength="58" x="292.5" y="56.0566">Device 2</text><text fill="#000000" font-family="sans-serif" font-size="14" font-weight="bold" lengthAdjust="spacing" textLength="164" x="114.75" y="28.5352">example of par2 usage</text><line style="stroke:#181818;stroke-width:0.5;stroke-dasharray:5.0,5.0;" x1="43" x2="43" y1="125.2871" y2="360.4609"/><line style="stroke:#181818;stroke-width:0.5;stroke-dasharray:5.0,5.0;" x1="158" x2="158" y1="125.2871" y2="360.4609"/><line style="stroke:#181818;stroke-width:0.5;stroke-dasharray:5.0,5.0;" x1="248" x2="248" y1="125.2871" y2="360.4609"/><line style="stroke:#181818;stroke-width:0.5;stroke-dasharray:5.0,5.0;" x1="299.5" x2="299.5" y1="125.2871" y2="360.4609"/><line style="stroke:#181818;stroke-width:0.5;stroke-dasharray:5.0,5.0;" x1="338.5" x2="338.5" y1="125.2871" y2="360.4609"/><rect fill="#E2E2F0" height="30.4883" rx="5" ry="5" style="stroke:#181818;stroke-width:0.5;" width="32" x="27" y="93.7988"/><text fill="#000000" font-family="sans-serif" font-size="14" lengthAdjust="spacing" textLength="18" x="34" y="114.334">HB</text><text fill="#000000" font-family="sans-serif" font-size="14" lengthAdjust="spacing" textLength="53" x="128.5" y="122.334">Storage</text><path d="M140,72.7988 C140,62.7988 158,62.7988 158,62.7988 C158,62.7988 176,62.7988 176,72.7988 L176,98.7988 C176,108.7988 158,108.7988 158,108.7988 C158,108.7988 140,108.7988 140,98.7988 L140,72.7988 " fill="#E2E2F0" style="stroke:#181818;stroke-width:1.5;"/><path d="M140,72.7988 C140,82.7988 158,82.7988 158,82.7988 C158,82.7988 176,82.7988 176,72.7988 " fill="none" style="stroke:#181818;stroke-width:1.5;"/><rect fill="#E2E2F0" height="30.4883" rx="5" ry="5" style="stroke:#181818;stroke-width:0.5;" width="23" x="236.5" y="93.7988"/><text fill="#000000" font-family="sans-serif" font-size="14" lengthAdjust="spacing" textLength="9" x="243.5" y="114.334">R</text><rect fill="#E2E2F0" height="30.4883" rx="5" ry="5" style="stroke:#181818;stroke-width:0.5;" width="24" x="287.5" y="93.7988"/><text fill="#000000" font-family="sans-serif" font-size="14" lengthAdjust="spacing" textLength="10" x="294.5" y="114.334">C</text><rect fill="#E2E2F0" height="30.4883" rx="5" ry="5" style="stroke:#181818;stroke-width:0.5;" width="34" x="321.5" y="93.7988"/><text fill="#000000" font-family="sans-serif" font-size="14" lengthAdjust="spacing" textLength="20" x="328.5" y="114.334">CN</text><rect fill="#EEEEEE" height="3" rx="5" ry="5" style="stroke:#EEEEEE;stroke-width:1.0;" width="360.5" x="5" y="154.9424"/><line style="stroke:#000000;stroke-width:1.0;" x1="5" x2="365.5" y1="154.9424" y2="154.9424"/><line style="stroke:#000000;stroke-width:1.0;" x1="5" x2="365.5" y1="157.9424" y2="157.9424"/><rect fill="#EEEEEE" height="23.3105" rx="5" ry="5" style="stroke:#000000;stroke-width:2.0;" width="108" x="131.25" y="144.2871"/><text fill="#000000" font-family="sans-serif" font-size="13" font-weight="bold" lengthAdjust="spacing" textLength="90" x="137.25" y="160.8555">System Starts</text><path d="M32,181.9082 L97,181.9082 L97,189.2188 L87,199.2188 L27,199.2188 L27,186.9082 A5,5 0 0 1 32,181.9082 " fill="#EEEEEE" style="stroke:#000000;stroke-width:1.5;"/><rect fill="none" height="56.6211" rx="5" ry="5" style="stroke:#000000;stroke-width:1.5;" width="147" x="27" y="181.9082"/><text fill="#000000" font-family="sans-serif" font-size="13" font-weight="bold" lengthAdjust="spacing" textLength="25" x="42" y="195.4766">one</text><polygon fill="#181818" points="146,226.5293,156,230.5293,146,234.5293,150,230.5293" style="stroke:#181818;stroke-width:1.0;"/><line style="stroke:#181818;stroke-width:1.0;" x1="43" x2="152" y1="230.5293" y2="230.5293"/><text fill="#000000" font-family="sans-serif" font-size="13" lengthAdjust="spacing" textLength="91" x="50" y="225.7871">Get(*macAddr)</text><polygon fill="#181818" points="169,177.9082,159,181.9082,169,185.9082,165,181.9082" style="stroke:#181818;stroke-width:1.0;"/><line style="stroke:#181818;stroke-width:1.0;" x1="163" x2="247" y1="181.9082" y2="181.9082"/><text fill="#000000" font-family="sans-serif" font-size="13" lengthAdjust="spacing" textLength="66" x="175" y="177.166">Put($Addr)</text><path d="M32,269.8398 L96,269.8398 L96,277.1504 L86,287.1504 L27,287.1504 L27,274.8398 A5,5 0 0 1 32,269.8398 " fill="#EEEEEE" style="stroke:#000000;stroke-width:1.5;"/><rect fill="none" height="56.6211" rx="5" ry="5" style="stroke:#000000;stroke-width:1.5;" width="147" x="27" y="269.8398"/><text fill="#000000" font-family="sans-serif" font-size="13" font-weight="bold" lengthAdjust="spacing" textLength="24" x="42" y="283.4082">two</text><polygon fill="#181818" points="54,314.4609,44,318.4609,54,322.4609,50,318.4609" style="stroke:#181818;stroke-width:1.0;"/><line style="stroke:#181818;stroke-width:1.0;stroke-dasharray:2.0,2.0;" x1="48" x2="157" y1="318.4609" y2="318.4609"/><text fill="#000000" font-family="sans-serif" font-size="13" lengthAdjust="spacing" textLength="54" x="60" y="313.7188">$Answer</text><polygon fill="#181818" points="236,265.8398,246,269.8398,236,273.8398,240,269.8398" style="stroke:#181818;stroke-width:1.0;"/><line style="stroke:#181818;stroke-width:1.0;" x1="158" x2="242" y1="269.8398" y2="269.8398"/><text fill="#000000" font-family="sans-serif" font-size="13" lengthAdjust="spacing" textLength="41" x="165" y="265.0977">Return</text><!--SRC=[PO_1Ji9048RlynHZRT9Y8A4OBoGb0KpmeCRK9rYwGzdOxcvsfu8-lLC8KU9b3_j__pSpDpwefbF8vBwHGqyGFuprAgWEW-kjhbsm5B2O0h3Xbe2EglCjeTkXO3Fiesharseyvx0tcd3d76_T4K0UJ1xfqzI4HOAtpwRPywgLGT9cKnklBEFJ2hHYjLMHy9sTx4Ie8huirrTOTPhpppkxU3U1o5urhllhrrz1MUBxLsJgPA0W4SiI1dW6sCZb7fqbGDaC9ujX4PmZReZpkqxLIwt3251S5vWFJk01cmWkfJccIniF5CuOjP6W-gDwwpbFpvvJQu7Ly5qHzy52blgUXpHF92sISN7_C88CifCdIzjM-pnP9-DBF1t1SDeF]--></g></svg>