<svg xmlns="http://www.w3.org/2000/svg" xmlns:xlink="http://www.w3.org/1999/xlink" contentStyleType="text/css" height="458px" preserveAspectRatio="none" style="width:291px;height:458px;background:#FFFFFF;" version="1.1" viewBox="0 0 291 458" width="291px" zoomAndPan="magnify"><defs/><g><rect fill="#DDDDDD" height="446.7715" style="stroke:#181818;stroke-width:0.5;" width="68" x="31" y="6"/><rect fill="#FFC0CB" height="56.6211" style="stroke:#FFC0CB;stroke-width:1.0;" width="126" x="125" y="67.4883"/><rect fill="#20DD00" fill-opacity="0.56471" height="56.6211" style="stroke:#20DD0090;stroke-width:1.0;" width="202" x="49" y="260.041"/><rect fill="#FFC0CB" height="56.6211" style="stroke:#FFC0CB;stroke-width:1.0;" width="202" x="49" y="334.6621"/><line style="stroke:#181818;stroke-width:0.5;stroke-dasharray:5.0,5.0;" x1="65" x2="65" y1="41.4883" y2="415.2832"/><line style="stroke:#181818;stroke-width:0.5;stroke-dasharray:5.0,5.0;" x1="184" x2="184" y1="41.4883" y2="415.2832"/><line style="stroke:#181818;stroke-width:0.5;stroke-dasharray:5.0,5.0;" x1="253" x2="253" y1="41.4883" y2="415.2832"/><rect fill="#E2E2F0" height="30.4883" rx="2.5" ry="2.5" style="stroke:#181818;stroke-width:0.5;" width="24" x="53" y="10"/><text fill="#000000" font-family="sans-serif" font-size="14" lengthAdjust="spacing" textLength="10" x="60" y="30.5352">A</text><rect fill="#E2E2F0" height="30.4883" rx="2.5" ry="2.5" style="stroke:#181818;stroke-width:0.5;" width="22" x="173" y="10"/><text fill="#000000" font-family="sans-serif" font-size="14" lengthAdjust="spacing" textLength="8" x="180" y="30.5352">B</text><rect fill="#E2E2F0" height="30.4883" rx="2.5" ry="2.5" style="stroke:#181818;stroke-width:0.5;" width="24" x="241" y="10"/><text fill="#000000" font-family="sans-serif" font-size="14" lengthAdjust="spacing" textLength="10" x="248" y="30.5352">C</text><rect fill="#E2E2F0" height="30.4883" rx="2.5" ry="2.5" style="stroke:#181818;stroke-width:0.5;" width="24" x="53" y="415.2832"/><text fill="#000000" font-family="sans-serif" font-size="14" lengthAdjust="spacing" textLength="10" x="60" y="435.8184">A</text><rect fill="#E2E2F0" height="30.4883" rx="2.5" ry="2.5" style="stroke:#181818;stroke-width:0.5;" width="22" x="173" y="415.2832"/><text fill="#000000" font-family="sans-serif" font-size="14" lengthAdjust="spacing" textLength="8" x="180" y="435.8184">B</text><rect fill="#E2E2F0" height="30.4883" rx="2.5" ry="2.5" style="stroke:#181818;stroke-width:0.5;" width="24" x="241" y="415.2832"/><text fill="#000000" font-family="sans-serif" font-size="14" lengthAdjust="spacing" textLength="10" x="248" y="435.8184">C</text><polygon fill="#181818" points="172,51.4883,182,55.4883,172,59.4883,176,55.4883" style="stroke:#181818;stroke-width:1.0;"/><line style="stroke:#181818;stroke-width:1.0;" x1="65" x2="178" y1="55.4883" y2="55.4883"/><polygon fill="#181818" points="241,51.4883,251,55.4883,241,59.4883,245,55.4883" style="stroke:#181818;stroke-width:1.0;"/><line style="stroke:#181818;stroke-width:1.0;" x1="184" x2="247" y1="55.4883" y2="55.4883"/><path d="M125,67.4883 L192,67.4883 L192,74.7988 L182,84.7988 L125,84.7988 L125,67.4883 " fill="none" style="stroke:#000000;stroke-width:1.5;"/><rect fill="none" height="56.6211" style="stroke:#000000;stroke-width:1.5;" width="126" x="125" y="67.4883"/><text fill="#000000" font-family="sans-serif" font-size="13" font-weight="bold" lengthAdjust="spacing" textLength="22" x="140" y="81.0566">opt</text><text fill="#000000" font-family="sans-serif" font-size="11" font-weight="bold" lengthAdjust="spacing" textLength="28" x="207" y="80.123">[bad]</text><ellipse cx="146.5" cy="115.3594" fill="none" rx="4" ry="4" style="stroke:#181818;stroke-width:1.5;"/><polygon fill="#181818" points="172,112.1094,182,116.1094,172,120.1094,176,116.1094" style="stroke:#181818;stroke-width:1.0;"/><line style="stroke:#181818;stroke-width:1.0;" x1="151" x2="178" y1="116.1094" y2="116.1094"/><text fill="#000000" font-family="sans-serif" font-size="13" lengthAdjust="spacing" textLength="19" x="154" y="111.3672">Pre</text><polygon fill="#181818" points="195,112.1094,185,116.1094,195,120.1094,191,116.1094" style="stroke:#181818;stroke-width:1.0;"/><ellipse cx="228.5" cy="115.3594" fill="none" rx="4" ry="4" style="stroke:#181818;stroke-width:1.5;"/><line style="stroke:#181818;stroke-width:1.0;" x1="189" x2="224" y1="116.1094" y2="116.1094"/><text fill="#000000" font-family="sans-serif" font-size="13" lengthAdjust="spacing" textLength="27" x="201" y="111.3672">yolo</text><path d="M125,142.1094 L192,142.1094 L192,149.4199 L182,159.4199 L125,159.4199 L125,142.1094 " fill="none" style="stroke:#000000;stroke-width:1.5;"/><rect fill="none" height="56.6211" style="stroke:#000000;stroke-width:1.5;" width="150" x="125" y="142.1094"/><text fill="#000000" font-family="sans-serif" font-size="13" font-weight="bold" lengthAdjust="spacing" textLength="22" x="140" y="155.6777">opt</text><text fill="#000000" font-family="sans-serif" font-size="11" font-weight="bold" lengthAdjust="spacing" textLength="52" x="207" y="154.7441">[expand?]</text><ellipse cx="10.5" cy="189.9805" fill="none" rx="4" ry="4" style="stroke:#181818;stroke-width:1.5;"/><polygon fill="#181818" points="172,186.7305,182,190.7305,172,194.7305,176,190.7305" style="stroke:#181818;stroke-width:1.0;"/><line style="stroke:#181818;stroke-width:1.0;" x1="15" x2="178" y1="190.7305" y2="190.7305"/><text fill="#000000" font-family="sans-serif" font-size="13" lengthAdjust="spacing" textLength="19" x="154" y="185.9883">Pre</text><polygon fill="#181818" points="195,186.7305,185,190.7305,195,194.7305,191,190.7305" style="stroke:#181818;stroke-width:1.0;"/><ellipse cx="228.5" cy="189.9805" fill="none" rx="4" ry="4" style="stroke:#181818;stroke-width:1.5;"/><line style="stroke:#181818;stroke-width:1.0;" x1="189" x2="224" y1="190.7305" y2="190.7305"/><text fill="#000000" font-family="sans-serif" font-size="13" lengthAdjust="spacing" textLength="27" x="201" y="185.9883">yolo</text><rect fill="#EEEEEE" height="3" style="stroke:#EEEEEE;stroke-width:1.0;" width="279" x="5" y="233.3857"/><line style="stroke:#000000;stroke-width:1.0;" x1="5" x2="284" y1="233.3857" y2="233.3857"/><line style="stroke:#000000;stroke-width:1.0;" x1="5" x2="284" y1="236.3857" y2="236.3857"/><rect fill="#EEEEEE" height="23.3105" style="stroke:#000000;stroke-width:2.0;" width="236" x="26.5" y="222.7305"/><text fill="#000000" font-family="sans-serif" font-size="13" font-weight="bold" lengthAdjust="spacing" textLength="218" x="32.5" y="239.2988">Division showing diagram width</text><path d="M49,260.041 L116,260.041 L116,267.3516 L106,277.3516 L49,277.3516 L49,260.041 " fill="none" style="stroke:#000000;stroke-width:1.5;"/><rect fill="none" height="56.6211" style="stroke:#000000;stroke-width:1.5;" width="202" x="49" y="260.041"/><text fill="#000000" font-family="sans-serif" font-size="13" font-weight="bold" lengthAdjust="spacing" textLength="22" x="64" y="273.6094">opt</text><text fill="#000000" font-family="sans-serif" font-size="11" font-weight="bold" lengthAdjust="spacing" textLength="25" x="131" y="272.6758">[OK]</text><ellipse cx="64.5" cy="307.9121" fill="none" rx="4" ry="4" style="stroke:#181818;stroke-width:1.5;"/><polygon fill="#181818" points="172,304.6621,182,308.6621,172,312.6621,176,308.6621" style="stroke:#181818;stroke-width:1.0;"/><line style="stroke:#181818;stroke-width:1.0;" x1="69" x2="178" y1="308.6621" y2="308.6621"/><polygon fill="#181818" points="195,304.6621,185,308.6621,195,312.6621,191,308.6621" style="stroke:#181818;stroke-width:1.0;"/><ellipse cx="228.5" cy="307.9121" fill="none" rx="4" ry="4" style="stroke:#181818;stroke-width:1.5;"/><line style="stroke:#181818;stroke-width:1.0;" x1="189" x2="224" y1="308.6621" y2="308.6621"/><text fill="#000000" font-family="sans-serif" font-size="13" lengthAdjust="spacing" textLength="27" x="201" y="303.9199">yolo</text><path d="M49,334.6621 L116,334.6621 L116,341.9727 L106,351.9727 L49,351.9727 L49,334.6621 " fill="none" style="stroke:#000000;stroke-width:1.5;"/><rect fill="none" height="56.6211" style="stroke:#000000;stroke-width:1.5;" width="202" x="49" y="334.6621"/><text fill="#000000" font-family="sans-serif" font-size="13" font-weight="bold" lengthAdjust="spacing" textLength="22" x="64" y="348.2305">opt</text><text fill="#000000" font-family="sans-serif" font-size="11" font-weight="bold" lengthAdjust="spacing" textLength="33" x="131" y="347.2969">[bad?]</text><ellipse cx="64.5" cy="382.5332" fill="none" rx="4" ry="4" style="stroke:#181818;stroke-width:1.5;"/><polygon fill="#181818" points="172,379.2832,182,383.2832,172,387.2832,176,383.2832" style="stroke:#181818;stroke-width:1.0;"/><line style="stroke:#181818;stroke-width:1.0;" x1="69" x2="178" y1="383.2832" y2="383.2832"/><polygon fill="#181818" points="195,379.2832,185,383.2832,195,387.2832,191,383.2832" style="stroke:#181818;stroke-width:1.0;"/><ellipse cx="277.5" cy="382.5332" fill="none" rx="4" ry="4" style="stroke:#181818;stroke-width:1.5;"/><line style="stroke:#181818;stroke-width:1.0;" x1="189" x2="273" y1="383.2832" y2="383.2832"/><text fill="#000000" font-family="sans-serif" font-size="13" lengthAdjust="spacing" textLength="27" x="201" y="378.541">yolo</text><!--SRC=[hP0nJyCm48Lt_ug7AZLJrT09425gces1x5M7AxQIKrkVvHWQ-FNOaIY8RAYRVRxtlkTtupor9q8myedWtupg3smTUJgX8H_ubHtPq93MR5lStlrwhsJudgzojPT1kHy5rifOZJG5rbWyeL9pLEcmKUB2B7YoVHIOk3jpR0_OayOoOpk6oPQgbAJ20nflHktZGifu_P2Zg6oE3HRRZhKsTXTDenJ67ict1j4_aH5DOeW9pWmneIxLzXg0ltlLY2mArFpEFOj5tyavbQIPsjJRcNNeK1JJ6bPvNUVvVOwNvx4rkTHshQzVcYwdWDq_05y0]--></g></svg>