<svg xmlns="http://www.w3.org/2000/svg" xmlns:xlink="http://www.w3.org/1999/xlink" contentStyleType="text/css" height="1006px" preserveAspectRatio="none" style="width:255px;height:1006px;background:#FFFFFF;" version="1.1" viewBox="0 0 255 1006" width="255px" zoomAndPan="magnify"><defs/><g><line style="stroke:#181818;stroke-width:0.5;stroke-dasharray:5.0,5.0;" x1="92" x2="92" y1="36.4883" y2="969.5313"/><line style="stroke:#181818;stroke-width:0.5;stroke-dasharray:5.0,5.0;" x1="147" x2="147" y1="36.4883" y2="969.5313"/><rect fill="#E2E2F0" height="30.4883" rx="2.5" ry="2.5" style="stroke:#181818;stroke-width:0.5;" width="40" x="72" y="5"/><text fill="#000000" font-family="sans-serif" font-size="14" lengthAdjust="spacing" textLength="26" x="79" y="25.5352">Bob</text><rect fill="#E2E2F0" height="30.4883" rx="2.5" ry="2.5" style="stroke:#181818;stroke-width:0.5;" width="47" x="123.5" y="5"/><text fill="#000000" font-family="sans-serif" font-size="14" lengthAdjust="spacing" textLength="33" x="130.5" y="25.5352">Alice</text><rect fill="#E2E2F0" height="30.4883" rx="2.5" ry="2.5" style="stroke:#181818;stroke-width:0.5;" width="40" x="72" y="969.5313"/><text fill="#000000" font-family="sans-serif" font-size="14" lengthAdjust="spacing" textLength="26" x="79" y="990.0664">Bob</text><rect fill="#E2E2F0" height="30.4883" rx="2.5" ry="2.5" style="stroke:#181818;stroke-width:0.5;" width="47" x="123.5" y="969.5313"/><text fill="#000000" font-family="sans-serif" font-size="14" lengthAdjust="spacing" textLength="33" x="130.5" y="990.0664">Alice</text><polygon fill="#181818" points="135,61.7988,145,65.7988,135,69.7988,139,65.7988" style="stroke:#181818;stroke-width:1.0;"/><line style="stroke:#181818;stroke-width:1.0;" x1="92" x2="141" y1="65.7988" y2="65.7988"/><text fill="#000000" font-family="sans-serif" font-size="13" lengthAdjust="spacing" textLength="31" x="99" y="61.0566">hello</text><rect fill="#FEFFDD" height="38" style="stroke:#181818;stroke-width:0.5;" width="70" x="152" y="49.4883"/><text fill="#000000" font-family="sans-serif" font-size="13" lengthAdjust="spacing" textLength="33" x="156" y="66.0566">rnote</text><text fill="#000000" font-family="sans-serif" font-size="13" lengthAdjust="spacing" textLength="58" x="160" y="81.3672">just right</text><rect fill="#FEFFDD" height="38" style="stroke:#181818;stroke-width:0.5;" width="61" x="26" y="49.4883"/><text fill="#000000" font-family="sans-serif" font-size="13" lengthAdjust="spacing" textLength="33" x="30" y="66.0566">rnote</text><text fill="#000000" font-family="sans-serif" font-size="13" lengthAdjust="spacing" textLength="49" x="34" y="81.3672">just left</text><polygon fill="#181818" points="103,110.4199,93,114.4199,103,118.4199,99,114.4199" style="stroke:#181818;stroke-width:1.0;"/><line style="stroke:#181818;stroke-width:1.0;" x1="97" x2="146" y1="114.4199" y2="114.4199"/><text fill="#000000" font-family="sans-serif" font-size="13" lengthAdjust="spacing" textLength="31" x="109" y="109.6777">hello</text><polygon fill="#FEFFDD" points="162,98.1094,228,98.1094,238,117.1094,228,136.1094,162,136.1094,152,117.1094,162,98.1094" style="stroke:#181818;stroke-width:0.5;"/><text fill="#000000" font-family="sans-serif" font-size="13" lengthAdjust="spacing" textLength="36" x="164" y="114.6777">hnote</text><text fill="#000000" font-family="sans-serif" font-size="13" lengthAdjust="spacing" textLength="58" x="168" y="129.9883">just right</text><polygon fill="#FEFFDD" points="20,98.1094,77,98.1094,87,117.1094,77,136.1094,20,136.1094,10,117.1094,20,98.1094" style="stroke:#181818;stroke-width:0.5;"/><text fill="#000000" font-family="sans-serif" font-size="13" lengthAdjust="spacing" textLength="36" x="22" y="114.6777">hnote</text><text fill="#000000" font-family="sans-serif" font-size="13" lengthAdjust="spacing" textLength="49" x="26" y="129.9883">just left</text><polygon fill="#FEFFDD" points="127,146.7305,167,146.7305,177,172.7305,167,199.7305,127,199.7305,117,172.7305,127,146.7305" style="stroke:#181818;stroke-width:0.5;"/><text fill="#000000" font-family="sans-serif" font-size="13" lengthAdjust="spacing" textLength="36" x="129" y="163.2988">hnote</text><text fill="#000000" font-family="sans-serif" font-size="13" lengthAdjust="spacing" textLength="27" x="133" y="178.6094">over</text><text fill="#000000" font-family="sans-serif" font-size="13" lengthAdjust="spacing" textLength="31" x="133" y="193.9199">Alice</text><polygon fill="#FEFFDD" points="92,210.6621,132,210.6621,142,236.6621,132,263.6621,92,263.6621,82,236.6621,92,210.6621" style="stroke:#181818;stroke-width:0.5;"/><text fill="#000000" font-family="sans-serif" font-size="13" lengthAdjust="spacing" textLength="36" x="94" y="227.2305">hnote</text><text fill="#000000" font-family="sans-serif" font-size="13" lengthAdjust="spacing" textLength="21" x="98" y="242.541">left</text><text fill="#000000" font-family="sans-serif" font-size="13" lengthAdjust="spacing" textLength="31" x="98" y="257.8516">Alice</text><polygon fill="#FEFFDD" points="162,274.5938,204,274.5938,214,300.5938,204,327.5938,162,327.5938,152,300.5938,162,274.5938" style="stroke:#181818;stroke-width:0.5;"/><text fill="#000000" font-family="sans-serif" font-size="13" lengthAdjust="spacing" textLength="36" x="164" y="291.1621">hnote</text><text fill="#000000" font-family="sans-serif" font-size="13" lengthAdjust="spacing" textLength="30" x="168" y="306.4727">right</text><text fill="#000000" font-family="sans-serif" font-size="13" lengthAdjust="spacing" textLength="31" x="168" y="321.7832">Alice</text><rect fill="#FEFFDD" height="53" style="stroke:#181818;stroke-width:0.5;" width="43" x="125.5" y="338.5254"/><text fill="#000000" font-family="sans-serif" font-size="13" lengthAdjust="spacing" textLength="33" x="129.5" y="355.0938">rnote</text><text fill="#000000" font-family="sans-serif" font-size="13" lengthAdjust="spacing" textLength="27" x="133.5" y="370.4043">over</text><text fill="#000000" font-family="sans-serif" font-size="13" lengthAdjust="spacing" textLength="31" x="133.5" y="385.7148">Alice</text><rect fill="#FEFFDD" height="53" style="stroke:#181818;stroke-width:0.5;" width="43" x="99" y="402.457"/><text fill="#000000" font-family="sans-serif" font-size="13" lengthAdjust="spacing" textLength="33" x="103" y="419.0254">rnote</text><text fill="#000000" font-family="sans-serif" font-size="13" lengthAdjust="spacing" textLength="21" x="107" y="434.3359">left</text><text fill="#000000" font-family="sans-serif" font-size="13" lengthAdjust="spacing" textLength="31" x="107" y="449.6465">Alice</text><rect fill="#FEFFDD" height="53" style="stroke:#181818;stroke-width:0.5;" width="46" x="152" y="466.3887"/><text fill="#000000" font-family="sans-serif" font-size="13" lengthAdjust="spacing" textLength="33" x="156" y="482.957">rnote</text><text fill="#000000" font-family="sans-serif" font-size="13" lengthAdjust="spacing" textLength="30" x="160" y="498.2676">right</text><text fill="#000000" font-family="sans-serif" font-size="13" lengthAdjust="spacing" textLength="31" x="160" y="513.5781">Alice</text><polygon fill="#FEFFDD" points="72,530.3203,112,530.3203,122,556.3203,112,583.3203,72,583.3203,62,556.3203,72,530.3203" style="stroke:#181818;stroke-width:0.5;"/><text fill="#000000" font-family="sans-serif" font-size="13" lengthAdjust="spacing" textLength="36" x="74" y="546.8887">hnote</text><text fill="#000000" font-family="sans-serif" font-size="13" lengthAdjust="spacing" textLength="27" x="78" y="562.1992">over</text><text fill="#000000" font-family="sans-serif" font-size="13" lengthAdjust="spacing" textLength="23" x="78" y="577.5098">Bob</text><polygon fill="#FEFFDD" points="37,594.252,77,594.252,87,620.252,77,647.252,37,647.252,27,620.252,37,594.252" style="stroke:#181818;stroke-width:0.5;"/><text fill="#000000" font-family="sans-serif" font-size="13" lengthAdjust="spacing" textLength="36" x="39" y="610.8203">hnote</text><text fill="#000000" font-family="sans-serif" font-size="13" lengthAdjust="spacing" textLength="21" x="43" y="626.1309">left</text><text fill="#000000" font-family="sans-serif" font-size="13" lengthAdjust="spacing" textLength="23" x="43" y="641.4414">Bob</text><polygon fill="#FEFFDD" points="107,658.1836,149,658.1836,159,684.1836,149,711.1836,107,711.1836,97,684.1836,107,658.1836" style="stroke:#181818;stroke-width:0.5;"/><text fill="#000000" font-family="sans-serif" font-size="13" lengthAdjust="spacing" textLength="36" x="109" y="674.752">hnote</text><text fill="#000000" font-family="sans-serif" font-size="13" lengthAdjust="spacing" textLength="30" x="113" y="690.0625">right</text><text fill="#000000" font-family="sans-serif" font-size="13" lengthAdjust="spacing" textLength="23" x="113" y="705.373">Bob</text><rect fill="#FEFFDD" height="53" style="stroke:#181818;stroke-width:0.5;" width="43" x="70.5" y="722.1152"/><text fill="#000000" font-family="sans-serif" font-size="13" lengthAdjust="spacing" textLength="33" x="74.5" y="738.6836">rnote</text><text fill="#000000" font-family="sans-serif" font-size="13" lengthAdjust="spacing" textLength="27" x="78.5" y="753.9941">over</text><text fill="#000000" font-family="sans-serif" font-size="13" lengthAdjust="spacing" textLength="23" x="78.5" y="769.3047">Bob</text><rect fill="#FEFFDD" height="53" style="stroke:#181818;stroke-width:0.5;" width="41" x="46" y="786.0469"/><text fill="#000000" font-family="sans-serif" font-size="13" lengthAdjust="spacing" textLength="33" x="50" y="802.6152">rnote</text><text fill="#000000" font-family="sans-serif" font-size="13" lengthAdjust="spacing" textLength="21" x="54" y="817.9258">left</text><text fill="#000000" font-family="sans-serif" font-size="13" lengthAdjust="spacing" textLength="23" x="54" y="833.2363">Bob</text><rect fill="#FEFFDD" height="53" style="stroke:#181818;stroke-width:0.5;" width="46" x="97" y="849.9785"/><text fill="#000000" font-family="sans-serif" font-size="13" lengthAdjust="spacing" textLength="33" x="101" y="866.5469">rnote</text><text fill="#000000" font-family="sans-serif" font-size="13" lengthAdjust="spacing" textLength="30" x="105" y="881.8574">right</text><text fill="#000000" font-family="sans-serif" font-size="13" lengthAdjust="spacing" textLength="23" x="105" y="897.168">Bob</text><polygon fill="#181818" points="135,926.2207,145,930.2207,135,934.2207,139,930.2207" style="stroke:#181818;stroke-width:1.0;"/><line style="stroke:#181818;stroke-width:1.0;" x1="92" x2="141" y1="930.2207" y2="930.2207"/><text fill="#000000" font-family="sans-serif" font-size="13" lengthAdjust="spacing" textLength="31" x="99" y="925.4785">hello</text><path d="M152,913.9102 L152,953.9102 L235,953.9102 L235,923.9102 L225,913.9102 L152,913.9102 " fill="#FEFFDD" style="stroke:#181818;stroke-width:0.5;"/><path d="M225,913.9102 L225,923.9102 L235,923.9102 L225,913.9102 " fill="#FEFFDD" style="stroke:#181818;stroke-width:0.5;"/><text fill="#000000" font-family="sans-serif" font-size="13" lengthAdjust="spacing" textLength="28" x="158" y="931.4785">note</text><text fill="#000000" font-family="sans-serif" font-size="13" lengthAdjust="spacing" textLength="58" x="162" y="946.7891">just right</text><path d="M13,913.9102 L13,953.9102 L87,953.9102 L87,923.9102 L77,913.9102 L13,913.9102 " fill="#FEFFDD" style="stroke:#181818;stroke-width:0.5;"/><path d="M77,913.9102 L77,923.9102 L87,923.9102 L77,913.9102 " fill="#FEFFDD" style="stroke:#181818;stroke-width:0.5;"/><text fill="#000000" font-family="sans-serif" font-size="13" lengthAdjust="spacing" textLength="28" x="19" y="931.4785">note</text><text fill="#000000" font-family="sans-serif" font-size="13" lengthAdjust="spacing" textLength="49" x="23" y="946.7891">just left</text><!--SRC=[RP913e9034NtdA8UW0iGOwBdS8EcCfYHCT_HXQSNPW1BEol2xyzxwQIx9zhkqLBayAM8DrVLALoeFj3HzrUcXXnx7oeC8JAXxrniAFsS1xg_Np5dyzppJO-dA3FtTMOkI2UHpYATG3gBpEFmOQpOkPIoyPjYWT6zbAbUKkjY3jScZ1b5CumPHJEi6MMpN7fyKhlo6Cg5Dvr5-kza-gQq2gSMb0q56vGD1Hkq3ILR-V3aaTWR4IUYB-G7]--></g></svg>