<svg xmlns="http://www.w3.org/2000/svg" xmlns:xlink="http://www.w3.org/1999/xlink" contentStyleType="text/css" height="1096px" preserveAspectRatio="none" style="width:497px;height:1096px;background:#FFFFFF;" version="1.1" viewBox="0 0 497 1096" width="497px" zoomAndPan="magnify"><defs/><g><line style="stroke:#181818;stroke-width:0.5;stroke-dasharray:5.0,5.0;" x1="154.5073" x2="154.5073" y1="36.4883" y2="1059.8047"/><line style="stroke:#181818;stroke-width:0.5;stroke-dasharray:5.0,5.0;" x1="223.3633" x2="223.3633" y1="36.4883" y2="1059.8047"/><line style="stroke:#181818;stroke-width:0.5;stroke-dasharray:5.0,5.0;" x1="292.2329" x2="292.2329" y1="36.4883" y2="1059.8047"/><rect fill="#E2E2F0" height="30.4883" rx="2.5" ry="2.5" style="stroke:#181818;stroke-width:0.5;" width="23.6592" x="142.6777" y="5"/><text fill="#000000" font-family="sans-serif" font-size="14" lengthAdjust="spacing" textLength="9.6592" x="149.6777" y="25.5352">A</text><rect fill="#E2E2F0" height="30.4883" rx="2.5" ry="2.5" style="stroke:#181818;stroke-width:0.5;" width="22.0527" x="212.3369" y="5"/><text fill="#000000" font-family="sans-serif" font-size="14" lengthAdjust="spacing" textLength="8.0527" x="219.3369" y="25.5352">B</text><rect fill="#E2E2F0" height="30.4883" rx="2.5" ry="2.5" style="stroke:#181818;stroke-width:0.5;" width="23.6865" x="280.3896" y="5"/><text fill="#000000" font-family="sans-serif" font-size="14" lengthAdjust="spacing" textLength="9.6865" x="287.3896" y="25.5352">C</text><rect fill="#E2E2F0" height="30.4883" rx="2.5" ry="2.5" style="stroke:#181818;stroke-width:0.5;" width="23.6592" x="142.6777" y="1059.8047"/><text fill="#000000" font-family="sans-serif" font-size="14" lengthAdjust="spacing" textLength="9.6592" x="149.6777" y="1080.3398">A</text><rect fill="#E2E2F0" height="30.4883" rx="2.5" ry="2.5" style="stroke:#181818;stroke-width:0.5;" width="22.0527" x="212.3369" y="1059.8047"/><text fill="#000000" font-family="sans-serif" font-size="14" lengthAdjust="spacing" textLength="8.0527" x="219.3369" y="1080.3398">B</text><rect fill="#E2E2F0" height="30.4883" rx="2.5" ry="2.5" style="stroke:#181818;stroke-width:0.5;" width="23.6865" x="280.3896" y="1059.8047"/><text fill="#000000" font-family="sans-serif" font-size="14" lengthAdjust="spacing" textLength="9.6865" x="287.3896" y="1080.3398">C</text><rect fill="#EEEEEE" height="3" style="stroke:#EEEEEE;stroke-width:1.0;" width="485.8369" x="5" y="65.1436"/><line style="stroke:#000000;stroke-width:1.0;" x1="5" x2="490.8369" y1="65.1436" y2="65.1436"/><line style="stroke:#000000;stroke-width:1.0;" x1="5" x2="490.8369" y1="68.1436" y2="68.1436"/><rect fill="#EEEEEE" height="23.3105" style="stroke:#000000;stroke-width:2.0;" width="133.3423" x="181.2473" y="54.4883"/><text fill="#000000" font-family="sans-serif" font-size="13" font-weight="bold" lengthAdjust="spacing" textLength="115.0576" x="187.2473" y="71.0566">two short arrows</text><path d="M163.6157,91.7988 L230.8008,91.7988 L230.8008,99.1094 L220.8008,109.1094 L163.6157,109.1094 L163.6157,91.7988 " fill="none" style="stroke:#000000;stroke-width:1.5;"/><rect fill="none" height="56.6211" style="stroke:#000000;stroke-width:1.5;" width="126.2681" x="163.6157" y="91.7988"/><text fill="#000000" font-family="sans-serif" font-size="13" font-weight="bold" lengthAdjust="spacing" textLength="22.1851" x="178.6157" y="105.3672">opt</text><text fill="#000000" font-family="sans-serif" font-size="11" font-weight="bold" lengthAdjust="spacing" textLength="25.0186" x="245.8008" y="104.4336">[OK]</text><ellipse cx="185.1157" cy="139.6699" fill="none" rx="4" ry="4" style="stroke:#181818;stroke-width:1.5;"/><polygon fill="#181818" points="211.3633,136.4199,221.3633,140.4199,211.3633,144.4199,215.3633,140.4199" style="stroke:#181818;stroke-width:1.0;"/><line style="stroke:#181818;stroke-width:1.0;" x1="189.6157" x2="217.3633" y1="140.4199" y2="140.4199"/><text fill="#000000" font-family="sans-serif" font-size="13" lengthAdjust="spacing" textLength="19.7476" x="192.6157" y="135.6777">Pre</text><polygon fill="#181818" points="234.3633,136.4199,224.3633,140.4199,234.3633,144.4199,230.3633,140.4199" style="stroke:#181818;stroke-width:1.0;"/><ellipse cx="267.3838" cy="139.6699" fill="none" rx="4" ry="4" style="stroke:#181818;stroke-width:1.5;"/><line style="stroke:#181818;stroke-width:1.0;" x1="228.3633" x2="262.8838" y1="140.4199" y2="140.4199"/><text fill="#000000" font-family="sans-serif" font-size="13" lengthAdjust="spacing" textLength="26.5205" x="240.3633" y="135.6777">yolo</text><ellipse cx="185.1157" cy="182.9805" fill="none" rx="4" ry="4" style="stroke:#181818;stroke-width:1.5;"/><polygon fill="#181818" points="211.3633,179.7305,221.3633,183.7305,211.3633,187.7305,215.3633,183.7305" style="stroke:#181818;stroke-width:1.0;"/><line style="stroke:#181818;stroke-width:1.0;" x1="189.6157" x2="217.3633" y1="183.7305" y2="183.7305"/><text fill="#000000" font-family="sans-serif" font-size="13" lengthAdjust="spacing" textLength="19.7476" x="192.6157" y="178.9883">Pre</text><polygon fill="#181818" points="234.3633,179.7305,224.3633,183.7305,234.3633,187.7305,230.3633,183.7305" style="stroke:#181818;stroke-width:1.0;"/><ellipse cx="267.3838" cy="182.9805" fill="none" rx="4" ry="4" style="stroke:#181818;stroke-width:1.5;"/><line style="stroke:#181818;stroke-width:1.0;" x1="228.3633" x2="262.8838" y1="183.7305" y2="183.7305"/><text fill="#000000" font-family="sans-serif" font-size="13" lengthAdjust="spacing" textLength="26.5205" x="240.3633" y="178.9883">yolo</text><path d="M94.7598,195.7305 L161.9448,195.7305 L161.9448,203.041 L151.9448,213.041 L94.7598,213.041 L94.7598,195.7305 " fill="none" style="stroke:#000000;stroke-width:1.5;"/><rect fill="none" height="56.6211" style="stroke:#000000;stroke-width:1.5;" width="126.2681" x="94.7598" y="195.7305"/><text fill="#000000" font-family="sans-serif" font-size="13" font-weight="bold" lengthAdjust="spacing" textLength="22.1851" x="109.7598" y="209.2988">opt</text><text fill="#000000" font-family="sans-serif" font-size="11" font-weight="bold" lengthAdjust="spacing" textLength="25.0186" x="176.9448" y="208.3652">[OK]</text><ellipse cx="116.2598" cy="243.6016" fill="none" rx="4" ry="4" style="stroke:#181818;stroke-width:1.5;"/><polygon fill="#181818" points="142.5073,240.3516,152.5073,244.3516,142.5073,248.3516,146.5073,244.3516" style="stroke:#181818;stroke-width:1.0;"/><line style="stroke:#181818;stroke-width:1.0;" x1="120.7598" x2="148.5073" y1="244.3516" y2="244.3516"/><text fill="#000000" font-family="sans-serif" font-size="13" lengthAdjust="spacing" textLength="19.7476" x="123.7598" y="239.6094">Pre</text><polygon fill="#181818" points="165.5073,240.3516,155.5073,244.3516,165.5073,248.3516,161.5073,244.3516" style="stroke:#181818;stroke-width:1.0;"/><ellipse cx="198.5278" cy="243.6016" fill="none" rx="4" ry="4" style="stroke:#181818;stroke-width:1.5;"/><line style="stroke:#181818;stroke-width:1.0;" x1="159.5073" x2="194.0278" y1="244.3516" y2="244.3516"/><text fill="#000000" font-family="sans-serif" font-size="13" lengthAdjust="spacing" textLength="26.5205" x="171.5073" y="239.6094">yolo</text><ellipse cx="116.2598" cy="286.9121" fill="none" rx="4" ry="4" style="stroke:#181818;stroke-width:1.5;"/><polygon fill="#181818" points="142.5073,283.6621,152.5073,287.6621,142.5073,291.6621,146.5073,287.6621" style="stroke:#181818;stroke-width:1.0;"/><line style="stroke:#181818;stroke-width:1.0;" x1="120.7598" x2="148.5073" y1="287.6621" y2="287.6621"/><text fill="#000000" font-family="sans-serif" font-size="13" lengthAdjust="spacing" textLength="19.7476" x="123.7598" y="282.9199">Pre</text><polygon fill="#181818" points="165.5073,283.6621,155.5073,287.6621,165.5073,291.6621,161.5073,287.6621" style="stroke:#181818;stroke-width:1.0;"/><ellipse cx="198.5278" cy="286.9121" fill="none" rx="4" ry="4" style="stroke:#181818;stroke-width:1.5;"/><line style="stroke:#181818;stroke-width:1.0;" x1="159.5073" x2="194.0278" y1="287.6621" y2="287.6621"/><text fill="#000000" font-family="sans-serif" font-size="13" lengthAdjust="spacing" textLength="26.5205" x="171.5073" y="282.9199">yolo</text><path d="M8,299.6621 L75.1851,299.6621 L75.1851,306.9727 L65.1851,316.9727 L8,316.9727 L8,299.6621 " fill="none" style="stroke:#000000;stroke-width:1.5;"/><rect fill="none" height="56.6211" style="stroke:#000000;stroke-width:1.5;" width="162.5073" x="8" y="299.6621"/><text fill="#000000" font-family="sans-serif" font-size="13" font-weight="bold" lengthAdjust="spacing" textLength="22.1851" x="23" y="313.2305">opt</text><text fill="#000000" font-family="sans-serif" font-size="11" font-weight="bold" lengthAdjust="spacing" textLength="25.0186" x="90.1851" y="312.2969">[OK]</text><ellipse cx="29.5" cy="347.5332" fill="none" rx="4" ry="4" style="stroke:#181818;stroke-width:1.5;"/><polygon fill="#181818" points="142.5073,344.2832,152.5073,348.2832,142.5073,352.2832,146.5073,348.2832" style="stroke:#181818;stroke-width:1.0;"/><line style="stroke:#181818;stroke-width:1.0;" x1="34" x2="148.5073" y1="348.2832" y2="348.2832"/><text fill="#000000" font-family="sans-serif" font-size="13" lengthAdjust="spacing" textLength="106.5073" x="37" y="343.541">longer text short</text><ellipse cx="29.5" cy="390.8438" fill="none" rx="4" ry="4" style="stroke:#181818;stroke-width:1.5;"/><polygon fill="#181818" points="142.5073,387.5938,152.5073,391.5938,142.5073,395.5938,146.5073,391.5938" style="stroke:#181818;stroke-width:1.0;"/><line style="stroke:#181818;stroke-width:1.0;" x1="34" x2="148.5073" y1="391.5938" y2="391.5938"/><text fill="#000000" font-family="sans-serif" font-size="13" lengthAdjust="spacing" textLength="106.5073" x="37" y="386.8516">longer text short</text><rect fill="#EEEEEE" height="3" style="stroke:#EEEEEE;stroke-width:1.0;" width="485.8369" x="5" y="420.249"/><line style="stroke:#000000;stroke-width:1.0;" x1="5" x2="490.8369" y1="420.249" y2="420.249"/><line style="stroke:#000000;stroke-width:1.0;" x1="5" x2="490.8369" y1="423.249" y2="423.249"/><rect fill="#EEEEEE" height="23.3105" style="stroke:#000000;stroke-width:2.0;" width="128.1118" x="183.8625" y="409.5938"/><text fill="#000000" font-family="sans-serif" font-size="13" font-weight="bold" lengthAdjust="spacing" textLength="109.8271" x="189.8625" y="426.1621">left edge arrows</text><path d="M163.6157,446.9043 L230.8008,446.9043 L230.8008,454.2148 L220.8008,464.2148 L163.6157,464.2148 L163.6157,446.9043 " fill="none" style="stroke:#000000;stroke-width:1.5;"/><rect fill="none" height="56.6211" style="stroke:#000000;stroke-width:1.5;" width="126.2681" x="163.6157" y="446.9043"/><text fill="#000000" font-family="sans-serif" font-size="13" font-weight="bold" lengthAdjust="spacing" textLength="22.1851" x="178.6157" y="460.4727">opt</text><text fill="#000000" font-family="sans-serif" font-size="11" font-weight="bold" lengthAdjust="spacing" textLength="25.0186" x="245.8008" y="459.5391">[OK]</text><ellipse cx="10.5" cy="494.7754" fill="none" rx="4" ry="4" style="stroke:#181818;stroke-width:1.5;"/><polygon fill="#181818" points="211.3633,491.5254,221.3633,495.5254,211.3633,499.5254,215.3633,495.5254" style="stroke:#181818;stroke-width:1.0;"/><line style="stroke:#181818;stroke-width:1.0;" x1="15" x2="217.3633" y1="495.5254" y2="495.5254"/><text fill="#000000" font-family="sans-serif" font-size="13" lengthAdjust="spacing" textLength="19.7476" x="192.6157" y="490.7832">Pre</text><polygon fill="#181818" points="234.3633,491.5254,224.3633,495.5254,234.3633,499.5254,230.3633,495.5254" style="stroke:#181818;stroke-width:1.0;"/><ellipse cx="267.3838" cy="494.7754" fill="none" rx="4" ry="4" style="stroke:#181818;stroke-width:1.5;"/><line style="stroke:#181818;stroke-width:1.0;" x1="228.3633" x2="262.8838" y1="495.5254" y2="495.5254"/><text fill="#000000" font-family="sans-serif" font-size="13" lengthAdjust="spacing" textLength="26.5205" x="240.3633" y="490.7832">yolo</text><ellipse cx="10.5" cy="538.0859" fill="none" rx="4" ry="4" style="stroke:#181818;stroke-width:1.5;"/><polygon fill="#181818" points="211.3633,534.8359,221.3633,538.8359,211.3633,542.8359,215.3633,538.8359" style="stroke:#181818;stroke-width:1.0;"/><line style="stroke:#181818;stroke-width:1.0;" x1="15" x2="217.3633" y1="538.8359" y2="538.8359"/><text fill="#000000" font-family="sans-serif" font-size="13" lengthAdjust="spacing" textLength="19.7476" x="192.6157" y="534.0938">Pre</text><polygon fill="#181818" points="234.3633,534.8359,224.3633,538.8359,234.3633,542.8359,230.3633,538.8359" style="stroke:#181818;stroke-width:1.0;"/><ellipse cx="267.3838" cy="538.0859" fill="none" rx="4" ry="4" style="stroke:#181818;stroke-width:1.5;"/><line style="stroke:#181818;stroke-width:1.0;" x1="228.3633" x2="262.8838" y1="538.8359" y2="538.8359"/><text fill="#000000" font-family="sans-serif" font-size="13" lengthAdjust="spacing" textLength="26.5205" x="240.3633" y="534.0938">yolo</text><rect fill="#EEEEEE" height="3" style="stroke:#EEEEEE;stroke-width:1.0;" width="485.8369" x="5" y="567.4912"/><line style="stroke:#000000;stroke-width:1.0;" x1="5" x2="490.8369" y1="567.4912" y2="567.4912"/><line style="stroke:#000000;stroke-width:1.0;" x1="5" x2="490.8369" y1="570.4912" y2="570.4912"/><rect fill="#EEEEEE" height="23.3105" style="stroke:#000000;stroke-width:2.0;" width="138.1284" x="178.8542" y="556.8359"/><text fill="#000000" font-family="sans-serif" font-size="13" font-weight="bold" lengthAdjust="spacing" textLength="119.8438" x="184.8542" y="573.4043">right edge arrows</text><path d="M138.5073,594.1465 L205.6924,594.1465 L205.6924,601.457 L195.6924,611.457 L138.5073,611.457 L138.5073,594.1465 " fill="none" style="stroke:#000000;stroke-width:1.5;"/><rect fill="none" height="56.6211" style="stroke:#000000;stroke-width:1.5;" width="151.3765" x="138.5073" y="594.1465"/><text fill="#000000" font-family="sans-serif" font-size="13" font-weight="bold" lengthAdjust="spacing" textLength="22.1851" x="153.5073" y="607.7148">opt</text><text fill="#000000" font-family="sans-serif" font-size="11" font-weight="bold" lengthAdjust="spacing" textLength="25.0186" x="220.6924" y="606.7813">[OK]</text><ellipse cx="154.0073" cy="642.0176" fill="none" rx="4" ry="4" style="stroke:#181818;stroke-width:1.5;"/><polygon fill="#181818" points="211.3633,638.7676,221.3633,642.7676,211.3633,646.7676,215.3633,642.7676" style="stroke:#181818;stroke-width:1.0;"/><line style="stroke:#181818;stroke-width:1.0;" x1="158.5073" x2="217.3633" y1="642.7676" y2="642.7676"/><polygon fill="#181818" points="234.3633,638.7676,224.3633,642.7676,234.3633,646.7676,230.3633,642.7676" style="stroke:#181818;stroke-width:1.0;"/><ellipse cx="484.3369" cy="642.0176" fill="none" rx="4" ry="4" style="stroke:#181818;stroke-width:1.5;"/><line style="stroke:#181818;stroke-width:1.0;" x1="228.3633" x2="479.8369" y1="642.7676" y2="642.7676"/><text fill="#000000" font-family="sans-serif" font-size="13" lengthAdjust="spacing" textLength="26.5205" x="240.3633" y="638.0254">yolo</text><ellipse cx="154.0073" cy="685.3281" fill="none" rx="4" ry="4" style="stroke:#181818;stroke-width:1.5;"/><polygon fill="#181818" points="211.3633,682.0781,221.3633,686.0781,211.3633,690.0781,215.3633,686.0781" style="stroke:#181818;stroke-width:1.0;"/><line style="stroke:#181818;stroke-width:1.0;" x1="158.5073" x2="217.3633" y1="686.0781" y2="686.0781"/><polygon fill="#181818" points="234.3633,682.0781,224.3633,686.0781,234.3633,690.0781,230.3633,686.0781" style="stroke:#181818;stroke-width:1.0;"/><ellipse cx="484.3369" cy="685.3281" fill="none" rx="4" ry="4" style="stroke:#181818;stroke-width:1.5;"/><line style="stroke:#181818;stroke-width:1.0;" x1="228.3633" x2="479.8369" y1="686.0781" y2="686.0781"/><text fill="#000000" font-family="sans-serif" font-size="13" lengthAdjust="spacing" textLength="26.5205" x="240.3633" y="681.3359">yolo</text><rect fill="#EEEEEE" height="3" style="stroke:#EEEEEE;stroke-width:1.0;" width="485.8369" x="5" y="714.7334"/><line style="stroke:#000000;stroke-width:1.0;" x1="5" x2="490.8369" y1="714.7334" y2="714.7334"/><line style="stroke:#000000;stroke-width:1.0;" x1="5" x2="490.8369" y1="717.7334" y2="717.7334"/><rect fill="#EEEEEE" height="23.3105" style="stroke:#000000;stroke-width:2.0;" width="261.7046" x="117.0662" y="704.0781"/><text fill="#000000" font-family="sans-serif" font-size="13" font-weight="bold" lengthAdjust="spacing" textLength="243.4199" x="123.0662" y="720.6465">extra long text on right edge arrows</text><path d="M138.5073,741.3887 L205.6924,741.3887 L205.6924,748.6992 L195.6924,758.6992 L138.5073,758.6992 L138.5073,741.3887 " fill="none" style="stroke:#000000;stroke-width:1.5;"/><rect fill="none" height="71.9316" style="stroke:#000000;stroke-width:1.5;" width="343.3296" x="138.5073" y="741.3887"/><text fill="#000000" font-family="sans-serif" font-size="13" font-weight="bold" lengthAdjust="spacing" textLength="22.1851" x="153.5073" y="754.957">opt</text><text fill="#000000" font-family="sans-serif" font-size="11" font-weight="bold" lengthAdjust="spacing" textLength="25.0186" x="220.6924" y="754.0234">[OK]</text><ellipse cx="154.0073" cy="804.5703" fill="none" rx="4" ry="4" style="stroke:#181818;stroke-width:1.5;"/><polygon fill="#181818" points="211.3633,801.3203,221.3633,805.3203,211.3633,809.3203,215.3633,805.3203" style="stroke:#181818;stroke-width:1.0;"/><line style="stroke:#181818;stroke-width:1.0;" x1="158.5073" x2="217.3633" y1="805.3203" y2="805.3203"/><polygon fill="#181818" points="234.3633,801.3203,224.3633,805.3203,234.3633,809.3203,230.3633,805.3203" style="stroke:#181818;stroke-width:1.0;"/><ellipse cx="484.3369" cy="804.5703" fill="none" rx="4" ry="4" style="stroke:#181818;stroke-width:1.5;"/><line style="stroke:#181818;stroke-width:1.0;" x1="228.3633" x2="479.8369" y1="805.3203" y2="805.3203"/><text fill="#000000" font-family="sans-serif" font-size="13" lengthAdjust="spacing" textLength="218.4736" x="240.3633" y="785.2676">This text extends the arrow length</text><text fill="#000000" font-family="sans-serif" font-size="13" lengthAdjust="spacing" textLength="104.9331" x="240.3633" y="800.5781">right edge arrow</text><ellipse cx="154.0073" cy="863.1914" fill="none" rx="4" ry="4" style="stroke:#181818;stroke-width:1.5;"/><polygon fill="#181818" points="211.3633,859.9414,221.3633,863.9414,211.3633,867.9414,215.3633,863.9414" style="stroke:#181818;stroke-width:1.0;"/><line style="stroke:#181818;stroke-width:1.0;" x1="158.5073" x2="217.3633" y1="863.9414" y2="863.9414"/><polygon fill="#181818" points="234.3633,859.9414,224.3633,863.9414,234.3633,867.9414,230.3633,863.9414" style="stroke:#181818;stroke-width:1.0;"/><ellipse cx="484.3369" cy="863.1914" fill="none" rx="4" ry="4" style="stroke:#181818;stroke-width:1.5;"/><line style="stroke:#181818;stroke-width:1.0;" x1="228.3633" x2="479.8369" y1="863.9414" y2="863.9414"/><text fill="#000000" font-family="sans-serif" font-size="13" lengthAdjust="spacing" textLength="218.4736" x="240.3633" y="843.8887">This text extends the arrow length</text><text fill="#000000" font-family="sans-serif" font-size="13" lengthAdjust="spacing" textLength="104.9331" x="240.3633" y="859.1992">right edge arrow</text><rect fill="#EEEEEE" height="3" style="stroke:#EEEEEE;stroke-width:1.0;" width="485.8369" x="5" y="892.5967"/><line style="stroke:#000000;stroke-width:1.0;" x1="5" x2="490.8369" y1="892.5967" y2="892.5967"/><line style="stroke:#000000;stroke-width:1.0;" x1="5" x2="490.8369" y1="895.5967" y2="895.5967"/><rect fill="#EEEEEE" height="23.3105" style="stroke:#000000;stroke-width:2.0;" width="264.6499" x="115.5935" y="881.9414"/><text fill="#000000" font-family="sans-serif" font-size="13" font-weight="bold" lengthAdjust="spacing" textLength="246.3652" x="121.5935" y="898.5098">extra long text on right short arrows</text><path d="M163.6157,919.252 L230.8008,919.252 L230.8008,926.5625 L220.8008,936.5625 L163.6157,936.5625 L163.6157,919.252 " fill="none" style="stroke:#000000;stroke-width:1.5;"/><rect fill="none" height="71.9316" style="stroke:#000000;stroke-width:1.5;" width="318.2212" x="163.6157" y="919.252"/><text fill="#000000" font-family="sans-serif" font-size="13" font-weight="bold" lengthAdjust="spacing" textLength="22.1851" x="178.6157" y="932.8203">opt</text><text fill="#000000" font-family="sans-serif" font-size="11" font-weight="bold" lengthAdjust="spacing" textLength="25.0186" x="245.8008" y="931.8867">[OK]</text><ellipse cx="185.1157" cy="982.4336" fill="none" rx="4" ry="4" style="stroke:#181818;stroke-width:1.5;"/><polygon fill="#181818" points="211.3633,979.1836,221.3633,983.1836,211.3633,987.1836,215.3633,983.1836" style="stroke:#181818;stroke-width:1.0;"/><line style="stroke:#181818;stroke-width:1.0;" x1="189.6157" x2="217.3633" y1="983.1836" y2="983.1836"/><text fill="#000000" font-family="sans-serif" font-size="13" lengthAdjust="spacing" textLength="19.7476" x="192.6157" y="978.4414">Pre</text><polygon fill="#181818" points="234.3633,979.1836,224.3633,983.1836,234.3633,987.1836,230.3633,983.1836" style="stroke:#181818;stroke-width:1.0;"/><ellipse cx="459.3369" cy="982.4336" fill="none" rx="4" ry="4" style="stroke:#181818;stroke-width:1.5;"/><line style="stroke:#181818;stroke-width:1.0;" x1="228.3633" x2="454.8369" y1="983.1836" y2="983.1836"/><text fill="#000000" font-family="sans-serif" font-size="13" lengthAdjust="spacing" textLength="218.4736" x="240.3633" y="963.1309">This text extends the arrow length</text><text fill="#000000" font-family="sans-serif" font-size="13" lengthAdjust="spacing" textLength="72.7949" x="240.3633" y="978.4414">short arrow</text><ellipse cx="185.1157" cy="1041.0547" fill="none" rx="4" ry="4" style="stroke:#181818;stroke-width:1.5;"/><polygon fill="#181818" points="211.3633,1037.8047,221.3633,1041.8047,211.3633,1045.8047,215.3633,1041.8047" style="stroke:#181818;stroke-width:1.0;"/><line style="stroke:#181818;stroke-width:1.0;" x1="189.6157" x2="217.3633" y1="1041.8047" y2="1041.8047"/><text fill="#000000" font-family="sans-serif" font-size="13" lengthAdjust="spacing" textLength="19.7476" x="192.6157" y="1037.0625">Pre</text><polygon fill="#181818" points="234.3633,1037.8047,224.3633,1041.8047,234.3633,1045.8047,230.3633,1041.8047" style="stroke:#181818;stroke-width:1.0;"/><ellipse cx="459.3369" cy="1041.0547" fill="none" rx="4" ry="4" style="stroke:#181818;stroke-width:1.5;"/><line style="stroke:#181818;stroke-width:1.0;" x1="228.3633" x2="454.8369" y1="1041.8047" y2="1041.8047"/><text fill="#000000" font-family="sans-serif" font-size="13" lengthAdjust="spacing" textLength="218.4736" x="240.3633" y="1021.752">This text extends the arrow length</text><text fill="#000000" font-family="sans-serif" font-size="13" lengthAdjust="spacing" textLength="72.7949" x="240.3633" y="1037.0625">short arrow</text><!--SRC=[hPC_JyGm3CNtV0eZ96uw7J0XH3crZ0nqO0E6YEQIY5uSEKPtyEcnMWvQeANy6Ih5yUll-LdjNYHjrnhOu3CmFHgL7do8clGQIatixttKWKjTLJvOE3hfz0lSxkwF3vMAxtB8UrNHgowKoZBW3K9oI0oQ23S9ianXv7qc7PB8ZIYlBc4nyw4PRhPGIvoVGm6dK99H1t8wc-DIoYUiKPbGZGkcmFEtT_EluKE2gV0QWpKarrjkq_VHdzkogTgi64nbpUYcrCrtsnaLY0zvwwOOWOpQe7QGkwxBS5Si91Vf9cMR4SFVNA-TJor97d6NmhroP6t1ihiD7ms6f_mLRIpLFttVK-RgM8t-2ZzalG00]--></g></svg>