<svg xmlns="http://www.w3.org/2000/svg" xmlns:xlink="http://www.w3.org/1999/xlink" contentStyleType="text/css" height="190px" preserveAspectRatio="none" style="width:225px;height:190px;background:#FFFFFF;" version="1.1" viewBox="0 0 225 190" width="225px" zoomAndPan="magnify"><defs/><g><line style="stroke:#181818;stroke-width:0.5;stroke-dasharray:5.0,5.0;" x1="36" x2="36" y1="36.4883" y2="139.1094"/><rect fill="#808000" height="21.3105" style="stroke:#181818;stroke-width:1.0;" width="10" x="31" y="44.4883"/><rect fill="#6B8E23" height="21.3105" style="stroke:#181818;stroke-width:1.0;" width="10" x="36" y="44.4883"/><rect fill="#3CB371" height="21.3105" style="stroke:#181818;stroke-width:1.0;" width="10" x="41" y="44.4883"/><rect fill="#E2E2F0" height="30.4883" rx="2.5" ry="2.5" style="stroke:#181818;stroke-width:0.5;" width="62" x="5" y="5"/><text fill="#000000" font-family="sans-serif" font-size="14" lengthAdjust="spacing" textLength="48" x="12" y="25.5352">actor 1</text><rect fill="#E2E2F0" height="30.4883" rx="2.5" ry="2.5" style="stroke:#181818;stroke-width:0.5;" width="62" x="5" y="139.1094"/><text fill="#000000" font-family="sans-serif" font-size="14" lengthAdjust="spacing" textLength="48" x="12" y="159.6445">actor 1</text><line style="stroke:#181818;stroke-width:1.0;" x1="51" x2="93" y1="65.7988" y2="65.7988"/><line style="stroke:#181818;stroke-width:1.0;" x1="93" x2="93" y1="65.7988" y2="78.7988"/><line style="stroke:#181818;stroke-width:1.0;" x1="36" x2="93" y1="78.7988" y2="78.7988"/><polygon fill="#181818" points="46,74.7988,36,78.7988,46,82.7988,42,78.7988" style="stroke:#181818;stroke-width:1.0;"/><text fill="#000000" font-family="sans-serif" font-size="13" lengthAdjust="spacing" textLength="160" x="58" y="61.0566">actor1 sub-sub-activity1</text><line style="stroke:#181818;stroke-width:1.0;" x1="36" x2="78" y1="108.1094" y2="108.1094"/><line style="stroke:#181818;stroke-width:1.0;" x1="78" x2="78" y1="108.1094" y2="121.1094"/><line style="stroke:#181818;stroke-width:1.0;" x1="37" x2="78" y1="121.1094" y2="121.1094"/><polygon fill="#181818" points="47,117.1094,37,121.1094,47,125.1094,43,121.1094" style="stroke:#181818;stroke-width:1.0;"/><text fill="#000000" font-family="sans-serif" font-size="13" lengthAdjust="spacing" textLength="98" x="43" y="103.3672">actor1 activity2</text><text fill="#888888" font-family="sans-serif" font-size="10" lengthAdjust="spacing" textLength="70" x="79.5" y="180.2656">1.2024.6beta1</text><!--SRC=[KomeIapFJLGeISslKYWfAatbIamkoInBB4bLK0AoyeiK39KKbFrpCilmoBWK9IPXbVLDJSaipGrEJNGlIatDurB7fYOf1sWfWgzhXv2qKW2p31MAIvDqGHYiFxEaqf0h9HNJB184rR6A4d05p7OZhhJy_9BK8WNLijIYuipyF0rD0000]--></g></svg>