<svg xmlns="http://www.w3.org/2000/svg" xmlns:xlink="http://www.w3.org/1999/xlink" contentStyleType="text/css" height="149px" preserveAspectRatio="none" style="width:183px;height:149px;background:#FFFFFF;" version="1.1" viewBox="0 0 183 149" width="183px" zoomAndPan="magnify"><defs/><g><line style="stroke:#181818;stroke-width:0.5;stroke-dasharray:5.0,5.0;" x1="17" x2="17" y1="36.4883" y2="113.1094"/><line style="stroke:#181818;stroke-width:0.5;stroke-dasharray:5.0,5.0;" x1="98" x2="98" y1="36.4883" y2="113.1094"/><rect fill="#FFFFFF" height="29.3105" style="stroke:#181818;stroke-width:1.0;" width="10" x="93" y="65.7988"/><line style="stroke:#181818;stroke-width:0.5;stroke-dasharray:5.0,5.0;" x1="131" x2="131" y1="36.4883" y2="113.1094"/><rect fill="#FFFFFF" height="29.3105" style="stroke:#181818;stroke-width:1.0;" width="10" x="126" y="65.7988"/><line style="stroke:#181818;stroke-width:0.5;stroke-dasharray:5.0,5.0;" x1="165" x2="165" y1="36.4883" y2="113.1094"/><rect fill="#FFFFFF" height="29.3105" style="stroke:#181818;stroke-width:1.0;" width="10" x="160" y="65.7988"/><rect fill="#E2E2F0" height="30.4883" rx="2.5" ry="2.5" style="stroke:#181818;stroke-width:0.5;" width="24" x="5" y="5"/><text fill="#000000" font-family="sans-serif" font-size="14" lengthAdjust="spacing" textLength="10" x="12" y="25.5352">A</text><rect fill="#E2E2F0" height="30.4883" rx="2.5" ry="2.5" style="stroke:#181818;stroke-width:0.5;" width="22" x="87" y="5"/><text fill="#000000" font-family="sans-serif" font-size="14" lengthAdjust="spacing" textLength="8" x="94" y="25.5352">B</text><rect fill="#E2E2F0" height="30.4883" rx="2.5" ry="2.5" style="stroke:#181818;stroke-width:0.5;" width="24" x="119" y="5"/><text fill="#000000" font-family="sans-serif" font-size="14" lengthAdjust="spacing" textLength="10" x="126" y="25.5352">C</text><rect fill="#E2E2F0" height="30.4883" rx="2.5" ry="2.5" style="stroke:#181818;stroke-width:0.5;" width="24" x="153" y="5"/><text fill="#000000" font-family="sans-serif" font-size="14" lengthAdjust="spacing" textLength="10" x="160" y="25.5352">D</text><rect fill="#E2E2F0" height="30.4883" rx="2.5" ry="2.5" style="stroke:#181818;stroke-width:0.5;" width="24" x="5" y="113.1094"/><text fill="#000000" font-family="sans-serif" font-size="14" lengthAdjust="spacing" textLength="10" x="12" y="133.6445">A</text><rect fill="#E2E2F0" height="30.4883" rx="2.5" ry="2.5" style="stroke:#181818;stroke-width:0.5;" width="22" x="87" y="113.1094"/><text fill="#000000" font-family="sans-serif" font-size="14" lengthAdjust="spacing" textLength="8" x="94" y="133.6445">B</text><rect fill="#E2E2F0" height="30.4883" rx="2.5" ry="2.5" style="stroke:#181818;stroke-width:0.5;" width="24" x="119" y="113.1094"/><text fill="#000000" font-family="sans-serif" font-size="14" lengthAdjust="spacing" textLength="10" x="126" y="133.6445">C</text><rect fill="#E2E2F0" height="30.4883" rx="2.5" ry="2.5" style="stroke:#181818;stroke-width:0.5;" width="24" x="153" y="113.1094"/><text fill="#000000" font-family="sans-serif" font-size="14" lengthAdjust="spacing" textLength="10" x="160" y="133.6445">D</text><polygon fill="#181818" points="81,61.7988,91,65.7988,81,69.7988,85,65.7988" style="stroke:#181818;stroke-width:1.0;"/><line style="stroke:#181818;stroke-width:1.0;" x1="17" x2="87" y1="65.7988" y2="65.7988"/><text fill="#000000" font-family="sans-serif" font-size="13" lengthAdjust="spacing" textLength="52" x="24" y="61.0566">Get data</text><polygon fill="#181818" points="114,61.7988,124,65.7988,114,69.7988,118,65.7988" style="stroke:#181818;stroke-width:1.0;"/><line style="stroke:#181818;stroke-width:1.0;" x1="17" x2="120" y1="65.7988" y2="65.7988"/><polygon fill="#181818" points="148,61.7988,158,65.7988,148,69.7988,152,65.7988" style="stroke:#181818;stroke-width:1.0;"/><line style="stroke:#181818;stroke-width:1.0;" x1="17" x2="154" y1="65.7988" y2="65.7988"/><line style="stroke:#181818;stroke-width:1.0;" x1="18" x2="28" y1="95.1094" y2="91.1094"/><line style="stroke:#181818;stroke-width:1.0;" x1="18" x2="28" y1="95.1094" y2="99.1094"/><line style="stroke:#181818;stroke-width:1.0;stroke-dasharray:2.0,2.0;" x1="17" x2="92" y1="95.1094" y2="95.1094"/><text fill="#000000" font-family="sans-serif" font-size="13" lengthAdjust="spacing" textLength="29" x="34" y="90.3672">Data</text><line style="stroke:#181818;stroke-width:1.0;" x1="18" x2="28" y1="95.1094" y2="91.1094"/><line style="stroke:#181818;stroke-width:1.0;" x1="18" x2="28" y1="95.1094" y2="99.1094"/><line style="stroke:#181818;stroke-width:1.0;stroke-dasharray:2.0,2.0;" x1="17" x2="125" y1="95.1094" y2="95.1094"/><line style="stroke:#181818;stroke-width:1.0;" x1="18" x2="28" y1="95.1094" y2="91.1094"/><line style="stroke:#181818;stroke-width:1.0;" x1="18" x2="28" y1="95.1094" y2="99.1094"/><line style="stroke:#181818;stroke-width:1.0;stroke-dasharray:2.0,2.0;" x1="17" x2="159" y1="95.1094" y2="95.1094"/><!--SRC=[KomeIapFJLGeISslKYWfAatbKlSiBYvDLL0sCpNZSbJGjLDmqjQsKd1FBL58IIn9v59J00iw0mLXR1SGsqb1LzVEJi5HLzTAmGMYq1aX1EIv87W0]--></g></svg>