<svg xmlns="http://www.w3.org/2000/svg" xmlns:xlink="http://www.w3.org/1999/xlink" contentStyleType="text/css" height="285px" preserveAspectRatio="none" style="width:338px;height:285px;background:#FFFFFF;" version="1.1" viewBox="0 0 338 285" width="338px" zoomAndPan="magnify"><defs/><g><line style="stroke:#181818;stroke-width:0.5;stroke-dasharray:5.0,5.0;" x1="81.7319" x2="81.7319" y1="36.4883" y2="249.041"/><line style="stroke:#181818;stroke-width:0.5;stroke-dasharray:5.0,5.0;" x1="266.7749" x2="266.7749" y1="36.4883" y2="249.041"/><rect fill="#E2E2F0" height="30.4883" rx="2.5" ry="2.5" style="stroke:#181818;stroke-width:0.5;" width="39.4639" x="62" y="5"/><text fill="#000000" font-family="sans-serif" font-size="14" lengthAdjust="spacing" textLength="25.4639" x="69" y="25.5352">Bob</text><rect fill="#E2E2F0" height="30.4883" rx="2.5" ry="2.5" style="stroke:#181818;stroke-width:0.5;" width="46.7236" x="243.4131" y="5"/><text fill="#000000" font-family="sans-serif" font-size="14" lengthAdjust="spacing" textLength="32.7236" x="250.4131" y="25.5352">Alice</text><rect fill="#E2E2F0" height="30.4883" rx="2.5" ry="2.5" style="stroke:#181818;stroke-width:0.5;" width="39.4639" x="62" y="249.041"/><text fill="#000000" font-family="sans-serif" font-size="14" lengthAdjust="spacing" textLength="25.4639" x="69" y="269.5762">Bob</text><rect fill="#E2E2F0" height="30.4883" rx="2.5" ry="2.5" style="stroke:#181818;stroke-width:0.5;" width="46.7236" x="243.4131" y="249.041"/><text fill="#000000" font-family="sans-serif" font-size="14" lengthAdjust="spacing" textLength="32.7236" x="250.4131" y="269.5762">Alice</text><path d="M8,48.4883 L82.4468,48.4883 L82.4468,55.7988 L72.4468,65.7988 L8,65.7988 L8,48.4883 " fill="#EEEEEE" style="stroke:#000000;stroke-width:1.5;"/><rect fill="none" height="176.5527" style="stroke:#000000;stroke-width:1.5;" width="324.7749" x="8" y="48.4883"/><text fill="#000000" font-family="sans-serif" font-size="13" font-weight="bold" lengthAdjust="spacing" textLength="29.4468" x="23" y="62.0566">loop</text><path d="M27,79.7988 L101.4468,79.7988 L101.4468,87.1094 L91.4468,97.1094 L27,97.1094 L27,79.7988 " fill="#EEEEEE" style="stroke:#000000;stroke-width:1.5;"/><rect fill="none" height="131.2422" style="stroke:#000000;stroke-width:1.5;" width="280.7749" x="27" y="79.7988"/><text fill="#000000" font-family="sans-serif" font-size="13" font-weight="bold" lengthAdjust="spacing" textLength="29.4468" x="42" y="93.3672">loop</text><polygon fill="#181818" points="254.7749,124.4199,264.7749,128.4199,254.7749,132.4199,258.7749,128.4199" style="stroke:#181818;stroke-width:1.0;"/><line style="stroke:#181818;stroke-width:1.0;" x1="81.7319" x2="260.7749" y1="128.4199" y2="128.4199"/><text fill="#000000" font-family="sans-serif" font-size="13" lengthAdjust="spacing" textLength="30.8115" x="88.7319" y="123.6777">hello</text><path d="M46,140.4199 L113.1851,140.4199 L113.1851,147.7305 L103.1851,157.7305 L46,157.7305 L46,140.4199 " fill="#EEEEEE" style="stroke:#000000;stroke-width:1.5;"/><rect fill="none" height="56.6211" style="stroke:#000000;stroke-width:1.5;" width="236.7749" x="46" y="140.4199"/><text fill="#000000" font-family="sans-serif" font-size="13" font-weight="bold" lengthAdjust="spacing" textLength="22.1851" x="61" y="153.9883">opt</text><ellipse cx="67.5" cy="188.291" fill="none" rx="4" ry="4" style="stroke:#181818;stroke-width:1.5;"/><polygon fill="#181818" points="254.7749,185.041,264.7749,189.041,254.7749,193.041,258.7749,189.041" style="stroke:#181818;stroke-width:1.0;"/><line style="stroke:#181818;stroke-width:1.0;" x1="72" x2="260.7749" y1="189.041" y2="189.041"/><text fill="#000000" font-family="sans-serif" font-size="13" lengthAdjust="spacing" textLength="180.7749" x="75" y="184.2988">short arrow, longer message</text><!--SRC=[ZKix2W913ErpYbXDenUmKBGMF4DSm-n0TX8o4S7JExiiB7OMxptURsTEUI8CrW-6lnYCFCfGZ6hWLHy__Y9bOBYf6iXClJ-SbX2FEBA8Wbh0MRUqZUg1vAxlFOhMp8uJjqQPWUiJvttN1UdUJVhtdTRx5m00]--></g></svg>