<svg xmlns="http://www.w3.org/2000/svg" xmlns:xlink="http://www.w3.org/1999/xlink" contentStyleType="text/css" height="360px" preserveAspectRatio="none" style="width:307px;height:360px;background:#FFFFFF;" version="1.1" viewBox="0 0 307 360" width="307px" zoomAndPan="magnify"><defs/><g><line style="stroke:#181818;stroke-width:0.5;stroke-dasharray:5.0,5.0;" x1="82" x2="82" y1="36.4883" y2="323.6621"/><line style="stroke:#181818;stroke-width:0.5;stroke-dasharray:5.0,5.0;" x1="209" x2="209" y1="36.4883" y2="323.6621"/><rect fill="#E2E2F0" height="30.4883" rx="2.5" ry="2.5" style="stroke:#181818;stroke-width:0.5;" width="40" x="62" y="5"/><text fill="#000000" font-family="sans-serif" font-size="14" lengthAdjust="spacing" textLength="26" x="69" y="25.5352">Bob</text><rect fill="#E2E2F0" height="30.4883" rx="2.5" ry="2.5" style="stroke:#181818;stroke-width:0.5;" width="47" x="185.5" y="5"/><text fill="#000000" font-family="sans-serif" font-size="14" lengthAdjust="spacing" textLength="33" x="192.5" y="25.5352">Alice</text><rect fill="#E2E2F0" height="30.4883" rx="2.5" ry="2.5" style="stroke:#181818;stroke-width:0.5;" width="40" x="62" y="323.6621"/><text fill="#000000" font-family="sans-serif" font-size="14" lengthAdjust="spacing" textLength="26" x="69" y="344.1973">Bob</text><rect fill="#E2E2F0" height="30.4883" rx="2.5" ry="2.5" style="stroke:#181818;stroke-width:0.5;" width="47" x="185.5" y="323.6621"/><text fill="#000000" font-family="sans-serif" font-size="14" lengthAdjust="spacing" textLength="33" x="192.5" y="344.1973">Alice</text><path d="M8,48.4883 L82,48.4883 L82,55.7988 L72,65.7988 L8,65.7988 L8,48.4883 " fill="#EEEEEE" style="stroke:#000000;stroke-width:1.5;"/><rect fill="none" height="251.1738" style="stroke:#000000;stroke-width:1.5;" width="287" x="8" y="48.4883"/><text fill="#000000" font-family="sans-serif" font-size="13" font-weight="bold" lengthAdjust="spacing" textLength="29" x="23" y="62.0566">loop</text><path d="M27,79.7988 L101,79.7988 L101,87.1094 L91,97.1094 L27,97.1094 L27,79.7988 " fill="#EEEEEE" style="stroke:#000000;stroke-width:1.5;"/><rect fill="none" height="205.8633" style="stroke:#000000;stroke-width:1.5;" width="243" x="27" y="79.7988"/><text fill="#000000" font-family="sans-serif" font-size="13" font-weight="bold" lengthAdjust="spacing" textLength="29" x="42" y="93.3672">loop</text><polygon fill="#181818" points="197,124.4199,207,128.4199,197,132.4199,201,128.4199" style="stroke:#181818;stroke-width:1.0;"/><line style="stroke:#181818;stroke-width:1.0;" x1="82" x2="203" y1="128.4199" y2="128.4199"/><text fill="#000000" font-family="sans-serif" font-size="13" lengthAdjust="spacing" textLength="31" x="89" y="123.6777">hello</text><path d="M46,140.4199 L113,140.4199 L113,147.7305 L103,157.7305 L46,157.7305 L46,140.4199 " fill="#EEEEEE" style="stroke:#000000;stroke-width:1.5;"/><rect fill="none" height="56.6211" style="stroke:#000000;stroke-width:1.5;" width="179" x="46" y="140.4199"/><text fill="#000000" font-family="sans-serif" font-size="13" font-weight="bold" lengthAdjust="spacing" textLength="22" x="61" y="153.9883">opt</text><ellipse cx="10.5" cy="188.291" fill="none" rx="4" ry="4" style="stroke:#181818;stroke-width:1.5;"/><polygon fill="#181818" points="197,185.041,207,189.041,197,193.041,201,189.041" style="stroke:#181818;stroke-width:1.0;"/><line style="stroke:#181818;stroke-width:1.0;" x1="15" x2="203" y1="189.041" y2="189.041"/><text fill="#000000" font-family="sans-serif" font-size="13" lengthAdjust="spacing" textLength="123" x="75" y="184.2988">[o-&gt; external event</text><path d="M66,215.041 L133,215.041 L133,222.3516 L123,232.3516 L66,232.3516 L66,215.041 " fill="#EEEEEE" style="stroke:#000000;stroke-width:1.5;"/><rect fill="none" height="56.6211" style="stroke:#000000;stroke-width:1.5;" width="179" x="66" y="215.041"/><text fill="#000000" font-family="sans-serif" font-size="13" font-weight="bold" lengthAdjust="spacing" textLength="22" x="81" y="228.6094">opt</text><polygon fill="#181818" points="93,259.6621,83,263.6621,93,267.6621,89,263.6621" style="stroke:#181818;stroke-width:1.0;"/><ellipse cx="297.5" cy="262.9121" fill="none" rx="4" ry="4" style="stroke:#181818;stroke-width:1.5;"/><line style="stroke:#181818;stroke-width:1.0;" x1="87" x2="293" y1="263.6621" y2="263.6621"/><text fill="#000000" font-family="sans-serif" font-size="13" lengthAdjust="spacing" textLength="123" x="99" y="258.9199">external event &lt;-o]</text><!--SRC=[LOn12W8n34NtEKKyG2yWCk1SGrp4yQE5J1DA5F7qjXM5MVo4__B8pglSLk60lJdg0-HI8o_PfGJFTjdqe-O5f6R-7UsUfW5vptUe6fa7dInD_CEZu1MeHPJnH0b2kN8NUzeFFYGxDtLh3VfNs-xv0000]--></g></svg>