<svg xmlns="http://www.w3.org/2000/svg" xmlns:xlink="http://www.w3.org/1999/xlink" contentStyleType="text/css" height="470px" preserveAspectRatio="none" style="width:157px;height:470px;background:#FFFFFF;" version="1.1" viewBox="0 0 157 470" width="157px" zoomAndPan="magnify"><defs/><g><line style="stroke:#181818;stroke-width:0.5;stroke-dasharray:5.0,5.0;" x1="25" x2="25" y1="36.4883" y2="433.6836"/><line style="stroke:#181818;stroke-width:0.5;stroke-dasharray:5.0,5.0;" x1="87" x2="87" y1="36.4883" y2="433.6836"/><rect fill="#E2E2F0" height="30.4883" rx="2.5" ry="2.5" style="stroke:#181818;stroke-width:0.5;" width="40" x="5" y="5"/><text fill="#000000" font-family="sans-serif" font-size="14" lengthAdjust="spacing" textLength="26" x="12" y="25.5352">Bob</text><rect fill="#E2E2F0" height="30.4883" rx="2.5" ry="2.5" style="stroke:#181818;stroke-width:0.5;" width="47" x="63.5" y="5"/><text fill="#000000" font-family="sans-serif" font-size="14" lengthAdjust="spacing" textLength="33" x="70.5" y="25.5352">Alice</text><rect fill="#E2E2F0" height="30.4883" rx="2.5" ry="2.5" style="stroke:#181818;stroke-width:0.5;" width="40" x="5" y="433.6836"/><text fill="#000000" font-family="sans-serif" font-size="14" lengthAdjust="spacing" textLength="26" x="12" y="454.2188">Bob</text><rect fill="#E2E2F0" height="30.4883" rx="2.5" ry="2.5" style="stroke:#181818;stroke-width:0.5;" width="47" x="63.5" y="433.6836"/><text fill="#000000" font-family="sans-serif" font-size="14" lengthAdjust="spacing" textLength="33" x="70.5" y="454.2188">Alice</text><line style="stroke:#181818;stroke-width:1.0;" x1="87" x2="129" y1="65.6211" y2="65.6211"/><line style="stroke:#181818;stroke-width:1.0;" x1="129" x2="129" y1="65.6211" y2="78.6211"/><line style="stroke:#181818;stroke-width:1.0;" x1="88" x2="129" y1="78.6211" y2="78.6211"/><polygon fill="#181818" points="97,61.6211,87,65.6211,97,69.6211,93,65.6211" style="stroke:#181818;stroke-width:1.0;"/><polygon fill="#181818" points="98,74.6211,88,78.6211,98,82.6211,94,78.6211" style="stroke:#181818;stroke-width:1.0;"/><text fill="#000000" font-family="monospace" font-size="13" lengthAdjust="spacing" textLength="24" x="102" y="60.5552">&lt;-&gt;</text><ellipse cx="86.5" cy="107.0039" fill="none" rx="4" ry="4" style="stroke:#181818;stroke-width:1.5;"/><ellipse cx="86.5" cy="120.0039" fill="none" rx="4" ry="4" style="stroke:#181818;stroke-width:1.5;"/><line style="stroke:#181818;stroke-width:1.0;" x1="93.5" x2="129" y1="107.7539" y2="107.7539"/><line style="stroke:#181818;stroke-width:1.0;" x1="129" x2="129" y1="107.7539" y2="120.7539"/><line style="stroke:#181818;stroke-width:1.0;" x1="93.5" x2="129" y1="120.7539" y2="120.7539"/><polygon fill="#181818" points="103.5,103.7539,93.5,107.7539,103.5,111.7539,99.5,107.7539" style="stroke:#181818;stroke-width:1.0;"/><polygon fill="#181818" points="103.5,116.7539,93.5,120.7539,103.5,124.7539,99.5,120.7539" style="stroke:#181818;stroke-width:1.0;"/><text fill="#000000" font-family="monospace" font-size="13" lengthAdjust="spacing" textLength="40" x="102" y="102.688">o&lt;-&gt;o</text><line style="stroke:#181818;stroke-width:1.0;" x1="99" x2="129" y1="149.8867" y2="149.8867"/><line style="stroke:#181818;stroke-width:1.0;" x1="129" x2="129" y1="149.8867" y2="162.8867"/><line style="stroke:#181818;stroke-width:1.0;" x1="100" x2="129" y1="162.8867" y2="162.8867"/><line style="stroke:#181818;stroke-width:2.0;" x1="93" x2="103" y1="144.8867" y2="154.8867"/><line style="stroke:#181818;stroke-width:2.0;" x1="93" x2="103" y1="154.8867" y2="144.8867"/><line style="stroke:#181818;stroke-width:2.0;" x1="93" x2="103" y1="157.8867" y2="167.8867"/><line style="stroke:#181818;stroke-width:2.0;" x1="93" x2="103" y1="167.8867" y2="157.8867"/><text fill="#000000" font-family="monospace" font-size="13" lengthAdjust="spacing" textLength="40" x="110" y="144.8208">x&lt;-&gt;x</text><ellipse cx="86.5" cy="204.2695" fill="none" rx="4" ry="4" style="stroke:#181818;stroke-width:1.5;"/><line style="stroke:#181818;stroke-width:1.0;" x1="99" x2="129" y1="192.0195" y2="192.0195"/><line style="stroke:#181818;stroke-width:1.0;" x1="129" x2="129" y1="192.0195" y2="205.0195"/><line style="stroke:#181818;stroke-width:1.0;" x1="93.5" x2="129" y1="205.0195" y2="205.0195"/><line style="stroke:#181818;stroke-width:2.0;" x1="93" x2="103" y1="187.0195" y2="197.0195"/><line style="stroke:#181818;stroke-width:2.0;" x1="93" x2="103" y1="197.0195" y2="187.0195"/><polygon fill="#181818" points="103.5,201.0195,93.5,205.0195,103.5,209.0195,99.5,205.0195" style="stroke:#181818;stroke-width:1.0;"/><text fill="#000000" font-family="monospace" font-size="13" lengthAdjust="spacing" textLength="32" x="94" y="186.9536">x-&gt;o</text><line style="stroke:#181818;stroke-width:1.0;" x1="87" x2="129" y1="234.1523" y2="234.1523"/><line style="stroke:#181818;stroke-width:1.0;" x1="129" x2="129" y1="234.1523" y2="247.1523"/><line style="stroke:#181818;stroke-width:1.0;" x1="100" x2="129" y1="247.1523" y2="247.1523"/><line style="stroke:#181818;stroke-width:2.0;" x1="93" x2="103" y1="242.1523" y2="252.1523"/><line style="stroke:#181818;stroke-width:2.0;" x1="93" x2="103" y1="252.1523" y2="242.1523"/><text fill="#000000" font-family="monospace" font-size="13" lengthAdjust="spacing" textLength="24" x="94" y="229.0864">-&gt;x</text><line style="stroke:#181818;stroke-width:1.0;" x1="99" x2="129" y1="276.2852" y2="276.2852"/><line style="stroke:#181818;stroke-width:1.0;" x1="129" x2="129" y1="276.2852" y2="289.2852"/><line style="stroke:#181818;stroke-width:1.0;" x1="88" x2="129" y1="289.2852" y2="289.2852"/><line style="stroke:#181818;stroke-width:2.0;" x1="93" x2="103" y1="271.2852" y2="281.2852"/><line style="stroke:#181818;stroke-width:2.0;" x1="93" x2="103" y1="281.2852" y2="271.2852"/><polygon fill="#181818" points="98,285.2852,88,289.2852,98,293.2852,94,289.2852" style="stroke:#181818;stroke-width:1.0;"/><text fill="#000000" font-family="monospace" font-size="13" lengthAdjust="spacing" textLength="24" x="94" y="271.2192">x-&gt;</text><line style="stroke:#181818;stroke-width:1.0;" x1="45" x2="86" y1="318.418" y2="318.418"/><line style="stroke:#181818;stroke-width:1.0;" x1="45" x2="45" y1="318.418" y2="331.418"/><line style="stroke:#181818;stroke-width:1.0;" x1="45" x2="74" y1="331.418" y2="331.418"/><line style="stroke:#181818;stroke-width:2.0;" x1="71" x2="81" y1="326.418" y2="336.418"/><line style="stroke:#181818;stroke-width:2.0;" x1="71" x2="81" y1="336.418" y2="326.418"/><text fill="#000000" font-family="monospace" font-size="13" lengthAdjust="spacing" textLength="24" x="44" y="313.3521">x&lt;-</text><line style="stroke:#181818;stroke-width:1.0;" x1="45" x2="74" y1="360.5508" y2="360.5508"/><line style="stroke:#181818;stroke-width:1.0;" x1="45" x2="45" y1="360.5508" y2="373.5508"/><line style="stroke:#181818;stroke-width:1.0;" x1="45" x2="85" y1="373.5508" y2="373.5508"/><line style="stroke:#181818;stroke-width:2.0;" x1="71" x2="81" y1="355.5508" y2="365.5508"/><line style="stroke:#181818;stroke-width:2.0;" x1="71" x2="81" y1="365.5508" y2="355.5508"/><polygon fill="#181818" points="75,369.5508,85,373.5508,75,377.5508,79,373.5508" style="stroke:#181818;stroke-width:1.0;"/><text fill="#000000" font-family="monospace" font-size="13" lengthAdjust="spacing" textLength="24" x="44" y="355.4849">&lt;-x</text><ellipse cx="86.5" cy="414.9336" fill="none" rx="4" ry="4" style="stroke:#181818;stroke-width:1.5;"/><line style="stroke:#181818;stroke-width:1.0;" x1="45" x2="74" y1="402.6836" y2="402.6836"/><line style="stroke:#181818;stroke-width:1.0;" x1="45" x2="45" y1="402.6836" y2="415.6836"/><line style="stroke:#181818;stroke-width:1.0;" x1="45" x2="79.5" y1="415.6836" y2="415.6836"/><line style="stroke:#181818;stroke-width:2.0;" x1="71" x2="81" y1="397.6836" y2="407.6836"/><line style="stroke:#181818;stroke-width:2.0;" x1="71" x2="81" y1="407.6836" y2="397.6836"/><polygon fill="#181818" points="69.5,411.6836,79.5,415.6836,69.5,419.6836,73.5,415.6836" style="stroke:#181818;stroke-width:1.0;"/><text fill="#000000" font-family="monospace" font-size="13" lengthAdjust="spacing" textLength="32" x="40" y="397.6177">o&lt;-x</text><!--SRC=[LSv12W8n30NG_PpYstqk847GKxZD36Keg2srGl3qjXaxrbNoN_uYXvHblGkAZs-K_F9Jabp24f8y2Yvn1Y1Fp7zyleN5DvP9m7H2A-48vrfohcgiIzpLahdMJNVVudQm_lTWmTZQdItqDiPsPwQ1cGoPhZzaqlwVOlnFw_m0]--></g></svg>