<svg xmlns="http://www.w3.org/2000/svg" xmlns:xlink="http://www.w3.org/1999/xlink" contentStyleType="text/css" height="147px" preserveAspectRatio="none" style="width:66px;height:147px;background:#FFFFFF;" version="1.1" viewBox="0 0 66 147" width="66px" zoomAndPan="magnify"><defs/><g><line style="stroke:#181818;stroke-width:0.5;stroke-dasharray:5.0,5.0;" x1="16" x2="16" y1="36.4883" y2="112.4883"/><line style="stroke:#181818;stroke-width:0.5;stroke-dasharray:5.0,5.0;" x1="49.6592" x2="49.6592" y1="36.4883" y2="112.4883"/><rect fill="#E2E2F0" height="30.4883" rx="2.5" ry="2.5" style="stroke:#181818;stroke-width:0.5;" width="23.6592" x="5" y="5"/><text fill="#000000" font-family="sans-serif" font-size="14" lengthAdjust="spacing" textLength="9.6592" x="12" y="25.5352">A</text><rect fill="#E2E2F0" height="30.4883" rx="2.5" ry="2.5" style="stroke:#181818;stroke-width:0.5;" width="23.6592" x="5" y="111.4883"/><text fill="#000000" font-family="sans-serif" font-size="14" lengthAdjust="spacing" textLength="9.6592" x="12" y="132.0234">A</text><rect fill="#E2E2F0" height="30.4883" rx="2.5" ry="2.5" style="stroke:#181818;stroke-width:0.5;" width="22.0527" x="38.6592" y="5"/><text fill="#000000" font-family="sans-serif" font-size="14" lengthAdjust="spacing" textLength="8.0527" x="45.6592" y="25.5352">B</text><rect fill="#E2E2F0" height="30.4883" rx="2.5" ry="2.5" style="stroke:#181818;stroke-width:0.5;" width="22.0527" x="38.6592" y="111.4883"/><text fill="#000000" font-family="sans-serif" font-size="14" lengthAdjust="spacing" textLength="8.0527" x="45.6592" y="132.0234">B</text><line style="stroke:#181818;stroke-width:1.0;" x1="17.8296" x2="27.8296" y1="52.4883" y2="48.4883"/><line style="stroke:#181818;stroke-width:1.0;" x1="17.8296" x2="27.8296" y1="52.4883" y2="56.4883"/><line style="stroke:#181818;stroke-width:1.0;" x1="16.8296" x2="48.6855" y1="52.4883" y2="52.4883"/><line style="stroke:#181818;stroke-width:1.0;" x1="47.6855" x2="37.6855" y1="66.4883" y2="62.4883"/><line style="stroke:#181818;stroke-width:1.0;" x1="47.6855" x2="37.6855" y1="66.4883" y2="70.4883"/><line style="stroke:#181818;stroke-width:1.0;" x1="16.8296" x2="48.6855" y1="66.4883" y2="66.4883"/><line style="stroke:#181818;stroke-width:1.0;" x1="47.6855" x2="37.6855" y1="80.4883" y2="76.4883"/><line style="stroke:#181818;stroke-width:1.0;" x1="47.6855" x2="37.6855" y1="80.4883" y2="84.4883"/><line style="stroke:#181818;stroke-width:1.0;" x1="16.8296" x2="48.6855" y1="80.4883" y2="80.4883"/><line style="stroke:#181818;stroke-width:1.0;" x1="17.8296" x2="27.8296" y1="94.4883" y2="90.4883"/><line style="stroke:#181818;stroke-width:1.0;" x1="17.8296" x2="27.8296" y1="94.4883" y2="98.4883"/><line style="stroke:#181818;stroke-width:1.0;" x1="16.8296" x2="48.6855" y1="94.4883" y2="94.4883"/><!--SRC=[AqWiAibCpYn8p2jHSEGgGE8vSJagsDZe0cadCEq8vElQsO7v8DeH0000]--></g></svg>