<svg xmlns="http://www.w3.org/2000/svg" xmlns:xlink="http://www.w3.org/1999/xlink" contentStyleType="text/css" height="673px" preserveAspectRatio="none" style="width:107px;height:673px;background:#FFFFFF;" version="1.1" viewBox="0 0 107 673" width="107px" zoomAndPan="magnify"><defs/><g><line style="stroke:#181818;stroke-width:0.5;stroke-dasharray:5.0,5.0;" x1="28.3618" x2="28.3618" y1="36.4883" y2="637.1445"/><line style="stroke:#181818;stroke-width:0.5;stroke-dasharray:5.0,5.0;" x1="81.4556" x2="81.4556" y1="36.4883" y2="637.1445"/><rect fill="#E2E2F0" height="30.4883" rx="2.5" ry="2.5" style="stroke:#181818;stroke-width:0.5;" width="46.7236" x="5" y="5"/><text fill="#000000" font-family="sans-serif" font-size="14" lengthAdjust="spacing" textLength="32.7236" x="12" y="25.5352">Alice</text><rect fill="#E2E2F0" height="30.4883" rx="2.5" ry="2.5" style="stroke:#181818;stroke-width:0.5;" width="39.4639" x="61.7236" y="5"/><text fill="#000000" font-family="sans-serif" font-size="14" lengthAdjust="spacing" textLength="25.4639" x="68.7236" y="25.5352">Bob</text><rect fill="#E2E2F0" height="30.4883" rx="2.5" ry="2.5" style="stroke:#181818;stroke-width:0.5;" width="46.7236" x="5" y="637.1445"/><text fill="#000000" font-family="sans-serif" font-size="14" lengthAdjust="spacing" textLength="32.7236" x="12" y="657.6797">Alice</text><rect fill="#E2E2F0" height="30.4883" rx="2.5" ry="2.5" style="stroke:#181818;stroke-width:0.5;" width="39.4639" x="61.7236" y="637.1445"/><text fill="#000000" font-family="sans-serif" font-size="14" lengthAdjust="spacing" textLength="25.4639" x="68.7236" y="657.6797">Bob</text><polygon fill="#181818" points="69.4556,61.6211,79.4556,65.6211,69.4556,69.6211,73.4556,65.6211" style="stroke:#181818;stroke-width:1.0;"/><line style="stroke:#181818;stroke-width:1.0;" x1="5" x2="75.4556" y1="65.6211" y2="65.6211"/><text fill="#000000" font-family="monospace" font-size="13" lengthAdjust="spacing" textLength="23.48" x="17.4956" y="60.5552">[-&gt;</text><line style="stroke:#181818;stroke-width:1.0;" x1="79.4556" x2="69.4556" y1="94.7539" y2="90.7539"/><line style="stroke:#181818;stroke-width:1.0;" x1="79.4556" x2="69.4556" y1="94.7539" y2="98.7539"/><line style="stroke:#181818;stroke-width:1.0;" x1="5" x2="80.4556" y1="94.7539" y2="94.7539"/><text fill="#000000" font-family="monospace" font-size="13" lengthAdjust="spacing" textLength="31.3066" x="17.4956" y="89.688">[-&gt;&gt;</text><polygon fill="#181818" points="69.4556,119.8867,79.4556,123.8867,69.4556,123.8867" style="stroke:#181818;stroke-width:1.0;"/><line style="stroke:#181818;stroke-width:1.0;" x1="5" x2="80.4556" y1="123.8867" y2="123.8867"/><text fill="#000000" font-family="monospace" font-size="13" lengthAdjust="spacing" textLength="23.48" x="17.4956" y="118.8208">[-\</text><line style="stroke:#181818;stroke-width:1.0;" x1="79.4556" x2="69.4556" y1="153.0195" y2="149.0195"/><line style="stroke:#181818;stroke-width:1.0;" x1="5" x2="80.4556" y1="153.0195" y2="153.0195"/><text fill="#000000" font-family="monospace" font-size="13" lengthAdjust="spacing" textLength="31.3066" x="33.1489" y="147.9536">[-\\</text><polygon fill="#181818" points="69.4556,182.1523,79.4556,182.1523,69.4556,186.1523" style="stroke:#181818;stroke-width:1.0;"/><line style="stroke:#181818;stroke-width:1.0;" x1="5" x2="80.4556" y1="182.1523" y2="182.1523"/><text fill="#000000" font-family="monospace" font-size="13" lengthAdjust="spacing" textLength="23.48" x="17.4956" y="177.0864">[-/</text><line style="stroke:#181818;stroke-width:1.0;" x1="79.4556" x2="69.4556" y1="211.2852" y2="215.2852"/><line style="stroke:#181818;stroke-width:1.0;" x1="5" x2="80.4556" y1="211.2852" y2="211.2852"/><text fill="#000000" font-family="monospace" font-size="13" lengthAdjust="spacing" textLength="31.3066" x="17.4956" y="206.2192">[-//</text><line style="stroke:#181818;stroke-width:2.0;" x1="63.4556" x2="73.4556" y1="235.418" y2="245.418"/><line style="stroke:#181818;stroke-width:2.0;" x1="63.4556" x2="73.4556" y1="245.418" y2="235.418"/><line style="stroke:#181818;stroke-width:1.0;" x1="5" x2="68.4556" y1="240.418" y2="240.418"/><text fill="#000000" font-family="monospace" font-size="13" lengthAdjust="spacing" textLength="31.3066" x="17.4956" y="235.3521">[-&gt;x</text><line style="stroke:#181818;stroke-width:2.0;" x1="12" x2="22" y1="264.5508" y2="274.5508"/><line style="stroke:#181818;stroke-width:2.0;" x1="12" x2="22" y1="274.5508" y2="264.5508"/><polygon fill="#181818" points="69.4556,265.5508,79.4556,269.5508,69.4556,273.5508,73.4556,269.5508" style="stroke:#181818;stroke-width:1.0;"/><line style="stroke:#181818;stroke-width:1.0;" x1="17" x2="75.4556" y1="269.5508" y2="269.5508"/><text fill="#000000" font-family="monospace" font-size="13" lengthAdjust="spacing" textLength="31.3066" x="27.4956" y="264.4849">[x-&gt;</text><ellipse cx="10.5" cy="297.9336" fill="none" rx="4" ry="4" style="stroke:#181818;stroke-width:1.5;"/><polygon fill="#181818" points="69.4556,294.6836,79.4556,298.6836,69.4556,302.6836,73.4556,298.6836" style="stroke:#181818;stroke-width:1.0;"/><line style="stroke:#181818;stroke-width:1.0;" x1="15" x2="75.4556" y1="298.6836" y2="298.6836"/><text fill="#000000" font-family="monospace" font-size="13" lengthAdjust="spacing" textLength="31.3066" x="23.4956" y="293.6177">[o-&gt;</text><ellipse cx="80.9556" cy="327.0664" fill="none" rx="4" ry="4" style="stroke:#181818;stroke-width:1.5;"/><polygon fill="#181818" points="63.9556,323.8164,73.9556,327.8164,63.9556,331.8164,67.9556,327.8164" style="stroke:#181818;stroke-width:1.0;"/><line style="stroke:#181818;stroke-width:1.0;" x1="5" x2="69.9556" y1="327.8164" y2="327.8164"/><text fill="#000000" font-family="monospace" font-size="13" lengthAdjust="spacing" textLength="31.3066" x="17.4956" y="322.7505">[-&gt;o</text><ellipse cx="10.5" cy="356.1992" fill="none" rx="4" ry="4" style="stroke:#181818;stroke-width:1.5;"/><ellipse cx="80.9556" cy="356.1992" fill="none" rx="4" ry="4" style="stroke:#181818;stroke-width:1.5;"/><polygon fill="#181818" points="63.9556,352.9492,73.9556,356.9492,63.9556,360.9492,67.9556,356.9492" style="stroke:#181818;stroke-width:1.0;"/><line style="stroke:#181818;stroke-width:1.0;" x1="15" x2="69.9556" y1="356.9492" y2="356.9492"/><text fill="#000000" font-family="monospace" font-size="13" lengthAdjust="spacing" textLength="39.1333" x="23.4956" y="351.8833">[o-&gt;o</text><polygon fill="#181818" points="16,382.082,6,386.082,16,390.082,12,386.082" style="stroke:#181818;stroke-width:1.0;"/><polygon fill="#181818" points="69.4556,382.082,79.4556,386.082,69.4556,390.082,73.4556,386.082" style="stroke:#181818;stroke-width:1.0;"/><line style="stroke:#181818;stroke-width:1.0;" x1="10" x2="75.4556" y1="386.082" y2="386.082"/><text fill="#000000" font-family="monospace" font-size="13" lengthAdjust="spacing" textLength="31.3066" x="27.4956" y="381.0161">[&lt;-&gt;</text><ellipse cx="10.5" cy="414.4648" fill="none" rx="4" ry="4" style="stroke:#181818;stroke-width:1.5;"/><polygon fill="#181818" points="27.5,411.2148,17.5,415.2148,27.5,419.2148,23.5,415.2148" style="stroke:#181818;stroke-width:1.0;"/><ellipse cx="80.9556" cy="414.4648" fill="none" rx="4" ry="4" style="stroke:#181818;stroke-width:1.5;"/><polygon fill="#181818" points="63.9556,411.2148,73.9556,415.2148,63.9556,419.2148,67.9556,415.2148" style="stroke:#181818;stroke-width:1.0;"/><line style="stroke:#181818;stroke-width:1.0;" x1="21.5" x2="69.9556" y1="415.2148" y2="415.2148"/><text fill="#000000" font-family="monospace" font-size="13" lengthAdjust="spacing" textLength="46.96" x="33.4956" y="410.1489">[o&lt;-&gt;o</text><line style="stroke:#181818;stroke-width:2.0;" x1="12" x2="22" y1="439.3477" y2="449.3477"/><line style="stroke:#181818;stroke-width:2.0;" x1="12" x2="22" y1="449.3477" y2="439.3477"/><line style="stroke:#181818;stroke-width:2.0;" x1="63.4556" x2="73.4556" y1="439.3477" y2="449.3477"/><line style="stroke:#181818;stroke-width:2.0;" x1="63.4556" x2="73.4556" y1="449.3477" y2="439.3477"/><line style="stroke:#181818;stroke-width:1.0;" x1="17" x2="68.4556" y1="444.3477" y2="444.3477"/><text fill="#000000" font-family="monospace" font-size="13" lengthAdjust="spacing" textLength="46.96" x="27.4956" y="439.2817">[x&lt;-&gt;x</text><ellipse cx="80.9556" cy="472.7305" fill="none" rx="4" ry="4" style="stroke:#181818;stroke-width:1.5;"/><line style="stroke:#181818;stroke-width:1.0;" x1="73.9556" x2="63.9556" y1="473.4805" y2="469.4805"/><line style="stroke:#181818;stroke-width:1.0;" x1="73.9556" x2="63.9556" y1="473.4805" y2="477.4805"/><line style="stroke:#181818;stroke-width:1.0;" x1="5" x2="74.9556" y1="473.4805" y2="473.4805"/><text fill="#000000" font-family="monospace" font-size="13" lengthAdjust="spacing" textLength="39.1333" x="17.4956" y="468.4146">[-&gt;&gt;o</text><ellipse cx="80.9556" cy="501.8633" fill="none" rx="4" ry="4" style="stroke:#181818;stroke-width:1.5;"/><polygon fill="#181818" points="63.9556,498.6133,73.9556,502.6133,63.9556,502.6133" style="stroke:#181818;stroke-width:1.0;"/><line style="stroke:#181818;stroke-width:1.0;" x1="5" x2="74.9556" y1="502.6133" y2="502.6133"/><text fill="#000000" font-family="monospace" font-size="13" lengthAdjust="spacing" textLength="31.3066" x="17.4956" y="497.5474">[-\o</text><ellipse cx="80.9556" cy="530.9961" fill="none" rx="4" ry="4" style="stroke:#181818;stroke-width:1.5;"/><line style="stroke:#181818;stroke-width:1.0;" x1="73.9556" x2="63.9556" y1="531.7461" y2="527.7461"/><line style="stroke:#181818;stroke-width:1.0;" x1="5" x2="74.9556" y1="531.7461" y2="531.7461"/><text fill="#000000" font-family="monospace" font-size="13" lengthAdjust="spacing" textLength="39.1333" x="25.3223" y="526.6802">[-\\o</text><ellipse cx="80.9556" cy="560.1289" fill="none" rx="4" ry="4" style="stroke:#181818;stroke-width:1.5;"/><polygon fill="#181818" points="63.9556,560.8789,73.9556,560.8789,63.9556,564.8789" style="stroke:#181818;stroke-width:1.0;"/><line style="stroke:#181818;stroke-width:1.0;" x1="5" x2="74.9556" y1="560.8789" y2="560.8789"/><text fill="#000000" font-family="monospace" font-size="13" lengthAdjust="spacing" textLength="31.3066" x="17.4956" y="555.813">[-/o</text><ellipse cx="80.9556" cy="589.2617" fill="none" rx="4" ry="4" style="stroke:#181818;stroke-width:1.5;"/><line style="stroke:#181818;stroke-width:1.0;" x1="73.9556" x2="63.9556" y1="590.0117" y2="594.0117"/><line style="stroke:#181818;stroke-width:1.0;" x1="5" x2="74.9556" y1="590.0117" y2="590.0117"/><text fill="#000000" font-family="monospace" font-size="13" lengthAdjust="spacing" textLength="39.1333" x="17.4956" y="584.9458">[-//o</text><line style="stroke:#181818;stroke-width:2.0;" x1="12" x2="22" y1="614.1445" y2="624.1445"/><line style="stroke:#181818;stroke-width:2.0;" x1="12" x2="22" y1="624.1445" y2="614.1445"/><ellipse cx="80.9556" cy="618.3945" fill="none" rx="4" ry="4" style="stroke:#181818;stroke-width:1.5;"/><polygon fill="#181818" points="63.9556,615.1445,73.9556,619.1445,63.9556,623.1445,67.9556,619.1445" style="stroke:#181818;stroke-width:1.0;"/><line style="stroke:#181818;stroke-width:1.0;" x1="17" x2="69.9556" y1="619.1445" y2="619.1445"/><text fill="#000000" font-family="monospace" font-size="13" lengthAdjust="spacing" textLength="39.1333" x="27.4956" y="614.0786">[x-&gt;o</text><!--SRC=[NP312i8m44Jl_OerzvAxX83-XhcafKX1dL8Z5B_U9ka6njpsCRiPtcbPu_qP9KtuIbe_KxV4DStZlCHNaijZ7YU9Ruc4hnX4CXwwM- -bl47EOamTZSdSC_S73vmFcW-1-VuAjvotchUMkTL_D_vtgtphgKyPCmTpAEyz-0vQ7fn7uOxlk7RVrGNDvx7qSRMfzidZuGti3OSVxXFGlE7V6weWNh1eui3Ye8B0WZB_0G00]--></g></svg>