<svg xmlns="http://www.w3.org/2000/svg" xmlns:xlink="http://www.w3.org/1999/xlink" contentStyleType="text/css" height="919px" preserveAspectRatio="none" style="width:496px;height:919px;background:#FFFFFF;" version="1.1" viewBox="0 0 496 919" width="496px" zoomAndPan="magnify"><defs/><g><line style="stroke:#181818;stroke-width:0.5;stroke-dasharray:5.0,5.0;" x1="154" x2="154" y1="36.4883" y2="883.252"/><line style="stroke:#181818;stroke-width:0.5;stroke-dasharray:5.0,5.0;" x1="223" x2="223" y1="36.4883" y2="883.252"/><line style="stroke:#181818;stroke-width:0.5;stroke-dasharray:5.0,5.0;" x1="292" x2="292" y1="36.4883" y2="883.252"/><rect fill="#E2E2F0" height="30.4883" rx="2.5" ry="2.5" style="stroke:#181818;stroke-width:0.5;" width="24" x="142" y="5"/><text fill="#000000" font-family="sans-serif" font-size="14" lengthAdjust="spacing" textLength="10" x="149" y="25.5352">A</text><rect fill="#E2E2F0" height="30.4883" rx="2.5" ry="2.5" style="stroke:#181818;stroke-width:0.5;" width="22" x="212" y="5"/><text fill="#000000" font-family="sans-serif" font-size="14" lengthAdjust="spacing" textLength="8" x="219" y="25.5352">B</text><rect fill="#E2E2F0" height="30.4883" rx="2.5" ry="2.5" style="stroke:#181818;stroke-width:0.5;" width="24" x="280" y="5"/><text fill="#000000" font-family="sans-serif" font-size="14" lengthAdjust="spacing" textLength="10" x="287" y="25.5352">C</text><rect fill="#E2E2F0" height="30.4883" rx="2.5" ry="2.5" style="stroke:#181818;stroke-width:0.5;" width="24" x="142" y="883.252"/><text fill="#000000" font-family="sans-serif" font-size="14" lengthAdjust="spacing" textLength="10" x="149" y="903.7871">A</text><rect fill="#E2E2F0" height="30.4883" rx="2.5" ry="2.5" style="stroke:#181818;stroke-width:0.5;" width="22" x="212" y="883.252"/><text fill="#000000" font-family="sans-serif" font-size="14" lengthAdjust="spacing" textLength="8" x="219" y="903.7871">B</text><rect fill="#E2E2F0" height="30.4883" rx="2.5" ry="2.5" style="stroke:#181818;stroke-width:0.5;" width="24" x="280" y="883.252"/><text fill="#000000" font-family="sans-serif" font-size="14" lengthAdjust="spacing" textLength="10" x="287" y="903.7871">C</text><path d="M8,48.4883 L75,48.4883 L75,55.7988 L65,65.7988 L8,65.7988 L8,48.4883 " fill="none" style="stroke:#000000;stroke-width:1.5;"/><rect fill="none" height="56.6211" style="stroke:#000000;stroke-width:1.5;" width="162" x="8" y="48.4883"/><text fill="#000000" font-family="sans-serif" font-size="13" font-weight="bold" lengthAdjust="spacing" textLength="22" x="23" y="62.0566">opt</text><text fill="#000000" font-family="sans-serif" font-size="11" font-weight="bold" lengthAdjust="spacing" textLength="25" x="90" y="61.123">[OK]</text><ellipse cx="29.5" cy="96.3594" fill="none" rx="4" ry="4" style="stroke:#181818;stroke-width:1.5;"/><polygon fill="#181818" points="142,93.1094,152,97.1094,142,101.1094,146,97.1094" style="stroke:#181818;stroke-width:1.0;"/><line style="stroke:#181818;stroke-width:1.0;" x1="34" x2="148" y1="97.1094" y2="97.1094"/><text fill="#000000" font-family="sans-serif" font-size="13" lengthAdjust="spacing" textLength="106" x="37" y="92.3672">longer text short</text><ellipse cx="29.5" cy="139.6699" fill="none" rx="4" ry="4" style="stroke:#181818;stroke-width:1.5;"/><polygon fill="#181818" points="142,136.4199,152,140.4199,142,144.4199,146,140.4199" style="stroke:#181818;stroke-width:1.0;"/><line style="stroke:#181818;stroke-width:1.0;" x1="34" x2="148" y1="140.4199" y2="140.4199"/><text fill="#000000" font-family="sans-serif" font-size="13" lengthAdjust="spacing" textLength="106" x="37" y="135.6777">longer text short</text><rect fill="#EEEEEE" height="3" style="stroke:#EEEEEE;stroke-width:1.0;" width="484" x="5" y="169.0752"/><line style="stroke:#000000;stroke-width:1.0;" x1="5" x2="489" y1="169.0752" y2="169.0752"/><line style="stroke:#000000;stroke-width:1.0;" x1="5" x2="489" y1="172.0752" y2="172.0752"/><rect fill="#EEEEEE" height="23.3105" style="stroke:#000000;stroke-width:2.0;" width="128" x="183" y="158.4199"/><text fill="#000000" font-family="sans-serif" font-size="13" font-weight="bold" lengthAdjust="spacing" textLength="110" x="189" y="174.9883">left edge arrows</text><path d="M164,195.7305 L231,195.7305 L231,203.041 L221,213.041 L164,213.041 L164,195.7305 " fill="none" style="stroke:#000000;stroke-width:1.5;"/><rect fill="none" height="56.6211" style="stroke:#000000;stroke-width:1.5;" width="126" x="164" y="195.7305"/><text fill="#000000" font-family="sans-serif" font-size="13" font-weight="bold" lengthAdjust="spacing" textLength="22" x="179" y="209.2988">opt</text><text fill="#000000" font-family="sans-serif" font-size="11" font-weight="bold" lengthAdjust="spacing" textLength="25" x="246" y="208.3652">[OK]</text><ellipse cx="10.5" cy="243.6016" fill="none" rx="4" ry="4" style="stroke:#181818;stroke-width:1.5;"/><polygon fill="#181818" points="211,240.3516,221,244.3516,211,248.3516,215,244.3516" style="stroke:#181818;stroke-width:1.0;"/><line style="stroke:#181818;stroke-width:1.0;" x1="15" x2="217" y1="244.3516" y2="244.3516"/><text fill="#000000" font-family="sans-serif" font-size="13" lengthAdjust="spacing" textLength="19" x="193" y="239.6094">Pre</text><polygon fill="#181818" points="234,240.3516,224,244.3516,234,248.3516,230,244.3516" style="stroke:#181818;stroke-width:1.0;"/><ellipse cx="267.5" cy="243.6016" fill="none" rx="4" ry="4" style="stroke:#181818;stroke-width:1.5;"/><line style="stroke:#181818;stroke-width:1.0;" x1="228" x2="263" y1="244.3516" y2="244.3516"/><text fill="#000000" font-family="sans-serif" font-size="13" lengthAdjust="spacing" textLength="27" x="240" y="239.6094">yolo</text><ellipse cx="10.5" cy="286.9121" fill="none" rx="4" ry="4" style="stroke:#181818;stroke-width:1.5;"/><polygon fill="#181818" points="211,283.6621,221,287.6621,211,291.6621,215,287.6621" style="stroke:#181818;stroke-width:1.0;"/><line style="stroke:#181818;stroke-width:1.0;" x1="15" x2="217" y1="287.6621" y2="287.6621"/><text fill="#000000" font-family="sans-serif" font-size="13" lengthAdjust="spacing" textLength="19" x="193" y="282.9199">Pre</text><polygon fill="#181818" points="234,283.6621,224,287.6621,234,291.6621,230,287.6621" style="stroke:#181818;stroke-width:1.0;"/><ellipse cx="267.5" cy="286.9121" fill="none" rx="4" ry="4" style="stroke:#181818;stroke-width:1.5;"/><line style="stroke:#181818;stroke-width:1.0;" x1="228" x2="263" y1="287.6621" y2="287.6621"/><text fill="#000000" font-family="sans-serif" font-size="13" lengthAdjust="spacing" textLength="27" x="240" y="282.9199">yolo</text><rect fill="#EEEEEE" height="3" style="stroke:#EEEEEE;stroke-width:1.0;" width="484" x="5" y="316.3174"/><line style="stroke:#000000;stroke-width:1.0;" x1="5" x2="489" y1="316.3174" y2="316.3174"/><line style="stroke:#000000;stroke-width:1.0;" x1="5" x2="489" y1="319.3174" y2="319.3174"/><rect fill="#EEEEEE" height="23.3105" style="stroke:#000000;stroke-width:2.0;" width="139" x="177.5" y="305.6621"/><text fill="#000000" font-family="sans-serif" font-size="13" font-weight="bold" lengthAdjust="spacing" textLength="121" x="183.5" y="322.2305">right edge arrows</text><path d="M138,342.9727 L205,342.9727 L205,350.2832 L195,360.2832 L138,360.2832 L138,342.9727 " fill="none" style="stroke:#000000;stroke-width:1.5;"/><rect fill="none" height="56.6211" style="stroke:#000000;stroke-width:1.5;" width="152" x="138" y="342.9727"/><text fill="#000000" font-family="sans-serif" font-size="13" font-weight="bold" lengthAdjust="spacing" textLength="22" x="153" y="356.541">opt</text><text fill="#000000" font-family="sans-serif" font-size="11" font-weight="bold" lengthAdjust="spacing" textLength="25" x="220" y="355.6074">[OK]</text><ellipse cx="153.5" cy="390.8438" fill="none" rx="4" ry="4" style="stroke:#181818;stroke-width:1.5;"/><polygon fill="#181818" points="211,387.5938,221,391.5938,211,395.5938,215,391.5938" style="stroke:#181818;stroke-width:1.0;"/><line style="stroke:#181818;stroke-width:1.0;" x1="158" x2="217" y1="391.5938" y2="391.5938"/><polygon fill="#181818" points="234,387.5938,224,391.5938,234,395.5938,230,391.5938" style="stroke:#181818;stroke-width:1.0;"/><ellipse cx="482.5" cy="390.8438" fill="none" rx="4" ry="4" style="stroke:#181818;stroke-width:1.5;"/><line style="stroke:#181818;stroke-width:1.0;" x1="228" x2="478" y1="391.5938" y2="391.5938"/><text fill="#000000" font-family="sans-serif" font-size="13" lengthAdjust="spacing" textLength="27" x="240" y="386.8516">yolo</text><path d="M138,417.5938 L205,417.5938 L205,424.9043 L195,434.9043 L138,434.9043 L138,417.5938 " fill="none" style="stroke:#000000;stroke-width:1.5;"/><rect fill="none" height="56.6211" style="stroke:#000000;stroke-width:1.5;" width="152" x="138" y="417.5938"/><text fill="#000000" font-family="sans-serif" font-size="13" font-weight="bold" lengthAdjust="spacing" textLength="22" x="153" y="431.1621">opt</text><text fill="#000000" font-family="sans-serif" font-size="11" font-weight="bold" lengthAdjust="spacing" textLength="25" x="220" y="430.2285">[OK]</text><polygon fill="#181818" points="211,462.2148,221,466.2148,211,470.2148,215,466.2148" style="stroke:#181818;stroke-width:1.0;"/><line style="stroke:#181818;stroke-width:1.0;" x1="154" x2="217" y1="466.2148" y2="466.2148"/><polygon fill="#181818" points="234,462.2148,224,466.2148,234,470.2148,230,466.2148" style="stroke:#181818;stroke-width:1.0;"/><ellipse cx="482.5" cy="465.4648" fill="none" rx="4" ry="4" style="stroke:#181818;stroke-width:1.5;"/><line style="stroke:#181818;stroke-width:1.0;" x1="228" x2="478" y1="466.2148" y2="466.2148"/><text fill="#000000" font-family="sans-serif" font-size="13" lengthAdjust="spacing" textLength="27" x="240" y="461.4727">yolo</text><ellipse cx="153.5" cy="508.7754" fill="none" rx="4" ry="4" style="stroke:#181818;stroke-width:1.5;"/><polygon fill="#181818" points="211,505.5254,221,509.5254,211,513.5254,215,509.5254" style="stroke:#181818;stroke-width:1.0;"/><line style="stroke:#181818;stroke-width:1.0;" x1="158" x2="217" y1="509.5254" y2="509.5254"/><polygon fill="#181818" points="234,505.5254,224,509.5254,234,513.5254,230,509.5254" style="stroke:#181818;stroke-width:1.0;"/><ellipse cx="482.5" cy="508.7754" fill="none" rx="4" ry="4" style="stroke:#181818;stroke-width:1.5;"/><line style="stroke:#181818;stroke-width:1.0;" x1="228" x2="478" y1="509.5254" y2="509.5254"/><text fill="#000000" font-family="sans-serif" font-size="13" lengthAdjust="spacing" textLength="27" x="240" y="504.7832">yolo</text><rect fill="#EEEEEE" height="3" style="stroke:#EEEEEE;stroke-width:1.0;" width="484" x="5" y="538.1807"/><line style="stroke:#000000;stroke-width:1.0;" x1="5" x2="489" y1="538.1807" y2="538.1807"/><line style="stroke:#000000;stroke-width:1.0;" x1="5" x2="489" y1="541.1807" y2="541.1807"/><rect fill="#EEEEEE" height="23.3105" style="stroke:#000000;stroke-width:2.0;" width="263" x="115.5" y="527.5254"/><text fill="#000000" font-family="sans-serif" font-size="13" font-weight="bold" lengthAdjust="spacing" textLength="245" x="121.5" y="544.0938">extra long text on right edge arrows</text><path d="M138,564.8359 L205,564.8359 L205,572.1465 L195,582.1465 L138,582.1465 L138,564.8359 " fill="none" style="stroke:#000000;stroke-width:1.5;"/><rect fill="none" height="71.9316" style="stroke:#000000;stroke-width:1.5;" width="342" x="138" y="564.8359"/><text fill="#000000" font-family="sans-serif" font-size="13" font-weight="bold" lengthAdjust="spacing" textLength="22" x="153" y="578.4043">opt</text><text fill="#000000" font-family="sans-serif" font-size="11" font-weight="bold" lengthAdjust="spacing" textLength="25" x="220" y="577.4707">[OK]</text><ellipse cx="153.5" cy="628.0176" fill="none" rx="4" ry="4" style="stroke:#181818;stroke-width:1.5;"/><polygon fill="#181818" points="211,624.7676,221,628.7676,211,632.7676,215,628.7676" style="stroke:#181818;stroke-width:1.0;"/><line style="stroke:#181818;stroke-width:1.0;" x1="158" x2="217" y1="628.7676" y2="628.7676"/><polygon fill="#181818" points="234,624.7676,224,628.7676,234,632.7676,230,628.7676" style="stroke:#181818;stroke-width:1.0;"/><ellipse cx="482.5" cy="628.0176" fill="none" rx="4" ry="4" style="stroke:#181818;stroke-width:1.5;"/><line style="stroke:#181818;stroke-width:1.0;" x1="228" x2="478" y1="628.7676" y2="628.7676"/><text fill="#000000" font-family="sans-serif" font-size="13" lengthAdjust="spacing" textLength="217" x="240" y="608.7148">This text extends the arrow length</text><text fill="#000000" font-family="sans-serif" font-size="13" lengthAdjust="spacing" textLength="103" x="240" y="624.0254">right edge arrow</text><ellipse cx="153.5" cy="686.6387" fill="none" rx="4" ry="4" style="stroke:#181818;stroke-width:1.5;"/><polygon fill="#181818" points="211,683.3887,221,687.3887,211,691.3887,215,687.3887" style="stroke:#181818;stroke-width:1.0;"/><line style="stroke:#181818;stroke-width:1.0;" x1="158" x2="217" y1="687.3887" y2="687.3887"/><polygon fill="#181818" points="234,683.3887,224,687.3887,234,691.3887,230,687.3887" style="stroke:#181818;stroke-width:1.0;"/><ellipse cx="482.5" cy="686.6387" fill="none" rx="4" ry="4" style="stroke:#181818;stroke-width:1.5;"/><line style="stroke:#181818;stroke-width:1.0;" x1="228" x2="478" y1="687.3887" y2="687.3887"/><text fill="#000000" font-family="sans-serif" font-size="13" lengthAdjust="spacing" textLength="217" x="240" y="667.3359">This text extends the arrow length</text><text fill="#000000" font-family="sans-serif" font-size="13" lengthAdjust="spacing" textLength="103" x="240" y="682.6465">right edge arrow</text><rect fill="#EEEEEE" height="3" style="stroke:#EEEEEE;stroke-width:1.0;" width="484" x="5" y="716.0439"/><line style="stroke:#000000;stroke-width:1.0;" x1="5" x2="489" y1="716.0439" y2="716.0439"/><line style="stroke:#000000;stroke-width:1.0;" x1="5" x2="489" y1="719.0439" y2="719.0439"/><rect fill="#EEEEEE" height="23.3105" style="stroke:#000000;stroke-width:2.0;" width="264" x="115" y="705.3887"/><text fill="#000000" font-family="sans-serif" font-size="13" font-weight="bold" lengthAdjust="spacing" textLength="246" x="121" y="721.957">extra long text on right short arrows</text><path d="M164,742.6992 L231,742.6992 L231,750.0098 L221,760.0098 L164,760.0098 L164,742.6992 " fill="none" style="stroke:#000000;stroke-width:1.5;"/><rect fill="none" height="71.9316" style="stroke:#000000;stroke-width:1.5;" width="316" x="164" y="742.6992"/><text fill="#000000" font-family="sans-serif" font-size="13" font-weight="bold" lengthAdjust="spacing" textLength="22" x="179" y="756.2676">opt</text><text fill="#000000" font-family="sans-serif" font-size="11" font-weight="bold" lengthAdjust="spacing" textLength="25" x="246" y="755.334">[OK]</text><ellipse cx="185.5" cy="805.8809" fill="none" rx="4" ry="4" style="stroke:#181818;stroke-width:1.5;"/><polygon fill="#181818" points="211,802.6309,221,806.6309,211,810.6309,215,806.6309" style="stroke:#181818;stroke-width:1.0;"/><line style="stroke:#181818;stroke-width:1.0;" x1="190" x2="217" y1="806.6309" y2="806.6309"/><text fill="#000000" font-family="sans-serif" font-size="13" lengthAdjust="spacing" textLength="19" x="193" y="801.8887">Pre</text><polygon fill="#181818" points="234,802.6309,224,806.6309,234,810.6309,230,806.6309" style="stroke:#181818;stroke-width:1.0;"/><ellipse cx="457.5" cy="805.8809" fill="none" rx="4" ry="4" style="stroke:#181818;stroke-width:1.5;"/><line style="stroke:#181818;stroke-width:1.0;" x1="228" x2="453" y1="806.6309" y2="806.6309"/><text fill="#000000" font-family="sans-serif" font-size="13" lengthAdjust="spacing" textLength="217" x="240" y="786.5781">This text extends the arrow length</text><text fill="#000000" font-family="sans-serif" font-size="13" lengthAdjust="spacing" textLength="72" x="240" y="801.8887">short arrow</text><ellipse cx="185.5" cy="864.502" fill="none" rx="4" ry="4" style="stroke:#181818;stroke-width:1.5;"/><polygon fill="#181818" points="211,861.252,221,865.252,211,869.252,215,865.252" style="stroke:#181818;stroke-width:1.0;"/><line style="stroke:#181818;stroke-width:1.0;" x1="190" x2="217" y1="865.252" y2="865.252"/><text fill="#000000" font-family="sans-serif" font-size="13" lengthAdjust="spacing" textLength="19" x="193" y="860.5098">Pre</text><polygon fill="#181818" points="234,861.252,224,865.252,234,869.252,230,865.252" style="stroke:#181818;stroke-width:1.0;"/><ellipse cx="457.5" cy="864.502" fill="none" rx="4" ry="4" style="stroke:#181818;stroke-width:1.5;"/><line style="stroke:#181818;stroke-width:1.0;" x1="228" x2="453" y1="865.252" y2="865.252"/><text fill="#000000" font-family="sans-serif" font-size="13" lengthAdjust="spacing" textLength="217" x="240" y="845.1992">This text extends the arrow length</text><text fill="#000000" font-family="sans-serif" font-size="13" lengthAdjust="spacing" textLength="72" x="240" y="860.5098">short arrow</text><!--SRC=[fPCnJyCm48Nt-nM7aF1K5PWG8bG98mCPs8318iQnI7tHnQY5NyyreJGDTHlH8LBEVlU-yujpKhEsSut1q1S6_Z3Gl3jVQzPpp3K7z-fgxKEkYy9vYnTNlVsCbklrotE0UYF7TAlAjgex09Ka61Q4JKaSK3FJei4a0KLrE0siVICDHhGFzpXLphVZgIce6KrkCSDhpDc0EfFNcmdDfFwaYa0PNnpKZ4Aac_OqXeXg3X1-colorh0iBqEN1ApCk-rTkn9QPTu2ciAQNcX_SV3KZs2Om0goLo0SThOS0q8vI6krDddfKo8DKNtSJKQI75YtgNIPa3zkoiVIDPsJF4ANelpnaPYz3UMp7mBYK_xBRT-fXh_6c4kruuEEcQk7sjp0uxs-0G00]--></g></svg>