<svg xmlns="http://www.w3.org/2000/svg" xmlns:xlink="http://www.w3.org/1999/xlink" contentStyleType="text/css" height="447px" preserveAspectRatio="none" style="width:352px;height:447px;background:#FFFFFF;" version="1.1" viewBox="0 0 352 447" width="352px" zoomAndPan="magnify"><defs/><g><rect fill="#FFFFFF" height="14" style="stroke:#181818;stroke-width:1.0;" width="10" x="64.3896" y="76.7988"/><rect fill="#FFFFFF" height="14" style="stroke:#181818;stroke-width:1.0;" width="10" x="64.3896" y="195.4199"/><rect fill="#FFFFFF" height="14" style="stroke:#181818;stroke-width:1.0;" width="10" x="64.3896" y="314.041"/><rect fill="#FFFFFF" height="14" style="stroke:#181818;stroke-width:1.0;" width="10" x="172.3657" y="136.1094"/><rect fill="#FFFFFF" height="14" style="stroke:#181818;stroke-width:1.0;" width="10" x="172.3657" y="195.4199"/><rect fill="#FFFFFF" height="14" style="stroke:#181818;stroke-width:1.0;" width="10" x="172.3657" y="314.041"/><rect fill="#FFFFAA" height="45.3105" style="stroke:#000000;stroke-width:1.5;" width="225.9521" x="10" y="53.4883"/><rect fill="#FFFFAA" height="45.3105" style="stroke:#000000;stroke-width:1.5;" width="225.9521" x="10" y="112.7988"/><rect fill="#FFFFAA" height="45.3105" style="stroke:#000000;stroke-width:1.5;" width="225.9521" x="10" y="172.1094"/><rect fill="#FFFFAA" height="45.3105" style="stroke:#000000;stroke-width:1.5;" width="225.9521" x="10" y="231.4199"/><rect fill="#FFFFAA" height="45.3105" style="stroke:#000000;stroke-width:1.5;" width="308.3813" x="10" y="290.7305"/><rect fill="#FFFFAA" height="45.3105" style="stroke:#000000;stroke-width:1.5;" width="336.5776" x="10" y="350.041"/><line style="stroke:#181818;stroke-width:0.5;stroke-dasharray:5.0,5.0;" x1="69" x2="69" y1="36.4883" y2="412.3516"/><line style="stroke:#181818;stroke-width:0.5;stroke-dasharray:5.0,5.0;" x1="176.7793" x2="176.7793" y1="36.4883" y2="412.3516"/><rect fill="#E2E2F0" height="30.4883" rx="2.5" ry="2.5" style="stroke:#181818;stroke-width:0.5;" width="98.7793" x="20" y="5"/><text fill="#000000" font-family="sans-serif" font-size="14" lengthAdjust="spacing" textLength="84.7793" x="27" y="25.5352">Particpant_A</text><rect fill="#E2E2F0" height="30.4883" rx="2.5" ry="2.5" style="stroke:#181818;stroke-width:0.5;" width="98.7793" x="20" y="411.3516"/><text fill="#000000" font-family="sans-serif" font-size="14" lengthAdjust="spacing" textLength="84.7793" x="27" y="431.8867">Particpant_A</text><rect fill="#E2E2F0" height="30.4883" rx="2.5" ry="2.5" style="stroke:#181818;stroke-width:0.5;" width="97.1729" x="128.7793" y="5"/><text fill="#000000" font-family="sans-serif" font-size="14" lengthAdjust="spacing" textLength="83.1729" x="135.7793" y="25.5352">Particpant_B</text><rect fill="#E2E2F0" height="30.4883" rx="2.5" ry="2.5" style="stroke:#181818;stroke-width:0.5;" width="97.1729" x="128.7793" y="411.3516"/><text fill="#000000" font-family="sans-serif" font-size="14" lengthAdjust="spacing" textLength="83.1729" x="135.7793" y="431.8867">Particpant_B</text><rect fill="#FFFFFF" height="14" style="stroke:#181818;stroke-width:1.0;" width="10" x="64.3896" y="76.7988"/><rect fill="#FFFFFF" height="14" style="stroke:#181818;stroke-width:1.0;" width="10" x="64.3896" y="195.4199"/><rect fill="#FFFFFF" height="14" style="stroke:#181818;stroke-width:1.0;" width="10" x="64.3896" y="314.041"/><rect fill="#FFFFFF" height="14" style="stroke:#181818;stroke-width:1.0;" width="10" x="172.3657" y="136.1094"/><rect fill="#FFFFFF" height="14" style="stroke:#181818;stroke-width:1.0;" width="10" x="172.3657" y="195.4199"/><rect fill="#FFFFFF" height="14" style="stroke:#181818;stroke-width:1.0;" width="10" x="172.3657" y="314.041"/><path d="M10,53.4883 L108.917,53.4883 L108.917,60.7988 L98.917,70.7988 L10,70.7988 L10,53.4883 " fill="#EEEEEE" style="stroke:#000000;stroke-width:1.5;"/><rect fill="none" height="45.3105" style="stroke:#000000;stroke-width:1.5;" width="225.9521" x="10" y="53.4883"/><text fill="#000000" font-family="sans-serif" font-size="13" font-weight="bold" lengthAdjust="spacing" textLength="53.917" x="25" y="67.0566">Group 1</text><polygon fill="#181818" points="165.3657,72.7988,175.3657,76.7988,165.3657,80.7988,169.3657,76.7988" style="stroke:#181818;stroke-width:1.0;"/><line style="stroke:#181818;stroke-width:1.0;" x1="74.3896" x2="171.3657" y1="76.7988" y2="76.7988"/><polygon fill="#181818" points="80.3896,86.7988,70.3896,90.7988,80.3896,94.7988,76.3896,90.7988" style="stroke:#181818;stroke-width:1.0;"/><line style="stroke:#181818;stroke-width:1.0;" x1="74.3896" x2="176.3657" y1="90.7988" y2="90.7988"/><path d="M10,112.7988 L108.917,112.7988 L108.917,120.1094 L98.917,130.1094 L10,130.1094 L10,112.7988 " fill="#EEEEEE" style="stroke:#000000;stroke-width:1.5;"/><rect fill="none" height="45.3105" style="stroke:#000000;stroke-width:1.5;" width="225.9521" x="10" y="112.7988"/><text fill="#000000" font-family="sans-serif" font-size="13" font-weight="bold" lengthAdjust="spacing" textLength="53.917" x="25" y="126.3672">Group 2</text><polygon fill="#181818" points="160.3657,132.1094,170.3657,136.1094,160.3657,140.1094,164.3657,136.1094" style="stroke:#181818;stroke-width:1.0;"/><line style="stroke:#181818;stroke-width:1.0;" x1="69.3896" x2="166.3657" y1="136.1094" y2="136.1094"/><polygon fill="#181818" points="80.3896,146.1094,70.3896,150.1094,80.3896,154.1094,76.3896,150.1094" style="stroke:#181818;stroke-width:1.0;"/><line style="stroke:#181818;stroke-width:1.0;" x1="74.3896" x2="176.3657" y1="150.1094" y2="150.1094"/><path d="M10,172.1094 L108.917,172.1094 L108.917,179.4199 L98.917,189.4199 L10,189.4199 L10,172.1094 " fill="#EEEEEE" style="stroke:#000000;stroke-width:1.5;"/><rect fill="none" height="45.3105" style="stroke:#000000;stroke-width:1.5;" width="225.9521" x="10" y="172.1094"/><text fill="#000000" font-family="sans-serif" font-size="13" font-weight="bold" lengthAdjust="spacing" textLength="53.917" x="25" y="185.6777">Group 3</text><polygon fill="#181818" points="160.3657,191.4199,170.3657,195.4199,160.3657,199.4199,164.3657,195.4199" style="stroke:#181818;stroke-width:1.0;"/><line style="stroke:#181818;stroke-width:1.0;" x1="74.3896" x2="166.3657" y1="195.4199" y2="195.4199"/><polygon fill="#181818" points="80.3896,205.4199,70.3896,209.4199,80.3896,213.4199,76.3896,209.4199" style="stroke:#181818;stroke-width:1.0;"/><line style="stroke:#181818;stroke-width:1.0;" x1="74.3896" x2="176.3657" y1="209.4199" y2="209.4199"/><path d="M10,231.4199 L108.917,231.4199 L108.917,238.7305 L98.917,248.7305 L10,248.7305 L10,231.4199 " fill="#EEEEEE" style="stroke:#000000;stroke-width:1.5;"/><rect fill="none" height="45.3105" style="stroke:#000000;stroke-width:1.5;" width="225.9521" x="10" y="231.4199"/><text fill="#000000" font-family="sans-serif" font-size="13" font-weight="bold" lengthAdjust="spacing" textLength="53.917" x="25" y="244.9883">Group 4</text><polygon fill="#181818" points="165.3657,250.7305,175.3657,254.7305,165.3657,258.7305,169.3657,254.7305" style="stroke:#181818;stroke-width:1.0;"/><line style="stroke:#181818;stroke-width:1.0;" x1="69.3896" x2="171.3657" y1="254.7305" y2="254.7305"/><polygon fill="#181818" points="80.3896,264.7305,70.3896,268.7305,80.3896,272.7305,76.3896,268.7305" style="stroke:#181818;stroke-width:1.0;"/><line style="stroke:#181818;stroke-width:1.0;" x1="74.3896" x2="176.3657" y1="268.7305" y2="268.7305"/><path d="M10,290.7305 L313.3813,290.7305 L313.3813,298.041 L303.3813,308.041 L10,308.041 L10,290.7305 " fill="#EEEEEE" style="stroke:#000000;stroke-width:1.5;"/><rect fill="none" height="45.3105" style="stroke:#000000;stroke-width:1.5;" width="308.3813" x="10" y="290.7305"/><text fill="#000000" font-family="sans-serif" font-size="13" font-weight="bold" lengthAdjust="spacing" textLength="258.3813" x="25" y="304.2988">Group 5, Which has a very long header</text><polygon fill="#181818" points="160.3657,310.041,170.3657,314.041,160.3657,318.041,164.3657,314.041" style="stroke:#181818;stroke-width:1.0;"/><line style="stroke:#181818;stroke-width:1.0;" x1="74.3896" x2="166.3657" y1="314.041" y2="314.041"/><polygon fill="#181818" points="80.3896,324.041,70.3896,328.041,80.3896,332.041,76.3896,328.041" style="stroke:#181818;stroke-width:1.0;"/><line style="stroke:#181818;stroke-width:1.0;" x1="74.3896" x2="176.3657" y1="328.041" y2="328.041"/><path d="M10,350.041 L341.5776,350.041 L341.5776,357.3516 L331.5776,367.3516 L10,367.3516 L10,350.041 " fill="#EEEEEE" style="stroke:#000000;stroke-width:1.5;"/><rect fill="none" height="45.3105" style="stroke:#000000;stroke-width:1.5;" width="336.5776" x="10" y="350.041"/><text fill="#000000" font-family="sans-serif" font-size="13" font-weight="bold" lengthAdjust="spacing" textLength="286.5776" x="25" y="363.6094">Group 6, While also has a very long header</text><polygon fill="#181818" points="165.3657,369.3516,175.3657,373.3516,165.3657,377.3516,169.3657,373.3516" style="stroke:#181818;stroke-width:1.0;"/><line style="stroke:#181818;stroke-width:1.0;" x1="69.3896" x2="171.3657" y1="373.3516" y2="373.3516"/><polygon fill="#181818" points="80.3896,383.3516,70.3896,387.3516,80.3896,391.3516,76.3896,387.3516" style="stroke:#181818;stroke-width:1.0;"/><line style="stroke:#181818;stroke-width:1.0;" x1="74.3896" x2="176.3657" y1="387.3516" y2="387.3516"/><!--SRC=[KrSiA4fCpqrKA4dDhr8eAIfDvU9AByelBL1GJajBL707Cmsv580W8B6e93Ev836l9DvHGTSEcUy4Lf2ON99PbbYIYg8IKwkDBgRMb5JicbFpKh2unuYWUxIr2Tghgul3T6DYJIVFlq1xIVUn2N4nW3USiPjiggCGdf6PdA6GaLYiaAXGbbfKgP2JdvUka96Qc99QH5bOq2OmpC1EpabLICmfpYVNtKI55m00]--></g></svg>