<svg xmlns="http://www.w3.org/2000/svg" xmlns:xlink="http://www.w3.org/1999/xlink" contentStyleType="text/css" height="417px" preserveAspectRatio="none" style="width:345px;height:417px;background:#FFFFFF;" version="1.1" viewBox="0 0 345 417" width="345px" zoomAndPan="magnify"><defs/><g><line style="stroke:#181818;stroke-width:0.5;stroke-dasharray:5.0,5.0;" x1="24" x2="24" y1="36.4883" y2="380.9277"/><line style="stroke:#181818;stroke-width:0.5;stroke-dasharray:5.0,5.0;" x1="103" x2="103" y1="36.4883" y2="380.9277"/><line style="stroke:#181818;stroke-width:0.5;stroke-dasharray:5.0,5.0;" x1="193" x2="193" y1="36.4883" y2="380.9277"/><line style="stroke:#181818;stroke-width:0.5;stroke-dasharray:5.0,5.0;" x1="272" x2="272" y1="36.4883" y2="380.9277"/><rect fill="#E2E2F0" height="30.4883" rx="2.5" ry="2.5" style="stroke:#181818;stroke-width:0.5;" width="24" x="12" y="5"/><text fill="#000000" font-family="sans-serif" font-size="14" lengthAdjust="spacing" textLength="10" x="19" y="25.5352">A</text><rect fill="#E2E2F0" height="30.4883" rx="2.5" ry="2.5" style="stroke:#181818;stroke-width:0.5;" width="22" x="92" y="5"/><text fill="#000000" font-family="sans-serif" font-size="14" lengthAdjust="spacing" textLength="8" x="99" y="25.5352">B</text><rect fill="#E2E2F0" height="30.4883" rx="2.5" ry="2.5" style="stroke:#181818;stroke-width:0.5;" width="24" x="181" y="5"/><text fill="#000000" font-family="sans-serif" font-size="14" lengthAdjust="spacing" textLength="10" x="188" y="25.5352">C</text><rect fill="#E2E2F0" height="30.4883" rx="2.5" ry="2.5" style="stroke:#181818;stroke-width:0.5;" width="24" x="260" y="5"/><text fill="#000000" font-family="sans-serif" font-size="14" lengthAdjust="spacing" textLength="10" x="267" y="25.5352">D</text><rect fill="#E2E2F0" height="30.4883" rx="2.5" ry="2.5" style="stroke:#181818;stroke-width:0.5;" width="24" x="12" y="380.9277"/><text fill="#000000" font-family="sans-serif" font-size="14" lengthAdjust="spacing" textLength="10" x="19" y="401.4629">A</text><rect fill="#E2E2F0" height="30.4883" rx="2.5" ry="2.5" style="stroke:#181818;stroke-width:0.5;" width="22" x="92" y="380.9277"/><text fill="#000000" font-family="sans-serif" font-size="14" lengthAdjust="spacing" textLength="8" x="99" y="401.4629">B</text><rect fill="#E2E2F0" height="30.4883" rx="2.5" ry="2.5" style="stroke:#181818;stroke-width:0.5;" width="24" x="181" y="380.9277"/><text fill="#000000" font-family="sans-serif" font-size="14" lengthAdjust="spacing" textLength="10" x="188" y="401.4629">C</text><rect fill="#E2E2F0" height="30.4883" rx="2.5" ry="2.5" style="stroke:#181818;stroke-width:0.5;" width="24" x="260" y="380.9277"/><text fill="#000000" font-family="sans-serif" font-size="14" lengthAdjust="spacing" textLength="10" x="267" y="401.4629">D</text><path d="M8,48.4883 L75,48.4883 L75,55.7988 L65,65.7988 L8,65.7988 L8,48.4883 " fill="#EEEEEE" style="stroke:#000000;stroke-width:1.5;"/><rect fill="none" height="56.6211" style="stroke:#000000;stroke-width:1.5;" width="111" x="8" y="48.4883"/><text fill="#000000" font-family="sans-serif" font-size="13" font-weight="bold" lengthAdjust="spacing" textLength="22" x="23" y="62.0566">opt</text><polygon fill="#181818" points="91,93.1094,101,97.1094,91,101.1094,95,97.1094" style="stroke:#181818;stroke-width:1.0;"/><line style="stroke:#181818;stroke-width:1.0;" x1="24" x2="97" y1="97.1094" y2="97.1094"/><text fill="#000000" font-family="sans-serif" font-size="13" lengthAdjust="spacing" textLength="55" x="31" y="92.3672">message</text><path d="M177,48.4883 L244,48.4883 L244,55.7988 L234,65.7988 L177,65.7988 L177,48.4883 " fill="#EEEEEE" style="stroke:#000000;stroke-width:1.5;"/><rect fill="none" height="56.6211" style="stroke:#000000;stroke-width:1.5;" width="111" x="177" y="48.4883"/><text fill="#000000" font-family="sans-serif" font-size="13" font-weight="bold" lengthAdjust="spacing" textLength="22" x="192" y="62.0566">opt</text><polygon fill="#181818" points="260,93.1094,270,97.1094,260,101.1094,264,97.1094" style="stroke:#181818;stroke-width:1.0;"/><line style="stroke:#181818;stroke-width:1.0;" x1="193" x2="266" y1="97.1094" y2="97.1094"/><text fill="#000000" font-family="sans-serif" font-size="13" lengthAdjust="spacing" textLength="55" x="200" y="92.3672">message</text><path d="M8,123.1094 L70,123.1094 L70,130.4199 L60,140.4199 L8,140.4199 L8,123.1094 " fill="#EEEEEE" style="stroke:#000000;stroke-width:1.5;"/><rect fill="none" height="56.6211" style="stroke:#000000;stroke-width:1.5;" width="111" x="8" y="123.1094"/><text fill="#000000" font-family="sans-serif" font-size="13" font-weight="bold" lengthAdjust="spacing" textLength="17" x="23" y="136.6777">alt</text><polygon fill="#181818" points="91,167.7305,101,171.7305,91,175.7305,95,171.7305" style="stroke:#181818;stroke-width:1.0;"/><line style="stroke:#181818;stroke-width:1.0;" x1="24" x2="97" y1="171.7305" y2="171.7305"/><text fill="#000000" font-family="sans-serif" font-size="13" lengthAdjust="spacing" textLength="55" x="31" y="166.9883">message</text><path d="M177,123.1094 L239,123.1094 L239,130.4199 L229,140.4199 L177,140.4199 L177,123.1094 " fill="#EEEEEE" style="stroke:#000000;stroke-width:1.5;"/><rect fill="none" height="56.6211" style="stroke:#000000;stroke-width:1.5;" width="111" x="177" y="123.1094"/><text fill="#000000" font-family="sans-serif" font-size="13" font-weight="bold" lengthAdjust="spacing" textLength="17" x="192" y="136.6777">alt</text><polygon fill="#181818" points="260,167.7305,270,171.7305,260,175.7305,264,171.7305" style="stroke:#181818;stroke-width:1.0;"/><line style="stroke:#181818;stroke-width:1.0;" x1="193" x2="266" y1="171.7305" y2="171.7305"/><text fill="#000000" font-family="sans-serif" font-size="13" lengthAdjust="spacing" textLength="55" x="200" y="166.9883">message</text><path d="M8,197.7305 L70,197.7305 L70,205.041 L60,215.041 L8,215.041 L8,197.7305 " fill="#EEEEEE" style="stroke:#000000;stroke-width:1.5;"/><rect fill="none" height="129.8867" style="stroke:#000000;stroke-width:1.5;" width="161" x="8" y="197.7305"/><text fill="#000000" font-family="sans-serif" font-size="13" font-weight="bold" lengthAdjust="spacing" textLength="17" x="23" y="211.2988">alt</text><line style="stroke:#000000;stroke-width:1.0;stroke-dasharray:2.0,2.0;" x1="8" x2="169" y1="265.3516" y2="265.3516"/><text fill="#000000" font-family="sans-serif" font-size="11" font-weight="bold" lengthAdjust="spacing" textLength="47" x="13" y="277.9863">[default]</text><polygon fill="#181818" points="91,242.3516,101,246.3516,91,250.3516,95,246.3516" style="stroke:#181818;stroke-width:1.0;"/><line style="stroke:#181818;stroke-width:1.0;" x1="24" x2="97" y1="246.3516" y2="246.3516"/><text fill="#000000" font-family="sans-serif" font-size="13" lengthAdjust="spacing" textLength="55" x="31" y="241.6094">message</text><line style="stroke:#181818;stroke-width:1.0;" x1="103" x2="145" y1="306.6172" y2="306.6172"/><line style="stroke:#181818;stroke-width:1.0;" x1="145" x2="145" y1="306.6172" y2="319.6172"/><line style="stroke:#181818;stroke-width:1.0;" x1="104" x2="145" y1="319.6172" y2="319.6172"/><polygon fill="#181818" points="114,315.6172,104,319.6172,114,323.6172,110,319.6172" style="stroke:#181818;stroke-width:1.0;"/><text fill="#000000" font-family="sans-serif" font-size="13" lengthAdjust="spacing" textLength="33" x="110" y="301.875">other</text><path d="M177,197.7305 L239,197.7305 L239,205.041 L229,215.041 L177,215.041 L177,197.7305 " fill="#EEEEEE" style="stroke:#000000;stroke-width:1.5;"/><rect fill="none" height="129.8867" style="stroke:#000000;stroke-width:1.5;" width="161" x="177" y="197.7305"/><text fill="#000000" font-family="sans-serif" font-size="13" font-weight="bold" lengthAdjust="spacing" textLength="17" x="192" y="211.2988">alt</text><line style="stroke:#000000;stroke-width:1.0;stroke-dasharray:2.0,2.0;" x1="177" x2="338" y1="265.3516" y2="265.3516"/><text fill="#000000" font-family="sans-serif" font-size="11" font-weight="bold" lengthAdjust="spacing" textLength="47" x="182" y="277.9863">[default]</text><polygon fill="#181818" points="260,242.3516,270,246.3516,260,250.3516,264,246.3516" style="stroke:#181818;stroke-width:1.0;"/><line style="stroke:#181818;stroke-width:1.0;" x1="193" x2="266" y1="246.3516" y2="246.3516"/><text fill="#000000" font-family="sans-serif" font-size="13" lengthAdjust="spacing" textLength="55" x="200" y="241.6094">message</text><line style="stroke:#181818;stroke-width:1.0;" x1="272" x2="314" y1="306.6172" y2="306.6172"/><line style="stroke:#181818;stroke-width:1.0;" x1="314" x2="314" y1="306.6172" y2="319.6172"/><line style="stroke:#181818;stroke-width:1.0;" x1="273" x2="314" y1="319.6172" y2="319.6172"/><polygon fill="#181818" points="283,315.6172,273,319.6172,283,323.6172,279,319.6172" style="stroke:#181818;stroke-width:1.0;"/><text fill="#000000" font-family="sans-serif" font-size="13" lengthAdjust="spacing" textLength="33" x="279" y="301.875">other</text><!--SRC=[KomeIapFJLGeISslKYWfAatbKW22_88IC0q2ZhfsJbOAkQd5nOdf4DdKl1GmhOQYpbdNpWLJ7PYHc4ESSSZgo3SkfpXL8IKrBR4KIPaJM5b-IKPg4MbsOZFC1QmCqp0d1TteZCoKbDIyM5qx1MSh1IK55A040000]--></g></svg>