<svg xmlns="http://www.w3.org/2000/svg" xmlns:xlink="http://www.w3.org/1999/xlink" contentStyleType="text/css" height="276px" preserveAspectRatio="none" style="width:297px;height:276px;background:#FFFFFF;" version="1.1" viewBox="0 0 297 276" width="297px" zoomAndPan="magnify"><defs/><g><line style="stroke:#181818;stroke-width:0.5;stroke-dasharray:5.0,5.0;" x1="16.5" x2="16.5" y1="36.4883" y2="240.041"/><line style="stroke:#181818;stroke-width:0.5;stroke-dasharray:5.0,5.0;" x1="154.5" x2="154.5" y1="36.4883" y2="240.041"/><rect fill="#FFFFFF" height="156.2422" style="stroke:#181818;stroke-width:1.0;" width="10" x="149.5" y="65.7988"/><rect fill="#FFFFFF" height="97.6211" style="stroke:#181818;stroke-width:1.0;" width="10" x="154.5" y="108.1094"/><rect fill="#FFFFFF" height="55.3105" style="stroke:#181818;stroke-width:1.0;" width="10" x="159.5" y="150.4199"/><rect fill="#FFFFFF" height="13" style="stroke:#181818;stroke-width:1.0;" width="10" x="164.5" y="192.7305"/><rect fill="#E2E2F0" height="30.4883" rx="2.5" ry="2.5" style="stroke:#181818;stroke-width:0.5;" width="23" x="5" y="5"/><text fill="#000000" font-family="sans-serif" font-size="14" lengthAdjust="spacing" textLength="9" x="12" y="25.5352">2</text><rect fill="#E2E2F0" height="30.4883" rx="2.5" ry="2.5" style="stroke:#181818;stroke-width:0.5;" width="23" x="143" y="5"/><text fill="#000000" font-family="sans-serif" font-size="14" lengthAdjust="spacing" textLength="9" x="150" y="25.5352">3</text><rect fill="#E2E2F0" height="30.4883" rx="2.5" ry="2.5" style="stroke:#181818;stroke-width:0.5;" width="23" x="5" y="240.041"/><text fill="#000000" font-family="sans-serif" font-size="14" lengthAdjust="spacing" textLength="9" x="12" y="260.5762">2</text><rect fill="#E2E2F0" height="30.4883" rx="2.5" ry="2.5" style="stroke:#181818;stroke-width:0.5;" width="23" x="143" y="240.041"/><text fill="#000000" font-family="sans-serif" font-size="14" lengthAdjust="spacing" textLength="9" x="150" y="260.5762">3</text><polygon fill="#181818" points="137.5,61.7988,147.5,65.7988,137.5,69.7988,141.5,65.7988" style="stroke:#181818;stroke-width:1.0;"/><line style="stroke:#181818;stroke-width:1.0;" x1="16.5" x2="143.5" y1="65.7988" y2="65.7988"/><text fill="#000000" font-family="sans-serif" font-size="13" lengthAdjust="spacing" textLength="109" x="23.5" y="61.0566">Call method ADD</text><line style="stroke:#181818;stroke-width:1.0;" x1="159.5" x2="206.5" y1="95.1094" y2="95.1094"/><line style="stroke:#181818;stroke-width:1.0;" x1="206.5" x2="206.5" y1="95.1094" y2="108.1094"/><line style="stroke:#181818;stroke-width:1.0;" x1="165.5" x2="206.5" y1="108.1094" y2="108.1094"/><polygon fill="#181818" points="175.5,104.1094,165.5,108.1094,175.5,112.1094,171.5,108.1094" style="stroke:#181818;stroke-width:1.0;"/><text fill="#000000" font-family="sans-serif" font-size="13" lengthAdjust="spacing" textLength="109" x="171.5" y="90.3672">Call method ADD</text><line style="stroke:#181818;stroke-width:1.0;" x1="164.5" x2="211.5" y1="137.4199" y2="137.4199"/><line style="stroke:#181818;stroke-width:1.0;" x1="211.5" x2="211.5" y1="137.4199" y2="150.4199"/><line style="stroke:#181818;stroke-width:1.0;" x1="170.5" x2="211.5" y1="150.4199" y2="150.4199"/><polygon fill="#181818" points="180.5,146.4199,170.5,150.4199,180.5,154.4199,176.5,150.4199" style="stroke:#181818;stroke-width:1.0;"/><text fill="#000000" font-family="sans-serif" font-size="13" lengthAdjust="spacing" textLength="109" x="176.5" y="132.6777">Call method ADD</text><line style="stroke:#181818;stroke-width:1.0;" x1="169.5" x2="216.5" y1="179.7305" y2="179.7305"/><line style="stroke:#181818;stroke-width:1.0;" x1="216.5" x2="216.5" y1="179.7305" y2="192.7305"/><line style="stroke:#181818;stroke-width:1.0;" x1="175.5" x2="216.5" y1="192.7305" y2="192.7305"/><polygon fill="#181818" points="185.5,188.7305,175.5,192.7305,185.5,196.7305,181.5,192.7305" style="stroke:#181818;stroke-width:1.0;"/><text fill="#000000" font-family="sans-serif" font-size="13" lengthAdjust="spacing" textLength="109" x="181.5" y="174.9883">Call method ADD</text><polygon fill="#181818" points="27.5,218.041,17.5,222.041,27.5,226.041,23.5,222.041" style="stroke:#181818;stroke-width:1.0;"/><line style="stroke:#181818;stroke-width:1.0;stroke-dasharray:2.0,2.0;" x1="21.5" x2="148.5" y1="222.041" y2="222.041"/><text fill="#000000" font-family="sans-serif" font-size="13" lengthAdjust="spacing" textLength="27" x="33.5" y="217.2988">Test</text><!--SRC=[KomeIapFJLGeISslKYWfAatbuZ9IqBLJCBPIS4xCoL78JIt9o4zHS7HnuKfCBiaiIon9LJ3cCgQN4dLSQjI9KPIIYgGADqST3mzeDD1i8mKhXP3KuX9KVLm0]--></g></svg>