<svg xmlns="http://www.w3.org/2000/svg" xmlns:xlink="http://www.w3.org/1999/xlink" contentStyleType="text/css" height="428px" preserveAspectRatio="none" style="width:235px;height:428px;background:#FFFFFF;" version="1.1" viewBox="0 0 235 428" width="235px" zoomAndPan="magnify"><defs/><g><line style="stroke:#181818;stroke-width:0.5;stroke-dasharray:5.0,5.0;" x1="16.8296" x2="16.8296" y1="36.4883" y2="392.2832"/><rect fill="#FFFFFF" height="44.6211" style="stroke:#181818;stroke-width:1.0;" width="10" x="11.8296" y="50.4883"/><rect fill="#008000" height="44.6211" style="stroke:#181818;stroke-width:1.0;" width="10" x="11.8296" y="172.4199"/><rect fill="#FF0000" height="44.6211" style="stroke:#181818;stroke-width:1.0;" width="10" x="11.8296" y="294.3516"/><line style="stroke:#181818;stroke-width:0.5;stroke-dasharray:5.0,5.0;" x1="103.7603" x2="103.7603" y1="36.4883" y2="392.2832"/><line style="stroke:#181818;stroke-width:0.5;stroke-dasharray:5.0,5.0;" x1="195.6909" x2="195.6909" y1="36.4883" y2="392.2832"/><rect fill="#FF0000" height="48.3105" style="stroke:#181818;stroke-width:1.0;" width="10" x="190.6909" y="95.1094"/><rect fill="#008000" height="48.3105" style="stroke:#181818;stroke-width:1.0;" width="10" x="190.6909" y="217.041"/><rect fill="#FFFFFF" height="48.3105" style="stroke:#181818;stroke-width:1.0;" width="10" x="190.6909" y="338.9727"/><rect fill="#E2E2F0" height="30.4883" rx="2.5" ry="2.5" style="stroke:#181818;stroke-width:0.5;" width="23.6592" x="5" y="5"/><text fill="#000000" font-family="sans-serif" font-size="14" lengthAdjust="spacing" textLength="9.6592" x="12" y="25.5352">A</text><rect fill="#E2E2F0" height="30.4883" rx="2.5" ry="2.5" style="stroke:#181818;stroke-width:0.5;" width="22.0527" x="92.7339" y="5"/><text fill="#000000" font-family="sans-serif" font-size="14" lengthAdjust="spacing" textLength="8.0527" x="99.7339" y="25.5352">B</text><rect fill="#E2E2F0" height="30.4883" rx="2.5" ry="2.5" style="stroke:#181818;stroke-width:0.5;" width="23.6865" x="183.8477" y="5"/><text fill="#000000" font-family="sans-serif" font-size="14" lengthAdjust="spacing" textLength="9.6865" x="190.8477" y="25.5352">C</text><rect fill="#E2E2F0" height="30.4883" rx="2.5" ry="2.5" style="stroke:#181818;stroke-width:0.5;" width="23.6592" x="5" y="392.2832"/><text fill="#000000" font-family="sans-serif" font-size="14" lengthAdjust="spacing" textLength="9.6592" x="12" y="412.8184">A</text><rect fill="#E2E2F0" height="30.4883" rx="2.5" ry="2.5" style="stroke:#181818;stroke-width:0.5;" width="22.0527" x="92.7339" y="392.2832"/><text fill="#000000" font-family="sans-serif" font-size="14" lengthAdjust="spacing" textLength="8.0527" x="99.7339" y="412.8184">B</text><rect fill="#E2E2F0" height="30.4883" rx="2.5" ry="2.5" style="stroke:#181818;stroke-width:0.5;" width="23.6865" x="183.8477" y="392.2832"/><text fill="#000000" font-family="sans-serif" font-size="14" lengthAdjust="spacing" textLength="9.6865" x="190.8477" y="412.8184">C</text><polygon fill="#FF0000" points="32.8296,46.4883,22.8296,50.4883,32.8296,54.4883,28.8296,50.4883" style="stroke:#FF0000;stroke-width:1.0;"/><ellipse cx="34.3296" cy="49.7383" fill="none" rx="4" ry="4" style="stroke:#FF0000;stroke-width:1.5;"/><line style="stroke:#FF0000;stroke-width:1.0;" x1="26.8296" x2="29.8296" y1="50.4883" y2="50.4883"/><polygon fill="#181818" points="91.7603,91.1094,101.7603,95.1094,91.7603,99.1094,95.7603,95.1094" style="stroke:#181818;stroke-width:1.0;"/><line style="stroke:#181818;stroke-width:1.0;" x1="21.8296" x2="97.7603" y1="95.1094" y2="95.1094"/><text fill="#000000" font-family="sans-serif" font-size="13" lengthAdjust="spacing" textLength="58.1128" x="28.8296" y="75.0566">very long</text><text fill="#000000" font-family="sans-serif" font-size="13" lengthAdjust="spacing" textLength="62.9307" x="28.8296" y="90.3672">multi-line</text><polygon fill="#181818" points="178.6909,91.1094,188.6909,95.1094,178.6909,99.1094,182.6909,95.1094" style="stroke:#181818;stroke-width:1.0;"/><line style="stroke:#181818;stroke-width:1.0;" x1="103.7603" x2="184.6909" y1="95.1094" y2="95.1094"/><text fill="#000000" font-family="sans-serif" font-size="13" lengthAdjust="spacing" textLength="37.5591" x="110.7603" y="90.3672">single</text><path d="M168.3474,108.1094 L168.3474,133.1094 L222.3474,133.1094 L222.3474,118.1094 L212.3474,108.1094 L168.3474,108.1094 " fill="#FEFFDD" style="stroke:#181818;stroke-width:0.5;"/><path d="M212.3474,108.1094 L212.3474,118.1094 L222.3474,118.1094 L212.3474,108.1094 " fill="#FEFFDD" style="stroke:#181818;stroke-width:0.5;"/><text fill="#000000" font-family="sans-serif" font-size="13" lengthAdjust="spacing" textLength="33.687" x="174.3474" y="125.6777">got it</text><rect fill="#EEEEEE" height="3" style="stroke:#EEEEEE;stroke-width:1.0;" width="223.0344" x="5" y="151.4199"/><line style="stroke:#000000;stroke-width:1.0;" x1="5" x2="228.0344" y1="151.4199" y2="151.4199"/><line style="stroke:#000000;stroke-width:1.0;" x1="5" x2="228.0344" y1="154.4199" y2="154.4199"/><polygon fill="#181818" points="32.8296,168.4199,22.8296,172.4199,32.8296,176.4199,28.8296,172.4199" style="stroke:#181818;stroke-width:1.0;"/><ellipse cx="34.3296" cy="171.6699" fill="none" rx="4" ry="4" style="stroke:#181818;stroke-width:1.5;"/><line style="stroke:#181818;stroke-width:1.0;" x1="26.8296" x2="29.8296" y1="172.4199" y2="172.4199"/><polygon fill="#181818" points="91.7603,213.041,101.7603,217.041,91.7603,221.041,95.7603,217.041" style="stroke:#181818;stroke-width:1.0;"/><line style="stroke:#181818;stroke-width:1.0;" x1="21.8296" x2="97.7603" y1="217.041" y2="217.041"/><text fill="#000000" font-family="sans-serif" font-size="13" lengthAdjust="spacing" textLength="58.1128" x="28.8296" y="196.9883">very long</text><text fill="#000000" font-family="sans-serif" font-size="13" lengthAdjust="spacing" textLength="62.9307" x="28.8296" y="212.2988">multi-line</text><polygon fill="#181818" points="178.6909,213.041,188.6909,217.041,178.6909,221.041,182.6909,217.041" style="stroke:#181818;stroke-width:1.0;"/><line style="stroke:#181818;stroke-width:1.0;" x1="103.7603" x2="184.6909" y1="217.041" y2="217.041"/><text fill="#000000" font-family="sans-serif" font-size="13" lengthAdjust="spacing" textLength="33.1855" x="110.7603" y="196.9883">same</text><text fill="#000000" font-family="sans-serif" font-size="13" lengthAdjust="spacing" textLength="40.1045" x="110.7603" y="212.2988">height</text><path d="M168.3474,230.041 L168.3474,255.041 L222.3474,255.041 L222.3474,240.041 L212.3474,230.041 L168.3474,230.041 " fill="#FEFFDD" style="stroke:#181818;stroke-width:0.5;"/><path d="M212.3474,230.041 L212.3474,240.041 L222.3474,240.041 L212.3474,230.041 " fill="#FEFFDD" style="stroke:#181818;stroke-width:0.5;"/><text fill="#000000" font-family="sans-serif" font-size="13" lengthAdjust="spacing" textLength="33.687" x="174.3474" y="247.6094">got it</text><rect fill="#EEEEEE" height="3" style="stroke:#EEEEEE;stroke-width:1.0;" width="223.0344" x="5" y="273.3516"/><line style="stroke:#000000;stroke-width:1.0;" x1="5" x2="228.0344" y1="273.3516" y2="273.3516"/><line style="stroke:#000000;stroke-width:1.0;" x1="5" x2="228.0344" y1="276.3516" y2="276.3516"/><polygon fill="#181818" points="32.8296,290.3516,22.8296,294.3516,32.8296,298.3516,28.8296,294.3516" style="stroke:#181818;stroke-width:1.0;"/><ellipse cx="34.3296" cy="293.6016" fill="none" rx="4" ry="4" style="stroke:#181818;stroke-width:1.5;"/><line style="stroke:#181818;stroke-width:1.0;" x1="26.8296" x2="29.8296" y1="294.3516" y2="294.3516"/><polygon fill="#181818" points="91.7603,334.9727,101.7603,338.9727,91.7603,342.9727,95.7603,338.9727" style="stroke:#181818;stroke-width:1.0;"/><line style="stroke:#181818;stroke-width:1.0;" x1="21.8296" x2="97.7603" y1="338.9727" y2="338.9727"/><text fill="#000000" font-family="sans-serif" font-size="13" lengthAdjust="spacing" textLength="37.5591" x="28.8296" y="334.2305">single</text><polygon fill="#181818" points="178.6909,334.9727,188.6909,338.9727,178.6909,342.9727,182.6909,338.9727" style="stroke:#181818;stroke-width:1.0;"/><line style="stroke:#181818;stroke-width:1.0;" x1="103.7603" x2="184.6909" y1="338.9727" y2="338.9727"/><text fill="#000000" font-family="sans-serif" font-size="13" lengthAdjust="spacing" textLength="58.1128" x="110.7603" y="318.9199">very long</text><text fill="#000000" font-family="sans-serif" font-size="13" lengthAdjust="spacing" textLength="62.9307" x="110.7603" y="334.2305">multi-line</text><path d="M168.3474,351.9727 L168.3474,376.9727 L222.3474,376.9727 L222.3474,361.9727 L212.3474,351.9727 L168.3474,351.9727 " fill="#FEFFDD" style="stroke:#181818;stroke-width:0.5;"/><path d="M212.3474,351.9727 L212.3474,361.9727 L222.3474,361.9727 L212.3474,351.9727 " fill="#FEFFDD" style="stroke:#181818;stroke-width:0.5;"/><text fill="#000000" font-family="sans-serif" font-size="13" lengthAdjust="spacing" textLength="33.687" x="174.3474" y="369.541">got it</text><!--SRC=[dOzD2i8m48NtESMJWbsKW2vRj5BhnZDO5q67D90cagO5FRrfAoA2YCxo_V2zcLsSa8s09tk3TnsnUD-s7M6vI5C655WT8aVd8xSR9Ccey1nRS8uCFRahj3MoCasdlU9Q6MBpmSvHXZo6RePM6Qc96Ui9DfHGPf3MGtcs8t7ogXV1ATawt0ITS8Ya8pA_KyTQYBQYeShKf6Jj_y67zK68dvdYRShZiLVsfttVw7S0]--></g></svg>