<svg xmlns="http://www.w3.org/2000/svg" xmlns:xlink="http://www.w3.org/1999/xlink" contentStyleType="text/css" height="245px" preserveAspectRatio="none" style="width:320px;height:245px;background:#FFFFFF;" version="1.1" viewBox="0 0 320 245" width="320px" zoomAndPan="magnify"><defs/><g><text fill="#000000" font-family="sans-serif" font-size="14" font-weight="bold" lengthAdjust="spacing" textLength="166" x="83.5" y="28.5352">Parallel Group in Puma</text><rect fill="none" height="46.6211" style="stroke:#000000;stroke-width:1.5;" width="121.5" x="20" y="146.5977"/><line style="stroke:#181818;stroke-width:0.5;stroke-dasharray:5.0,5.0;" x1="53" x2="53" y1="73.9766" y2="210.2188"/><line style="stroke:#181818;stroke-width:0.5;stroke-dasharray:5.0,5.0;" x1="111.5" x2="111.5" y1="73.9766" y2="210.2188"/><line style="stroke:#181818;stroke-width:0.5;stroke-dasharray:5.0,5.0;" x1="282" x2="282" y1="73.9766" y2="210.2188"/><rect fill="#E2E2F0" height="30.4883" rx="2.5" ry="2.5" style="stroke:#181818;stroke-width:0.5;" width="47" x="30" y="42.4883"/><text fill="#000000" font-family="sans-serif" font-size="14" lengthAdjust="spacing" textLength="33" x="37" y="63.0234">Alice</text><rect fill="#E2E2F0" height="30.4883" rx="2.5" ry="2.5" style="stroke:#181818;stroke-width:0.5;" width="47" x="30" y="209.2188"/><text fill="#000000" font-family="sans-serif" font-size="14" lengthAdjust="spacing" textLength="33" x="37" y="229.7539">Alice</text><rect fill="#E2E2F0" height="30.4883" rx="2.5" ry="2.5" style="stroke:#181818;stroke-width:0.5;" width="40" x="91.5" y="42.4883"/><text fill="#000000" font-family="sans-serif" font-size="14" lengthAdjust="spacing" textLength="26" x="98.5" y="63.0234">Bob</text><rect fill="#E2E2F0" height="30.4883" rx="2.5" ry="2.5" style="stroke:#181818;stroke-width:0.5;" width="40" x="91.5" y="209.2188"/><text fill="#000000" font-family="sans-serif" font-size="14" lengthAdjust="spacing" textLength="26" x="98.5" y="229.7539">Bob</text><rect fill="#E2E2F0" height="30.4883" rx="2.5" ry="2.5" style="stroke:#181818;stroke-width:0.5;" width="63" x="251" y="42.4883"/><text fill="#000000" font-family="sans-serif" font-size="14" lengthAdjust="spacing" textLength="49" x="258" y="63.0234">Charlie</text><rect fill="#E2E2F0" height="30.4883" rx="2.5" ry="2.5" style="stroke:#181818;stroke-width:0.5;" width="63" x="251" y="209.2188"/><text fill="#000000" font-family="sans-serif" font-size="14" lengthAdjust="spacing" textLength="49" x="258" y="229.7539">Charlie</text><polygon fill="#181818" points="270.5,125.5977,280.5,129.5977,270.5,133.5977,274.5,129.5977" style="stroke:#181818;stroke-width:1.0;"/><line style="stroke:#181818;stroke-width:1.0;" x1="111.5" x2="276.5" y1="129.5977" y2="129.5977"/><text fill="#000000" font-family="sans-serif" font-size="13" lengthAdjust="spacing" textLength="147" x="118.5" y="124.8555">Authentication Request</text><path d="M20,146.5977 L82,146.5977 L82,153.9082 L72,163.9082 L20,163.9082 L20,146.5977 " fill="#EEEEEE" style="stroke:#000000;stroke-width:1.5;"/><rect fill="none" height="46.6211" style="stroke:#000000;stroke-width:1.5;" width="121.5" x="20" y="146.5977"/><text fill="#000000" font-family="sans-serif" font-size="13" font-weight="bold" lengthAdjust="spacing" textLength="17" x="35" y="160.166">alt</text><text fill="#000000" font-family="sans-serif" font-size="11" font-weight="bold" lengthAdjust="spacing" textLength="28" x="97" y="159.2324">[test]</text><polygon fill="#181818" points="99.5,181.2188,109.5,185.2188,99.5,189.2188,103.5,185.2188" style="stroke:#181818;stroke-width:1.0;"/><line style="stroke:#181818;stroke-width:1.0;" x1="53.5" x2="105.5" y1="185.2188" y2="185.2188"/><text fill="#000000" font-family="sans-serif" font-size="13" lengthAdjust="spacing" textLength="34" x="60.5" y="180.4766">again</text><!--SRC=[LOsn3i8m34JtVCKnCVK7EbGg2B5M_84fLcl9TKBgBFrwKc3fRNT-ldDnPGoKIPKLznnBWXY6ib0udrAcQI4unmsU2uTAkeoIo1ozodXCBl5vyDUPiigN2QYgzwRxXotwuZDRXSab6XxyBhnwkEdA0QHUPwlT_tvJQBgz0Ire8h70zle0]--></g></svg>