<svg xmlns="http://www.w3.org/2000/svg" xmlns:xlink="http://www.w3.org/1999/xlink" contentStyleType="text/css" height="272px" preserveAspectRatio="none" style="width:217px;height:272px;background:#FFFFFF;" version="1.1" viewBox="0 0 217 272" width="217px" zoomAndPan="magnify"><defs/><g><rect fill="#808000" height="181.9316" style="stroke:#181818;stroke-width:1.0;" width="10" x="31" y="46.4883"/><rect fill="#6B8E23" height="109.6211" style="stroke:#181818;stroke-width:1.0;" width="10" x="36" y="60.4883"/><rect fill="#3CB371" height="40.3105" style="stroke:#181818;stroke-width:1.0;" width="10" x="41" y="87.4883"/><line style="stroke:#181818;stroke-width:0.5;stroke-dasharray:5.0,5.0;" x1="36" x2="36" y1="36.4883" y2="237.4199"/><rect fill="#E2E2F0" height="30.4883" rx="2.5" ry="2.5" style="stroke:#181818;stroke-width:0.5;" width="62" x="5" y="5"/><text fill="#000000" font-family="sans-serif" font-size="14" lengthAdjust="spacing" textLength="48" x="12" y="25.5352">actor 1</text><rect fill="#E2E2F0" height="30.4883" rx="2.5" ry="2.5" style="stroke:#181818;stroke-width:0.5;" width="62" x="5" y="236.4199"/><text fill="#000000" font-family="sans-serif" font-size="14" lengthAdjust="spacing" textLength="48" x="12" y="256.9551">actor 1</text><rect fill="#808000" height="181.9316" style="stroke:#181818;stroke-width:1.0;" width="10" x="31" y="46.4883"/><rect fill="#6B8E23" height="109.6211" style="stroke:#181818;stroke-width:1.0;" width="10" x="36" y="60.4883"/><rect fill="#3CB371" height="40.3105" style="stroke:#181818;stroke-width:1.0;" width="10" x="41" y="87.4883"/><line style="stroke:none;stroke-width:1.0;" x1="41" x2="88" y1="47.4883" y2="47.4883"/><line style="stroke:none;stroke-width:1.0;" x1="88" x2="88" y1="47.4883" y2="60.4883"/><line style="stroke:none;stroke-width:1.0;" x1="47" x2="88" y1="60.4883" y2="60.4883"/><polygon fill="none" points="57,56.4883,47,60.4883,57,64.4883,53,60.4883" style="stroke:none;stroke-width:1.0;"/><line style="stroke:none;stroke-width:1.0;" x1="46" x2="93" y1="74.4883" y2="74.4883"/><line style="stroke:none;stroke-width:1.0;" x1="93" x2="93" y1="74.4883" y2="87.4883"/><line style="stroke:none;stroke-width:1.0;" x1="52" x2="93" y1="87.4883" y2="87.4883"/><polygon fill="none" points="62,83.4883,52,87.4883,62,91.4883,58,87.4883" style="stroke:none;stroke-width:1.0;"/><line style="stroke:none;stroke-width:1.0;" x1="51" x2="93" y1="126.7988" y2="126.7988"/><line style="stroke:none;stroke-width:1.0;" x1="93" x2="93" y1="126.7988" y2="139.7988"/><line style="stroke:none;stroke-width:1.0;" x1="46" x2="93" y1="139.7988" y2="139.7988"/><polygon fill="none" points="56,135.7988,46,139.7988,56,143.7988,52,139.7988" style="stroke:none;stroke-width:1.0;"/><text fill="#000000" font-family="sans-serif" font-size="13" lengthAdjust="spacing" textLength="152" x="58" y="122.0566">actor1 sub-sub-activity</text><line style="stroke:none;stroke-width:1.0;" x1="46" x2="88" y1="169.1094" y2="169.1094"/><line style="stroke:none;stroke-width:1.0;" x1="88" x2="88" y1="169.1094" y2="182.1094"/><line style="stroke:none;stroke-width:1.0;" x1="41" x2="88" y1="182.1094" y2="182.1094"/><polygon fill="none" points="51,178.1094,41,182.1094,51,186.1094,47,182.1094" style="stroke:none;stroke-width:1.0;"/><text fill="#000000" font-family="sans-serif" font-size="13" lengthAdjust="spacing" textLength="121" x="53" y="164.3672">actor1 sub-activity</text><line style="stroke:none;stroke-width:1.0;" x1="41" x2="83" y1="206.4199" y2="206.4199"/><line style="stroke:none;stroke-width:1.0;" x1="83" x2="83" y1="206.4199" y2="219.4199"/><line style="stroke:none;stroke-width:1.0;" x1="42" x2="83" y1="219.4199" y2="219.4199"/><polygon fill="none" points="52,215.4199,42,219.4199,52,223.4199,48,219.4199" style="stroke:none;stroke-width:1.0;"/><text fill="#000000" font-family="sans-serif" font-size="13" lengthAdjust="spacing" textLength="90" x="48" y="201.6777">actor1 activity</text><!--SRC=[IqmkoInBB4bLK4fCBialKZ1KKb3spyaiI-L22EX6AwU1WO51h1sIGYkkH5owNOeIayWsmJSr9RCqDpWrqRqeDJMFi35M2c2MeK9nQP8k28CDpIofv4f9nJIVHFEePHRC7000]--></g></svg>