<svg xmlns="http://www.w3.org/2000/svg" xmlns:xlink="http://www.w3.org/1999/xlink" contentStyleType="text/css" height="1006px" preserveAspectRatio="none" style="width:253px;height:1006px;background:#FFFFFF;" version="1.1" viewBox="0 0 253 1006" width="253px" zoomAndPan="magnify"><defs/><g><line style="stroke:#181818;stroke-width:0.5;stroke-dasharray:5.0,5.0;" x1="91.3809" x2="91.3809" y1="36.4883" y2="969.5313"/><line style="stroke:#181818;stroke-width:0.5;stroke-dasharray:5.0,5.0;" x1="146.1924" x2="146.1924" y1="36.4883" y2="969.5313"/><rect fill="#E2E2F0" height="30.4883" rx="2.5" ry="2.5" style="stroke:#181818;stroke-width:0.5;" width="39.4639" x="71.6489" y="5"/><text fill="#000000" font-family="sans-serif" font-size="14" lengthAdjust="spacing" textLength="25.4639" x="78.6489" y="25.5352">Bob</text><rect fill="#E2E2F0" height="30.4883" rx="2.5" ry="2.5" style="stroke:#181818;stroke-width:0.5;" width="46.7236" x="122.8306" y="5"/><text fill="#000000" font-family="sans-serif" font-size="14" lengthAdjust="spacing" textLength="32.7236" x="129.8306" y="25.5352">Alice</text><rect fill="#E2E2F0" height="30.4883" rx="2.5" ry="2.5" style="stroke:#181818;stroke-width:0.5;" width="39.4639" x="71.6489" y="969.5313"/><text fill="#000000" font-family="sans-serif" font-size="14" lengthAdjust="spacing" textLength="25.4639" x="78.6489" y="990.0664">Bob</text><rect fill="#E2E2F0" height="30.4883" rx="2.5" ry="2.5" style="stroke:#181818;stroke-width:0.5;" width="46.7236" x="122.8306" y="969.5313"/><text fill="#000000" font-family="sans-serif" font-size="14" lengthAdjust="spacing" textLength="32.7236" x="129.8306" y="990.0664">Alice</text><polygon fill="#181818" points="134.1924,61.7988,144.1924,65.7988,134.1924,69.7988,138.1924,65.7988" style="stroke:#181818;stroke-width:1.0;"/><line style="stroke:#181818;stroke-width:1.0;" x1="91.3809" x2="140.1924" y1="65.7988" y2="65.7988"/><text fill="#000000" font-family="sans-serif" font-size="13" lengthAdjust="spacing" textLength="30.8115" x="98.3809" y="61.0566">hello</text><rect fill="#FEFFDD" height="38" style="stroke:#181818;stroke-width:0.5;" width="69" x="151.1924" y="49.4883"/><text fill="#000000" font-family="sans-serif" font-size="13" lengthAdjust="spacing" textLength="33.4775" x="155.1924" y="66.0566">rnote</text><text fill="#000000" font-family="sans-serif" font-size="13" lengthAdjust="spacing" textLength="57.7383" x="159.3057" y="81.3672">just right</text><rect fill="#FEFFDD" height="38" style="stroke:#181818;stroke-width:0.5;" width="60" x="26" y="49.4883"/><text fill="#000000" font-family="sans-serif" font-size="13" lengthAdjust="spacing" textLength="33.4775" x="30" y="66.0566">rnote</text><text fill="#000000" font-family="sans-serif" font-size="13" lengthAdjust="spacing" textLength="48.2676" x="34.1133" y="81.3672">just left</text><polygon fill="#181818" points="102.3809,110.4199,92.3809,114.4199,102.3809,118.4199,98.3809,114.4199" style="stroke:#181818;stroke-width:1.0;"/><line style="stroke:#181818;stroke-width:1.0;" x1="96.3809" x2="145.1924" y1="114.4199" y2="114.4199"/><text fill="#000000" font-family="sans-serif" font-size="13" lengthAdjust="spacing" textLength="30.8115" x="108.3809" y="109.6777">hello</text><polygon fill="#FEFFDD" points="161.1924,98.1094,226.1924,98.1094,236.1924,117.1094,226.1924,136.1094,161.1924,136.1094,151.1924,117.1094,161.1924,98.1094" style="stroke:#181818;stroke-width:0.5;"/><text fill="#000000" font-family="sans-serif" font-size="13" lengthAdjust="spacing" textLength="36.2261" x="163.1924" y="114.6777">hnote</text><text fill="#000000" font-family="sans-serif" font-size="13" lengthAdjust="spacing" textLength="57.7383" x="167.3057" y="129.9883">just right</text><polygon fill="#FEFFDD" points="20,98.1094,76,98.1094,86,117.1094,76,136.1094,20,136.1094,10,117.1094,20,98.1094" style="stroke:#181818;stroke-width:0.5;"/><text fill="#000000" font-family="sans-serif" font-size="13" lengthAdjust="spacing" textLength="36.2261" x="22" y="114.6777">hnote</text><text fill="#000000" font-family="sans-serif" font-size="13" lengthAdjust="spacing" textLength="48.2676" x="26.1133" y="129.9883">just left</text><polygon fill="#FEFFDD" points="126.0793,146.7305,166.0793,146.7305,176.0793,172.7305,166.0793,199.7305,126.0793,199.7305,116.0793,172.7305,126.0793,146.7305" style="stroke:#181818;stroke-width:0.5;"/><text fill="#000000" font-family="sans-serif" font-size="13" lengthAdjust="spacing" textLength="36.2261" x="128.0793" y="163.2988">hnote</text><text fill="#000000" font-family="sans-serif" font-size="13" lengthAdjust="spacing" textLength="27.2759" x="132.1926" y="178.6094">over</text><text fill="#000000" font-family="sans-serif" font-size="13" lengthAdjust="spacing" textLength="30.3862" x="132.1926" y="193.9199">Alice</text><polygon fill="#FEFFDD" points="90.9663,210.6621,130.9663,210.6621,140.9663,236.6621,130.9663,263.6621,90.9663,263.6621,80.9663,236.6621,90.9663,210.6621" style="stroke:#181818;stroke-width:0.5;"/><text fill="#000000" font-family="sans-serif" font-size="13" lengthAdjust="spacing" textLength="36.2261" x="92.9663" y="227.2305">hnote</text><text fill="#000000" font-family="sans-serif" font-size="13" lengthAdjust="spacing" textLength="20.6426" x="97.0796" y="242.541">left</text><text fill="#000000" font-family="sans-serif" font-size="13" lengthAdjust="spacing" textLength="30.3862" x="97.0796" y="257.8516">Alice</text><polygon fill="#FEFFDD" points="161.1924,274.5938,203.1924,274.5938,213.1924,300.5938,203.1924,327.5938,161.1924,327.5938,151.1924,300.5938,161.1924,274.5938" style="stroke:#181818;stroke-width:0.5;"/><text fill="#000000" font-family="sans-serif" font-size="13" lengthAdjust="spacing" textLength="36.2261" x="163.1924" y="291.1621">hnote</text><text fill="#000000" font-family="sans-serif" font-size="13" lengthAdjust="spacing" textLength="30.1133" x="167.3057" y="306.4727">right</text><text fill="#000000" font-family="sans-serif" font-size="13" lengthAdjust="spacing" textLength="30.3862" x="167.3057" y="321.7832">Alice</text><rect fill="#FEFFDD" height="53" style="stroke:#181818;stroke-width:0.5;" width="43" x="124.4412" y="338.5254"/><text fill="#000000" font-family="sans-serif" font-size="13" lengthAdjust="spacing" textLength="33.4775" x="128.4412" y="355.0938">rnote</text><text fill="#000000" font-family="sans-serif" font-size="13" lengthAdjust="spacing" textLength="27.2759" x="132.5544" y="370.4043">over</text><text fill="#000000" font-family="sans-serif" font-size="13" lengthAdjust="spacing" textLength="30.3862" x="132.5544" y="385.7148">Alice</text><rect fill="#FEFFDD" height="53" style="stroke:#181818;stroke-width:0.5;" width="42" x="98.6929" y="402.457"/><text fill="#000000" font-family="sans-serif" font-size="13" lengthAdjust="spacing" textLength="33.4775" x="102.6929" y="419.0254">rnote</text><text fill="#000000" font-family="sans-serif" font-size="13" lengthAdjust="spacing" textLength="20.6426" x="106.8062" y="434.3359">left</text><text fill="#000000" font-family="sans-serif" font-size="13" lengthAdjust="spacing" textLength="30.3862" x="106.8062" y="449.6465">Alice</text><rect fill="#FEFFDD" height="53" style="stroke:#181818;stroke-width:0.5;" width="46" x="151.1924" y="466.3887"/><text fill="#000000" font-family="sans-serif" font-size="13" lengthAdjust="spacing" textLength="33.4775" x="155.1924" y="482.957">rnote</text><text fill="#000000" font-family="sans-serif" font-size="13" lengthAdjust="spacing" textLength="30.1133" x="159.3057" y="498.2676">right</text><text fill="#000000" font-family="sans-serif" font-size="13" lengthAdjust="spacing" textLength="30.3862" x="159.3057" y="513.5781">Alice</text><polygon fill="#FEFFDD" points="71.2678,530.3203,111.2678,530.3203,121.2678,556.3203,111.2678,583.3203,71.2678,583.3203,61.2678,556.3203,71.2678,530.3203" style="stroke:#181818;stroke-width:0.5;"/><text fill="#000000" font-family="sans-serif" font-size="13" lengthAdjust="spacing" textLength="36.2261" x="73.2678" y="546.8887">hnote</text><text fill="#000000" font-family="sans-serif" font-size="13" lengthAdjust="spacing" textLength="27.2759" x="77.3811" y="562.1992">over</text><text fill="#000000" font-family="sans-serif" font-size="13" lengthAdjust="spacing" textLength="23.645" x="77.3811" y="577.5098">Bob</text><polygon fill="#FEFFDD" points="36.1548,594.252,76.1548,594.252,86.1548,620.252,76.1548,647.252,36.1548,647.252,26.1548,620.252,36.1548,594.252" style="stroke:#181818;stroke-width:0.5;"/><text fill="#000000" font-family="sans-serif" font-size="13" lengthAdjust="spacing" textLength="36.2261" x="38.1548" y="610.8203">hnote</text><text fill="#000000" font-family="sans-serif" font-size="13" lengthAdjust="spacing" textLength="20.6426" x="42.2681" y="626.1309">left</text><text fill="#000000" font-family="sans-serif" font-size="13" lengthAdjust="spacing" textLength="23.645" x="42.2681" y="641.4414">Bob</text><polygon fill="#FEFFDD" points="106.3809,658.1836,148.3809,658.1836,158.3809,684.1836,148.3809,711.1836,106.3809,711.1836,96.3809,684.1836,106.3809,658.1836" style="stroke:#181818;stroke-width:0.5;"/><text fill="#000000" font-family="sans-serif" font-size="13" lengthAdjust="spacing" textLength="36.2261" x="108.3809" y="674.752">hnote</text><text fill="#000000" font-family="sans-serif" font-size="13" lengthAdjust="spacing" textLength="30.1133" x="112.4941" y="690.0625">right</text><text fill="#000000" font-family="sans-serif" font-size="13" lengthAdjust="spacing" textLength="23.645" x="112.4941" y="705.373">Bob</text><rect fill="#FEFFDD" height="53" style="stroke:#181818;stroke-width:0.5;" width="43" x="69.6296" y="722.1152"/><text fill="#000000" font-family="sans-serif" font-size="13" lengthAdjust="spacing" textLength="33.4775" x="73.6296" y="738.6836">rnote</text><text fill="#000000" font-family="sans-serif" font-size="13" lengthAdjust="spacing" textLength="27.2759" x="77.7429" y="753.9941">over</text><text fill="#000000" font-family="sans-serif" font-size="13" lengthAdjust="spacing" textLength="23.645" x="77.7429" y="769.3047">Bob</text><rect fill="#FEFFDD" height="53" style="stroke:#181818;stroke-width:0.5;" width="41" x="44.9033" y="786.0469"/><text fill="#000000" font-family="sans-serif" font-size="13" lengthAdjust="spacing" textLength="33.4775" x="48.9033" y="802.6152">rnote</text><text fill="#000000" font-family="sans-serif" font-size="13" lengthAdjust="spacing" textLength="20.6426" x="53.0166" y="817.9258">left</text><text fill="#000000" font-family="sans-serif" font-size="13" lengthAdjust="spacing" textLength="23.645" x="53.0166" y="833.2363">Bob</text><rect fill="#FEFFDD" height="53" style="stroke:#181818;stroke-width:0.5;" width="46" x="96.3809" y="849.9785"/><text fill="#000000" font-family="sans-serif" font-size="13" lengthAdjust="spacing" textLength="33.4775" x="100.3809" y="866.5469">rnote</text><text fill="#000000" font-family="sans-serif" font-size="13" lengthAdjust="spacing" textLength="30.1133" x="104.4941" y="881.8574">right</text><text fill="#000000" font-family="sans-serif" font-size="13" lengthAdjust="spacing" textLength="23.645" x="104.4941" y="897.168">Bob</text><polygon fill="#181818" points="134.1924,926.2207,144.1924,930.2207,134.1924,934.2207,138.1924,930.2207" style="stroke:#181818;stroke-width:1.0;"/><line style="stroke:#181818;stroke-width:1.0;" x1="91.3809" x2="140.1924" y1="930.2207" y2="930.2207"/><text fill="#000000" font-family="sans-serif" font-size="13" lengthAdjust="spacing" textLength="30.8115" x="98.3809" y="925.4785">hello</text><path d="M151.1924,913.9102 L151.1924,953.9102 L233.1924,953.9102 L233.1924,923.9102 L223.1924,913.9102 L151.1924,913.9102 " fill="#FEFFDD" style="stroke:#181818;stroke-width:0.5;"/><path d="M223.1924,913.9102 L223.1924,923.9102 L233.1924,923.9102 L223.1924,913.9102 " fill="#FEFFDD" style="stroke:#181818;stroke-width:0.5;"/><text fill="#000000" font-family="sans-serif" font-size="13" lengthAdjust="spacing" textLength="28.1582" x="157.1924" y="931.4785">note</text><text fill="#000000" font-family="sans-serif" font-size="13" lengthAdjust="spacing" textLength="57.7383" x="161.3057" y="946.7891">just right</text><path d="M13,913.9102 L13,953.9102 L86,953.9102 L86,923.9102 L76,913.9102 L13,913.9102 " fill="#FEFFDD" style="stroke:#181818;stroke-width:0.5;"/><path d="M76,913.9102 L76,923.9102 L86,923.9102 L76,913.9102 " fill="#FEFFDD" style="stroke:#181818;stroke-width:0.5;"/><text fill="#000000" font-family="sans-serif" font-size="13" lengthAdjust="spacing" textLength="28.1582" x="19" y="931.4785">note</text><text fill="#000000" font-family="sans-serif" font-size="13" lengthAdjust="spacing" textLength="48.2676" x="23.1133" y="946.7891">just left</text><!--SRC=[RP913e9034NtdA8UW0iGOwBdS8EcCfYHCT_HXQSNPW1BEol2xyzxwQIx9zhkqLBayAM8DrVLALoeFj3HzrUcXXnx7oeC8JAXxrniAFsS1xg_Np5dyzppJO-dA3FtTMOkI2UHpYATG3gBpEFmOQpOkPIoyPjYWT6zbAbUKkjY3jScZ1b5CumPHJEi6MMpN7fyKhlo6Cg5Dvr5-kza-gQq2gSMb0q56vGD1Hkq3ILR-V3aaTWR4IUYB-G7]--></g></svg>