<svg xmlns="http://www.w3.org/2000/svg" xmlns:xlink="http://www.w3.org/1999/xlink" contentStyleType="text/css" height="546px" preserveAspectRatio="none" style="width:232px;height:546px;background:#FFFFFF;" version="1.1" viewBox="0 0 232 546" width="232px" zoomAndPan="magnify"><defs/><g><line style="stroke:#181818;stroke-width:0.5;stroke-dasharray:5.0,5.0;" x1="34.8296" x2="34.8296" y1="36.4883" y2="510.2148"/><line style="stroke:#181818;stroke-width:0.5;stroke-dasharray:5.0,5.0;" x1="103.6855" x2="103.6855" y1="36.4883" y2="510.2148"/><line style="stroke:#181818;stroke-width:0.5;stroke-dasharray:5.0,5.0;" x1="172.5552" x2="172.5552" y1="36.4883" y2="510.2148"/><rect fill="#E2E2F0" height="30.4883" rx="2.5" ry="2.5" style="stroke:#181818;stroke-width:0.5;" width="23.6592" x="23" y="5"/><text fill="#000000" font-family="sans-serif" font-size="14" lengthAdjust="spacing" textLength="9.6592" x="30" y="25.5352">A</text><rect fill="#E2E2F0" height="30.4883" rx="2.5" ry="2.5" style="stroke:#181818;stroke-width:0.5;" width="22.0527" x="92.6592" y="5"/><text fill="#000000" font-family="sans-serif" font-size="14" lengthAdjust="spacing" textLength="8.0527" x="99.6592" y="25.5352">B</text><rect fill="#E2E2F0" height="30.4883" rx="2.5" ry="2.5" style="stroke:#181818;stroke-width:0.5;" width="23.6865" x="160.7119" y="5"/><text fill="#000000" font-family="sans-serif" font-size="14" lengthAdjust="spacing" textLength="9.6865" x="167.7119" y="25.5352">C</text><rect fill="#E2E2F0" height="30.4883" rx="2.5" ry="2.5" style="stroke:#181818;stroke-width:0.5;" width="23.6592" x="23" y="510.2148"/><text fill="#000000" font-family="sans-serif" font-size="14" lengthAdjust="spacing" textLength="9.6592" x="30" y="530.75">A</text><rect fill="#E2E2F0" height="30.4883" rx="2.5" ry="2.5" style="stroke:#181818;stroke-width:0.5;" width="22.0527" x="92.6592" y="510.2148"/><text fill="#000000" font-family="sans-serif" font-size="14" lengthAdjust="spacing" textLength="8.0527" x="99.6592" y="530.75">B</text><rect fill="#E2E2F0" height="30.4883" rx="2.5" ry="2.5" style="stroke:#181818;stroke-width:0.5;" width="23.6865" x="160.7119" y="510.2148"/><text fill="#000000" font-family="sans-serif" font-size="14" lengthAdjust="spacing" textLength="9.6865" x="167.7119" y="530.75">C</text><polygon fill="#181818" points="91.6855,46.4883,101.6855,50.4883,91.6855,54.4883,95.6855,50.4883" style="stroke:#181818;stroke-width:1.0;"/><line style="stroke:#181818;stroke-width:1.0;" x1="34.8296" x2="97.6855" y1="50.4883" y2="50.4883"/><polygon fill="#181818" points="160.5552,46.4883,170.5552,50.4883,160.5552,54.4883,164.5552,50.4883" style="stroke:#181818;stroke-width:1.0;"/><line style="stroke:#181818;stroke-width:1.0;" x1="103.6855" x2="166.5552" y1="50.4883" y2="50.4883"/><rect fill="#EEEEEE" height="3" style="stroke:#EEEEEE;stroke-width:1.0;" width="220.7041" x="5" y="79.1436"/><line style="stroke:#000000;stroke-width:1.0;" x1="5" x2="225.7041" y1="79.1436" y2="79.1436"/><line style="stroke:#000000;stroke-width:1.0;" x1="5" x2="225.7041" y1="82.1436" y2="82.1436"/><rect fill="#EEEEEE" height="23.3105" style="stroke:#000000;stroke-width:2.0;" width="104.27" x="63.217" y="68.4883"/><text fill="#000000" font-family="sans-serif" font-size="13" font-weight="bold" lengthAdjust="spacing" textLength="85.9854" x="69.217" y="85.0566">short arrows</text><path d="M37.5332,105.7988 L104.7183,105.7988 L104.7183,113.1094 L94.7183,123.1094 L37.5332,123.1094 L37.5332,105.7988 " fill="none" style="stroke:#000000;stroke-width:1.5;"/><rect fill="none" height="56.6211" style="stroke:#000000;stroke-width:1.5;" width="132.3047" x="37.5332" y="105.7988"/><text fill="#000000" font-family="sans-serif" font-size="13" font-weight="bold" lengthAdjust="spacing" textLength="22.1851" x="52.5332" y="119.3672">opt</text><ellipse cx="59.0332" cy="153.6699" fill="none" rx="4" ry="4" style="stroke:#181818;stroke-width:1.5;"/><polygon fill="#181818" points="91.6855,150.4199,101.6855,154.4199,91.6855,158.4199,95.6855,154.4199" style="stroke:#181818;stroke-width:1.0;"/><line style="stroke:#181818;stroke-width:1.0;" x1="63.5332" x2="97.6855" y1="154.4199" y2="154.4199"/><text fill="#000000" font-family="sans-serif" font-size="13" lengthAdjust="spacing" textLength="26.1523" x="66.5332" y="149.6777">four</text><polygon fill="#181818" points="114.6855,150.4199,104.6855,154.4199,114.6855,158.4199,110.6855,154.4199" style="stroke:#181818;stroke-width:1.0;"/><ellipse cx="147.3379" cy="153.6699" fill="none" rx="4" ry="4" style="stroke:#181818;stroke-width:1.5;"/><line style="stroke:#181818;stroke-width:1.0;" x1="108.6855" x2="142.8379" y1="154.4199" y2="154.4199"/><text fill="#000000" font-family="sans-serif" font-size="13" lengthAdjust="spacing" textLength="26.1523" x="120.6855" y="149.6777">four</text><ellipse cx="59.0332" cy="196.9805" fill="none" rx="4" ry="4" style="stroke:#181818;stroke-width:1.5;"/><polygon fill="#181818" points="91.6855,193.7305,101.6855,197.7305,91.6855,201.7305,95.6855,197.7305" style="stroke:#181818;stroke-width:1.0;"/><line style="stroke:#181818;stroke-width:1.0;" x1="63.5332" x2="97.6855" y1="197.7305" y2="197.7305"/><text fill="#000000" font-family="sans-serif" font-size="13" lengthAdjust="spacing" textLength="26.1523" x="66.5332" y="192.9883">four</text><polygon fill="#181818" points="114.6855,193.7305,104.6855,197.7305,114.6855,201.7305,110.6855,197.7305" style="stroke:#181818;stroke-width:1.0;"/><ellipse cx="147.3379" cy="196.9805" fill="none" rx="4" ry="4" style="stroke:#181818;stroke-width:1.5;"/><line style="stroke:#181818;stroke-width:1.0;" x1="108.6855" x2="142.8379" y1="197.7305" y2="197.7305"/><text fill="#000000" font-family="sans-serif" font-size="13" lengthAdjust="spacing" textLength="26.1523" x="120.6855" y="192.9883">four</text><rect fill="#EEEEEE" height="3" style="stroke:#EEEEEE;stroke-width:1.0;" width="220.7041" x="5" y="226.3857"/><line style="stroke:#000000;stroke-width:1.0;" x1="5" x2="225.7041" y1="226.3857" y2="226.3857"/><line style="stroke:#000000;stroke-width:1.0;" x1="5" x2="225.7041" y1="229.3857" y2="229.3857"/><rect fill="#EEEEEE" height="23.3105" style="stroke:#000000;stroke-width:2.0;" width="120.7612" x="54.9714" y="215.7305"/><text fill="#000000" font-family="sans-serif" font-size="13" font-weight="bold" lengthAdjust="spacing" textLength="102.4766" x="60.9714" y="232.2988">left edge arrow</text><path d="M63.6855,253.041 L130.8706,253.041 L130.8706,260.3516 L120.8706,270.3516 L63.6855,270.3516 L63.6855,253.041 " fill="none" style="stroke:#000000;stroke-width:1.5;"/><rect fill="none" height="56.6211" style="stroke:#000000;stroke-width:1.5;" width="153.0186" x="63.6855" y="253.041"/><text fill="#000000" font-family="sans-serif" font-size="13" font-weight="bold" lengthAdjust="spacing" textLength="22.1851" x="78.6855" y="266.6094">opt</text><text fill="#000000" font-family="sans-serif" font-size="11" font-weight="bold" lengthAdjust="spacing" textLength="54.8335" x="145.8706" y="265.6758">[expand?]</text><ellipse cx="10.5" cy="300.9121" fill="none" rx="4" ry="4" style="stroke:#181818;stroke-width:1.5;"/><polygon fill="#181818" points="91.6855,297.6621,101.6855,301.6621,91.6855,305.6621,95.6855,301.6621" style="stroke:#181818;stroke-width:1.0;"/><line style="stroke:#181818;stroke-width:1.0;" x1="15" x2="97.6855" y1="301.6621" y2="301.6621"/><polygon fill="#181818" points="114.6855,297.6621,104.6855,301.6621,114.6855,305.6621,110.6855,301.6621" style="stroke:#181818;stroke-width:1.0;"/><ellipse cx="172.0552" cy="300.9121" fill="none" rx="4" ry="4" style="stroke:#181818;stroke-width:1.5;"/><line style="stroke:#181818;stroke-width:1.0;" x1="108.6855" x2="167.5552" y1="301.6621" y2="301.6621"/><text fill="#000000" font-family="sans-serif" font-size="13" lengthAdjust="spacing" textLength="26.1523" x="120.6855" y="296.9199">four</text><ellipse cx="10.5" cy="344.2227" fill="none" rx="4" ry="4" style="stroke:#181818;stroke-width:1.5;"/><polygon fill="#181818" points="91.6855,340.9727,101.6855,344.9727,91.6855,348.9727,95.6855,344.9727" style="stroke:#181818;stroke-width:1.0;"/><line style="stroke:#181818;stroke-width:1.0;" x1="15" x2="97.6855" y1="344.9727" y2="344.9727"/><polygon fill="#181818" points="114.6855,340.9727,104.6855,344.9727,114.6855,348.9727,110.6855,344.9727" style="stroke:#181818;stroke-width:1.0;"/><ellipse cx="172.0552" cy="344.2227" fill="none" rx="4" ry="4" style="stroke:#181818;stroke-width:1.5;"/><line style="stroke:#181818;stroke-width:1.0;" x1="108.6855" x2="167.5552" y1="344.9727" y2="344.9727"/><text fill="#000000" font-family="sans-serif" font-size="13" lengthAdjust="spacing" textLength="26.1523" x="120.6855" y="340.2305">four</text><rect fill="#EEEEEE" height="3" style="stroke:#EEEEEE;stroke-width:1.0;" width="220.7041" x="5" y="373.6279"/><line style="stroke:#000000;stroke-width:1.0;" x1="5" x2="225.7041" y1="373.6279" y2="373.6279"/><line style="stroke:#000000;stroke-width:1.0;" x1="5" x2="225.7041" y1="376.6279" y2="376.6279"/><rect fill="#EEEEEE" height="23.3105" style="stroke:#000000;stroke-width:2.0;" width="126.4932" x="52.1055" y="362.9727"/><text fill="#000000" font-family="sans-serif" font-size="13" font-weight="bold" lengthAdjust="spacing" textLength="112.4932" x="58.1055" y="379.541">right edge arrow</text><path d="M18.8296,400.2832 L86.0146,400.2832 L86.0146,407.5938 L76.0146,417.5938 L18.8296,417.5938 L18.8296,400.2832 " fill="none" style="stroke:#000000;stroke-width:1.5;"/><rect fill="none" height="56.6211" style="stroke:#000000;stroke-width:1.5;" width="124.856" x="18.8296" y="400.2832"/><text fill="#000000" font-family="sans-serif" font-size="13" font-weight="bold" lengthAdjust="spacing" textLength="22.1851" x="33.8296" y="413.8516">opt</text><ellipse cx="34.3296" cy="448.1543" fill="none" rx="4" ry="4" style="stroke:#181818;stroke-width:1.5;"/><polygon fill="#181818" points="91.6855,444.9043,101.6855,448.9043,91.6855,452.9043,95.6855,448.9043" style="stroke:#181818;stroke-width:1.0;"/><line style="stroke:#181818;stroke-width:1.0;" x1="38.8296" x2="97.6855" y1="448.9043" y2="448.9043"/><text fill="#000000" font-family="sans-serif" font-size="13" lengthAdjust="spacing" textLength="26.1523" x="41.8296" y="444.1621">four</text><polygon fill="#181818" points="114.6855,444.9043,104.6855,448.9043,114.6855,452.9043,110.6855,448.9043" style="stroke:#181818;stroke-width:1.0;"/><ellipse cx="219.2041" cy="448.1543" fill="none" rx="4" ry="4" style="stroke:#181818;stroke-width:1.5;"/><line style="stroke:#181818;stroke-width:1.0;" x1="108.6855" x2="214.7041" y1="448.9043" y2="448.9043"/><ellipse cx="34.3296" cy="491.4648" fill="none" rx="4" ry="4" style="stroke:#181818;stroke-width:1.5;"/><polygon fill="#181818" points="91.6855,488.2148,101.6855,492.2148,91.6855,496.2148,95.6855,492.2148" style="stroke:#181818;stroke-width:1.0;"/><line style="stroke:#181818;stroke-width:1.0;" x1="38.8296" x2="97.6855" y1="492.2148" y2="492.2148"/><text fill="#000000" font-family="sans-serif" font-size="13" lengthAdjust="spacing" textLength="26.1523" x="41.8296" y="487.4727">four</text><polygon fill="#181818" points="114.6855,488.2148,104.6855,492.2148,114.6855,496.2148,110.6855,492.2148" style="stroke:#181818;stroke-width:1.0;"/><ellipse cx="219.2041" cy="491.4648" fill="none" rx="4" ry="4" style="stroke:#181818;stroke-width:1.5;"/><line style="stroke:#181818;stroke-width:1.0;" x1="108.6855" x2="214.7041" y1="492.2148" y2="492.2148"/><!--SRC=[XO-n3e9044Jx-uen9dOKTiQ8HFW1UcEnyGwuA7UNPOd6h_V0Q2WWThlPdNapgy1KjmGn_WNXtgZkPbqWfXObiTYh3UIa9Asjgx7TAU24v8XSRP0FGw7I55tZMK3C_j4XJPKFiXOcrqKduqHbVf1WZyhtF2eFYS- -kt7wpqT4t4qbCBes7ymC1UOPi-fCdVqlO3H1CUKitIA1RTrC4JCzXl9pGI-Zz-Br3G00]--></g></svg>