<svg xmlns="http://www.w3.org/2000/svg" xmlns:xlink="http://www.w3.org/1999/xlink" contentStyleType="text/css" height="248px" preserveAspectRatio="none" style="width:268px;height:248px;background:#FFFFFF;" version="1.1" viewBox="0 0 268 248" width="268px" zoomAndPan="magnify"><defs/><g><line style="stroke:#181818;stroke-width:0.5;stroke-dasharray:5.0,5.0;" x1="16.5" x2="16.5" y1="36.4883" y2="197.7305"/><line style="stroke:#181818;stroke-width:0.5;stroke-dasharray:5.0,5.0;" x1="72.5" x2="72.5" y1="36.4883" y2="197.7305"/><rect fill="#FFFFFF" height="113.9316" style="stroke:#181818;stroke-width:1.0;" width="10" x="67.5" y="65.7988"/><rect fill="#FFFFFF" height="55.3105" style="stroke:#181818;stroke-width:1.0;" width="10" x="72.5" y="108.1094"/><rect fill="#FFFFFF" height="13" style="stroke:#181818;stroke-width:1.0;" width="10" x="77.5" y="150.4199"/><rect fill="#E2E2F0" height="30.4883" rx="2.5" ry="2.5" style="stroke:#181818;stroke-width:0.5;" width="23" x="5" y="5"/><text fill="#000000" font-family="sans-serif" font-size="14" lengthAdjust="spacing" textLength="9" x="12" y="25.5352">1</text><rect fill="#E2E2F0" height="30.4883" rx="2.5" ry="2.5" style="stroke:#181818;stroke-width:0.5;" width="23" x="61" y="5"/><text fill="#000000" font-family="sans-serif" font-size="14" lengthAdjust="spacing" textLength="9" x="68" y="25.5352">5</text><rect fill="#E2E2F0" height="30.4883" rx="2.5" ry="2.5" style="stroke:#181818;stroke-width:0.5;" width="23" x="5" y="197.7305"/><text fill="#000000" font-family="sans-serif" font-size="14" lengthAdjust="spacing" textLength="9" x="12" y="218.2656">1</text><rect fill="#E2E2F0" height="30.4883" rx="2.5" ry="2.5" style="stroke:#181818;stroke-width:0.5;" width="23" x="61" y="197.7305"/><text fill="#000000" font-family="sans-serif" font-size="14" lengthAdjust="spacing" textLength="9" x="68" y="218.2656">5</text><polygon fill="#181818" points="55.5,61.7988,65.5,65.7988,55.5,69.7988,59.5,65.7988" style="stroke:#181818;stroke-width:1.0;"/><line style="stroke:#181818;stroke-width:1.0;" x1="16.5" x2="61.5" y1="65.7988" y2="65.7988"/><text fill="#000000" font-family="sans-serif" font-size="13" lengthAdjust="spacing" textLength="14" x="23.5" y="61.0566">Hi</text><line style="stroke:#181818;stroke-width:1.0;" x1="77.5" x2="124.5" y1="95.1094" y2="95.1094"/><line style="stroke:#181818;stroke-width:1.0;" x1="124.5" x2="124.5" y1="95.1094" y2="108.1094"/><line style="stroke:#181818;stroke-width:1.0;" x1="83.5" x2="124.5" y1="108.1094" y2="108.1094"/><polygon fill="#181818" points="93.5,104.1094,83.5,108.1094,93.5,112.1094,89.5,108.1094" style="stroke:#181818;stroke-width:1.0;"/><text fill="#000000" font-family="sans-serif" font-size="13" lengthAdjust="spacing" textLength="136" x="89.5" y="90.3672">general func activity1</text><line style="stroke:#181818;stroke-width:1.0;" x1="82.5" x2="129.5" y1="137.4199" y2="137.4199"/><line style="stroke:#181818;stroke-width:1.0;" x1="129.5" x2="129.5" y1="137.4199" y2="150.4199"/><line style="stroke:#181818;stroke-width:1.0;" x1="88.5" x2="129.5" y1="150.4199" y2="150.4199"/><polygon fill="#181818" points="98.5,146.4199,88.5,150.4199,98.5,154.4199,94.5,150.4199" style="stroke:#181818;stroke-width:1.0;"/><text fill="#000000" font-family="sans-serif" font-size="13" lengthAdjust="spacing" textLength="167" x="94.5" y="132.6777">general func sub-activity1</text><polygon fill="#181818" points="27.5,175.7305,17.5,179.7305,27.5,183.7305,23.5,179.7305" style="stroke:#181818;stroke-width:1.0;"/><line style="stroke:#181818;stroke-width:1.0;" x1="21.5" x2="66.5" y1="179.7305" y2="179.7305"/><text fill="#000000" font-family="sans-serif" font-size="13" lengthAdjust="spacing" textLength="27" x="33.5" y="174.9883">Test</text><text fill="#888888" font-family="sans-serif" font-size="10" lengthAdjust="spacing" textLength="70" x="101.25" y="238.8867">1.2024.6beta1</text><!--SRC=[KomeIapFJLGeISslKYWfAatbIilFBqajKb0jIoqgpipFqz3auZ9KqBLJC5MmKl38v4fCBiaiIon9LJ3bCWKBMocaf-Qb5YNcAAILvYKhWEKpIoeDCLKge2ajBatInQey9HKN1soG8T2WaDJY4bGf0000]--></g></svg>