<svg xmlns="http://www.w3.org/2000/svg" xmlns:xlink="http://www.w3.org/1999/xlink" contentStyleType="text/css" height="263px" preserveAspectRatio="none" style="width:330px;height:263px;background:#FFFFFF;" version="1.1" viewBox="0 0 330 263" width="330px" zoomAndPan="magnify"><defs/><g><line style="stroke:#181818;stroke-width:0.5;stroke-dasharray:5.0,5.0;" x1="37.4775" x2="37.4775" y1="36.4883" y2="227.041"/><line style="stroke:#181818;stroke-width:0.5;stroke-dasharray:5.0,5.0;" x1="122.8511" x2="122.8511" y1="36.4883" y2="227.041"/><rect fill="#FFFFFF" height="71.6211" style="stroke:#181818;stroke-width:1.0;" width="10" x="117.8511" y="65.7988"/><line style="stroke:#181818;stroke-width:0.5;stroke-dasharray:5.0,5.0;" x1="227.6421" x2="227.6421" y1="36.4883" y2="227.041"/><rect fill="#FFFFFF" height="71.6211" style="stroke:#181818;stroke-width:1.0;" width="10" x="222.6421" y="137.4199"/><line style="stroke:#181818;stroke-width:0.5;stroke-dasharray:5.0,5.0;" x1="312.8589" x2="312.8589" y1="36.4883" y2="227.041"/><rect fill="#E2E2F0" height="30.4883" rx="2.5" ry="2.5" style="stroke:#181818;stroke-width:0.5;" width="64.9551" x="5" y="5"/><text fill="#000000" font-family="sans-serif" font-size="14" lengthAdjust="spacing" textLength="50.9551" x="12" y="25.5352">dummy</text><rect fill="#E2E2F0" height="30.4883" rx="2.5" ry="2.5" style="stroke:#181818;stroke-width:0.5;" width="23.6592" x="111.0215" y="5"/><text fill="#000000" font-family="sans-serif" font-size="14" lengthAdjust="spacing" textLength="9.6592" x="118.0215" y="25.5352">A</text><rect fill="#E2E2F0" height="30.4883" rx="2.5" ry="2.5" style="stroke:#181818;stroke-width:0.5;" width="22.0527" x="216.6157" y="5"/><text fill="#000000" font-family="sans-serif" font-size="14" lengthAdjust="spacing" textLength="8.0527" x="223.6157" y="25.5352">B</text><rect fill="#E2E2F0" height="30.4883" rx="2.5" ry="2.5" style="stroke:#181818;stroke-width:0.5;" width="23.6865" x="301.0156" y="5"/><text fill="#000000" font-family="sans-serif" font-size="14" lengthAdjust="spacing" textLength="9.6865" x="308.0156" y="25.5352">C</text><rect fill="#E2E2F0" height="30.4883" rx="2.5" ry="2.5" style="stroke:#181818;stroke-width:0.5;" width="64.9551" x="5" y="227.041"/><text fill="#000000" font-family="sans-serif" font-size="14" lengthAdjust="spacing" textLength="50.9551" x="12" y="247.5762">dummy</text><rect fill="#E2E2F0" height="30.4883" rx="2.5" ry="2.5" style="stroke:#181818;stroke-width:0.5;" width="23.6592" x="111.0215" y="227.041"/><text fill="#000000" font-family="sans-serif" font-size="14" lengthAdjust="spacing" textLength="9.6592" x="118.0215" y="247.5762">A</text><rect fill="#E2E2F0" height="30.4883" rx="2.5" ry="2.5" style="stroke:#181818;stroke-width:0.5;" width="22.0527" x="216.6157" y="227.041"/><text fill="#000000" font-family="sans-serif" font-size="14" lengthAdjust="spacing" textLength="8.0527" x="223.6157" y="247.5762">B</text><rect fill="#E2E2F0" height="30.4883" rx="2.5" ry="2.5" style="stroke:#181818;stroke-width:0.5;" width="23.6865" x="301.0156" y="227.041"/><text fill="#000000" font-family="sans-serif" font-size="14" lengthAdjust="spacing" textLength="9.6865" x="308.0156" y="247.5762">C</text><polygon fill="#181818" points="105.8511,61.7988,115.8511,65.7988,105.8511,69.7988,109.8511,65.7988" style="stroke:#181818;stroke-width:1.0;"/><line style="stroke:#181818;stroke-width:1.0;" x1="37.4775" x2="111.8511" y1="65.7988" y2="65.7988"/><text fill="#000000" font-family="sans-serif" font-size="13" lengthAdjust="spacing" textLength="56.3735" x="44.4775" y="61.0566">first step</text><line style="stroke:#181818;stroke-width:1.0;" x1="127.8511" x2="169.8511" y1="95.1094" y2="95.1094"/><line style="stroke:#181818;stroke-width:1.0;" x1="169.8511" x2="169.8511" y1="95.1094" y2="108.1094"/><line style="stroke:#181818;stroke-width:1.0;" x1="128.8511" x2="169.8511" y1="108.1094" y2="108.1094"/><polygon fill="#181818" points="138.8511,104.1094,128.8511,108.1094,138.8511,112.1094,134.8511,108.1094" style="stroke:#181818;stroke-width:1.0;"/><text fill="#000000" font-family="sans-serif" font-size="13" lengthAdjust="spacing" textLength="23.5942" x="134.8511" y="90.3672">test</text><polygon fill="#181818" points="210.6421,133.4199,220.6421,137.4199,210.6421,141.4199,214.6421,137.4199" style="stroke:#181818;stroke-width:1.0;"/><line style="stroke:#181818;stroke-width:1.0;" x1="127.8511" x2="216.6421" y1="137.4199" y2="137.4199"/><text fill="#000000" font-family="sans-serif" font-size="13" lengthAdjust="spacing" textLength="75.791" x="134.8511" y="132.6777">second step</text><line style="stroke:#181818;stroke-width:1.0;" x1="232.6421" x2="274.6421" y1="166.7305" y2="166.7305"/><line style="stroke:#181818;stroke-width:1.0;" x1="274.6421" x2="274.6421" y1="166.7305" y2="179.7305"/><line style="stroke:#181818;stroke-width:1.0;" x1="233.6421" x2="274.6421" y1="179.7305" y2="179.7305"/><polygon fill="#181818" points="243.6421,175.7305,233.6421,179.7305,243.6421,183.7305,239.6421,179.7305" style="stroke:#181818;stroke-width:1.0;"/><text fill="#000000" font-family="sans-serif" font-size="13" lengthAdjust="spacing" textLength="23.5942" x="239.6421" y="161.9883">test</text><polygon fill="#181818" points="300.8589,205.041,310.8589,209.041,300.8589,213.041,304.8589,209.041" style="stroke:#181818;stroke-width:1.0;"/><line style="stroke:#181818;stroke-width:1.0;" x1="232.6421" x2="306.8589" y1="209.041" y2="209.041"/><text fill="#000000" font-family="sans-serif" font-size="13" lengthAdjust="spacing" textLength="61.2168" x="239.6421" y="204.2988">third step</text><!--SRC=[KomeIapFJLGeISslKYWfAatbKlSiBYvDLL0sD3SovaefpSsjLD2rKt1KqDQsKaZBB2ekKIWkIItWud842ri1THQNG3XE2hgw85N5gSdvUIbGPKvW6QWoCCTPLnV8pSWiWYe10000]--></g></svg>