<svg xmlns="http://www.w3.org/2000/svg" xmlns:xlink="http://www.w3.org/1999/xlink" contentStyleType="text/css" height="583px" preserveAspectRatio="none" style="width:273px;height:583px;background:#FFFFFF;" version="1.1" viewBox="0 0 273 583" width="273px" zoomAndPan="magnify"><defs/><g><line style="stroke:#181818;stroke-width:0.5;stroke-dasharray:5.0,5.0;" x1="17" x2="17" y1="36.4883" y2="547.457"/><line style="stroke:#181818;stroke-width:0.5;stroke-dasharray:5.0,5.0;" x1="78" x2="78" y1="36.4883" y2="547.457"/><rect fill="#FFFFFF" height="50.6211" style="stroke:#181818;stroke-width:1.0;" width="10" x="73" y="109.1094"/><rect fill="#FFFFFF" height="50.6211" style="stroke:#181818;stroke-width:1.0;" width="10" x="73" y="232.3516"/><rect fill="#FFFFFF" height="65.9316" style="stroke:#181818;stroke-width:1.0;" width="10" x="73" y="355.5938"/><rect fill="#FFFFFF" height="35.3105" style="stroke:#181818;stroke-width:1.0;" width="10" x="73" y="494.1465"/><rect fill="#E2E2F0" height="30.4883" rx="2.5" ry="2.5" style="stroke:#181818;stroke-width:0.5;" width="24" x="5" y="5"/><text fill="#000000" font-family="sans-serif" font-size="14" lengthAdjust="spacing" textLength="10" x="12" y="25.5352">A</text><rect fill="#E2E2F0" height="30.4883" rx="2.5" ry="2.5" style="stroke:#181818;stroke-width:0.5;" width="22" x="67" y="5"/><text fill="#000000" font-family="sans-serif" font-size="14" lengthAdjust="spacing" textLength="8" x="74" y="25.5352">B</text><rect fill="#E2E2F0" height="30.4883" rx="2.5" ry="2.5" style="stroke:#181818;stroke-width:0.5;" width="24" x="5" y="547.457"/><text fill="#000000" font-family="sans-serif" font-size="14" lengthAdjust="spacing" textLength="10" x="12" y="567.9922">A</text><rect fill="#E2E2F0" height="30.4883" rx="2.5" ry="2.5" style="stroke:#181818;stroke-width:0.5;" width="22" x="67" y="547.457"/><text fill="#000000" font-family="sans-serif" font-size="14" lengthAdjust="spacing" textLength="8" x="74" y="567.9922">B</text><rect fill="#EEEEEE" height="3" style="stroke:#EEEEEE;stroke-width:1.0;" width="261" x="5" y="65.1436"/><line style="stroke:#000000;stroke-width:1.0;" x1="5" x2="266" y1="65.1436" y2="65.1436"/><line style="stroke:#000000;stroke-width:1.0;" x1="5" x2="266" y1="68.1436" y2="68.1436"/><rect fill="#EEEEEE" height="23.3105" style="stroke:#000000;stroke-width:2.0;" width="51" x="110" y="54.4883"/><text fill="#000000" font-family="sans-serif" font-size="13" font-weight="bold" lengthAdjust="spacing" textLength="33" x="116" y="71.0566">Bad I</text><polygon fill="#181818" points="61,105.1094,71,109.1094,61,113.1094,65,109.1094" style="stroke:#181818;stroke-width:1.0;"/><line style="stroke:#181818;stroke-width:1.0;" x1="17" x2="67" y1="109.1094" y2="109.1094"/><text fill="#000000" font-family="sans-serif" font-size="13" lengthAdjust="spacing" textLength="28" x="24" y="104.3672">ping</text><path d="M88,92.7988 L88,132.7988 L209,132.7988 L209,102.7988 L199,92.7988 L88,92.7988 " fill="#FEFFDD" style="stroke:#181818;stroke-width:0.5;"/><path d="M199,92.7988 L199,102.7988 L209,102.7988 L199,92.7988 " fill="#FEFFDD" style="stroke:#181818;stroke-width:0.5;"/><text fill="#000000" font-family="sans-serif" font-size="13" lengthAdjust="spacing" textLength="100" x="94" y="110.3672">Lifeline extends</text><text fill="#000000" font-family="sans-serif" font-size="13" lengthAdjust="spacing" textLength="86" x="98" y="125.6777">past message</text><polygon fill="#181818" points="110,155.7305,120,159.7305,110,163.7305,114,159.7305" style="stroke:#181818;stroke-width:1.0;"/><line style="stroke:#181818;stroke-width:1.0;stroke-dasharray:2.0,2.0;" x1="83" x2="116" y1="159.7305" y2="159.7305"/><text fill="#000000" font-family="sans-serif" font-size="13" lengthAdjust="spacing" textLength="20" x="90" y="154.9883">log</text><polygon fill="#181818" points="28,155.7305,18,159.7305,28,163.7305,24,159.7305" style="stroke:#181818;stroke-width:1.0;"/><line style="stroke:#181818;stroke-width:1.0;" x1="22" x2="72" y1="159.7305" y2="159.7305"/><text fill="#000000" font-family="sans-serif" font-size="13" lengthAdjust="spacing" textLength="32" x="34" y="154.9883">pong</text><rect fill="#EEEEEE" height="3" style="stroke:#EEEEEE;stroke-width:1.0;" width="261" x="5" y="188.3857"/><line style="stroke:#000000;stroke-width:1.0;" x1="5" x2="266" y1="188.3857" y2="188.3857"/><line style="stroke:#000000;stroke-width:1.0;" x1="5" x2="266" y1="191.3857" y2="191.3857"/><rect fill="#EEEEEE" height="23.3105" style="stroke:#000000;stroke-width:2.0;" width="55" x="108" y="177.7305"/><text fill="#000000" font-family="sans-serif" font-size="13" font-weight="bold" lengthAdjust="spacing" textLength="37" x="114" y="194.2988">Bad II</text><polygon fill="#181818" points="61,228.3516,71,232.3516,61,236.3516,65,232.3516" style="stroke:#181818;stroke-width:1.0;"/><line style="stroke:#181818;stroke-width:1.0;" x1="17" x2="67" y1="232.3516" y2="232.3516"/><text fill="#000000" font-family="sans-serif" font-size="13" lengthAdjust="spacing" textLength="28" x="24" y="227.6094">ping</text><path d="M88,216.041 L88,256.041 L261,256.041 L261,226.041 L251,216.041 L88,216.041 " fill="#FEFFDD" style="stroke:#181818;stroke-width:0.5;"/><path d="M251,216.041 L251,226.041 L261,226.041 L251,216.041 " fill="#FEFFDD" style="stroke:#181818;stroke-width:0.5;"/><text fill="#000000" font-family="sans-serif" font-size="13" lengthAdjust="spacing" textLength="93" x="94" y="233.6094">equally broken</text><text fill="#000000" font-family="sans-serif" font-size="13" lengthAdjust="spacing" textLength="152" x="94" y="248.9199">without --/++ notation</text><polygon fill="#181818" points="110,278.9727,120,282.9727,110,286.9727,114,282.9727" style="stroke:#181818;stroke-width:1.0;"/><line style="stroke:#181818;stroke-width:1.0;stroke-dasharray:2.0,2.0;" x1="83" x2="116" y1="282.9727" y2="282.9727"/><text fill="#000000" font-family="sans-serif" font-size="13" lengthAdjust="spacing" textLength="20" x="90" y="278.2305">log</text><polygon fill="#181818" points="28,278.9727,18,282.9727,28,286.9727,24,282.9727" style="stroke:#181818;stroke-width:1.0;"/><line style="stroke:#181818;stroke-width:1.0;" x1="22" x2="72" y1="282.9727" y2="282.9727"/><text fill="#000000" font-family="sans-serif" font-size="13" lengthAdjust="spacing" textLength="32" x="34" y="278.2305">pong</text><rect fill="#EEEEEE" height="3" style="stroke:#EEEEEE;stroke-width:1.0;" width="261" x="5" y="311.6279"/><line style="stroke:#000000;stroke-width:1.0;" x1="5" x2="266" y1="311.6279" y2="311.6279"/><line style="stroke:#000000;stroke-width:1.0;" x1="5" x2="266" y1="314.6279" y2="314.6279"/><rect fill="#EEEEEE" height="23.3105" style="stroke:#000000;stroke-width:2.0;" width="53" x="109" y="300.9727"/><text fill="#000000" font-family="sans-serif" font-size="13" font-weight="bold" lengthAdjust="spacing" textLength="35" x="115" y="317.541">Good</text><polygon fill="#181818" points="61,351.5938,71,355.5938,61,359.5938,65,355.5938" style="stroke:#181818;stroke-width:1.0;"/><line style="stroke:#181818;stroke-width:1.0;" x1="17" x2="67" y1="355.5938" y2="355.5938"/><text fill="#000000" font-family="sans-serif" font-size="13" lengthAdjust="spacing" textLength="28" x="24" y="350.8516">ping</text><path d="M88,339.2832 L88,394.2832 L207,394.2832 L207,349.2832 L197,339.2832 L88,339.2832 " fill="#FEFFDD" style="stroke:#181818;stroke-width:0.5;"/><path d="M197,339.2832 L197,349.2832 L207,349.2832 L197,339.2832 " fill="#FEFFDD" style="stroke:#181818;stroke-width:0.5;"/><text fill="#000000" font-family="sans-serif" font-size="13" lengthAdjust="spacing" textLength="98" x="94" y="356.8516">but not perfect:</text><text fill="#000000" font-family="sans-serif" font-size="13" lengthAdjust="spacing" textLength="92" x="94" y="372.1621">"log" too close</text><text fill="#000000" font-family="sans-serif" font-size="13" lengthAdjust="spacing" textLength="60" x="98" y="387.4727">to lifeline</text><polygon fill="#181818" points="28,417.5254,18,421.5254,28,425.5254,24,421.5254" style="stroke:#181818;stroke-width:1.0;"/><line style="stroke:#181818;stroke-width:1.0;" x1="22" x2="72" y1="421.5254" y2="421.5254"/><text fill="#000000" font-family="sans-serif" font-size="13" lengthAdjust="spacing" textLength="32" x="34" y="416.7832">pong</text><polygon fill="#181818" points="110,417.5254,120,421.5254,110,425.5254,114,421.5254" style="stroke:#181818;stroke-width:1.0;"/><line style="stroke:#181818;stroke-width:1.0;stroke-dasharray:2.0,2.0;" x1="78" x2="116" y1="421.5254" y2="421.5254"/><text fill="#000000" font-family="sans-serif" font-size="13" lengthAdjust="spacing" textLength="20" x="85" y="416.7832">log</text><rect fill="#EEEEEE" height="3" style="stroke:#EEEEEE;stroke-width:1.0;" width="261" x="5" y="450.1807"/><line style="stroke:#000000;stroke-width:1.0;" x1="5" x2="266" y1="450.1807" y2="450.1807"/><line style="stroke:#000000;stroke-width:1.0;" x1="5" x2="266" y1="453.1807" y2="453.1807"/><rect fill="#EEEEEE" height="23.3105" style="stroke:#000000;stroke-width:2.0;" width="46" x="112.5" y="439.5254"/><text fill="#000000" font-family="sans-serif" font-size="13" font-weight="bold" lengthAdjust="spacing" textLength="28" x="118.5" y="456.0938">Best</text><polygon fill="#181818" points="61,490.1465,71,494.1465,61,498.1465,65,494.1465" style="stroke:#181818;stroke-width:1.0;"/><line style="stroke:#181818;stroke-width:1.0;" x1="17" x2="67" y1="494.1465" y2="494.1465"/><text fill="#000000" font-family="sans-serif" font-size="13" lengthAdjust="spacing" textLength="28" x="24" y="489.4043">ping</text><path d="M88,477.8359 L88,502.8359 L199,502.8359 L199,487.8359 L189,477.8359 L88,477.8359 " fill="#FEFFDD" style="stroke:#181818;stroke-width:0.5;"/><path d="M189,477.8359 L189,487.8359 L199,487.8359 L189,477.8359 " fill="#FEFFDD" style="stroke:#181818;stroke-width:0.5;"/><text fill="#000000" font-family="sans-serif" font-size="13" lengthAdjust="spacing" textLength="90" x="94" y="495.4043">Looks perfect!</text><polygon fill="#181818" points="110,525.457,120,529.457,110,533.457,114,529.457" style="stroke:#181818;stroke-width:1.0;"/><line style="stroke:#181818;stroke-width:1.0;stroke-dasharray:2.0,2.0;" x1="83" x2="116" y1="529.457" y2="529.457"/><text fill="#000000" font-family="sans-serif" font-size="13" lengthAdjust="spacing" textLength="20" x="90" y="524.7148">log</text><polygon fill="#181818" points="28,525.457,18,529.457,28,533.457,24,529.457" style="stroke:#181818;stroke-width:1.0;"/><line style="stroke:#181818;stroke-width:1.0;" x1="22" x2="77" y1="529.457" y2="529.457"/><text fill="#000000" font-family="sans-serif" font-size="13" lengthAdjust="spacing" textLength="32" x="34" y="524.7148">pong</text><!--SRC=[bP3TIiD048MliqznMa4lGb316mEfD0XIw2FaPfjCqwNRdPYT-FVqZiMsXYBYvS3mVUUSITVRTcSXn1-GVY1pjOXn85pStjpVcQ90QHiiK1HcZco64ccQ93aw5reJM0YzQpUIO-dMv5qWq9jGQ68LqDaes56CjYLJ8ijc3yZXkJMNob6O4hCzZ1LsKFrq9KVLl1RtObLNZgpqF5Zltx7gUKkX2gzEDZo8Sg_J5FffnN7uHNvKFv8zuJN74tFpT-ELUlH6H_sQQichC5Ny5CACsdCadK0O_diOSrvvd-GKx6i1qid-qN_9l8s719Dnpr6hizAV]--></g></svg>