<svg xmlns="http://www.w3.org/2000/svg" xmlns:xlink="http://www.w3.org/1999/xlink" contentStyleType="text/css" height="673px" preserveAspectRatio="none" style="width:116px;height:673px;background:#FFFFFF;" version="1.1" viewBox="0 0 116 673" width="116px" zoomAndPan="magnify"><defs/><g><line style="stroke:#181818;stroke-width:0.5;stroke-dasharray:5.0,5.0;" x1="28.3618" x2="28.3618" y1="36.4883" y2="637.1445"/><line style="stroke:#181818;stroke-width:0.5;stroke-dasharray:5.0,5.0;" x1="81.4556" x2="81.4556" y1="36.4883" y2="637.1445"/><rect fill="#E2E2F0" height="30.4883" rx="2.5" ry="2.5" style="stroke:#181818;stroke-width:0.5;" width="46.7236" x="5" y="5"/><text fill="#000000" font-family="sans-serif" font-size="14" lengthAdjust="spacing" textLength="32.7236" x="12" y="25.5352">Alice</text><rect fill="#E2E2F0" height="30.4883" rx="2.5" ry="2.5" style="stroke:#181818;stroke-width:0.5;" width="39.4639" x="61.7236" y="5"/><text fill="#000000" font-family="sans-serif" font-size="14" lengthAdjust="spacing" textLength="25.4639" x="68.7236" y="25.5352">Bob</text><rect fill="#E2E2F0" height="30.4883" rx="2.5" ry="2.5" style="stroke:#181818;stroke-width:0.5;" width="46.7236" x="5" y="637.1445"/><text fill="#000000" font-family="sans-serif" font-size="14" lengthAdjust="spacing" textLength="32.7236" x="12" y="657.6797">Alice</text><rect fill="#E2E2F0" height="30.4883" rx="2.5" ry="2.5" style="stroke:#181818;stroke-width:0.5;" width="39.4639" x="61.7236" y="637.1445"/><text fill="#000000" font-family="sans-serif" font-size="14" lengthAdjust="spacing" textLength="25.4639" x="68.7236" y="657.6797">Bob</text><polygon fill="#181818" points="89.1875,61.6211,99.1875,65.6211,89.1875,69.6211,93.1875,65.6211" style="stroke:#181818;stroke-width:1.0;"/><line style="stroke:#181818;stroke-width:1.0;" x1="28.3618" x2="95.1875" y1="65.6211" y2="65.6211"/><text fill="#000000" font-family="monospace" font-size="13" lengthAdjust="spacing" textLength="23.48" x="35.3618" y="60.5552">-&gt;]</text><line style="stroke:#181818;stroke-width:1.0;" x1="99.1875" x2="89.1875" y1="94.7539" y2="90.7539"/><line style="stroke:#181818;stroke-width:1.0;" x1="99.1875" x2="89.1875" y1="94.7539" y2="98.7539"/><line style="stroke:#181818;stroke-width:1.0;" x1="28.3618" x2="100.1875" y1="94.7539" y2="94.7539"/><text fill="#000000" font-family="monospace" font-size="13" lengthAdjust="spacing" textLength="31.3066" x="35.3618" y="89.688">-&gt;&gt;]</text><polygon fill="#181818" points="89.1875,119.8867,99.1875,123.8867,89.1875,123.8867" style="stroke:#181818;stroke-width:1.0;"/><line style="stroke:#181818;stroke-width:1.0;" x1="28.3618" x2="100.1875" y1="123.8867" y2="123.8867"/><text fill="#000000" font-family="monospace" font-size="13" lengthAdjust="spacing" textLength="23.48" x="35.3618" y="118.8208">-\]</text><line style="stroke:#181818;stroke-width:1.0;" x1="99.1875" x2="89.1875" y1="153.0195" y2="149.0195"/><line style="stroke:#181818;stroke-width:1.0;" x1="28.3618" x2="100.1875" y1="153.0195" y2="153.0195"/><text fill="#000000" font-family="monospace" font-size="13" lengthAdjust="spacing" textLength="31.3066" x="35.3618" y="147.9536">-\\]</text><polygon fill="#181818" points="89.1875,182.1523,99.1875,182.1523,89.1875,186.1523" style="stroke:#181818;stroke-width:1.0;"/><line style="stroke:#181818;stroke-width:1.0;" x1="28.3618" x2="100.1875" y1="182.1523" y2="182.1523"/><text fill="#000000" font-family="monospace" font-size="13" lengthAdjust="spacing" textLength="23.48" x="35.3618" y="177.0864">-/]</text><line style="stroke:#181818;stroke-width:1.0;" x1="99.1875" x2="89.1875" y1="211.2852" y2="215.2852"/><line style="stroke:#181818;stroke-width:1.0;" x1="28.3618" x2="100.1875" y1="211.2852" y2="211.2852"/><text fill="#000000" font-family="monospace" font-size="13" lengthAdjust="spacing" textLength="31.3066" x="35.3618" y="206.2192">-//]</text><line style="stroke:#181818;stroke-width:2.0;" x1="83.1875" x2="93.1875" y1="235.418" y2="245.418"/><line style="stroke:#181818;stroke-width:2.0;" x1="83.1875" x2="93.1875" y1="245.418" y2="235.418"/><line style="stroke:#181818;stroke-width:1.0;" x1="28.3618" x2="88.1875" y1="240.418" y2="240.418"/><text fill="#000000" font-family="monospace" font-size="13" lengthAdjust="spacing" textLength="31.3066" x="35.3618" y="235.3521">-&gt;x]</text><line style="stroke:#181818;stroke-width:2.0;" x1="35.3618" x2="45.3618" y1="264.5508" y2="274.5508"/><line style="stroke:#181818;stroke-width:2.0;" x1="35.3618" x2="45.3618" y1="274.5508" y2="264.5508"/><polygon fill="#181818" points="89.1875,265.5508,99.1875,269.5508,89.1875,273.5508,93.1875,269.5508" style="stroke:#181818;stroke-width:1.0;"/><line style="stroke:#181818;stroke-width:1.0;" x1="40.3618" x2="95.1875" y1="269.5508" y2="269.5508"/><text fill="#000000" font-family="monospace" font-size="13" lengthAdjust="spacing" textLength="31.3066" x="45.3618" y="264.4849">x-&gt;]</text><ellipse cx="27.8618" cy="297.9336" fill="none" rx="4" ry="4" style="stroke:#181818;stroke-width:1.5;"/><polygon fill="#181818" points="89.1875,294.6836,99.1875,298.6836,89.1875,302.6836,93.1875,298.6836" style="stroke:#181818;stroke-width:1.0;"/><line style="stroke:#181818;stroke-width:1.0;" x1="32.3618" x2="95.1875" y1="298.6836" y2="298.6836"/><text fill="#000000" font-family="monospace" font-size="13" lengthAdjust="spacing" textLength="31.3066" x="35.3618" y="293.6177">o-&gt;]</text><ellipse cx="94.6875" cy="327.0664" fill="none" rx="4" ry="4" style="stroke:#181818;stroke-width:1.5;"/><polygon fill="#181818" points="77.6875,323.8164,87.6875,327.8164,77.6875,331.8164,81.6875,327.8164" style="stroke:#181818;stroke-width:1.0;"/><line style="stroke:#181818;stroke-width:1.0;" x1="28.3618" x2="83.6875" y1="327.8164" y2="327.8164"/><text fill="#000000" font-family="monospace" font-size="13" lengthAdjust="spacing" textLength="31.3066" x="35.3618" y="322.7505">-&gt;o]</text><ellipse cx="27.8618" cy="356.1992" fill="none" rx="4" ry="4" style="stroke:#181818;stroke-width:1.5;"/><ellipse cx="94.6875" cy="356.1992" fill="none" rx="4" ry="4" style="stroke:#181818;stroke-width:1.5;"/><polygon fill="#181818" points="77.6875,352.9492,87.6875,356.9492,77.6875,360.9492,81.6875,356.9492" style="stroke:#181818;stroke-width:1.0;"/><line style="stroke:#181818;stroke-width:1.0;" x1="32.3618" x2="83.6875" y1="356.9492" y2="356.9492"/><text fill="#000000" font-family="monospace" font-size="13" lengthAdjust="spacing" textLength="39.1333" x="35.3618" y="351.8833">o-&gt;o]</text><polygon fill="#181818" points="39.3618,382.082,29.3618,386.082,39.3618,390.082,35.3618,386.082" style="stroke:#181818;stroke-width:1.0;"/><polygon fill="#181818" points="89.1875,382.082,99.1875,386.082,89.1875,390.082,93.1875,386.082" style="stroke:#181818;stroke-width:1.0;"/><line style="stroke:#181818;stroke-width:1.0;" x1="33.3618" x2="95.1875" y1="386.082" y2="386.082"/><text fill="#000000" font-family="monospace" font-size="13" lengthAdjust="spacing" textLength="31.3066" x="45.3618" y="381.0161">&lt;-&gt;]</text><ellipse cx="27.8618" cy="414.4648" fill="none" rx="4" ry="4" style="stroke:#181818;stroke-width:1.5;"/><polygon fill="#181818" points="44.8618,411.2148,34.8618,415.2148,44.8618,419.2148,40.8618,415.2148" style="stroke:#181818;stroke-width:1.0;"/><ellipse cx="94.6875" cy="414.4648" fill="none" rx="4" ry="4" style="stroke:#181818;stroke-width:1.5;"/><polygon fill="#181818" points="77.6875,411.2148,87.6875,415.2148,77.6875,419.2148,81.6875,415.2148" style="stroke:#181818;stroke-width:1.0;"/><line style="stroke:#181818;stroke-width:1.0;" x1="38.8618" x2="83.6875" y1="415.2148" y2="415.2148"/><text fill="#000000" font-family="monospace" font-size="13" lengthAdjust="spacing" textLength="46.96" x="45.3618" y="410.1489">o&lt;-&gt;o]</text><line style="stroke:#181818;stroke-width:2.0;" x1="35.3618" x2="45.3618" y1="439.3477" y2="449.3477"/><line style="stroke:#181818;stroke-width:2.0;" x1="35.3618" x2="45.3618" y1="449.3477" y2="439.3477"/><line style="stroke:#181818;stroke-width:2.0;" x1="83.1875" x2="93.1875" y1="439.3477" y2="449.3477"/><line style="stroke:#181818;stroke-width:2.0;" x1="83.1875" x2="93.1875" y1="449.3477" y2="439.3477"/><line style="stroke:#181818;stroke-width:1.0;" x1="40.3618" x2="88.1875" y1="444.3477" y2="444.3477"/><text fill="#000000" font-family="monospace" font-size="13" lengthAdjust="spacing" textLength="46.96" x="45.3618" y="439.2817">x&lt;-&gt;x]</text><ellipse cx="94.6875" cy="472.7305" fill="none" rx="4" ry="4" style="stroke:#181818;stroke-width:1.5;"/><line style="stroke:#181818;stroke-width:1.0;" x1="87.6875" x2="77.6875" y1="473.4805" y2="469.4805"/><line style="stroke:#181818;stroke-width:1.0;" x1="87.6875" x2="77.6875" y1="473.4805" y2="477.4805"/><line style="stroke:#181818;stroke-width:1.0;" x1="28.3618" x2="88.6875" y1="473.4805" y2="473.4805"/><text fill="#000000" font-family="monospace" font-size="13" lengthAdjust="spacing" textLength="39.1333" x="35.3618" y="468.4146">-&gt;&gt;o]</text><ellipse cx="94.6875" cy="501.8633" fill="none" rx="4" ry="4" style="stroke:#181818;stroke-width:1.5;"/><polygon fill="#181818" points="77.6875,498.6133,87.6875,502.6133,77.6875,502.6133" style="stroke:#181818;stroke-width:1.0;"/><line style="stroke:#181818;stroke-width:1.0;" x1="28.3618" x2="88.6875" y1="502.6133" y2="502.6133"/><text fill="#000000" font-family="monospace" font-size="13" lengthAdjust="spacing" textLength="31.3066" x="35.3618" y="497.5474">-\o]</text><ellipse cx="94.6875" cy="530.9961" fill="none" rx="4" ry="4" style="stroke:#181818;stroke-width:1.5;"/><line style="stroke:#181818;stroke-width:1.0;" x1="87.6875" x2="77.6875" y1="531.7461" y2="527.7461"/><line style="stroke:#181818;stroke-width:1.0;" x1="28.3618" x2="88.6875" y1="531.7461" y2="531.7461"/><text fill="#000000" font-family="monospace" font-size="13" lengthAdjust="spacing" textLength="39.1333" x="35.3618" y="526.6802">-\\o]</text><ellipse cx="94.6875" cy="560.1289" fill="none" rx="4" ry="4" style="stroke:#181818;stroke-width:1.5;"/><polygon fill="#181818" points="77.6875,560.8789,87.6875,560.8789,77.6875,564.8789" style="stroke:#181818;stroke-width:1.0;"/><line style="stroke:#181818;stroke-width:1.0;" x1="28.3618" x2="88.6875" y1="560.8789" y2="560.8789"/><text fill="#000000" font-family="monospace" font-size="13" lengthAdjust="spacing" textLength="31.3066" x="35.3618" y="555.813">-/o]</text><ellipse cx="94.6875" cy="589.2617" fill="none" rx="4" ry="4" style="stroke:#181818;stroke-width:1.5;"/><line style="stroke:#181818;stroke-width:1.0;" x1="87.6875" x2="77.6875" y1="590.0117" y2="594.0117"/><line style="stroke:#181818;stroke-width:1.0;" x1="28.3618" x2="88.6875" y1="590.0117" y2="590.0117"/><text fill="#000000" font-family="monospace" font-size="13" lengthAdjust="spacing" textLength="39.1333" x="35.3618" y="584.9458">-//o]</text><line style="stroke:#181818;stroke-width:2.0;" x1="35.3618" x2="45.3618" y1="614.1445" y2="624.1445"/><line style="stroke:#181818;stroke-width:2.0;" x1="35.3618" x2="45.3618" y1="624.1445" y2="614.1445"/><ellipse cx="94.6875" cy="618.3945" fill="none" rx="4" ry="4" style="stroke:#181818;stroke-width:1.5;"/><polygon fill="#181818" points="77.6875,615.1445,87.6875,619.1445,77.6875,623.1445,81.6875,619.1445" style="stroke:#181818;stroke-width:1.0;"/><line style="stroke:#181818;stroke-width:1.0;" x1="40.3618" x2="83.6875" y1="619.1445" y2="619.1445"/><text fill="#000000" font-family="monospace" font-size="13" lengthAdjust="spacing" textLength="39.1333" x="45.3618" y="614.0786">x-&gt;o]</text><!--SRC=[LP312i8m44Jl_Oerzx9t2GNzZlGGIv62kgL627wzxMv2njpcPNOpcTEwnVipKfhbIsdxpDqQjxHConfVYIwFPPeflYd-uQlSY0vywoBrmqXwpkIS2UUKbmlZXp0Uq1-QFmJmX_sCnXdztFpCu5THtituRguyzv37X791BettW-0U0RzT5Fykb7lSus6_BmFgLs5vV4cgULJKtjf-4wKVp1EazHd0V_GcjJWSu3R030CgQa6Dv_An7m00]--></g></svg>