<svg xmlns="http://www.w3.org/2000/svg" xmlns:xlink="http://www.w3.org/1999/xlink" contentStyleType="text/css" height="497px" preserveAspectRatio="none" style="width:325px;height:497px;background:#FFFFFF;" version="1.1" viewBox="0 0 325 497" width="325px" zoomAndPan="magnify"><defs/><g><rect fill="#FFFFAA" height="55.3105" style="stroke:#FFFFAA;stroke-width:1.0;" width="144.9761" x="33.3896" y="48.4883"/><rect fill="#FFFFAA" height="55.3105" style="stroke:#FFFFAA;stroke-width:1.0;" width="144.9761" x="38.3896" y="121.7988"/><rect fill="#FFFFAA" height="168.6211" style="stroke:#FFFFAA;stroke-width:1.0;" width="164.9761" x="33.3896" y="195.1094"/><rect fill="#FFFFAA" height="55.3105" style="stroke:#FFFFAA;stroke-width:1.0;" width="139.9761" x="38.3896" y="381.7305"/><line style="stroke:#181818;stroke-width:0.5;stroke-dasharray:5.0,5.0;" x1="54.3896" x2="54.3896" y1="36.4883" y2="461.041"/><rect fill="#FFFFFF" height="14" style="stroke:#181818;stroke-width:1.0;" width="10" x="49.3896" y="81.7988"/><rect fill="#FFFFFF" height="127.3105" style="stroke:#181818;stroke-width:1.0;" width="10" x="49.3896" y="228.4199"/><line style="stroke:#181818;stroke-width:0.5;stroke-dasharray:5.0,5.0;" x1="162.3657" x2="162.3657" y1="36.4883" y2="461.041"/><rect fill="#FFFFFF" height="14" style="stroke:#181818;stroke-width:1.0;" width="10" x="157.3657" y="155.1094"/><rect fill="#FFFFFF" height="127.3105" style="stroke:#181818;stroke-width:1.0;" width="10" x="157.3657" y="228.4199"/><rect fill="#FFFFFF" height="99.3105" style="stroke:#181818;stroke-width:1.0;" width="10" x="162.3657" y="242.4199"/><rect fill="#FFFFFF" height="71.3105" style="stroke:#181818;stroke-width:1.0;" width="10" x="167.3657" y="256.4199"/><rect fill="#FFFFFF" height="43.3105" style="stroke:#181818;stroke-width:1.0;" width="10" x="172.3657" y="270.4199"/><line style="stroke:#181818;stroke-width:0.5;stroke-dasharray:5.0,5.0;" x1="270.3555" x2="270.3555" y1="36.4883" y2="461.041"/><rect fill="#E2E2F0" height="30.4883" rx="2.5" ry="2.5" style="stroke:#181818;stroke-width:0.5;" width="98.7793" x="5" y="5"/><text fill="#000000" font-family="sans-serif" font-size="14" lengthAdjust="spacing" textLength="84.7793" x="12" y="25.5352">Particpant_A</text><rect fill="#E2E2F0" height="30.4883" rx="2.5" ry="2.5" style="stroke:#181818;stroke-width:0.5;" width="97.1729" x="113.7793" y="5"/><text fill="#000000" font-family="sans-serif" font-size="14" lengthAdjust="spacing" textLength="83.1729" x="120.7793" y="25.5352">Particpant_B</text><rect fill="#E2E2F0" height="30.4883" rx="2.5" ry="2.5" style="stroke:#181818;stroke-width:0.5;" width="98.8066" x="220.9521" y="5"/><text fill="#000000" font-family="sans-serif" font-size="14" lengthAdjust="spacing" textLength="84.8066" x="227.9521" y="25.5352">Particpant_C</text><rect fill="#E2E2F0" height="30.4883" rx="2.5" ry="2.5" style="stroke:#181818;stroke-width:0.5;" width="98.7793" x="5" y="461.041"/><text fill="#000000" font-family="sans-serif" font-size="14" lengthAdjust="spacing" textLength="84.7793" x="12" y="481.5762">Particpant_A</text><rect fill="#E2E2F0" height="30.4883" rx="2.5" ry="2.5" style="stroke:#181818;stroke-width:0.5;" width="97.1729" x="113.7793" y="461.041"/><text fill="#000000" font-family="sans-serif" font-size="14" lengthAdjust="spacing" textLength="83.1729" x="120.7793" y="481.5762">Particpant_B</text><rect fill="#E2E2F0" height="30.4883" rx="2.5" ry="2.5" style="stroke:#181818;stroke-width:0.5;" width="98.8066" x="220.9521" y="461.041"/><text fill="#000000" font-family="sans-serif" font-size="14" lengthAdjust="spacing" textLength="84.8066" x="227.9521" y="481.5762">Particpant_C</text><path d="M33.3896,48.4883 L132.3066,48.4883 L132.3066,55.7988 L122.3066,65.7988 L33.3896,65.7988 L33.3896,48.4883 " fill="#EEEEEE" style="stroke:#000000;stroke-width:1.5;"/><rect fill="none" height="55.3105" style="stroke:#000000;stroke-width:1.5;" width="144.9761" x="33.3896" y="48.4883"/><text fill="#000000" font-family="sans-serif" font-size="13" font-weight="bold" lengthAdjust="spacing" textLength="53.917" x="48.3896" y="62.0566">Group 1</text><polygon fill="#181818" points="150.3657,77.7988,160.3657,81.7988,150.3657,85.7988,154.3657,81.7988" style="stroke:#181818;stroke-width:1.0;"/><line style="stroke:#181818;stroke-width:1.0;" x1="59.3896" x2="156.3657" y1="81.7988" y2="81.7988"/><polygon fill="#181818" points="70.3896,91.7988,60.3896,95.7988,70.3896,99.7988,66.3896,95.7988" style="stroke:#181818;stroke-width:1.0;"/><line style="stroke:#181818;stroke-width:1.0;" x1="64.3896" x2="161.3657" y1="95.7988" y2="95.7988"/><path d="M38.3896,121.7988 L137.3066,121.7988 L137.3066,129.1094 L127.3066,139.1094 L38.3896,139.1094 L38.3896,121.7988 " fill="#EEEEEE" style="stroke:#000000;stroke-width:1.5;"/><rect fill="none" height="55.3105" style="stroke:#000000;stroke-width:1.5;" width="144.9761" x="38.3896" y="121.7988"/><text fill="#000000" font-family="sans-serif" font-size="13" font-weight="bold" lengthAdjust="spacing" textLength="53.917" x="53.3896" y="135.3672">Group 2</text><polygon fill="#181818" points="145.3657,151.1094,155.3657,155.1094,145.3657,159.1094,149.3657,155.1094" style="stroke:#181818;stroke-width:1.0;"/><line style="stroke:#181818;stroke-width:1.0;" x1="54.3896" x2="151.3657" y1="155.1094" y2="155.1094"/><polygon fill="#181818" points="65.3896,165.1094,55.3896,169.1094,65.3896,173.1094,61.3896,169.1094" style="stroke:#181818;stroke-width:1.0;"/><line style="stroke:#181818;stroke-width:1.0;" x1="59.3896" x2="156.3657" y1="169.1094" y2="169.1094"/><path d="M33.3896,195.1094 L132.3066,195.1094 L132.3066,202.4199 L122.3066,212.4199 L33.3896,212.4199 L33.3896,195.1094 " fill="#EEEEEE" style="stroke:#000000;stroke-width:1.5;"/><rect fill="none" height="168.6211" style="stroke:#000000;stroke-width:1.5;" width="164.9761" x="33.3896" y="195.1094"/><text fill="#000000" font-family="sans-serif" font-size="13" font-weight="bold" lengthAdjust="spacing" textLength="53.917" x="48.3896" y="208.6777">Group 3</text><polygon fill="#181818" points="145.3657,224.4199,155.3657,228.4199,145.3657,232.4199,149.3657,228.4199" style="stroke:#181818;stroke-width:1.0;"/><line style="stroke:#181818;stroke-width:1.0;" x1="59.3896" x2="151.3657" y1="228.4199" y2="228.4199"/><polygon fill="#181818" points="150.3657,238.4199,160.3657,242.4199,150.3657,246.4199,154.3657,242.4199" style="stroke:#181818;stroke-width:1.0;"/><line style="stroke:#181818;stroke-width:1.0;" x1="59.3896" x2="156.3657" y1="242.4199" y2="242.4199"/><polygon fill="#181818" points="155.3657,252.4199,165.3657,256.4199,155.3657,260.4199,159.3657,256.4199" style="stroke:#181818;stroke-width:1.0;"/><line style="stroke:#181818;stroke-width:1.0;" x1="59.3896" x2="161.3657" y1="256.4199" y2="256.4199"/><polygon fill="#181818" points="160.3657,266.4199,170.3657,270.4199,160.3657,274.4199,164.3657,270.4199" style="stroke:#181818;stroke-width:1.0;"/><line style="stroke:#181818;stroke-width:1.0;" x1="59.3896" x2="166.3657" y1="270.4199" y2="270.4199"/><polygon fill="#181818" points="70.3896,295.7305,60.3896,299.7305,70.3896,303.7305,66.3896,299.7305" style="stroke:#181818;stroke-width:1.0;"/><line style="stroke:#181818;stroke-width:1.0;" x1="64.3896" x2="171.3657" y1="299.7305" y2="299.7305"/><text fill="#000000" font-family="sans-serif" font-size="13" lengthAdjust="spacing" textLength="30.8115" x="76.3896" y="294.9883">hello</text><polygon fill="#181818" points="70.3896,309.7305,60.3896,313.7305,70.3896,317.7305,66.3896,313.7305" style="stroke:#181818;stroke-width:1.0;"/><line style="stroke:#181818;stroke-width:1.0;" x1="64.3896" x2="171.3657" y1="313.7305" y2="313.7305"/><polygon fill="#181818" points="70.3896,323.7305,60.3896,327.7305,70.3896,331.7305,66.3896,327.7305" style="stroke:#181818;stroke-width:1.0;"/><line style="stroke:#181818;stroke-width:1.0;" x1="64.3896" x2="166.3657" y1="327.7305" y2="327.7305"/><polygon fill="#181818" points="70.3896,337.7305,60.3896,341.7305,70.3896,345.7305,66.3896,341.7305" style="stroke:#181818;stroke-width:1.0;"/><line style="stroke:#181818;stroke-width:1.0;" x1="64.3896" x2="161.3657" y1="341.7305" y2="341.7305"/><polygon fill="#181818" points="70.3896,351.7305,60.3896,355.7305,70.3896,359.7305,66.3896,355.7305" style="stroke:#181818;stroke-width:1.0;"/><line style="stroke:#181818;stroke-width:1.0;" x1="64.3896" x2="156.3657" y1="355.7305" y2="355.7305"/><path d="M38.3896,381.7305 L137.3066,381.7305 L137.3066,389.041 L127.3066,399.041 L38.3896,399.041 L38.3896,381.7305 " fill="#EEEEEE" style="stroke:#000000;stroke-width:1.5;"/><rect fill="none" height="55.3105" style="stroke:#000000;stroke-width:1.5;" width="139.9761" x="38.3896" y="381.7305"/><text fill="#000000" font-family="sans-serif" font-size="13" font-weight="bold" lengthAdjust="spacing" textLength="53.917" x="53.3896" y="395.2988">Group 4</text><polygon fill="#181818" points="150.3657,411.041,160.3657,415.041,150.3657,419.041,154.3657,415.041" style="stroke:#181818;stroke-width:1.0;"/><line style="stroke:#181818;stroke-width:1.0;" x1="54.3896" x2="156.3657" y1="415.041" y2="415.041"/><polygon fill="#181818" points="65.3896,425.041,55.3896,429.041,65.3896,433.041,61.3896,429.041" style="stroke:#181818;stroke-width:1.0;"/><line style="stroke:#181818;stroke-width:1.0;" x1="59.3896" x2="161.3657" y1="429.041" y2="429.041"/><!--SRC=[KomeIapFJLGeISslKYWfAatbuYf8B2h9JCuiICmhKGW0iq7CU4TS4awu99ovkDAByaiB59JJqX8LtC5CGou5840sLa7N3jKqa8B4v9BCiiIIL5G7O6YrqSNKcfAANNDgNWeMznWHT8-sDa5xTNLnc6vChEcu_Kka0SY01ENaANL2K-geOAMGaPgJau_RRCmGKr30wsxS6eXGHeGIqfA92N795c_Y19eC0000]--></g></svg>