<svg xmlns="http://www.w3.org/2000/svg" xmlns:xlink="http://www.w3.org/1999/xlink" contentStyleType="text/css" height="269px" preserveAspectRatio="none" style="width:336px;height:269px;background:#FFFFFF;" version="1.1" viewBox="0 0 336 269" width="336px" zoomAndPan="magnify"><defs/><g><line style="stroke:#181818;stroke-width:0.5;stroke-dasharray:5.0,5.0;" x1="33" x2="33" y1="81.4883" y2="187.4199"/><rect fill="#FFFFFF" height="13" style="stroke:#181818;stroke-width:1.0;" width="10" x="28" y="169.4199"/><line style="stroke:#181818;stroke-width:0.5;stroke-dasharray:5.0,5.0;" x1="127" x2="127" y1="81.4883" y2="187.4199"/><rect fill="#FFFFFF" height="21.3105" style="stroke:#181818;stroke-width:1.0;" width="10" x="122" y="89.4883"/><rect fill="#FFFFFF" height="29.3105" style="stroke:#181818;stroke-width:1.0;" width="10" x="122" y="140.1094"/><line style="stroke:#181818;stroke-width:0.5;stroke-dasharray:5.0,5.0;" x1="216" x2="216" y1="81.4883" y2="187.4199"/><rect fill="#FFFFFF" height="29.3105" style="stroke:#181818;stroke-width:1.0;" width="10" x="211" y="110.7988"/><rect fill="#FFFFFF" height="13" style="stroke:#181818;stroke-width:1.0;" width="10" x="211" y="169.4199"/><line style="stroke:#181818;stroke-width:0.5;stroke-dasharray:5.0,5.0;" x1="308" x2="308" y1="81.4883" y2="187.4199"/><rect fill="#FFFFFF" height="13" style="stroke:#181818;stroke-width:1.0;" width="10" x="303" y="169.4199"/><text fill="#000000" font-family="sans-serif" font-size="14" lengthAdjust="spacing" textLength="50" x="5" y="78.5352">Mallory</text><ellipse cx="33" cy="13.5" fill="#E2E2F0" rx="8" ry="8" style="stroke:#181818;stroke-width:0.5;"/><path d="M33,21.5 L33,48.5 M20,29.5 L46,29.5 M33,48.5 L20,63.5 M33,48.5 L46,63.5 " fill="none" style="stroke:#181818;stroke-width:0.5;"/><text fill="#000000" font-family="sans-serif" font-size="14" lengthAdjust="spacing" textLength="26" x="111" y="78.5352">Bob</text><ellipse cx="127" cy="13.5" fill="#E2E2F0" rx="8" ry="8" style="stroke:#181818;stroke-width:0.5;"/><path d="M127,21.5 L127,48.5 M114,29.5 L140,29.5 M127,48.5 L114,63.5 M127,48.5 L140,63.5 " fill="none" style="stroke:#181818;stroke-width:0.5;"/><text fill="#000000" font-family="sans-serif" font-size="14" lengthAdjust="spacing" textLength="33" x="196.5" y="78.5352">Alice</text><ellipse cx="216" cy="13.5" fill="#E2E2F0" rx="8" ry="8" style="stroke:#181818;stroke-width:0.5;"/><path d="M216,21.5 L216,48.5 M203,29.5 L229,29.5 M216,48.5 L203,63.5 M216,48.5 L229,63.5 " fill="none" style="stroke:#181818;stroke-width:0.5;"/><text fill="#000000" font-family="sans-serif" font-size="14" lengthAdjust="spacing" textLength="49" x="280.5" y="78.5352">Charlie</text><ellipse cx="308" cy="13.5" fill="#E2E2F0" rx="8" ry="8" style="stroke:#181818;stroke-width:0.5;"/><path d="M308,21.5 L308,48.5 M295,29.5 L321,29.5 M308,48.5 L295,63.5 M308,48.5 L321,63.5 " fill="none" style="stroke:#181818;stroke-width:0.5;"/><text fill="#000000" font-family="sans-serif" font-size="14" lengthAdjust="spacing" textLength="50" x="5" y="260.9551">Mallory</text><ellipse cx="33" cy="195.9199" fill="#E2E2F0" rx="8" ry="8" style="stroke:#181818;stroke-width:0.5;"/><path d="M33,203.9199 L33,230.9199 M20,211.9199 L46,211.9199 M33,230.9199 L20,245.9199 M33,230.9199 L46,245.9199 " fill="none" style="stroke:#181818;stroke-width:0.5;"/><text fill="#000000" font-family="sans-serif" font-size="14" lengthAdjust="spacing" textLength="26" x="111" y="260.9551">Bob</text><ellipse cx="127" cy="195.9199" fill="#E2E2F0" rx="8" ry="8" style="stroke:#181818;stroke-width:0.5;"/><path d="M127,203.9199 L127,230.9199 M114,211.9199 L140,211.9199 M127,230.9199 L114,245.9199 M127,230.9199 L140,245.9199 " fill="none" style="stroke:#181818;stroke-width:0.5;"/><text fill="#000000" font-family="sans-serif" font-size="14" lengthAdjust="spacing" textLength="33" x="196.5" y="260.9551">Alice</text><ellipse cx="216" cy="195.9199" fill="#E2E2F0" rx="8" ry="8" style="stroke:#181818;stroke-width:0.5;"/><path d="M216,203.9199 L216,230.9199 M203,211.9199 L229,211.9199 M216,230.9199 L203,245.9199 M216,230.9199 L229,245.9199 " fill="none" style="stroke:#181818;stroke-width:0.5;"/><text fill="#000000" font-family="sans-serif" font-size="14" lengthAdjust="spacing" textLength="49" x="280.5" y="260.9551">Charlie</text><ellipse cx="308" cy="195.9199" fill="#E2E2F0" rx="8" ry="8" style="stroke:#181818;stroke-width:0.5;"/><path d="M308,203.9199 L308,230.9199 M295,211.9199 L321,211.9199 M308,230.9199 L295,245.9199 M308,230.9199 L321,245.9199 " fill="none" style="stroke:#181818;stroke-width:0.5;"/><line style="stroke:#181818;stroke-width:1.0;" x1="209" x2="199" y1="110.7988" y2="106.7988"/><line style="stroke:#181818;stroke-width:1.0;" x1="209" x2="199" y1="110.7988" y2="114.7988"/><line style="stroke:#181818;stroke-width:1.0;" x1="132" x2="210" y1="110.7988" y2="110.7988"/><text fill="#000000" font-family="sans-serif" font-size="13" lengthAdjust="spacing" textLength="53" x="139" y="106.0566">Hi Alice!</text><line style="stroke:#181818;stroke-width:1.0;" x1="133" x2="143" y1="140.1094" y2="136.1094"/><line style="stroke:#181818;stroke-width:1.0;" x1="133" x2="143" y1="140.1094" y2="144.1094"/><line style="stroke:#181818;stroke-width:1.0;" x1="132" x2="210" y1="140.1094" y2="140.1094"/><text fill="#000000" font-family="sans-serif" font-size="13" lengthAdjust="spacing" textLength="52" x="149" y="135.3672">Bye Bob!</text><line style="stroke:#181818;stroke-width:1.0;" x1="209" x2="199" y1="169.4199" y2="165.4199"/><line style="stroke:#181818;stroke-width:1.0;" x1="209" x2="199" y1="169.4199" y2="173.4199"/><line style="stroke:#181818;stroke-width:1.0;" x1="132" x2="210" y1="169.4199" y2="169.4199"/><text fill="#000000" font-family="sans-serif" font-size="13" lengthAdjust="spacing" textLength="60" x="139" y="164.6777">Bye Alice!</text><line style="stroke:#181818;stroke-width:1.0;" x1="39" x2="49" y1="169.4199" y2="165.4199"/><line style="stroke:#181818;stroke-width:1.0;" x1="39" x2="49" y1="169.4199" y2="173.4199"/><line style="stroke:#181818;stroke-width:1.0;" x1="38" x2="121" y1="169.4199" y2="169.4199"/><text fill="#000000" font-family="sans-serif" font-size="13" lengthAdjust="spacing" textLength="60" x="55" y="164.6777">Bye Alice!</text><line style="stroke:#181818;stroke-width:1.0;" x1="301" x2="291" y1="169.4199" y2="165.4199"/><line style="stroke:#181818;stroke-width:1.0;" x1="301" x2="291" y1="169.4199" y2="173.4199"/><line style="stroke:#181818;stroke-width:1.0;" x1="221" x2="302" y1="169.4199" y2="169.4199"/><text fill="#000000" font-family="sans-serif" font-size="13" lengthAdjust="spacing" textLength="63" x="228" y="164.6777">Bye C too!</text><!--SRC=[ROz1QiCm44NtSufl0iqYE538fbq44c_IHGunbeTcg1G5QTpWdhvox0OlkX7yz-PhfEgM-3CmJE8FBFL2wu-SUy7gTVUsmrtj0kuwDOrNzhXnOk_5moAQBQtpbrv75f1jy5BEfCxwu8aEpcB2kOp7D80pmeoEiHrZEyU3LoSZu1aq5qvU7yWHiJFzPfCotwBUxy6ewyq6xpZfrAs87wBz4yT1nYKLFHjFF1TUC9dmZvakSyLCeYb_ZHLridZ9Cl4oX6Lmlm00]--></g></svg>