<svg xmlns="http://www.w3.org/2000/svg" xmlns:xlink="http://www.w3.org/1999/xlink" contentStyleType="text/css" height="206px" preserveAspectRatio="none" style="width:75px;height:206px;background:#FFFFFF;" version="1.1" viewBox="0 0 75 206" width="75px" zoomAndPan="magnify"><defs/><g><rect fill="#FFFFFF" height="86.3105" style="stroke:#181818;stroke-width:1.0;" width="10" x="11" y="75.7988"/><rect fill="#FFFFFF" height="28" style="stroke:#181818;stroke-width:1.0;" width="10" x="16" y="118.1094"/><line style="stroke:#181818;stroke-width:0.5;stroke-dasharray:5.0,5.0;" x1="16" x2="16" y1="36.4883" y2="171.1094"/><rect fill="#E2E2F0" height="30.4883" rx="2.5" ry="2.5" style="stroke:#181818;stroke-width:0.5;" width="22" x="5" y="5"/><text fill="#000000" font-family="sans-serif" font-size="14" lengthAdjust="spacing" textLength="8" x="12" y="25.5352">a</text><rect fill="#E2E2F0" height="30.4883" rx="2.5" ry="2.5" style="stroke:#181818;stroke-width:0.5;" width="22" x="5" y="170.1094"/><text fill="#000000" font-family="sans-serif" font-size="14" lengthAdjust="spacing" textLength="8" x="12" y="190.6445">a</text><rect fill="#FFFFFF" height="86.3105" style="stroke:#181818;stroke-width:1.0;" width="10" x="11" y="75.7988"/><rect fill="#FFFFFF" height="28" style="stroke:#181818;stroke-width:1.0;" width="10" x="16" y="118.1094"/><line style="stroke:#181818;stroke-width:1.0;" x1="16" x2="63" y1="62.7988" y2="62.7988"/><line style="stroke:#181818;stroke-width:1.0;" x1="63" x2="63" y1="62.7988" y2="75.7988"/><line style="stroke:#181818;stroke-width:1.0;" x1="22" x2="63" y1="75.7988" y2="75.7988"/><polygon fill="#181818" points="32,71.7988,22,75.7988,32,79.7988,28,75.7988" style="stroke:#181818;stroke-width:1.0;"/><text fill="#000000" font-family="sans-serif" font-size="13" lengthAdjust="spacing" textLength="24" x="28" y="58.0566">test</text><line style="stroke:#181818;stroke-width:1.0;" x1="26" x2="68" y1="110.1094" y2="110.1094"/><line style="stroke:#181818;stroke-width:1.0;" x1="68" x2="68" y1="110.1094" y2="123.1094"/><line style="stroke:#181818;stroke-width:1.0;" x1="27" x2="68" y1="123.1094" y2="123.1094"/><polygon fill="#181818" points="37,119.1094,27,123.1094,37,127.1094,33,123.1094" style="stroke:#181818;stroke-width:1.0;"/><text fill="#000000" font-family="sans-serif" font-size="13" lengthAdjust="spacing" textLength="32" x="33" y="105.3672">test2</text><!--SRC=[KrSiA4fCpqrKA4dDhr8eAIfDvL9FJ2x9B4iiILL8v4fKqBLJI5JGrhOgIIqkGN1rTHMi5412HW00]--></g></svg>