<svg xmlns="http://www.w3.org/2000/svg" xmlns:xlink="http://www.w3.org/1999/xlink" contentStyleType="text/css" height="178px" preserveAspectRatio="none" style="width:302px;height:178px;background:#FFFFFF;" version="1.1" viewBox="0 0 302 178" width="302px" zoomAndPan="magnify"><defs/><g><line style="stroke:#181818;stroke-width:0.5;stroke-dasharray:5.0,5.0;" x1="53" x2="53" y1="36.4883" y2="142.4199"/><line style="stroke:#181818;stroke-width:0.5;stroke-dasharray:5.0,5.0;" x1="101.5" x2="101.5" y1="36.4883" y2="142.4199"/><line style="stroke:#181818;stroke-width:0.5;stroke-dasharray:5.0,5.0;" x1="163" x2="163" y1="36.4883" y2="142.4199"/><line style="stroke:#181818;stroke-width:0.5;stroke-dasharray:5.0,5.0;" x1="272.5" x2="272.5" y1="36.4883" y2="142.4199"/><rect fill="#E2E2F0" height="30.4883" rx="2.5" ry="2.5" style="stroke:#181818;stroke-width:0.5;" width="37" x="34.5" y="5"/><text fill="#000000" font-family="sans-serif" font-size="14" lengthAdjust="spacing" textLength="23" x="41.5" y="25.5352">foo</text><rect fill="#E2E2F0" height="30.4883" rx="2.5" ry="2.5" style="stroke:#181818;stroke-width:0.5;" width="40" x="81.5" y="5"/><text fill="#000000" font-family="sans-serif" font-size="14" lengthAdjust="spacing" textLength="26" x="88.5" y="25.5352">Bob</text><rect fill="#E2E2F0" height="30.4883" rx="2.5" ry="2.5" style="stroke:#181818;stroke-width:0.5;" width="63" x="131.5" y="5"/><text fill="#000000" font-family="sans-serif" font-size="14" lengthAdjust="spacing" textLength="49" x="138.5" y="25.5352">Charlie</text><rect fill="#E2E2F0" height="30.4883" rx="2.5" ry="2.5" style="stroke:#181818;stroke-width:0.5;" width="47" x="249" y="5"/><text fill="#000000" font-family="sans-serif" font-size="14" lengthAdjust="spacing" textLength="33" x="256" y="25.5352">Alice</text><rect fill="#E2E2F0" height="30.4883" rx="2.5" ry="2.5" style="stroke:#181818;stroke-width:0.5;" width="37" x="34.5" y="142.4199"/><text fill="#000000" font-family="sans-serif" font-size="14" lengthAdjust="spacing" textLength="23" x="41.5" y="162.9551">foo</text><rect fill="#E2E2F0" height="30.4883" rx="2.5" ry="2.5" style="stroke:#181818;stroke-width:0.5;" width="40" x="81.5" y="142.4199"/><text fill="#000000" font-family="sans-serif" font-size="14" lengthAdjust="spacing" textLength="26" x="88.5" y="162.9551">Bob</text><rect fill="#E2E2F0" height="30.4883" rx="2.5" ry="2.5" style="stroke:#181818;stroke-width:0.5;" width="63" x="131.5" y="142.4199"/><text fill="#000000" font-family="sans-serif" font-size="14" lengthAdjust="spacing" textLength="49" x="138.5" y="162.9551">Charlie</text><rect fill="#E2E2F0" height="30.4883" rx="2.5" ry="2.5" style="stroke:#181818;stroke-width:0.5;" width="47" x="249" y="142.4199"/><text fill="#000000" font-family="sans-serif" font-size="14" lengthAdjust="spacing" textLength="33" x="256" y="162.9551">Alice</text><polygon fill="#181818" points="41,61.7988,51,65.7988,41,69.7988,45,65.7988" style="stroke:#181818;stroke-width:1.0;"/><line style="stroke:#181818;stroke-width:1.0;" x1="5" x2="47" y1="65.7988" y2="65.7988"/><text fill="#000000" font-family="sans-serif" font-size="13" lengthAdjust="spacing" textLength="24" x="12" y="61.0566">test</text><polygon fill="#181818" points="151,61.7988,161,65.7988,151,69.7988,155,65.7988" style="stroke:#181818;stroke-width:1.0;"/><line style="stroke:#181818;stroke-width:1.0;" x1="101.5" x2="157" y1="65.7988" y2="65.7988"/><path d="M85.5,65.7988 L153.5,65.7988 L153.5,73.1094 L143.5,83.1094 L85.5,83.1094 L85.5,65.7988 " fill="#EEEEEE" style="stroke:#000000;stroke-width:1.5;"/><rect fill="none" height="56.6211" style="stroke:#000000;stroke-width:1.5;" width="203" x="85.5" y="65.7988"/><text fill="#000000" font-family="sans-serif" font-size="13" font-weight="bold" lengthAdjust="spacing" textLength="23" x="100.5" y="79.3672">par</text><polygon fill="#181818" points="112.5,110.4199,102.5,114.4199,112.5,118.4199,108.5,114.4199" style="stroke:#181818;stroke-width:1.0;"/><line style="stroke:#181818;stroke-width:1.0;" x1="106.5" x2="271.5" y1="114.4199" y2="114.4199"/><text fill="#000000" font-family="sans-serif" font-size="13" lengthAdjust="spacing" textLength="147" x="118.5" y="109.6777">Authentication Request</text><polygon fill="#181818" points="260.5,61.7988,270.5,65.7988,260.5,69.7988,264.5,65.7988" style="stroke:#181818;stroke-width:1.0;"/><line style="stroke:#181818;stroke-width:1.0;" x1="53" x2="266.5" y1="65.7988" y2="65.7988"/><text fill="#000000" font-family="sans-serif" font-size="13" lengthAdjust="spacing" textLength="24" x="60" y="61.0566">test</text><!--SRC=[KomeIapFJLGeISslKYWfAatbKeZMjLD8oyzNi08A5fTmgIauvISf0CMSCnABSZ9JWG85YKLS2Y3Wc9EPd0gI0ognKd0iBSb8pIl9J4uioSpFKmXABIm56Q2k1jDAG65gNWhGS93LG8KGew5k0000]--></g></svg>