<svg xmlns="http://www.w3.org/2000/svg" xmlns:xlink="http://www.w3.org/1999/xlink" contentStyleType="text/css" height="673px" preserveAspectRatio="none" style="width:117px;height:673px;background:#FFFFFF;" version="1.1" viewBox="0 0 117 673" width="117px" zoomAndPan="magnify"><defs/><g><line style="stroke:#181818;stroke-width:0.5;stroke-dasharray:5.0,5.0;" x1="28.5" x2="28.5" y1="36.4883" y2="637.1445"/><line style="stroke:#181818;stroke-width:0.5;stroke-dasharray:5.0,5.0;" x1="82" x2="82" y1="36.4883" y2="637.1445"/><rect fill="#E2E2F0" height="30.4883" rx="2.5" ry="2.5" style="stroke:#181818;stroke-width:0.5;" width="47" x="5" y="5"/><text fill="#000000" font-family="sans-serif" font-size="14" lengthAdjust="spacing" textLength="33" x="12" y="25.5352">Alice</text><rect fill="#E2E2F0" height="30.4883" rx="2.5" ry="2.5" style="stroke:#181818;stroke-width:0.5;" width="40" x="62" y="5"/><text fill="#000000" font-family="sans-serif" font-size="14" lengthAdjust="spacing" textLength="26" x="69" y="25.5352">Bob</text><rect fill="#E2E2F0" height="30.4883" rx="2.5" ry="2.5" style="stroke:#181818;stroke-width:0.5;" width="47" x="5" y="637.1445"/><text fill="#000000" font-family="sans-serif" font-size="14" lengthAdjust="spacing" textLength="33" x="12" y="657.6797">Alice</text><rect fill="#E2E2F0" height="30.4883" rx="2.5" ry="2.5" style="stroke:#181818;stroke-width:0.5;" width="40" x="62" y="637.1445"/><text fill="#000000" font-family="sans-serif" font-size="14" lengthAdjust="spacing" textLength="26" x="69" y="657.6797">Bob</text><polygon fill="#181818" points="90,61.6211,100,65.6211,90,69.6211,94,65.6211" style="stroke:#181818;stroke-width:1.0;"/><line style="stroke:#181818;stroke-width:1.0;" x1="28.5" x2="96" y1="65.6211" y2="65.6211"/><text fill="#000000" font-family="monospace" font-size="13" lengthAdjust="spacing" textLength="24" x="35.5" y="60.5552">-&gt;]</text><line style="stroke:#181818;stroke-width:1.0;" x1="100" x2="90" y1="94.7539" y2="90.7539"/><line style="stroke:#181818;stroke-width:1.0;" x1="100" x2="90" y1="94.7539" y2="98.7539"/><line style="stroke:#181818;stroke-width:1.0;" x1="28.5" x2="101" y1="94.7539" y2="94.7539"/><text fill="#000000" font-family="monospace" font-size="13" lengthAdjust="spacing" textLength="32" x="35.5" y="89.688">-&gt;&gt;]</text><polygon fill="#181818" points="90,119.8867,100,123.8867,90,123.8867" style="stroke:#181818;stroke-width:1.0;"/><line style="stroke:#181818;stroke-width:1.0;" x1="28.5" x2="101" y1="123.8867" y2="123.8867"/><text fill="#000000" font-family="monospace" font-size="13" lengthAdjust="spacing" textLength="24" x="35.5" y="118.8208">-\]</text><line style="stroke:#181818;stroke-width:1.0;" x1="100" x2="90" y1="153.0195" y2="149.0195"/><line style="stroke:#181818;stroke-width:1.0;" x1="28.5" x2="101" y1="153.0195" y2="153.0195"/><text fill="#000000" font-family="monospace" font-size="13" lengthAdjust="spacing" textLength="32" x="35.5" y="147.9536">-\\]</text><polygon fill="#181818" points="90,182.1523,100,182.1523,90,186.1523" style="stroke:#181818;stroke-width:1.0;"/><line style="stroke:#181818;stroke-width:1.0;" x1="28.5" x2="101" y1="182.1523" y2="182.1523"/><text fill="#000000" font-family="monospace" font-size="13" lengthAdjust="spacing" textLength="24" x="35.5" y="177.0864">-/]</text><line style="stroke:#181818;stroke-width:1.0;" x1="100" x2="90" y1="211.2852" y2="215.2852"/><line style="stroke:#181818;stroke-width:1.0;" x1="28.5" x2="101" y1="211.2852" y2="211.2852"/><text fill="#000000" font-family="monospace" font-size="13" lengthAdjust="spacing" textLength="32" x="35.5" y="206.2192">-//]</text><line style="stroke:#181818;stroke-width:2.0;" x1="84" x2="94" y1="235.418" y2="245.418"/><line style="stroke:#181818;stroke-width:2.0;" x1="84" x2="94" y1="245.418" y2="235.418"/><line style="stroke:#181818;stroke-width:1.0;" x1="28.5" x2="89" y1="240.418" y2="240.418"/><text fill="#000000" font-family="monospace" font-size="13" lengthAdjust="spacing" textLength="32" x="35.5" y="235.3521">-&gt;x]</text><line style="stroke:#181818;stroke-width:2.0;" x1="35.5" x2="45.5" y1="264.5508" y2="274.5508"/><line style="stroke:#181818;stroke-width:2.0;" x1="35.5" x2="45.5" y1="274.5508" y2="264.5508"/><polygon fill="#181818" points="90,265.5508,100,269.5508,90,273.5508,94,269.5508" style="stroke:#181818;stroke-width:1.0;"/><line style="stroke:#181818;stroke-width:1.0;" x1="40.5" x2="96" y1="269.5508" y2="269.5508"/><text fill="#000000" font-family="monospace" font-size="13" lengthAdjust="spacing" textLength="32" x="45.5" y="264.4849">x-&gt;]</text><ellipse cx="28" cy="297.9336" fill="none" rx="4" ry="4" style="stroke:#181818;stroke-width:1.5;"/><polygon fill="#181818" points="90,294.6836,100,298.6836,90,302.6836,94,298.6836" style="stroke:#181818;stroke-width:1.0;"/><line style="stroke:#181818;stroke-width:1.0;" x1="32.5" x2="96" y1="298.6836" y2="298.6836"/><text fill="#000000" font-family="monospace" font-size="13" lengthAdjust="spacing" textLength="32" x="35.5" y="293.6177">o-&gt;]</text><ellipse cx="95.5" cy="327.0664" fill="none" rx="4" ry="4" style="stroke:#181818;stroke-width:1.5;"/><polygon fill="#181818" points="78.5,323.8164,88.5,327.8164,78.5,331.8164,82.5,327.8164" style="stroke:#181818;stroke-width:1.0;"/><line style="stroke:#181818;stroke-width:1.0;" x1="28.5" x2="84.5" y1="327.8164" y2="327.8164"/><text fill="#000000" font-family="monospace" font-size="13" lengthAdjust="spacing" textLength="32" x="35.5" y="322.7505">-&gt;o]</text><ellipse cx="28" cy="356.1992" fill="none" rx="4" ry="4" style="stroke:#181818;stroke-width:1.5;"/><ellipse cx="95.5" cy="356.1992" fill="none" rx="4" ry="4" style="stroke:#181818;stroke-width:1.5;"/><polygon fill="#181818" points="78.5,352.9492,88.5,356.9492,78.5,360.9492,82.5,356.9492" style="stroke:#181818;stroke-width:1.0;"/><line style="stroke:#181818;stroke-width:1.0;" x1="32.5" x2="84.5" y1="356.9492" y2="356.9492"/><text fill="#000000" font-family="monospace" font-size="13" lengthAdjust="spacing" textLength="40" x="35.5" y="351.8833">o-&gt;o]</text><polygon fill="#181818" points="39.5,382.082,29.5,386.082,39.5,390.082,35.5,386.082" style="stroke:#181818;stroke-width:1.0;"/><polygon fill="#181818" points="90,382.082,100,386.082,90,390.082,94,386.082" style="stroke:#181818;stroke-width:1.0;"/><line style="stroke:#181818;stroke-width:1.0;" x1="33.5" x2="96" y1="386.082" y2="386.082"/><text fill="#000000" font-family="monospace" font-size="13" lengthAdjust="spacing" textLength="32" x="45.5" y="381.0161">&lt;-&gt;]</text><ellipse cx="28" cy="414.4648" fill="none" rx="4" ry="4" style="stroke:#181818;stroke-width:1.5;"/><polygon fill="#181818" points="45,411.2148,35,415.2148,45,419.2148,41,415.2148" style="stroke:#181818;stroke-width:1.0;"/><ellipse cx="95.5" cy="414.4648" fill="none" rx="4" ry="4" style="stroke:#181818;stroke-width:1.5;"/><polygon fill="#181818" points="78.5,411.2148,88.5,415.2148,78.5,419.2148,82.5,415.2148" style="stroke:#181818;stroke-width:1.0;"/><line style="stroke:#181818;stroke-width:1.0;" x1="39" x2="84.5" y1="415.2148" y2="415.2148"/><text fill="#000000" font-family="monospace" font-size="13" lengthAdjust="spacing" textLength="48" x="45.5" y="410.1489">o&lt;-&gt;o]</text><line style="stroke:#181818;stroke-width:2.0;" x1="35.5" x2="45.5" y1="439.3477" y2="449.3477"/><line style="stroke:#181818;stroke-width:2.0;" x1="35.5" x2="45.5" y1="449.3477" y2="439.3477"/><line style="stroke:#181818;stroke-width:2.0;" x1="84" x2="94" y1="439.3477" y2="449.3477"/><line style="stroke:#181818;stroke-width:2.0;" x1="84" x2="94" y1="449.3477" y2="439.3477"/><line style="stroke:#181818;stroke-width:1.0;" x1="40.5" x2="89" y1="444.3477" y2="444.3477"/><text fill="#000000" font-family="monospace" font-size="13" lengthAdjust="spacing" textLength="48" x="45.5" y="439.2817">x&lt;-&gt;x]</text><ellipse cx="95.5" cy="472.7305" fill="none" rx="4" ry="4" style="stroke:#181818;stroke-width:1.5;"/><line style="stroke:#181818;stroke-width:1.0;" x1="88.5" x2="78.5" y1="473.4805" y2="469.4805"/><line style="stroke:#181818;stroke-width:1.0;" x1="88.5" x2="78.5" y1="473.4805" y2="477.4805"/><line style="stroke:#181818;stroke-width:1.0;" x1="28.5" x2="89.5" y1="473.4805" y2="473.4805"/><text fill="#000000" font-family="monospace" font-size="13" lengthAdjust="spacing" textLength="40" x="35.5" y="468.4146">-&gt;&gt;o]</text><ellipse cx="95.5" cy="501.8633" fill="none" rx="4" ry="4" style="stroke:#181818;stroke-width:1.5;"/><polygon fill="#181818" points="78.5,498.6133,88.5,502.6133,78.5,502.6133" style="stroke:#181818;stroke-width:1.0;"/><line style="stroke:#181818;stroke-width:1.0;" x1="28.5" x2="89.5" y1="502.6133" y2="502.6133"/><text fill="#000000" font-family="monospace" font-size="13" lengthAdjust="spacing" textLength="32" x="35.5" y="497.5474">-\o]</text><ellipse cx="95.5" cy="530.9961" fill="none" rx="4" ry="4" style="stroke:#181818;stroke-width:1.5;"/><line style="stroke:#181818;stroke-width:1.0;" x1="88.5" x2="78.5" y1="531.7461" y2="527.7461"/><line style="stroke:#181818;stroke-width:1.0;" x1="28.5" x2="89.5" y1="531.7461" y2="531.7461"/><text fill="#000000" font-family="monospace" font-size="13" lengthAdjust="spacing" textLength="40" x="35.5" y="526.6802">-\\o]</text><ellipse cx="95.5" cy="560.1289" fill="none" rx="4" ry="4" style="stroke:#181818;stroke-width:1.5;"/><polygon fill="#181818" points="78.5,560.8789,88.5,560.8789,78.5,564.8789" style="stroke:#181818;stroke-width:1.0;"/><line style="stroke:#181818;stroke-width:1.0;" x1="28.5" x2="89.5" y1="560.8789" y2="560.8789"/><text fill="#000000" font-family="monospace" font-size="13" lengthAdjust="spacing" textLength="32" x="35.5" y="555.813">-/o]</text><ellipse cx="95.5" cy="589.2617" fill="none" rx="4" ry="4" style="stroke:#181818;stroke-width:1.5;"/><line style="stroke:#181818;stroke-width:1.0;" x1="88.5" x2="78.5" y1="590.0117" y2="594.0117"/><line style="stroke:#181818;stroke-width:1.0;" x1="28.5" x2="89.5" y1="590.0117" y2="590.0117"/><text fill="#000000" font-family="monospace" font-size="13" lengthAdjust="spacing" textLength="40" x="35.5" y="584.9458">-//o]</text><line style="stroke:#181818;stroke-width:2.0;" x1="35.5" x2="45.5" y1="614.1445" y2="624.1445"/><line style="stroke:#181818;stroke-width:2.0;" x1="35.5" x2="45.5" y1="624.1445" y2="614.1445"/><ellipse cx="95.5" cy="618.3945" fill="none" rx="4" ry="4" style="stroke:#181818;stroke-width:1.5;"/><polygon fill="#181818" points="78.5,615.1445,88.5,619.1445,78.5,623.1445,82.5,619.1445" style="stroke:#181818;stroke-width:1.0;"/><line style="stroke:#181818;stroke-width:1.0;" x1="40.5" x2="84.5" y1="619.1445" y2="619.1445"/><text fill="#000000" font-family="monospace" font-size="13" lengthAdjust="spacing" textLength="40" x="45.5" y="614.0786">x-&gt;o]</text><!--SRC=[LP312i8m44Jl_Oerzx9t2GNzZlGGIv62kgL627wzxMv2njpcPNOpcTEwnVipKfhbIsdxpDqQjxHConfVYIwFPPeflYd-uQlSY0vywoBrmqXwpkIS2UUKbmlZXp0Uq1-QFmJmX_sCnXdztFpCu5THtituRguyzv37X791BettW-0U0RzT5Fykb7lSus6_BmFgLs5vV4cgULJKtjf-4wKVp1EazHd0V_GcjJWSu3R030CgQa6Dv_An7m00]--></g></svg>