<svg xmlns="http://www.w3.org/2000/svg" xmlns:xlink="http://www.w3.org/1999/xlink" contentStyleType="text/css" height="285px" preserveAspectRatio="none" style="width:337px;height:285px;background:#FFFFFF;" version="1.1" viewBox="0 0 337 285" width="337px" zoomAndPan="magnify"><defs/><g><line style="stroke:#181818;stroke-width:0.5;stroke-dasharray:5.0,5.0;" x1="82" x2="82" y1="36.4883" y2="249.041"/><line style="stroke:#181818;stroke-width:0.5;stroke-dasharray:5.0,5.0;" x1="265" x2="265" y1="36.4883" y2="249.041"/><rect fill="#E2E2F0" height="30.4883" rx="2.5" ry="2.5" style="stroke:#181818;stroke-width:0.5;" width="40" x="62" y="5"/><text fill="#000000" font-family="sans-serif" font-size="14" lengthAdjust="spacing" textLength="26" x="69" y="25.5352">Bob</text><rect fill="#E2E2F0" height="30.4883" rx="2.5" ry="2.5" style="stroke:#181818;stroke-width:0.5;" width="47" x="241.5" y="5"/><text fill="#000000" font-family="sans-serif" font-size="14" lengthAdjust="spacing" textLength="33" x="248.5" y="25.5352">Alice</text><rect fill="#E2E2F0" height="30.4883" rx="2.5" ry="2.5" style="stroke:#181818;stroke-width:0.5;" width="40" x="62" y="249.041"/><text fill="#000000" font-family="sans-serif" font-size="14" lengthAdjust="spacing" textLength="26" x="69" y="269.5762">Bob</text><rect fill="#E2E2F0" height="30.4883" rx="2.5" ry="2.5" style="stroke:#181818;stroke-width:0.5;" width="47" x="241.5" y="249.041"/><text fill="#000000" font-family="sans-serif" font-size="14" lengthAdjust="spacing" textLength="33" x="248.5" y="269.5762">Alice</text><path d="M8,48.4883 L82,48.4883 L82,55.7988 L72,65.7988 L8,65.7988 L8,48.4883 " fill="#EEEEEE" style="stroke:#000000;stroke-width:1.5;"/><rect fill="none" height="176.5527" style="stroke:#000000;stroke-width:1.5;" width="323" x="8" y="48.4883"/><text fill="#000000" font-family="sans-serif" font-size="13" font-weight="bold" lengthAdjust="spacing" textLength="29" x="23" y="62.0566">loop</text><path d="M27,79.7988 L101,79.7988 L101,87.1094 L91,97.1094 L27,97.1094 L27,79.7988 " fill="#EEEEEE" style="stroke:#000000;stroke-width:1.5;"/><rect fill="none" height="131.2422" style="stroke:#000000;stroke-width:1.5;" width="279" x="27" y="79.7988"/><text fill="#000000" font-family="sans-serif" font-size="13" font-weight="bold" lengthAdjust="spacing" textLength="29" x="42" y="93.3672">loop</text><polygon fill="#181818" points="253,124.4199,263,128.4199,253,132.4199,257,128.4199" style="stroke:#181818;stroke-width:1.0;"/><line style="stroke:#181818;stroke-width:1.0;" x1="82" x2="259" y1="128.4199" y2="128.4199"/><text fill="#000000" font-family="sans-serif" font-size="13" lengthAdjust="spacing" textLength="31" x="89" y="123.6777">hello</text><path d="M46,140.4199 L113,140.4199 L113,147.7305 L103,157.7305 L46,157.7305 L46,140.4199 " fill="#EEEEEE" style="stroke:#000000;stroke-width:1.5;"/><rect fill="none" height="56.6211" style="stroke:#000000;stroke-width:1.5;" width="235" x="46" y="140.4199"/><text fill="#000000" font-family="sans-serif" font-size="13" font-weight="bold" lengthAdjust="spacing" textLength="22" x="61" y="153.9883">opt</text><ellipse cx="67.5" cy="188.291" fill="none" rx="4" ry="4" style="stroke:#181818;stroke-width:1.5;"/><polygon fill="#181818" points="253,185.041,263,189.041,253,193.041,257,189.041" style="stroke:#181818;stroke-width:1.0;"/><line style="stroke:#181818;stroke-width:1.0;" x1="72" x2="259" y1="189.041" y2="189.041"/><text fill="#000000" font-family="sans-serif" font-size="13" lengthAdjust="spacing" textLength="179" x="75" y="184.2988">short arrow, longer message</text><!--SRC=[ZKix2W913ErpYbXDenUmKBGMF4DSm-n0TX8o4S7JExiiB7OMxptURsTEUI8CrW-6lnYCFCfGZ6hWLHy__Y9bOBYf6iXClJ-SbX2FEBA8Wbh0MRUqZUg1vAxlFOhMp8uJjqQPWUiJvttN1UdUJVhtdTRx5m00]--></g></svg>