<svg xmlns="http://www.w3.org/2000/svg" xmlns:xlink="http://www.w3.org/1999/xlink" contentStyleType="text/css" height="271px" preserveAspectRatio="none" style="width:217px;height:271px;background:#FFFFFF;" version="1.1" viewBox="0 0 217 271" width="217px" zoomAndPan="magnify"><defs/><g><line style="stroke:#181818;stroke-width:0.5;stroke-dasharray:5.0,5.0;" x1="36" x2="36" y1="36.4883" y2="235.4199"/><rect fill="#808000" height="190.9316" style="stroke:#181818;stroke-width:1.0;" width="10" x="31" y="44.4883"/><rect fill="#6B8E23" height="98.6211" style="stroke:#181818;stroke-width:1.0;" width="10" x="36" y="63.4883"/><rect fill="#3CB371" height="29.3105" style="stroke:#181818;stroke-width:1.0;" width="10" x="41" y="90.4883"/><rect fill="#E2E2F0" height="30.4883" rx="2.5" ry="2.5" style="stroke:#181818;stroke-width:0.5;" width="62" x="5" y="5"/><text fill="#000000" font-family="sans-serif" font-size="14" lengthAdjust="spacing" textLength="48" x="12" y="25.5352">actor 1</text><rect fill="#E2E2F0" height="30.4883" rx="2.5" ry="2.5" style="stroke:#181818;stroke-width:0.5;" width="62" x="5" y="235.4199"/><text fill="#000000" font-family="sans-serif" font-size="14" lengthAdjust="spacing" textLength="48" x="12" y="255.9551">actor 1</text><line style="stroke:none;stroke-width:1.0;" x1="41" x2="88" y1="50.4883" y2="50.4883"/><line style="stroke:none;stroke-width:1.0;" x1="88" x2="88" y1="50.4883" y2="63.4883"/><line style="stroke:none;stroke-width:1.0;" x1="47" x2="88" y1="63.4883" y2="63.4883"/><polygon fill="none" points="57,59.4883,47,63.4883,57,67.4883,53,63.4883" style="stroke:none;stroke-width:1.0;"/><line style="stroke:none;stroke-width:1.0;" x1="46" x2="93" y1="77.4883" y2="77.4883"/><line style="stroke:none;stroke-width:1.0;" x1="93" x2="93" y1="77.4883" y2="90.4883"/><line style="stroke:none;stroke-width:1.0;" x1="52" x2="93" y1="90.4883" y2="90.4883"/><polygon fill="none" points="62,86.4883,52,90.4883,62,94.4883,58,90.4883" style="stroke:none;stroke-width:1.0;"/><line style="stroke:none;stroke-width:1.0;" x1="51" x2="93" y1="119.7988" y2="119.7988"/><line style="stroke:none;stroke-width:1.0;" x1="93" x2="93" y1="119.7988" y2="132.7988"/><line style="stroke:none;stroke-width:1.0;" x1="46" x2="93" y1="132.7988" y2="132.7988"/><polygon fill="none" points="56,128.7988,46,132.7988,56,136.7988,52,132.7988" style="stroke:none;stroke-width:1.0;"/><text fill="#000000" font-family="sans-serif" font-size="13" lengthAdjust="spacing" textLength="152" x="58" y="115.0566">actor1 sub-sub-activity</text><line style="stroke:none;stroke-width:1.0;" x1="46" x2="88" y1="162.1094" y2="162.1094"/><line style="stroke:none;stroke-width:1.0;" x1="88" x2="88" y1="162.1094" y2="175.1094"/><line style="stroke:none;stroke-width:1.0;" x1="41" x2="88" y1="175.1094" y2="175.1094"/><polygon fill="none" points="51,171.1094,41,175.1094,51,179.1094,47,175.1094" style="stroke:none;stroke-width:1.0;"/><text fill="#000000" font-family="sans-serif" font-size="13" lengthAdjust="spacing" textLength="121" x="53" y="157.3672">actor1 sub-activity</text><line style="stroke:none;stroke-width:1.0;" x1="41" x2="83" y1="204.4199" y2="204.4199"/><line style="stroke:none;stroke-width:1.0;" x1="83" x2="83" y1="204.4199" y2="217.4199"/><line style="stroke:none;stroke-width:1.0;" x1="42" x2="83" y1="217.4199" y2="217.4199"/><polygon fill="none" points="52,213.4199,42,217.4199,52,221.4199,48,217.4199" style="stroke:none;stroke-width:1.0;"/><text fill="#000000" font-family="sans-serif" font-size="13" lengthAdjust="spacing" textLength="90" x="48" y="199.6777">actor1 activity</text><!--SRC=[KomeIapFJLGeISslKYWfAatbIamkoInBB4bLK0AoyeiK39KKbFrpCijIkH02kj7AQM1WO11hXwJG2hTkbwB49B9Dy4rDoIpD3KvDT2zAJSqZR8oL0fXbg51ScgGBmc13CqigkL9ICSqdqJngcGKp1m00]--></g></svg>