<svg xmlns="http://www.w3.org/2000/svg" xmlns:xlink="http://www.w3.org/1999/xlink" contentStyleType="text/css" height="413px" preserveAspectRatio="none" style="width:291px;height:413px;background:#FFFFFF;" version="1.1" viewBox="0 0 291 413" width="291px" zoomAndPan="magnify"><defs/><g><rect fill="#DDDDDD" height="401.4609" style="stroke:#181818;stroke-width:0.5;" width="68" x="31" y="6"/><rect fill="#FFC0CB" height="56.6211" style="stroke:#FFC0CB;stroke-width:1.0;" width="126" x="125" y="110.7988"/><rect fill="#FFC0CB" height="56.6211" style="stroke:#FFC0CB;stroke-width:1.0;" width="202" x="49" y="289.3516"/><line style="stroke:#181818;stroke-width:0.5;stroke-dasharray:5.0,5.0;" x1="65" x2="65" y1="41.4883" y2="369.9727"/><line style="stroke:#181818;stroke-width:0.5;stroke-dasharray:5.0,5.0;" x1="184" x2="184" y1="41.4883" y2="369.9727"/><line style="stroke:#181818;stroke-width:0.5;stroke-dasharray:5.0,5.0;" x1="253" x2="253" y1="41.4883" y2="369.9727"/><rect fill="#E2E2F0" height="30.4883" rx="2.5" ry="2.5" style="stroke:#181818;stroke-width:0.5;" width="24" x="53" y="10"/><text fill="#000000" font-family="sans-serif" font-size="14" lengthAdjust="spacing" textLength="10" x="60" y="30.5352">A</text><rect fill="#E2E2F0" height="30.4883" rx="2.5" ry="2.5" style="stroke:#181818;stroke-width:0.5;" width="22" x="173" y="10"/><text fill="#000000" font-family="sans-serif" font-size="14" lengthAdjust="spacing" textLength="8" x="180" y="30.5352">B</text><rect fill="#E2E2F0" height="30.4883" rx="2.5" ry="2.5" style="stroke:#181818;stroke-width:0.5;" width="24" x="241" y="10"/><text fill="#000000" font-family="sans-serif" font-size="14" lengthAdjust="spacing" textLength="10" x="248" y="30.5352">C</text><rect fill="#E2E2F0" height="30.4883" rx="2.5" ry="2.5" style="stroke:#181818;stroke-width:0.5;" width="24" x="53" y="369.9727"/><text fill="#000000" font-family="sans-serif" font-size="14" lengthAdjust="spacing" textLength="10" x="60" y="390.5078">A</text><rect fill="#E2E2F0" height="30.4883" rx="2.5" ry="2.5" style="stroke:#181818;stroke-width:0.5;" width="22" x="173" y="369.9727"/><text fill="#000000" font-family="sans-serif" font-size="14" lengthAdjust="spacing" textLength="8" x="180" y="390.5078">B</text><rect fill="#E2E2F0" height="30.4883" rx="2.5" ry="2.5" style="stroke:#181818;stroke-width:0.5;" width="24" x="241" y="369.9727"/><text fill="#000000" font-family="sans-serif" font-size="14" lengthAdjust="spacing" textLength="10" x="248" y="390.5078">C</text><rect fill="#EEEEEE" height="3" style="stroke:#EEEEEE;stroke-width:1.0;" width="279" x="5" y="70.1436"/><line style="stroke:#000000;stroke-width:1.0;" x1="5" x2="284" y1="70.1436" y2="70.1436"/><line style="stroke:#000000;stroke-width:1.0;" x1="5" x2="284" y1="73.1436" y2="73.1436"/><rect fill="#EEEEEE" height="23.3105" style="stroke:#000000;stroke-width:2.0;" width="66" x="111.5" y="59.4883"/><text fill="#000000" font-family="sans-serif" font-size="13" font-weight="bold" lengthAdjust="spacing" textLength="48" x="117.5" y="76.0566">divider</text><polygon fill="#181818" points="172,94.7988,182,98.7988,172,102.7988,176,98.7988" style="stroke:#181818;stroke-width:1.0;"/><line style="stroke:#181818;stroke-width:1.0;" x1="65" x2="178" y1="98.7988" y2="98.7988"/><polygon fill="#181818" points="241,94.7988,251,98.7988,241,102.7988,245,98.7988" style="stroke:#181818;stroke-width:1.0;"/><line style="stroke:#181818;stroke-width:1.0;" x1="184" x2="247" y1="98.7988" y2="98.7988"/><path d="M125,110.7988 L192,110.7988 L192,118.1094 L182,128.1094 L125,128.1094 L125,110.7988 " fill="none" style="stroke:#000000;stroke-width:1.5;"/><rect fill="none" height="56.6211" style="stroke:#000000;stroke-width:1.5;" width="126" x="125" y="110.7988"/><text fill="#000000" font-family="sans-serif" font-size="13" font-weight="bold" lengthAdjust="spacing" textLength="22" x="140" y="124.3672">opt</text><text fill="#000000" font-family="sans-serif" font-size="11" font-weight="bold" lengthAdjust="spacing" textLength="28" x="207" y="123.4336">[bad]</text><ellipse cx="146.5" cy="158.6699" fill="none" rx="4" ry="4" style="stroke:#181818;stroke-width:1.5;"/><polygon fill="#181818" points="172,155.4199,182,159.4199,172,163.4199,176,159.4199" style="stroke:#181818;stroke-width:1.0;"/><line style="stroke:#181818;stroke-width:1.0;" x1="151" x2="178" y1="159.4199" y2="159.4199"/><text fill="#000000" font-family="sans-serif" font-size="13" lengthAdjust="spacing" textLength="19" x="154" y="154.6777">Pre</text><polygon fill="#181818" points="195,155.4199,185,159.4199,195,163.4199,191,159.4199" style="stroke:#181818;stroke-width:1.0;"/><ellipse cx="228.5" cy="158.6699" fill="none" rx="4" ry="4" style="stroke:#181818;stroke-width:1.5;"/><line style="stroke:#181818;stroke-width:1.0;" x1="189" x2="224" y1="159.4199" y2="159.4199"/><text fill="#000000" font-family="sans-serif" font-size="13" lengthAdjust="spacing" textLength="27" x="201" y="154.6777">yolo</text><path d="M125,185.4199 L192,185.4199 L192,192.7305 L182,202.7305 L125,202.7305 L125,185.4199 " fill="none" style="stroke:#000000;stroke-width:1.5;"/><rect fill="none" height="56.6211" style="stroke:#000000;stroke-width:1.5;" width="150" x="125" y="185.4199"/><text fill="#000000" font-family="sans-serif" font-size="13" font-weight="bold" lengthAdjust="spacing" textLength="22" x="140" y="198.9883">opt</text><text fill="#000000" font-family="sans-serif" font-size="11" font-weight="bold" lengthAdjust="spacing" textLength="52" x="207" y="198.0547">[expand?]</text><ellipse cx="10.5" cy="233.291" fill="none" rx="4" ry="4" style="stroke:#181818;stroke-width:1.5;"/><polygon fill="#181818" points="172,230.041,182,234.041,172,238.041,176,234.041" style="stroke:#181818;stroke-width:1.0;"/><line style="stroke:#181818;stroke-width:1.0;" x1="15" x2="178" y1="234.041" y2="234.041"/><text fill="#000000" font-family="sans-serif" font-size="13" lengthAdjust="spacing" textLength="19" x="154" y="229.2988">Pre</text><polygon fill="#181818" points="195,230.041,185,234.041,195,238.041,191,234.041" style="stroke:#181818;stroke-width:1.0;"/><ellipse cx="228.5" cy="233.291" fill="none" rx="4" ry="4" style="stroke:#181818;stroke-width:1.5;"/><line style="stroke:#181818;stroke-width:1.0;" x1="189" x2="224" y1="234.041" y2="234.041"/><text fill="#000000" font-family="sans-serif" font-size="13" lengthAdjust="spacing" textLength="27" x="201" y="229.2988">yolo</text><ellipse cx="10.5" cy="276.6016" fill="none" rx="4" ry="4" style="stroke:#181818;stroke-width:1.5;"/><polygon fill="#181818" points="172,273.3516,182,277.3516,172,281.3516,176,277.3516" style="stroke:#181818;stroke-width:1.0;"/><line style="stroke:#181818;stroke-width:1.0;" x1="15" x2="178" y1="277.3516" y2="277.3516"/><text fill="#000000" font-family="sans-serif" font-size="13" lengthAdjust="spacing" textLength="19" x="154" y="272.6094">Pre</text><polygon fill="#181818" points="195,273.3516,185,277.3516,195,281.3516,191,277.3516" style="stroke:#181818;stroke-width:1.0;"/><ellipse cx="228.5" cy="276.6016" fill="none" rx="4" ry="4" style="stroke:#181818;stroke-width:1.5;"/><line style="stroke:#181818;stroke-width:1.0;" x1="189" x2="224" y1="277.3516" y2="277.3516"/><text fill="#000000" font-family="sans-serif" font-size="13" lengthAdjust="spacing" textLength="27" x="201" y="272.6094">yolo</text><path d="M49,289.3516 L116,289.3516 L116,296.6621 L106,306.6621 L49,306.6621 L49,289.3516 " fill="none" style="stroke:#000000;stroke-width:1.5;"/><rect fill="none" height="56.6211" style="stroke:#000000;stroke-width:1.5;" width="202" x="49" y="289.3516"/><text fill="#000000" font-family="sans-serif" font-size="13" font-weight="bold" lengthAdjust="spacing" textLength="22" x="64" y="302.9199">opt</text><text fill="#000000" font-family="sans-serif" font-size="11" font-weight="bold" lengthAdjust="spacing" textLength="33" x="131" y="301.9863">[bad?]</text><ellipse cx="64.5" cy="337.2227" fill="none" rx="4" ry="4" style="stroke:#181818;stroke-width:1.5;"/><polygon fill="#181818" points="172,333.9727,182,337.9727,172,341.9727,176,337.9727" style="stroke:#181818;stroke-width:1.0;"/><line style="stroke:#181818;stroke-width:1.0;" x1="69" x2="178" y1="337.9727" y2="337.9727"/><polygon fill="#181818" points="195,333.9727,185,337.9727,195,341.9727,191,337.9727" style="stroke:#181818;stroke-width:1.0;"/><ellipse cx="277.5" cy="337.2227" fill="none" rx="4" ry="4" style="stroke:#181818;stroke-width:1.5;"/><line style="stroke:#181818;stroke-width:1.0;" x1="189" x2="273" y1="337.9727" y2="337.9727"/><text fill="#000000" font-family="sans-serif" font-size="13" lengthAdjust="spacing" textLength="27" x="201" y="333.2305">yolo</text><!--SRC=[XO_D2i8m48Jl-nGZWZsLgYSHQsbzWTx5msg216qsn2ZLfpSj-0EYtlPdlc5cu3pl6qRGSaFmPqsdWx6EFJUesGUpCuvjg5afO_UOpDx-bRIF-tHCMsd9lGYKbETGvcAKziXpqbQXqm0bqYKg6g7gXXM92yFWsPuYhYCvTCOUi6M5B36sZvPaL4X7OOxQwvvTf5B4zIf7wSm_R7GRSwY2rl_0duAluOg-YJohH6Zpvde7]--></g></svg>