<svg xmlns="http://www.w3.org/2000/svg" xmlns:xlink="http://www.w3.org/1999/xlink" contentStyleType="text/css" height="412px" preserveAspectRatio="none" style="width:156px;height:412px;background:#FFFFFF;" version="1.1" viewBox="0 0 156 412" width="156px" zoomAndPan="magnify"><defs/><g><line style="stroke:#181818;stroke-width:0.5;stroke-dasharray:5.0,5.0;" x1="25" x2="25" y1="36.4883" y2="376.2832"/><rect fill="#FFFFFF" height="21.3105" style="stroke:#181818;stroke-width:1.0;" width="10" x="20" y="79.7988"/><rect fill="#FFFFFF" height="21.3105" style="stroke:#181818;stroke-width:1.0;" width="10" x="20" y="151.4199"/><rect fill="#FFFFFF" height="21.3105" style="stroke:#181818;stroke-width:1.0;" width="10" x="20" y="223.041"/><rect fill="#FFFFFF" height="21.3105" style="stroke:#181818;stroke-width:1.0;" width="10" x="20" y="294.6621"/><line style="stroke:#181818;stroke-width:0.5;stroke-dasharray:5.0,5.0;" x1="95" x2="95" y1="36.4883" y2="376.2832"/><rect fill="#FFFFFF" height="29.3105" style="stroke:#181818;stroke-width:1.0;" width="10" x="90" y="101.1094"/><rect fill="#FFFFFF" height="29.3105" style="stroke:#181818;stroke-width:1.0;" width="10" x="90" y="172.7305"/><rect fill="#FFFFFF" height="29.3105" style="stroke:#181818;stroke-width:1.0;" width="10" x="90" y="244.3516"/><rect fill="#FFFFFF" height="29.3105" style="stroke:#181818;stroke-width:1.0;" width="10" x="90" y="315.9727"/><rect fill="#E2E2F0" height="30.4883" rx="2.5" ry="2.5" style="stroke:#181818;stroke-width:0.5;" width="40" x="5" y="5"/><text fill="#000000" font-family="sans-serif" font-size="14" lengthAdjust="spacing" textLength="26" x="12" y="25.5352">Bob</text><rect fill="#E2E2F0" height="30.4883" rx="2.5" ry="2.5" style="stroke:#181818;stroke-width:0.5;" width="47" x="71.5" y="5"/><text fill="#000000" font-family="sans-serif" font-size="14" lengthAdjust="spacing" textLength="33" x="78.5" y="25.5352">Alice</text><rect fill="#E2E2F0" height="30.4883" rx="2.5" ry="2.5" style="stroke:#181818;stroke-width:0.5;" width="40" x="5" y="376.2832"/><text fill="#000000" font-family="sans-serif" font-size="14" lengthAdjust="spacing" textLength="26" x="12" y="396.8184">Bob</text><rect fill="#E2E2F0" height="30.4883" rx="2.5" ry="2.5" style="stroke:#181818;stroke-width:0.5;" width="47" x="71.5" y="376.2832"/><text fill="#000000" font-family="sans-serif" font-size="14" lengthAdjust="spacing" textLength="33" x="78.5" y="396.8184">Alice</text><path d="M8.25,49.4883 L8.25,74.4883 L111.25,74.4883 L111.25,59.4883 L101.25,49.4883 L8.25,49.4883 " fill="#FEFFDD" style="stroke:#181818;stroke-width:0.5;"/><path d="M101.25,49.4883 L101.25,59.4883 L111.25,59.4883 L101.25,49.4883 " fill="#FEFFDD" style="stroke:#181818;stroke-width:0.5;"/><text fill="#000000" font-family="sans-serif" font-size="13" lengthAdjust="spacing" textLength="56" x="27.5" y="67.0566">teoz true</text><polygon fill="#181818" points="78,97.1094,88,101.1094,78,105.1094,82,101.1094" style="stroke:#181818;stroke-width:1.0;"/><line style="stroke:#181818;stroke-width:1.0;" x1="30" x2="84" y1="101.1094" y2="101.1094"/><text fill="#000000" font-family="sans-serif" font-size="13" lengthAdjust="spacing" textLength="41" x="37" y="96.3672">not ok</text><line style="stroke:#181818;stroke-width:1.0;" x1="100" x2="142" y1="130.4199" y2="130.4199"/><line style="stroke:#181818;stroke-width:1.0;" x1="142" x2="142" y1="130.4199" y2="143.4199"/><line style="stroke:#181818;stroke-width:1.0;" x1="95" x2="142" y1="143.4199" y2="143.4199"/><polygon fill="#181818" points="105,139.4199,95,143.4199,105,147.4199,101,143.4199" style="stroke:#181818;stroke-width:1.0;"/><text fill="#000000" font-family="sans-serif" font-size="13" lengthAdjust="spacing" textLength="42" x="107" y="125.6777">style 1</text><polygon fill="#181818" points="78,168.7305,88,172.7305,78,176.7305,82,172.7305" style="stroke:#181818;stroke-width:1.0;"/><line style="stroke:#181818;stroke-width:1.0;" x1="30" x2="84" y1="172.7305" y2="172.7305"/><text fill="#000000" font-family="sans-serif" font-size="13" lengthAdjust="spacing" textLength="41" x="37" y="167.9883">not ok</text><line style="stroke:#181818;stroke-width:1.0;" x1="100" x2="142" y1="202.041" y2="202.041"/><line style="stroke:#181818;stroke-width:1.0;" x1="142" x2="142" y1="202.041" y2="215.041"/><line style="stroke:#181818;stroke-width:1.0;" x1="95" x2="142" y1="215.041" y2="215.041"/><polygon fill="#181818" points="105,211.041,95,215.041,105,219.041,101,215.041" style="stroke:#181818;stroke-width:1.0;"/><text fill="#000000" font-family="sans-serif" font-size="13" lengthAdjust="spacing" textLength="42" x="107" y="197.2988">style 1</text><polygon fill="#181818" points="78,240.3516,88,244.3516,78,248.3516,82,244.3516" style="stroke:#181818;stroke-width:1.0;"/><line style="stroke:#181818;stroke-width:1.0;" x1="30" x2="84" y1="244.3516" y2="244.3516"/><text fill="#000000" font-family="sans-serif" font-size="13" lengthAdjust="spacing" textLength="41" x="37" y="239.6094">not ok</text><line style="stroke:#181818;stroke-width:1.0;" x1="100" x2="142" y1="273.6621" y2="273.6621"/><line style="stroke:#181818;stroke-width:1.0;" x1="142" x2="142" y1="273.6621" y2="286.6621"/><line style="stroke:#181818;stroke-width:1.0;" x1="95" x2="142" y1="286.6621" y2="286.6621"/><polygon fill="#181818" points="105,282.6621,95,286.6621,105,290.6621,101,286.6621" style="stroke:#181818;stroke-width:1.0;"/><text fill="#000000" font-family="sans-serif" font-size="13" lengthAdjust="spacing" textLength="42" x="107" y="268.9199">style 1</text><polygon fill="#181818" points="78,311.9727,88,315.9727,78,319.9727,82,315.9727" style="stroke:#181818;stroke-width:1.0;"/><line style="stroke:#181818;stroke-width:1.0;" x1="30" x2="84" y1="315.9727" y2="315.9727"/><text fill="#000000" font-family="sans-serif" font-size="13" lengthAdjust="spacing" textLength="41" x="37" y="311.2305">not ok</text><line style="stroke:#181818;stroke-width:1.0;" x1="100" x2="142" y1="345.2832" y2="345.2832"/><line style="stroke:#181818;stroke-width:1.0;" x1="142" x2="142" y1="345.2832" y2="358.2832"/><line style="stroke:#181818;stroke-width:1.0;" x1="95" x2="142" y1="358.2832" y2="358.2832"/><polygon fill="#181818" points="105,354.2832,95,358.2832,105,362.2832,101,358.2832" style="stroke:#181818;stroke-width:1.0;"/><text fill="#000000" font-family="sans-serif" font-size="13" lengthAdjust="spacing" textLength="42" x="107" y="340.541">style 2</text><!--SRC=[KomeIapFJLGeISslKYWfAatboiilILN8BqijKd3AJz9HSCp9J4wrGf9FJ2x9B4i4gW5ASm6nWguTH962jhQkhfK2KBz2VZONM0WcPQLGN5APawfWo9MI2jSFbk72QnxSD2Hj86KGUOfCnsKqcW5Ki4a1ALI8Cjq8mtG0]--></g></svg>