<svg xmlns="http://www.w3.org/2000/svg" xmlns:xlink="http://www.w3.org/1999/xlink" contentStyleType="text/css" height="236px" preserveAspectRatio="none" style="width:75px;height:236px;background:#FFFFFF;" version="1.1" viewBox="0 0 75 236" width="75px" zoomAndPan="magnify"><defs/><g><rect fill="#FFFFFF" height="145.6211" style="stroke:#181818;stroke-width:1.0;" width="10" x="11" y="46.4883"/><rect fill="#FFFFFF" height="28" style="stroke:#181818;stroke-width:1.0;" width="10" x="16" y="75.7988"/><rect fill="#FFFFFF" height="28" style="stroke:#181818;stroke-width:1.0;" width="10" x="16" y="148.1094"/><line style="stroke:#181818;stroke-width:0.5;stroke-dasharray:5.0,5.0;" x1="16" x2="16" y1="36.4883" y2="201.1094"/><rect fill="#E2E2F0" height="30.4883" rx="2.5" ry="2.5" style="stroke:#181818;stroke-width:0.5;" width="22" x="5" y="5"/><text fill="#000000" font-family="sans-serif" font-size="14" lengthAdjust="spacing" textLength="8" x="12" y="25.5352">a</text><rect fill="#E2E2F0" height="30.4883" rx="2.5" ry="2.5" style="stroke:#181818;stroke-width:0.5;" width="22" x="5" y="200.1094"/><text fill="#000000" font-family="sans-serif" font-size="14" lengthAdjust="spacing" textLength="8" x="12" y="220.6445">a</text><rect fill="#FFFFFF" height="145.6211" style="stroke:#181818;stroke-width:1.0;" width="10" x="11" y="46.4883"/><rect fill="#FFFFFF" height="28" style="stroke:#181818;stroke-width:1.0;" width="10" x="16" y="75.7988"/><rect fill="#FFFFFF" height="28" style="stroke:#181818;stroke-width:1.0;" width="10" x="16" y="148.1094"/><line style="stroke:#181818;stroke-width:1.0;" x1="26" x2="68" y1="67.7988" y2="67.7988"/><line style="stroke:#181818;stroke-width:1.0;" x1="68" x2="68" y1="67.7988" y2="80.7988"/><line style="stroke:#181818;stroke-width:1.0;" x1="27" x2="68" y1="80.7988" y2="80.7988"/><polygon fill="#181818" points="37,76.7988,27,80.7988,37,84.7988,33,80.7988" style="stroke:#181818;stroke-width:1.0;"/><text fill="#000000" font-family="sans-serif" font-size="13" lengthAdjust="spacing" textLength="24" x="33" y="63.0566">test</text><line style="stroke:#181818;stroke-width:1.0;" x1="26" x2="68" y1="140.1094" y2="140.1094"/><line style="stroke:#181818;stroke-width:1.0;" x1="68" x2="68" y1="140.1094" y2="153.1094"/><line style="stroke:#181818;stroke-width:1.0;" x1="27" x2="68" y1="153.1094" y2="153.1094"/><polygon fill="#181818" points="37,149.1094,27,153.1094,37,157.1094,33,153.1094" style="stroke:#181818;stroke-width:1.0;"/><text fill="#000000" font-family="sans-serif" font-size="13" lengthAdjust="spacing" textLength="32" x="33" y="135.3672">test2</text><!--SRC=[KrSiA4fCpqrKA4dDhr8eAIfDvKfCBiaiIon9LKZaIbJGjLD8LB0gIIqkGHPN1qf4PsIcfAJcnG8LSAMaOchIrjRLLR1I06ar0W00]--></g></svg>