<svg xmlns="http://www.w3.org/2000/svg" xmlns:xlink="http://www.w3.org/1999/xlink" contentStyleType="text/css" height="546px" preserveAspectRatio="none" style="width:210px;height:546px;background:#FFFFFF;" version="1.1" viewBox="0 0 210 546" width="210px" zoomAndPan="magnify"><defs/><g><line style="stroke:#181818;stroke-width:0.5;stroke-dasharray:5.0,5.0;" x1="35" x2="35" y1="36.4883" y2="510.2148"/><line style="stroke:#181818;stroke-width:0.5;stroke-dasharray:5.0,5.0;" x1="104" x2="104" y1="36.4883" y2="510.2148"/><line style="stroke:#181818;stroke-width:0.5;stroke-dasharray:5.0,5.0;" x1="173" x2="173" y1="36.4883" y2="510.2148"/><rect fill="#E2E2F0" height="30.4883" rx="2.5" ry="2.5" style="stroke:#181818;stroke-width:0.5;" width="24" x="23" y="5"/><text fill="#000000" font-family="sans-serif" font-size="14" lengthAdjust="spacing" textLength="10" x="30" y="25.5352">A</text><rect fill="#E2E2F0" height="30.4883" rx="2.5" ry="2.5" style="stroke:#181818;stroke-width:0.5;" width="22" x="93" y="5"/><text fill="#000000" font-family="sans-serif" font-size="14" lengthAdjust="spacing" textLength="8" x="100" y="25.5352">B</text><rect fill="#E2E2F0" height="30.4883" rx="2.5" ry="2.5" style="stroke:#181818;stroke-width:0.5;" width="24" x="161" y="5"/><text fill="#000000" font-family="sans-serif" font-size="14" lengthAdjust="spacing" textLength="10" x="168" y="25.5352">C</text><rect fill="#E2E2F0" height="30.4883" rx="2.5" ry="2.5" style="stroke:#181818;stroke-width:0.5;" width="24" x="23" y="510.2148"/><text fill="#000000" font-family="sans-serif" font-size="14" lengthAdjust="spacing" textLength="10" x="30" y="530.75">A</text><rect fill="#E2E2F0" height="30.4883" rx="2.5" ry="2.5" style="stroke:#181818;stroke-width:0.5;" width="22" x="93" y="510.2148"/><text fill="#000000" font-family="sans-serif" font-size="14" lengthAdjust="spacing" textLength="8" x="100" y="530.75">B</text><rect fill="#E2E2F0" height="30.4883" rx="2.5" ry="2.5" style="stroke:#181818;stroke-width:0.5;" width="24" x="161" y="510.2148"/><text fill="#000000" font-family="sans-serif" font-size="14" lengthAdjust="spacing" textLength="10" x="168" y="530.75">C</text><polygon fill="#181818" points="92,46.4883,102,50.4883,92,54.4883,96,50.4883" style="stroke:#181818;stroke-width:1.0;"/><line style="stroke:#181818;stroke-width:1.0;" x1="35" x2="98" y1="50.4883" y2="50.4883"/><polygon fill="#181818" points="115,46.4883,105,50.4883,115,54.4883,111,50.4883" style="stroke:#181818;stroke-width:1.0;"/><line style="stroke:#181818;stroke-width:1.0;" x1="109" x2="172" y1="50.4883" y2="50.4883"/><rect fill="#EEEEEE" height="3" style="stroke:#EEEEEE;stroke-width:1.0;" width="198" x="5" y="79.1436"/><line style="stroke:#000000;stroke-width:1.0;" x1="5" x2="203" y1="79.1436" y2="79.1436"/><line style="stroke:#000000;stroke-width:1.0;" x1="5" x2="203" y1="82.1436" y2="82.1436"/><rect fill="#EEEEEE" height="23.3105" style="stroke:#000000;stroke-width:2.0;" width="103" x="52.5" y="68.4883"/><text fill="#000000" font-family="sans-serif" font-size="13" font-weight="bold" lengthAdjust="spacing" textLength="85" x="58.5" y="85.0566">short arrows</text><path d="M33,105.7988 L100,105.7988 L100,113.1094 L90,123.1094 L33,123.1094 L33,105.7988 " fill="none" style="stroke:#000000;stroke-width:1.5;"/><rect fill="none" height="56.6211" style="stroke:#000000;stroke-width:1.5;" width="142" x="33" y="105.7988"/><text fill="#000000" font-family="sans-serif" font-size="13" font-weight="bold" lengthAdjust="spacing" textLength="22" x="48" y="119.3672">opt</text><ellipse cx="54.5" cy="153.6699" fill="none" rx="4" ry="4" style="stroke:#181818;stroke-width:1.5;"/><polygon fill="#181818" points="92,150.4199,102,154.4199,92,158.4199,96,154.4199" style="stroke:#181818;stroke-width:1.0;"/><line style="stroke:#181818;stroke-width:1.0;" x1="59" x2="98" y1="154.4199" y2="154.4199"/><text fill="#000000" font-family="sans-serif" font-size="13" lengthAdjust="spacing" textLength="31" x="62" y="149.6777">word</text><polygon fill="#181818" points="115,150.4199,105,154.4199,115,158.4199,111,154.4199" style="stroke:#181818;stroke-width:1.0;"/><ellipse cx="152.5" cy="153.6699" fill="none" rx="4" ry="4" style="stroke:#181818;stroke-width:1.5;"/><line style="stroke:#181818;stroke-width:1.0;" x1="109" x2="148" y1="154.4199" y2="154.4199"/><text fill="#000000" font-family="sans-serif" font-size="13" lengthAdjust="spacing" textLength="31" x="121" y="149.6777">word</text><ellipse cx="54.5" cy="196.9805" fill="none" rx="4" ry="4" style="stroke:#181818;stroke-width:1.5;"/><polygon fill="#181818" points="92,193.7305,102,197.7305,92,201.7305,96,197.7305" style="stroke:#181818;stroke-width:1.0;"/><line style="stroke:#181818;stroke-width:1.0;" x1="59" x2="98" y1="197.7305" y2="197.7305"/><text fill="#000000" font-family="sans-serif" font-size="13" lengthAdjust="spacing" textLength="31" x="62" y="192.9883">word</text><polygon fill="#181818" points="115,193.7305,105,197.7305,115,201.7305,111,197.7305" style="stroke:#181818;stroke-width:1.0;"/><ellipse cx="152.5" cy="196.9805" fill="none" rx="4" ry="4" style="stroke:#181818;stroke-width:1.5;"/><line style="stroke:#181818;stroke-width:1.0;" x1="109" x2="148" y1="197.7305" y2="197.7305"/><text fill="#000000" font-family="sans-serif" font-size="13" lengthAdjust="spacing" textLength="31" x="121" y="192.9883">word</text><rect fill="#EEEEEE" height="3" style="stroke:#EEEEEE;stroke-width:1.0;" width="198" x="5" y="226.3857"/><line style="stroke:#000000;stroke-width:1.0;" x1="5" x2="203" y1="226.3857" y2="226.3857"/><line style="stroke:#000000;stroke-width:1.0;" x1="5" x2="203" y1="229.3857" y2="229.3857"/><rect fill="#EEEEEE" height="23.3105" style="stroke:#000000;stroke-width:2.0;" width="121" x="43.5" y="215.7305"/><text fill="#000000" font-family="sans-serif" font-size="13" font-weight="bold" lengthAdjust="spacing" textLength="103" x="49.5" y="232.2988">left edge arrow</text><path d="M33,253.041 L100,253.041 L100,260.3516 L90,270.3516 L33,270.3516 L33,253.041 " fill="none" style="stroke:#000000;stroke-width:1.5;"/><rect fill="none" height="56.6211" style="stroke:#000000;stroke-width:1.5;" width="87" x="33" y="253.041"/><text fill="#000000" font-family="sans-serif" font-size="13" font-weight="bold" lengthAdjust="spacing" textLength="22" x="48" y="266.6094">opt</text><ellipse cx="10.5" cy="300.9121" fill="none" rx="4" ry="4" style="stroke:#181818;stroke-width:1.5;"/><polygon fill="#181818" points="92,297.6621,102,301.6621,92,305.6621,96,301.6621" style="stroke:#181818;stroke-width:1.0;"/><line style="stroke:#181818;stroke-width:1.0;" x1="15" x2="98" y1="301.6621" y2="301.6621"/><text fill="#000000" font-family="sans-serif" font-size="13" lengthAdjust="spacing" textLength="31" x="62" y="296.9199">word</text><ellipse cx="10.5" cy="344.2227" fill="none" rx="4" ry="4" style="stroke:#181818;stroke-width:1.5;"/><polygon fill="#181818" points="92,340.9727,102,344.9727,92,348.9727,96,344.9727" style="stroke:#181818;stroke-width:1.0;"/><line style="stroke:#181818;stroke-width:1.0;" x1="15" x2="98" y1="344.9727" y2="344.9727"/><text fill="#000000" font-family="sans-serif" font-size="13" lengthAdjust="spacing" textLength="31" x="62" y="340.2305">word</text><rect fill="#EEEEEE" height="3" style="stroke:#EEEEEE;stroke-width:1.0;" width="198" x="5" y="373.6279"/><line style="stroke:#000000;stroke-width:1.0;" x1="5" x2="203" y1="373.6279" y2="373.6279"/><line style="stroke:#000000;stroke-width:1.0;" x1="5" x2="203" y1="376.6279" y2="376.6279"/><rect fill="#EEEEEE" height="23.3105" style="stroke:#000000;stroke-width:2.0;" width="128" x="40" y="362.9727"/><text fill="#000000" font-family="sans-serif" font-size="13" font-weight="bold" lengthAdjust="spacing" textLength="114" x="46" y="379.541">right edge arrow</text><path d="M88,400.2832 L155,400.2832 L155,407.5938 L145,417.5938 L88,417.5938 L88,400.2832 " fill="none" style="stroke:#000000;stroke-width:1.5;"/><rect fill="none" height="56.6211" style="stroke:#000000;stroke-width:1.5;" width="87" x="88" y="400.2832"/><text fill="#000000" font-family="sans-serif" font-size="13" font-weight="bold" lengthAdjust="spacing" textLength="22" x="103" y="413.8516">opt</text><polygon fill="#181818" points="115,444.9043,105,448.9043,115,452.9043,111,448.9043" style="stroke:#181818;stroke-width:1.0;"/><ellipse cx="196.5" cy="448.1543" fill="none" rx="4" ry="4" style="stroke:#181818;stroke-width:1.5;"/><line style="stroke:#181818;stroke-width:1.0;" x1="109" x2="192" y1="448.9043" y2="448.9043"/><text fill="#000000" font-family="sans-serif" font-size="13" lengthAdjust="spacing" textLength="31" x="121" y="444.1621">word</text><polygon fill="#181818" points="115,488.2148,105,492.2148,115,496.2148,111,492.2148" style="stroke:#181818;stroke-width:1.0;"/><ellipse cx="196.5" cy="491.4648" fill="none" rx="4" ry="4" style="stroke:#181818;stroke-width:1.5;"/><line style="stroke:#181818;stroke-width:1.0;" x1="109" x2="192" y1="492.2148" y2="492.2148"/><text fill="#000000" font-family="sans-serif" font-size="13" lengthAdjust="spacing" textLength="31" x="121" y="487.4727">word</text><!--SRC=[XSt12i8m40JGUxvYHF3MWpSHOx7-GE_YOJ4n3TeaR5OAVhqjLcYXu767dJUhnEHQWjZuXl3Bglpm8H5JYvfO_Cqd2bAJCJuuR7SAEA4ueb8RL3WKE2kjaPl80cAENORMAYPP2rF8lMI3g38E5UpHHJPZCvQ_smRpvwEVUDgxm1fdlpDBAvUPCQZpf5VOksRAB2ZZzdNgp98F]--></g></svg>