<svg xmlns="http://www.w3.org/2000/svg" xmlns:xlink="http://www.w3.org/1999/xlink" contentStyleType="text/css" height="176px" preserveAspectRatio="none" style="width:419px;height:176px;background:#FFFFFF;" version="1.1" viewBox="0 0 419 176" width="419px" zoomAndPan="magnify"><defs/><g><line style="stroke:#181818;stroke-width:0.5;stroke-dasharray:5.0,5.0;" x1="228.3174" x2="228.3174" y1="36.4883" y2="141.1094"/><rect fill="#E2E2F0" height="30.4883" rx="2.5" ry="2.5" style="stroke:#181818;stroke-width:0.5;" width="43.0254" x="207.3174" y="5"/><text fill="#000000" font-family="sans-serif" font-size="14" lengthAdjust="spacing" textLength="29.0254" x="214.3174" y="25.5352">Test</text><rect fill="#E2E2F0" height="30.4883" rx="2.5" ry="2.5" style="stroke:#181818;stroke-width:0.5;" width="43.0254" x="207.3174" y="140.1094"/><text fill="#000000" font-family="sans-serif" font-size="14" lengthAdjust="spacing" textLength="29.0254" x="214.3174" y="160.6445">Test</text><line style="stroke:#181818;stroke-width:1.0;stroke-dasharray:2.0,2.0;" x1="186.8301" x2="227.8301" y1="67.7988" y2="67.7988"/><line style="stroke:#181818;stroke-width:1.0;stroke-dasharray:2.0,2.0;" x1="186.8301" x2="186.8301" y1="67.7988" y2="80.7988"/><line style="stroke:#181818;stroke-width:1.0;stroke-dasharray:2.0,2.0;" x1="186.8301" x2="227.8301" y1="80.7988" y2="80.7988"/><line style="stroke:#181818;stroke-width:1.0;" x1="226.8301" x2="216.8301" y1="80.7988" y2="76.7988"/><line style="stroke:#181818;stroke-width:1.0;" x1="226.8301" x2="216.8301" y1="80.7988" y2="84.7988"/><text fill="#000000" font-family="sans-serif" font-size="13" lengthAdjust="spacing" textLength="214.8301" x="7" y="63.0566">the arrow is [now] drawn correctly</text><line style="stroke:#181818;stroke-width:1.0;stroke-dasharray:2.0,2.0;" x1="228.8301" x2="270.8301" y1="110.1094" y2="110.1094"/><line style="stroke:#181818;stroke-width:1.0;stroke-dasharray:2.0,2.0;" x1="270.8301" x2="270.8301" y1="110.1094" y2="123.1094"/><line style="stroke:#181818;stroke-width:1.0;stroke-dasharray:2.0,2.0;" x1="228.8301" x2="270.8301" y1="123.1094" y2="123.1094"/><line style="stroke:#181818;stroke-width:1.0;" x1="229.8301" x2="239.8301" y1="123.1094" y2="119.1094"/><line style="stroke:#181818;stroke-width:1.0;" x1="229.8301" x2="239.8301" y1="123.1094" y2="127.1094"/><text fill="#000000" font-family="sans-serif" font-size="13" lengthAdjust="spacing" textLength="176.1919" x="235.8301" y="105.3672">the arrow is drawn correctly</text><!--SRC=[2qajBb6miT7LLGW1igmKIZ9I5HABYlBB5JAB5QBpyijZ5LAA4ilp59BpYufIaqjoAhb02XLqTUtii6b1Kmm0]--></g></svg>