<svg xmlns="http://www.w3.org/2000/svg" xmlns:xlink="http://www.w3.org/1999/xlink" contentStyleType="text/css" height="473px" preserveAspectRatio="none" style="width:156px;height:473px;background:#FFFFFF;" version="1.1" viewBox="0 0 156 473" width="156px" zoomAndPan="magnify"><defs/><g><rect fill="#FFFFFF" height="86.6211" style="stroke:#181818;stroke-width:1.0;" width="10" x="20" y="46.4883"/><rect fill="#FFFFFF" height="64.3105" style="stroke:#181818;stroke-width:1.0;" width="10" x="20" y="170.4199"/><rect fill="#FFFFFF" height="34.3105" style="stroke:#181818;stroke-width:1.0;" width="10" x="20" y="272.041"/><rect fill="#FFFFFF" height="34.3105" style="stroke:#181818;stroke-width:1.0;" width="10" x="20" y="343.6621"/><rect fill="#FFFFFF" height="65.3105" style="stroke:#181818;stroke-width:1.0;" width="10" x="90" y="103.1094"/><rect fill="#FFFFFF" height="65.3105" style="stroke:#181818;stroke-width:1.0;" width="10" x="90" y="204.7305"/><rect fill="#FFFFFF" height="35.3105" style="stroke:#181818;stroke-width:1.0;" width="10" x="90" y="306.3516"/><rect fill="#FFFFFF" height="35.3105" style="stroke:#181818;stroke-width:1.0;" width="10" x="90" y="377.9727"/><line style="stroke:#181818;stroke-width:0.5;stroke-dasharray:5.0,5.0;" x1="25" x2="25" y1="36.4883" y2="438.2832"/><line style="stroke:#181818;stroke-width:0.5;stroke-dasharray:5.0,5.0;" x1="94.5" x2="94.5" y1="36.4883" y2="438.2832"/><rect fill="#E2E2F0" height="30.4883" rx="2.5" ry="2.5" style="stroke:#181818;stroke-width:0.5;" width="40" x="5" y="5"/><text fill="#000000" font-family="sans-serif" font-size="14" lengthAdjust="spacing" textLength="26" x="12" y="25.5352">Bob</text><rect fill="#E2E2F0" height="30.4883" rx="2.5" ry="2.5" style="stroke:#181818;stroke-width:0.5;" width="40" x="5" y="437.2832"/><text fill="#000000" font-family="sans-serif" font-size="14" lengthAdjust="spacing" textLength="26" x="12" y="457.8184">Bob</text><rect fill="#E2E2F0" height="30.4883" rx="2.5" ry="2.5" style="stroke:#181818;stroke-width:0.5;" width="47" x="71.5" y="5"/><text fill="#000000" font-family="sans-serif" font-size="14" lengthAdjust="spacing" textLength="33" x="78.5" y="25.5352">Alice</text><rect fill="#E2E2F0" height="30.4883" rx="2.5" ry="2.5" style="stroke:#181818;stroke-width:0.5;" width="47" x="71.5" y="437.2832"/><text fill="#000000" font-family="sans-serif" font-size="14" lengthAdjust="spacing" textLength="33" x="78.5" y="457.8184">Alice</text><rect fill="#FFFFFF" height="86.6211" style="stroke:#181818;stroke-width:1.0;" width="10" x="20" y="46.4883"/><rect fill="#FFFFFF" height="64.3105" style="stroke:#181818;stroke-width:1.0;" width="10" x="20" y="170.4199"/><rect fill="#FFFFFF" height="34.3105" style="stroke:#181818;stroke-width:1.0;" width="10" x="20" y="272.041"/><rect fill="#FFFFFF" height="34.3105" style="stroke:#181818;stroke-width:1.0;" width="10" x="20" y="343.6621"/><rect fill="#FFFFFF" height="65.3105" style="stroke:#181818;stroke-width:1.0;" width="10" x="90" y="103.1094"/><rect fill="#FFFFFF" height="65.3105" style="stroke:#181818;stroke-width:1.0;" width="10" x="90" y="204.7305"/><rect fill="#FFFFFF" height="35.3105" style="stroke:#181818;stroke-width:1.0;" width="10" x="90" y="306.3516"/><rect fill="#FFFFFF" height="35.3105" style="stroke:#181818;stroke-width:1.0;" width="10" x="90" y="377.9727"/><path d="M5,51.4883 L5,76.4883 L113,76.4883 L113,61.4883 L103,51.4883 L5,51.4883 " fill="#FEFFDD" style="stroke:#181818;stroke-width:0.5;"/><path d="M103,51.4883 L103,61.4883 L113,61.4883 L103,51.4883 " fill="#FEFFDD" style="stroke:#181818;stroke-width:0.5;"/><text fill="#000000" font-family="sans-serif" font-size="13" lengthAdjust="spacing" textLength="56" x="26.75" y="69.0566">teoz true</text><polygon fill="#181818" points="78,99.1094,88,103.1094,78,107.1094,82,103.1094" style="stroke:#181818;stroke-width:1.0;"/><line style="stroke:#181818;stroke-width:1.0;" x1="30" x2="84" y1="103.1094" y2="103.1094"/><text fill="#000000" font-family="sans-serif" font-size="13" lengthAdjust="spacing" textLength="41" x="37" y="98.3672">not ok</text><line style="stroke:#181818;stroke-width:1.0;" x1="100" x2="142" y1="167.4199" y2="167.4199"/><line style="stroke:#181818;stroke-width:1.0;" x1="142" x2="142" y1="167.4199" y2="180.4199"/><line style="stroke:#181818;stroke-width:1.0;" x1="95" x2="142" y1="180.4199" y2="180.4199"/><polygon fill="#181818" points="105,176.4199,95,180.4199,105,184.4199,101,180.4199" style="stroke:#181818;stroke-width:1.0;"/><text fill="#000000" font-family="sans-serif" font-size="13" lengthAdjust="spacing" textLength="42" x="107" y="162.6777">style 1</text><polygon fill="#181818" points="78,200.7305,88,204.7305,78,208.7305,82,204.7305" style="stroke:#181818;stroke-width:1.0;"/><line style="stroke:#181818;stroke-width:1.0;" x1="30" x2="84" y1="204.7305" y2="204.7305"/><text fill="#000000" font-family="sans-serif" font-size="13" lengthAdjust="spacing" textLength="41" x="37" y="199.9883">not ok</text><line style="stroke:#181818;stroke-width:1.0;" x1="100" x2="142" y1="269.041" y2="269.041"/><line style="stroke:#181818;stroke-width:1.0;" x1="142" x2="142" y1="269.041" y2="282.041"/><line style="stroke:#181818;stroke-width:1.0;" x1="95" x2="142" y1="282.041" y2="282.041"/><polygon fill="#181818" points="105,278.041,95,282.041,105,286.041,101,282.041" style="stroke:#181818;stroke-width:1.0;"/><text fill="#000000" font-family="sans-serif" font-size="13" lengthAdjust="spacing" textLength="42" x="107" y="264.2988">style 1</text><polygon fill="#181818" points="78,302.3516,88,306.3516,78,310.3516,82,306.3516" style="stroke:#181818;stroke-width:1.0;"/><line style="stroke:#181818;stroke-width:1.0;" x1="25" x2="84" y1="306.3516" y2="306.3516"/><text fill="#000000" font-family="sans-serif" font-size="13" lengthAdjust="spacing" textLength="41" x="32" y="301.6094">not ok</text><line style="stroke:#181818;stroke-width:1.0;" x1="100" x2="142" y1="340.6621" y2="340.6621"/><line style="stroke:#181818;stroke-width:1.0;" x1="142" x2="142" y1="340.6621" y2="353.6621"/><line style="stroke:#181818;stroke-width:1.0;" x1="95" x2="142" y1="353.6621" y2="353.6621"/><polygon fill="#181818" points="105,349.6621,95,353.6621,105,357.6621,101,353.6621" style="stroke:#181818;stroke-width:1.0;"/><text fill="#000000" font-family="sans-serif" font-size="13" lengthAdjust="spacing" textLength="42" x="107" y="335.9199">style 1</text><polygon fill="#181818" points="78,373.9727,88,377.9727,78,381.9727,82,377.9727" style="stroke:#181818;stroke-width:1.0;"/><line style="stroke:#181818;stroke-width:1.0;" x1="25" x2="84" y1="377.9727" y2="377.9727"/><text fill="#000000" font-family="sans-serif" font-size="13" lengthAdjust="spacing" textLength="41" x="32" y="373.2305">not ok</text><line style="stroke:#181818;stroke-width:1.0;" x1="100" x2="142" y1="412.2832" y2="412.2832"/><line style="stroke:#181818;stroke-width:1.0;" x1="142" x2="142" y1="412.2832" y2="425.2832"/><line style="stroke:#181818;stroke-width:1.0;" x1="95" x2="142" y1="425.2832" y2="425.2832"/><polygon fill="#181818" points="105,421.2832,95,425.2832,105,429.2832,101,425.2832" style="stroke:#181818;stroke-width:1.0;"/><text fill="#000000" font-family="sans-serif" font-size="13" lengthAdjust="spacing" textLength="42" x="107" y="407.541">style 2</text><!--SRC=[KrSiA4fCpqrKA4dDhr8eAIfDvShBBqbLo2zBBL9moa_IKN3CoKnEjKAIJqmkoInB1Ae1IdC1iOAk7KIHWhQshgwL0b2_Gdus5rW89cMbK5nIcPEgOCYLaWhN3vRXmciUt3GaRI1b47cAJCTbD9e1LB190IbKY3BT2CDq0000]--></g></svg>