<svg xmlns="http://www.w3.org/2000/svg" xmlns:xlink="http://www.w3.org/1999/xlink" contentStyleType="text/css" height="413px" preserveAspectRatio="none" style="width:292px;height:413px;background:#FFFFFF;" version="1.1" viewBox="0 0 292 413" width="292px" zoomAndPan="magnify"><defs/><g><rect fill="#DDDDDD" height="401.4609" style="stroke:#181818;stroke-width:0.5;" width="67.6592" x="31" y="6"/><rect fill="#FFC0CB" height="56.6211" style="stroke:#FFC0CB;stroke-width:1.0;" width="127.3823" x="123.938" y="110.7988"/><rect fill="#FFC0CB" height="56.6211" style="stroke:#FFC0CB;stroke-width:1.0;" width="201.3765" x="48.8296" y="289.3516"/><line style="stroke:#181818;stroke-width:0.5;stroke-dasharray:5.0,5.0;" x1="64.8296" x2="64.8296" y1="41.4883" y2="369.9727"/><line style="stroke:#181818;stroke-width:0.5;stroke-dasharray:5.0,5.0;" x1="183.6855" x2="183.6855" y1="41.4883" y2="369.9727"/><line style="stroke:#181818;stroke-width:0.5;stroke-dasharray:5.0,5.0;" x1="252.5552" x2="252.5552" y1="41.4883" y2="369.9727"/><rect fill="#E2E2F0" height="30.4883" rx="2.5" ry="2.5" style="stroke:#181818;stroke-width:0.5;" width="23.6592" x="53" y="10"/><text fill="#000000" font-family="sans-serif" font-size="14" lengthAdjust="spacing" textLength="9.6592" x="60" y="30.5352">A</text><rect fill="#E2E2F0" height="30.4883" rx="2.5" ry="2.5" style="stroke:#181818;stroke-width:0.5;" width="22.0527" x="172.6592" y="10"/><text fill="#000000" font-family="sans-serif" font-size="14" lengthAdjust="spacing" textLength="8.0527" x="179.6592" y="30.5352">B</text><rect fill="#E2E2F0" height="30.4883" rx="2.5" ry="2.5" style="stroke:#181818;stroke-width:0.5;" width="23.6865" x="240.7119" y="10"/><text fill="#000000" font-family="sans-serif" font-size="14" lengthAdjust="spacing" textLength="9.6865" x="247.7119" y="30.5352">C</text><rect fill="#E2E2F0" height="30.4883" rx="2.5" ry="2.5" style="stroke:#181818;stroke-width:0.5;" width="23.6592" x="53" y="369.9727"/><text fill="#000000" font-family="sans-serif" font-size="14" lengthAdjust="spacing" textLength="9.6592" x="60" y="390.5078">A</text><rect fill="#E2E2F0" height="30.4883" rx="2.5" ry="2.5" style="stroke:#181818;stroke-width:0.5;" width="22.0527" x="172.6592" y="369.9727"/><text fill="#000000" font-family="sans-serif" font-size="14" lengthAdjust="spacing" textLength="8.0527" x="179.6592" y="390.5078">B</text><rect fill="#E2E2F0" height="30.4883" rx="2.5" ry="2.5" style="stroke:#181818;stroke-width:0.5;" width="23.6865" x="240.7119" y="369.9727"/><text fill="#000000" font-family="sans-serif" font-size="14" lengthAdjust="spacing" textLength="9.6865" x="247.7119" y="390.5078">C</text><rect fill="#EEEEEE" height="3" style="stroke:#EEEEEE;stroke-width:1.0;" width="280.9565" x="5" y="70.1436"/><line style="stroke:#000000;stroke-width:1.0;" x1="5" x2="285.9565" y1="70.1436" y2="70.1436"/><line style="stroke:#000000;stroke-width:1.0;" x1="5" x2="285.9565" y1="73.1436" y2="73.1436"/><rect fill="#EEEEEE" height="23.3105" style="stroke:#000000;stroke-width:2.0;" width="65.2065" x="112.875" y="59.4883"/><text fill="#000000" font-family="sans-serif" font-size="13" font-weight="bold" lengthAdjust="spacing" textLength="46.9219" x="118.875" y="76.0566">divider</text><polygon fill="#181818" points="171.6855,94.7988,181.6855,98.7988,171.6855,102.7988,175.6855,98.7988" style="stroke:#181818;stroke-width:1.0;"/><line style="stroke:#181818;stroke-width:1.0;" x1="64.8296" x2="177.6855" y1="98.7988" y2="98.7988"/><polygon fill="#181818" points="240.5552,94.7988,250.5552,98.7988,240.5552,102.7988,244.5552,98.7988" style="stroke:#181818;stroke-width:1.0;"/><line style="stroke:#181818;stroke-width:1.0;" x1="183.6855" x2="246.5552" y1="98.7988" y2="98.7988"/><path d="M123.938,110.7988 L191.123,110.7988 L191.123,118.1094 L181.123,128.1094 L123.938,128.1094 L123.938,110.7988 " fill="none" style="stroke:#000000;stroke-width:1.5;"/><rect fill="none" height="56.6211" style="stroke:#000000;stroke-width:1.5;" width="127.3823" x="123.938" y="110.7988"/><text fill="#000000" font-family="sans-serif" font-size="13" font-weight="bold" lengthAdjust="spacing" textLength="22.1851" x="138.938" y="124.3672">opt</text><text fill="#000000" font-family="sans-serif" font-size="11" font-weight="bold" lengthAdjust="spacing" textLength="29.1973" x="206.123" y="123.4336">[bad]</text><ellipse cx="145.438" cy="158.6699" fill="none" rx="4" ry="4" style="stroke:#181818;stroke-width:1.5;"/><polygon fill="#181818" points="171.6855,155.4199,181.6855,159.4199,171.6855,163.4199,175.6855,159.4199" style="stroke:#181818;stroke-width:1.0;"/><line style="stroke:#181818;stroke-width:1.0;" x1="149.938" x2="177.6855" y1="159.4199" y2="159.4199"/><text fill="#000000" font-family="sans-serif" font-size="13" lengthAdjust="spacing" textLength="19.7476" x="152.938" y="154.6777">Pre</text><polygon fill="#181818" points="194.6855,155.4199,184.6855,159.4199,194.6855,163.4199,190.6855,159.4199" style="stroke:#181818;stroke-width:1.0;"/><ellipse cx="227.7061" cy="158.6699" fill="none" rx="4" ry="4" style="stroke:#181818;stroke-width:1.5;"/><line style="stroke:#181818;stroke-width:1.0;" x1="188.6855" x2="223.2061" y1="159.4199" y2="159.4199"/><text fill="#000000" font-family="sans-serif" font-size="13" lengthAdjust="spacing" textLength="26.5205" x="200.6855" y="154.6777">yolo</text><path d="M123.938,185.4199 L191.123,185.4199 L191.123,192.7305 L181.123,202.7305 L123.938,202.7305 L123.938,185.4199 " fill="none" style="stroke:#000000;stroke-width:1.5;"/><rect fill="none" height="56.6211" style="stroke:#000000;stroke-width:1.5;" width="153.0186" x="123.938" y="185.4199"/><text fill="#000000" font-family="sans-serif" font-size="13" font-weight="bold" lengthAdjust="spacing" textLength="22.1851" x="138.938" y="198.9883">opt</text><text fill="#000000" font-family="sans-serif" font-size="11" font-weight="bold" lengthAdjust="spacing" textLength="54.8335" x="206.123" y="198.0547">[expand?]</text><ellipse cx="10.5" cy="233.291" fill="none" rx="4" ry="4" style="stroke:#181818;stroke-width:1.5;"/><polygon fill="#181818" points="171.6855,230.041,181.6855,234.041,171.6855,238.041,175.6855,234.041" style="stroke:#181818;stroke-width:1.0;"/><line style="stroke:#181818;stroke-width:1.0;" x1="15" x2="177.6855" y1="234.041" y2="234.041"/><text fill="#000000" font-family="sans-serif" font-size="13" lengthAdjust="spacing" textLength="19.7476" x="152.938" y="229.2988">Pre</text><polygon fill="#181818" points="194.6855,230.041,184.6855,234.041,194.6855,238.041,190.6855,234.041" style="stroke:#181818;stroke-width:1.0;"/><ellipse cx="227.7061" cy="233.291" fill="none" rx="4" ry="4" style="stroke:#181818;stroke-width:1.5;"/><line style="stroke:#181818;stroke-width:1.0;" x1="188.6855" x2="223.2061" y1="234.041" y2="234.041"/><text fill="#000000" font-family="sans-serif" font-size="13" lengthAdjust="spacing" textLength="26.5205" x="200.6855" y="229.2988">yolo</text><ellipse cx="10.5" cy="276.6016" fill="none" rx="4" ry="4" style="stroke:#181818;stroke-width:1.5;"/><polygon fill="#181818" points="171.6855,273.3516,181.6855,277.3516,171.6855,281.3516,175.6855,277.3516" style="stroke:#181818;stroke-width:1.0;"/><line style="stroke:#181818;stroke-width:1.0;" x1="15" x2="177.6855" y1="277.3516" y2="277.3516"/><text fill="#000000" font-family="sans-serif" font-size="13" lengthAdjust="spacing" textLength="19.7476" x="152.938" y="272.6094">Pre</text><polygon fill="#181818" points="194.6855,273.3516,184.6855,277.3516,194.6855,281.3516,190.6855,277.3516" style="stroke:#181818;stroke-width:1.0;"/><ellipse cx="227.7061" cy="276.6016" fill="none" rx="4" ry="4" style="stroke:#181818;stroke-width:1.5;"/><line style="stroke:#181818;stroke-width:1.0;" x1="188.6855" x2="223.2061" y1="277.3516" y2="277.3516"/><text fill="#000000" font-family="sans-serif" font-size="13" lengthAdjust="spacing" textLength="26.5205" x="200.6855" y="272.6094">yolo</text><path d="M48.8296,289.3516 L116.0146,289.3516 L116.0146,296.6621 L106.0146,306.6621 L48.8296,306.6621 L48.8296,289.3516 " fill="none" style="stroke:#000000;stroke-width:1.5;"/><rect fill="none" height="56.6211" style="stroke:#000000;stroke-width:1.5;" width="201.3765" x="48.8296" y="289.3516"/><text fill="#000000" font-family="sans-serif" font-size="13" font-weight="bold" lengthAdjust="spacing" textLength="22.1851" x="63.8296" y="302.9199">opt</text><text fill="#000000" font-family="sans-serif" font-size="11" font-weight="bold" lengthAdjust="spacing" textLength="34.665" x="131.0146" y="301.9863">[bad?]</text><ellipse cx="64.3296" cy="337.2227" fill="none" rx="4" ry="4" style="stroke:#181818;stroke-width:1.5;"/><polygon fill="#181818" points="171.6855,333.9727,181.6855,337.9727,171.6855,341.9727,175.6855,337.9727" style="stroke:#181818;stroke-width:1.0;"/><line style="stroke:#181818;stroke-width:1.0;" x1="68.8296" x2="177.6855" y1="337.9727" y2="337.9727"/><polygon fill="#181818" points="194.6855,333.9727,184.6855,337.9727,194.6855,341.9727,190.6855,337.9727" style="stroke:#181818;stroke-width:1.0;"/><ellipse cx="279.4565" cy="337.2227" fill="none" rx="4" ry="4" style="stroke:#181818;stroke-width:1.5;"/><line style="stroke:#181818;stroke-width:1.0;" x1="188.6855" x2="274.9565" y1="337.9727" y2="337.9727"/><text fill="#000000" font-family="sans-serif" font-size="13" lengthAdjust="spacing" textLength="26.5205" x="200.6855" y="333.2305">yolo</text><!--SRC=[XO_D2i8m48Jl-nGZWZsLgYSHQsbzWTx5msg216qsn2ZLfpSj-0EYtlPdlc5cu3pl6qRGSaFmPqsdWx6EFJUesGUpCuvjg5afO_UOpDx-bRIF-tHCMsd9lGYKbETGvcAKziXpqbQXqm0bqYKg6g7gXXM92yFWsPuYhYCvTCOUi6M5B36sZvPaL4X7OOxQwvvTf5B4zIf7wSm_R7GRSwY2rl_0duAluOg-YJohH6Zpvde7]--></g></svg>