<svg xmlns="http://www.w3.org/2000/svg" xmlns:xlink="http://www.w3.org/1999/xlink" contentStyleType="text/css" height="497px" preserveAspectRatio="none" style="width:329px;height:497px;background:#FFFFFF;" version="1.1" viewBox="0 0 329 497" width="329px" zoomAndPan="magnify"><defs/><g><rect fill="#FFFFAA" height="55.3105" style="stroke:#FFFFAA;stroke-width:1.0;" width="146" x="34" y="48.4883"/><rect fill="#FFFFAA" height="55.3105" style="stroke:#FFFFAA;stroke-width:1.0;" width="146" x="39" y="121.7988"/><rect fill="#FFFFAA" height="168.6211" style="stroke:#FFFFAA;stroke-width:1.0;" width="166" x="34" y="195.1094"/><rect fill="#FFFFAA" height="55.3105" style="stroke:#FFFFAA;stroke-width:1.0;" width="141" x="39" y="381.7305"/><line style="stroke:#181818;stroke-width:0.5;stroke-dasharray:5.0,5.0;" x1="55" x2="55" y1="36.4883" y2="461.041"/><rect fill="#FFFFFF" height="14" style="stroke:#181818;stroke-width:1.0;" width="10" x="50" y="81.7988"/><rect fill="#FFFFFF" height="127.3105" style="stroke:#181818;stroke-width:1.0;" width="10" x="50" y="228.4199"/><line style="stroke:#181818;stroke-width:0.5;stroke-dasharray:5.0,5.0;" x1="164" x2="164" y1="36.4883" y2="461.041"/><rect fill="#FFFFFF" height="14" style="stroke:#181818;stroke-width:1.0;" width="10" x="159" y="155.1094"/><rect fill="#FFFFFF" height="127.3105" style="stroke:#181818;stroke-width:1.0;" width="10" x="159" y="228.4199"/><rect fill="#FFFFFF" height="99.3105" style="stroke:#181818;stroke-width:1.0;" width="10" x="164" y="242.4199"/><rect fill="#FFFFFF" height="71.3105" style="stroke:#181818;stroke-width:1.0;" width="10" x="169" y="256.4199"/><rect fill="#FFFFFF" height="43.3105" style="stroke:#181818;stroke-width:1.0;" width="10" x="174" y="270.4199"/><line style="stroke:#181818;stroke-width:0.5;stroke-dasharray:5.0,5.0;" x1="273" x2="273" y1="36.4883" y2="461.041"/><rect fill="#E2E2F0" height="30.4883" rx="2.5" ry="2.5" style="stroke:#181818;stroke-width:0.5;" width="100" x="5" y="5"/><text fill="#000000" font-family="sans-serif" font-size="14" lengthAdjust="spacing" textLength="86" x="12" y="25.5352">Particpant_A</text><rect fill="#E2E2F0" height="30.4883" rx="2.5" ry="2.5" style="stroke:#181818;stroke-width:0.5;" width="98" x="115" y="5"/><text fill="#000000" font-family="sans-serif" font-size="14" lengthAdjust="spacing" textLength="84" x="122" y="25.5352">Particpant_B</text><rect fill="#E2E2F0" height="30.4883" rx="2.5" ry="2.5" style="stroke:#181818;stroke-width:0.5;" width="100" x="223" y="5"/><text fill="#000000" font-family="sans-serif" font-size="14" lengthAdjust="spacing" textLength="86" x="230" y="25.5352">Particpant_C</text><rect fill="#E2E2F0" height="30.4883" rx="2.5" ry="2.5" style="stroke:#181818;stroke-width:0.5;" width="100" x="5" y="461.041"/><text fill="#000000" font-family="sans-serif" font-size="14" lengthAdjust="spacing" textLength="86" x="12" y="481.5762">Particpant_A</text><rect fill="#E2E2F0" height="30.4883" rx="2.5" ry="2.5" style="stroke:#181818;stroke-width:0.5;" width="98" x="115" y="461.041"/><text fill="#000000" font-family="sans-serif" font-size="14" lengthAdjust="spacing" textLength="84" x="122" y="481.5762">Particpant_B</text><rect fill="#E2E2F0" height="30.4883" rx="2.5" ry="2.5" style="stroke:#181818;stroke-width:0.5;" width="100" x="223" y="461.041"/><text fill="#000000" font-family="sans-serif" font-size="14" lengthAdjust="spacing" textLength="86" x="230" y="481.5762">Particpant_C</text><path d="M34,48.4883 L134,48.4883 L134,55.7988 L124,65.7988 L34,65.7988 L34,48.4883 " fill="#EEEEEE" style="stroke:#000000;stroke-width:1.5;"/><rect fill="none" height="55.3105" style="stroke:#000000;stroke-width:1.5;" width="146" x="34" y="48.4883"/><text fill="#000000" font-family="sans-serif" font-size="13" font-weight="bold" lengthAdjust="spacing" textLength="55" x="49" y="62.0566">Group 1</text><polygon fill="#181818" points="152,77.7988,162,81.7988,152,85.7988,156,81.7988" style="stroke:#181818;stroke-width:1.0;"/><line style="stroke:#181818;stroke-width:1.0;" x1="60" x2="158" y1="81.7988" y2="81.7988"/><polygon fill="#181818" points="71,91.7988,61,95.7988,71,99.7988,67,95.7988" style="stroke:#181818;stroke-width:1.0;"/><line style="stroke:#181818;stroke-width:1.0;" x1="65" x2="163" y1="95.7988" y2="95.7988"/><path d="M39,121.7988 L139,121.7988 L139,129.1094 L129,139.1094 L39,139.1094 L39,121.7988 " fill="#EEEEEE" style="stroke:#000000;stroke-width:1.5;"/><rect fill="none" height="55.3105" style="stroke:#000000;stroke-width:1.5;" width="146" x="39" y="121.7988"/><text fill="#000000" font-family="sans-serif" font-size="13" font-weight="bold" lengthAdjust="spacing" textLength="55" x="54" y="135.3672">Group 2</text><polygon fill="#181818" points="147,151.1094,157,155.1094,147,159.1094,151,155.1094" style="stroke:#181818;stroke-width:1.0;"/><line style="stroke:#181818;stroke-width:1.0;" x1="55" x2="153" y1="155.1094" y2="155.1094"/><polygon fill="#181818" points="66,165.1094,56,169.1094,66,173.1094,62,169.1094" style="stroke:#181818;stroke-width:1.0;"/><line style="stroke:#181818;stroke-width:1.0;" x1="60" x2="158" y1="169.1094" y2="169.1094"/><path d="M34,195.1094 L134,195.1094 L134,202.4199 L124,212.4199 L34,212.4199 L34,195.1094 " fill="#EEEEEE" style="stroke:#000000;stroke-width:1.5;"/><rect fill="none" height="168.6211" style="stroke:#000000;stroke-width:1.5;" width="166" x="34" y="195.1094"/><text fill="#000000" font-family="sans-serif" font-size="13" font-weight="bold" lengthAdjust="spacing" textLength="55" x="49" y="208.6777">Group 3</text><polygon fill="#181818" points="147,224.4199,157,228.4199,147,232.4199,151,228.4199" style="stroke:#181818;stroke-width:1.0;"/><line style="stroke:#181818;stroke-width:1.0;" x1="60" x2="153" y1="228.4199" y2="228.4199"/><polygon fill="#181818" points="152,238.4199,162,242.4199,152,246.4199,156,242.4199" style="stroke:#181818;stroke-width:1.0;"/><line style="stroke:#181818;stroke-width:1.0;" x1="60" x2="158" y1="242.4199" y2="242.4199"/><polygon fill="#181818" points="157,252.4199,167,256.4199,157,260.4199,161,256.4199" style="stroke:#181818;stroke-width:1.0;"/><line style="stroke:#181818;stroke-width:1.0;" x1="60" x2="163" y1="256.4199" y2="256.4199"/><polygon fill="#181818" points="162,266.4199,172,270.4199,162,274.4199,166,270.4199" style="stroke:#181818;stroke-width:1.0;"/><line style="stroke:#181818;stroke-width:1.0;" x1="60" x2="168" y1="270.4199" y2="270.4199"/><polygon fill="#181818" points="71,295.7305,61,299.7305,71,303.7305,67,299.7305" style="stroke:#181818;stroke-width:1.0;"/><line style="stroke:#181818;stroke-width:1.0;" x1="65" x2="173" y1="299.7305" y2="299.7305"/><text fill="#000000" font-family="sans-serif" font-size="13" lengthAdjust="spacing" textLength="31" x="77" y="294.9883">hello</text><polygon fill="#181818" points="71,309.7305,61,313.7305,71,317.7305,67,313.7305" style="stroke:#181818;stroke-width:1.0;"/><line style="stroke:#181818;stroke-width:1.0;" x1="65" x2="173" y1="313.7305" y2="313.7305"/><polygon fill="#181818" points="71,323.7305,61,327.7305,71,331.7305,67,327.7305" style="stroke:#181818;stroke-width:1.0;"/><line style="stroke:#181818;stroke-width:1.0;" x1="65" x2="168" y1="327.7305" y2="327.7305"/><polygon fill="#181818" points="71,337.7305,61,341.7305,71,345.7305,67,341.7305" style="stroke:#181818;stroke-width:1.0;"/><line style="stroke:#181818;stroke-width:1.0;" x1="65" x2="163" y1="341.7305" y2="341.7305"/><polygon fill="#181818" points="71,351.7305,61,355.7305,71,359.7305,67,355.7305" style="stroke:#181818;stroke-width:1.0;"/><line style="stroke:#181818;stroke-width:1.0;" x1="65" x2="158" y1="355.7305" y2="355.7305"/><path d="M39,381.7305 L139,381.7305 L139,389.041 L129,399.041 L39,399.041 L39,381.7305 " fill="#EEEEEE" style="stroke:#000000;stroke-width:1.5;"/><rect fill="none" height="55.3105" style="stroke:#000000;stroke-width:1.5;" width="141" x="39" y="381.7305"/><text fill="#000000" font-family="sans-serif" font-size="13" font-weight="bold" lengthAdjust="spacing" textLength="55" x="54" y="395.2988">Group 4</text><polygon fill="#181818" points="152,411.041,162,415.041,152,419.041,156,415.041" style="stroke:#181818;stroke-width:1.0;"/><line style="stroke:#181818;stroke-width:1.0;" x1="55" x2="158" y1="415.041" y2="415.041"/><polygon fill="#181818" points="66,425.041,56,429.041,66,433.041,62,429.041" style="stroke:#181818;stroke-width:1.0;"/><line style="stroke:#181818;stroke-width:1.0;" x1="60" x2="163" y1="429.041" y2="429.041"/><!--SRC=[KomeIapFJLGeISslKYWfAatbuYf8B2h9JCuiICmhKGW0iq7CU4TS4awu99ovkDAByaiB59JJqX8LtC5CGou5840sLa7N3jKqa8B4v9BCiiIIL5G7O6YrqSNKcfAANNDgNWeMznWHT8-sDa5xTNLnc6vChEcu_Kka0SY01ENaANL2K-geOAMGaPgJau_RRCmGKr30wsxS6eXGHeGIqfA92N795c_Y19eC0000]--></g></svg>