<svg xmlns="http://www.w3.org/2000/svg" xmlns:xlink="http://www.w3.org/1999/xlink" contentStyleType="text/css" height="190px" preserveAspectRatio="none" style="width:710px;height:190px;background:#FFFFFF;" version="1.1" viewBox="0 0 710 190" width="710px" zoomAndPan="magnify"><defs/><g><line style="stroke:#181818;stroke-width:0.5;stroke-dasharray:5.0,5.0;" x1="26.4888" x2="26.4888" y1="36.4883" y2="154.4199"/><line style="stroke:#181818;stroke-width:0.5;stroke-dasharray:5.0,5.0;" x1="134.6196" x2="134.6196" y1="36.4883" y2="154.4199"/><rect fill="#FFFFFF" height="29.3105" style="stroke:#181818;stroke-width:1.0;" width="10" x="129.6196" y="65.7988"/><line style="stroke:#181818;stroke-width:0.5;stroke-dasharray:5.0,5.0;" x1="242.7505" x2="242.7505" y1="36.4883" y2="154.4199"/><rect fill="#FFFFFF" height="35.3105" style="stroke:#181818;stroke-width:1.0;" width="10" x="237.7505" y="95.1094"/><line style="stroke:#181818;stroke-width:0.5;stroke-dasharray:5.0,5.0;" x1="345.8813" x2="345.8813" y1="36.4883" y2="154.4199"/><line style="stroke:#181818;stroke-width:0.5;stroke-dasharray:5.0,5.0;" x1="392.522" x2="392.522" y1="36.4883" y2="154.4199"/><rect fill="#FFFFFF" height="19" style="stroke:#181818;stroke-width:1.0;" width="10" x="387.522" y="130.4199"/><line style="stroke:#181818;stroke-width:0.5;stroke-dasharray:5.0,5.0;" x1="467.3613" x2="467.3613" y1="36.4883" y2="154.4199"/><rect fill="#E2E2F0" height="30.4883" rx="2.5" ry="2.5" style="stroke:#181818;stroke-width:0.5;" width="42.9775" x="5" y="5"/><text fill="#000000" font-family="sans-serif" font-size="14" lengthAdjust="spacing" textLength="28.9775" x="12" y="25.5352">AAA</text><rect fill="#E2E2F0" height="30.4883" rx="2.5" ry="2.5" style="stroke:#181818;stroke-width:0.5;" width="38.1582" x="115.5405" y="5"/><text fill="#000000" font-family="sans-serif" font-size="14" lengthAdjust="spacing" textLength="24.1582" x="122.5405" y="25.5352">BBB</text><rect fill="#E2E2F0" height="30.4883" rx="2.5" ry="2.5" style="stroke:#181818;stroke-width:0.5;" width="45.459" x="220.021" y="5"/><text fill="#000000" font-family="sans-serif" font-size="14" lengthAdjust="spacing" textLength="31.459" x="227.021" y="25.5352">DDD</text><rect fill="#E2E2F0" height="30.4883" rx="2.5" ry="2.5" style="stroke:#181818;stroke-width:0.5;" width="36.7637" x="327.4995" y="5"/><text fill="#000000" font-family="sans-serif" font-size="14" lengthAdjust="spacing" textLength="22.7637" x="334.4995" y="25.5352">EEE</text><rect fill="#E2E2F0" height="30.4883" rx="2.5" ry="2.5" style="stroke:#181818;stroke-width:0.5;" width="36.5176" x="374.2632" y="5"/><text fill="#000000" font-family="sans-serif" font-size="14" lengthAdjust="spacing" textLength="22.5176" x="381.2632" y="25.5352">FFF</text><rect fill="#E2E2F0" height="30.4883" rx="2.5" ry="2.5" style="stroke:#181818;stroke-width:0.5;" width="44.3516" x="445.1855" y="5"/><text fill="#000000" font-family="sans-serif" font-size="14" lengthAdjust="spacing" textLength="30.3516" x="452.1855" y="25.5352">GGG</text><rect fill="#E2E2F0" height="30.4883" rx="2.5" ry="2.5" style="stroke:#181818;stroke-width:0.5;" width="42.9775" x="5" y="154.4199"/><text fill="#000000" font-family="sans-serif" font-size="14" lengthAdjust="spacing" textLength="28.9775" x="12" y="174.9551">AAA</text><rect fill="#E2E2F0" height="30.4883" rx="2.5" ry="2.5" style="stroke:#181818;stroke-width:0.5;" width="38.1582" x="115.5405" y="154.4199"/><text fill="#000000" font-family="sans-serif" font-size="14" lengthAdjust="spacing" textLength="24.1582" x="122.5405" y="174.9551">BBB</text><rect fill="#E2E2F0" height="30.4883" rx="2.5" ry="2.5" style="stroke:#181818;stroke-width:0.5;" width="45.459" x="220.021" y="154.4199"/><text fill="#000000" font-family="sans-serif" font-size="14" lengthAdjust="spacing" textLength="31.459" x="227.021" y="174.9551">DDD</text><rect fill="#E2E2F0" height="30.4883" rx="2.5" ry="2.5" style="stroke:#181818;stroke-width:0.5;" width="36.7637" x="327.4995" y="154.4199"/><text fill="#000000" font-family="sans-serif" font-size="14" lengthAdjust="spacing" textLength="22.7637" x="334.4995" y="174.9551">EEE</text><rect fill="#E2E2F0" height="30.4883" rx="2.5" ry="2.5" style="stroke:#181818;stroke-width:0.5;" width="36.5176" x="374.2632" y="154.4199"/><text fill="#000000" font-family="sans-serif" font-size="14" lengthAdjust="spacing" textLength="22.5176" x="381.2632" y="174.9551">FFF</text><rect fill="#E2E2F0" height="30.4883" rx="2.5" ry="2.5" style="stroke:#181818;stroke-width:0.5;" width="44.3516" x="445.1855" y="154.4199"/><text fill="#000000" font-family="sans-serif" font-size="14" lengthAdjust="spacing" textLength="30.3516" x="452.1855" y="174.9551">GGG</text><polygon fill="#181818" points="117.6196,61.7988,127.6196,65.7988,117.6196,69.7988,121.6196,65.7988" style="stroke:#181818;stroke-width:1.0;"/><line style="stroke:#181818;stroke-width:1.0;" x1="26.4888" x2="123.6196" y1="65.7988" y2="65.7988"/><text fill="#000000" font-family="sans-serif" font-size="13" font-weight="bold" lengthAdjust="spacing" textLength="8.5757" x="33.4888" y="61.0566">1</text><text fill="#000000" font-family="sans-serif" font-size="13" lengthAdjust="spacing" textLength="66.5552" x="46.0645" y="61.0566">Message 0</text><polygon fill="#22A722" points="225.7505,91.1094,235.7505,95.1094,225.7505,99.1094,229.7505,95.1094" style="stroke:#22A722;stroke-width:1.0;"/><line style="stroke:#22A722;stroke-width:1.0;" x1="139.6196" x2="231.7505" y1="95.1094" y2="95.1094"/><text fill="#000000" font-family="sans-serif" font-size="13" font-weight="bold" lengthAdjust="spacing" textLength="8.5757" x="146.6196" y="90.3672">2</text><text fill="#000000" font-family="sans-serif" font-size="13" lengthAdjust="spacing" textLength="66.5552" x="159.1953" y="90.3672">Message 1</text><polygon fill="#181818" points="333.8813,91.1094,343.8813,95.1094,333.8813,99.1094,337.8813,95.1094" style="stroke:#181818;stroke-width:1.0;"/><line style="stroke:#181818;stroke-width:1.0;" x1="247.7505" x2="339.8813" y1="95.1094" y2="95.1094"/><text fill="#000000" font-family="sans-serif" font-size="13" font-weight="bold" lengthAdjust="spacing" textLength="8.5757" x="254.7505" y="90.3672">3</text><text fill="#000000" font-family="sans-serif" font-size="13" lengthAdjust="spacing" textLength="66.5552" x="267.3262" y="90.3672">Message 2</text><path d="M350.8813,78.7988 L350.8813,103.7988 L581.8813,103.7988 L581.8813,88.7988 L571.8813,78.7988 L350.8813,78.7988 " fill="#FF0000" style="stroke:#181818;stroke-width:0.5;"/><path d="M571.8813,78.7988 L571.8813,88.7988 L581.8813,88.7988 L571.8813,78.7988 " fill="#FF0000" style="stroke:#181818;stroke-width:0.5;"/><text fill="#000000" font-family="sans-serif" font-size="13" lengthAdjust="spacing" textLength="210.5327" x="356.8813" y="96.3672">&lt;-- Expect 1 &amp; 2 to be same row</text><polygon fill="#22A722" points="375.522,126.4199,385.522,130.4199,375.522,134.4199,379.522,130.4199" style="stroke:#22A722;stroke-width:1.0;"/><line style="stroke:#22A722;stroke-width:1.0;" x1="247.7505" x2="381.522" y1="130.4199" y2="130.4199"/><text fill="#000000" font-family="sans-serif" font-size="13" font-weight="bold" lengthAdjust="spacing" textLength="8.5757" x="254.7505" y="125.6777">4</text><text fill="#000000" font-family="sans-serif" font-size="13" lengthAdjust="spacing" textLength="38.2637" x="267.3262" y="125.6777">Msg 3</text><polygon fill="#181818" points="455.3613,126.4199,465.3613,130.4199,455.3613,134.4199,459.3613,130.4199" style="stroke:#181818;stroke-width:1.0;"/><line style="stroke:#181818;stroke-width:1.0;" x1="397.522" x2="461.3613" y1="130.4199" y2="130.4199"/><text fill="#000000" font-family="sans-serif" font-size="13" font-weight="bold" lengthAdjust="spacing" textLength="8.5757" x="404.522" y="125.6777">5</text><text fill="#000000" font-family="sans-serif" font-size="13" lengthAdjust="spacing" textLength="38.2637" x="417.0977" y="125.6777">Msg 4</text><path d="M472.3613,114.1094 L472.3613,139.1094 L703.3613,139.1094 L703.3613,124.1094 L693.3613,114.1094 L472.3613,114.1094 " fill="#FF0000" style="stroke:#181818;stroke-width:0.5;"/><path d="M693.3613,114.1094 L693.3613,124.1094 L703.3613,124.1094 L693.3613,114.1094 " fill="#FF0000" style="stroke:#181818;stroke-width:0.5;"/><text fill="#000000" font-family="sans-serif" font-size="13" lengthAdjust="spacing" textLength="210.5327" x="478.3613" y="131.6777">&lt;-- Expect 3 &amp; 4 to be same row</text><!--SRC=[VOxDQi9G48NtynH70dOHBZGtWQWK8I4_TE4JI1TN7QABUEN-QEdJTrAe5XVT3CoPC-SxiuipmsWGs7uXkCZqykvzP2HbliGSdNLnH5OiofnC3FOSnnqxggeAQeswhjDqXGrxRmR6Aua0jKsqhagjFzPeckPnpkZ0PXzELnDuUgNx8ZQQJtCARTlsyQFfRCNWJiCn875yME5DARIV5zu7PD9G8rZi6DwCuhCt-edvqw7hkZHLIZBzW5mu8aoSlkz_rU9VIYwKuedo3G00]--></g></svg>