<svg xmlns="http://www.w3.org/2000/svg" xmlns:xlink="http://www.w3.org/1999/xlink" contentStyleType="text/css" height="239px" preserveAspectRatio="none" style="width:257px;height:239px;background:#FFFFFF;" version="1.1" viewBox="0 0 257 239" width="257px" zoomAndPan="magnify"><defs/><g><rect fill="none" height="59.6211" style="stroke:#000000;stroke-width:1.5;" width="136.1597" x="115.105" y="53.4883"/><rect fill="none" height="59.6211" style="stroke:#000000;stroke-width:1.5;" width="146.8364" x="10" y="127.1094"/><line style="stroke:#181818;stroke-width:0.5;stroke-dasharray:5.0,5.0;" x1="135.105" x2="135.105" y1="36.4883" y2="203.7305"/><rect fill="#E2E2F0" height="30.4883" rx="2.5" ry="2.5" style="stroke:#181818;stroke-width:0.5;" width="21.7314" x="125.105" y="5"/><text fill="#000000" font-family="sans-serif" font-size="14" lengthAdjust="spacing" textLength="7.7314" x="132.105" y="25.5352">a</text><rect fill="#E2E2F0" height="30.4883" rx="2.5" ry="2.5" style="stroke:#181818;stroke-width:0.5;" width="21.7314" x="125.105" y="202.7305"/><text fill="#000000" font-family="sans-serif" font-size="14" lengthAdjust="spacing" textLength="7.7314" x="132.105" y="223.2656">a</text><path d="M115.105,53.4883 L200.0444,53.4883 L200.0444,60.7988 L190.0444,70.7988 L115.105,70.7988 L115.105,53.4883 " fill="#EEEEEE" style="stroke:#000000;stroke-width:1.5;"/><rect fill="none" height="59.6211" style="stroke:#000000;stroke-width:1.5;" width="136.1597" x="115.105" y="53.4883"/><text fill="#000000" font-family="sans-serif" font-size="13" font-weight="bold" lengthAdjust="spacing" textLength="39.9395" x="130.105" y="67.0566">group</text><line style="stroke:#181818;stroke-width:1.0;" x1="135.9707" x2="177.9707" y1="92.1094" y2="92.1094"/><line style="stroke:#181818;stroke-width:1.0;" x1="177.9707" x2="177.9707" y1="92.1094" y2="105.1094"/><line style="stroke:#181818;stroke-width:1.0;" x1="136.9707" x2="177.9707" y1="105.1094" y2="105.1094"/><polygon fill="#181818" points="146.9707,101.1094,136.9707,105.1094,146.9707,109.1094,142.9707,105.1094" style="stroke:#181818;stroke-width:1.0;"/><text fill="#000000" font-family="sans-serif" font-size="13" lengthAdjust="spacing" textLength="96.2939" x="142.9707" y="87.3672">This works fine</text><path d="M10,127.1094 L94.9395,127.1094 L94.9395,134.4199 L84.9395,144.4199 L10,144.4199 L10,127.1094 " fill="#EEEEEE" style="stroke:#000000;stroke-width:1.5;"/><rect fill="none" height="59.6211" style="stroke:#000000;stroke-width:1.5;" width="146.8364" x="10" y="127.1094"/><text fill="#000000" font-family="sans-serif" font-size="13" font-weight="bold" lengthAdjust="spacing" textLength="39.9395" x="25" y="140.6777">group</text><line style="stroke:#181818;stroke-width:1.0;" x1="93.9707" x2="134.9707" y1="165.7305" y2="165.7305"/><line style="stroke:#181818;stroke-width:1.0;" x1="93.9707" x2="93.9707" y1="165.7305" y2="178.7305"/><line style="stroke:#181818;stroke-width:1.0;" x1="93.9707" x2="133.9707" y1="178.7305" y2="178.7305"/><polygon fill="#181818" points="123.9707,174.7305,133.9707,178.7305,123.9707,182.7305,127.9707,178.7305" style="stroke:#181818;stroke-width:1.0;"/><text fill="#000000" font-family="sans-serif" font-size="13" lengthAdjust="spacing" textLength="106.9707" x="22" y="160.9883">This [now works]</text><!--SRC=[Io_ABotWKW22H0LTEo1XfH2IaLciK9vVb5sia9QPbygLcfV2bOwap4ONeImwBxySeZOMf0u0]--></g></svg>