<svg xmlns="http://www.w3.org/2000/svg" xmlns:xlink="http://www.w3.org/1999/xlink" contentStyleType="text/css" height="178px" preserveAspectRatio="none" style="width:101px;height:178px;background:#FFFFFF;" version="1.1" viewBox="0 0 101 178" width="101px" zoomAndPan="magnify"><defs/><g><line style="stroke:#181818;stroke-width:0.5;stroke-dasharray:5.0,5.0;" x1="16.4058" x2="16.4058" y1="36.4883" y2="142.4199"/><rect fill="#FFFFFF" height="21.3105" style="stroke:#181818;stroke-width:1.0;" width="10" x="11.4058" y="44.4883"/><line style="stroke:#181818;stroke-width:0.5;stroke-dasharray:5.0,5.0;" x1="84.4375" x2="84.4375" y1="36.4883" y2="142.4199"/><rect fill="#FF0000" height="13" style="stroke:#181818;stroke-width:1.0;" width="10" x="79.4375" y="65.7988"/><rect fill="#008000" height="13" style="stroke:#181818;stroke-width:1.0;" width="10" x="79.4375" y="95.1094"/><rect fill="#008000" height="18" style="stroke:#181818;stroke-width:1.0;" width="10" x="79.4375" y="124.4199"/><rect fill="#E2E2F0" height="30.4883" rx="2.5" ry="2.5" style="stroke:#181818;stroke-width:0.5;" width="22.8115" x="5" y="5"/><text fill="#000000" font-family="sans-serif" font-size="14" lengthAdjust="spacing" textLength="8.8115" x="12" y="25.5352">b</text><rect fill="#E2E2F0" height="30.4883" rx="2.5" ry="2.5" style="stroke:#181818;stroke-width:0.5;" width="21.7314" x="73.5718" y="5"/><text fill="#000000" font-family="sans-serif" font-size="14" lengthAdjust="spacing" textLength="7.7314" x="80.5718" y="25.5352">a</text><rect fill="#E2E2F0" height="30.4883" rx="2.5" ry="2.5" style="stroke:#181818;stroke-width:0.5;" width="22.8115" x="5" y="142.4199"/><text fill="#000000" font-family="sans-serif" font-size="14" lengthAdjust="spacing" textLength="8.8115" x="12" y="162.9551">b</text><rect fill="#E2E2F0" height="30.4883" rx="2.5" ry="2.5" style="stroke:#181818;stroke-width:0.5;" width="21.7314" x="73.5718" y="142.4199"/><text fill="#000000" font-family="sans-serif" font-size="14" lengthAdjust="spacing" textLength="7.7314" x="80.5718" y="162.9551">a</text><polygon fill="#181818" points="67.4375,61.7988,77.4375,65.7988,67.4375,69.7988,71.4375,65.7988" style="stroke:#181818;stroke-width:1.0;"/><line style="stroke:#181818;stroke-width:1.0;" x1="21.4058" x2="73.4375" y1="65.7988" y2="65.7988"/><text fill="#000000" font-family="sans-serif" font-size="13" lengthAdjust="spacing" textLength="30.8115" x="28.4058" y="61.0566">hello</text><polygon fill="#181818" points="67.4375,91.1094,77.4375,95.1094,67.4375,99.1094,71.4375,95.1094" style="stroke:#181818;stroke-width:1.0;"/><line style="stroke:#181818;stroke-width:1.0;" x1="16.4058" x2="73.4375" y1="95.1094" y2="95.1094"/><text fill="#000000" font-family="sans-serif" font-size="13" lengthAdjust="spacing" textLength="39.0317" x="23.4058" y="90.3672">hello2</text><polygon fill="#181818" points="67.4375,120.4199,77.4375,124.4199,67.4375,128.4199,71.4375,124.4199" style="stroke:#181818;stroke-width:1.0;"/><line style="stroke:#181818;stroke-width:1.0;" x1="16.4058" x2="73.4375" y1="124.4199" y2="124.4199"/><text fill="#000000" font-family="sans-serif" font-size="13" lengthAdjust="spacing" textLength="39.0317" x="23.4058" y="119.6777">hello3</text><!--SRC=[ROmx3a1048RxFSKl2eLiujLGADrZbicIO6Mo54ulnADHVuzW4R8JmRFRuMLb5JLErWbfNYIbejOF6tc6KGQw1a7hE4OetA52p-FeLCUlHOzri-mR448hpFElVYulUdVv0G00]--></g></svg>