<svg xmlns="http://www.w3.org/2000/svg" xmlns:xlink="http://www.w3.org/1999/xlink" contentStyleType="text/css" height="415px" preserveAspectRatio="none" style="width:289px;height:415px;background:#FFFFFF;" version="1.1" viewBox="0 0 289 415" width="289px" zoomAndPan="magnify"><defs/><g><rect fill="#DDDDDD" height="403.4609" style="stroke:#181818;stroke-width:0.5;" width="67.6592" x="31" y="6"/><rect fill="#FFC0CB" height="56.6211" style="stroke:#FFC0CB;stroke-width:1.0;" width="127.3823" x="123.938" y="67.4883"/><rect fill="#20DD00" fill-opacity="0.56471" height="56.6211" style="stroke:#20DD0090;stroke-width:1.0;" width="201.3765" x="48.8296" y="216.7305"/><rect fill="#FFC0CB" height="56.6211" style="stroke:#FFC0CB;stroke-width:1.0;" width="201.3765" x="48.8296" y="291.3516"/><line style="stroke:#181818;stroke-width:0.5;stroke-dasharray:5.0,5.0;" x1="64.8296" x2="64.8296" y1="41.4883" y2="371.9727"/><line style="stroke:#181818;stroke-width:0.5;stroke-dasharray:5.0,5.0;" x1="183.6855" x2="183.6855" y1="41.4883" y2="371.9727"/><line style="stroke:#181818;stroke-width:0.5;stroke-dasharray:5.0,5.0;" x1="252.5552" x2="252.5552" y1="41.4883" y2="371.9727"/><rect fill="#E2E2F0" height="30.4883" rx="2.5" ry="2.5" style="stroke:#181818;stroke-width:0.5;" width="23.6592" x="53" y="10"/><text fill="#000000" font-family="sans-serif" font-size="14" lengthAdjust="spacing" textLength="9.6592" x="60" y="30.5352">A</text><rect fill="#E2E2F0" height="30.4883" rx="2.5" ry="2.5" style="stroke:#181818;stroke-width:0.5;" width="22.0527" x="172.6592" y="10"/><text fill="#000000" font-family="sans-serif" font-size="14" lengthAdjust="spacing" textLength="8.0527" x="179.6592" y="30.5352">B</text><rect fill="#E2E2F0" height="30.4883" rx="2.5" ry="2.5" style="stroke:#181818;stroke-width:0.5;" width="23.6865" x="240.7119" y="10"/><text fill="#000000" font-family="sans-serif" font-size="14" lengthAdjust="spacing" textLength="9.6865" x="247.7119" y="30.5352">C</text><rect fill="#E2E2F0" height="30.4883" rx="2.5" ry="2.5" style="stroke:#181818;stroke-width:0.5;" width="23.6592" x="53" y="371.9727"/><text fill="#000000" font-family="sans-serif" font-size="14" lengthAdjust="spacing" textLength="9.6592" x="60" y="392.5078">A</text><rect fill="#E2E2F0" height="30.4883" rx="2.5" ry="2.5" style="stroke:#181818;stroke-width:0.5;" width="22.0527" x="172.6592" y="371.9727"/><text fill="#000000" font-family="sans-serif" font-size="14" lengthAdjust="spacing" textLength="8.0527" x="179.6592" y="392.5078">B</text><rect fill="#E2E2F0" height="30.4883" rx="2.5" ry="2.5" style="stroke:#181818;stroke-width:0.5;" width="23.6865" x="240.7119" y="371.9727"/><text fill="#000000" font-family="sans-serif" font-size="14" lengthAdjust="spacing" textLength="9.6865" x="247.7119" y="392.5078">C</text><polygon fill="#181818" points="171.6855,51.4883,181.6855,55.4883,171.6855,59.4883,175.6855,55.4883" style="stroke:#181818;stroke-width:1.0;"/><line style="stroke:#181818;stroke-width:1.0;" x1="64.8296" x2="177.6855" y1="55.4883" y2="55.4883"/><polygon fill="#181818" points="240.5552,51.4883,250.5552,55.4883,240.5552,59.4883,244.5552,55.4883" style="stroke:#181818;stroke-width:1.0;"/><line style="stroke:#181818;stroke-width:1.0;" x1="183.6855" x2="246.5552" y1="55.4883" y2="55.4883"/><path d="M123.938,67.4883 L191.123,67.4883 L191.123,74.7988 L181.123,84.7988 L123.938,84.7988 L123.938,67.4883 " fill="none" style="stroke:#000000;stroke-width:1.5;"/><rect fill="none" height="56.6211" style="stroke:#000000;stroke-width:1.5;" width="127.3823" x="123.938" y="67.4883"/><text fill="#000000" font-family="sans-serif" font-size="13" font-weight="bold" lengthAdjust="spacing" textLength="22.1851" x="138.938" y="81.0566">opt</text><text fill="#000000" font-family="sans-serif" font-size="11" font-weight="bold" lengthAdjust="spacing" textLength="29.1973" x="206.123" y="80.123">[bad]</text><ellipse cx="145.438" cy="115.3594" fill="none" rx="4" ry="4" style="stroke:#181818;stroke-width:1.5;"/><polygon fill="#181818" points="171.6855,112.1094,181.6855,116.1094,171.6855,120.1094,175.6855,116.1094" style="stroke:#181818;stroke-width:1.0;"/><line style="stroke:#181818;stroke-width:1.0;" x1="149.938" x2="177.6855" y1="116.1094" y2="116.1094"/><text fill="#000000" font-family="sans-serif" font-size="13" lengthAdjust="spacing" textLength="19.7476" x="152.938" y="111.3672">Pre</text><polygon fill="#181818" points="194.6855,112.1094,184.6855,116.1094,194.6855,120.1094,190.6855,116.1094" style="stroke:#181818;stroke-width:1.0;"/><ellipse cx="227.7061" cy="115.3594" fill="none" rx="4" ry="4" style="stroke:#181818;stroke-width:1.5;"/><line style="stroke:#181818;stroke-width:1.0;" x1="188.6855" x2="223.2061" y1="116.1094" y2="116.1094"/><text fill="#000000" font-family="sans-serif" font-size="13" lengthAdjust="spacing" textLength="26.5205" x="200.6855" y="111.3672">yolo</text><path d="M123.938,142.1094 L191.123,142.1094 L191.123,149.4199 L181.123,159.4199 L123.938,159.4199 L123.938,142.1094 " fill="none" style="stroke:#000000;stroke-width:1.5;"/><rect fill="none" height="56.6211" style="stroke:#000000;stroke-width:1.5;" width="153.0186" x="123.938" y="142.1094"/><text fill="#000000" font-family="sans-serif" font-size="13" font-weight="bold" lengthAdjust="spacing" textLength="22.1851" x="138.938" y="155.6777">opt</text><text fill="#000000" font-family="sans-serif" font-size="11" font-weight="bold" lengthAdjust="spacing" textLength="54.8335" x="206.123" y="154.7441">[expand?]</text><ellipse cx="10.5" cy="189.9805" fill="none" rx="4" ry="4" style="stroke:#181818;stroke-width:1.5;"/><polygon fill="#181818" points="171.6855,186.7305,181.6855,190.7305,171.6855,194.7305,175.6855,190.7305" style="stroke:#181818;stroke-width:1.0;"/><line style="stroke:#181818;stroke-width:1.0;" x1="15" x2="177.6855" y1="190.7305" y2="190.7305"/><text fill="#000000" font-family="sans-serif" font-size="13" lengthAdjust="spacing" textLength="19.7476" x="152.938" y="185.9883">Pre</text><polygon fill="#181818" points="194.6855,186.7305,184.6855,190.7305,194.6855,194.7305,190.6855,190.7305" style="stroke:#181818;stroke-width:1.0;"/><ellipse cx="227.7061" cy="189.9805" fill="none" rx="4" ry="4" style="stroke:#181818;stroke-width:1.5;"/><line style="stroke:#181818;stroke-width:1.0;" x1="188.6855" x2="223.2061" y1="190.7305" y2="190.7305"/><text fill="#000000" font-family="sans-serif" font-size="13" lengthAdjust="spacing" textLength="26.5205" x="200.6855" y="185.9883">yolo</text><path d="M48.8296,216.7305 L116.0146,216.7305 L116.0146,224.041 L106.0146,234.041 L48.8296,234.041 L48.8296,216.7305 " fill="none" style="stroke:#000000;stroke-width:1.5;"/><rect fill="none" height="56.6211" style="stroke:#000000;stroke-width:1.5;" width="201.3765" x="48.8296" y="216.7305"/><text fill="#000000" font-family="sans-serif" font-size="13" font-weight="bold" lengthAdjust="spacing" textLength="22.1851" x="63.8296" y="230.2988">opt</text><text fill="#000000" font-family="sans-serif" font-size="11" font-weight="bold" lengthAdjust="spacing" textLength="25.0186" x="131.0146" y="229.3652">[OK]</text><ellipse cx="64.3296" cy="264.6016" fill="none" rx="4" ry="4" style="stroke:#181818;stroke-width:1.5;"/><polygon fill="#181818" points="171.6855,261.3516,181.6855,265.3516,171.6855,269.3516,175.6855,265.3516" style="stroke:#181818;stroke-width:1.0;"/><line style="stroke:#181818;stroke-width:1.0;" x1="68.8296" x2="177.6855" y1="265.3516" y2="265.3516"/><polygon fill="#181818" points="194.6855,261.3516,184.6855,265.3516,194.6855,269.3516,190.6855,265.3516" style="stroke:#181818;stroke-width:1.0;"/><ellipse cx="227.7061" cy="264.6016" fill="none" rx="4" ry="4" style="stroke:#181818;stroke-width:1.5;"/><line style="stroke:#181818;stroke-width:1.0;" x1="188.6855" x2="223.2061" y1="265.3516" y2="265.3516"/><text fill="#000000" font-family="sans-serif" font-size="13" lengthAdjust="spacing" textLength="26.5205" x="200.6855" y="260.6094">yolo</text><path d="M48.8296,291.3516 L116.0146,291.3516 L116.0146,298.6621 L106.0146,308.6621 L48.8296,308.6621 L48.8296,291.3516 " fill="none" style="stroke:#000000;stroke-width:1.5;"/><rect fill="none" height="56.6211" style="stroke:#000000;stroke-width:1.5;" width="201.3765" x="48.8296" y="291.3516"/><text fill="#000000" font-family="sans-serif" font-size="13" font-weight="bold" lengthAdjust="spacing" textLength="22.1851" x="63.8296" y="304.9199">opt</text><text fill="#000000" font-family="sans-serif" font-size="11" font-weight="bold" lengthAdjust="spacing" textLength="34.665" x="131.0146" y="303.9863">[bad?]</text><ellipse cx="64.3296" cy="339.2227" fill="none" rx="4" ry="4" style="stroke:#181818;stroke-width:1.5;"/><polygon fill="#181818" points="171.6855,335.9727,181.6855,339.9727,171.6855,343.9727,175.6855,339.9727" style="stroke:#181818;stroke-width:1.0;"/><line style="stroke:#181818;stroke-width:1.0;" x1="68.8296" x2="177.6855" y1="339.9727" y2="339.9727"/><polygon fill="#181818" points="194.6855,335.9727,184.6855,339.9727,194.6855,343.9727,190.6855,339.9727" style="stroke:#181818;stroke-width:1.0;"/><ellipse cx="279.4565" cy="339.2227" fill="none" rx="4" ry="4" style="stroke:#181818;stroke-width:1.5;"/><line style="stroke:#181818;stroke-width:1.0;" x1="188.6855" x2="274.9565" y1="339.9727" y2="339.9727"/><text fill="#000000" font-family="sans-serif" font-size="13" lengthAdjust="spacing" textLength="26.5205" x="200.6855" y="335.2305">yolo</text><!--SRC=[hP0nRy8m48Nt-nMlYaIc29UfhQf613Q6PaSCHsq52_1PnaXfVtqlaKghqgbYiy_ttlVyxcBYxiZ8JZwGqzdHQUz3vCH7j9ooV_EHGsxPMXywt3_yU6-a_vhF36sbf_Yjm9nSi1Ycm1pL2ngQe1aE2vAOYvmud5JWTBU8FkonPOjfwSCOffnIBOCAJsYJ6xNFbTHwVPU3K3d10jLwvwrrOQEcAeKB1qwTW_eFPAY9XhZ2kLuJsfhMjm3ytcl-H1OpirmQysZmkXeBaKiZj_hLfSJw6h3v1-0J]--></g></svg>