<svg xmlns="http://www.w3.org/2000/svg" xmlns:xlink="http://www.w3.org/1999/xlink" contentStyleType="text/css" height="340px" preserveAspectRatio="none" style="width:388px;height:340px;background:#FFFFFF;" version="1.1" viewBox="0 0 388 340" width="388px" zoomAndPan="magnify"><defs/><g><rect fill="#DDDDDD" height="328.8398" style="stroke:#181818;stroke-width:0.5;" width="67.6592" x="31" y="6"/><rect fill="#FFC0CB" height="56.6211" style="stroke:#FFC0CB;stroke-width:1.0;" width="201.3765" x="48.8296" y="67.4883"/><rect fill="#FFC0CB" height="56.6211" style="stroke:#FFC0CB;stroke-width:1.0;" width="326.7744" x="48.8296" y="142.1094"/><rect fill="#FFC0CB" height="56.6211" style="stroke:#FFC0CB;stroke-width:1.0;" width="127.3823" x="123.938" y="216.7305"/><line style="stroke:#181818;stroke-width:0.5;stroke-dasharray:5.0,5.0;" x1="64.8296" x2="64.8296" y1="41.4883" y2="297.3516"/><line style="stroke:#181818;stroke-width:0.5;stroke-dasharray:5.0,5.0;" x1="183.6855" x2="183.6855" y1="41.4883" y2="297.3516"/><line style="stroke:#181818;stroke-width:0.5;stroke-dasharray:5.0,5.0;" x1="252.5552" x2="252.5552" y1="41.4883" y2="297.3516"/><rect fill="#E2E2F0" height="30.4883" rx="2.5" ry="2.5" style="stroke:#181818;stroke-width:0.5;" width="23.6592" x="53" y="10"/><text fill="#000000" font-family="sans-serif" font-size="14" lengthAdjust="spacing" textLength="9.6592" x="60" y="30.5352">A</text><rect fill="#E2E2F0" height="30.4883" rx="2.5" ry="2.5" style="stroke:#181818;stroke-width:0.5;" width="22.0527" x="172.6592" y="10"/><text fill="#000000" font-family="sans-serif" font-size="14" lengthAdjust="spacing" textLength="8.0527" x="179.6592" y="30.5352">B</text><rect fill="#E2E2F0" height="30.4883" rx="2.5" ry="2.5" style="stroke:#181818;stroke-width:0.5;" width="23.6865" x="240.7119" y="10"/><text fill="#000000" font-family="sans-serif" font-size="14" lengthAdjust="spacing" textLength="9.6865" x="247.7119" y="30.5352">C</text><rect fill="#E2E2F0" height="30.4883" rx="2.5" ry="2.5" style="stroke:#181818;stroke-width:0.5;" width="23.6592" x="53" y="297.3516"/><text fill="#000000" font-family="sans-serif" font-size="14" lengthAdjust="spacing" textLength="9.6592" x="60" y="317.8867">A</text><rect fill="#E2E2F0" height="30.4883" rx="2.5" ry="2.5" style="stroke:#181818;stroke-width:0.5;" width="22.0527" x="172.6592" y="297.3516"/><text fill="#000000" font-family="sans-serif" font-size="14" lengthAdjust="spacing" textLength="8.0527" x="179.6592" y="317.8867">B</text><rect fill="#E2E2F0" height="30.4883" rx="2.5" ry="2.5" style="stroke:#181818;stroke-width:0.5;" width="23.6865" x="240.7119" y="297.3516"/><text fill="#000000" font-family="sans-serif" font-size="14" lengthAdjust="spacing" textLength="9.6865" x="247.7119" y="317.8867">C</text><polygon fill="#181818" points="171.6855,51.4883,181.6855,55.4883,171.6855,59.4883,175.6855,55.4883" style="stroke:#181818;stroke-width:1.0;"/><line style="stroke:#181818;stroke-width:1.0;" x1="64.8296" x2="177.6855" y1="55.4883" y2="55.4883"/><polygon fill="#181818" points="240.5552,51.4883,250.5552,55.4883,240.5552,59.4883,244.5552,55.4883" style="stroke:#181818;stroke-width:1.0;"/><line style="stroke:#181818;stroke-width:1.0;" x1="183.6855" x2="246.5552" y1="55.4883" y2="55.4883"/><path d="M48.8296,67.4883 L116.0146,67.4883 L116.0146,74.7988 L106.0146,84.7988 L48.8296,84.7988 L48.8296,67.4883 " fill="none" style="stroke:#000000;stroke-width:1.5;"/><rect fill="none" height="56.6211" style="stroke:#000000;stroke-width:1.5;" width="201.3765" x="48.8296" y="67.4883"/><text fill="#000000" font-family="sans-serif" font-size="13" font-weight="bold" lengthAdjust="spacing" textLength="22.1851" x="63.8296" y="81.0566">opt</text><text fill="#000000" font-family="sans-serif" font-size="11" font-weight="bold" lengthAdjust="spacing" textLength="34.665" x="131.0146" y="80.123">[bad?]</text><ellipse cx="64.3296" cy="115.3594" fill="none" rx="4" ry="4" style="stroke:#181818;stroke-width:1.5;"/><polygon fill="#181818" points="171.6855,112.1094,181.6855,116.1094,171.6855,120.1094,175.6855,116.1094" style="stroke:#181818;stroke-width:1.0;"/><line style="stroke:#181818;stroke-width:1.0;" x1="68.8296" x2="177.6855" y1="116.1094" y2="116.1094"/><polygon fill="#181818" points="194.6855,112.1094,184.6855,116.1094,194.6855,120.1094,190.6855,116.1094" style="stroke:#181818;stroke-width:1.0;"/><ellipse cx="378.104" cy="115.3594" fill="none" rx="4" ry="4" style="stroke:#181818;stroke-width:1.5;"/><line style="stroke:#181818;stroke-width:1.0;" x1="188.6855" x2="373.604" y1="116.1094" y2="116.1094"/><text fill="#000000" font-family="sans-serif" font-size="13" lengthAdjust="spacing" textLength="26.5205" x="200.6855" y="111.3672">yolo</text><path d="M48.8296,142.1094 L116.0146,142.1094 L116.0146,149.4199 L106.0146,159.4199 L48.8296,159.4199 L48.8296,142.1094 " fill="none" style="stroke:#000000;stroke-width:1.5;"/><rect fill="none" height="56.6211" style="stroke:#000000;stroke-width:1.5;" width="326.7744" x="48.8296" y="142.1094"/><text fill="#000000" font-family="sans-serif" font-size="13" font-weight="bold" lengthAdjust="spacing" textLength="22.1851" x="63.8296" y="155.6777">opt</text><text fill="#000000" font-family="sans-serif" font-size="11" font-weight="bold" lengthAdjust="spacing" textLength="34.665" x="131.0146" y="154.7441">[bad?]</text><ellipse cx="64.3296" cy="189.9805" fill="none" rx="4" ry="4" style="stroke:#181818;stroke-width:1.5;"/><polygon fill="#181818" points="171.6855,186.7305,181.6855,190.7305,171.6855,194.7305,175.6855,190.7305" style="stroke:#181818;stroke-width:1.0;"/><line style="stroke:#181818;stroke-width:1.0;" x1="68.8296" x2="177.6855" y1="190.7305" y2="190.7305"/><polygon fill="#181818" points="194.6855,186.7305,184.6855,190.7305,194.6855,194.7305,190.6855,190.7305" style="stroke:#181818;stroke-width:1.0;"/><ellipse cx="378.104" cy="189.9805" fill="none" rx="4" ry="4" style="stroke:#181818;stroke-width:1.5;"/><line style="stroke:#181818;stroke-width:1.0;" x1="188.6855" x2="373.604" y1="190.7305" y2="190.7305"/><text fill="#000000" font-family="sans-serif" font-size="13" lengthAdjust="spacing" textLength="151.9185" x="200.6855" y="185.9883">yolo; testing longer text</text><path d="M123.938,216.7305 L191.123,216.7305 L191.123,224.041 L181.123,234.041 L123.938,234.041 L123.938,216.7305 " fill="none" style="stroke:#000000;stroke-width:1.5;"/><rect fill="none" height="56.6211" style="stroke:#000000;stroke-width:1.5;" width="127.3823" x="123.938" y="216.7305"/><text fill="#000000" font-family="sans-serif" font-size="13" font-weight="bold" lengthAdjust="spacing" textLength="22.1851" x="138.938" y="230.2988">opt</text><text fill="#000000" font-family="sans-serif" font-size="11" font-weight="bold" lengthAdjust="spacing" textLength="29.1973" x="206.123" y="229.3652">[bad]</text><ellipse cx="145.438" cy="264.6016" fill="none" rx="4" ry="4" style="stroke:#181818;stroke-width:1.5;"/><polygon fill="#181818" points="171.6855,261.3516,181.6855,265.3516,171.6855,269.3516,175.6855,265.3516" style="stroke:#181818;stroke-width:1.0;"/><line style="stroke:#181818;stroke-width:1.0;" x1="149.938" x2="177.6855" y1="265.3516" y2="265.3516"/><text fill="#000000" font-family="sans-serif" font-size="13" lengthAdjust="spacing" textLength="19.7476" x="152.938" y="260.6094">Pre</text><polygon fill="#181818" points="194.6855,261.3516,184.6855,265.3516,194.6855,269.3516,190.6855,265.3516" style="stroke:#181818;stroke-width:1.0;"/><ellipse cx="227.7061" cy="264.6016" fill="none" rx="4" ry="4" style="stroke:#181818;stroke-width:1.5;"/><line style="stroke:#181818;stroke-width:1.0;" x1="188.6855" x2="223.2061" y1="265.3516" y2="265.3516"/><text fill="#000000" font-family="sans-serif" font-size="13" lengthAdjust="spacing" textLength="26.5205" x="200.6855" y="260.6094">yolo</text><!--SRC=[hP1DRi9038NtSufN8P5LHCiAjLKZmWMohrYOZfME2FPeCaYXfwyd4j0rwiu_x_cp_HGJzIT2Plr1JcTsup58f4GdT9Ho-0gH97VaVP0UBvi__LQdQttzx0uwkNXtOEjOF4eLsAB-GEkMQ4kmSnhp8YUIqGnisaKCSiI1V3EBzQP-htMFLrnqK5SjiKFz-HsyPzdR6Amgi0oKUePDB2nKgu9z2F1cJnXpkMPGwJbPEkN_ePedoFnZKpOptQ1TukiEpGD7_W80]--></g></svg>