<svg xmlns="http://www.w3.org/2000/svg" xmlns:xlink="http://www.w3.org/1999/xlink" contentStyleType="text/css" height="429px" preserveAspectRatio="none" style="width:433px;height:429px;background:#FFFFFF;" version="1.1" viewBox="0 0 433 429" width="433px" zoomAndPan="magnify"><defs/><g><rect fill="#DDDDDD" height="417.4609" style="stroke:#181818;stroke-width:0.5;" width="68" x="31" y="6"/><rect fill="#FFC0CB" height="56.6211" style="stroke:#FFC0CB;stroke-width:1.0;" width="296" x="125" y="67.4883"/><rect fill="#20DD00" fill-opacity="0.56471" height="56.6211" style="stroke:#20DD0090;stroke-width:1.0;" width="336" x="49" y="216.7305"/><rect fill="#FFC0CB" height="70.6211" style="stroke:#FFC0CB;stroke-width:1.0;" width="202" x="49" y="291.3516"/><line style="stroke:#181818;stroke-width:0.5;stroke-dasharray:5.0,5.0;" x1="65" x2="65" y1="41.4883" y2="385.9727"/><line style="stroke:#181818;stroke-width:0.5;stroke-dasharray:5.0,5.0;" x1="184" x2="184" y1="41.4883" y2="385.9727"/><line style="stroke:#181818;stroke-width:0.5;stroke-dasharray:5.0,5.0;" x1="369" x2="369" y1="41.4883" y2="385.9727"/><rect fill="#E2E2F0" height="30.4883" rx="2.5" ry="2.5" style="stroke:#181818;stroke-width:0.5;" width="24" x="53" y="10"/><text fill="#000000" font-family="sans-serif" font-size="14" lengthAdjust="spacing" textLength="10" x="60" y="30.5352">A</text><rect fill="#E2E2F0" height="30.4883" rx="2.5" ry="2.5" style="stroke:#181818;stroke-width:0.5;" width="22" x="173" y="10"/><text fill="#000000" font-family="sans-serif" font-size="14" lengthAdjust="spacing" textLength="8" x="180" y="30.5352">B</text><rect fill="#E2E2F0" height="30.4883" rx="2.5" ry="2.5" style="stroke:#181818;stroke-width:0.5;" width="24" x="357" y="10"/><text fill="#000000" font-family="sans-serif" font-size="14" lengthAdjust="spacing" textLength="10" x="364" y="30.5352">C</text><rect fill="#E2E2F0" height="30.4883" rx="2.5" ry="2.5" style="stroke:#181818;stroke-width:0.5;" width="24" x="53" y="385.9727"/><text fill="#000000" font-family="sans-serif" font-size="14" lengthAdjust="spacing" textLength="10" x="60" y="406.5078">A</text><rect fill="#E2E2F0" height="30.4883" rx="2.5" ry="2.5" style="stroke:#181818;stroke-width:0.5;" width="22" x="173" y="385.9727"/><text fill="#000000" font-family="sans-serif" font-size="14" lengthAdjust="spacing" textLength="8" x="180" y="406.5078">B</text><rect fill="#E2E2F0" height="30.4883" rx="2.5" ry="2.5" style="stroke:#181818;stroke-width:0.5;" width="24" x="357" y="385.9727"/><text fill="#000000" font-family="sans-serif" font-size="14" lengthAdjust="spacing" textLength="10" x="364" y="406.5078">C</text><polygon fill="#181818" points="172,51.4883,182,55.4883,172,59.4883,176,55.4883" style="stroke:#181818;stroke-width:1.0;"/><line style="stroke:#181818;stroke-width:1.0;" x1="65" x2="178" y1="55.4883" y2="55.4883"/><polygon fill="#181818" points="357,51.4883,367,55.4883,357,59.4883,361,55.4883" style="stroke:#181818;stroke-width:1.0;"/><line style="stroke:#181818;stroke-width:1.0;" x1="184" x2="363" y1="55.4883" y2="55.4883"/><path d="M125,67.4883 L192,67.4883 L192,74.7988 L182,84.7988 L125,84.7988 L125,67.4883 " fill="none" style="stroke:#000000;stroke-width:1.5;"/><rect fill="none" height="56.6211" style="stroke:#000000;stroke-width:1.5;" width="296" x="125" y="67.4883"/><text fill="#000000" font-family="sans-serif" font-size="13" font-weight="bold" lengthAdjust="spacing" textLength="22" x="140" y="81.0566">opt</text><text fill="#000000" font-family="sans-serif" font-size="11" font-weight="bold" lengthAdjust="spacing" textLength="28" x="207" y="80.123">[bad]</text><ellipse cx="146.5" cy="115.3594" fill="none" rx="4" ry="4" style="stroke:#181818;stroke-width:1.5;"/><polygon fill="#181818" points="172,112.1094,182,116.1094,172,120.1094,176,116.1094" style="stroke:#181818;stroke-width:1.0;"/><line style="stroke:#181818;stroke-width:1.0;" x1="151" x2="178" y1="116.1094" y2="116.1094"/><text fill="#000000" font-family="sans-serif" font-size="13" lengthAdjust="spacing" textLength="19" x="154" y="111.3672">Pre</text><polygon fill="#181818" points="195,112.1094,185,116.1094,195,120.1094,191,116.1094" style="stroke:#181818;stroke-width:1.0;"/><ellipse cx="398.5" cy="115.3594" fill="none" rx="4" ry="4" style="stroke:#181818;stroke-width:1.5;"/><line style="stroke:#181818;stroke-width:1.0;" x1="189" x2="394" y1="116.1094" y2="116.1094"/><text fill="#000000" font-family="sans-serif" font-size="13" lengthAdjust="spacing" textLength="197" x="201" y="111.3672">yolo and then more to the right</text><path d="M125,142.1094 L192,142.1094 L192,149.4199 L182,159.4199 L125,159.4199 L125,142.1094 " fill="none" style="stroke:#000000;stroke-width:1.5;"/><rect fill="none" height="56.6211" style="stroke:#000000;stroke-width:1.5;" width="150" x="125" y="142.1094"/><text fill="#000000" font-family="sans-serif" font-size="13" font-weight="bold" lengthAdjust="spacing" textLength="22" x="140" y="155.6777">opt</text><text fill="#000000" font-family="sans-serif" font-size="11" font-weight="bold" lengthAdjust="spacing" textLength="52" x="207" y="154.7441">[expand?]</text><ellipse cx="10.5" cy="189.9805" fill="none" rx="4" ry="4" style="stroke:#181818;stroke-width:1.5;"/><polygon fill="#181818" points="172,186.7305,182,190.7305,172,194.7305,176,190.7305" style="stroke:#181818;stroke-width:1.0;"/><line style="stroke:#181818;stroke-width:1.0;" x1="15" x2="178" y1="190.7305" y2="190.7305"/><text fill="#000000" font-family="sans-serif" font-size="13" lengthAdjust="spacing" textLength="19" x="154" y="185.9883">Pre</text><polygon fill="#181818" points="195,186.7305,185,190.7305,195,194.7305,191,190.7305" style="stroke:#181818;stroke-width:1.0;"/><ellipse cx="228.5" cy="189.9805" fill="none" rx="4" ry="4" style="stroke:#181818;stroke-width:1.5;"/><line style="stroke:#181818;stroke-width:1.0;" x1="189" x2="224" y1="190.7305" y2="190.7305"/><text fill="#000000" font-family="sans-serif" font-size="13" lengthAdjust="spacing" textLength="27" x="201" y="185.9883">yolo</text><path d="M49,216.7305 L116,216.7305 L116,224.041 L106,234.041 L49,234.041 L49,216.7305 " fill="none" style="stroke:#000000;stroke-width:1.5;"/><rect fill="none" height="56.6211" style="stroke:#000000;stroke-width:1.5;" width="336" x="49" y="216.7305"/><text fill="#000000" font-family="sans-serif" font-size="13" font-weight="bold" lengthAdjust="spacing" textLength="22" x="64" y="230.2988">opt</text><text fill="#000000" font-family="sans-serif" font-size="11" font-weight="bold" lengthAdjust="spacing" textLength="25" x="131" y="229.3652">[OK]</text><ellipse cx="64.5" cy="264.6016" fill="none" rx="4" ry="4" style="stroke:#181818;stroke-width:1.5;"/><polygon fill="#181818" points="172,261.3516,182,265.3516,172,269.3516,176,265.3516" style="stroke:#181818;stroke-width:1.0;"/><line style="stroke:#181818;stroke-width:1.0;" x1="69" x2="178" y1="265.3516" y2="265.3516"/><polygon fill="#181818" points="195,261.3516,185,265.3516,195,269.3516,191,265.3516" style="stroke:#181818;stroke-width:1.0;"/><line style="stroke:#181818;stroke-width:1.0;" x1="189" x2="368" y1="265.3516" y2="265.3516"/><text fill="#000000" font-family="sans-serif" font-size="13" lengthAdjust="spacing" textLength="161" x="201" y="260.6094">yolo and then to the right</text><path d="M49,291.3516 L116,291.3516 L116,298.6621 L106,308.6621 L49,308.6621 L49,291.3516 " fill="none" style="stroke:#000000;stroke-width:1.5;"/><rect fill="none" height="70.6211" style="stroke:#000000;stroke-width:1.5;" width="202" x="49" y="291.3516"/><text fill="#000000" font-family="sans-serif" font-size="13" font-weight="bold" lengthAdjust="spacing" textLength="22" x="64" y="304.9199">opt</text><text fill="#000000" font-family="sans-serif" font-size="11" font-weight="bold" lengthAdjust="spacing" textLength="33" x="131" y="303.9863">[bad?]</text><ellipse cx="64.5" cy="323.9121" fill="none" rx="4" ry="4" style="stroke:#181818;stroke-width:1.5;"/><polygon fill="#181818" points="172,320.6621,182,324.6621,172,328.6621,176,324.6621" style="stroke:#181818;stroke-width:1.0;"/><line style="stroke:#181818;stroke-width:1.0;" x1="69" x2="178" y1="324.6621" y2="324.6621"/><polygon fill="#181818" points="195,349.9727,185,353.9727,195,357.9727,191,353.9727" style="stroke:#181818;stroke-width:1.0;"/><ellipse cx="423.5" cy="353.2227" fill="none" rx="4" ry="4" style="stroke:#181818;stroke-width:1.5;"/><line style="stroke:#181818;stroke-width:1.0;" x1="189" x2="419" y1="353.9727" y2="353.9727"/><text fill="#000000" font-family="sans-serif" font-size="13" lengthAdjust="spacing" textLength="27" x="201" y="349.2305">yolo</text><!--SRC=[hL0zJyCm4DtzAnwAr4nHJIT05L6JRWnahpgu-9HORNoMQwJ0h-SIHAaeGY2n-SxtFgz2D6rla8XVaU8pgUFU-M2YwT6OcDoJ2yQdnbZhV8lhcxF_YeUF_KAh7GygV2AmKkGjnYsmGd6FIirGZOzQSKXPYiOV1K1ocmNdzzWPYtdk_6GcdwkIHnJkq4IQiCk2InbV-C0mGfuwykWv4XAF0w9hkwJo6MeKcyvPItuhUi8AyWSJMu98ZwOW_EBlmWaDOjwMQlE3zgy5ljvLtqfc2xrUQtshyVWmTSMdifP5VP7ttwAUIY_FLD-JRl-QLFZV0000]--></g></svg>