<svg xmlns="http://www.w3.org/2000/svg" xmlns:xlink="http://www.w3.org/1999/xlink" contentStyleType="text/css" height="217px" preserveAspectRatio="none" style="width:225px;height:217px;background:#FFFFFF;" version="1.1" viewBox="0 0 225 217" width="225px" zoomAndPan="magnify"><defs/><g><line style="stroke:#181818;stroke-width:0.5;stroke-dasharray:5.0,5.0;" x1="36" x2="36" y1="36.4883" y2="181.4199"/><rect fill="#808000" height="136.9316" style="stroke:#181818;stroke-width:1.0;" width="10" x="31" y="44.4883"/><rect fill="#6B8E23" height="63.6211" style="stroke:#181818;stroke-width:1.0;" width="10" x="36" y="44.4883"/><rect fill="#3CB371" height="21.3105" style="stroke:#181818;stroke-width:1.0;" width="10" x="41" y="44.4883"/><rect fill="#E2E2F0" height="30.4883" rx="2.5" ry="2.5" style="stroke:#181818;stroke-width:0.5;" width="62" x="5" y="5"/><text fill="#000000" font-family="sans-serif" font-size="14" lengthAdjust="spacing" textLength="48" x="12" y="25.5352">actor 1</text><rect fill="#E2E2F0" height="30.4883" rx="2.5" ry="2.5" style="stroke:#181818;stroke-width:0.5;" width="62" x="5" y="181.4199"/><text fill="#000000" font-family="sans-serif" font-size="14" lengthAdjust="spacing" textLength="48" x="12" y="201.9551">actor 1</text><line style="stroke:#181818;stroke-width:1.0;" x1="51" x2="93" y1="65.7988" y2="65.7988"/><line style="stroke:#181818;stroke-width:1.0;" x1="93" x2="93" y1="65.7988" y2="78.7988"/><line style="stroke:#181818;stroke-width:1.0;" x1="46" x2="93" y1="78.7988" y2="78.7988"/><polygon fill="#181818" points="56,74.7988,46,78.7988,56,82.7988,52,78.7988" style="stroke:#181818;stroke-width:1.0;"/><text fill="#000000" font-family="sans-serif" font-size="13" lengthAdjust="spacing" textLength="160" x="58" y="61.0566">actor1 sub-sub-activity1</text><line style="stroke:#181818;stroke-width:1.0;" x1="46" x2="88" y1="108.1094" y2="108.1094"/><line style="stroke:#181818;stroke-width:1.0;" x1="88" x2="88" y1="108.1094" y2="121.1094"/><line style="stroke:#181818;stroke-width:1.0;" x1="41" x2="88" y1="121.1094" y2="121.1094"/><polygon fill="#181818" points="51,117.1094,41,121.1094,51,125.1094,47,121.1094" style="stroke:#181818;stroke-width:1.0;"/><text fill="#000000" font-family="sans-serif" font-size="13" lengthAdjust="spacing" textLength="129" x="53" y="103.3672">actor1 sub-activity2</text><line style="stroke:#181818;stroke-width:1.0;" x1="41" x2="83" y1="150.4199" y2="150.4199"/><line style="stroke:#181818;stroke-width:1.0;" x1="83" x2="83" y1="150.4199" y2="163.4199"/><line style="stroke:#181818;stroke-width:1.0;" x1="42" x2="83" y1="163.4199" y2="163.4199"/><polygon fill="#181818" points="52,159.4199,42,163.4199,52,167.4199,48,163.4199" style="stroke:#181818;stroke-width:1.0;"/><text fill="#000000" font-family="sans-serif" font-size="13" lengthAdjust="spacing" textLength="98" x="48" y="145.6777">actor1 activity2</text><!--SRC=[KomeIapFJLGeISslKYWfAatbIamkoInBB4bLK0AoyeiK39KKbFrpCilmoBWK9IPXbVLDJSaipGrEJNGlIatDuqB8wDeXb5afW5c62iMbIReW33OfiwJIa2ib5TDKOao1cM14bWbmtG00]--></g></svg>