<svg xmlns="http://www.w3.org/2000/svg" xmlns:xlink="http://www.w3.org/1999/xlink" contentStyleType="text/css" height="546px" preserveAspectRatio="none" style="width:230px;height:546px;background:#FFFFFF;" version="1.1" viewBox="0 0 230 546" width="230px" zoomAndPan="magnify"><defs/><g><line style="stroke:#181818;stroke-width:0.5;stroke-dasharray:5.0,5.0;" x1="35" x2="35" y1="36.4883" y2="510.2148"/><line style="stroke:#181818;stroke-width:0.5;stroke-dasharray:5.0,5.0;" x1="104" x2="104" y1="36.4883" y2="510.2148"/><line style="stroke:#181818;stroke-width:0.5;stroke-dasharray:5.0,5.0;" x1="173" x2="173" y1="36.4883" y2="510.2148"/><rect fill="#E2E2F0" height="30.4883" rx="2.5" ry="2.5" style="stroke:#181818;stroke-width:0.5;" width="24" x="23" y="5"/><text fill="#000000" font-family="sans-serif" font-size="14" lengthAdjust="spacing" textLength="10" x="30" y="25.5352">A</text><rect fill="#E2E2F0" height="30.4883" rx="2.5" ry="2.5" style="stroke:#181818;stroke-width:0.5;" width="22" x="93" y="5"/><text fill="#000000" font-family="sans-serif" font-size="14" lengthAdjust="spacing" textLength="8" x="100" y="25.5352">B</text><rect fill="#E2E2F0" height="30.4883" rx="2.5" ry="2.5" style="stroke:#181818;stroke-width:0.5;" width="24" x="161" y="5"/><text fill="#000000" font-family="sans-serif" font-size="14" lengthAdjust="spacing" textLength="10" x="168" y="25.5352">C</text><rect fill="#E2E2F0" height="30.4883" rx="2.5" ry="2.5" style="stroke:#181818;stroke-width:0.5;" width="24" x="23" y="510.2148"/><text fill="#000000" font-family="sans-serif" font-size="14" lengthAdjust="spacing" textLength="10" x="30" y="530.75">A</text><rect fill="#E2E2F0" height="30.4883" rx="2.5" ry="2.5" style="stroke:#181818;stroke-width:0.5;" width="22" x="93" y="510.2148"/><text fill="#000000" font-family="sans-serif" font-size="14" lengthAdjust="spacing" textLength="8" x="100" y="530.75">B</text><rect fill="#E2E2F0" height="30.4883" rx="2.5" ry="2.5" style="stroke:#181818;stroke-width:0.5;" width="24" x="161" y="510.2148"/><text fill="#000000" font-family="sans-serif" font-size="14" lengthAdjust="spacing" textLength="10" x="168" y="530.75">C</text><polygon fill="#181818" points="92,46.4883,102,50.4883,92,54.4883,96,50.4883" style="stroke:#181818;stroke-width:1.0;"/><line style="stroke:#181818;stroke-width:1.0;" x1="35" x2="98" y1="50.4883" y2="50.4883"/><polygon fill="#181818" points="161,46.4883,171,50.4883,161,54.4883,165,50.4883" style="stroke:#181818;stroke-width:1.0;"/><line style="stroke:#181818;stroke-width:1.0;" x1="104" x2="167" y1="50.4883" y2="50.4883"/><rect fill="#EEEEEE" height="3" style="stroke:#EEEEEE;stroke-width:1.0;" width="218" x="5" y="79.1436"/><line style="stroke:#000000;stroke-width:1.0;" x1="5" x2="223" y1="79.1436" y2="79.1436"/><line style="stroke:#000000;stroke-width:1.0;" x1="5" x2="223" y1="82.1436" y2="82.1436"/><rect fill="#EEEEEE" height="23.3105" style="stroke:#000000;stroke-width:2.0;" width="103" x="62.5" y="68.4883"/><text fill="#000000" font-family="sans-serif" font-size="13" font-weight="bold" lengthAdjust="spacing" textLength="85" x="68.5" y="85.0566">short arrows</text><path d="M38,105.7988 L105,105.7988 L105,113.1094 L95,123.1094 L38,123.1094 L38,105.7988 " fill="none" style="stroke:#000000;stroke-width:1.5;"/><rect fill="none" height="56.6211" style="stroke:#000000;stroke-width:1.5;" width="132" x="38" y="105.7988"/><text fill="#000000" font-family="sans-serif" font-size="13" font-weight="bold" lengthAdjust="spacing" textLength="22" x="53" y="119.3672">opt</text><ellipse cx="59.5" cy="153.6699" fill="none" rx="4" ry="4" style="stroke:#181818;stroke-width:1.5;"/><polygon fill="#181818" points="92,150.4199,102,154.4199,92,158.4199,96,154.4199" style="stroke:#181818;stroke-width:1.0;"/><line style="stroke:#181818;stroke-width:1.0;" x1="64" x2="98" y1="154.4199" y2="154.4199"/><text fill="#000000" font-family="sans-serif" font-size="13" lengthAdjust="spacing" textLength="26" x="67" y="149.6777">four</text><polygon fill="#181818" points="115,150.4199,105,154.4199,115,158.4199,111,154.4199" style="stroke:#181818;stroke-width:1.0;"/><ellipse cx="147.5" cy="153.6699" fill="none" rx="4" ry="4" style="stroke:#181818;stroke-width:1.5;"/><line style="stroke:#181818;stroke-width:1.0;" x1="109" x2="143" y1="154.4199" y2="154.4199"/><text fill="#000000" font-family="sans-serif" font-size="13" lengthAdjust="spacing" textLength="26" x="121" y="149.6777">four</text><ellipse cx="59.5" cy="196.9805" fill="none" rx="4" ry="4" style="stroke:#181818;stroke-width:1.5;"/><polygon fill="#181818" points="92,193.7305,102,197.7305,92,201.7305,96,197.7305" style="stroke:#181818;stroke-width:1.0;"/><line style="stroke:#181818;stroke-width:1.0;" x1="64" x2="98" y1="197.7305" y2="197.7305"/><text fill="#000000" font-family="sans-serif" font-size="13" lengthAdjust="spacing" textLength="26" x="67" y="192.9883">four</text><polygon fill="#181818" points="115,193.7305,105,197.7305,115,201.7305,111,197.7305" style="stroke:#181818;stroke-width:1.0;"/><ellipse cx="147.5" cy="196.9805" fill="none" rx="4" ry="4" style="stroke:#181818;stroke-width:1.5;"/><line style="stroke:#181818;stroke-width:1.0;" x1="109" x2="143" y1="197.7305" y2="197.7305"/><text fill="#000000" font-family="sans-serif" font-size="13" lengthAdjust="spacing" textLength="26" x="121" y="192.9883">four</text><rect fill="#EEEEEE" height="3" style="stroke:#EEEEEE;stroke-width:1.0;" width="218" x="5" y="226.3857"/><line style="stroke:#000000;stroke-width:1.0;" x1="5" x2="223" y1="226.3857" y2="226.3857"/><line style="stroke:#000000;stroke-width:1.0;" x1="5" x2="223" y1="229.3857" y2="229.3857"/><rect fill="#EEEEEE" height="23.3105" style="stroke:#000000;stroke-width:2.0;" width="121" x="53.5" y="215.7305"/><text fill="#000000" font-family="sans-serif" font-size="13" font-weight="bold" lengthAdjust="spacing" textLength="103" x="59.5" y="232.2988">left edge arrow</text><path d="M64,253.041 L131,253.041 L131,260.3516 L121,270.3516 L64,270.3516 L64,253.041 " fill="none" style="stroke:#000000;stroke-width:1.5;"/><rect fill="none" height="56.6211" style="stroke:#000000;stroke-width:1.5;" width="150" x="64" y="253.041"/><text fill="#000000" font-family="sans-serif" font-size="13" font-weight="bold" lengthAdjust="spacing" textLength="22" x="79" y="266.6094">opt</text><text fill="#000000" font-family="sans-serif" font-size="11" font-weight="bold" lengthAdjust="spacing" textLength="52" x="146" y="265.6758">[expand?]</text><ellipse cx="10.5" cy="300.9121" fill="none" rx="4" ry="4" style="stroke:#181818;stroke-width:1.5;"/><polygon fill="#181818" points="92,297.6621,102,301.6621,92,305.6621,96,301.6621" style="stroke:#181818;stroke-width:1.0;"/><line style="stroke:#181818;stroke-width:1.0;" x1="15" x2="98" y1="301.6621" y2="301.6621"/><polygon fill="#181818" points="115,297.6621,105,301.6621,115,305.6621,111,301.6621" style="stroke:#181818;stroke-width:1.0;"/><ellipse cx="172.5" cy="300.9121" fill="none" rx="4" ry="4" style="stroke:#181818;stroke-width:1.5;"/><line style="stroke:#181818;stroke-width:1.0;" x1="109" x2="168" y1="301.6621" y2="301.6621"/><text fill="#000000" font-family="sans-serif" font-size="13" lengthAdjust="spacing" textLength="26" x="121" y="296.9199">four</text><ellipse cx="10.5" cy="344.2227" fill="none" rx="4" ry="4" style="stroke:#181818;stroke-width:1.5;"/><polygon fill="#181818" points="92,340.9727,102,344.9727,92,348.9727,96,344.9727" style="stroke:#181818;stroke-width:1.0;"/><line style="stroke:#181818;stroke-width:1.0;" x1="15" x2="98" y1="344.9727" y2="344.9727"/><polygon fill="#181818" points="115,340.9727,105,344.9727,115,348.9727,111,344.9727" style="stroke:#181818;stroke-width:1.0;"/><ellipse cx="172.5" cy="344.2227" fill="none" rx="4" ry="4" style="stroke:#181818;stroke-width:1.5;"/><line style="stroke:#181818;stroke-width:1.0;" x1="109" x2="168" y1="344.9727" y2="344.9727"/><text fill="#000000" font-family="sans-serif" font-size="13" lengthAdjust="spacing" textLength="26" x="121" y="340.2305">four</text><rect fill="#EEEEEE" height="3" style="stroke:#EEEEEE;stroke-width:1.0;" width="218" x="5" y="373.6279"/><line style="stroke:#000000;stroke-width:1.0;" x1="5" x2="223" y1="373.6279" y2="373.6279"/><line style="stroke:#000000;stroke-width:1.0;" x1="5" x2="223" y1="376.6279" y2="376.6279"/><rect fill="#EEEEEE" height="23.3105" style="stroke:#000000;stroke-width:2.0;" width="128" x="50" y="362.9727"/><text fill="#000000" font-family="sans-serif" font-size="13" font-weight="bold" lengthAdjust="spacing" textLength="114" x="56" y="379.541">right edge arrow</text><path d="M19,400.2832 L86,400.2832 L86,407.5938 L76,417.5938 L19,417.5938 L19,400.2832 " fill="none" style="stroke:#000000;stroke-width:1.5;"/><rect fill="none" height="56.6211" style="stroke:#000000;stroke-width:1.5;" width="125" x="19" y="400.2832"/><text fill="#000000" font-family="sans-serif" font-size="13" font-weight="bold" lengthAdjust="spacing" textLength="22" x="34" y="413.8516">opt</text><ellipse cx="34.5" cy="448.1543" fill="none" rx="4" ry="4" style="stroke:#181818;stroke-width:1.5;"/><polygon fill="#181818" points="92,444.9043,102,448.9043,92,452.9043,96,448.9043" style="stroke:#181818;stroke-width:1.0;"/><line style="stroke:#181818;stroke-width:1.0;" x1="39" x2="98" y1="448.9043" y2="448.9043"/><text fill="#000000" font-family="sans-serif" font-size="13" lengthAdjust="spacing" textLength="26" x="42" y="444.1621">four</text><polygon fill="#181818" points="115,444.9043,105,448.9043,115,452.9043,111,448.9043" style="stroke:#181818;stroke-width:1.0;"/><ellipse cx="216.5" cy="448.1543" fill="none" rx="4" ry="4" style="stroke:#181818;stroke-width:1.5;"/><line style="stroke:#181818;stroke-width:1.0;" x1="109" x2="212" y1="448.9043" y2="448.9043"/><ellipse cx="34.5" cy="491.4648" fill="none" rx="4" ry="4" style="stroke:#181818;stroke-width:1.5;"/><polygon fill="#181818" points="92,488.2148,102,492.2148,92,496.2148,96,492.2148" style="stroke:#181818;stroke-width:1.0;"/><line style="stroke:#181818;stroke-width:1.0;" x1="39" x2="98" y1="492.2148" y2="492.2148"/><text fill="#000000" font-family="sans-serif" font-size="13" lengthAdjust="spacing" textLength="26" x="42" y="487.4727">four</text><polygon fill="#181818" points="115,488.2148,105,492.2148,115,496.2148,111,492.2148" style="stroke:#181818;stroke-width:1.0;"/><ellipse cx="216.5" cy="491.4648" fill="none" rx="4" ry="4" style="stroke:#181818;stroke-width:1.5;"/><line style="stroke:#181818;stroke-width:1.0;" x1="109" x2="212" y1="492.2148" y2="492.2148"/><!--SRC=[XO-n3e9044Jx-uen9dOKTiQ8HFW1UcEnyGwuA7UNPOd6h_V0Q2WWThlPdNapgy1KjmGn_WNXtgZkPbqWfXObiTYh3UIa9Asjgx7TAU24v8XSRP0FGw7I55tZMK3C_j4XJPKFiXOcrqKduqHbVf1WZyhtF2eFYS- -kt7wpqT4t4qbCBes7ymC1UOPi-fCdVqlO3H1CUKitIA1RTrC4JCzXl9pGI-Zz-Br3G00]--></g></svg>