<svg xmlns="http://www.w3.org/2000/svg" xmlns:xlink="http://www.w3.org/1999/xlink" contentStyleType="text/css" height="458px" preserveAspectRatio="none" style="width:292px;height:458px;background:#FFFFFF;" version="1.1" viewBox="0 0 292 458" width="292px" zoomAndPan="magnify"><defs/><g><rect fill="#DDDDDD" height="446.7715" style="stroke:#181818;stroke-width:0.5;" width="67.6592" x="31" y="6"/><rect fill="#FFC0CB" height="56.6211" style="stroke:#FFC0CB;stroke-width:1.0;" width="127.3823" x="123.938" y="67.4883"/><rect fill="#20DD00" fill-opacity="0.56471" height="56.6211" style="stroke:#20DD0090;stroke-width:1.0;" width="201.3765" x="48.8296" y="260.041"/><rect fill="#FFC0CB" height="56.6211" style="stroke:#FFC0CB;stroke-width:1.0;" width="201.3765" x="48.8296" y="334.6621"/><line style="stroke:#181818;stroke-width:0.5;stroke-dasharray:5.0,5.0;" x1="64.8296" x2="64.8296" y1="41.4883" y2="415.2832"/><line style="stroke:#181818;stroke-width:0.5;stroke-dasharray:5.0,5.0;" x1="183.6855" x2="183.6855" y1="41.4883" y2="415.2832"/><line style="stroke:#181818;stroke-width:0.5;stroke-dasharray:5.0,5.0;" x1="252.5552" x2="252.5552" y1="41.4883" y2="415.2832"/><rect fill="#E2E2F0" height="30.4883" rx="2.5" ry="2.5" style="stroke:#181818;stroke-width:0.5;" width="23.6592" x="53" y="10"/><text fill="#000000" font-family="sans-serif" font-size="14" lengthAdjust="spacing" textLength="9.6592" x="60" y="30.5352">A</text><rect fill="#E2E2F0" height="30.4883" rx="2.5" ry="2.5" style="stroke:#181818;stroke-width:0.5;" width="22.0527" x="172.6592" y="10"/><text fill="#000000" font-family="sans-serif" font-size="14" lengthAdjust="spacing" textLength="8.0527" x="179.6592" y="30.5352">B</text><rect fill="#E2E2F0" height="30.4883" rx="2.5" ry="2.5" style="stroke:#181818;stroke-width:0.5;" width="23.6865" x="240.7119" y="10"/><text fill="#000000" font-family="sans-serif" font-size="14" lengthAdjust="spacing" textLength="9.6865" x="247.7119" y="30.5352">C</text><rect fill="#E2E2F0" height="30.4883" rx="2.5" ry="2.5" style="stroke:#181818;stroke-width:0.5;" width="23.6592" x="53" y="415.2832"/><text fill="#000000" font-family="sans-serif" font-size="14" lengthAdjust="spacing" textLength="9.6592" x="60" y="435.8184">A</text><rect fill="#E2E2F0" height="30.4883" rx="2.5" ry="2.5" style="stroke:#181818;stroke-width:0.5;" width="22.0527" x="172.6592" y="415.2832"/><text fill="#000000" font-family="sans-serif" font-size="14" lengthAdjust="spacing" textLength="8.0527" x="179.6592" y="435.8184">B</text><rect fill="#E2E2F0" height="30.4883" rx="2.5" ry="2.5" style="stroke:#181818;stroke-width:0.5;" width="23.6865" x="240.7119" y="415.2832"/><text fill="#000000" font-family="sans-serif" font-size="14" lengthAdjust="spacing" textLength="9.6865" x="247.7119" y="435.8184">C</text><polygon fill="#181818" points="171.6855,51.4883,181.6855,55.4883,171.6855,59.4883,175.6855,55.4883" style="stroke:#181818;stroke-width:1.0;"/><line style="stroke:#181818;stroke-width:1.0;" x1="64.8296" x2="177.6855" y1="55.4883" y2="55.4883"/><polygon fill="#181818" points="240.5552,51.4883,250.5552,55.4883,240.5552,59.4883,244.5552,55.4883" style="stroke:#181818;stroke-width:1.0;"/><line style="stroke:#181818;stroke-width:1.0;" x1="183.6855" x2="246.5552" y1="55.4883" y2="55.4883"/><path d="M123.938,67.4883 L191.123,67.4883 L191.123,74.7988 L181.123,84.7988 L123.938,84.7988 L123.938,67.4883 " fill="none" style="stroke:#000000;stroke-width:1.5;"/><rect fill="none" height="56.6211" style="stroke:#000000;stroke-width:1.5;" width="127.3823" x="123.938" y="67.4883"/><text fill="#000000" font-family="sans-serif" font-size="13" font-weight="bold" lengthAdjust="spacing" textLength="22.1851" x="138.938" y="81.0566">opt</text><text fill="#000000" font-family="sans-serif" font-size="11" font-weight="bold" lengthAdjust="spacing" textLength="29.1973" x="206.123" y="80.123">[bad]</text><ellipse cx="145.438" cy="115.3594" fill="none" rx="4" ry="4" style="stroke:#181818;stroke-width:1.5;"/><polygon fill="#181818" points="171.6855,112.1094,181.6855,116.1094,171.6855,120.1094,175.6855,116.1094" style="stroke:#181818;stroke-width:1.0;"/><line style="stroke:#181818;stroke-width:1.0;" x1="149.938" x2="177.6855" y1="116.1094" y2="116.1094"/><text fill="#000000" font-family="sans-serif" font-size="13" lengthAdjust="spacing" textLength="19.7476" x="152.938" y="111.3672">Pre</text><polygon fill="#181818" points="194.6855,112.1094,184.6855,116.1094,194.6855,120.1094,190.6855,116.1094" style="stroke:#181818;stroke-width:1.0;"/><ellipse cx="227.7061" cy="115.3594" fill="none" rx="4" ry="4" style="stroke:#181818;stroke-width:1.5;"/><line style="stroke:#181818;stroke-width:1.0;" x1="188.6855" x2="223.2061" y1="116.1094" y2="116.1094"/><text fill="#000000" font-family="sans-serif" font-size="13" lengthAdjust="spacing" textLength="26.5205" x="200.6855" y="111.3672">yolo</text><path d="M123.938,142.1094 L191.123,142.1094 L191.123,149.4199 L181.123,159.4199 L123.938,159.4199 L123.938,142.1094 " fill="none" style="stroke:#000000;stroke-width:1.5;"/><rect fill="none" height="56.6211" style="stroke:#000000;stroke-width:1.5;" width="153.0186" x="123.938" y="142.1094"/><text fill="#000000" font-family="sans-serif" font-size="13" font-weight="bold" lengthAdjust="spacing" textLength="22.1851" x="138.938" y="155.6777">opt</text><text fill="#000000" font-family="sans-serif" font-size="11" font-weight="bold" lengthAdjust="spacing" textLength="54.8335" x="206.123" y="154.7441">[expand?]</text><ellipse cx="10.5" cy="189.9805" fill="none" rx="4" ry="4" style="stroke:#181818;stroke-width:1.5;"/><polygon fill="#181818" points="171.6855,186.7305,181.6855,190.7305,171.6855,194.7305,175.6855,190.7305" style="stroke:#181818;stroke-width:1.0;"/><line style="stroke:#181818;stroke-width:1.0;" x1="15" x2="177.6855" y1="190.7305" y2="190.7305"/><text fill="#000000" font-family="sans-serif" font-size="13" lengthAdjust="spacing" textLength="19.7476" x="152.938" y="185.9883">Pre</text><polygon fill="#181818" points="194.6855,186.7305,184.6855,190.7305,194.6855,194.7305,190.6855,190.7305" style="stroke:#181818;stroke-width:1.0;"/><ellipse cx="227.7061" cy="189.9805" fill="none" rx="4" ry="4" style="stroke:#181818;stroke-width:1.5;"/><line style="stroke:#181818;stroke-width:1.0;" x1="188.6855" x2="223.2061" y1="190.7305" y2="190.7305"/><text fill="#000000" font-family="sans-serif" font-size="13" lengthAdjust="spacing" textLength="26.5205" x="200.6855" y="185.9883">yolo</text><rect fill="#EEEEEE" height="3" style="stroke:#EEEEEE;stroke-width:1.0;" width="280.9565" x="5" y="233.3857"/><line style="stroke:#000000;stroke-width:1.0;" x1="5" x2="285.9565" y1="233.3857" y2="233.3857"/><line style="stroke:#000000;stroke-width:1.0;" x1="5" x2="285.9565" y1="236.3857" y2="236.3857"/><rect fill="#EEEEEE" height="23.3105" style="stroke:#000000;stroke-width:2.0;" width="235.8633" x="27.5466" y="222.7305"/><text fill="#000000" font-family="sans-serif" font-size="13" font-weight="bold" lengthAdjust="spacing" textLength="217.5786" x="33.5466" y="239.2988">Division showing diagram width</text><path d="M48.8296,260.041 L116.0146,260.041 L116.0146,267.3516 L106.0146,277.3516 L48.8296,277.3516 L48.8296,260.041 " fill="none" style="stroke:#000000;stroke-width:1.5;"/><rect fill="none" height="56.6211" style="stroke:#000000;stroke-width:1.5;" width="201.3765" x="48.8296" y="260.041"/><text fill="#000000" font-family="sans-serif" font-size="13" font-weight="bold" lengthAdjust="spacing" textLength="22.1851" x="63.8296" y="273.6094">opt</text><text fill="#000000" font-family="sans-serif" font-size="11" font-weight="bold" lengthAdjust="spacing" textLength="25.0186" x="131.0146" y="272.6758">[OK]</text><ellipse cx="64.3296" cy="307.9121" fill="none" rx="4" ry="4" style="stroke:#181818;stroke-width:1.5;"/><polygon fill="#181818" points="171.6855,304.6621,181.6855,308.6621,171.6855,312.6621,175.6855,308.6621" style="stroke:#181818;stroke-width:1.0;"/><line style="stroke:#181818;stroke-width:1.0;" x1="68.8296" x2="177.6855" y1="308.6621" y2="308.6621"/><polygon fill="#181818" points="194.6855,304.6621,184.6855,308.6621,194.6855,312.6621,190.6855,308.6621" style="stroke:#181818;stroke-width:1.0;"/><ellipse cx="227.7061" cy="307.9121" fill="none" rx="4" ry="4" style="stroke:#181818;stroke-width:1.5;"/><line style="stroke:#181818;stroke-width:1.0;" x1="188.6855" x2="223.2061" y1="308.6621" y2="308.6621"/><text fill="#000000" font-family="sans-serif" font-size="13" lengthAdjust="spacing" textLength="26.5205" x="200.6855" y="303.9199">yolo</text><path d="M48.8296,334.6621 L116.0146,334.6621 L116.0146,341.9727 L106.0146,351.9727 L48.8296,351.9727 L48.8296,334.6621 " fill="none" style="stroke:#000000;stroke-width:1.5;"/><rect fill="none" height="56.6211" style="stroke:#000000;stroke-width:1.5;" width="201.3765" x="48.8296" y="334.6621"/><text fill="#000000" font-family="sans-serif" font-size="13" font-weight="bold" lengthAdjust="spacing" textLength="22.1851" x="63.8296" y="348.2305">opt</text><text fill="#000000" font-family="sans-serif" font-size="11" font-weight="bold" lengthAdjust="spacing" textLength="34.665" x="131.0146" y="347.2969">[bad?]</text><ellipse cx="64.3296" cy="382.5332" fill="none" rx="4" ry="4" style="stroke:#181818;stroke-width:1.5;"/><polygon fill="#181818" points="171.6855,379.2832,181.6855,383.2832,171.6855,387.2832,175.6855,383.2832" style="stroke:#181818;stroke-width:1.0;"/><line style="stroke:#181818;stroke-width:1.0;" x1="68.8296" x2="177.6855" y1="383.2832" y2="383.2832"/><polygon fill="#181818" points="194.6855,379.2832,184.6855,383.2832,194.6855,387.2832,190.6855,383.2832" style="stroke:#181818;stroke-width:1.0;"/><ellipse cx="279.4565" cy="382.5332" fill="none" rx="4" ry="4" style="stroke:#181818;stroke-width:1.5;"/><line style="stroke:#181818;stroke-width:1.0;" x1="188.6855" x2="274.9565" y1="383.2832" y2="383.2832"/><text fill="#000000" font-family="sans-serif" font-size="13" lengthAdjust="spacing" textLength="26.5205" x="200.6855" y="378.541">yolo</text><!--SRC=[hP0nJyCm48Lt_ug7AZLJrT09425gces1x5M7AxQIKrkVvHWQ-FNOaIY8RAYRVRxtlkTtupor9q8myedWtupg3smTUJgX8H_ubHtPq93MR5lStlrwhsJudgzojPT1kHy5rifOZJG5rbWyeL9pLEcmKUB2B7YoVHIOk3jpR0_OayOoOpk6oPQgbAJ20nflHktZGifu_P2Zg6oE3HRRZhKsTXTDenJ67ict1j4_aH5DOeW9pWmneIxLzXg0ltlLY2mArFpEFOj5tyavbQIPsjJRcNNeK1JJ6bPvNUVvVOwNvx4rkTHshQzVcYwdWDq_05y0]--></g></svg>