<svg xmlns="http://www.w3.org/2000/svg" xmlns:xlink="http://www.w3.org/1999/xlink" contentStyleType="text/css" height="698px" preserveAspectRatio="none" style="width:219px;height:698px;background:#FFFFFF;" version="1.1" viewBox="0 0 219 698" width="219px" zoomAndPan="magnify"><defs/><g><rect fill="#FFFFAA" height="55.3105" style="stroke:#FFFFAA;stroke-width:1.0;" width="146" x="34" y="48.4883"/><rect fill="#FFFFAA" height="55.3105" style="stroke:#FFFFAA;stroke-width:1.0;" width="146" x="39" y="121.7988"/><rect fill="#FFFFAA" height="55.3105" style="stroke:#FFFFAA;stroke-width:1.0;" width="151" x="34" y="195.1094"/><rect fill="#FFFFAA" height="139.3105" style="stroke:#FFFFAA;stroke-width:1.0;" width="166" x="34" y="268.4199"/><rect fill="#FFFFAA" height="139.3105" style="stroke:#FFFFAA;stroke-width:1.0;" width="151" x="34" y="425.7305"/><rect fill="#FFFFAA" height="55.3105" style="stroke:#FFFFAA;stroke-width:1.0;" width="141" x="39" y="583.041"/><line style="stroke:#181818;stroke-width:0.5;stroke-dasharray:5.0,5.0;" x1="55" x2="55" y1="36.4883" y2="662.3516"/><rect fill="#FFFFFF" height="14" style="stroke:#181818;stroke-width:1.0;" width="10" x="50" y="81.7988"/><rect fill="#FFFFFF" height="14" style="stroke:#181818;stroke-width:1.0;" width="10" x="50" y="228.4199"/><rect fill="#FFFFFF" height="98" style="stroke:#181818;stroke-width:1.0;" width="10" x="50" y="301.7305"/><rect fill="#FFFFFF" height="98" style="stroke:#181818;stroke-width:1.0;" width="10" x="50" y="459.041"/><rect fill="#FFFFFF" height="70" style="stroke:#181818;stroke-width:1.0;" width="10" x="55" y="473.041"/><rect fill="#FFFFFF" height="42" style="stroke:#181818;stroke-width:1.0;" width="10" x="60" y="487.041"/><rect fill="#FFFFFF" height="14" style="stroke:#181818;stroke-width:1.0;" width="10" x="65" y="501.041"/><line style="stroke:#181818;stroke-width:0.5;stroke-dasharray:5.0,5.0;" x1="164" x2="164" y1="36.4883" y2="662.3516"/><rect fill="#FFFFFF" height="14" style="stroke:#181818;stroke-width:1.0;" width="10" x="159" y="155.1094"/><rect fill="#FFFFFF" height="14" style="stroke:#181818;stroke-width:1.0;" width="10" x="159" y="228.4199"/><rect fill="#FFFFFF" height="98" style="stroke:#181818;stroke-width:1.0;" width="10" x="159" y="301.7305"/><rect fill="#FFFFFF" height="98" style="stroke:#181818;stroke-width:1.0;" width="10" x="159" y="459.041"/><rect fill="#FFFFFF" height="70" style="stroke:#181818;stroke-width:1.0;" width="10" x="164" y="315.7305"/><rect fill="#FFFFFF" height="42" style="stroke:#181818;stroke-width:1.0;" width="10" x="169" y="329.7305"/><rect fill="#FFFFFF" height="14" style="stroke:#181818;stroke-width:1.0;" width="10" x="174" y="343.7305"/><rect fill="#E2E2F0" height="30.4883" rx="2.5" ry="2.5" style="stroke:#181818;stroke-width:0.5;" width="100" x="5" y="5"/><text fill="#000000" font-family="sans-serif" font-size="14" lengthAdjust="spacing" textLength="86" x="12" y="25.5352">Particpant_A</text><rect fill="#E2E2F0" height="30.4883" rx="2.5" ry="2.5" style="stroke:#181818;stroke-width:0.5;" width="98" x="115" y="5"/><text fill="#000000" font-family="sans-serif" font-size="14" lengthAdjust="spacing" textLength="84" x="122" y="25.5352">Particpant_B</text><rect fill="#E2E2F0" height="30.4883" rx="2.5" ry="2.5" style="stroke:#181818;stroke-width:0.5;" width="100" x="5" y="662.3516"/><text fill="#000000" font-family="sans-serif" font-size="14" lengthAdjust="spacing" textLength="86" x="12" y="682.8867">Particpant_A</text><rect fill="#E2E2F0" height="30.4883" rx="2.5" ry="2.5" style="stroke:#181818;stroke-width:0.5;" width="98" x="115" y="662.3516"/><text fill="#000000" font-family="sans-serif" font-size="14" lengthAdjust="spacing" textLength="84" x="122" y="682.8867">Particpant_B</text><path d="M34,48.4883 L134,48.4883 L134,55.7988 L124,65.7988 L34,65.7988 L34,48.4883 " fill="#EEEEEE" style="stroke:#000000;stroke-width:1.5;"/><rect fill="none" height="55.3105" style="stroke:#000000;stroke-width:1.5;" width="146" x="34" y="48.4883"/><text fill="#000000" font-family="sans-serif" font-size="13" font-weight="bold" lengthAdjust="spacing" textLength="55" x="49" y="62.0566">Group 1</text><polygon fill="#181818" points="152,77.7988,162,81.7988,152,85.7988,156,81.7988" style="stroke:#181818;stroke-width:1.0;"/><line style="stroke:#181818;stroke-width:1.0;" x1="60" x2="158" y1="81.7988" y2="81.7988"/><polygon fill="#181818" points="71,91.7988,61,95.7988,71,99.7988,67,95.7988" style="stroke:#181818;stroke-width:1.0;"/><line style="stroke:#181818;stroke-width:1.0;" x1="65" x2="163" y1="95.7988" y2="95.7988"/><path d="M39,121.7988 L139,121.7988 L139,129.1094 L129,139.1094 L39,139.1094 L39,121.7988 " fill="#EEEEEE" style="stroke:#000000;stroke-width:1.5;"/><rect fill="none" height="55.3105" style="stroke:#000000;stroke-width:1.5;" width="146" x="39" y="121.7988"/><text fill="#000000" font-family="sans-serif" font-size="13" font-weight="bold" lengthAdjust="spacing" textLength="55" x="54" y="135.3672">Group 2</text><polygon fill="#181818" points="147,151.1094,157,155.1094,147,159.1094,151,155.1094" style="stroke:#181818;stroke-width:1.0;"/><line style="stroke:#181818;stroke-width:1.0;" x1="55" x2="153" y1="155.1094" y2="155.1094"/><polygon fill="#181818" points="66,165.1094,56,169.1094,66,173.1094,62,169.1094" style="stroke:#181818;stroke-width:1.0;"/><line style="stroke:#181818;stroke-width:1.0;" x1="60" x2="158" y1="169.1094" y2="169.1094"/><path d="M34,195.1094 L134,195.1094 L134,202.4199 L124,212.4199 L34,212.4199 L34,195.1094 " fill="#EEEEEE" style="stroke:#000000;stroke-width:1.5;"/><rect fill="none" height="55.3105" style="stroke:#000000;stroke-width:1.5;" width="151" x="34" y="195.1094"/><text fill="#000000" font-family="sans-serif" font-size="13" font-weight="bold" lengthAdjust="spacing" textLength="55" x="49" y="208.6777">Group 3</text><polygon fill="#181818" points="147,224.4199,157,228.4199,147,232.4199,151,228.4199" style="stroke:#181818;stroke-width:1.0;"/><line style="stroke:#181818;stroke-width:1.0;" x1="60" x2="153" y1="228.4199" y2="228.4199"/><polygon fill="#181818" points="71,238.4199,61,242.4199,71,246.4199,67,242.4199" style="stroke:#181818;stroke-width:1.0;"/><line style="stroke:#181818;stroke-width:1.0;" x1="65" x2="158" y1="242.4199" y2="242.4199"/><path d="M34,268.4199 L143,268.4199 L143,275.7305 L133,285.7305 L34,285.7305 L34,268.4199 " fill="#EEEEEE" style="stroke:#000000;stroke-width:1.5;"/><rect fill="none" height="139.3105" style="stroke:#000000;stroke-width:1.5;" width="166" x="34" y="268.4199"/><text fill="#000000" font-family="sans-serif" font-size="13" font-weight="bold" lengthAdjust="spacing" textLength="64" x="49" y="281.9883">Group 3b</text><polygon fill="#181818" points="147,297.7305,157,301.7305,147,305.7305,151,301.7305" style="stroke:#181818;stroke-width:1.0;"/><line style="stroke:#181818;stroke-width:1.0;" x1="60" x2="153" y1="301.7305" y2="301.7305"/><polygon fill="#181818" points="152,311.7305,162,315.7305,152,319.7305,156,315.7305" style="stroke:#181818;stroke-width:1.0;"/><line style="stroke:#181818;stroke-width:1.0;" x1="60" x2="158" y1="315.7305" y2="315.7305"/><polygon fill="#181818" points="157,325.7305,167,329.7305,157,333.7305,161,329.7305" style="stroke:#181818;stroke-width:1.0;"/><line style="stroke:#181818;stroke-width:1.0;" x1="60" x2="163" y1="329.7305" y2="329.7305"/><polygon fill="#181818" points="162,339.7305,172,343.7305,162,347.7305,166,343.7305" style="stroke:#181818;stroke-width:1.0;"/><line style="stroke:#181818;stroke-width:1.0;" x1="60" x2="168" y1="343.7305" y2="343.7305"/><polygon fill="#181818" points="71,353.7305,61,357.7305,71,361.7305,67,357.7305" style="stroke:#181818;stroke-width:1.0;"/><line style="stroke:#181818;stroke-width:1.0;" x1="65" x2="173" y1="357.7305" y2="357.7305"/><polygon fill="#181818" points="71,367.7305,61,371.7305,71,375.7305,67,371.7305" style="stroke:#181818;stroke-width:1.0;"/><line style="stroke:#181818;stroke-width:1.0;" x1="65" x2="168" y1="371.7305" y2="371.7305"/><polygon fill="#181818" points="71,381.7305,61,385.7305,71,389.7305,67,385.7305" style="stroke:#181818;stroke-width:1.0;"/><line style="stroke:#181818;stroke-width:1.0;" x1="65" x2="163" y1="385.7305" y2="385.7305"/><polygon fill="#181818" points="71,395.7305,61,399.7305,71,403.7305,67,399.7305" style="stroke:#181818;stroke-width:1.0;"/><line style="stroke:#181818;stroke-width:1.0;" x1="65" x2="158" y1="399.7305" y2="399.7305"/><path d="M34,425.7305 L141,425.7305 L141,433.041 L131,443.041 L34,443.041 L34,425.7305 " fill="#EEEEEE" style="stroke:#000000;stroke-width:1.5;"/><rect fill="none" height="139.3105" style="stroke:#000000;stroke-width:1.5;" width="151" x="34" y="425.7305"/><text fill="#000000" font-family="sans-serif" font-size="13" font-weight="bold" lengthAdjust="spacing" textLength="62" x="49" y="439.2988">Group 3c</text><polygon fill="#181818" points="147,455.041,157,459.041,147,463.041,151,459.041" style="stroke:#181818;stroke-width:1.0;"/><line style="stroke:#181818;stroke-width:1.0;" x1="60" x2="153" y1="459.041" y2="459.041"/><polygon fill="#181818" points="76,469.041,66,473.041,76,477.041,72,473.041" style="stroke:#181818;stroke-width:1.0;"/><line style="stroke:#181818;stroke-width:1.0;" x1="70" x2="158" y1="473.041" y2="473.041"/><polygon fill="#181818" points="81,483.041,71,487.041,81,491.041,77,487.041" style="stroke:#181818;stroke-width:1.0;"/><line style="stroke:#181818;stroke-width:1.0;" x1="75" x2="158" y1="487.041" y2="487.041"/><polygon fill="#181818" points="86,497.041,76,501.041,86,505.041,82,501.041" style="stroke:#181818;stroke-width:1.0;"/><line style="stroke:#181818;stroke-width:1.0;" x1="80" x2="158" y1="501.041" y2="501.041"/><polygon fill="#181818" points="147,511.041,157,515.041,147,519.041,151,515.041" style="stroke:#181818;stroke-width:1.0;"/><line style="stroke:#181818;stroke-width:1.0;" x1="75" x2="153" y1="515.041" y2="515.041"/><polygon fill="#181818" points="147,525.041,157,529.041,147,533.041,151,529.041" style="stroke:#181818;stroke-width:1.0;"/><line style="stroke:#181818;stroke-width:1.0;" x1="70" x2="153" y1="529.041" y2="529.041"/><polygon fill="#181818" points="147,539.041,157,543.041,147,547.041,151,543.041" style="stroke:#181818;stroke-width:1.0;"/><line style="stroke:#181818;stroke-width:1.0;" x1="65" x2="153" y1="543.041" y2="543.041"/><polygon fill="#181818" points="71,553.041,61,557.041,71,561.041,67,557.041" style="stroke:#181818;stroke-width:1.0;"/><line style="stroke:#181818;stroke-width:1.0;" x1="65" x2="158" y1="557.041" y2="557.041"/><path d="M39,583.041 L139,583.041 L139,590.3516 L129,600.3516 L39,600.3516 L39,583.041 " fill="#EEEEEE" style="stroke:#000000;stroke-width:1.5;"/><rect fill="none" height="55.3105" style="stroke:#000000;stroke-width:1.5;" width="141" x="39" y="583.041"/><text fill="#000000" font-family="sans-serif" font-size="13" font-weight="bold" lengthAdjust="spacing" textLength="55" x="54" y="596.6094">Group 4</text><polygon fill="#181818" points="152,612.3516,162,616.3516,152,620.3516,156,616.3516" style="stroke:#181818;stroke-width:1.0;"/><line style="stroke:#181818;stroke-width:1.0;" x1="55" x2="158" y1="616.3516" y2="616.3516"/><polygon fill="#181818" points="66,626.3516,56,630.3516,66,634.3516,62,630.3516" style="stroke:#181818;stroke-width:1.0;"/><line style="stroke:#181818;stroke-width:1.0;" x1="60" x2="163" y1="630.3516" y2="630.3516"/><!--SRC=[KomeIapFJLGeISslKYWfAatbuaeloYyjK51EIqjKS0Sp3RaKW20WiQWaCxaWCQyatb51rmwPxmHMa9XSabcMM9AAeX9JguqkfjQKLEoQK_DIiBZ7YA1xjBK9sgkhYyDqOs9D9y-_G7j9zx5n4kME8j80P42YScfgmnvgP2WdGXcbqQME9RwCkDI920frt56cJZ3Z4BH0GL4HeWYNwzL1pbV7wdvZchkVWEkS8Ax3aXUIgPuNdD0CSCIV5uXHJaljg07fY3zlu5DEX39AymPc_9aGLvlWJVf0em40]--></g></svg>