<svg xmlns="http://www.w3.org/2000/svg" xmlns:xlink="http://www.w3.org/1999/xlink" contentStyleType="text/css" height="261px" preserveAspectRatio="none" style="width:690px;height:261px;background:#FFFFFF;" version="1.1" viewBox="0 0 690 261" width="690px" zoomAndPan="magnify"><defs/><g><line style="stroke:#181818;stroke-width:0.5;stroke-dasharray:5.0,5.0;" x1="362.5" x2="362.5" y1="36.4883" y2="225.7305"/><rect fill="#E2E2F0" height="30.4883" rx="2.5" ry="2.5" style="stroke:#181818;stroke-width:0.5;" width="43" x="341.5" y="5"/><text fill="#000000" font-family="sans-serif" font-size="14" lengthAdjust="spacing" textLength="29" x="348.5" y="25.5352">Test</text><rect fill="#E2E2F0" height="30.4883" rx="2.5" ry="2.5" style="stroke:#181818;stroke-width:0.5;" width="43" x="341.5" y="224.7305"/><text fill="#000000" font-family="sans-serif" font-size="14" lengthAdjust="spacing" textLength="29" x="348.5" y="245.2656">Test</text><line style="stroke:#181818;stroke-width:1.0;stroke-dasharray:2.0,2.0;" x1="363" x2="405" y1="67.7988" y2="67.7988"/><line style="stroke:#181818;stroke-width:1.0;stroke-dasharray:2.0,2.0;" x1="405" x2="405" y1="67.7988" y2="80.7988"/><line style="stroke:#181818;stroke-width:1.0;stroke-dasharray:2.0,2.0;" x1="364" x2="405" y1="80.7988" y2="80.7988"/><polygon fill="#181818" points="374,76.7988,364,80.7988,374,84.7988,370,80.7988" style="stroke:#181818;stroke-width:1.0;"/><text fill="#000000" font-family="sans-serif" font-size="13" lengthAdjust="spacing" textLength="28" x="370" y="63.0566">Text</text><path d="M418,54.9883 L418,79.9883 L683,79.9883 L683,64.9883 L673,54.9883 L418,54.9883 " fill="#FEFFDD" style="stroke:#181818;stroke-width:0.5;"/><path d="M673,54.9883 L673,64.9883 L683,64.9883 L673,54.9883 " fill="#FEFFDD" style="stroke:#181818;stroke-width:0.5;"/><text fill="#000000" font-family="sans-serif" font-size="13" lengthAdjust="spacing" textLength="244" x="424" y="72.5566">the location of the Comment is correct</text><line style="stroke:#181818;stroke-width:1.0;stroke-dasharray:2.0,2.0;" x1="363" x2="405" y1="110.1094" y2="110.1094"/><line style="stroke:#181818;stroke-width:1.0;stroke-dasharray:2.0,2.0;" x1="405" x2="405" y1="110.1094" y2="123.1094"/><line style="stroke:#181818;stroke-width:1.0;stroke-dasharray:2.0,2.0;" x1="364" x2="405" y1="123.1094" y2="123.1094"/><polygon fill="#181818" points="374,119.1094,364,123.1094,374,127.1094,370,123.1094" style="stroke:#181818;stroke-width:1.0;"/><text fill="#000000" font-family="sans-serif" font-size="13" lengthAdjust="spacing" textLength="28" x="370" y="105.3672">Text</text><path d="M93,97.2988 L93,122.2988 L358,122.2988 L358,107.2988 L348,97.2988 L93,97.2988 " fill="#FEFFDD" style="stroke:#181818;stroke-width:0.5;"/><path d="M348,97.2988 L348,107.2988 L358,107.2988 L348,97.2988 " fill="#FEFFDD" style="stroke:#181818;stroke-width:0.5;"/><text fill="#000000" font-family="sans-serif" font-size="13" lengthAdjust="spacing" textLength="244" x="99" y="114.8672">the location of the Comment is correct</text><line style="stroke:#181818;stroke-width:1.0;stroke-dasharray:2.0,2.0;" x1="321" x2="362" y1="152.4199" y2="152.4199"/><line style="stroke:#181818;stroke-width:1.0;stroke-dasharray:2.0,2.0;" x1="321" x2="321" y1="152.4199" y2="165.4199"/><line style="stroke:#181818;stroke-width:1.0;stroke-dasharray:2.0,2.0;" x1="321" x2="361" y1="165.4199" y2="165.4199"/><polygon fill="#181818" points="351,161.4199,361,165.4199,351,169.4199,355,165.4199" style="stroke:#181818;stroke-width:1.0;"/><text fill="#000000" font-family="sans-serif" font-size="13" lengthAdjust="spacing" textLength="28" x="320" y="147.6777">Text</text><path d="M368,139.6094 L368,164.6094 L671,164.6094 L671,149.6094 L661,139.6094 L368,139.6094 " fill="#FEFFDD" style="stroke:#181818;stroke-width:0.5;"/><path d="M661,139.6094 L661,149.6094 L671,149.6094 L661,139.6094 " fill="#FEFFDD" style="stroke:#181818;stroke-width:0.5;"/><text fill="#000000" font-family="sans-serif" font-size="13" lengthAdjust="spacing" textLength="282" x="374" y="157.1777">the location of the Comment is [now correct]</text><line style="stroke:#181818;stroke-width:1.0;stroke-dasharray:2.0,2.0;" x1="321" x2="362" y1="194.7305" y2="194.7305"/><line style="stroke:#181818;stroke-width:1.0;stroke-dasharray:2.0,2.0;" x1="321" x2="321" y1="194.7305" y2="207.7305"/><line style="stroke:#181818;stroke-width:1.0;stroke-dasharray:2.0,2.0;" x1="321" x2="361" y1="207.7305" y2="207.7305"/><polygon fill="#181818" points="351,203.7305,361,207.7305,351,211.7305,355,207.7305" style="stroke:#181818;stroke-width:1.0;"/><text fill="#000000" font-family="sans-serif" font-size="13" lengthAdjust="spacing" textLength="28" x="320" y="189.9883">Text</text><path d="M5,181.9199 L5,206.9199 L308,206.9199 L308,191.9199 L298,181.9199 L5,181.9199 " fill="#FEFFDD" style="stroke:#181818;stroke-width:0.5;"/><path d="M298,181.9199 L298,191.9199 L308,191.9199 L298,181.9199 " fill="#FEFFDD" style="stroke:#181818;stroke-width:0.5;"/><text fill="#000000" font-family="sans-serif" font-size="13" lengthAdjust="spacing" textLength="282" x="11" y="199.4883">the location of the Comment is [now correct]</text><!--SRC=[2qajBb7GrRLJ204oh81aHGbNNdv9ga9HPde6KA0a8rKX9pyviIGpFqyXFmtCTyxFpKtDAr78B5P8pYygIaqkuU8AmMLEJceQgSROwEgIwPpelFnoc66nU4mZob4eXW40]--></g></svg>