<svg xmlns="http://www.w3.org/2000/svg" xmlns:xlink="http://www.w3.org/1999/xlink" contentStyleType="text/css" height="263px" preserveAspectRatio="none" style="width:331px;height:263px;background:#FFFFFF;" version="1.1" viewBox="0 0 331 263" width="331px" zoomAndPan="magnify"><defs/><g><line style="stroke:#181818;stroke-width:0.5;stroke-dasharray:5.0,5.0;" x1="37.5" x2="37.5" y1="36.4883" y2="227.041"/><line style="stroke:#181818;stroke-width:0.5;stroke-dasharray:5.0,5.0;" x1="123.5" x2="123.5" y1="36.4883" y2="227.041"/><rect fill="#FFFFFF" height="71.6211" style="stroke:#181818;stroke-width:1.0;" width="10" x="118.5" y="65.7988"/><line style="stroke:#181818;stroke-width:0.5;stroke-dasharray:5.0,5.0;" x1="228.5" x2="228.5" y1="36.4883" y2="227.041"/><rect fill="#FFFFFF" height="71.6211" style="stroke:#181818;stroke-width:1.0;" width="10" x="223.5" y="137.4199"/><line style="stroke:#181818;stroke-width:0.5;stroke-dasharray:5.0,5.0;" x1="313.5" x2="313.5" y1="36.4883" y2="227.041"/><rect fill="#E2E2F0" height="30.4883" rx="2.5" ry="2.5" style="stroke:#181818;stroke-width:0.5;" width="65" x="5" y="5"/><text fill="#000000" font-family="sans-serif" font-size="14" lengthAdjust="spacing" textLength="51" x="12" y="25.5352">dummy</text><rect fill="#E2E2F0" height="30.4883" rx="2.5" ry="2.5" style="stroke:#181818;stroke-width:0.5;" width="24" x="111.5" y="5"/><text fill="#000000" font-family="sans-serif" font-size="14" lengthAdjust="spacing" textLength="10" x="118.5" y="25.5352">A</text><rect fill="#E2E2F0" height="30.4883" rx="2.5" ry="2.5" style="stroke:#181818;stroke-width:0.5;" width="22" x="217.5" y="5"/><text fill="#000000" font-family="sans-serif" font-size="14" lengthAdjust="spacing" textLength="8" x="224.5" y="25.5352">B</text><rect fill="#E2E2F0" height="30.4883" rx="2.5" ry="2.5" style="stroke:#181818;stroke-width:0.5;" width="24" x="301.5" y="5"/><text fill="#000000" font-family="sans-serif" font-size="14" lengthAdjust="spacing" textLength="10" x="308.5" y="25.5352">C</text><rect fill="#E2E2F0" height="30.4883" rx="2.5" ry="2.5" style="stroke:#181818;stroke-width:0.5;" width="65" x="5" y="227.041"/><text fill="#000000" font-family="sans-serif" font-size="14" lengthAdjust="spacing" textLength="51" x="12" y="247.5762">dummy</text><rect fill="#E2E2F0" height="30.4883" rx="2.5" ry="2.5" style="stroke:#181818;stroke-width:0.5;" width="24" x="111.5" y="227.041"/><text fill="#000000" font-family="sans-serif" font-size="14" lengthAdjust="spacing" textLength="10" x="118.5" y="247.5762">A</text><rect fill="#E2E2F0" height="30.4883" rx="2.5" ry="2.5" style="stroke:#181818;stroke-width:0.5;" width="22" x="217.5" y="227.041"/><text fill="#000000" font-family="sans-serif" font-size="14" lengthAdjust="spacing" textLength="8" x="224.5" y="247.5762">B</text><rect fill="#E2E2F0" height="30.4883" rx="2.5" ry="2.5" style="stroke:#181818;stroke-width:0.5;" width="24" x="301.5" y="227.041"/><text fill="#000000" font-family="sans-serif" font-size="14" lengthAdjust="spacing" textLength="10" x="308.5" y="247.5762">C</text><polygon fill="#181818" points="106.5,61.7988,116.5,65.7988,106.5,69.7988,110.5,65.7988" style="stroke:#181818;stroke-width:1.0;"/><line style="stroke:#181818;stroke-width:1.0;" x1="37.5" x2="112.5" y1="65.7988" y2="65.7988"/><text fill="#000000" font-family="sans-serif" font-size="13" lengthAdjust="spacing" textLength="57" x="44.5" y="61.0566">first step</text><line style="stroke:#181818;stroke-width:1.0;" x1="128.5" x2="170.5" y1="95.1094" y2="95.1094"/><line style="stroke:#181818;stroke-width:1.0;" x1="170.5" x2="170.5" y1="95.1094" y2="108.1094"/><line style="stroke:#181818;stroke-width:1.0;" x1="129.5" x2="170.5" y1="108.1094" y2="108.1094"/><polygon fill="#181818" points="139.5,104.1094,129.5,108.1094,139.5,112.1094,135.5,108.1094" style="stroke:#181818;stroke-width:1.0;"/><text fill="#000000" font-family="sans-serif" font-size="13" lengthAdjust="spacing" textLength="24" x="135.5" y="90.3672">test</text><polygon fill="#181818" points="211.5,133.4199,221.5,137.4199,211.5,141.4199,215.5,137.4199" style="stroke:#181818;stroke-width:1.0;"/><line style="stroke:#181818;stroke-width:1.0;" x1="128.5" x2="217.5" y1="137.4199" y2="137.4199"/><text fill="#000000" font-family="sans-serif" font-size="13" lengthAdjust="spacing" textLength="76" x="135.5" y="132.6777">second step</text><line style="stroke:#181818;stroke-width:1.0;" x1="233.5" x2="275.5" y1="166.7305" y2="166.7305"/><line style="stroke:#181818;stroke-width:1.0;" x1="275.5" x2="275.5" y1="166.7305" y2="179.7305"/><line style="stroke:#181818;stroke-width:1.0;" x1="234.5" x2="275.5" y1="179.7305" y2="179.7305"/><polygon fill="#181818" points="244.5,175.7305,234.5,179.7305,244.5,183.7305,240.5,179.7305" style="stroke:#181818;stroke-width:1.0;"/><text fill="#000000" font-family="sans-serif" font-size="13" lengthAdjust="spacing" textLength="24" x="240.5" y="161.9883">test</text><polygon fill="#181818" points="301.5,205.041,311.5,209.041,301.5,213.041,305.5,209.041" style="stroke:#181818;stroke-width:1.0;"/><line style="stroke:#181818;stroke-width:1.0;" x1="233.5" x2="307.5" y1="209.041" y2="209.041"/><text fill="#000000" font-family="sans-serif" font-size="13" lengthAdjust="spacing" textLength="61" x="240.5" y="204.2988">third step</text><!--SRC=[KomeIapFJLGeISslKYWfAatbKlSiBYvDLL0sD3SovaefpSsjLD2rKt1KqDQsKaZBB2ekKIWkIItWud842ri1THQNG3XE2hgw85N5gSdvUIbGPKvW6QWoCCTPLnV8pSWiWYe10000]--></g></svg>