<svg xmlns="http://www.w3.org/2000/svg" xmlns:xlink="http://www.w3.org/1999/xlink" contentStyleType="text/css" height="176px" preserveAspectRatio="none" style="width:326px;height:176px;background:#FFFFFF;" version="1.1" viewBox="0 0 326 176" width="326px" zoomAndPan="magnify"><defs/><g><rect fill="#ADD8E6" height="164.9082" style="stroke:#181818;stroke-width:0.5;" width="149.8901" x="90.9238" y="6"/><text fill="#000000" font-family="sans-serif" font-size="13" font-weight="bold" lengthAdjust="spacing" textLength="62.3975" x="134.6702" y="18.5684">Grouping</text><line style="stroke:#181818;stroke-width:0.5;stroke-dasharray:5.0,5.0;" x1="28.3618" x2="28.3618" y1="56.7988" y2="133.4199"/><line style="stroke:#181818;stroke-width:0.5;stroke-dasharray:5.0,5.0;" x1="114.6558" x2="114.6558" y1="56.7988" y2="133.4199"/><rect fill="#FFFFFF" height="29.3105" style="stroke:#181818;stroke-width:1.0;" width="10" x="109.6558" y="86.1094"/><line style="stroke:#181818;stroke-width:0.5;stroke-dasharray:5.0,5.0;" x1="205.9497" x2="205.9497" y1="56.7988" y2="133.4199"/><rect fill="#FFFFFF" height="29.3105" style="stroke:#181818;stroke-width:1.0;" width="10" x="200.9497" y="86.1094"/><line style="stroke:#181818;stroke-width:0.5;stroke-dasharray:5.0,5.0;" x1="297.2437" x2="297.2437" y1="56.7988" y2="133.4199"/><rect fill="#FFFFFF" height="29.3105" style="stroke:#181818;stroke-width:1.0;" width="10" x="292.2437" y="86.1094"/><rect fill="#E2E2F0" height="30.4883" rx="2.5" ry="2.5" style="stroke:#181818;stroke-width:0.5;" width="46.7236" x="5" y="25.3105"/><text fill="#000000" font-family="sans-serif" font-size="14" lengthAdjust="spacing" textLength="32.7236" x="12" y="45.8457">Alice</text><rect fill="#E2E2F0" height="30.4883" rx="2.5" ry="2.5" style="stroke:#181818;stroke-width:0.5;" width="39.4639" x="94.9238" y="25.3105"/><text fill="#000000" font-family="sans-serif" font-size="14" lengthAdjust="spacing" textLength="25.4639" x="101.9238" y="45.8457">Bob</text><rect fill="#E2E2F0" height="30.4883" rx="2.5" ry="2.5" style="stroke:#181818;stroke-width:0.5;" width="61.7285" x="175.0854" y="25.3105"/><text fill="#000000" font-family="sans-serif" font-size="14" lengthAdjust="spacing" textLength="47.7285" x="182.0854" y="45.8457">Charlie</text><rect fill="#E2E2F0" height="30.4883" rx="2.5" ry="2.5" style="stroke:#181818;stroke-width:0.5;" width="47.2637" x="273.6118" y="25.3105"/><text fill="#000000" font-family="sans-serif" font-size="14" lengthAdjust="spacing" textLength="33.2637" x="280.6118" y="45.8457">Dave</text><rect fill="#E2E2F0" height="30.4883" rx="2.5" ry="2.5" style="stroke:#181818;stroke-width:0.5;" width="46.7236" x="5" y="133.4199"/><text fill="#000000" font-family="sans-serif" font-size="14" lengthAdjust="spacing" textLength="32.7236" x="12" y="153.9551">Alice</text><rect fill="#E2E2F0" height="30.4883" rx="2.5" ry="2.5" style="stroke:#181818;stroke-width:0.5;" width="39.4639" x="94.9238" y="133.4199"/><text fill="#000000" font-family="sans-serif" font-size="14" lengthAdjust="spacing" textLength="25.4639" x="101.9238" y="153.9551">Bob</text><rect fill="#E2E2F0" height="30.4883" rx="2.5" ry="2.5" style="stroke:#181818;stroke-width:0.5;" width="61.7285" x="175.0854" y="133.4199"/><text fill="#000000" font-family="sans-serif" font-size="14" lengthAdjust="spacing" textLength="47.7285" x="182.0854" y="153.9551">Charlie</text><rect fill="#E2E2F0" height="30.4883" rx="2.5" ry="2.5" style="stroke:#181818;stroke-width:0.5;" width="47.2637" x="273.6118" y="133.4199"/><text fill="#000000" font-family="sans-serif" font-size="14" lengthAdjust="spacing" textLength="33.2637" x="280.6118" y="153.9551">Dave</text><polygon fill="#181818" points="97.6558,82.1094,107.6558,86.1094,97.6558,90.1094,101.6558,86.1094" style="stroke:#181818;stroke-width:1.0;"/><line style="stroke:#181818;stroke-width:1.0;" x1="28.3618" x2="103.6558" y1="86.1094" y2="86.1094"/><text fill="#000000" font-family="sans-serif" font-size="13" lengthAdjust="spacing" textLength="47.5439" x="35.3618" y="81.3672">request</text><polygon fill="#181818" points="188.9497,82.1094,198.9497,86.1094,188.9497,90.1094,192.9497,86.1094" style="stroke:#181818;stroke-width:1.0;"/><line style="stroke:#181818;stroke-width:1.0;" x1="119.6558" x2="194.9497" y1="86.1094" y2="86.1094"/><text fill="#000000" font-family="sans-serif" font-size="13" lengthAdjust="spacing" textLength="47.5439" x="126.6558" y="81.3672">request</text><polygon fill="#181818" points="280.2437,82.1094,290.2437,86.1094,280.2437,90.1094,284.2437,86.1094" style="stroke:#181818;stroke-width:1.0;"/><line style="stroke:#181818;stroke-width:1.0;" x1="210.9497" x2="286.2437" y1="86.1094" y2="86.1094"/><text fill="#000000" font-family="sans-serif" font-size="13" lengthAdjust="spacing" textLength="47.5439" x="217.9497" y="81.3672">request</text><polygon fill="#181818" points="221.9497,111.4199,211.9497,115.4199,221.9497,119.4199,217.9497,115.4199" style="stroke:#181818;stroke-width:1.0;"/><line style="stroke:#181818;stroke-width:1.0;stroke-dasharray:2.0,2.0;" x1="215.9497" x2="291.2437" y1="115.4199" y2="115.4199"/><text fill="#000000" font-family="sans-serif" font-size="13" lengthAdjust="spacing" textLength="57.2939" x="227.9497" y="110.6777">response</text><polygon fill="#181818" points="130.6558,111.4199,120.6558,115.4199,130.6558,119.4199,126.6558,115.4199" style="stroke:#181818;stroke-width:1.0;"/><line style="stroke:#181818;stroke-width:1.0;stroke-dasharray:2.0,2.0;" x1="124.6558" x2="199.9497" y1="115.4199" y2="115.4199"/><text fill="#000000" font-family="sans-serif" font-size="13" lengthAdjust="spacing" textLength="57.2939" x="136.6558" y="110.6777">response</text><polygon fill="#181818" points="39.3618,111.4199,29.3618,115.4199,39.3618,119.4199,35.3618,115.4199" style="stroke:#181818;stroke-width:1.0;"/><line style="stroke:#181818;stroke-width:1.0;stroke-dasharray:2.0,2.0;" x1="33.3618" x2="108.6558" y1="115.4199" y2="115.4199"/><text fill="#000000" font-family="sans-serif" font-size="13" lengthAdjust="spacing" textLength="57.2939" x="45.3618" y="110.6777">response</text><!--SRC=[LP11QiCm44NtSuhV5DgL0-sgAING9BIRNcBY3BR0qQZoA8ISFb9T6tid_fjvyz53YDoS6IPwWyKaz8mlZUcCbzUtpGPLXIY_INgJ4_hEDQqXlqDmle6rcffsJPnCkJPtOHEe9meSpTKki3TyTguMEkeLg- -egIokyFXJJBiktyDyUAV7PR1lENPEIFm9sR4m7_WYH1WkeDgMRRoFVUa9Vq7E_oLBDgLve9Xc53FwaNzWmdrGtyjeBcYkdkXGgE2nqO3k]--></g></svg>