<svg xmlns="http://www.w3.org/2000/svg" xmlns:xlink="http://www.w3.org/1999/xlink" contentStyleType="text/css" height="218px" preserveAspectRatio="none" style="width:225px;height:218px;background:#FFFFFF;" version="1.1" viewBox="0 0 225 218" width="225px" zoomAndPan="magnify"><defs/><g><rect fill="#808000" height="127.9316" style="stroke:#181818;stroke-width:1.0;" width="10" x="31" y="46.4883"/><rect fill="#6B8E23" height="69.6211" style="stroke:#181818;stroke-width:1.0;" width="10" x="36" y="46.4883"/><rect fill="#3CB371" height="27.3105" style="stroke:#181818;stroke-width:1.0;" width="10" x="41" y="46.4883"/><line style="stroke:#181818;stroke-width:0.5;stroke-dasharray:5.0,5.0;" x1="36" x2="36" y1="36.4883" y2="183.4199"/><rect fill="#E2E2F0" height="30.4883" rx="2.5" ry="2.5" style="stroke:#181818;stroke-width:0.5;" width="62" x="5" y="5"/><text fill="#000000" font-family="sans-serif" font-size="14" lengthAdjust="spacing" textLength="48" x="12" y="25.5352">actor 1</text><rect fill="#E2E2F0" height="30.4883" rx="2.5" ry="2.5" style="stroke:#181818;stroke-width:0.5;" width="62" x="5" y="182.4199"/><text fill="#000000" font-family="sans-serif" font-size="14" lengthAdjust="spacing" textLength="48" x="12" y="202.9551">actor 1</text><rect fill="#808000" height="127.9316" style="stroke:#181818;stroke-width:1.0;" width="10" x="31" y="46.4883"/><rect fill="#6B8E23" height="69.6211" style="stroke:#181818;stroke-width:1.0;" width="10" x="36" y="46.4883"/><rect fill="#3CB371" height="27.3105" style="stroke:#181818;stroke-width:1.0;" width="10" x="41" y="46.4883"/><line style="stroke:#181818;stroke-width:1.0;" x1="51" x2="93" y1="72.7988" y2="72.7988"/><line style="stroke:#181818;stroke-width:1.0;" x1="93" x2="93" y1="72.7988" y2="85.7988"/><line style="stroke:#181818;stroke-width:1.0;" x1="46" x2="93" y1="85.7988" y2="85.7988"/><polygon fill="#181818" points="56,81.7988,46,85.7988,56,89.7988,52,85.7988" style="stroke:#181818;stroke-width:1.0;"/><text fill="#000000" font-family="sans-serif" font-size="13" lengthAdjust="spacing" textLength="160" x="58" y="68.0566">actor1 sub-sub-activity1</text><line style="stroke:#181818;stroke-width:1.0;" x1="46" x2="88" y1="115.1094" y2="115.1094"/><line style="stroke:#181818;stroke-width:1.0;" x1="88" x2="88" y1="115.1094" y2="128.1094"/><line style="stroke:#181818;stroke-width:1.0;" x1="41" x2="88" y1="128.1094" y2="128.1094"/><polygon fill="#181818" points="51,124.1094,41,128.1094,51,132.1094,47,128.1094" style="stroke:#181818;stroke-width:1.0;"/><text fill="#000000" font-family="sans-serif" font-size="13" lengthAdjust="spacing" textLength="129" x="53" y="110.3672">actor1 sub-activity2</text><line style="stroke:#181818;stroke-width:1.0;" x1="41" x2="83" y1="152.4199" y2="152.4199"/><line style="stroke:#181818;stroke-width:1.0;" x1="83" x2="83" y1="152.4199" y2="165.4199"/><line style="stroke:#181818;stroke-width:1.0;" x1="42" x2="83" y1="165.4199" y2="165.4199"/><polygon fill="#181818" points="52,161.4199,42,165.4199,52,169.4199,48,165.4199" style="stroke:#181818;stroke-width:1.0;"/><text fill="#000000" font-family="sans-serif" font-size="13" lengthAdjust="spacing" textLength="98" x="48" y="147.6777">actor1 activity2</text><!--SRC=[KrSiA4fCpqrKA4dDhr8eAIfDvKfCBiaiIon9LL02ilAB50oL59JzSpBByCYu52KcOPNrJKt9BCqDJarqBqfDpUD2oEZQ8PHPAO1PXWh5fKcw80msAREaqf0h9HNJL69CWPbWH9O9SDq0]--></g></svg>