<svg xmlns="http://www.w3.org/2000/svg" xmlns:xlink="http://www.w3.org/1999/xlink" contentStyleType="text/css" height="243px" preserveAspectRatio="none" style="width:399px;height:243px;background:#FFFFFF;" version="1.1" viewBox="0 0 399 243" width="399px" zoomAndPan="magnify"><defs/><g><rect fill="#DDDDDD" height="193.5977" style="stroke:#181818;stroke-width:0.5;" width="68" x="47.5" y="43.4883"/><text fill="#000000" font-family="sans-serif" font-size="14" font-weight="bold" lengthAdjust="spacing" textLength="366" x="15" y="28.5352">very long title on this diagram so that the boarder</text><rect fill="#FFC0CB" height="70.6211" style="stroke:#FFC0CB;stroke-width:1.0;" width="301" x="65.5" y="104.9766"/><line style="stroke:#181818;stroke-width:0.5;stroke-dasharray:5.0,5.0;" x1="81.5" x2="81.5" y1="78.9766" y2="199.5977"/><line style="stroke:#181818;stroke-width:0.5;stroke-dasharray:5.0,5.0;" x1="200.5" x2="200.5" y1="78.9766" y2="199.5977"/><line style="stroke:#181818;stroke-width:0.5;stroke-dasharray:5.0,5.0;" x1="269.5" x2="269.5" y1="78.9766" y2="199.5977"/><rect fill="#E2E2F0" height="30.4883" rx="2.5" ry="2.5" style="stroke:#181818;stroke-width:0.5;" width="24" x="69.5" y="47.4883"/><text fill="#000000" font-family="sans-serif" font-size="14" lengthAdjust="spacing" textLength="10" x="76.5" y="68.0234">A</text><rect fill="#E2E2F0" height="30.4883" rx="2.5" ry="2.5" style="stroke:#181818;stroke-width:0.5;" width="22" x="189.5" y="47.4883"/><text fill="#000000" font-family="sans-serif" font-size="14" lengthAdjust="spacing" textLength="8" x="196.5" y="68.0234">B</text><rect fill="#E2E2F0" height="30.4883" rx="2.5" ry="2.5" style="stroke:#181818;stroke-width:0.5;" width="24" x="257.5" y="47.4883"/><text fill="#000000" font-family="sans-serif" font-size="14" lengthAdjust="spacing" textLength="10" x="264.5" y="68.0234">C</text><rect fill="#E2E2F0" height="30.4883" rx="2.5" ry="2.5" style="stroke:#181818;stroke-width:0.5;" width="24" x="69.5" y="199.5977"/><text fill="#000000" font-family="sans-serif" font-size="14" lengthAdjust="spacing" textLength="10" x="76.5" y="220.1328">A</text><rect fill="#E2E2F0" height="30.4883" rx="2.5" ry="2.5" style="stroke:#181818;stroke-width:0.5;" width="22" x="189.5" y="199.5977"/><text fill="#000000" font-family="sans-serif" font-size="14" lengthAdjust="spacing" textLength="8" x="196.5" y="220.1328">B</text><rect fill="#E2E2F0" height="30.4883" rx="2.5" ry="2.5" style="stroke:#181818;stroke-width:0.5;" width="24" x="257.5" y="199.5977"/><text fill="#000000" font-family="sans-serif" font-size="14" lengthAdjust="spacing" textLength="10" x="264.5" y="220.1328">C</text><polygon fill="#181818" points="188.5,88.9766,198.5,92.9766,188.5,96.9766,192.5,92.9766" style="stroke:#181818;stroke-width:1.0;"/><line style="stroke:#181818;stroke-width:1.0;" x1="81.5" x2="194.5" y1="92.9766" y2="92.9766"/><polygon fill="#181818" points="257.5,88.9766,267.5,92.9766,257.5,96.9766,261.5,92.9766" style="stroke:#181818;stroke-width:1.0;"/><line style="stroke:#181818;stroke-width:1.0;" x1="200.5" x2="263.5" y1="92.9766" y2="92.9766"/><path d="M65.5,104.9766 L132.5,104.9766 L132.5,112.2871 L122.5,122.2871 L65.5,122.2871 L65.5,104.9766 " fill="none" style="stroke:#000000;stroke-width:1.5;"/><rect fill="none" height="70.6211" style="stroke:#000000;stroke-width:1.5;" width="301" x="65.5" y="104.9766"/><text fill="#000000" font-family="sans-serif" font-size="13" font-weight="bold" lengthAdjust="spacing" textLength="22" x="80.5" y="118.5449">opt</text><text fill="#000000" font-family="sans-serif" font-size="11" font-weight="bold" lengthAdjust="spacing" textLength="33" x="147.5" y="117.6113">[bad?]</text><ellipse cx="81" cy="137.5371" fill="none" rx="4" ry="4" style="stroke:#181818;stroke-width:1.5;"/><polygon fill="#181818" points="188.5,134.2871,198.5,138.2871,188.5,142.2871,192.5,138.2871" style="stroke:#181818;stroke-width:1.0;"/><line style="stroke:#181818;stroke-width:1.0;" x1="85.5" x2="194.5" y1="138.2871" y2="138.2871"/><polygon fill="#181818" points="211.5,163.5977,201.5,167.5977,211.5,171.5977,207.5,167.5977" style="stroke:#181818;stroke-width:1.0;"/><ellipse cx="369" cy="166.8477" fill="none" rx="4" ry="4" style="stroke:#181818;stroke-width:1.5;"/><line style="stroke:#181818;stroke-width:1.0;" x1="205.5" x2="364.5" y1="167.5977" y2="167.5977"/><text fill="#000000" font-family="sans-serif" font-size="13" lengthAdjust="spacing" textLength="126" x="217.5" y="162.8555">yolo, and then more</text><!--SRC=[JKz1JiD03BplAmPLQYv41Ku88L3J3_IEUd1OArqriLUEGIslnob2SB7icV5uV5EDXedWh5zm- -3anKV69zi5eyg0dra5VYmpSg71QCAiCPD7OVHAbjdIV2fIQM7tP5xUIoNnFULSmkR-yH_VwVaNVxXBlPvJ_Tl0Dh5aB2YmHVk2BgtHBSqkQVML6yaS2npQLIroGa_vzIhMgph4pwqUy8IBZdeB2hi8AfZKE3LhxD2-7KlEB8SmnQO1oqWsn9_LbyjeDak8Rm00]--></g></svg>