<svg xmlns="http://www.w3.org/2000/svg" xmlns:xlink="http://www.w3.org/1999/xlink" contentStyleType="text/css" height="919px" preserveAspectRatio="none" style="width:497px;height:919px;background:#FFFFFF;" version="1.1" viewBox="0 0 497 919" width="497px" zoomAndPan="magnify"><defs/><g><line style="stroke:#181818;stroke-width:0.5;stroke-dasharray:5.0,5.0;" x1="154.5073" x2="154.5073" y1="36.4883" y2="883.252"/><line style="stroke:#181818;stroke-width:0.5;stroke-dasharray:5.0,5.0;" x1="223.3633" x2="223.3633" y1="36.4883" y2="883.252"/><line style="stroke:#181818;stroke-width:0.5;stroke-dasharray:5.0,5.0;" x1="292.2329" x2="292.2329" y1="36.4883" y2="883.252"/><rect fill="#E2E2F0" height="30.4883" rx="2.5" ry="2.5" style="stroke:#181818;stroke-width:0.5;" width="23.6592" x="142.6777" y="5"/><text fill="#000000" font-family="sans-serif" font-size="14" lengthAdjust="spacing" textLength="9.6592" x="149.6777" y="25.5352">A</text><rect fill="#E2E2F0" height="30.4883" rx="2.5" ry="2.5" style="stroke:#181818;stroke-width:0.5;" width="22.0527" x="212.3369" y="5"/><text fill="#000000" font-family="sans-serif" font-size="14" lengthAdjust="spacing" textLength="8.0527" x="219.3369" y="25.5352">B</text><rect fill="#E2E2F0" height="30.4883" rx="2.5" ry="2.5" style="stroke:#181818;stroke-width:0.5;" width="23.6865" x="280.3896" y="5"/><text fill="#000000" font-family="sans-serif" font-size="14" lengthAdjust="spacing" textLength="9.6865" x="287.3896" y="25.5352">C</text><rect fill="#E2E2F0" height="30.4883" rx="2.5" ry="2.5" style="stroke:#181818;stroke-width:0.5;" width="23.6592" x="142.6777" y="883.252"/><text fill="#000000" font-family="sans-serif" font-size="14" lengthAdjust="spacing" textLength="9.6592" x="149.6777" y="903.7871">A</text><rect fill="#E2E2F0" height="30.4883" rx="2.5" ry="2.5" style="stroke:#181818;stroke-width:0.5;" width="22.0527" x="212.3369" y="883.252"/><text fill="#000000" font-family="sans-serif" font-size="14" lengthAdjust="spacing" textLength="8.0527" x="219.3369" y="903.7871">B</text><rect fill="#E2E2F0" height="30.4883" rx="2.5" ry="2.5" style="stroke:#181818;stroke-width:0.5;" width="23.6865" x="280.3896" y="883.252"/><text fill="#000000" font-family="sans-serif" font-size="14" lengthAdjust="spacing" textLength="9.6865" x="287.3896" y="903.7871">C</text><path d="M8,48.4883 L75.1851,48.4883 L75.1851,55.7988 L65.1851,65.7988 L8,65.7988 L8,48.4883 " fill="none" style="stroke:#000000;stroke-width:1.5;"/><rect fill="none" height="56.6211" style="stroke:#000000;stroke-width:1.5;" width="162.5073" x="8" y="48.4883"/><text fill="#000000" font-family="sans-serif" font-size="13" font-weight="bold" lengthAdjust="spacing" textLength="22.1851" x="23" y="62.0566">opt</text><text fill="#000000" font-family="sans-serif" font-size="11" font-weight="bold" lengthAdjust="spacing" textLength="25.0186" x="90.1851" y="61.123">[OK]</text><ellipse cx="29.5" cy="96.3594" fill="none" rx="4" ry="4" style="stroke:#181818;stroke-width:1.5;"/><polygon fill="#181818" points="142.5073,93.1094,152.5073,97.1094,142.5073,101.1094,146.5073,97.1094" style="stroke:#181818;stroke-width:1.0;"/><line style="stroke:#181818;stroke-width:1.0;" x1="34" x2="148.5073" y1="97.1094" y2="97.1094"/><text fill="#000000" font-family="sans-serif" font-size="13" lengthAdjust="spacing" textLength="106.5073" x="37" y="92.3672">longer text short</text><ellipse cx="29.5" cy="139.6699" fill="none" rx="4" ry="4" style="stroke:#181818;stroke-width:1.5;"/><polygon fill="#181818" points="142.5073,136.4199,152.5073,140.4199,142.5073,144.4199,146.5073,140.4199" style="stroke:#181818;stroke-width:1.0;"/><line style="stroke:#181818;stroke-width:1.0;" x1="34" x2="148.5073" y1="140.4199" y2="140.4199"/><text fill="#000000" font-family="sans-serif" font-size="13" lengthAdjust="spacing" textLength="106.5073" x="37" y="135.6777">longer text short</text><rect fill="#EEEEEE" height="3" style="stroke:#EEEEEE;stroke-width:1.0;" width="485.8369" x="5" y="169.0752"/><line style="stroke:#000000;stroke-width:1.0;" x1="5" x2="490.8369" y1="169.0752" y2="169.0752"/><line style="stroke:#000000;stroke-width:1.0;" x1="5" x2="490.8369" y1="172.0752" y2="172.0752"/><rect fill="#EEEEEE" height="23.3105" style="stroke:#000000;stroke-width:2.0;" width="128.1118" x="183.8625" y="158.4199"/><text fill="#000000" font-family="sans-serif" font-size="13" font-weight="bold" lengthAdjust="spacing" textLength="109.8271" x="189.8625" y="174.9883">left edge arrows</text><path d="M163.6157,195.7305 L230.8008,195.7305 L230.8008,203.041 L220.8008,213.041 L163.6157,213.041 L163.6157,195.7305 " fill="none" style="stroke:#000000;stroke-width:1.5;"/><rect fill="none" height="56.6211" style="stroke:#000000;stroke-width:1.5;" width="126.2681" x="163.6157" y="195.7305"/><text fill="#000000" font-family="sans-serif" font-size="13" font-weight="bold" lengthAdjust="spacing" textLength="22.1851" x="178.6157" y="209.2988">opt</text><text fill="#000000" font-family="sans-serif" font-size="11" font-weight="bold" lengthAdjust="spacing" textLength="25.0186" x="245.8008" y="208.3652">[OK]</text><ellipse cx="10.5" cy="243.6016" fill="none" rx="4" ry="4" style="stroke:#181818;stroke-width:1.5;"/><polygon fill="#181818" points="211.3633,240.3516,221.3633,244.3516,211.3633,248.3516,215.3633,244.3516" style="stroke:#181818;stroke-width:1.0;"/><line style="stroke:#181818;stroke-width:1.0;" x1="15" x2="217.3633" y1="244.3516" y2="244.3516"/><text fill="#000000" font-family="sans-serif" font-size="13" lengthAdjust="spacing" textLength="19.7476" x="192.6157" y="239.6094">Pre</text><polygon fill="#181818" points="234.3633,240.3516,224.3633,244.3516,234.3633,248.3516,230.3633,244.3516" style="stroke:#181818;stroke-width:1.0;"/><ellipse cx="267.3838" cy="243.6016" fill="none" rx="4" ry="4" style="stroke:#181818;stroke-width:1.5;"/><line style="stroke:#181818;stroke-width:1.0;" x1="228.3633" x2="262.8838" y1="244.3516" y2="244.3516"/><text fill="#000000" font-family="sans-serif" font-size="13" lengthAdjust="spacing" textLength="26.5205" x="240.3633" y="239.6094">yolo</text><ellipse cx="10.5" cy="286.9121" fill="none" rx="4" ry="4" style="stroke:#181818;stroke-width:1.5;"/><polygon fill="#181818" points="211.3633,283.6621,221.3633,287.6621,211.3633,291.6621,215.3633,287.6621" style="stroke:#181818;stroke-width:1.0;"/><line style="stroke:#181818;stroke-width:1.0;" x1="15" x2="217.3633" y1="287.6621" y2="287.6621"/><text fill="#000000" font-family="sans-serif" font-size="13" lengthAdjust="spacing" textLength="19.7476" x="192.6157" y="282.9199">Pre</text><polygon fill="#181818" points="234.3633,283.6621,224.3633,287.6621,234.3633,291.6621,230.3633,287.6621" style="stroke:#181818;stroke-width:1.0;"/><ellipse cx="267.3838" cy="286.9121" fill="none" rx="4" ry="4" style="stroke:#181818;stroke-width:1.5;"/><line style="stroke:#181818;stroke-width:1.0;" x1="228.3633" x2="262.8838" y1="287.6621" y2="287.6621"/><text fill="#000000" font-family="sans-serif" font-size="13" lengthAdjust="spacing" textLength="26.5205" x="240.3633" y="282.9199">yolo</text><rect fill="#EEEEEE" height="3" style="stroke:#EEEEEE;stroke-width:1.0;" width="485.8369" x="5" y="316.3174"/><line style="stroke:#000000;stroke-width:1.0;" x1="5" x2="490.8369" y1="316.3174" y2="316.3174"/><line style="stroke:#000000;stroke-width:1.0;" x1="5" x2="490.8369" y1="319.3174" y2="319.3174"/><rect fill="#EEEEEE" height="23.3105" style="stroke:#000000;stroke-width:2.0;" width="138.1284" x="178.8542" y="305.6621"/><text fill="#000000" font-family="sans-serif" font-size="13" font-weight="bold" lengthAdjust="spacing" textLength="119.8438" x="184.8542" y="322.2305">right edge arrows</text><path d="M138.5073,342.9727 L205.6924,342.9727 L205.6924,350.2832 L195.6924,360.2832 L138.5073,360.2832 L138.5073,342.9727 " fill="none" style="stroke:#000000;stroke-width:1.5;"/><rect fill="none" height="56.6211" style="stroke:#000000;stroke-width:1.5;" width="151.3765" x="138.5073" y="342.9727"/><text fill="#000000" font-family="sans-serif" font-size="13" font-weight="bold" lengthAdjust="spacing" textLength="22.1851" x="153.5073" y="356.541">opt</text><text fill="#000000" font-family="sans-serif" font-size="11" font-weight="bold" lengthAdjust="spacing" textLength="25.0186" x="220.6924" y="355.6074">[OK]</text><ellipse cx="154.0073" cy="390.8438" fill="none" rx="4" ry="4" style="stroke:#181818;stroke-width:1.5;"/><polygon fill="#181818" points="211.3633,387.5938,221.3633,391.5938,211.3633,395.5938,215.3633,391.5938" style="stroke:#181818;stroke-width:1.0;"/><line style="stroke:#181818;stroke-width:1.0;" x1="158.5073" x2="217.3633" y1="391.5938" y2="391.5938"/><polygon fill="#181818" points="234.3633,387.5938,224.3633,391.5938,234.3633,395.5938,230.3633,391.5938" style="stroke:#181818;stroke-width:1.0;"/><ellipse cx="484.3369" cy="390.8438" fill="none" rx="4" ry="4" style="stroke:#181818;stroke-width:1.5;"/><line style="stroke:#181818;stroke-width:1.0;" x1="228.3633" x2="479.8369" y1="391.5938" y2="391.5938"/><text fill="#000000" font-family="sans-serif" font-size="13" lengthAdjust="spacing" textLength="26.5205" x="240.3633" y="386.8516">yolo</text><path d="M138.5073,417.5938 L205.6924,417.5938 L205.6924,424.9043 L195.6924,434.9043 L138.5073,434.9043 L138.5073,417.5938 " fill="none" style="stroke:#000000;stroke-width:1.5;"/><rect fill="none" height="56.6211" style="stroke:#000000;stroke-width:1.5;" width="151.3765" x="138.5073" y="417.5938"/><text fill="#000000" font-family="sans-serif" font-size="13" font-weight="bold" lengthAdjust="spacing" textLength="22.1851" x="153.5073" y="431.1621">opt</text><text fill="#000000" font-family="sans-serif" font-size="11" font-weight="bold" lengthAdjust="spacing" textLength="25.0186" x="220.6924" y="430.2285">[OK]</text><polygon fill="#181818" points="211.3633,462.2148,221.3633,466.2148,211.3633,470.2148,215.3633,466.2148" style="stroke:#181818;stroke-width:1.0;"/><line style="stroke:#181818;stroke-width:1.0;" x1="154.5073" x2="217.3633" y1="466.2148" y2="466.2148"/><polygon fill="#181818" points="234.3633,462.2148,224.3633,466.2148,234.3633,470.2148,230.3633,466.2148" style="stroke:#181818;stroke-width:1.0;"/><ellipse cx="484.3369" cy="465.4648" fill="none" rx="4" ry="4" style="stroke:#181818;stroke-width:1.5;"/><line style="stroke:#181818;stroke-width:1.0;" x1="228.3633" x2="479.8369" y1="466.2148" y2="466.2148"/><text fill="#000000" font-family="sans-serif" font-size="13" lengthAdjust="spacing" textLength="26.5205" x="240.3633" y="461.4727">yolo</text><ellipse cx="154.0073" cy="508.7754" fill="none" rx="4" ry="4" style="stroke:#181818;stroke-width:1.5;"/><polygon fill="#181818" points="211.3633,505.5254,221.3633,509.5254,211.3633,513.5254,215.3633,509.5254" style="stroke:#181818;stroke-width:1.0;"/><line style="stroke:#181818;stroke-width:1.0;" x1="158.5073" x2="217.3633" y1="509.5254" y2="509.5254"/><polygon fill="#181818" points="234.3633,505.5254,224.3633,509.5254,234.3633,513.5254,230.3633,509.5254" style="stroke:#181818;stroke-width:1.0;"/><ellipse cx="484.3369" cy="508.7754" fill="none" rx="4" ry="4" style="stroke:#181818;stroke-width:1.5;"/><line style="stroke:#181818;stroke-width:1.0;" x1="228.3633" x2="479.8369" y1="509.5254" y2="509.5254"/><text fill="#000000" font-family="sans-serif" font-size="13" lengthAdjust="spacing" textLength="26.5205" x="240.3633" y="504.7832">yolo</text><rect fill="#EEEEEE" height="3" style="stroke:#EEEEEE;stroke-width:1.0;" width="485.8369" x="5" y="538.1807"/><line style="stroke:#000000;stroke-width:1.0;" x1="5" x2="490.8369" y1="538.1807" y2="538.1807"/><line style="stroke:#000000;stroke-width:1.0;" x1="5" x2="490.8369" y1="541.1807" y2="541.1807"/><rect fill="#EEEEEE" height="23.3105" style="stroke:#000000;stroke-width:2.0;" width="261.7046" x="117.0662" y="527.5254"/><text fill="#000000" font-family="sans-serif" font-size="13" font-weight="bold" lengthAdjust="spacing" textLength="243.4199" x="123.0662" y="544.0938">extra long text on right edge arrows</text><path d="M138.5073,564.8359 L205.6924,564.8359 L205.6924,572.1465 L195.6924,582.1465 L138.5073,582.1465 L138.5073,564.8359 " fill="none" style="stroke:#000000;stroke-width:1.5;"/><rect fill="none" height="71.9316" style="stroke:#000000;stroke-width:1.5;" width="343.3296" x="138.5073" y="564.8359"/><text fill="#000000" font-family="sans-serif" font-size="13" font-weight="bold" lengthAdjust="spacing" textLength="22.1851" x="153.5073" y="578.4043">opt</text><text fill="#000000" font-family="sans-serif" font-size="11" font-weight="bold" lengthAdjust="spacing" textLength="25.0186" x="220.6924" y="577.4707">[OK]</text><ellipse cx="154.0073" cy="628.0176" fill="none" rx="4" ry="4" style="stroke:#181818;stroke-width:1.5;"/><polygon fill="#181818" points="211.3633,624.7676,221.3633,628.7676,211.3633,632.7676,215.3633,628.7676" style="stroke:#181818;stroke-width:1.0;"/><line style="stroke:#181818;stroke-width:1.0;" x1="158.5073" x2="217.3633" y1="628.7676" y2="628.7676"/><polygon fill="#181818" points="234.3633,624.7676,224.3633,628.7676,234.3633,632.7676,230.3633,628.7676" style="stroke:#181818;stroke-width:1.0;"/><ellipse cx="484.3369" cy="628.0176" fill="none" rx="4" ry="4" style="stroke:#181818;stroke-width:1.5;"/><line style="stroke:#181818;stroke-width:1.0;" x1="228.3633" x2="479.8369" y1="628.7676" y2="628.7676"/><text fill="#000000" font-family="sans-serif" font-size="13" lengthAdjust="spacing" textLength="218.4736" x="240.3633" y="608.7148">This text extends the arrow length</text><text fill="#000000" font-family="sans-serif" font-size="13" lengthAdjust="spacing" textLength="104.9331" x="240.3633" y="624.0254">right edge arrow</text><ellipse cx="154.0073" cy="686.6387" fill="none" rx="4" ry="4" style="stroke:#181818;stroke-width:1.5;"/><polygon fill="#181818" points="211.3633,683.3887,221.3633,687.3887,211.3633,691.3887,215.3633,687.3887" style="stroke:#181818;stroke-width:1.0;"/><line style="stroke:#181818;stroke-width:1.0;" x1="158.5073" x2="217.3633" y1="687.3887" y2="687.3887"/><polygon fill="#181818" points="234.3633,683.3887,224.3633,687.3887,234.3633,691.3887,230.3633,687.3887" style="stroke:#181818;stroke-width:1.0;"/><ellipse cx="484.3369" cy="686.6387" fill="none" rx="4" ry="4" style="stroke:#181818;stroke-width:1.5;"/><line style="stroke:#181818;stroke-width:1.0;" x1="228.3633" x2="479.8369" y1="687.3887" y2="687.3887"/><text fill="#000000" font-family="sans-serif" font-size="13" lengthAdjust="spacing" textLength="218.4736" x="240.3633" y="667.3359">This text extends the arrow length</text><text fill="#000000" font-family="sans-serif" font-size="13" lengthAdjust="spacing" textLength="104.9331" x="240.3633" y="682.6465">right edge arrow</text><rect fill="#EEEEEE" height="3" style="stroke:#EEEEEE;stroke-width:1.0;" width="485.8369" x="5" y="716.0439"/><line style="stroke:#000000;stroke-width:1.0;" x1="5" x2="490.8369" y1="716.0439" y2="716.0439"/><line style="stroke:#000000;stroke-width:1.0;" x1="5" x2="490.8369" y1="719.0439" y2="719.0439"/><rect fill="#EEEEEE" height="23.3105" style="stroke:#000000;stroke-width:2.0;" width="264.6499" x="115.5935" y="705.3887"/><text fill="#000000" font-family="sans-serif" font-size="13" font-weight="bold" lengthAdjust="spacing" textLength="246.3652" x="121.5935" y="721.957">extra long text on right short arrows</text><path d="M163.6157,742.6992 L230.8008,742.6992 L230.8008,750.0098 L220.8008,760.0098 L163.6157,760.0098 L163.6157,742.6992 " fill="none" style="stroke:#000000;stroke-width:1.5;"/><rect fill="none" height="71.9316" style="stroke:#000000;stroke-width:1.5;" width="318.2212" x="163.6157" y="742.6992"/><text fill="#000000" font-family="sans-serif" font-size="13" font-weight="bold" lengthAdjust="spacing" textLength="22.1851" x="178.6157" y="756.2676">opt</text><text fill="#000000" font-family="sans-serif" font-size="11" font-weight="bold" lengthAdjust="spacing" textLength="25.0186" x="245.8008" y="755.334">[OK]</text><ellipse cx="185.1157" cy="805.8809" fill="none" rx="4" ry="4" style="stroke:#181818;stroke-width:1.5;"/><polygon fill="#181818" points="211.3633,802.6309,221.3633,806.6309,211.3633,810.6309,215.3633,806.6309" style="stroke:#181818;stroke-width:1.0;"/><line style="stroke:#181818;stroke-width:1.0;" x1="189.6157" x2="217.3633" y1="806.6309" y2="806.6309"/><text fill="#000000" font-family="sans-serif" font-size="13" lengthAdjust="spacing" textLength="19.7476" x="192.6157" y="801.8887">Pre</text><polygon fill="#181818" points="234.3633,802.6309,224.3633,806.6309,234.3633,810.6309,230.3633,806.6309" style="stroke:#181818;stroke-width:1.0;"/><ellipse cx="459.3369" cy="805.8809" fill="none" rx="4" ry="4" style="stroke:#181818;stroke-width:1.5;"/><line style="stroke:#181818;stroke-width:1.0;" x1="228.3633" x2="454.8369" y1="806.6309" y2="806.6309"/><text fill="#000000" font-family="sans-serif" font-size="13" lengthAdjust="spacing" textLength="218.4736" x="240.3633" y="786.5781">This text extends the arrow length</text><text fill="#000000" font-family="sans-serif" font-size="13" lengthAdjust="spacing" textLength="72.7949" x="240.3633" y="801.8887">short arrow</text><ellipse cx="185.1157" cy="864.502" fill="none" rx="4" ry="4" style="stroke:#181818;stroke-width:1.5;"/><polygon fill="#181818" points="211.3633,861.252,221.3633,865.252,211.3633,869.252,215.3633,865.252" style="stroke:#181818;stroke-width:1.0;"/><line style="stroke:#181818;stroke-width:1.0;" x1="189.6157" x2="217.3633" y1="865.252" y2="865.252"/><text fill="#000000" font-family="sans-serif" font-size="13" lengthAdjust="spacing" textLength="19.7476" x="192.6157" y="860.5098">Pre</text><polygon fill="#181818" points="234.3633,861.252,224.3633,865.252,234.3633,869.252,230.3633,865.252" style="stroke:#181818;stroke-width:1.0;"/><ellipse cx="459.3369" cy="864.502" fill="none" rx="4" ry="4" style="stroke:#181818;stroke-width:1.5;"/><line style="stroke:#181818;stroke-width:1.0;" x1="228.3633" x2="454.8369" y1="865.252" y2="865.252"/><text fill="#000000" font-family="sans-serif" font-size="13" lengthAdjust="spacing" textLength="218.4736" x="240.3633" y="845.1992">This text extends the arrow length</text><text fill="#000000" font-family="sans-serif" font-size="13" lengthAdjust="spacing" textLength="72.7949" x="240.3633" y="860.5098">short arrow</text><!--SRC=[fPCnJyCm48Nt-nM7aF1K5PWG8bG98mCPs8318iQnI7tHnQY5NyyreJGDTHlH8LBEVlU-yujpKhEsSut1q1S6_Z3Gl3jVQzPpp3K7z-fgxKEkYy9vYnTNlVsCbklrotE0UYF7TAlAjgex09Ka61Q4JKaSK3FJei4a0KLrE0siVICDHhGFzpXLphVZgIce6KrkCSDhpDc0EfFNcmdDfFwaYa0PNnpKZ4Aac_OqXeXg3X1-colorh0iBqEN1ApCk-rTkn9QPTu2ciAQNcX_SV3KZs2Om0goLo0SThOS0q8vI6krDddfKo8DKNtSJKQI75YtgNIPa3zkoiVIDPsJF4ANelpnaPYz3UMp7mBYK_xBRT-fXh_6c4kruuEEcQk7sjp0uxs-0G00]--></g></svg>