<svg xmlns="http://www.w3.org/2000/svg" xmlns:xlink="http://www.w3.org/1999/xlink" contentStyleType="text/css" height="239px" preserveAspectRatio="none" style="width:258px;height:239px;background:#FFFFFF;" version="1.1" viewBox="0 0 258 239" width="258px" zoomAndPan="magnify"><defs/><g><rect fill="none" height="59.6211" style="stroke:#000000;stroke-width:1.5;" width="137" x="115" y="53.4883"/><rect fill="none" height="59.6211" style="stroke:#000000;stroke-width:1.5;" width="147" x="10" y="127.1094"/><line style="stroke:#181818;stroke-width:0.5;stroke-dasharray:5.0,5.0;" x1="136" x2="136" y1="36.4883" y2="203.7305"/><rect fill="#E2E2F0" height="30.4883" rx="2.5" ry="2.5" style="stroke:#181818;stroke-width:0.5;" width="22" x="125" y="5"/><text fill="#000000" font-family="sans-serif" font-size="14" lengthAdjust="spacing" textLength="8" x="132" y="25.5352">a</text><rect fill="#E2E2F0" height="30.4883" rx="2.5" ry="2.5" style="stroke:#181818;stroke-width:0.5;" width="22" x="125" y="202.7305"/><text fill="#000000" font-family="sans-serif" font-size="14" lengthAdjust="spacing" textLength="8" x="132" y="223.2656">a</text><path d="M115,53.4883 L201,53.4883 L201,60.7988 L191,70.7988 L115,70.7988 L115,53.4883 " fill="#EEEEEE" style="stroke:#000000;stroke-width:1.5;"/><rect fill="none" height="59.6211" style="stroke:#000000;stroke-width:1.5;" width="137" x="115" y="53.4883"/><text fill="#000000" font-family="sans-serif" font-size="13" font-weight="bold" lengthAdjust="spacing" textLength="41" x="130" y="67.0566">group</text><line style="stroke:#181818;stroke-width:1.0;" x1="136" x2="178" y1="92.1094" y2="92.1094"/><line style="stroke:#181818;stroke-width:1.0;" x1="178" x2="178" y1="92.1094" y2="105.1094"/><line style="stroke:#181818;stroke-width:1.0;" x1="137" x2="178" y1="105.1094" y2="105.1094"/><polygon fill="#181818" points="147,101.1094,137,105.1094,147,109.1094,143,105.1094" style="stroke:#181818;stroke-width:1.0;"/><text fill="#000000" font-family="sans-serif" font-size="13" lengthAdjust="spacing" textLength="97" x="143" y="87.3672">This works fine</text><path d="M10,127.1094 L96,127.1094 L96,134.4199 L86,144.4199 L10,144.4199 L10,127.1094 " fill="#EEEEEE" style="stroke:#000000;stroke-width:1.5;"/><rect fill="none" height="59.6211" style="stroke:#000000;stroke-width:1.5;" width="147" x="10" y="127.1094"/><text fill="#000000" font-family="sans-serif" font-size="13" font-weight="bold" lengthAdjust="spacing" textLength="41" x="25" y="140.6777">group</text><line style="stroke:#181818;stroke-width:1.0;" x1="94" x2="135" y1="165.7305" y2="165.7305"/><line style="stroke:#181818;stroke-width:1.0;" x1="94" x2="94" y1="165.7305" y2="178.7305"/><line style="stroke:#181818;stroke-width:1.0;" x1="94" x2="134" y1="178.7305" y2="178.7305"/><polygon fill="#181818" points="124,174.7305,134,178.7305,124,182.7305,128,178.7305" style="stroke:#181818;stroke-width:1.0;"/><text fill="#000000" font-family="sans-serif" font-size="13" lengthAdjust="spacing" textLength="107" x="22" y="160.9883">This [now works]</text><!--SRC=[Io_ABotWKW22H0LTEo1XfH2IaLciK9vVb5sia9QPbygLcfV2bOwap4ONeImwBxySeZOMf0u0]--></g></svg>