<svg xmlns="http://www.w3.org/2000/svg" xmlns:xlink="http://www.w3.org/1999/xlink" contentStyleType="text/css" height="182px" preserveAspectRatio="none" style="width:274px;height:182px;background:#FFFFFF;" version="1.1" viewBox="0 0 274 182" width="274px" zoomAndPan="magnify"><defs/><g><line style="stroke:#181818;stroke-width:0.5;stroke-dasharray:5.0,5.0;" x1="29" x2="29" y1="36.4883" y2="146.4199"/><rect fill="#FFFFFF" height="21.3105" style="stroke:#181818;stroke-width:1.0;" width="10" x="24" y="71.7988"/><line style="stroke:#181818;stroke-width:0.5;stroke-dasharray:5.0,5.0;" x1="138" x2="138" y1="36.4883" y2="146.4199"/><rect fill="#FFFFFF" height="48.3105" style="stroke:#181818;stroke-width:1.0;" width="10" x="133" y="93.1094"/><line style="stroke:#181818;stroke-width:0.5;stroke-dasharray:5.0,5.0;" x1="258" x2="258" y1="36.4883" y2="146.4199"/><rect fill="#FFFFFF" height="75.6211" style="stroke:#181818;stroke-width:1.0;" width="10" x="253" y="65.7988"/><rect fill="#E2E2F0" height="30.4883" rx="2.5" ry="2.5" style="stroke:#181818;stroke-width:0.5;" width="22" x="18" y="5"/><text fill="#000000" font-family="sans-serif" font-size="14" lengthAdjust="spacing" textLength="8" x="25" y="25.5352">a</text><rect fill="#E2E2F0" height="30.4883" rx="2.5" ry="2.5" style="stroke:#181818;stroke-width:0.5;" width="23" x="126.5" y="5"/><text fill="#000000" font-family="sans-serif" font-size="14" lengthAdjust="spacing" textLength="9" x="133.5" y="25.5352">b</text><rect fill="#E2E2F0" height="30.4883" rx="2.5" ry="2.5" style="stroke:#181818;stroke-width:0.5;" width="21" x="247.5" y="5"/><text fill="#000000" font-family="sans-serif" font-size="14" lengthAdjust="spacing" textLength="7" x="254.5" y="25.5352">c</text><rect fill="#E2E2F0" height="30.4883" rx="2.5" ry="2.5" style="stroke:#181818;stroke-width:0.5;" width="22" x="18" y="146.4199"/><text fill="#000000" font-family="sans-serif" font-size="14" lengthAdjust="spacing" textLength="8" x="25" y="166.9551">a</text><rect fill="#E2E2F0" height="30.4883" rx="2.5" ry="2.5" style="stroke:#181818;stroke-width:0.5;" width="23" x="126.5" y="146.4199"/><text fill="#000000" font-family="sans-serif" font-size="14" lengthAdjust="spacing" textLength="9" x="133.5" y="166.9551">b</text><rect fill="#E2E2F0" height="30.4883" rx="2.5" ry="2.5" style="stroke:#181818;stroke-width:0.5;" width="21" x="247.5" y="146.4199"/><text fill="#000000" font-family="sans-serif" font-size="14" lengthAdjust="spacing" textLength="7" x="254.5" y="166.9551">c</text><line style="stroke:#181818;stroke-width:1.0;" x1="251" x2="241" y1="65.7988" y2="61.7988"/><line style="stroke:#181818;stroke-width:1.0;" x1="251" x2="241" y1="65.7988" y2="69.7988"/><line style="stroke:#181818;stroke-width:1.0;" x1="138" x2="252" y1="65.7988" y2="65.7988"/><text fill="#000000" font-family="sans-serif" font-size="13" lengthAdjust="spacing" textLength="91" x="145" y="61.0566">Outside Group</text><path d="M8,65.7988 L75,65.7988 L75,73.1094 L65,83.1094 L8,83.1094 L8,65.7988 " fill="#EEEEEE" style="stroke:#000000;stroke-width:1.5;"/><rect fill="none" height="56.6211" style="stroke:#000000;stroke-width:1.5;" width="151" x="8" y="65.7988"/><text fill="#000000" font-family="sans-serif" font-size="13" font-weight="bold" lengthAdjust="spacing" textLength="22" x="23" y="79.3672">opt</text><text fill="#000000" font-family="sans-serif" font-size="11" font-weight="bold" lengthAdjust="spacing" textLength="28" x="90" y="78.4336">[test]</text><line style="stroke:#181818;stroke-width:1.0;" x1="131" x2="121" y1="114.4199" y2="110.4199"/><line style="stroke:#181818;stroke-width:1.0;" x1="131" x2="121" y1="114.4199" y2="118.4199"/><line style="stroke:#181818;stroke-width:1.0;" x1="34" x2="132" y1="114.4199" y2="114.4199"/><text fill="#000000" font-family="sans-serif" font-size="13" lengthAdjust="spacing" textLength="80" x="41" y="109.6777">Inside Group</text><!--SRC=[LSmX3iCm38LXxbEyaPAe5oWedOfs1iUnge0bLkeCxFIBXbBuIUz_3sjylXckzGjlNScuUPPiN1nyKxn9A6BTTmX2sF3gVkMaUBRQZPPgFYul9u35yuTTnzd0FndX6W8s76MAj2HAEiqdo8pu0m00]--></g></svg>