<svg xmlns="http://www.w3.org/2000/svg" xmlns:xlink="http://www.w3.org/1999/xlink" contentStyleType="text/css" height="150px" preserveAspectRatio="none" style="width:190px;height:150px;background:#FFFFFF;" version="1.1" viewBox="0 0 190 150" width="190px" zoomAndPan="magnify"><defs/><g><line style="stroke:#181818;stroke-width:0.5;stroke-dasharray:5.0,5.0;" x1="17" x2="17" y1="36.4883" y2="114.4199"/><line style="stroke:#181818;stroke-width:0.5;stroke-dasharray:5.0,5.0;" x1="98" x2="98" y1="36.4883" y2="114.4199"/><rect fill="#FFFFFF" height="18" style="stroke:#181818;stroke-width:1.0;" width="10" x="93" y="96.4199"/><line style="stroke:#181818;stroke-width:0.5;stroke-dasharray:5.0,5.0;" x1="135" x2="135" y1="36.4883" y2="114.4199"/><rect fill="#FFFFFF" height="18" style="stroke:#181818;stroke-width:1.0;" width="10" x="130" y="96.4199"/><line style="stroke:#181818;stroke-width:0.5;stroke-dasharray:5.0,5.0;" x1="172" x2="172" y1="36.4883" y2="114.4199"/><rect fill="#FFFFFF" height="18" style="stroke:#181818;stroke-width:1.0;" width="10" x="167" y="96.4199"/><rect fill="#E2E2F0" height="30.4883" rx="2.5" ry="2.5" style="stroke:#181818;stroke-width:0.5;" width="24" x="5" y="5"/><text fill="#000000" font-family="sans-serif" font-size="14" lengthAdjust="spacing" textLength="10" x="12" y="25.5352">A</text><rect fill="#E2E2F0" height="30.4883" rx="2.5" ry="2.5" style="stroke:#181818;stroke-width:0.5;" width="22" x="87" y="5"/><text fill="#000000" font-family="sans-serif" font-size="14" lengthAdjust="spacing" textLength="8" x="94" y="25.5352">B</text><rect fill="#E2E2F0" height="30.4883" rx="2.5" ry="2.5" style="stroke:#181818;stroke-width:0.5;" width="24" x="123" y="5"/><text fill="#000000" font-family="sans-serif" font-size="14" lengthAdjust="spacing" textLength="10" x="130" y="25.5352">C</text><rect fill="#E2E2F0" height="30.4883" rx="2.5" ry="2.5" style="stroke:#181818;stroke-width:0.5;" width="24" x="160" y="5"/><text fill="#000000" font-family="sans-serif" font-size="14" lengthAdjust="spacing" textLength="10" x="167" y="25.5352">D</text><rect fill="#E2E2F0" height="30.4883" rx="2.5" ry="2.5" style="stroke:#181818;stroke-width:0.5;" width="24" x="5" y="114.4199"/><text fill="#000000" font-family="sans-serif" font-size="14" lengthAdjust="spacing" textLength="10" x="12" y="134.9551">A</text><rect fill="#E2E2F0" height="30.4883" rx="2.5" ry="2.5" style="stroke:#181818;stroke-width:0.5;" width="22" x="87" y="114.4199"/><text fill="#000000" font-family="sans-serif" font-size="14" lengthAdjust="spacing" textLength="8" x="94" y="134.9551">B</text><rect fill="#E2E2F0" height="30.4883" rx="2.5" ry="2.5" style="stroke:#181818;stroke-width:0.5;" width="24" x="123" y="114.4199"/><text fill="#000000" font-family="sans-serif" font-size="14" lengthAdjust="spacing" textLength="10" x="130" y="134.9551">C</text><rect fill="#E2E2F0" height="30.4883" rx="2.5" ry="2.5" style="stroke:#181818;stroke-width:0.5;" width="24" x="160" y="114.4199"/><text fill="#000000" font-family="sans-serif" font-size="14" lengthAdjust="spacing" textLength="10" x="167" y="134.9551">D</text><polygon fill="#181818" points="81,92.4199,91,96.4199,81,100.4199,85,96.4199" style="stroke:#181818;stroke-width:1.0;"/><line style="stroke:#181818;stroke-width:1.0;" x1="17" x2="87" y1="96.4199" y2="96.4199"/><text fill="#000000" font-family="sans-serif" font-size="13" lengthAdjust="spacing" textLength="52" x="24" y="91.6777">Get data</text><polygon fill="#181818" points="118,92.4199,128,96.4199,118,100.4199,122,96.4199" style="stroke:#181818;stroke-width:1.0;"/><line style="stroke:#181818;stroke-width:1.0;" x1="103" x2="124" y1="96.4199" y2="96.4199"/><text fill="#000000" font-family="sans-serif" font-size="13" lengthAdjust="spacing" textLength="7" x="110" y="76.3672">a</text><text fill="#000000" font-family="sans-serif" font-size="13" lengthAdjust="spacing" textLength="8" x="110" y="91.6777">2</text><polygon fill="#181818" points="155,92.4199,165,96.4199,155,100.4199,159,96.4199" style="stroke:#181818;stroke-width:1.0;"/><line style="stroke:#181818;stroke-width:1.0;" x1="140" x2="161" y1="96.4199" y2="96.4199"/><text fill="#000000" font-family="sans-serif" font-size="13" lengthAdjust="spacing" textLength="7" x="147" y="61.0566">a</text><text fill="#000000" font-family="sans-serif" font-size="13" lengthAdjust="spacing" textLength="8" x="147" y="76.3672">2</text><text fill="#000000" font-family="sans-serif" font-size="13" lengthAdjust="spacing" textLength="8" x="147" y="91.6777">3</text><!--SRC=[KomeIapFJLGeISslKYWfAatbKlSiBYvDLL0sCpNZSbJGjLDmqjQsKd1FBL58IIn9v59JS089EWC54sFoZ81yPn3V1QG8912JPmm0]--></g></svg>