<svg xmlns="http://www.w3.org/2000/svg" xmlns:xlink="http://www.w3.org/1999/xlink" contentStyleType="text/css" height="330px" preserveAspectRatio="none" style="width:228px;height:330px;background:#FFFFFF;" version="1.1" viewBox="0 0 228 330" width="228px" zoomAndPan="magnify"><defs/><g><line style="stroke:#181818;stroke-width:0.5;stroke-dasharray:5.0,5.0;" x1="40" x2="40" y1="36.4883" y2="293.6621"/><line style="stroke:#181818;stroke-width:0.5;stroke-dasharray:5.0,5.0;" x1="140" x2="140" y1="36.4883" y2="293.6621"/><rect fill="#E2E2F0" height="30.4883" rx="2.5" ry="2.5" style="stroke:#181818;stroke-width:0.5;" width="70" x="5" y="5"/><text fill="#000000" font-family="sans-serif" font-size="14" lengthAdjust="spacing" textLength="56" x="12" y="25.5352">browser</text><rect fill="#E2E2F0" height="30.4883" rx="2.5" ry="2.5" style="stroke:#181818;stroke-width:0.5;" width="110" x="85" y="5"/><text fill="#000000" font-family="sans-serif" font-size="14" lengthAdjust="spacing" textLength="96" x="92" y="25.5352">ssl_server.exe</text><rect fill="#E2E2F0" height="30.4883" rx="2.5" ry="2.5" style="stroke:#181818;stroke-width:0.5;" width="70" x="5" y="293.6621"/><text fill="#000000" font-family="sans-serif" font-size="14" lengthAdjust="spacing" textLength="56" x="12" y="314.1973">browser</text><rect fill="#E2E2F0" height="30.4883" rx="2.5" ry="2.5" style="stroke:#181818;stroke-width:0.5;" width="110" x="85" y="293.6621"/><text fill="#000000" font-family="sans-serif" font-size="14" lengthAdjust="spacing" textLength="96" x="92" y="314.1973">ssl_server.exe</text><polygon fill="#181818" points="128,61.7988,138,65.7988,128,69.7988,132,65.7988" style="stroke:#181818;stroke-width:1.0;"/><line style="stroke:#181818;stroke-width:1.0;" x1="40" x2="134" y1="65.7988" y2="65.7988"/><text fill="#000000" font-family="sans-serif" font-size="13" lengthAdjust="spacing" textLength="8" x="47" y="61.0566">1</text><polygon fill="#181818" points="128,91.1094,138,95.1094,128,99.1094,132,95.1094" style="stroke:#181818;stroke-width:1.0;"/><line style="stroke:#181818;stroke-width:1.0;" x1="40" x2="134" y1="95.1094" y2="95.1094"/><text fill="#000000" font-family="sans-serif" font-size="13" lengthAdjust="spacing" textLength="8" x="47" y="90.3672">2</text><polygon fill="#181818" points="128,120.4199,138,124.4199,128,128.4199,132,124.4199" style="stroke:#181818;stroke-width:1.0;"/><line style="stroke:#181818;stroke-width:1.0;" x1="40" x2="134" y1="124.4199" y2="124.4199"/><text fill="#000000" font-family="sans-serif" font-size="13" lengthAdjust="spacing" textLength="8" x="47" y="119.6777">3</text><polygon fill="#181818" points="128,149.7305,138,153.7305,128,157.7305,132,153.7305" style="stroke:#181818;stroke-width:1.0;"/><line style="stroke:#181818;stroke-width:1.0;" x1="40" x2="134" y1="153.7305" y2="153.7305"/><text fill="#000000" font-family="sans-serif" font-size="13" lengthAdjust="spacing" textLength="8" x="47" y="148.9883">4</text><polygon fill="#181818" points="128,179.041,138,183.041,128,187.041,132,183.041" style="stroke:#181818;stroke-width:1.0;"/><line style="stroke:#181818;stroke-width:1.0;" x1="40" x2="134" y1="183.041" y2="183.041"/><text fill="#000000" font-family="sans-serif" font-size="13" lengthAdjust="spacing" textLength="8" x="47" y="178.2988">5</text><path d="M24,195.041 L206,195.041 L206,202.3516 L196,212.3516 L24,212.3516 L24,195.041 " fill="#EEEEEE" style="stroke:#000000;stroke-width:1.5;"/><rect fill="none" height="56.6211" style="stroke:#000000;stroke-width:1.5;" width="198" x="24" y="195.041"/><text fill="#000000" font-family="sans-serif" font-size="13" font-weight="bold" lengthAdjust="spacing" textLength="137" x="39" y="208.6094">SSL Application data</text><polygon fill="#181818" points="128,239.6621,138,243.6621,128,247.6621,132,243.6621" style="stroke:#181818;stroke-width:1.0;"/><line style="stroke:#181818;stroke-width:1.0;" x1="40" x2="134" y1="243.6621" y2="243.6621"/><text fill="#000000" font-family="sans-serif" font-size="13" lengthAdjust="spacing" textLength="12" x="47" y="238.9199">in</text><line style="stroke:#181818;stroke-width:2.0;" x1="31" x2="49" y1="265.6621" y2="283.6621"/><line style="stroke:#181818;stroke-width:2.0;" x1="31" x2="49" y1="283.6621" y2="265.6621"/><!--SRC=[VSox2i9048NXVfxYMANIuAsn4EpjyW1XT8Um47UNsOaQdzuKbZBTWO_phuhoy62Ov0zC9o6wQNvLKQpFg7Nib_aKtSXRSCBMrPshUrSFhXw9QD0y5NJT5PTIndXdYpaXiB5xZOaa1RJDtokQTaa7gQPvngz3Nm00]--></g></svg>