<svg xmlns="http://www.w3.org/2000/svg" xmlns:xlink="http://www.w3.org/1999/xlink" contentStyleType="text/css" height="673px" preserveAspectRatio="none" style="width:117px;height:673px;background:#FFFFFF;" version="1.1" viewBox="0 0 117 673" width="117px" zoomAndPan="magnify"><defs/><g><line style="stroke:#181818;stroke-width:0.5;stroke-dasharray:5.0,5.0;" x1="28.3618" x2="28.3618" y1="36.4883" y2="637.1445"/><line style="stroke:#181818;stroke-width:0.5;stroke-dasharray:5.0,5.0;" x1="91.4951" x2="91.4951" y1="36.4883" y2="637.1445"/><rect fill="#E2E2F0" height="30.4883" rx="2.5" ry="2.5" style="stroke:#181818;stroke-width:0.5;" width="46.7236" x="5" y="5"/><text fill="#000000" font-family="sans-serif" font-size="14" lengthAdjust="spacing" textLength="32.7236" x="12" y="25.5352">Alice</text><rect fill="#E2E2F0" height="30.4883" rx="2.5" ry="2.5" style="stroke:#181818;stroke-width:0.5;" width="39.4639" x="71.7632" y="5"/><text fill="#000000" font-family="sans-serif" font-size="14" lengthAdjust="spacing" textLength="25.4639" x="78.7632" y="25.5352">Bob</text><rect fill="#E2E2F0" height="30.4883" rx="2.5" ry="2.5" style="stroke:#181818;stroke-width:0.5;" width="46.7236" x="5" y="637.1445"/><text fill="#000000" font-family="sans-serif" font-size="14" lengthAdjust="spacing" textLength="32.7236" x="12" y="657.6797">Alice</text><rect fill="#E2E2F0" height="30.4883" rx="2.5" ry="2.5" style="stroke:#181818;stroke-width:0.5;" width="39.4639" x="71.7632" y="637.1445"/><text fill="#000000" font-family="sans-serif" font-size="14" lengthAdjust="spacing" textLength="25.4639" x="78.7632" y="657.6797">Bob</text><polygon fill="#181818" points="39.3618,61.6211,29.3618,65.6211,39.3618,69.6211,35.3618,65.6211" style="stroke:#181818;stroke-width:1.0;"/><line style="stroke:#181818;stroke-width:1.0;" x1="33.3618" x2="90.4951" y1="65.6211" y2="65.6211"/><text fill="#000000" font-family="monospace" font-size="13" lengthAdjust="spacing" textLength="15.6533" x="45.3618" y="60.5552">&lt;-</text><line style="stroke:#181818;stroke-width:1.0;" x1="29.3618" x2="39.3618" y1="94.7539" y2="90.7539"/><line style="stroke:#181818;stroke-width:1.0;" x1="29.3618" x2="39.3618" y1="94.7539" y2="98.7539"/><line style="stroke:#181818;stroke-width:1.0;" x1="28.3618" x2="90.4951" y1="94.7539" y2="94.7539"/><text fill="#000000" font-family="monospace" font-size="13" lengthAdjust="spacing" textLength="23.48" x="45.3618" y="89.688">&lt;&lt;-</text><polygon fill="#181818" points="39.3618,119.8867,29.3618,123.8867,39.3618,123.8867" style="stroke:#181818;stroke-width:1.0;"/><line style="stroke:#181818;stroke-width:1.0;" x1="28.3618" x2="90.4951" y1="123.8867" y2="123.8867"/><text fill="#000000" font-family="monospace" font-size="13" lengthAdjust="spacing" textLength="15.6533" x="45.3618" y="118.8208">/-</text><line style="stroke:#181818;stroke-width:1.0;" x1="29.3618" x2="39.3618" y1="153.0195" y2="149.0195"/><line style="stroke:#181818;stroke-width:1.0;" x1="28.3618" x2="90.4951" y1="153.0195" y2="153.0195"/><text fill="#000000" font-family="monospace" font-size="13" lengthAdjust="spacing" textLength="23.48" x="45.3618" y="147.9536">//-</text><polygon fill="#181818" points="39.3618,182.1523,29.3618,182.1523,39.3618,186.1523" style="stroke:#181818;stroke-width:1.0;"/><line style="stroke:#181818;stroke-width:1.0;" x1="28.3618" x2="90.4951" y1="182.1523" y2="182.1523"/><text fill="#000000" font-family="monospace" font-size="13" lengthAdjust="spacing" textLength="15.6533" x="45.3618" y="177.0864">\-</text><line style="stroke:#181818;stroke-width:1.0;" x1="29.3618" x2="39.3618" y1="211.2852" y2="215.2852"/><line style="stroke:#181818;stroke-width:1.0;" x1="28.3618" x2="90.4951" y1="211.2852" y2="211.2852"/><text fill="#000000" font-family="monospace" font-size="13" lengthAdjust="spacing" textLength="23.48" x="45.3618" y="206.2192">\\-</text><line style="stroke:#181818;stroke-width:2.0;" x1="35.3618" x2="45.3618" y1="235.418" y2="245.418"/><line style="stroke:#181818;stroke-width:2.0;" x1="35.3618" x2="45.3618" y1="245.418" y2="235.418"/><line style="stroke:#181818;stroke-width:1.0;" x1="40.3618" x2="90.4951" y1="240.418" y2="240.418"/><text fill="#000000" font-family="monospace" font-size="13" lengthAdjust="spacing" textLength="23.48" x="45.3618" y="235.3521">x&lt;-</text><polygon fill="#181818" points="39.3618,265.5508,29.3618,269.5508,39.3618,273.5508,35.3618,269.5508" style="stroke:#181818;stroke-width:1.0;"/><line style="stroke:#181818;stroke-width:2.0;" x1="73.4951" x2="83.4951" y1="264.5508" y2="274.5508"/><line style="stroke:#181818;stroke-width:2.0;" x1="73.4951" x2="83.4951" y1="274.5508" y2="264.5508"/><line style="stroke:#181818;stroke-width:1.0;" x1="33.3618" x2="78.4951" y1="269.5508" y2="269.5508"/><text fill="#000000" font-family="monospace" font-size="13" lengthAdjust="spacing" textLength="23.48" x="45.3618" y="264.4849">&lt;-x</text><polygon fill="#181818" points="39.3618,294.6836,29.3618,298.6836,39.3618,302.6836,35.3618,298.6836" style="stroke:#181818;stroke-width:1.0;"/><ellipse cx="90.9951" cy="297.9336" fill="none" rx="4" ry="4" style="stroke:#181818;stroke-width:1.5;"/><line style="stroke:#181818;stroke-width:1.0;" x1="33.3618" x2="86.4951" y1="298.6836" y2="298.6836"/><text fill="#000000" font-family="monospace" font-size="13" lengthAdjust="spacing" textLength="23.48" x="45.3618" y="293.6177">&lt;-o</text><ellipse cx="27.8618" cy="327.0664" fill="none" rx="4" ry="4" style="stroke:#181818;stroke-width:1.5;"/><polygon fill="#181818" points="44.8618,323.8164,34.8618,327.8164,44.8618,331.8164,40.8618,327.8164" style="stroke:#181818;stroke-width:1.0;"/><line style="stroke:#181818;stroke-width:1.0;" x1="38.8618" x2="90.4951" y1="327.8164" y2="327.8164"/><text fill="#000000" font-family="monospace" font-size="13" lengthAdjust="spacing" textLength="23.48" x="45.3618" y="322.7505">o&lt;-</text><ellipse cx="27.8618" cy="356.1992" fill="none" rx="4" ry="4" style="stroke:#181818;stroke-width:1.5;"/><polygon fill="#181818" points="44.8618,352.9492,34.8618,356.9492,44.8618,360.9492,40.8618,356.9492" style="stroke:#181818;stroke-width:1.0;"/><ellipse cx="90.9951" cy="356.1992" fill="none" rx="4" ry="4" style="stroke:#181818;stroke-width:1.5;"/><line style="stroke:#181818;stroke-width:1.0;" x1="38.8618" x2="86.4951" y1="356.9492" y2="356.9492"/><text fill="#000000" font-family="monospace" font-size="13" lengthAdjust="spacing" textLength="31.3066" x="45.3618" y="351.8833">o&lt;-o</text><polygon fill="#181818" points="39.3618,382.082,29.3618,386.082,39.3618,390.082,35.3618,386.082" style="stroke:#181818;stroke-width:1.0;"/><polygon fill="#181818" points="79.4951,382.082,89.4951,386.082,79.4951,390.082,83.4951,386.082" style="stroke:#181818;stroke-width:1.0;"/><line style="stroke:#181818;stroke-width:1.0;" x1="33.3618" x2="85.4951" y1="386.082" y2="386.082"/><text fill="#000000" font-family="monospace" font-size="13" lengthAdjust="spacing" textLength="23.48" x="45.3618" y="381.0161">&lt;-&gt;</text><ellipse cx="27.8618" cy="414.4648" fill="none" rx="4" ry="4" style="stroke:#181818;stroke-width:1.5;"/><polygon fill="#181818" points="44.8618,411.2148,34.8618,415.2148,44.8618,419.2148,40.8618,415.2148" style="stroke:#181818;stroke-width:1.0;"/><ellipse cx="90.9951" cy="414.4648" fill="none" rx="4" ry="4" style="stroke:#181818;stroke-width:1.5;"/><polygon fill="#181818" points="73.9951,411.2148,83.9951,415.2148,73.9951,419.2148,77.9951,415.2148" style="stroke:#181818;stroke-width:1.0;"/><line style="stroke:#181818;stroke-width:1.0;" x1="38.8618" x2="79.9951" y1="415.2148" y2="415.2148"/><text fill="#000000" font-family="monospace" font-size="13" lengthAdjust="spacing" textLength="39.1333" x="45.3618" y="410.1489">o&lt;-&gt;o</text><line style="stroke:#181818;stroke-width:2.0;" x1="35.3618" x2="45.3618" y1="439.3477" y2="449.3477"/><line style="stroke:#181818;stroke-width:2.0;" x1="35.3618" x2="45.3618" y1="449.3477" y2="439.3477"/><line style="stroke:#181818;stroke-width:2.0;" x1="73.4951" x2="83.4951" y1="439.3477" y2="449.3477"/><line style="stroke:#181818;stroke-width:2.0;" x1="73.4951" x2="83.4951" y1="449.3477" y2="439.3477"/><line style="stroke:#181818;stroke-width:1.0;" x1="40.3618" x2="78.4951" y1="444.3477" y2="444.3477"/><text fill="#000000" font-family="monospace" font-size="13" lengthAdjust="spacing" textLength="39.1333" x="45.3618" y="439.2817">x&lt;-&gt;x</text><ellipse cx="27.8618" cy="472.7305" fill="none" rx="4" ry="4" style="stroke:#181818;stroke-width:1.5;"/><line style="stroke:#181818;stroke-width:1.0;" x1="34.8618" x2="44.8618" y1="473.4805" y2="469.4805"/><line style="stroke:#181818;stroke-width:1.0;" x1="34.8618" x2="44.8618" y1="473.4805" y2="477.4805"/><line style="stroke:#181818;stroke-width:1.0;" x1="33.8618" x2="90.4951" y1="473.4805" y2="473.4805"/><text fill="#000000" font-family="monospace" font-size="13" lengthAdjust="spacing" textLength="31.3066" x="45.3618" y="468.4146">o&lt;&lt;-</text><ellipse cx="27.8618" cy="501.8633" fill="none" rx="4" ry="4" style="stroke:#181818;stroke-width:1.5;"/><polygon fill="#181818" points="44.8618,498.6133,34.8618,502.6133,44.8618,502.6133" style="stroke:#181818;stroke-width:1.0;"/><line style="stroke:#181818;stroke-width:1.0;" x1="33.8618" x2="90.4951" y1="502.6133" y2="502.6133"/><text fill="#000000" font-family="monospace" font-size="13" lengthAdjust="spacing" textLength="23.48" x="45.3618" y="497.5474">o/-</text><ellipse cx="27.8618" cy="530.9961" fill="none" rx="4" ry="4" style="stroke:#181818;stroke-width:1.5;"/><line style="stroke:#181818;stroke-width:1.0;" x1="34.8618" x2="44.8618" y1="531.7461" y2="527.7461"/><line style="stroke:#181818;stroke-width:1.0;" x1="33.8618" x2="90.4951" y1="531.7461" y2="531.7461"/><text fill="#000000" font-family="monospace" font-size="13" lengthAdjust="spacing" textLength="31.3066" x="45.3618" y="526.6802">o//-</text><ellipse cx="27.8618" cy="560.1289" fill="none" rx="4" ry="4" style="stroke:#181818;stroke-width:1.5;"/><polygon fill="#181818" points="44.8618,560.8789,34.8618,560.8789,44.8618,564.8789" style="stroke:#181818;stroke-width:1.0;"/><line style="stroke:#181818;stroke-width:1.0;" x1="33.8618" x2="90.4951" y1="560.8789" y2="560.8789"/><text fill="#000000" font-family="monospace" font-size="13" lengthAdjust="spacing" textLength="23.48" x="45.3618" y="555.813">o\-</text><ellipse cx="27.8618" cy="589.2617" fill="none" rx="4" ry="4" style="stroke:#181818;stroke-width:1.5;"/><line style="stroke:#181818;stroke-width:1.0;" x1="34.8618" x2="44.8618" y1="590.0117" y2="594.0117"/><line style="stroke:#181818;stroke-width:1.0;" x1="33.8618" x2="90.4951" y1="590.0117" y2="590.0117"/><text fill="#000000" font-family="monospace" font-size="13" lengthAdjust="spacing" textLength="31.3066" x="45.3618" y="584.9458">o\\-</text><ellipse cx="27.8618" cy="618.3945" fill="none" rx="4" ry="4" style="stroke:#181818;stroke-width:1.5;"/><polygon fill="#181818" points="44.8618,615.1445,34.8618,619.1445,44.8618,623.1445,40.8618,619.1445" style="stroke:#181818;stroke-width:1.0;"/><line style="stroke:#181818;stroke-width:2.0;" x1="73.4951" x2="83.4951" y1="614.1445" y2="624.1445"/><line style="stroke:#181818;stroke-width:2.0;" x1="73.4951" x2="83.4951" y1="624.1445" y2="614.1445"/><line style="stroke:#181818;stroke-width:1.0;" x1="38.8618" x2="78.4951" y1="619.1445" y2="619.1445"/><text fill="#000000" font-family="monospace" font-size="13" lengthAdjust="spacing" textLength="31.3066" x="45.3618" y="614.0786">o&lt;-x</text><!--SRC=[LT112i8m40NGVKynPX-w5mdeERAPbY05TKgD43ozJJ99lzsqy_XCXtzQDxu_cMAGByNj4uQLjxZCoyglIDV7CWVYD_4VtsGYoZmDJ1TB-PdeJCRamPYibLKxZnWkG-KHqljGq6FMUqLl4Hid_5qwhh09RqkT1LcK1PT8No8rtbdQ4eTBt95s0cadxK2Nu42ND9r_qyBxTrMiempAnHjhJOADIEb7tLlqLfNKKlg1QN_z0000]--></g></svg>