<svg xmlns="http://www.w3.org/2000/svg" xmlns:xlink="http://www.w3.org/1999/xlink" contentStyleType="text/css" height="484px" preserveAspectRatio="none" style="width:789px;height:484px;background:#FFFFFF;" version="1.1" viewBox="0 0 789 484" width="789px" zoomAndPan="magnify"><defs><filter height="300%" id="fde31o8jnu70n" width="300%" x="-1" y="-1"><feGaussianBlur result="blurOut" stdDeviation="2.0"/><feColorMatrix in="blurOut" result="blurOut2" type="matrix" values="0 0 0 0 0 0 0 0 0 0 0 0 0 0 0 0 0 0 .4 0"/><feOffset dx="4.0" dy="4.0" in="blurOut2" result="blurOut3"/><feBlend in="SourceGraphic" in2="blurOut3" mode="normal"/></filter></defs><g><rect fill="#FFFFFF" filter="url(#fde31o8jnu70n)" height="251.8633" style="stroke:#A80036;stroke-width:1.0;" width="10" x="573.2002" y="122.1094"/><rect fill="#FFFFFF" filter="url(#fde31o8jnu70n)" height="82.6211" style="stroke:#A80036;stroke-width:1.0;" width="10" x="578.2002" y="206.7305"/><line style="stroke:#A80036;stroke-width:1.0;stroke-dasharray:5.0,5.0;" x1="577.9551" x2="577.9551" y1="40.4883" y2="441.2832"/><rect fill="#FEFECE" filter="url(#fde31o8jnu70n)" height="30.4883" style="stroke:#A80036;stroke-width:1.5;" width="64.4902" x="543.9551" y="5"/><text fill="#000000" font-family="sans-serif" font-size="14" lengthAdjust="spacing" textLength="50.4902" x="550.9551" y="25.5352">Testing</text><rect fill="#FEFECE" filter="url(#fde31o8jnu70n)" height="30.4883" style="stroke:#A80036;stroke-width:1.5;" width="64.4902" x="543.9551" y="440.2832"/><text fill="#000000" font-family="sans-serif" font-size="14" lengthAdjust="spacing" textLength="50.4902" x="550.9551" y="460.8184">Testing</text><rect fill="#FFFFFF" filter="url(#fde31o8jnu70n)" height="251.8633" style="stroke:#A80036;stroke-width:1.0;" width="10" x="573.2002" y="122.1094"/><rect fill="#FFFFFF" filter="url(#fde31o8jnu70n)" height="82.6211" style="stroke:#A80036;stroke-width:1.0;" width="10" x="578.2002" y="206.7305"/><line style="stroke:#008000;stroke-width:1.0;" x1="536.2002" x2="577.2002" y1="71.7988" y2="71.7988"/><line style="stroke:#008000;stroke-width:1.0;" x1="536.2002" x2="536.2002" y1="71.7988" y2="84.7988"/><line style="stroke:#008000;stroke-width:1.0;" x1="536.2002" x2="576.2002" y1="84.7988" y2="84.7988"/><polygon fill="#008000" points="566.2002,80.7988,576.2002,84.7988,566.2002,88.7988,570.2002,84.7988" style="stroke:#008000;stroke-width:1.0;"/><text fill="#000000" font-family="sans-serif" font-size="13" lengthAdjust="spacing" textLength="194.9365" x="376.2637" y="67.0566">1st self message, no activation</text><path d="M167.0635,56.9883 L167.0635,81.9883 L359.0635,81.9883 L359.0635,66.9883 L349.0635,56.9883 L167.0635,56.9883 " fill="#FBFB77" filter="url(#fde31o8jnu70n)" style="stroke:#A80036;stroke-width:1.0;"/><path d="M349.0635,56.9883 L349.0635,66.9883 L359.0635,66.9883 L349.0635,56.9883 " fill="#FBFB77" style="stroke:#A80036;stroke-width:1.0;"/><text fill="#000000" font-family="sans-serif" font-size="13" lengthAdjust="spacing" textLength="171.4883" x="173.0635" y="74.5566">A note on the self message</text><line style="stroke:#008000;stroke-width:1.0;" x1="536.2002" x2="577.2002" y1="109.1094" y2="109.1094"/><line style="stroke:#008000;stroke-width:1.0;" x1="536.2002" x2="536.2002" y1="109.1094" y2="122.1094"/><line style="stroke:#008000;stroke-width:1.0;" x1="536.2002" x2="571.2002" y1="122.1094" y2="122.1094"/><polygon fill="#008000" points="561.2002,118.1094,571.2002,122.1094,561.2002,126.1094,565.2002,122.1094" style="stroke:#008000;stroke-width:1.0;"/><text fill="#000000" font-family="sans-serif" font-size="13" lengthAdjust="spacing" textLength="232.4258" x="338.7744" y="104.3672">2nd self message, starting activation</text><line style="stroke:#008000;stroke-width:1.0;" x1="531.2002" x2="572.2002" y1="156.4199" y2="156.4199"/><line style="stroke:#008000;stroke-width:1.0;" x1="531.2002" x2="531.2002" y1="156.4199" y2="169.4199"/><line style="stroke:#008000;stroke-width:1.0;" x1="531.2002" x2="571.2002" y1="169.4199" y2="169.4199"/><polygon fill="#008000" points="561.2002,165.4199,571.2002,169.4199,561.2002,173.4199,565.2002,169.4199" style="stroke:#008000;stroke-width:1.0;"/><text fill="#000000" font-family="sans-serif" font-size="13" lengthAdjust="spacing" textLength="192.9941" x="373.2061" y="151.6777">2.5th self message, no change</text><path d="M588,141.6094 L588,166.6094 L780,166.6094 L780,151.6094 L770,141.6094 L588,141.6094 " fill="#FBFB77" filter="url(#fde31o8jnu70n)" style="stroke:#A80036;stroke-width:1.0;"/><path d="M770,141.6094 L770,151.6094 L780,151.6094 L770,141.6094 " fill="#FBFB77" style="stroke:#A80036;stroke-width:1.0;"/><text fill="#000000" font-family="sans-serif" font-size="13" lengthAdjust="spacing" textLength="171.4883" x="594" y="159.1777">A note on the self message</text><line style="stroke:#008000;stroke-width:1.0;stroke-dasharray:2.0,2.0;" x1="531.2002" x2="572.2002" y1="193.7305" y2="193.7305"/><line style="stroke:#008000;stroke-width:1.0;stroke-dasharray:2.0,2.0;" x1="531.2002" x2="531.2002" y1="193.7305" y2="206.7305"/><line style="stroke:#008000;stroke-width:1.0;stroke-dasharray:2.0,2.0;" x1="531.2002" x2="577.2002" y1="206.7305" y2="206.7305"/><line style="stroke:#008000;stroke-width:1.0;" x1="576.2002" x2="566.2002" y1="206.7305" y2="210.7305"/><text fill="#000000" font-family="sans-serif" font-size="13" lengthAdjust="spacing" textLength="277.6528" x="288.5474" y="188.9883">3rd self message, staring another activation</text><line style="stroke:#008000;stroke-width:1.0;" x1="531.2002" x2="577.2002" y1="241.041" y2="241.041"/><line style="stroke:#008000;stroke-width:1.0;" x1="531.2002" x2="531.2002" y1="241.041" y2="254.041"/><line style="stroke:#008000;stroke-width:1.0;" x1="531.2002" x2="577.2002" y1="254.041" y2="254.041"/><line style="stroke:#008000;stroke-width:1.0;" x1="576.2002" x2="566.2002" y1="254.041" y2="250.041"/><line style="stroke:#008000;stroke-width:1.0;" x1="576.2002" x2="566.2002" y1="254.041" y2="258.041"/><text fill="#000000" font-family="sans-serif" font-size="13" lengthAdjust="spacing" textLength="337.6001" x="228.6001" y="236.2988">4th self message, continuing in the current activation</text><path d="M4.3999,226.2305 L4.3999,251.2305 L196.3999,251.2305 L196.3999,236.2305 L186.3999,226.2305 L4.3999,226.2305 " fill="#FBFB77" filter="url(#fde31o8jnu70n)" style="stroke:#A80036;stroke-width:1.0;"/><path d="M186.3999,226.2305 L186.3999,236.2305 L196.3999,236.2305 L186.3999,226.2305 " fill="#FBFB77" style="stroke:#A80036;stroke-width:1.0;"/><text fill="#000000" font-family="sans-serif" font-size="13" lengthAdjust="spacing" textLength="171.4883" x="10.3999" y="243.7988">A note on the self message</text><line style="stroke:#008000;stroke-width:1.0;" x1="531.2002" x2="577.2002" y1="288.3516" y2="288.3516"/><line style="stroke:#008000;stroke-width:1.0;" x1="531.2002" x2="531.2002" y1="288.3516" y2="301.3516"/><line style="stroke:#008000;stroke-width:1.0;" x1="531.2002" x2="571.2002" y1="301.3516" y2="301.3516"/><polygon fill="#008000" points="561.2002,297.3516,571.2002,301.3516,561.2002,305.3516,565.2002,301.3516" style="stroke:#008000;stroke-width:1.0;"/><text fill="#000000" font-family="sans-serif" font-size="13" lengthAdjust="spacing" textLength="225.8242" x="340.376" y="283.6094">5th self message, deactivating once</text><line style="stroke:#008000;stroke-width:1.0;" x1="531.2002" x2="572.2002" y1="325.6621" y2="325.6621"/><line style="stroke:#008000;stroke-width:1.0;" x1="531.2002" x2="531.2002" y1="325.6621" y2="338.6621"/><line style="stroke:#008000;stroke-width:1.0;" x1="531.2002" x2="571.2002" y1="338.6621" y2="338.6621"/><polygon fill="#008000" points="561.2002,334.6621,571.2002,338.6621,561.2002,342.6621,565.2002,338.6621" style="stroke:#008000;stroke-width:1.0;"/><text fill="#000000" font-family="sans-serif" font-size="13" lengthAdjust="spacing" textLength="272.0098" x="294.1904" y="320.9199">6th self message, continuing the activation</text><line style="stroke:#008000;stroke-width:1.0;" x1="531.2002" x2="572.2002" y1="372.9727" y2="372.9727"/><line style="stroke:#008000;stroke-width:1.0;" x1="531.2002" x2="531.2002" y1="372.9727" y2="385.9727"/><line style="stroke:#008000;stroke-width:1.0;" x1="531.2002" x2="576.2002" y1="385.9727" y2="385.9727"/><polygon fill="#008000" points="566.2002,381.9727,576.2002,385.9727,566.2002,389.9727,570.2002,385.9727" style="stroke:#008000;stroke-width:1.0;"/><text fill="#000000" font-family="sans-serif" font-size="13" lengthAdjust="spacing" textLength="248.3774" x="317.8228" y="368.2305">7th self message, exiting the activation</text><line style="stroke:#008000;stroke-width:1.0;" x1="536.2002" x2="577.2002" y1="410.2832" y2="410.2832"/><line style="stroke:#008000;stroke-width:1.0;" x1="536.2002" x2="536.2002" y1="410.2832" y2="423.2832"/><line style="stroke:#008000;stroke-width:1.0;" x1="536.2002" x2="576.2002" y1="423.2832" y2="423.2832"/><polygon fill="#008000" points="566.2002,419.2832,576.2002,423.2832,566.2002,427.2832,570.2002,423.2832" style="stroke:#008000;stroke-width:1.0;"/><text fill="#000000" font-family="sans-serif" font-size="13" lengthAdjust="spacing" textLength="196.3774" x="374.8228" y="405.541">8th self message, no activation</text><!--SRC=[jP8_JyCm4CLtVuf331rAAb7-AkfICR0oC7Qnd6jYaPp3-G88n7V7ILf1i5LLI6HoxjtB- -NEivEMTTbe47Jl8DoXya-MW9qVJwrctO37vmx987oeDRDxlNErOxXdH5AVQlQWMQonhIQ1H_GILooLSN6fr4w3LRPlWrF68eTpBo6rtaA3tkiIpu0SQ2FsHOjrf20yv0IXngqCRm3hiU88fCA9UsX0AdezbJcVvx2aubUYbnuuo3zo4-PWNLn95UEQIjCkUm1ZMrP_PDriiYdj1QTe1zXWh92Jq1FgouZPE0fQryjs13CTCuPr_Tlaioo7U7W5xWD3YmiNJwK7Vtte5tgKmvlhms-YJ-2RbUFyEToczlvj-W80]--></g></svg>