<svg xmlns="http://www.w3.org/2000/svg" xmlns:xlink="http://www.w3.org/1999/xlink" contentStyleType="text/css" height="189px" preserveAspectRatio="none" style="width:91px;height:189px;background:#FFFFFF;" version="1.1" viewBox="0 0 91 189" width="91px" zoomAndPan="magnify"><defs/><g><line style="stroke:#181818;stroke-width:0.5;stroke-dasharray:5.0,5.0;" x1="16" x2="16" y1="36.4883" y2="153.1094"/><line style="stroke:#181818;stroke-width:0.5;stroke-dasharray:5.0,5.0;" x1="74" x2="74" y1="36.4883" y2="153.1094"/><rect fill="#FFFFFF" height="49.3105" style="stroke:#181818;stroke-width:1.0;" width="10" x="69" y="65.7988"/><rect fill="#E2E2F0" height="30.4883" rx="2.5" ry="2.5" style="stroke:#181818;stroke-width:0.5;" width="22" x="5" y="5"/><text fill="#000000" font-family="sans-serif" font-size="14" lengthAdjust="spacing" textLength="8" x="12" y="25.5352">a</text><rect fill="#E2E2F0" height="30.4883" rx="2.5" ry="2.5" style="stroke:#181818;stroke-width:0.5;" width="23" x="62.5" y="5"/><text fill="#000000" font-family="sans-serif" font-size="14" lengthAdjust="spacing" textLength="9" x="69.5" y="25.5352">b</text><rect fill="#E2E2F0" height="30.4883" rx="2.5" ry="2.5" style="stroke:#181818;stroke-width:0.5;" width="22" x="5" y="153.1094"/><text fill="#000000" font-family="sans-serif" font-size="14" lengthAdjust="spacing" textLength="8" x="12" y="173.6445">a</text><rect fill="#E2E2F0" height="30.4883" rx="2.5" ry="2.5" style="stroke:#181818;stroke-width:0.5;" width="23" x="62.5" y="153.1094"/><text fill="#000000" font-family="sans-serif" font-size="14" lengthAdjust="spacing" textLength="9" x="69.5" y="173.6445">b</text><polygon fill="#181818" points="57,61.7988,67,65.7988,57,69.7988,61,65.7988" style="stroke:#181818;stroke-width:1.0;"/><line style="stroke:#181818;stroke-width:1.0;" x1="16" x2="63" y1="65.7988" y2="65.7988"/><text fill="#000000" font-family="sans-serif" font-size="13" lengthAdjust="spacing" textLength="22" x="23" y="61.0566">call</text><polygon fill="#181818" points="24.9438,107.8364,17,115.1094,27.7682,115.3212,22.6136,112.991" style="stroke:#181818;stroke-width:1.0;"/><line style="stroke:#181818;stroke-width:1.0;" x1="68" x2="16" y1="95.1094" y2="115.1094"/><text fill="#000000" font-family="sans-serif" font-size="13" lengthAdjust="spacing" textLength="29" x="33" y="90.3672">sync</text><!--SRC=[KomeIapFJLGeISslKYWfAatbIbJGjLD8Kj3Mjb98Jip9uU9A0Wfe61beAW1bTAqKYYlpaha0]--></g></svg>