<svg xmlns="http://www.w3.org/2000/svg" xmlns:xlink="http://www.w3.org/1999/xlink" contentStyleType="text/css" height="322px" preserveAspectRatio="none" style="width:319px;height:322px;background:#FFFFFF;" version="1.1" viewBox="0 0 319 322" width="319px" zoomAndPan="magnify"><defs/><g><rect fill="#DDDDDD" height="310.8398" style="stroke:#181818;stroke-width:0.5;" width="67.6592" x="31" y="6"/><rect fill="#DDDDDD" height="310.8398" style="stroke:#181818;stroke-width:0.5;" width="67.6865" x="238.7119" y="6"/><line style="stroke:#181818;stroke-width:0.5;stroke-dasharray:5.0,5.0;" x1="64.8296" x2="64.8296" y1="41.4883" y2="279.3516"/><line style="stroke:#181818;stroke-width:0.5;stroke-dasharray:5.0,5.0;" x1="183.6855" x2="183.6855" y1="41.4883" y2="279.3516"/><line style="stroke:#181818;stroke-width:0.5;stroke-dasharray:5.0,5.0;" x1="272.5552" x2="272.5552" y1="41.4883" y2="279.3516"/><rect fill="#E2E2F0" height="30.4883" rx="2.5" ry="2.5" style="stroke:#181818;stroke-width:0.5;" width="23.6592" x="53" y="10"/><text fill="#000000" font-family="sans-serif" font-size="14" lengthAdjust="spacing" textLength="9.6592" x="60" y="30.5352">A</text><rect fill="#E2E2F0" height="30.4883" rx="2.5" ry="2.5" style="stroke:#181818;stroke-width:0.5;" width="22.0527" x="172.6592" y="10"/><text fill="#000000" font-family="sans-serif" font-size="14" lengthAdjust="spacing" textLength="8.0527" x="179.6592" y="30.5352">B</text><rect fill="#E2E2F0" height="30.4883" rx="2.5" ry="2.5" style="stroke:#181818;stroke-width:0.5;" width="23.6865" x="260.7119" y="10"/><text fill="#000000" font-family="sans-serif" font-size="14" lengthAdjust="spacing" textLength="9.6865" x="267.7119" y="30.5352">C</text><rect fill="#E2E2F0" height="30.4883" rx="2.5" ry="2.5" style="stroke:#181818;stroke-width:0.5;" width="23.6592" x="53" y="279.3516"/><text fill="#000000" font-family="sans-serif" font-size="14" lengthAdjust="spacing" textLength="9.6592" x="60" y="299.8867">A</text><rect fill="#E2E2F0" height="30.4883" rx="2.5" ry="2.5" style="stroke:#181818;stroke-width:0.5;" width="22.0527" x="172.6592" y="279.3516"/><text fill="#000000" font-family="sans-serif" font-size="14" lengthAdjust="spacing" textLength="8.0527" x="179.6592" y="299.8867">B</text><rect fill="#E2E2F0" height="30.4883" rx="2.5" ry="2.5" style="stroke:#181818;stroke-width:0.5;" width="23.6865" x="260.7119" y="279.3516"/><text fill="#000000" font-family="sans-serif" font-size="14" lengthAdjust="spacing" textLength="9.6865" x="267.7119" y="299.8867">C</text><rect fill="#EEEEEE" height="3" style="stroke:#EEEEEE;stroke-width:1.0;" width="307.3984" x="5" y="70.1436"/><line style="stroke:#000000;stroke-width:1.0;" x1="5" x2="312.3984" y1="70.1436" y2="70.1436"/><line style="stroke:#000000;stroke-width:1.0;" x1="5" x2="312.3984" y1="73.1436" y2="73.1436"/><rect fill="#EEEEEE" height="23.3105" style="stroke:#000000;stroke-width:2.0;" width="128.1118" x="94.6433" y="59.4883"/><text fill="#000000" font-family="sans-serif" font-size="13" font-weight="bold" lengthAdjust="spacing" textLength="109.8271" x="100.6433" y="76.0566">left edge arrows</text><polygon fill="#181818" points="171.6855,110.1094,181.6855,114.1094,171.6855,118.1094,175.6855,114.1094" style="stroke:#181818;stroke-width:1.0;"/><line style="stroke:#181818;stroke-width:1.0;" x1="5" x2="177.6855" y1="114.1094" y2="114.1094"/><text fill="#000000" font-family="sans-serif" font-size="13" lengthAdjust="spacing" textLength="19.7476" x="146.938" y="109.3672">Pre</text><polygon fill="#181818" points="194.6855,110.1094,184.6855,114.1094,194.6855,118.1094,190.6855,114.1094" style="stroke:#181818;stroke-width:1.0;"/><ellipse cx="272.0552" cy="113.3594" fill="none" rx="4" ry="4" style="stroke:#181818;stroke-width:1.5;"/><line style="stroke:#181818;stroke-width:1.0;" x1="188.6855" x2="267.5552" y1="114.1094" y2="114.1094"/><rect fill="#EEEEEE" height="3" style="stroke:#EEEEEE;stroke-width:1.0;" width="307.3984" x="5" y="142.7646"/><line style="stroke:#000000;stroke-width:1.0;" x1="5" x2="312.3984" y1="142.7646" y2="142.7646"/><line style="stroke:#000000;stroke-width:1.0;" x1="5" x2="312.3984" y1="145.7646" y2="145.7646"/><rect fill="#EEEEEE" height="23.3105" style="stroke:#000000;stroke-width:2.0;" width="138.1284" x="89.635" y="132.1094"/><text fill="#000000" font-family="sans-serif" font-size="13" font-weight="bold" lengthAdjust="spacing" textLength="119.8438" x="95.635" y="148.6777">right edge arrows</text><path d="M48.8296,169.4199 L116.0146,169.4199 L116.0146,176.7305 L106.0146,186.7305 L48.8296,186.7305 L48.8296,169.4199 " fill="none" style="stroke:#000000;stroke-width:1.5;"/><rect fill="none" height="56.6211" style="stroke:#000000;stroke-width:1.5;" width="201.3765" x="48.8296" y="169.4199"/><text fill="#000000" font-family="sans-serif" font-size="13" font-weight="bold" lengthAdjust="spacing" textLength="22.1851" x="63.8296" y="182.9883">opt</text><text fill="#000000" font-family="sans-serif" font-size="11" font-weight="bold" lengthAdjust="spacing" textLength="25.0186" x="131.0146" y="182.0547">[OK]</text><ellipse cx="64.3296" cy="217.291" fill="none" rx="4" ry="4" style="stroke:#181818;stroke-width:1.5;"/><polygon fill="#181818" points="171.6855,214.041,181.6855,218.041,171.6855,222.041,175.6855,218.041" style="stroke:#181818;stroke-width:1.0;"/><line style="stroke:#181818;stroke-width:1.0;" x1="68.8296" x2="177.6855" y1="218.041" y2="218.041"/><polygon fill="#181818" points="194.6855,214.041,184.6855,218.041,194.6855,222.041,190.6855,218.041" style="stroke:#181818;stroke-width:1.0;"/><ellipse cx="305.8984" cy="217.291" fill="none" rx="4" ry="4" style="stroke:#181818;stroke-width:1.5;"/><line style="stroke:#181818;stroke-width:1.0;" x1="188.6855" x2="301.3984" y1="218.041" y2="218.041"/><text fill="#000000" font-family="sans-serif" font-size="13" lengthAdjust="spacing" textLength="26.5205" x="200.6855" y="213.2988">yolo</text><ellipse cx="64.3296" cy="260.6016" fill="none" rx="4" ry="4" style="stroke:#181818;stroke-width:1.5;"/><polygon fill="#181818" points="171.6855,257.3516,181.6855,261.3516,171.6855,265.3516,175.6855,261.3516" style="stroke:#181818;stroke-width:1.0;"/><line style="stroke:#181818;stroke-width:1.0;" x1="68.8296" x2="177.6855" y1="261.3516" y2="261.3516"/><polygon fill="#181818" points="194.6855,257.3516,184.6855,261.3516,194.6855,265.3516,190.6855,261.3516" style="stroke:#181818;stroke-width:1.0;"/><ellipse cx="305.8984" cy="260.6016" fill="none" rx="4" ry="4" style="stroke:#181818;stroke-width:1.5;"/><line style="stroke:#181818;stroke-width:1.0;" x1="188.6855" x2="301.3984" y1="261.3516" y2="261.3516"/><text fill="#000000" font-family="sans-serif" font-size="13" lengthAdjust="spacing" textLength="26.5205" x="200.6855" y="256.6094">yolo</text><!--SRC=[TOwn3e9038RtFaMDYKmawcICc82ZW-p4eSg95-5wAMT4dzxJ126YM_F__RvsP8MAYj0fVg2JguBweeqbeGfJ4gUFsf9nAUMvDWNE5hq-uQRDvrE00pTWEmHZK2R7xpGPx6q-Ur64fJevL7cXa4JuLcCKGS3MZPsGgJscFB7RGf1nkCO4bvYAWc3YnrN8tXLu6MIzhgkyNdHn7lX_w15ZV1zeyRsttRdarw__soS0]--></g></svg>