<svg xmlns="http://www.w3.org/2000/svg" xmlns:xlink="http://www.w3.org/1999/xlink" contentStyleType="text/css" height="421px" preserveAspectRatio="none" style="width:338px;height:421px;background:#FFFFFF;" version="1.1" viewBox="0 0 338 421" width="338px" zoomAndPan="magnify"><defs/><g><line style="stroke:#181818;stroke-width:0.5;stroke-dasharray:5.0,5.0;" x1="106" x2="106" y1="36.4883" y2="384.9043"/><line style="stroke:#181818;stroke-width:0.5;stroke-dasharray:5.0,5.0;" x1="207" x2="207" y1="36.4883" y2="384.9043"/><rect fill="#FF0000" height="29.3105" style="stroke:#181818;stroke-width:1.0;" width="10" x="202" y="169.3857"/><rect fill="#FF0000" height="29.3105" style="stroke:#181818;stroke-width:1.0;" width="10" x="202" y="234.0068"/><rect fill="#FF0000" height="64.6211" style="stroke:#181818;stroke-width:1.0;" width="10" x="202" y="302.2832"/><rect fill="#E2E2F0" height="30.4883" rx="2.5" ry="2.5" style="stroke:#181818;stroke-width:0.5;" width="40" x="86" y="5"/><text fill="#000000" font-family="sans-serif" font-size="14" lengthAdjust="spacing" textLength="26" x="93" y="25.5352">Bob</text><rect fill="#E2E2F0" height="30.4883" rx="2.5" ry="2.5" style="stroke:#181818;stroke-width:0.5;" width="47" x="183.5" y="5"/><text fill="#000000" font-family="sans-serif" font-size="14" lengthAdjust="spacing" textLength="33" x="190.5" y="25.5352">Alice</text><rect fill="#E2E2F0" height="30.4883" rx="2.5" ry="2.5" style="stroke:#181818;stroke-width:0.5;" width="40" x="86" y="384.9043"/><text fill="#000000" font-family="sans-serif" font-size="14" lengthAdjust="spacing" textLength="26" x="93" y="405.4395">Bob</text><rect fill="#E2E2F0" height="30.4883" rx="2.5" ry="2.5" style="stroke:#181818;stroke-width:0.5;" width="47" x="183.5" y="384.9043"/><text fill="#000000" font-family="sans-serif" font-size="14" lengthAdjust="spacing" textLength="33" x="190.5" y="405.4395">Alice</text><path d="M212,53.1436 L212,78.1436 L276,78.1436 L276,63.1436 L266,53.1436 L212,53.1436 " fill="#FEFFDD" style="stroke:#181818;stroke-width:0.5;"/><path d="M266,53.1436 L266,63.1436 L276,63.1436 L266,53.1436 " fill="#FEFFDD" style="stroke:#181818;stroke-width:0.5;"/><text fill="#000000" font-family="sans-serif" font-size="13" lengthAdjust="spacing" textLength="43" x="218" y="70.7119">NOTE1</text><polygon fill="#181818" points="195,61.7988,205,65.7988,195,69.7988,199,65.7988" style="stroke:#181818;stroke-width:1.0;"/><line style="stroke:#181818;stroke-width:1.0;" x1="106" x2="201" y1="65.7988" y2="65.7988"/><text fill="#000000" font-family="sans-serif" font-size="13" lengthAdjust="spacing" textLength="41" x="113" y="61.0566">Hello1</text><polygon fill="#181818" points="195,100.7646,205,104.7646,195,108.7646,199,104.7646" style="stroke:#181818;stroke-width:1.0;"/><line style="stroke:#181818;stroke-width:1.0;" x1="106" x2="201" y1="104.7646" y2="104.7646"/><text fill="#000000" font-family="sans-serif" font-size="13" lengthAdjust="spacing" textLength="41" x="113" y="100.0225">Hello2</text><path d="M212,117.7646 L212,142.7646 L276,142.7646 L276,127.7646 L266,117.7646 L212,117.7646 " fill="#FEFFDD" style="stroke:#181818;stroke-width:0.5;"/><path d="M266,117.7646 L266,127.7646 L276,127.7646 L266,117.7646 " fill="#FEFFDD" style="stroke:#181818;stroke-width:0.5;"/><text fill="#000000" font-family="sans-serif" font-size="13" lengthAdjust="spacing" textLength="43" x="218" y="135.333">NOTE2</text><polygon fill="#181818" points="190,165.3857,200,169.3857,190,173.3857,194,169.3857" style="stroke:#181818;stroke-width:1.0;"/><line style="stroke:#181818;stroke-width:1.0;" x1="106" x2="196" y1="169.3857" y2="169.3857"/><text fill="#000000" font-family="sans-serif" font-size="13" lengthAdjust="spacing" textLength="39" x="113" y="164.6436">hello3</text><polygon fill="#181818" points="117,194.6963,107,198.6963,117,202.6963,113,198.6963" style="stroke:#181818;stroke-width:1.0;"/><line style="stroke:#181818;stroke-width:1.0;stroke-dasharray:2.0,2.0;" x1="111" x2="201" y1="198.6963" y2="198.6963"/><text fill="#000000" font-family="sans-serif" font-size="13" lengthAdjust="spacing" textLength="49" x="123" y="193.9541">Hello33</text><path d="M217,182.3857 L217,207.3857 L279,207.3857 L279,192.3857 L269,182.3857 L217,182.3857 " fill="#FEFFDD" style="stroke:#181818;stroke-width:0.5;"/><path d="M269,182.3857 L269,192.3857 L279,192.3857 L269,182.3857 " fill="#FEFFDD" style="stroke:#181818;stroke-width:0.5;"/><text fill="#000000" font-family="sans-serif" font-size="13" lengthAdjust="spacing" textLength="41" x="223" y="199.9541">Right3</text><path d="M48,182.3857 L48,207.3857 L101,207.3857 L101,192.3857 L91,182.3857 L48,182.3857 " fill="#FEFFDD" style="stroke:#181818;stroke-width:0.5;"/><path d="M91,182.3857 L91,192.3857 L101,192.3857 L91,182.3857 " fill="#FEFFDD" style="stroke:#181818;stroke-width:0.5;"/><text fill="#000000" font-family="sans-serif" font-size="13" lengthAdjust="spacing" textLength="32" x="54" y="199.9541">Left3</text><polygon fill="#181818" points="190,230.0068,200,234.0068,190,238.0068,194,234.0068" style="stroke:#181818;stroke-width:1.0;"/><line style="stroke:#181818;stroke-width:1.0;" x1="106" x2="196" y1="234.0068" y2="234.0068"/><text fill="#000000" font-family="sans-serif" font-size="13" lengthAdjust="spacing" textLength="39" x="113" y="229.2646">hello4</text><path d="M217,250.6621 L217,275.6621 L331,275.6621 L331,260.6621 L321,250.6621 L217,250.6621 " fill="#FEFFDD" style="stroke:#181818;stroke-width:0.5;"/><path d="M321,250.6621 L321,260.6621 L331,260.6621 L321,250.6621 " fill="#FEFFDD" style="stroke:#181818;stroke-width:0.5;"/><text fill="#000000" font-family="sans-serif" font-size="13" lengthAdjust="spacing" textLength="93" x="223" y="268.2305">Right4 of Alice</text><polygon fill="#181818" points="117,259.3174,107,263.3174,117,267.3174,113,263.3174" style="stroke:#181818;stroke-width:1.0;"/><line style="stroke:#181818;stroke-width:1.0;stroke-dasharray:2.0,2.0;" x1="111" x2="201" y1="263.3174" y2="263.3174"/><text fill="#000000" font-family="sans-serif" font-size="13" lengthAdjust="spacing" textLength="72" x="123" y="258.5752">Hello44 Par</text><path d="M10,250.6621 L10,275.6621 L101,275.6621 L101,260.6621 L91,250.6621 L10,250.6621 " fill="#FEFFDD" style="stroke:#181818;stroke-width:0.5;"/><path d="M91,250.6621 L91,260.6621 L101,260.6621 L91,250.6621 " fill="#FEFFDD" style="stroke:#181818;stroke-width:0.5;"/><text fill="#000000" font-family="sans-serif" font-size="13" lengthAdjust="spacing" textLength="70" x="16" y="268.2305">LeftBob Par</text><polygon fill="#181818" points="190,298.2832,200,302.2832,190,306.2832,194,302.2832" style="stroke:#181818;stroke-width:1.0;"/><line style="stroke:#181818;stroke-width:1.0;" x1="106" x2="196" y1="302.2832" y2="302.2832"/><text fill="#000000" font-family="sans-serif" font-size="13" lengthAdjust="spacing" textLength="39" x="113" y="297.541">hello5</text><path d="M217,315.2832 L217,340.2832 L279,340.2832 L279,325.2832 L269,315.2832 L217,315.2832 " fill="#FEFFDD" style="stroke:#181818;stroke-width:0.5;"/><path d="M269,315.2832 L269,325.2832 L279,325.2832 L269,315.2832 " fill="#FEFFDD" style="stroke:#181818;stroke-width:0.5;"/><text fill="#000000" font-family="sans-serif" font-size="13" lengthAdjust="spacing" textLength="41" x="223" y="332.8516">Right5</text><polygon fill="#181818" points="117,362.9043,107,366.9043,117,370.9043,113,366.9043" style="stroke:#181818;stroke-width:1.0;"/><line style="stroke:#181818;stroke-width:1.0;stroke-dasharray:2.0,2.0;" x1="111" x2="201" y1="366.9043" y2="366.9043"/><text fill="#000000" font-family="sans-serif" font-size="13" lengthAdjust="spacing" textLength="49" x="123" y="362.1621">Hello55</text><!--SRC=[VOzB2i8m48RtSueHmIwAY7riiX0K11UY8hr0jDCsM9ioZGYUtiIAMAdT9EIRpFyOrIppgqH3-e66RmIrPAFEgfQLmPK-TTxBKfq9eDA6a5LU6DHP2mNkzibw3XEtWzD5Ir7WXifIpm7wS00p_AiLmC-Ix-EOAHLOkDqGcCoDgrOf3Bz22JowwurAoYpPsZEqYbvIg0PJJKtb6RnhleWXbmZw0xuCeW-mjR_JH14U95lu2U1-MfisX_Dpyy5-CVmtZZlTunYU]--></g></svg>