<svg xmlns="http://www.w3.org/2000/svg" xmlns:xlink="http://www.w3.org/1999/xlink" contentStyleType="text/css" height="340px" preserveAspectRatio="none" style="width:388px;height:340px;background:#FFFFFF;" version="1.1" viewBox="0 0 388 340" width="388px" zoomAndPan="magnify"><defs/><g><rect fill="#DDDDDD" height="328.8398" style="stroke:#181818;stroke-width:0.5;" width="68" x="31" y="6"/><rect fill="#FFC0CB" height="56.6211" style="stroke:#FFC0CB;stroke-width:1.0;" width="202" x="49" y="67.4883"/><rect fill="#FFC0CB" height="56.6211" style="stroke:#FFC0CB;stroke-width:1.0;" width="327" x="49" y="142.1094"/><rect fill="#FFC0CB" height="56.6211" style="stroke:#FFC0CB;stroke-width:1.0;" width="126" x="125" y="216.7305"/><line style="stroke:#181818;stroke-width:0.5;stroke-dasharray:5.0,5.0;" x1="65" x2="65" y1="41.4883" y2="297.3516"/><line style="stroke:#181818;stroke-width:0.5;stroke-dasharray:5.0,5.0;" x1="184" x2="184" y1="41.4883" y2="297.3516"/><line style="stroke:#181818;stroke-width:0.5;stroke-dasharray:5.0,5.0;" x1="253" x2="253" y1="41.4883" y2="297.3516"/><rect fill="#E2E2F0" height="30.4883" rx="2.5" ry="2.5" style="stroke:#181818;stroke-width:0.5;" width="24" x="53" y="10"/><text fill="#000000" font-family="sans-serif" font-size="14" lengthAdjust="spacing" textLength="10" x="60" y="30.5352">A</text><rect fill="#E2E2F0" height="30.4883" rx="2.5" ry="2.5" style="stroke:#181818;stroke-width:0.5;" width="22" x="173" y="10"/><text fill="#000000" font-family="sans-serif" font-size="14" lengthAdjust="spacing" textLength="8" x="180" y="30.5352">B</text><rect fill="#E2E2F0" height="30.4883" rx="2.5" ry="2.5" style="stroke:#181818;stroke-width:0.5;" width="24" x="241" y="10"/><text fill="#000000" font-family="sans-serif" font-size="14" lengthAdjust="spacing" textLength="10" x="248" y="30.5352">C</text><rect fill="#E2E2F0" height="30.4883" rx="2.5" ry="2.5" style="stroke:#181818;stroke-width:0.5;" width="24" x="53" y="297.3516"/><text fill="#000000" font-family="sans-serif" font-size="14" lengthAdjust="spacing" textLength="10" x="60" y="317.8867">A</text><rect fill="#E2E2F0" height="30.4883" rx="2.5" ry="2.5" style="stroke:#181818;stroke-width:0.5;" width="22" x="173" y="297.3516"/><text fill="#000000" font-family="sans-serif" font-size="14" lengthAdjust="spacing" textLength="8" x="180" y="317.8867">B</text><rect fill="#E2E2F0" height="30.4883" rx="2.5" ry="2.5" style="stroke:#181818;stroke-width:0.5;" width="24" x="241" y="297.3516"/><text fill="#000000" font-family="sans-serif" font-size="14" lengthAdjust="spacing" textLength="10" x="248" y="317.8867">C</text><polygon fill="#181818" points="172,51.4883,182,55.4883,172,59.4883,176,55.4883" style="stroke:#181818;stroke-width:1.0;"/><line style="stroke:#181818;stroke-width:1.0;" x1="65" x2="178" y1="55.4883" y2="55.4883"/><polygon fill="#181818" points="241,51.4883,251,55.4883,241,59.4883,245,55.4883" style="stroke:#181818;stroke-width:1.0;"/><line style="stroke:#181818;stroke-width:1.0;" x1="184" x2="247" y1="55.4883" y2="55.4883"/><path d="M49,67.4883 L116,67.4883 L116,74.7988 L106,84.7988 L49,84.7988 L49,67.4883 " fill="none" style="stroke:#000000;stroke-width:1.5;"/><rect fill="none" height="56.6211" style="stroke:#000000;stroke-width:1.5;" width="202" x="49" y="67.4883"/><text fill="#000000" font-family="sans-serif" font-size="13" font-weight="bold" lengthAdjust="spacing" textLength="22" x="64" y="81.0566">opt</text><text fill="#000000" font-family="sans-serif" font-size="11" font-weight="bold" lengthAdjust="spacing" textLength="33" x="131" y="80.123">[bad?]</text><ellipse cx="64.5" cy="115.3594" fill="none" rx="4" ry="4" style="stroke:#181818;stroke-width:1.5;"/><polygon fill="#181818" points="172,112.1094,182,116.1094,172,120.1094,176,116.1094" style="stroke:#181818;stroke-width:1.0;"/><line style="stroke:#181818;stroke-width:1.0;" x1="69" x2="178" y1="116.1094" y2="116.1094"/><polygon fill="#181818" points="195,112.1094,185,116.1094,195,120.1094,191,116.1094" style="stroke:#181818;stroke-width:1.0;"/><ellipse cx="378.5" cy="115.3594" fill="none" rx="4" ry="4" style="stroke:#181818;stroke-width:1.5;"/><line style="stroke:#181818;stroke-width:1.0;" x1="189" x2="374" y1="116.1094" y2="116.1094"/><text fill="#000000" font-family="sans-serif" font-size="13" lengthAdjust="spacing" textLength="27" x="201" y="111.3672">yolo</text><path d="M49,142.1094 L116,142.1094 L116,149.4199 L106,159.4199 L49,159.4199 L49,142.1094 " fill="none" style="stroke:#000000;stroke-width:1.5;"/><rect fill="none" height="56.6211" style="stroke:#000000;stroke-width:1.5;" width="327" x="49" y="142.1094"/><text fill="#000000" font-family="sans-serif" font-size="13" font-weight="bold" lengthAdjust="spacing" textLength="22" x="64" y="155.6777">opt</text><text fill="#000000" font-family="sans-serif" font-size="11" font-weight="bold" lengthAdjust="spacing" textLength="33" x="131" y="154.7441">[bad?]</text><ellipse cx="64.5" cy="189.9805" fill="none" rx="4" ry="4" style="stroke:#181818;stroke-width:1.5;"/><polygon fill="#181818" points="172,186.7305,182,190.7305,172,194.7305,176,190.7305" style="stroke:#181818;stroke-width:1.0;"/><line style="stroke:#181818;stroke-width:1.0;" x1="69" x2="178" y1="190.7305" y2="190.7305"/><polygon fill="#181818" points="195,186.7305,185,190.7305,195,194.7305,191,190.7305" style="stroke:#181818;stroke-width:1.0;"/><ellipse cx="378.5" cy="189.9805" fill="none" rx="4" ry="4" style="stroke:#181818;stroke-width:1.5;"/><line style="stroke:#181818;stroke-width:1.0;" x1="189" x2="374" y1="190.7305" y2="190.7305"/><text fill="#000000" font-family="sans-serif" font-size="13" lengthAdjust="spacing" textLength="152" x="201" y="185.9883">yolo; testing longer text</text><path d="M125,216.7305 L192,216.7305 L192,224.041 L182,234.041 L125,234.041 L125,216.7305 " fill="none" style="stroke:#000000;stroke-width:1.5;"/><rect fill="none" height="56.6211" style="stroke:#000000;stroke-width:1.5;" width="126" x="125" y="216.7305"/><text fill="#000000" font-family="sans-serif" font-size="13" font-weight="bold" lengthAdjust="spacing" textLength="22" x="140" y="230.2988">opt</text><text fill="#000000" font-family="sans-serif" font-size="11" font-weight="bold" lengthAdjust="spacing" textLength="28" x="207" y="229.3652">[bad]</text><ellipse cx="146.5" cy="264.6016" fill="none" rx="4" ry="4" style="stroke:#181818;stroke-width:1.5;"/><polygon fill="#181818" points="172,261.3516,182,265.3516,172,269.3516,176,265.3516" style="stroke:#181818;stroke-width:1.0;"/><line style="stroke:#181818;stroke-width:1.0;" x1="151" x2="178" y1="265.3516" y2="265.3516"/><text fill="#000000" font-family="sans-serif" font-size="13" lengthAdjust="spacing" textLength="19" x="154" y="260.6094">Pre</text><polygon fill="#181818" points="195,261.3516,185,265.3516,195,269.3516,191,265.3516" style="stroke:#181818;stroke-width:1.0;"/><ellipse cx="228.5" cy="264.6016" fill="none" rx="4" ry="4" style="stroke:#181818;stroke-width:1.5;"/><line style="stroke:#181818;stroke-width:1.0;" x1="189" x2="224" y1="265.3516" y2="265.3516"/><text fill="#000000" font-family="sans-serif" font-size="13" lengthAdjust="spacing" textLength="27" x="201" y="260.6094">yolo</text><!--SRC=[hP1DRi9038NtSufN8P5LHCiAjLKZmWMohrYOZfME2FPeCaYXfwyd4j0rwiu_x_cp_HGJzIT2Plr1JcTsup58f4GdT9Ho-0gH97VaVP0UBvi__LQdQttzx0uwkNXtOEjOF4eLsAB-GEkMQ4kmSnhp8YUIqGnisaKCSiI1V3EBzQP-htMFLrnqK5SjiKFz-HsyPzdR6Amgi0oKUePDB2nKgu9z2F1cJnXpkMPGwJbPEkN_ePedoFnZKpOptQ1TukiEpGD7_W80]--></g></svg>