<svg xmlns="http://www.w3.org/2000/svg" xmlns:xlink="http://www.w3.org/1999/xlink" contentStyleType="text/css" height="237px" preserveAspectRatio="none" style="width:219px;height:237px;background:#FFFFFF;" version="1.1" viewBox="0 0 219 237" width="219px" zoomAndPan="magnify"><defs/><g><rect fill="#FFFFAA" height="55.3105" style="stroke:#FFFFAA;stroke-width:1.0;" width="141" x="39" y="48.4883"/><rect fill="#FFFFAA" height="55.3105" style="stroke:#FFFFAA;stroke-width:1.0;" width="146" x="39" y="121.7988"/><line style="stroke:#181818;stroke-width:0.5;stroke-dasharray:5.0,5.0;" x1="55" x2="55" y1="36.4883" y2="201.1094"/><line style="stroke:#181818;stroke-width:0.5;stroke-dasharray:5.0,5.0;" x1="164" x2="164" y1="36.4883" y2="201.1094"/><rect fill="#FFFFFF" height="14" style="stroke:#181818;stroke-width:1.0;" width="10" x="159" y="155.1094"/><rect fill="#E2E2F0" height="30.4883" rx="2.5" ry="2.5" style="stroke:#181818;stroke-width:0.5;" width="100" x="5" y="5"/><text fill="#000000" font-family="sans-serif" font-size="14" lengthAdjust="spacing" textLength="86" x="12" y="25.5352">Particpant_A</text><rect fill="#E2E2F0" height="30.4883" rx="2.5" ry="2.5" style="stroke:#181818;stroke-width:0.5;" width="98" x="115" y="5"/><text fill="#000000" font-family="sans-serif" font-size="14" lengthAdjust="spacing" textLength="84" x="122" y="25.5352">Particpant_B</text><rect fill="#E2E2F0" height="30.4883" rx="2.5" ry="2.5" style="stroke:#181818;stroke-width:0.5;" width="100" x="5" y="201.1094"/><text fill="#000000" font-family="sans-serif" font-size="14" lengthAdjust="spacing" textLength="86" x="12" y="221.6445">Particpant_A</text><rect fill="#E2E2F0" height="30.4883" rx="2.5" ry="2.5" style="stroke:#181818;stroke-width:0.5;" width="98" x="115" y="201.1094"/><text fill="#000000" font-family="sans-serif" font-size="14" lengthAdjust="spacing" textLength="84" x="122" y="221.6445">Particpant_B</text><path d="M39,48.4883 L139,48.4883 L139,55.7988 L129,65.7988 L39,65.7988 L39,48.4883 " fill="#EEEEEE" style="stroke:#000000;stroke-width:1.5;"/><rect fill="none" height="55.3105" style="stroke:#000000;stroke-width:1.5;" width="141" x="39" y="48.4883"/><text fill="#000000" font-family="sans-serif" font-size="13" font-weight="bold" lengthAdjust="spacing" textLength="55" x="54" y="62.0566">Group 1</text><polygon fill="#181818" points="152,77.7988,162,81.7988,152,85.7988,156,81.7988" style="stroke:#181818;stroke-width:1.0;"/><line style="stroke:#181818;stroke-width:1.0;" x1="55" x2="158" y1="81.7988" y2="81.7988"/><polygon fill="#181818" points="66,91.7988,56,95.7988,66,99.7988,62,95.7988" style="stroke:#181818;stroke-width:1.0;"/><line style="stroke:#181818;stroke-width:1.0;" x1="60" x2="163" y1="95.7988" y2="95.7988"/><path d="M39,121.7988 L139,121.7988 L139,129.1094 L129,139.1094 L39,139.1094 L39,121.7988 " fill="#EEEEEE" style="stroke:#000000;stroke-width:1.5;"/><rect fill="none" height="55.3105" style="stroke:#000000;stroke-width:1.5;" width="146" x="39" y="121.7988"/><text fill="#000000" font-family="sans-serif" font-size="13" font-weight="bold" lengthAdjust="spacing" textLength="55" x="54" y="135.3672">Group 2</text><polygon fill="#181818" points="147,151.1094,157,155.1094,147,159.1094,151,155.1094" style="stroke:#181818;stroke-width:1.0;"/><line style="stroke:#181818;stroke-width:1.0;" x1="55" x2="153" y1="155.1094" y2="155.1094"/><polygon fill="#181818" points="66,165.1094,56,169.1094,66,173.1094,62,169.1094" style="stroke:#181818;stroke-width:1.0;"/><line style="stroke:#181818;stroke-width:1.0;" x1="60" x2="158" y1="169.1094" y2="169.1094"/><!--SRC=[KomeIapFJLGeISslKYWfAatbuaeloYyjK51EIqjKS0Sp3RaKW20WiQWaCxaWCQyatb51rmwPxuIfm4ONLK5gNWeMauq8cgojJT1iNLsGwG00]--></g></svg>