<svg xmlns="http://www.w3.org/2000/svg" xmlns:xlink="http://www.w3.org/1999/xlink" contentStyleType="text/css" height="698px" preserveAspectRatio="none" style="width:216px;height:698px;background:#FFFFFF;" version="1.1" viewBox="0 0 216 698" width="216px" zoomAndPan="magnify"><defs/><g><rect fill="#FFFFAA" height="55.3105" style="stroke:#FFFFAA;stroke-width:1.0;" width="144.9761" x="33.3896" y="48.4883"/><rect fill="#FFFFAA" height="55.3105" style="stroke:#FFFFAA;stroke-width:1.0;" width="144.9761" x="38.3896" y="121.7988"/><rect fill="#FFFFAA" height="55.3105" style="stroke:#FFFFAA;stroke-width:1.0;" width="149.9761" x="33.3896" y="195.1094"/><rect fill="#FFFFAA" height="139.3105" style="stroke:#FFFFAA;stroke-width:1.0;" width="164.9761" x="33.3896" y="268.4199"/><rect fill="#FFFFAA" height="139.3105" style="stroke:#FFFFAA;stroke-width:1.0;" width="149.9761" x="33.3896" y="425.7305"/><rect fill="#FFFFAA" height="55.3105" style="stroke:#FFFFAA;stroke-width:1.0;" width="139.9761" x="38.3896" y="583.041"/><line style="stroke:#181818;stroke-width:0.5;stroke-dasharray:5.0,5.0;" x1="54.3896" x2="54.3896" y1="36.4883" y2="662.3516"/><rect fill="#FFFFFF" height="14" style="stroke:#181818;stroke-width:1.0;" width="10" x="49.3896" y="81.7988"/><rect fill="#FFFFFF" height="14" style="stroke:#181818;stroke-width:1.0;" width="10" x="49.3896" y="228.4199"/><rect fill="#FFFFFF" height="98" style="stroke:#181818;stroke-width:1.0;" width="10" x="49.3896" y="301.7305"/><rect fill="#FFFFFF" height="98" style="stroke:#181818;stroke-width:1.0;" width="10" x="49.3896" y="459.041"/><rect fill="#FFFFFF" height="70" style="stroke:#181818;stroke-width:1.0;" width="10" x="54.3896" y="473.041"/><rect fill="#FFFFFF" height="42" style="stroke:#181818;stroke-width:1.0;" width="10" x="59.3896" y="487.041"/><rect fill="#FFFFFF" height="14" style="stroke:#181818;stroke-width:1.0;" width="10" x="64.3896" y="501.041"/><line style="stroke:#181818;stroke-width:0.5;stroke-dasharray:5.0,5.0;" x1="162.3657" x2="162.3657" y1="36.4883" y2="662.3516"/><rect fill="#FFFFFF" height="14" style="stroke:#181818;stroke-width:1.0;" width="10" x="157.3657" y="155.1094"/><rect fill="#FFFFFF" height="14" style="stroke:#181818;stroke-width:1.0;" width="10" x="157.3657" y="228.4199"/><rect fill="#FFFFFF" height="98" style="stroke:#181818;stroke-width:1.0;" width="10" x="157.3657" y="301.7305"/><rect fill="#FFFFFF" height="98" style="stroke:#181818;stroke-width:1.0;" width="10" x="157.3657" y="459.041"/><rect fill="#FFFFFF" height="70" style="stroke:#181818;stroke-width:1.0;" width="10" x="162.3657" y="315.7305"/><rect fill="#FFFFFF" height="42" style="stroke:#181818;stroke-width:1.0;" width="10" x="167.3657" y="329.7305"/><rect fill="#FFFFFF" height="14" style="stroke:#181818;stroke-width:1.0;" width="10" x="172.3657" y="343.7305"/><rect fill="#E2E2F0" height="30.4883" rx="2.5" ry="2.5" style="stroke:#181818;stroke-width:0.5;" width="98.7793" x="5" y="5"/><text fill="#000000" font-family="sans-serif" font-size="14" lengthAdjust="spacing" textLength="84.7793" x="12" y="25.5352">Particpant_A</text><rect fill="#E2E2F0" height="30.4883" rx="2.5" ry="2.5" style="stroke:#181818;stroke-width:0.5;" width="97.1729" x="113.7793" y="5"/><text fill="#000000" font-family="sans-serif" font-size="14" lengthAdjust="spacing" textLength="83.1729" x="120.7793" y="25.5352">Particpant_B</text><rect fill="#E2E2F0" height="30.4883" rx="2.5" ry="2.5" style="stroke:#181818;stroke-width:0.5;" width="98.7793" x="5" y="662.3516"/><text fill="#000000" font-family="sans-serif" font-size="14" lengthAdjust="spacing" textLength="84.7793" x="12" y="682.8867">Particpant_A</text><rect fill="#E2E2F0" height="30.4883" rx="2.5" ry="2.5" style="stroke:#181818;stroke-width:0.5;" width="97.1729" x="113.7793" y="662.3516"/><text fill="#000000" font-family="sans-serif" font-size="14" lengthAdjust="spacing" textLength="83.1729" x="120.7793" y="682.8867">Particpant_B</text><path d="M33.3896,48.4883 L132.3066,48.4883 L132.3066,55.7988 L122.3066,65.7988 L33.3896,65.7988 L33.3896,48.4883 " fill="#EEEEEE" style="stroke:#000000;stroke-width:1.5;"/><rect fill="none" height="55.3105" style="stroke:#000000;stroke-width:1.5;" width="144.9761" x="33.3896" y="48.4883"/><text fill="#000000" font-family="sans-serif" font-size="13" font-weight="bold" lengthAdjust="spacing" textLength="53.917" x="48.3896" y="62.0566">Group 1</text><polygon fill="#181818" points="150.3657,77.7988,160.3657,81.7988,150.3657,85.7988,154.3657,81.7988" style="stroke:#181818;stroke-width:1.0;"/><line style="stroke:#181818;stroke-width:1.0;" x1="59.3896" x2="156.3657" y1="81.7988" y2="81.7988"/><polygon fill="#181818" points="70.3896,91.7988,60.3896,95.7988,70.3896,99.7988,66.3896,95.7988" style="stroke:#181818;stroke-width:1.0;"/><line style="stroke:#181818;stroke-width:1.0;" x1="64.3896" x2="161.3657" y1="95.7988" y2="95.7988"/><path d="M38.3896,121.7988 L137.3066,121.7988 L137.3066,129.1094 L127.3066,139.1094 L38.3896,139.1094 L38.3896,121.7988 " fill="#EEEEEE" style="stroke:#000000;stroke-width:1.5;"/><rect fill="none" height="55.3105" style="stroke:#000000;stroke-width:1.5;" width="144.9761" x="38.3896" y="121.7988"/><text fill="#000000" font-family="sans-serif" font-size="13" font-weight="bold" lengthAdjust="spacing" textLength="53.917" x="53.3896" y="135.3672">Group 2</text><polygon fill="#181818" points="145.3657,151.1094,155.3657,155.1094,145.3657,159.1094,149.3657,155.1094" style="stroke:#181818;stroke-width:1.0;"/><line style="stroke:#181818;stroke-width:1.0;" x1="54.3896" x2="151.3657" y1="155.1094" y2="155.1094"/><polygon fill="#181818" points="65.3896,165.1094,55.3896,169.1094,65.3896,173.1094,61.3896,169.1094" style="stroke:#181818;stroke-width:1.0;"/><line style="stroke:#181818;stroke-width:1.0;" x1="59.3896" x2="156.3657" y1="169.1094" y2="169.1094"/><path d="M33.3896,195.1094 L132.3066,195.1094 L132.3066,202.4199 L122.3066,212.4199 L33.3896,212.4199 L33.3896,195.1094 " fill="#EEEEEE" style="stroke:#000000;stroke-width:1.5;"/><rect fill="none" height="55.3105" style="stroke:#000000;stroke-width:1.5;" width="149.9761" x="33.3896" y="195.1094"/><text fill="#000000" font-family="sans-serif" font-size="13" font-weight="bold" lengthAdjust="spacing" textLength="53.917" x="48.3896" y="208.6777">Group 3</text><polygon fill="#181818" points="145.3657,224.4199,155.3657,228.4199,145.3657,232.4199,149.3657,228.4199" style="stroke:#181818;stroke-width:1.0;"/><line style="stroke:#181818;stroke-width:1.0;" x1="59.3896" x2="151.3657" y1="228.4199" y2="228.4199"/><polygon fill="#181818" points="70.3896,238.4199,60.3896,242.4199,70.3896,246.4199,66.3896,242.4199" style="stroke:#181818;stroke-width:1.0;"/><line style="stroke:#181818;stroke-width:1.0;" x1="64.3896" x2="156.3657" y1="242.4199" y2="242.4199"/><path d="M33.3896,268.4199 L140.9204,268.4199 L140.9204,275.7305 L130.9204,285.7305 L33.3896,285.7305 L33.3896,268.4199 " fill="#EEEEEE" style="stroke:#000000;stroke-width:1.5;"/><rect fill="none" height="139.3105" style="stroke:#000000;stroke-width:1.5;" width="164.9761" x="33.3896" y="268.4199"/><text fill="#000000" font-family="sans-serif" font-size="13" font-weight="bold" lengthAdjust="spacing" textLength="62.5308" x="48.3896" y="281.9883">Group 3b</text><polygon fill="#181818" points="145.3657,297.7305,155.3657,301.7305,145.3657,305.7305,149.3657,301.7305" style="stroke:#181818;stroke-width:1.0;"/><line style="stroke:#181818;stroke-width:1.0;" x1="59.3896" x2="151.3657" y1="301.7305" y2="301.7305"/><polygon fill="#181818" points="150.3657,311.7305,160.3657,315.7305,150.3657,319.7305,154.3657,315.7305" style="stroke:#181818;stroke-width:1.0;"/><line style="stroke:#181818;stroke-width:1.0;" x1="59.3896" x2="156.3657" y1="315.7305" y2="315.7305"/><polygon fill="#181818" points="155.3657,325.7305,165.3657,329.7305,155.3657,333.7305,159.3657,329.7305" style="stroke:#181818;stroke-width:1.0;"/><line style="stroke:#181818;stroke-width:1.0;" x1="59.3896" x2="161.3657" y1="329.7305" y2="329.7305"/><polygon fill="#181818" points="160.3657,339.7305,170.3657,343.7305,160.3657,347.7305,164.3657,343.7305" style="stroke:#181818;stroke-width:1.0;"/><line style="stroke:#181818;stroke-width:1.0;" x1="59.3896" x2="166.3657" y1="343.7305" y2="343.7305"/><polygon fill="#181818" points="70.3896,353.7305,60.3896,357.7305,70.3896,361.7305,66.3896,357.7305" style="stroke:#181818;stroke-width:1.0;"/><line style="stroke:#181818;stroke-width:1.0;" x1="64.3896" x2="171.3657" y1="357.7305" y2="357.7305"/><polygon fill="#181818" points="70.3896,367.7305,60.3896,371.7305,70.3896,375.7305,66.3896,371.7305" style="stroke:#181818;stroke-width:1.0;"/><line style="stroke:#181818;stroke-width:1.0;" x1="64.3896" x2="166.3657" y1="371.7305" y2="371.7305"/><polygon fill="#181818" points="70.3896,381.7305,60.3896,385.7305,70.3896,389.7305,66.3896,385.7305" style="stroke:#181818;stroke-width:1.0;"/><line style="stroke:#181818;stroke-width:1.0;" x1="64.3896" x2="161.3657" y1="385.7305" y2="385.7305"/><polygon fill="#181818" points="70.3896,395.7305,60.3896,399.7305,70.3896,403.7305,66.3896,399.7305" style="stroke:#181818;stroke-width:1.0;"/><line style="stroke:#181818;stroke-width:1.0;" x1="64.3896" x2="156.3657" y1="399.7305" y2="399.7305"/><path d="M33.3896,425.7305 L139.2256,425.7305 L139.2256,433.041 L129.2256,443.041 L33.3896,443.041 L33.3896,425.7305 " fill="#EEEEEE" style="stroke:#000000;stroke-width:1.5;"/><rect fill="none" height="139.3105" style="stroke:#000000;stroke-width:1.5;" width="149.9761" x="33.3896" y="425.7305"/><text fill="#000000" font-family="sans-serif" font-size="13" font-weight="bold" lengthAdjust="spacing" textLength="60.8359" x="48.3896" y="439.2988">Group 3c</text><polygon fill="#181818" points="145.3657,455.041,155.3657,459.041,145.3657,463.041,149.3657,459.041" style="stroke:#181818;stroke-width:1.0;"/><line style="stroke:#181818;stroke-width:1.0;" x1="59.3896" x2="151.3657" y1="459.041" y2="459.041"/><polygon fill="#181818" points="75.3896,469.041,65.3896,473.041,75.3896,477.041,71.3896,473.041" style="stroke:#181818;stroke-width:1.0;"/><line style="stroke:#181818;stroke-width:1.0;" x1="69.3896" x2="156.3657" y1="473.041" y2="473.041"/><polygon fill="#181818" points="80.3896,483.041,70.3896,487.041,80.3896,491.041,76.3896,487.041" style="stroke:#181818;stroke-width:1.0;"/><line style="stroke:#181818;stroke-width:1.0;" x1="74.3896" x2="156.3657" y1="487.041" y2="487.041"/><polygon fill="#181818" points="85.3896,497.041,75.3896,501.041,85.3896,505.041,81.3896,501.041" style="stroke:#181818;stroke-width:1.0;"/><line style="stroke:#181818;stroke-width:1.0;" x1="79.3896" x2="156.3657" y1="501.041" y2="501.041"/><polygon fill="#181818" points="145.3657,511.041,155.3657,515.041,145.3657,519.041,149.3657,515.041" style="stroke:#181818;stroke-width:1.0;"/><line style="stroke:#181818;stroke-width:1.0;" x1="74.3896" x2="151.3657" y1="515.041" y2="515.041"/><polygon fill="#181818" points="145.3657,525.041,155.3657,529.041,145.3657,533.041,149.3657,529.041" style="stroke:#181818;stroke-width:1.0;"/><line style="stroke:#181818;stroke-width:1.0;" x1="69.3896" x2="151.3657" y1="529.041" y2="529.041"/><polygon fill="#181818" points="145.3657,539.041,155.3657,543.041,145.3657,547.041,149.3657,543.041" style="stroke:#181818;stroke-width:1.0;"/><line style="stroke:#181818;stroke-width:1.0;" x1="64.3896" x2="151.3657" y1="543.041" y2="543.041"/><polygon fill="#181818" points="70.3896,553.041,60.3896,557.041,70.3896,561.041,66.3896,557.041" style="stroke:#181818;stroke-width:1.0;"/><line style="stroke:#181818;stroke-width:1.0;" x1="64.3896" x2="156.3657" y1="557.041" y2="557.041"/><path d="M38.3896,583.041 L137.3066,583.041 L137.3066,590.3516 L127.3066,600.3516 L38.3896,600.3516 L38.3896,583.041 " fill="#EEEEEE" style="stroke:#000000;stroke-width:1.5;"/><rect fill="none" height="55.3105" style="stroke:#000000;stroke-width:1.5;" width="139.9761" x="38.3896" y="583.041"/><text fill="#000000" font-family="sans-serif" font-size="13" font-weight="bold" lengthAdjust="spacing" textLength="53.917" x="53.3896" y="596.6094">Group 4</text><polygon fill="#181818" points="150.3657,612.3516,160.3657,616.3516,150.3657,620.3516,154.3657,616.3516" style="stroke:#181818;stroke-width:1.0;"/><line style="stroke:#181818;stroke-width:1.0;" x1="54.3896" x2="156.3657" y1="616.3516" y2="616.3516"/><polygon fill="#181818" points="65.3896,626.3516,55.3896,630.3516,65.3896,634.3516,61.3896,630.3516" style="stroke:#181818;stroke-width:1.0;"/><line style="stroke:#181818;stroke-width:1.0;" x1="59.3896" x2="161.3657" y1="630.3516" y2="630.3516"/><!--SRC=[KomeIapFJLGeISslKYWfAatbuaeloYyjK51EIqjKS0Sp3RaKW20WiQWaCxaWCQyatb51rmwPxmHMa9XSabcMM9AAeX9JguqkfjQKLEoQK_DIiBZ7YA1xjBK9sgkhYyDqOs9D9y-_G7j9zx5n4kME8j80P42YScfgmnvgP2WdGXcbqQME9RwCkDI920frt56cJZ3Z4BH0GL4HeWYNwzL1pbV7wdvZchkVWEkS8Ax3aXUIgPuNdD0CSCIV5uXHJaljg07fY3zlu5DEX39AymPc_9aGLvlWJVf0em40]--></g></svg>