<svg xmlns="http://www.w3.org/2000/svg" xmlns:xlink="http://www.w3.org/1999/xlink" contentStyleType="text/css" height="504px" preserveAspectRatio="none" style="width:193px;height:504px;background:#FFFFFF;" version="1.1" viewBox="0 0 193 504" width="193px" zoomAndPan="magnify"><defs/><g><line style="stroke:#181818;stroke-width:0.5;stroke-dasharray:5.0,5.0;" x1="55" x2="55" y1="36.4883" y2="467.9043"/><line style="stroke:#181818;stroke-width:0.5;stroke-dasharray:5.0,5.0;" x1="176.3032" x2="176.3032" y1="36.4883" y2="467.9043"/><rect fill="#E2E2F0" height="30.4883" rx="2.5" ry="2.5" style="stroke:#181818;stroke-width:0.5;" width="43.0254" x="33.4873" y="5"/><text fill="#000000" font-family="sans-serif" font-size="14" lengthAdjust="spacing" textLength="29.0254" x="40.4873" y="25.5352">Test</text><rect fill="#E2E2F0" height="30.4883" rx="2.5" ry="2.5" style="stroke:#181818;stroke-width:0.5;" width="21.7314" x="165.4375" y="5"/><text fill="#000000" font-family="sans-serif" font-size="14" lengthAdjust="spacing" textLength="7.7314" x="172.4375" y="25.5352">a</text><rect fill="#E2E2F0" height="30.4883" rx="2.5" ry="2.5" style="stroke:#181818;stroke-width:0.5;" width="43.0254" x="33.4873" y="467.9043"/><text fill="#000000" font-family="sans-serif" font-size="14" lengthAdjust="spacing" textLength="29.0254" x="40.4873" y="488.4395">Test</text><rect fill="#E2E2F0" height="30.4883" rx="2.5" ry="2.5" style="stroke:#181818;stroke-width:0.5;" width="21.7314" x="165.4375" y="467.9043"/><text fill="#000000" font-family="sans-serif" font-size="14" lengthAdjust="spacing" textLength="7.7314" x="172.4375" y="488.4395">a</text><line style="stroke:#181818;stroke-width:1.0;stroke-dasharray:2.0,2.0;" x1="55" x2="97" y1="65.7988" y2="65.7988"/><line style="stroke:#181818;stroke-width:1.0;stroke-dasharray:2.0,2.0;" x1="97" x2="97" y1="65.7988" y2="78.7988"/><line style="stroke:#181818;stroke-width:1.0;stroke-dasharray:2.0,2.0;" x1="55" x2="97" y1="78.7988" y2="78.7988"/><line style="stroke:#181818;stroke-width:1.0;" x1="56" x2="66" y1="78.7988" y2="74.7988"/><line style="stroke:#181818;stroke-width:1.0;" x1="56" x2="66" y1="78.7988" y2="82.7988"/><text fill="#000000" font-family="sans-serif" font-size="13" lengthAdjust="spacing" textLength="18.5859" x="62" y="61.0566">OK</text><line style="stroke:#181818;stroke-width:1.0;stroke-dasharray:2.0,2.0;" x1="13" x2="54" y1="108.1094" y2="108.1094"/><line style="stroke:#181818;stroke-width:1.0;stroke-dasharray:2.0,2.0;" x1="13" x2="13" y1="108.1094" y2="121.1094"/><line style="stroke:#181818;stroke-width:1.0;stroke-dasharray:2.0,2.0;" x1="13" x2="54" y1="121.1094" y2="121.1094"/><line style="stroke:#181818;stroke-width:1.0;" x1="53" x2="43" y1="121.1094" y2="117.1094"/><line style="stroke:#181818;stroke-width:1.0;" x1="53" x2="43" y1="121.1094" y2="125.1094"/><text fill="#000000" font-family="sans-serif" font-size="13" lengthAdjust="spacing" textLength="18.5859" x="12" y="103.3672">OK</text><line style="stroke:#181818;stroke-width:1.0;stroke-dasharray:2.0,2.0;" x1="55" x2="97" y1="150.4199" y2="150.4199"/><line style="stroke:#181818;stroke-width:1.0;stroke-dasharray:2.0,2.0;" x1="97" x2="97" y1="150.4199" y2="163.4199"/><line style="stroke:#181818;stroke-width:1.0;stroke-dasharray:2.0,2.0;" x1="55" x2="97" y1="163.4199" y2="163.4199"/><line style="stroke:#181818;stroke-width:1.0;" x1="55" x2="65" y1="150.4199" y2="154.4199"/><line style="stroke:#181818;stroke-width:1.0;" x1="55" x2="65" y1="150.4199" y2="146.4199"/><line style="stroke:#181818;stroke-width:1.0;" x1="56" x2="66" y1="163.4199" y2="159.4199"/><line style="stroke:#181818;stroke-width:1.0;" x1="56" x2="66" y1="163.4199" y2="167.4199"/><text fill="#000000" font-family="sans-serif" font-size="13" lengthAdjust="spacing" textLength="97.3032" x="62" y="145.6777">the arrow is KO</text><line style="stroke:#181818;stroke-width:1.0;" x1="55" x2="97" y1="192.7305" y2="192.7305"/><line style="stroke:#181818;stroke-width:1.0;" x1="97" x2="97" y1="192.7305" y2="205.7305"/><line style="stroke:#181818;stroke-width:1.0;" x1="55" x2="97" y1="205.7305" y2="205.7305"/><line style="stroke:#181818;stroke-width:1.0;" x1="55" x2="65" y1="192.7305" y2="196.7305"/><line style="stroke:#181818;stroke-width:1.0;" x1="55" x2="65" y1="192.7305" y2="188.7305"/><line style="stroke:#181818;stroke-width:1.0;" x1="56" x2="66" y1="205.7305" y2="201.7305"/><line style="stroke:#181818;stroke-width:1.0;" x1="56" x2="66" y1="205.7305" y2="209.7305"/><text fill="#000000" font-family="sans-serif" font-size="13" lengthAdjust="spacing" textLength="97.3032" x="62" y="187.9883">the arrow is KO</text><line style="stroke:#181818;stroke-width:1.0;stroke-dasharray:2.0,2.0;" x1="55" x2="97" y1="235.041" y2="235.041"/><line style="stroke:#181818;stroke-width:1.0;stroke-dasharray:2.0,2.0;" x1="97" x2="97" y1="235.041" y2="248.041"/><line style="stroke:#181818;stroke-width:1.0;stroke-dasharray:2.0,2.0;" x1="56" x2="97" y1="248.041" y2="248.041"/><line style="stroke:#181818;stroke-width:1.0;" x1="55" x2="65" y1="235.041" y2="239.041"/><line style="stroke:#181818;stroke-width:1.0;" x1="55" x2="65" y1="235.041" y2="231.041"/><polygon fill="#181818" points="66,244.041,56,248.041,66,252.041,62,248.041" style="stroke:#181818;stroke-width:1.0;"/><text fill="#000000" font-family="sans-serif" font-size="13" lengthAdjust="spacing" textLength="97.3032" x="62" y="230.2988">the arrow is KO</text><line style="stroke:#181818;stroke-width:1.0;" x1="55" x2="97" y1="277.3516" y2="277.3516"/><line style="stroke:#181818;stroke-width:1.0;" x1="97" x2="97" y1="277.3516" y2="290.3516"/><line style="stroke:#181818;stroke-width:1.0;" x1="55" x2="97" y1="290.3516" y2="290.3516"/><polygon fill="#181818" points="65,273.3516,55,277.3516,65,281.3516,61,277.3516" style="stroke:#181818;stroke-width:1.0;"/><line style="stroke:#181818;stroke-width:1.0;" x1="56" x2="66" y1="290.3516" y2="286.3516"/><line style="stroke:#181818;stroke-width:1.0;" x1="56" x2="66" y1="290.3516" y2="294.3516"/><text fill="#000000" font-family="sans-serif" font-size="13" lengthAdjust="spacing" textLength="97.3032" x="62" y="272.6094">the arrow is KO</text><line style="stroke:#181818;stroke-width:1.0;" x1="55" x2="97" y1="319.6621" y2="319.6621"/><line style="stroke:#181818;stroke-width:1.0;" x1="97" x2="97" y1="319.6621" y2="332.6621"/><line style="stroke:#181818;stroke-width:1.0;" x1="56" x2="97" y1="332.6621" y2="332.6621"/><polygon fill="#181818" points="65,315.6621,55,319.6621,65,323.6621,61,319.6621" style="stroke:#181818;stroke-width:1.0;"/><polygon fill="#181818" points="66,328.6621,56,332.6621,66,336.6621,62,332.6621" style="stroke:#181818;stroke-width:1.0;"/><text fill="#000000" font-family="sans-serif" font-size="13" lengthAdjust="spacing" textLength="97.3032" x="62" y="314.9199">the arrow is KO</text><line style="stroke:#181818;stroke-width:1.0;" x1="56" x2="66" y1="361.9727" y2="357.9727"/><line style="stroke:#181818;stroke-width:1.0;" x1="56" x2="66" y1="361.9727" y2="365.9727"/><polygon fill="#181818" points="164.3032,357.9727,174.3032,361.9727,164.3032,365.9727,168.3032,361.9727" style="stroke:#181818;stroke-width:1.0;"/><line style="stroke:#181818;stroke-width:1.0;" x1="55" x2="170.3032" y1="361.9727" y2="361.9727"/><text fill="#000000" font-family="sans-serif" font-size="13" lengthAdjust="spacing" textLength="97.3032" x="72" y="357.2305">the arrow is KO</text><polygon fill="#181818" points="66,387.2832,56,391.2832,66,395.2832,62,391.2832" style="stroke:#181818;stroke-width:1.0;"/><line style="stroke:#181818;stroke-width:1.0;" x1="174.3032" x2="164.3032" y1="391.2832" y2="387.2832"/><line style="stroke:#181818;stroke-width:1.0;" x1="174.3032" x2="164.3032" y1="391.2832" y2="395.2832"/><line style="stroke:#181818;stroke-width:1.0;" x1="60" x2="175.3032" y1="391.2832" y2="391.2832"/><text fill="#000000" font-family="sans-serif" font-size="13" lengthAdjust="spacing" textLength="97.3032" x="72" y="386.541">the arrow is KO</text><line style="stroke:#181818;stroke-width:1.0;" x1="56" x2="66" y1="420.5938" y2="416.5938"/><line style="stroke:#181818;stroke-width:1.0;" x1="56" x2="66" y1="420.5938" y2="424.5938"/><polygon fill="#181818" points="164.3032,416.5938,174.3032,420.5938,164.3032,424.5938,168.3032,420.5938" style="stroke:#181818;stroke-width:1.0;"/><line style="stroke:#181818;stroke-width:1.0;stroke-dasharray:2.0,2.0;" x1="55" x2="170.3032" y1="420.5938" y2="420.5938"/><text fill="#000000" font-family="sans-serif" font-size="13" lengthAdjust="spacing" textLength="97.3032" x="72" y="415.8516">the arrow is KO</text><polygon fill="#181818" points="66,445.9043,56,449.9043,66,453.9043,62,449.9043" style="stroke:#181818;stroke-width:1.0;"/><line style="stroke:#181818;stroke-width:1.0;" x1="174.3032" x2="164.3032" y1="449.9043" y2="445.9043"/><line style="stroke:#181818;stroke-width:1.0;" x1="174.3032" x2="164.3032" y1="449.9043" y2="453.9043"/><line style="stroke:#181818;stroke-width:1.0;stroke-dasharray:2.0,2.0;" x1="60" x2="175.3032" y1="449.9043" y2="449.9043"/><text fill="#000000" font-family="sans-serif" font-size="13" lengthAdjust="spacing" textLength="97.3032" x="72" y="445.1621">the arrow is KO</text><!--SRC=[KomeIapFJLGeISslKYWfAatb2aajBb7GrRMpKm2nh1JylI52DZQwkbY4uEfACb8L4ekAyiiLCeiLlFtXAWWgqCMlW901kWGTe928p-n4l2x3hHMxNW00]--></g></svg>