<svg xmlns="http://www.w3.org/2000/svg" xmlns:xlink="http://www.w3.org/1999/xlink" contentStyleType="text/css" height="192px" preserveAspectRatio="none" style="width:227px;height:192px;background:#FFFFFF;" version="1.1" viewBox="0 0 227 192" width="227px" zoomAndPan="magnify"><defs/><g><line style="stroke:#181818;stroke-width:0.5;stroke-dasharray:5.0,5.0;" x1="36" x2="36" y1="36.4883" y2="156.4199"/><rect fill="#808000" height="93.9316" style="stroke:#181818;stroke-width:1.0;" width="10" x="31" y="44.4883"/><rect fill="#6B8E23" height="58.6211" style="stroke:#181818;stroke-width:1.0;" width="10" x="36" y="50.4883"/><rect fill="#3CB371" height="29.3105" style="stroke:#181818;stroke-width:1.0;" width="10" x="41" y="50.4883"/><rect fill="#E2E2F0" height="30.4883" rx="2.5" ry="2.5" style="stroke:#181818;stroke-width:0.5;" width="62" x="5" y="5"/><text fill="#000000" font-family="sans-serif" font-size="14" lengthAdjust="spacing" textLength="48" x="12" y="25.5352">actor 1</text><rect fill="#E2E2F0" height="30.4883" rx="2.5" ry="2.5" style="stroke:#181818;stroke-width:0.5;" width="62" x="5" y="156.4199"/><text fill="#000000" font-family="sans-serif" font-size="14" lengthAdjust="spacing" textLength="48" x="12" y="176.9551">actor 1</text><polygon fill="none" points="200,75.7988,210,79.7988,200,83.7988,204,79.7988" style="stroke:none;stroke-width:1.0;"/><line style="stroke:none;stroke-width:1.0;" x1="51" x2="206" y1="79.7988" y2="79.7988"/><text fill="#000000" font-family="sans-serif" font-size="13" lengthAdjust="spacing" textLength="152" x="58" y="75.0566">actor1 sub-sub-activity</text><polygon fill="none" points="169,105.1094,179,109.1094,169,113.1094,173,109.1094" style="stroke:none;stroke-width:1.0;"/><line style="stroke:none;stroke-width:1.0;" x1="46" x2="175" y1="109.1094" y2="109.1094"/><text fill="#000000" font-family="sans-serif" font-size="13" lengthAdjust="spacing" textLength="121" x="53" y="104.3672">actor1 sub-activity</text><polygon fill="none" points="138,134.4199,148,138.4199,138,142.4199,142,138.4199" style="stroke:none;stroke-width:1.0;"/><line style="stroke:none;stroke-width:1.0;" x1="41" x2="144" y1="138.4199" y2="138.4199"/><text fill="#000000" font-family="sans-serif" font-size="13" lengthAdjust="spacing" textLength="90" x="48" y="133.6777">actor1 activity</text><!--SRC=[KomeIapFJLGeISslKYWfAatbIamkoInBB4bLK0AoyeiK39KKbFrpCijIkH02kj4PcIafgNcnTlQurRiK9IPngIaGhyitDIMpD3SuDT6zA3Kr3yKwvJGmC300wbMmKW3B62eKboRfWZ3OiCoIIgwKL4npYJI7KZFmwWS0]--></g></svg>