<svg xmlns="http://www.w3.org/2000/svg" xmlns:xlink="http://www.w3.org/1999/xlink" contentStyleType="text/css" height="505px" preserveAspectRatio="none" style="width:188px;height:505px;background:#FFFFFF;" version="1.1" viewBox="0 0 188 505" width="188px" zoomAndPan="magnify"><defs/><g><line style="stroke:#181818;stroke-width:0.5;stroke-dasharray:5.0,5.0;" x1="49.4873" x2="49.4873" y1="36.4883" y2="469.9043"/><line style="stroke:#181818;stroke-width:0.5;stroke-dasharray:5.0,5.0;" x1="170.4375" x2="170.4375" y1="36.4883" y2="469.9043"/><rect fill="#E2E2F0" height="30.4883" rx="2.5" ry="2.5" style="stroke:#181818;stroke-width:0.5;" width="43.0254" x="28.4873" y="5"/><text fill="#000000" font-family="sans-serif" font-size="14" lengthAdjust="spacing" textLength="29.0254" x="35.4873" y="25.5352">Test</text><rect fill="#E2E2F0" height="30.4883" rx="2.5" ry="2.5" style="stroke:#181818;stroke-width:0.5;" width="43.0254" x="28.4873" y="468.9043"/><text fill="#000000" font-family="sans-serif" font-size="14" lengthAdjust="spacing" textLength="29.0254" x="35.4873" y="489.4395">Test</text><rect fill="#E2E2F0" height="30.4883" rx="2.5" ry="2.5" style="stroke:#181818;stroke-width:0.5;" width="21.7314" x="160.4375" y="5"/><text fill="#000000" font-family="sans-serif" font-size="14" lengthAdjust="spacing" textLength="7.7314" x="167.4375" y="25.5352">a</text><rect fill="#E2E2F0" height="30.4883" rx="2.5" ry="2.5" style="stroke:#181818;stroke-width:0.5;" width="21.7314" x="160.4375" y="468.9043"/><text fill="#000000" font-family="sans-serif" font-size="14" lengthAdjust="spacing" textLength="7.7314" x="167.4375" y="489.4395">a</text><line style="stroke:#181818;stroke-width:1.0;stroke-dasharray:2.0,2.0;" x1="50" x2="92" y1="67.7988" y2="67.7988"/><line style="stroke:#181818;stroke-width:1.0;stroke-dasharray:2.0,2.0;" x1="92" x2="92" y1="67.7988" y2="80.7988"/><line style="stroke:#181818;stroke-width:1.0;stroke-dasharray:2.0,2.0;" x1="50" x2="92" y1="80.7988" y2="80.7988"/><line style="stroke:#181818;stroke-width:1.0;" x1="51" x2="61" y1="80.7988" y2="76.7988"/><line style="stroke:#181818;stroke-width:1.0;" x1="51" x2="61" y1="80.7988" y2="84.7988"/><text fill="#000000" font-family="sans-serif" font-size="13" lengthAdjust="spacing" textLength="18.5859" x="57" y="63.0566">OK</text><line style="stroke:#181818;stroke-width:1.0;stroke-dasharray:2.0,2.0;" x1="8" x2="49" y1="110.1094" y2="110.1094"/><line style="stroke:#181818;stroke-width:1.0;stroke-dasharray:2.0,2.0;" x1="8" x2="8" y1="110.1094" y2="123.1094"/><line style="stroke:#181818;stroke-width:1.0;stroke-dasharray:2.0,2.0;" x1="8" x2="49" y1="123.1094" y2="123.1094"/><line style="stroke:#181818;stroke-width:1.0;" x1="48" x2="38" y1="123.1094" y2="119.1094"/><line style="stroke:#181818;stroke-width:1.0;" x1="48" x2="38" y1="123.1094" y2="127.1094"/><text fill="#000000" font-family="sans-serif" font-size="13" lengthAdjust="spacing" textLength="18.5859" x="7" y="105.3672">OK</text><line style="stroke:#181818;stroke-width:1.0;stroke-dasharray:2.0,2.0;" x1="50" x2="92" y1="152.4199" y2="152.4199"/><line style="stroke:#181818;stroke-width:1.0;stroke-dasharray:2.0,2.0;" x1="92" x2="92" y1="152.4199" y2="165.4199"/><line style="stroke:#181818;stroke-width:1.0;stroke-dasharray:2.0,2.0;" x1="50" x2="92" y1="165.4199" y2="165.4199"/><line style="stroke:#181818;stroke-width:1.0;" x1="50" x2="60" y1="152.4199" y2="156.4199"/><line style="stroke:#181818;stroke-width:1.0;" x1="50" x2="60" y1="152.4199" y2="148.4199"/><line style="stroke:#181818;stroke-width:1.0;" x1="51" x2="61" y1="165.4199" y2="161.4199"/><line style="stroke:#181818;stroke-width:1.0;" x1="51" x2="61" y1="165.4199" y2="169.4199"/><text fill="#000000" font-family="sans-serif" font-size="13" lengthAdjust="spacing" textLength="97.3032" x="57" y="147.6777">the arrow is KO</text><line style="stroke:#181818;stroke-width:1.0;" x1="50" x2="92" y1="194.7305" y2="194.7305"/><line style="stroke:#181818;stroke-width:1.0;" x1="92" x2="92" y1="194.7305" y2="207.7305"/><line style="stroke:#181818;stroke-width:1.0;" x1="50" x2="92" y1="207.7305" y2="207.7305"/><line style="stroke:#181818;stroke-width:1.0;" x1="50" x2="60" y1="194.7305" y2="198.7305"/><line style="stroke:#181818;stroke-width:1.0;" x1="50" x2="60" y1="194.7305" y2="190.7305"/><line style="stroke:#181818;stroke-width:1.0;" x1="51" x2="61" y1="207.7305" y2="203.7305"/><line style="stroke:#181818;stroke-width:1.0;" x1="51" x2="61" y1="207.7305" y2="211.7305"/><text fill="#000000" font-family="sans-serif" font-size="13" lengthAdjust="spacing" textLength="97.3032" x="57" y="189.9883">the arrow is KO</text><line style="stroke:#181818;stroke-width:1.0;stroke-dasharray:2.0,2.0;" x1="50" x2="92" y1="237.041" y2="237.041"/><line style="stroke:#181818;stroke-width:1.0;stroke-dasharray:2.0,2.0;" x1="92" x2="92" y1="237.041" y2="250.041"/><line style="stroke:#181818;stroke-width:1.0;stroke-dasharray:2.0,2.0;" x1="51" x2="92" y1="250.041" y2="250.041"/><line style="stroke:#181818;stroke-width:1.0;" x1="50" x2="60" y1="237.041" y2="241.041"/><line style="stroke:#181818;stroke-width:1.0;" x1="50" x2="60" y1="237.041" y2="233.041"/><polygon fill="#181818" points="61,246.041,51,250.041,61,254.041,57,250.041" style="stroke:#181818;stroke-width:1.0;"/><text fill="#000000" font-family="sans-serif" font-size="13" lengthAdjust="spacing" textLength="97.3032" x="57" y="232.2988">the arrow is KO</text><line style="stroke:#181818;stroke-width:1.0;" x1="50" x2="92" y1="279.3516" y2="279.3516"/><line style="stroke:#181818;stroke-width:1.0;" x1="92" x2="92" y1="279.3516" y2="292.3516"/><line style="stroke:#181818;stroke-width:1.0;" x1="50" x2="92" y1="292.3516" y2="292.3516"/><polygon fill="#181818" points="60,275.3516,50,279.3516,60,283.3516,56,279.3516" style="stroke:#181818;stroke-width:1.0;"/><line style="stroke:#181818;stroke-width:1.0;" x1="51" x2="61" y1="292.3516" y2="288.3516"/><line style="stroke:#181818;stroke-width:1.0;" x1="51" x2="61" y1="292.3516" y2="296.3516"/><text fill="#000000" font-family="sans-serif" font-size="13" lengthAdjust="spacing" textLength="97.3032" x="57" y="274.6094">the arrow is KO</text><line style="stroke:#181818;stroke-width:1.0;" x1="50" x2="92" y1="321.6621" y2="321.6621"/><line style="stroke:#181818;stroke-width:1.0;" x1="92" x2="92" y1="321.6621" y2="334.6621"/><line style="stroke:#181818;stroke-width:1.0;" x1="51" x2="92" y1="334.6621" y2="334.6621"/><polygon fill="#181818" points="60,317.6621,50,321.6621,60,325.6621,56,321.6621" style="stroke:#181818;stroke-width:1.0;"/><polygon fill="#181818" points="61,330.6621,51,334.6621,61,338.6621,57,334.6621" style="stroke:#181818;stroke-width:1.0;"/><text fill="#000000" font-family="sans-serif" font-size="13" lengthAdjust="spacing" textLength="97.3032" x="57" y="316.9199">the arrow is KO</text><line style="stroke:#181818;stroke-width:1.0;" x1="51" x2="61" y1="363.9727" y2="359.9727"/><line style="stroke:#181818;stroke-width:1.0;" x1="51" x2="61" y1="363.9727" y2="367.9727"/><polygon fill="#181818" points="159.3032,359.9727,169.3032,363.9727,159.3032,367.9727,163.3032,363.9727" style="stroke:#181818;stroke-width:1.0;"/><line style="stroke:#181818;stroke-width:1.0;" x1="50" x2="165.3032" y1="363.9727" y2="363.9727"/><text fill="#000000" font-family="sans-serif" font-size="13" lengthAdjust="spacing" textLength="97.3032" x="67" y="359.2305">the arrow is KO</text><polygon fill="#181818" points="61,389.2832,51,393.2832,61,397.2832,57,393.2832" style="stroke:#181818;stroke-width:1.0;"/><line style="stroke:#181818;stroke-width:1.0;" x1="169.3032" x2="159.3032" y1="393.2832" y2="389.2832"/><line style="stroke:#181818;stroke-width:1.0;" x1="169.3032" x2="159.3032" y1="393.2832" y2="397.2832"/><line style="stroke:#181818;stroke-width:1.0;" x1="55" x2="170.3032" y1="393.2832" y2="393.2832"/><text fill="#000000" font-family="sans-serif" font-size="13" lengthAdjust="spacing" textLength="97.3032" x="67" y="388.541">the arrow is KO</text><line style="stroke:#181818;stroke-width:1.0;" x1="51" x2="61" y1="422.5938" y2="418.5938"/><line style="stroke:#181818;stroke-width:1.0;" x1="51" x2="61" y1="422.5938" y2="426.5938"/><polygon fill="#181818" points="159.3032,418.5938,169.3032,422.5938,159.3032,426.5938,163.3032,422.5938" style="stroke:#181818;stroke-width:1.0;"/><line style="stroke:#181818;stroke-width:1.0;stroke-dasharray:2.0,2.0;" x1="50" x2="165.3032" y1="422.5938" y2="422.5938"/><text fill="#000000" font-family="sans-serif" font-size="13" lengthAdjust="spacing" textLength="97.3032" x="67" y="417.8516">the arrow is KO</text><polygon fill="#181818" points="61,447.9043,51,451.9043,61,455.9043,57,451.9043" style="stroke:#181818;stroke-width:1.0;"/><line style="stroke:#181818;stroke-width:1.0;" x1="169.3032" x2="159.3032" y1="451.9043" y2="447.9043"/><line style="stroke:#181818;stroke-width:1.0;" x1="169.3032" x2="159.3032" y1="451.9043" y2="455.9043"/><line style="stroke:#181818;stroke-width:1.0;stroke-dasharray:2.0,2.0;" x1="55" x2="170.3032" y1="451.9043" y2="451.9043"/><text fill="#000000" font-family="sans-serif" font-size="13" lengthAdjust="spacing" textLength="97.3032" x="67" y="447.1621">the arrow is KO</text><!--SRC=[2qajBb7GrRMpKmW1igmK_BsvG0m56njTNIn2S7Kb6QaAYKL5-UKAcSKAtlvm5GGLwE9NGCW0NO8EK4Z4PtOYNfVXrefTBm00]--></g></svg>