<svg xmlns="http://www.w3.org/2000/svg" xmlns:xlink="http://www.w3.org/1999/xlink" contentStyleType="text/css" height="133px" preserveAspectRatio="none" style="width:194px;height:133px;background:#FFFFFF;" version="1.1" viewBox="0 0 194 133" width="194px" zoomAndPan="magnify"><defs/><g><line style="stroke:#181818;stroke-width:0.5;stroke-dasharray:5.0,5.0;" x1="27.5" x2="27.5" y1="36.4883" y2="96.7988"/><line style="stroke:#181818;stroke-width:0.5;stroke-dasharray:5.0,5.0;" x1="114.5" x2="114.5" y1="36.4883" y2="96.7988"/><rect fill="#E2E2F0" height="30.4883" rx="2.5" ry="2.5" style="stroke:#181818;stroke-width:0.5;" width="45" x="5" y="5"/><text fill="#000000" font-family="sans-serif" font-size="14" lengthAdjust="spacing" textLength="31" x="12" y="25.5352">alice</text><rect fill="#E2E2F0" height="30.4883" rx="2.5" ry="2.5" style="stroke:#181818;stroke-width:0.5;" width="41" x="94" y="5"/><text fill="#000000" font-family="sans-serif" font-size="14" lengthAdjust="spacing" textLength="27" x="101" y="25.5352">bob</text><rect fill="#E2E2F0" height="30.4883" rx="2.5" ry="2.5" style="stroke:#181818;stroke-width:0.5;" width="45" x="5" y="96.7988"/><text fill="#000000" font-family="sans-serif" font-size="14" lengthAdjust="spacing" textLength="31" x="12" y="117.334">alice</text><rect fill="#E2E2F0" height="30.4883" rx="2.5" ry="2.5" style="stroke:#181818;stroke-width:0.5;" width="41" x="94" y="96.7988"/><text fill="#000000" font-family="sans-serif" font-size="14" lengthAdjust="spacing" textLength="27" x="101" y="117.334">bob</text><polygon fill="#181818" points="102.5,64.2988,112.5,68.2988,102.5,72.2988,106.5,68.2988" style="stroke:#181818;stroke-width:1.0;"/><line style="stroke:#181818;stroke-width:1.0;" x1="27.5" x2="108.5" y1="68.2988" y2="68.2988"/><text fill="#000000" font-family="sans-serif" font-size="13" lengthAdjust="spacing" textLength="63" x="34.5" y="63.5566">B bb bbbb</text><line style="stroke:#181818;stroke-width:1.0;" x1="114.5" x2="156.5" y1="65.7988" y2="65.7988"/><line style="stroke:#181818;stroke-width:1.0;" x1="156.5" x2="156.5" y1="65.7988" y2="78.7988"/><line style="stroke:#181818;stroke-width:1.0;" x1="115.5" x2="156.5" y1="78.7988" y2="78.7988"/><polygon fill="#181818" points="125.5,74.7988,115.5,78.7988,125.5,82.7988,121.5,78.7988" style="stroke:#181818;stroke-width:1.0;"/><text fill="#000000" font-family="sans-serif" font-size="13" lengthAdjust="spacing" textLength="66" x="121.5" y="61.0566">A a aaaaaa</text><!--SRC=[KomeIapFJLGeISslKYWfAatbub98pCbCJbNGjLD8oazIi59mKaXA0gAa92uri0XSmb4XKI4H3000]--></g></svg>