<svg xmlns="http://www.w3.org/2000/svg" xmlns:xlink="http://www.w3.org/1999/xlink" contentStyleType="text/css" height="194px" preserveAspectRatio="none" style="width:182px;height:194px;background:#FFFFFF;" version="1.1" viewBox="0 0 182 194" width="182px" zoomAndPan="magnify"><defs/><g><line style="stroke:#181818;stroke-width:0.5;stroke-dasharray:5.0,5.0;" x1="28.5" x2="28.5" y1="36.4883" y2="158.4199"/><line style="stroke:#181818;stroke-width:0.5;stroke-dasharray:5.0,5.0;" x1="83.5" x2="83.5" y1="36.4883" y2="158.4199"/><line style="stroke:#181818;stroke-width:0.5;stroke-dasharray:5.0,5.0;" x1="145" x2="145" y1="36.4883" y2="158.4199"/><rect fill="#E2E2F0" height="30.4883" rx="2.5" ry="2.5" style="stroke:#181818;stroke-width:0.5;" width="47" x="5" y="5"/><text fill="#000000" font-family="sans-serif" font-size="14" lengthAdjust="spacing" textLength="33" x="12" y="25.5352">Alice</text><rect fill="#E2E2F0" height="30.4883" rx="2.5" ry="2.5" style="stroke:#181818;stroke-width:0.5;" width="40" x="63.5" y="5"/><text fill="#000000" font-family="sans-serif" font-size="14" lengthAdjust="spacing" textLength="26" x="70.5" y="25.5352">Bob</text><rect fill="#E2E2F0" height="30.4883" rx="2.5" ry="2.5" style="stroke:#181818;stroke-width:0.5;" width="63" x="113.5" y="5"/><text fill="#000000" font-family="sans-serif" font-size="14" lengthAdjust="spacing" textLength="49" x="120.5" y="25.5352">Charlie</text><rect fill="#E2E2F0" height="30.4883" rx="2.5" ry="2.5" style="stroke:#181818;stroke-width:0.5;" width="47" x="5" y="158.4199"/><text fill="#000000" font-family="sans-serif" font-size="14" lengthAdjust="spacing" textLength="33" x="12" y="178.9551">Alice</text><rect fill="#E2E2F0" height="30.4883" rx="2.5" ry="2.5" style="stroke:#181818;stroke-width:0.5;" width="40" x="63.5" y="158.4199"/><text fill="#000000" font-family="sans-serif" font-size="14" lengthAdjust="spacing" textLength="26" x="70.5" y="178.9551">Bob</text><rect fill="#E2E2F0" height="30.4883" rx="2.5" ry="2.5" style="stroke:#181818;stroke-width:0.5;" width="63" x="113.5" y="158.4199"/><text fill="#000000" font-family="sans-serif" font-size="14" lengthAdjust="spacing" textLength="49" x="120.5" y="178.9551">Charlie</text><polygon fill="#181818" points="71.5,61.7988,81.5,65.7988,71.5,69.7988,75.5,65.7988" style="stroke:#181818;stroke-width:1.0;"/><line style="stroke:#181818;stroke-width:1.0;" x1="28.5" x2="77.5" y1="65.7988" y2="65.7988"/><text fill="#000000" font-family="sans-serif" font-size="13" lengthAdjust="spacing" textLength="31" x="35.5" y="61.0566">hello</text><polygon fill="#181818" points="94.5,61.7988,84.5,65.7988,94.5,69.7988,90.5,65.7988" style="stroke:#181818;stroke-width:1.0;"/><line style="stroke:#181818;stroke-width:1.0;" x1="88.5" x2="144" y1="65.7988" y2="65.7988"/><text fill="#000000" font-family="sans-serif" font-size="13" lengthAdjust="spacing" textLength="12" x="100.5" y="61.0566">hi</text><path d="M12.5,77.7988 L107.5,77.7988 L107.5,85.1094 L97.5,95.1094 L12.5,95.1094 L12.5,77.7988 " fill="#EEEEEE" style="stroke:#000000;stroke-width:1.5;"/><rect fill="none" height="56.6211" style="stroke:#000000;stroke-width:1.5;" width="148.5" x="12.5" y="77.7988"/><text fill="#000000" font-family="sans-serif" font-size="13" font-weight="bold" lengthAdjust="spacing" textLength="50" x="27.5" y="91.3672">Friends</text><polygon fill="#181818" points="71.5,122.4199,81.5,126.4199,71.5,130.4199,75.5,126.4199" style="stroke:#181818;stroke-width:1.0;"/><line style="stroke:#181818;stroke-width:1.0;" x1="28.5" x2="77.5" y1="126.4199" y2="126.4199"/><text fill="#000000" font-family="sans-serif" font-size="13" lengthAdjust="spacing" textLength="31" x="35.5" y="121.6777">hello</text><polygon fill="#181818" points="94.5,122.4199,84.5,126.4199,94.5,130.4199,90.5,126.4199" style="stroke:#181818;stroke-width:1.0;"/><line style="stroke:#181818;stroke-width:1.0;" x1="88.5" x2="144" y1="126.4199" y2="126.4199"/><text fill="#000000" font-family="sans-serif" font-size="13" lengthAdjust="spacing" textLength="12" x="100.5" y="121.6777">hi</text><!--SRC=[KomeIapFJLGeISslKYWfAatbSip9J4vLqBLJSCfFKh1Io4ZDoSddKbDmpaWioib4biZaKk1AByelBL1mAyfCpKifvY95BnTG1m00]--></g></svg>