<svg xmlns="http://www.w3.org/2000/svg" xmlns:xlink="http://www.w3.org/1999/xlink" contentStyleType="text/css" height="398px" preserveAspectRatio="none" style="width:314px;height:398px;background:#FFFFFF;" version="1.1" viewBox="0 0 314 398" width="314px" zoomAndPan="magnify"><defs/><g><line style="stroke:#181818;stroke-width:0.5;stroke-dasharray:5.0,5.0;" x1="36" x2="36" y1="36.4883" y2="361.5938"/><rect fill="#808000" height="153.8633" style="stroke:#181818;stroke-width:1.0;" width="10" x="31" y="44.4883"/><rect fill="#808000" height="75.3105" style="stroke:#181818;stroke-width:1.0;" width="10" x="31" y="286.2832"/><rect fill="#6B8E23" height="29.3105" style="stroke:#181818;stroke-width:1.0;" width="10" x="36" y="65.7988"/><rect fill="#6B8E23" height="58.6211" style="stroke:#181818;stroke-width:1.0;" width="10" x="36" y="139.7305"/><rect fill="#6B8E23" height="61.3105" style="stroke:#181818;stroke-width:1.0;" width="10" x="36" y="300.2832"/><line style="stroke:#181818;stroke-width:0.5;stroke-dasharray:5.0,5.0;" x1="108" x2="108" y1="36.4883" y2="361.5938"/><rect fill="#808000" height="87.9316" style="stroke:#181818;stroke-width:1.0;" width="10" x="103" y="198.3516"/><rect fill="#6B8E23" height="43.3105" style="stroke:#181818;stroke-width:1.0;" width="10" x="108" y="242.9727"/><line style="stroke:#181818;stroke-width:0.5;stroke-dasharray:5.0,5.0;" x1="206" x2="206" y1="36.4883" y2="361.5938"/><rect fill="#E2E2F0" height="30.4883" rx="2.5" ry="2.5" style="stroke:#181818;stroke-width:0.5;" width="62" x="5" y="5"/><text fill="#000000" font-family="sans-serif" font-size="14" lengthAdjust="spacing" textLength="48" x="12" y="25.5352">actor 1</text><rect fill="#E2E2F0" height="30.4883" rx="2.5" ry="2.5" style="stroke:#181818;stroke-width:0.5;" width="62" x="77" y="5"/><text fill="#000000" font-family="sans-serif" font-size="14" lengthAdjust="spacing" textLength="48" x="84" y="25.5352">actor 5</text><rect fill="#E2E2F0" height="30.4883" rx="2.5" ry="2.5" style="stroke:#181818;stroke-width:0.5;" width="114" x="149" y="5"/><text fill="#000000" font-family="sans-serif" font-size="14" lengthAdjust="spacing" textLength="100" x="156" y="25.5352">actor1_func1()</text><rect fill="#E2E2F0" height="30.4883" rx="2.5" ry="2.5" style="stroke:#181818;stroke-width:0.5;" width="62" x="5" y="361.5938"/><text fill="#000000" font-family="sans-serif" font-size="14" lengthAdjust="spacing" textLength="48" x="12" y="382.1289">actor 1</text><rect fill="#E2E2F0" height="30.4883" rx="2.5" ry="2.5" style="stroke:#181818;stroke-width:0.5;" width="62" x="77" y="361.5938"/><text fill="#000000" font-family="sans-serif" font-size="14" lengthAdjust="spacing" textLength="48" x="84" y="382.1289">actor 5</text><rect fill="#E2E2F0" height="30.4883" rx="2.5" ry="2.5" style="stroke:#181818;stroke-width:0.5;" width="114" x="149" y="361.5938"/><text fill="#000000" font-family="sans-serif" font-size="14" lengthAdjust="spacing" textLength="100" x="156" y="382.1289">actor1_func1()</text><polygon fill="none" points="146,61.7988,156,65.7988,146,69.7988,150,65.7988" style="stroke:none;stroke-width:1.0;"/><line style="stroke:none;stroke-width:1.0;" x1="46" x2="152" y1="65.7988" y2="65.7988"/><text fill="#000000" font-family="sans-serif" font-size="13" lengthAdjust="spacing" textLength="98" x="53" y="61.0566">actor1 activity1</text><polygon fill="none" points="177,91.1094,187,95.1094,177,99.1094,181,95.1094" style="stroke:none;stroke-width:1.0;"/><line style="stroke:none;stroke-width:1.0;" x1="46" x2="183" y1="95.1094" y2="95.1094"/><text fill="#000000" font-family="sans-serif" font-size="13" lengthAdjust="spacing" textLength="129" x="53" y="90.3672">actor1 sub-activity1</text><polygon fill="none" points="158,135.7305,168,139.7305,158,143.7305,162,139.7305" style="stroke:none;stroke-width:1.0;"/><line style="stroke:none;stroke-width:1.0;" x1="46" x2="164" y1="139.7305" y2="139.7305"/><text fill="#000000" font-family="sans-serif" font-size="13" lengthAdjust="spacing" textLength="98" x="53" y="119.6777">actor1 activity2</text><text fill="#000000" font-family="sans-serif" font-size="13" lengthAdjust="spacing" textLength="110" x="53" y="134.9883">actor1 summary1</text><polygon fill="none" points="177,180.3516,187,184.3516,177,188.3516,181,184.3516" style="stroke:none;stroke-width:1.0;"/><line style="stroke:none;stroke-width:1.0;" x1="46" x2="183" y1="184.3516" y2="184.3516"/><text fill="#000000" font-family="sans-serif" font-size="13" lengthAdjust="spacing" textLength="129" x="53" y="164.2988">actor1 sub-activity2</text><text fill="#000000" font-family="sans-serif" font-size="13" lengthAdjust="spacing" textLength="129" x="53" y="179.6094">actor1 sub-activity3</text><polygon fill="#181818" points="91,194.3516,101,198.3516,91,202.3516,95,198.3516" style="stroke:#181818;stroke-width:1.0;"/><line style="stroke:#181818;stroke-width:1.0;" x1="46" x2="97" y1="198.3516" y2="198.3516"/><polygon fill="none" points="256,238.9727,266,242.9727,256,246.9727,260,242.9727" style="stroke:none;stroke-width:1.0;"/><line style="stroke:none;stroke-width:1.0;" x1="118" x2="262" y1="242.9727" y2="242.9727"/><text fill="#000000" font-family="sans-serif" font-size="13" lengthAdjust="spacing" textLength="136" x="125" y="222.9199">general func activity1</text><text fill="#000000" font-family="sans-serif" font-size="13" lengthAdjust="spacing" textLength="136" x="125" y="238.2305">general func activity2</text><polygon fill="none" points="287,268.2832,297,272.2832,287,276.2832,291,272.2832" style="stroke:none;stroke-width:1.0;"/><line style="stroke:none;stroke-width:1.0;" x1="118" x2="293" y1="272.2832" y2="272.2832"/><text fill="#000000" font-family="sans-serif" font-size="13" lengthAdjust="spacing" textLength="167" x="125" y="267.541">general func sub-activity1</text><polygon fill="#181818" points="52,282.2832,42,286.2832,52,290.2832,48,286.2832" style="stroke:#181818;stroke-width:1.0;"/><line style="stroke:#181818;stroke-width:1.0;" x1="46" x2="107" y1="286.2832" y2="286.2832"/><polygon fill="none" points="48,296.2832,58,300.2832,48,304.2832,52,300.2832" style="stroke:none;stroke-width:1.0;"/><line style="stroke:none;stroke-width:1.0;" x1="46" x2="54" y1="300.2832" y2="300.2832"/><polygon fill="none" points="189,325.5938,199,329.5938,189,333.5938,193,329.5938" style="stroke:none;stroke-width:1.0;"/><line style="stroke:none;stroke-width:1.0;" x1="46" x2="195" y1="329.5938" y2="329.5938"/><text fill="#000000" font-family="sans-serif" font-size="13" lengthAdjust="spacing" textLength="141" x="53" y="324.8516">actor1 sub-summary1</text><polygon fill="#181818" points="194,339.5938,204,343.5938,194,347.5938,198,343.5938" style="stroke:#181818;stroke-width:1.0;"/><line style="stroke:#181818;stroke-width:1.0;" x1="46" x2="200" y1="343.5938" y2="343.5938"/><!--SRC=[KomeIapFJLGeISslKYWfAatbIamkoInBB4bLK0AoyeiK39KKbFrpCijIkH02kj7AQM1WO11hPwzWfG2MCLG0wyqigJJ4ROfBKM8I4IOLboRf8anBISKqZmJd6CNamOtDpKqiehBxa8r7Y1eZcs87iyTKIS4AktUm2g8BcQ97XYaM9wQdvgKM9UOef9Nc9IEY92OFgxWHRZkGWuAWFQWHXgJB3Yc8iNdTL0cx83dfa2hH2ayZMEBFC1xaMKCDJQ1V0000]--></g></svg>