<svg xmlns="http://www.w3.org/2000/svg" xmlns:xlink="http://www.w3.org/1999/xlink" contentStyleType="text/css" height="516px" preserveAspectRatio="none" style="width:489px;height:516px;background:#FFFFFF;" version="1.1" viewBox="0 0 489 516" width="489px" zoomAndPan="magnify"><defs/><g><rect fill="#FFFFFF" height="53.6211" style="stroke:#FFFFFF;stroke-width:1.0;" width="10" x="50.5" y="77.4883"/><line style="stroke:#181818;stroke-width:1.0;" x1="50.5" x2="50.5" y1="77.4883" y2="131.1094"/><line style="stroke:#181818;stroke-width:1.0;" x1="60.5" x2="60.5" y1="77.4883" y2="131.1094"/><line style="stroke:#181818;stroke-width:1.0;" x1="50.5" x2="60.5" y1="77.4883" y2="77.4883"/><rect fill="#FFFFFF" height="241.1738" style="stroke:#FFFFFF;stroke-width:1.0;" width="10" x="50.5" y="172.0645"/><line style="stroke:#181818;stroke-width:1.0;" x1="50.5" x2="50.5" y1="172.0645" y2="413.2383"/><line style="stroke:#181818;stroke-width:1.0;" x1="60.5" x2="60.5" y1="172.0645" y2="413.2383"/><line style="stroke:#181818;stroke-width:1.0;" x1="50.5" x2="60.5" y1="413.2383" y2="413.2383"/><rect fill="#FFFFFF" height="8" style="stroke:#FFFFFF;stroke-width:1.0;" width="10" x="218.5" y="123.1094"/><line style="stroke:#181818;stroke-width:1.0;" x1="218.5" x2="218.5" y1="123.1094" y2="131.1094"/><line style="stroke:#181818;stroke-width:1.0;" x1="228.5" x2="228.5" y1="123.1094" y2="131.1094"/><line style="stroke:#181818;stroke-width:1.0;" x1="218.5" x2="228.5" y1="123.1094" y2="123.1094"/><rect fill="#FFFFFF" height="6" style="stroke:#FFFFFF;stroke-width:1.0;" width="10" x="218.5" y="172.0645"/><line style="stroke:#181818;stroke-width:1.0;" x1="218.5" x2="218.5" y1="172.0645" y2="178.0645"/><line style="stroke:#181818;stroke-width:1.0;" x1="228.5" x2="228.5" y1="172.0645" y2="178.0645"/><line style="stroke:#181818;stroke-width:1.0;" x1="218.5" x2="228.5" y1="178.0645" y2="178.0645"/><rect fill="#FFFFFF" height="29.3105" style="stroke:#181818;stroke-width:1.0;" width="10" x="218.5" y="231.6855"/><rect fill="#FFFFFF" height="29.3105" style="stroke:#181818;stroke-width:1.0;" width="10" x="218.5" y="290.3066"/><rect fill="#FFFFFF" height="14" style="stroke:#181818;stroke-width:1.0;" width="10" x="218.5" y="355.9277"/><rect fill="#FFFFFF" height="14" style="stroke:#181818;stroke-width:1.0;" width="10" x="218.5" y="399.2383"/><rect fill="none" height="336.75" style="stroke:#000000;stroke-width:1.5;" width="428.5" x="10" y="84.4883"/><rect fill="none" height="134.5527" style="stroke:#000000;stroke-width:1.5;" width="408.5" x="20" y="193.0645"/><line style="stroke:#181818;stroke-width:0.5;stroke-dasharray:5.0,5.0;" x1="55" x2="55" y1="67.4883" y2="131.1094"/><line style="stroke:#A80036;stroke-width:1.0;stroke-dasharray:1.0,4.0;" x1="55" x2="55" y1="131.1094" y2="172.0645"/><line style="stroke:#181818;stroke-width:0.5;stroke-dasharray:5.0,5.0;" x1="55" x2="55" y1="172.0645" y2="438.2383"/><line style="stroke:#181818;stroke-width:0.5;stroke-dasharray:5.0,5.0;" x1="223" x2="223" y1="67.4883" y2="131.1094"/><line style="stroke:#A80036;stroke-width:1.0;stroke-dasharray:1.0,4.0;" x1="223" x2="223" y1="131.1094" y2="172.0645"/><line style="stroke:#181818;stroke-width:0.5;stroke-dasharray:5.0,5.0;" x1="223" x2="223" y1="172.0645" y2="438.2383"/><line style="stroke:#181818;stroke-width:0.5;stroke-dasharray:5.0,5.0;" x1="377.5" x2="377.5" y1="67.4883" y2="131.1094"/><line style="stroke:#A80036;stroke-width:1.0;stroke-dasharray:1.0,4.0;" x1="377.5" x2="377.5" y1="131.1094" y2="172.0645"/><line style="stroke:#181818;stroke-width:0.5;stroke-dasharray:5.0,5.0;" x1="377.5" x2="377.5" y1="172.0645" y2="438.2383"/><line style="stroke:#181818;stroke-width:0.5;stroke-dasharray:5.0,5.0;" x1="453.5" x2="453.5" y1="67.4883" y2="131.1094"/><line style="stroke:#A80036;stroke-width:1.0;stroke-dasharray:1.0,4.0;" x1="453.5" x2="453.5" y1="131.1094" y2="172.0645"/><line style="stroke:#181818;stroke-width:0.5;stroke-dasharray:5.0,5.0;" x1="453.5" x2="453.5" y1="172.0645" y2="438.2383"/><rect fill="#E2E2F0" height="30.4883" rx="2.5" ry="2.5" style="stroke:#181818;stroke-width:0.5;" width="51" x="30" y="36"/><text fill="#000000" font-family="sans-serif" font-size="14" lengthAdjust="spacing" textLength="37" x="37" y="56.5352">LOOP</text><rect fill="#E2E2F0" height="30.4883" rx="2.5" ry="2.5" style="stroke:#181818;stroke-width:0.5;" width="51" x="30" y="437.2383"/><text fill="#000000" font-family="sans-serif" font-size="14" lengthAdjust="spacing" textLength="37" x="37" y="457.7734">LOOP</text><text fill="#000000" font-family="sans-serif" font-size="14" lengthAdjust="spacing" textLength="61" x="190" y="64.5352">lmuzxgq</text><ellipse cx="223.5" cy="35" fill="#E2E2F0" rx="12" ry="12" style="stroke:#181818;stroke-width:0.5;"/><line style="stroke:#181818;stroke-width:0.5;" x1="211.5" x2="235.5" y1="49" y2="49"/><text fill="#000000" font-family="sans-serif" font-size="14" lengthAdjust="spacing" textLength="61" x="190" y="450.7734">lmuzxgq</text><ellipse cx="223.5" cy="469.7266" fill="#E2E2F0" rx="12" ry="12" style="stroke:#181818;stroke-width:0.5;"/><line style="stroke:#181818;stroke-width:0.5;" x1="211.5" x2="235.5" y1="483.7266" y2="483.7266"/><rect fill="#E2E2F0" height="30.4883" rx="2.5" ry="2.5" style="stroke:#181818;stroke-width:0.5;" width="82" x="336.5" y="36"/><text fill="#000000" font-family="sans-serif" font-size="14" lengthAdjust="spacing" textLength="68" x="343.5" y="56.5352">awcijxrjrn</text><rect fill="#E2E2F0" height="30.4883" rx="2.5" ry="2.5" style="stroke:#181818;stroke-width:0.5;" width="82" x="336.5" y="437.2383"/><text fill="#000000" font-family="sans-serif" font-size="14" lengthAdjust="spacing" textLength="68" x="343.5" y="457.7734">awcijxrjrn</text><text fill="#000000" font-family="sans-serif" font-size="14" lengthAdjust="spacing" textLength="45" x="428.5" y="64.5352">dfuum</text><path d="M436,15 C436,5 454,5 454,5 C454,5 472,5 472,15 L472,41 C472,51 454,51 454,51 C454,51 436,51 436,41 L436,15 " fill="#E2E2F0" style="stroke:#181818;stroke-width:1.5;"/><path d="M436,15 C436,25 454,25 454,25 C454,25 472,25 472,15 " fill="none" style="stroke:#181818;stroke-width:1.5;"/><text fill="#000000" font-family="sans-serif" font-size="14" lengthAdjust="spacing" textLength="45" x="428.5" y="450.7734">dfuum</text><path d="M436,463.7266 C436,453.7266 454,453.7266 454,453.7266 C454,453.7266 472,453.7266 472,463.7266 L472,489.7266 C472,499.7266 454,499.7266 454,499.7266 C454,499.7266 436,499.7266 436,489.7266 L436,463.7266 " fill="#E2E2F0" style="stroke:#181818;stroke-width:1.5;"/><path d="M436,463.7266 C436,473.7266 454,473.7266 454,473.7266 C454,473.7266 472,473.7266 472,463.7266 " fill="none" style="stroke:#181818;stroke-width:1.5;"/><rect fill="#FFFFFF" height="53.6211" style="stroke:#FFFFFF;stroke-width:1.0;" width="10" x="50.5" y="77.4883"/><line style="stroke:#181818;stroke-width:1.0;" x1="50.5" x2="50.5" y1="77.4883" y2="131.1094"/><line style="stroke:#181818;stroke-width:1.0;" x1="60.5" x2="60.5" y1="77.4883" y2="131.1094"/><line style="stroke:#181818;stroke-width:1.0;" x1="50.5" x2="60.5" y1="77.4883" y2="77.4883"/><rect fill="#FFFFFF" height="241.1738" style="stroke:#FFFFFF;stroke-width:1.0;" width="10" x="50.5" y="172.0645"/><line style="stroke:#181818;stroke-width:1.0;" x1="50.5" x2="50.5" y1="172.0645" y2="413.2383"/><line style="stroke:#181818;stroke-width:1.0;" x1="60.5" x2="60.5" y1="172.0645" y2="413.2383"/><line style="stroke:#181818;stroke-width:1.0;" x1="50.5" x2="60.5" y1="413.2383" y2="413.2383"/><rect fill="#FFFFFF" height="8" style="stroke:#FFFFFF;stroke-width:1.0;" width="10" x="218.5" y="123.1094"/><line style="stroke:#181818;stroke-width:1.0;" x1="218.5" x2="218.5" y1="123.1094" y2="131.1094"/><line style="stroke:#181818;stroke-width:1.0;" x1="228.5" x2="228.5" y1="123.1094" y2="131.1094"/><line style="stroke:#181818;stroke-width:1.0;" x1="218.5" x2="228.5" y1="123.1094" y2="123.1094"/><rect fill="#FFFFFF" height="6" style="stroke:#FFFFFF;stroke-width:1.0;" width="10" x="218.5" y="172.0645"/><line style="stroke:#181818;stroke-width:1.0;" x1="218.5" x2="218.5" y1="172.0645" y2="178.0645"/><line style="stroke:#181818;stroke-width:1.0;" x1="228.5" x2="228.5" y1="172.0645" y2="178.0645"/><line style="stroke:#181818;stroke-width:1.0;" x1="218.5" x2="228.5" y1="178.0645" y2="178.0645"/><rect fill="#FFFFFF" height="29.3105" style="stroke:#181818;stroke-width:1.0;" width="10" x="218.5" y="231.6855"/><rect fill="#FFFFFF" height="29.3105" style="stroke:#181818;stroke-width:1.0;" width="10" x="218.5" y="290.3066"/><rect fill="#FFFFFF" height="14" style="stroke:#181818;stroke-width:1.0;" width="10" x="218.5" y="355.9277"/><rect fill="#FFFFFF" height="14" style="stroke:#181818;stroke-width:1.0;" width="10" x="218.5" y="399.2383"/><path d="M10,84.4883 L128,84.4883 L128,91.7988 L118,101.7988 L10,101.7988 L10,84.4883 " fill="#EEEEEE" style="stroke:#000000;stroke-width:1.5;"/><rect fill="none" height="336.75" style="stroke:#000000;stroke-width:1.5;" width="428.5" x="10" y="84.4883"/><text fill="#000000" font-family="sans-serif" font-size="13" font-weight="bold" lengthAdjust="spacing" textLength="73" x="25" y="98.0566">loop_lrbnb</text><polygon fill="#181818" points="206.5,119.1094,216.5,123.1094,206.5,127.1094,210.5,123.1094" style="stroke:#181818;stroke-width:1.0;"/><line style="stroke:#181818;stroke-width:1.0;" x1="60.5" x2="212.5" y1="123.1094" y2="123.1094"/><text fill="#000000" font-family="sans-serif" font-size="13" lengthAdjust="spacing" textLength="129" x="67.5" y="118.3672">shbg nxmtju vdyzbb</text><text fill="#000000" font-family="sans-serif" font-size="11" lengthAdjust="spacing" textLength="83" x="213.25" y="155.7441">zxmyxb adlfget</text><polygon fill="#181818" points="71.5,174.0645,61.5,178.0645,71.5,182.0645,67.5,178.0645" style="stroke:#181818;stroke-width:1.0;"/><line style="stroke:#181818;stroke-width:1.0;stroke-dasharray:2.0,2.0;" x1="65.5" x2="222.5" y1="178.0645" y2="178.0645"/><path d="M20,193.0645 L189,193.0645 L189,200.375 L179,210.375 L20,210.375 L20,193.0645 " fill="#EEEEEE" style="stroke:#000000;stroke-width:1.5;"/><rect fill="none" height="134.5527" style="stroke:#000000;stroke-width:1.5;" width="408.5" x="20" y="193.0645"/><text fill="#000000" font-family="sans-serif" font-size="13" font-weight="bold" lengthAdjust="spacing" textLength="124" x="35" y="206.6328">anjfn dingwezbbd</text><polygon fill="#181818" points="206.5,227.6855,216.5,231.6855,206.5,235.6855,210.5,231.6855" style="stroke:#181818;stroke-width:1.0;"/><line style="stroke:#181818;stroke-width:1.0;" x1="60.5" x2="212.5" y1="231.6855" y2="231.6855"/><text fill="#000000" font-family="sans-serif" font-size="13" lengthAdjust="spacing" textLength="84" x="67.5" y="226.9434">qcdqgs bnyvl</text><polygon fill="#181818" points="365.5,256.9961,375.5,260.9961,365.5,264.9961,369.5,260.9961" style="stroke:#181818;stroke-width:1.0;"/><line style="stroke:#181818;stroke-width:1.0;" x1="223.5" x2="371.5" y1="260.9961" y2="260.9961"/><text fill="#000000" font-family="sans-serif" font-size="13" lengthAdjust="spacing" textLength="125" x="230.5" y="256.2539">ncmw bnyvl qcdqgs</text><polygon fill="#181818" points="206.5,286.3066,216.5,290.3066,206.5,294.3066,210.5,290.3066" style="stroke:#181818;stroke-width:1.0;"/><line style="stroke:#181818;stroke-width:1.0;" x1="60.5" x2="212.5" y1="290.3066" y2="290.3066"/><text fill="#000000" font-family="sans-serif" font-size="13" lengthAdjust="spacing" textLength="83" x="67.5" y="285.5645">nzwc husbou</text><polygon fill="#181818" points="365.5,315.6172,375.5,319.6172,365.5,323.6172,369.5,319.6172" style="stroke:#181818;stroke-width:1.0;"/><line style="stroke:#181818;stroke-width:1.0;" x1="223.5" x2="371.5" y1="319.6172" y2="319.6172"/><text fill="#000000" font-family="sans-serif" font-size="13" lengthAdjust="spacing" textLength="124" x="230.5" y="314.875">ncmw husbou nzwc</text><polygon fill="#181818" points="206.5,351.9277,216.5,355.9277,206.5,359.9277,210.5,355.9277" style="stroke:#181818;stroke-width:1.0;"/><line style="stroke:#181818;stroke-width:1.0;" x1="60.5" x2="212.5" y1="355.9277" y2="355.9277"/><text fill="#000000" font-family="sans-serif" font-size="13" lengthAdjust="spacing" textLength="139" x="67.5" y="351.1855">hbki nxmtju yxmekob</text><polygon fill="#181818" points="71.5,365.9277,61.5,369.9277,71.5,373.9277,67.5,369.9277" style="stroke:#181818;stroke-width:1.0;"/><line style="stroke:#181818;stroke-width:1.0;stroke-dasharray:2.0,2.0;" x1="65.5" x2="222.5" y1="369.9277" y2="369.9277"/><polygon fill="#181818" points="206.5,395.2383,216.5,399.2383,206.5,403.2383,210.5,399.2383" style="stroke:#181818;stroke-width:1.0;"/><line style="stroke:#181818;stroke-width:1.0;" x1="60.5" x2="212.5" y1="399.2383" y2="399.2383"/><text fill="#000000" font-family="sans-serif" font-size="13" lengthAdjust="spacing" textLength="98" x="67.5" y="394.4961">hbki deoc nzwc</text><polygon fill="#181818" points="66.5,409.2383,56.5,413.2383,66.5,417.2383,62.5,413.2383" style="stroke:#181818;stroke-width:1.0;"/><line style="stroke:#181818;stroke-width:1.0;stroke-dasharray:2.0,2.0;" x1="60.5" x2="222.5" y1="413.2383" y2="413.2383"/><!--SRC=[dP9BReGm44JtFaLdbHKS81hb194cDuZyQOmPR8DfW-7qOVWa4y4YoSQBTjUhAilFJqtWsd8Wz1DGYCWQ7iX8qt17y7QzlZDqP6Y4siOfwVR7FH-agLAeWcEA4nUyGr15Z9On7NnieFQ- -QY3S89nIQRdX2kKtK_8NdSil41N2WqkMQeYz6gSn8DcDy_pV4fsJ0AugWkDD0zOG8ht17XOtr9mLnKEb75wm1chJinRgLhTWN1ZNnzjzxrPybrvLZbfXrMp0Sv27CtSD4WeOoTy_AFNAbe0fttHdPKhnStiBpicYpT_yhIBx99bNuDVLLdG2hrSC_sB-ZZRVfnYdm00]--></g></svg>