<svg xmlns="http://www.w3.org/2000/svg" xmlns:xlink="http://www.w3.org/1999/xlink" contentStyleType="text/css" height="729px" preserveAspectRatio="none" style="width:730px;height:729px;background:#FFFFFF;" version="1.1" viewBox="0 0 730 729" width="730px" zoomAndPan="magnify"><defs/><g><line style="stroke:#181818;stroke-width:0.5;stroke-dasharray:5.0,5.0;" x1="36" x2="36" y1="36.4883" y2="693.457"/><rect fill="#808000" height="648.9688" style="stroke:#181818;stroke-width:1.0;" width="10" x="31" y="44.4883"/><rect fill="#6B8E23" height="29.3105" style="stroke:#181818;stroke-width:1.0;" width="10" x="36" y="78.7988"/><rect fill="#6B8E23" height="71.6211" style="stroke:#181818;stroke-width:1.0;" width="10" x="36" y="178.7305"/><rect fill="#FFFFFF" height="42.3105" style="stroke:#181818;stroke-width:1.0;" width="10" x="36" y="577.8359"/><line style="stroke:#181818;stroke-width:0.5;stroke-dasharray:5.0,5.0;" x1="225" x2="225" y1="36.4883" y2="693.457"/><rect fill="#808000" height="443.1055" style="stroke:#181818;stroke-width:1.0;" width="10" x="220" y="250.3516"/><rect fill="#6B8E23" height="56.3105" style="stroke:#181818;stroke-width:1.0;" width="10" x="225" y="307.9727"/><line style="stroke:#181818;stroke-width:0.5;stroke-dasharray:5.0,5.0;" x1="416" x2="416" y1="36.4883" y2="693.457"/><rect fill="#808000" height="71.6211" style="stroke:#181818;stroke-width:1.0;" width="10" x="411" y="420.5938"/><line style="stroke:#181818;stroke-width:0.5;stroke-dasharray:5.0,5.0;" x1="573" x2="573" y1="36.4883" y2="693.457"/><rect fill="#808000" height="56.3105" style="stroke:#181818;stroke-width:1.0;" width="10" x="568" y="492.2148"/><rect fill="#E2E2F0" height="30.4883" rx="2.5" ry="2.5" style="stroke:#181818;stroke-width:0.5;" width="62" x="5" y="5"/><text fill="#000000" font-family="sans-serif" font-size="14" lengthAdjust="spacing" textLength="48" x="12" y="25.5352">actor 1</text><rect fill="#E2E2F0" height="30.4883" rx="2.5" ry="2.5" style="stroke:#181818;stroke-width:0.5;" width="62" x="194" y="5"/><text fill="#000000" font-family="sans-serif" font-size="14" lengthAdjust="spacing" textLength="48" x="201" y="25.5352">actor 5</text><rect fill="#E2E2F0" height="30.4883" rx="2.5" ry="2.5" style="stroke:#181818;stroke-width:0.5;" width="114" x="359" y="5"/><text fill="#000000" font-family="sans-serif" font-size="14" lengthAdjust="spacing" textLength="100" x="366" y="25.5352">actor1_func1()</text><rect fill="#E2E2F0" height="30.4883" rx="2.5" ry="2.5" style="stroke:#181818;stroke-width:0.5;" width="114" x="516" y="5"/><text fill="#000000" font-family="sans-serif" font-size="14" lengthAdjust="spacing" textLength="100" x="523" y="25.5352">actor2_func1()</text><rect fill="#E2E2F0" height="30.4883" rx="2.5" ry="2.5" style="stroke:#181818;stroke-width:0.5;" width="62" x="5" y="693.457"/><text fill="#000000" font-family="sans-serif" font-size="14" lengthAdjust="spacing" textLength="48" x="12" y="713.9922">actor 1</text><rect fill="#E2E2F0" height="30.4883" rx="2.5" ry="2.5" style="stroke:#181818;stroke-width:0.5;" width="62" x="194" y="693.457"/><text fill="#000000" font-family="sans-serif" font-size="14" lengthAdjust="spacing" textLength="48" x="201" y="713.9922">actor 5</text><rect fill="#E2E2F0" height="30.4883" rx="2.5" ry="2.5" style="stroke:#181818;stroke-width:0.5;" width="114" x="359" y="693.457"/><text fill="#000000" font-family="sans-serif" font-size="14" lengthAdjust="spacing" textLength="100" x="366" y="713.9922">actor1_func1()</text><rect fill="#E2E2F0" height="30.4883" rx="2.5" ry="2.5" style="stroke:#181818;stroke-width:0.5;" width="114" x="516" y="693.457"/><text fill="#000000" font-family="sans-serif" font-size="14" lengthAdjust="spacing" textLength="100" x="523" y="713.9922">actor2_func1()</text><line style="stroke:#181818;stroke-width:1.0;" x1="41" x2="88" y1="65.7988" y2="65.7988"/><line style="stroke:#181818;stroke-width:1.0;" x1="88" x2="88" y1="65.7988" y2="78.7988"/><line style="stroke:#181818;stroke-width:1.0;" x1="47" x2="88" y1="78.7988" y2="78.7988"/><polygon fill="#181818" points="57,74.7988,47,78.7988,57,82.7988,53,78.7988" style="stroke:#181818;stroke-width:1.0;"/><text fill="#000000" font-family="sans-serif" font-size="13" lengthAdjust="spacing" textLength="98" x="53" y="61.0566">actor1 activity1</text><line style="stroke:#181818;stroke-width:1.0;" x1="46" x2="88" y1="108.1094" y2="108.1094"/><line style="stroke:#181818;stroke-width:1.0;" x1="88" x2="88" y1="108.1094" y2="121.1094"/><line style="stroke:#181818;stroke-width:1.0;" x1="41" x2="88" y1="121.1094" y2="121.1094"/><polygon fill="#181818" points="51,117.1094,41,121.1094,51,125.1094,47,121.1094" style="stroke:#181818;stroke-width:1.0;"/><text fill="#000000" font-family="sans-serif" font-size="13" lengthAdjust="spacing" textLength="129" x="53" y="103.3672">actor1 sub-activity1</text><line style="stroke:#181818;stroke-width:1.0;" x1="41" x2="88" y1="165.7305" y2="165.7305"/><line style="stroke:#181818;stroke-width:1.0;" x1="88" x2="88" y1="165.7305" y2="178.7305"/><line style="stroke:#181818;stroke-width:1.0;" x1="47" x2="88" y1="178.7305" y2="178.7305"/><polygon fill="#181818" points="57,174.7305,47,178.7305,57,182.7305,53,178.7305" style="stroke:#181818;stroke-width:1.0;"/><text fill="#000000" font-family="sans-serif" font-size="13" lengthAdjust="spacing" textLength="98" x="53" y="145.6777">actor1 activity2</text><text fill="#000000" font-family="sans-serif" font-size="13" lengthAdjust="spacing" textLength="110" x="53" y="160.9883">actor1 summary1</text><line style="stroke:#181818;stroke-width:1.0;" x1="46" x2="88" y1="223.3516" y2="223.3516"/><line style="stroke:#181818;stroke-width:1.0;" x1="88" x2="88" y1="223.3516" y2="236.3516"/><line style="stroke:#181818;stroke-width:1.0;" x1="47" x2="88" y1="236.3516" y2="236.3516"/><polygon fill="#181818" points="57,232.3516,47,236.3516,57,240.3516,53,236.3516" style="stroke:#181818;stroke-width:1.0;"/><text fill="#000000" font-family="sans-serif" font-size="13" lengthAdjust="spacing" textLength="129" x="53" y="203.2988">actor1 sub-activity2</text><text fill="#000000" font-family="sans-serif" font-size="13" lengthAdjust="spacing" textLength="129" x="53" y="218.6094">actor1 sub-activity3</text><polygon fill="#181818" points="208,246.3516,218,250.3516,208,254.3516,212,250.3516" style="stroke:#181818;stroke-width:1.0;"/><line style="stroke:#181818;stroke-width:1.0;" x1="46" x2="214" y1="250.3516" y2="250.3516"/><line style="stroke:#181818;stroke-width:1.0;" x1="230" x2="277" y1="294.9727" y2="294.9727"/><line style="stroke:#181818;stroke-width:1.0;" x1="277" x2="277" y1="294.9727" y2="307.9727"/><line style="stroke:#181818;stroke-width:1.0;" x1="236" x2="277" y1="307.9727" y2="307.9727"/><polygon fill="#181818" points="246,303.9727,236,307.9727,246,311.9727,242,307.9727" style="stroke:#181818;stroke-width:1.0;"/><text fill="#000000" font-family="sans-serif" font-size="13" lengthAdjust="spacing" textLength="136" x="242" y="274.9199">general func activity1</text><text fill="#000000" font-family="sans-serif" font-size="13" lengthAdjust="spacing" textLength="136" x="242" y="290.2305">general func activity2</text><line style="stroke:#181818;stroke-width:1.0;" x1="235" x2="277" y1="337.2832" y2="337.2832"/><line style="stroke:#181818;stroke-width:1.0;" x1="277" x2="277" y1="337.2832" y2="350.2832"/><line style="stroke:#181818;stroke-width:1.0;" x1="236" x2="277" y1="350.2832" y2="350.2832"/><polygon fill="#181818" points="246,346.2832,236,350.2832,246,354.2832,242,350.2832" style="stroke:#181818;stroke-width:1.0;"/><text fill="#000000" font-family="sans-serif" font-size="13" lengthAdjust="spacing" textLength="167" x="242" y="332.541">general func sub-activity1</text><polygon fill="#181818" points="52,360.2832,42,364.2832,52,368.2832,48,364.2832" style="stroke:#181818;stroke-width:1.0;"/><line style="stroke:#181818;stroke-width:1.0;" x1="46" x2="224" y1="364.2832" y2="364.2832"/><line style="stroke:#181818;stroke-width:1.0;" x1="46" x2="88" y1="393.5938" y2="393.5938"/><line style="stroke:#181818;stroke-width:1.0;" x1="88" x2="88" y1="393.5938" y2="406.5938"/><line style="stroke:#181818;stroke-width:1.0;" x1="47" x2="88" y1="406.5938" y2="406.5938"/><polygon fill="#181818" points="57,402.5938,47,406.5938,57,410.5938,53,406.5938" style="stroke:#181818;stroke-width:1.0;"/><text fill="#000000" font-family="sans-serif" font-size="13" lengthAdjust="spacing" textLength="141" x="53" y="388.8516">actor1 sub-summary1</text><polygon fill="#181818" points="399,416.5938,409,420.5938,399,424.5938,403,420.5938" style="stroke:#181818;stroke-width:1.0;"/><line style="stroke:#181818;stroke-width:1.0;" x1="46" x2="405" y1="420.5938" y2="420.5938"/><line style="stroke:#181818;stroke-width:1.0;" x1="421" x2="463" y1="465.2148" y2="465.2148"/><line style="stroke:#181818;stroke-width:1.0;" x1="463" x2="463" y1="465.2148" y2="478.2148"/><line style="stroke:#181818;stroke-width:1.0;" x1="422" x2="463" y1="478.2148" y2="478.2148"/><polygon fill="#181818" points="432,474.2148,422,478.2148,432,482.2148,428,478.2148" style="stroke:#181818;stroke-width:1.0;"/><text fill="#000000" font-family="sans-serif" font-size="13" lengthAdjust="spacing" textLength="138" x="428" y="445.1621">actor1 func1 activity1</text><text fill="#000000" font-family="sans-serif" font-size="13" lengthAdjust="spacing" textLength="138" x="428" y="460.4727">actor1 func1 activity2</text><polygon fill="#181818" points="556,488.2148,566,492.2148,556,496.2148,560,492.2148" style="stroke:#181818;stroke-width:1.0;"/><line style="stroke:#181818;stroke-width:1.0;" x1="421" x2="562" y1="492.2148" y2="492.2148"/><line style="stroke:#181818;stroke-width:1.0;" x1="578" x2="620" y1="521.5254" y2="521.5254"/><line style="stroke:#181818;stroke-width:1.0;" x1="620" x2="620" y1="521.5254" y2="534.5254"/><line style="stroke:#181818;stroke-width:1.0;" x1="579" x2="620" y1="534.5254" y2="534.5254"/><polygon fill="#181818" points="589,530.5254,579,534.5254,589,538.5254,585,534.5254" style="stroke:#181818;stroke-width:1.0;"/><text fill="#000000" font-family="sans-serif" font-size="13" lengthAdjust="spacing" textLength="138" x="585" y="516.7832">actor2 func1 activity1</text><polygon fill="#181818" points="52,544.5254,42,548.5254,52,552.5254,48,548.5254" style="stroke:#181818;stroke-width:1.0;"/><line style="stroke:#181818;stroke-width:1.0;" x1="46" x2="567" y1="548.5254" y2="548.5254"/><line style="stroke:#181818;stroke-width:1.0;" x1="51" x2="93" y1="577.8359" y2="577.8359"/><line style="stroke:#181818;stroke-width:1.0;" x1="93" x2="93" y1="577.8359" y2="590.8359"/><line style="stroke:#181818;stroke-width:1.0;" x1="46" x2="93" y1="590.8359" y2="590.8359"/><polygon fill="#181818" points="56,586.8359,46,590.8359,56,594.8359,52,590.8359" style="stroke:#181818;stroke-width:1.0;"/><text fill="#000000" font-family="sans-serif" font-size="13" lengthAdjust="spacing" textLength="160" x="58" y="573.0938">actor1 sub-sub-activity1</text><line style="stroke:#181818;stroke-width:1.0;" x1="46" x2="88" y1="620.1465" y2="620.1465"/><line style="stroke:#181818;stroke-width:1.0;" x1="88" x2="88" y1="620.1465" y2="633.1465"/><line style="stroke:#181818;stroke-width:1.0;" x1="41" x2="88" y1="633.1465" y2="633.1465"/><polygon fill="#181818" points="51,629.1465,41,633.1465,51,637.1465,47,633.1465" style="stroke:#181818;stroke-width:1.0;"/><text fill="#000000" font-family="sans-serif" font-size="13" lengthAdjust="spacing" textLength="129" x="53" y="615.4043">actor1 sub-activity4</text><line style="stroke:#181818;stroke-width:1.0;" x1="41" x2="83" y1="662.457" y2="662.457"/><line style="stroke:#181818;stroke-width:1.0;" x1="83" x2="83" y1="662.457" y2="675.457"/><line style="stroke:#181818;stroke-width:1.0;" x1="42" x2="83" y1="675.457" y2="675.457"/><polygon fill="#181818" points="52,671.457,42,675.457,52,679.457,48,675.457" style="stroke:#181818;stroke-width:1.0;"/><text fill="#000000" font-family="sans-serif" font-size="13" lengthAdjust="spacing" textLength="98" x="48" y="657.7148">actor1 activity3</text><!--SRC=[jLGzRuCm4Dtv5LSoq0uCDh0mTAhKgUhGDL9bu48jnIRrHwJqrvUI50CrD1BjPZtVlNldz-IRWsArO62m-G2ZB0OHrzeYR98q3Q8W0W8nw4OWiDBm8pEyaR3d4ZLeF33535PGd42Wrgn6tVPS2X72zjGe825idlVyY843udjtcqDt8kS9t9p8FCM3OiLlDDeMiQEgy2VPjKBeLlQSGZ3rbyg6t0vDl1HP2Bb_4IyuXRAf0TcOF8SQ9IgsXvsLfRDXAxqudHymV8Jb8MEJV2t4ltGM-i4kh7Gsh5osUNstA4jSZEXgV_kaU6h9wzVkvFPkbPy3bf6j0zmpiHVP0KEJlJXT8AMBQxYEgN0w8vmkphW8frFX2yqpsN6bvxGatsdPMMNUKFrNQdotJrXnArwGFIf4ULsmrdvhGuPqrSUOV080]--></g></svg>