<svg xmlns="http://www.w3.org/2000/svg" xmlns:xlink="http://www.w3.org/1999/xlink" contentStyleType="text/css" height="180px" preserveAspectRatio="none" style="width:191px;height:180px;background:#FFFFFF;" version="1.1" viewBox="0 0 191 180" width="191px" zoomAndPan="magnify"><defs/><g><line style="stroke:#181818;stroke-width:0.5;stroke-dasharray:5.0,5.0;" x1="16.8296" x2="16.8296" y1="36.4883" y2="143.7305"/><line style="stroke:#181818;stroke-width:0.5;stroke-dasharray:5.0,5.0;" x1="98.8452" x2="98.8452" y1="36.4883" y2="143.7305"/><rect fill="#FFFFFF" height="44.6211" style="stroke:#181818;stroke-width:1.0;" width="10" x="93.8452" y="81.1094"/><line style="stroke:#181818;stroke-width:0.5;stroke-dasharray:5.0,5.0;" x1="136.0654" x2="136.0654" y1="36.4883" y2="143.7305"/><rect fill="#FFFFFF" height="44.6211" style="stroke:#181818;stroke-width:1.0;" width="10" x="131.0654" y="81.1094"/><line style="stroke:#181818;stroke-width:0.5;stroke-dasharray:5.0,5.0;" x1="173.2856" x2="173.2856" y1="36.4883" y2="143.7305"/><rect fill="#FFFFFF" height="44.6211" style="stroke:#181818;stroke-width:1.0;" width="10" x="168.2856" y="81.1094"/><rect fill="#E2E2F0" height="30.4883" rx="2.5" ry="2.5" style="stroke:#181818;stroke-width:0.5;" width="23.6592" x="5" y="5"/><text fill="#000000" font-family="sans-serif" font-size="14" lengthAdjust="spacing" textLength="9.6592" x="12" y="25.5352">A</text><rect fill="#E2E2F0" height="30.4883" rx="2.5" ry="2.5" style="stroke:#181818;stroke-width:0.5;" width="22.0527" x="87.8188" y="5"/><text fill="#000000" font-family="sans-serif" font-size="14" lengthAdjust="spacing" textLength="8.0527" x="94.8188" y="25.5352">B</text><rect fill="#E2E2F0" height="30.4883" rx="2.5" ry="2.5" style="stroke:#181818;stroke-width:0.5;" width="23.6865" x="124.2222" y="5"/><text fill="#000000" font-family="sans-serif" font-size="14" lengthAdjust="spacing" textLength="9.6865" x="131.2222" y="25.5352">C</text><rect fill="#E2E2F0" height="30.4883" rx="2.5" ry="2.5" style="stroke:#181818;stroke-width:0.5;" width="24.4863" x="161.0425" y="5"/><text fill="#000000" font-family="sans-serif" font-size="14" lengthAdjust="spacing" textLength="10.4863" x="168.0425" y="25.5352">D</text><rect fill="#E2E2F0" height="30.4883" rx="2.5" ry="2.5" style="stroke:#181818;stroke-width:0.5;" width="23.6592" x="5" y="143.7305"/><text fill="#000000" font-family="sans-serif" font-size="14" lengthAdjust="spacing" textLength="9.6592" x="12" y="164.2656">A</text><rect fill="#E2E2F0" height="30.4883" rx="2.5" ry="2.5" style="stroke:#181818;stroke-width:0.5;" width="22.0527" x="87.8188" y="143.7305"/><text fill="#000000" font-family="sans-serif" font-size="14" lengthAdjust="spacing" textLength="8.0527" x="94.8188" y="164.2656">B</text><rect fill="#E2E2F0" height="30.4883" rx="2.5" ry="2.5" style="stroke:#181818;stroke-width:0.5;" width="23.6865" x="124.2222" y="143.7305"/><text fill="#000000" font-family="sans-serif" font-size="14" lengthAdjust="spacing" textLength="9.6865" x="131.2222" y="164.2656">C</text><rect fill="#E2E2F0" height="30.4883" rx="2.5" ry="2.5" style="stroke:#181818;stroke-width:0.5;" width="24.4863" x="161.0425" y="143.7305"/><text fill="#000000" font-family="sans-serif" font-size="14" lengthAdjust="spacing" textLength="10.4863" x="168.0425" y="164.2656">D</text><polygon fill="#181818" points="81.8452,77.1094,91.8452,81.1094,81.8452,85.1094,85.8452,81.1094" style="stroke:#181818;stroke-width:1.0;"/><line style="stroke:#181818;stroke-width:1.0;" x1="16.8296" x2="87.8452" y1="81.1094" y2="81.1094"/><text fill="#000000" font-family="sans-serif" font-size="13" lengthAdjust="spacing" textLength="53.0156" x="23.8296" y="76.3672">Get data</text><polygon fill="#181818" points="119.0654,77.1094,129.0654,81.1094,119.0654,85.1094,123.0654,81.1094" style="stroke:#181818;stroke-width:1.0;"/><line style="stroke:#181818;stroke-width:1.0;" x1="103.8452" x2="125.0654" y1="81.1094" y2="81.1094"/><text fill="#000000" font-family="sans-serif" font-size="13" lengthAdjust="spacing" textLength="7.1792" x="110.8452" y="61.0566">a</text><text fill="#000000" font-family="sans-serif" font-size="13" lengthAdjust="spacing" textLength="8.2202" x="110.8452" y="76.3672">2</text><polygon fill="#181818" points="156.2856,77.1094,166.2856,81.1094,156.2856,85.1094,160.2856,81.1094" style="stroke:#181818;stroke-width:1.0;"/><line style="stroke:#181818;stroke-width:1.0;" x1="141.0654" x2="162.2856" y1="81.1094" y2="81.1094"/><line style="stroke:#181818;stroke-width:1.0;" x1="17.8296" x2="27.8296" y1="125.7305" y2="121.7305"/><line style="stroke:#181818;stroke-width:1.0;" x1="17.8296" x2="27.8296" y1="125.7305" y2="129.7305"/><line style="stroke:#181818;stroke-width:1.0;stroke-dasharray:2.0,2.0;" x1="16.8296" x2="92.8452" y1="125.7305" y2="125.7305"/><text fill="#000000" font-family="sans-serif" font-size="13" lengthAdjust="spacing" textLength="28.958" x="33.8296" y="120.9883">Data</text><line style="stroke:#181818;stroke-width:1.0;" x1="17.8296" x2="27.8296" y1="125.7305" y2="121.7305"/><line style="stroke:#181818;stroke-width:1.0;" x1="17.8296" x2="27.8296" y1="125.7305" y2="129.7305"/><line style="stroke:#181818;stroke-width:1.0;stroke-dasharray:2.0,2.0;" x1="16.8296" x2="130.0654" y1="125.7305" y2="125.7305"/><line style="stroke:#181818;stroke-width:1.0;" x1="137.0654" x2="147.0654" y1="125.7305" y2="121.7305"/><line style="stroke:#181818;stroke-width:1.0;" x1="137.0654" x2="147.0654" y1="125.7305" y2="129.7305"/><line style="stroke:#181818;stroke-width:1.0;stroke-dasharray:2.0,2.0;" x1="136.0654" x2="167.2856" y1="125.7305" y2="125.7305"/><text fill="#000000" font-family="sans-serif" font-size="13" lengthAdjust="spacing" textLength="7.1792" x="153.0654" y="105.6777">a</text><text fill="#000000" font-family="sans-serif" font-size="13" lengthAdjust="spacing" textLength="8.2202" x="153.0654" y="120.9883">2</text><!--SRC=[KomeIapFJLGeISslKYWfAatbKlSiBYvDLL0sCpLJqDLLoCrFoKpBJ4tXSbJGjLDmqjQsKd1FBL58IIn9v59JS089EWC54sFoZ81yPn3V1SZd0ihesjafEEhgMYcuG1Gx8uI0F1S8pnd80sa60000]--></g></svg>