<svg xmlns="http://www.w3.org/2000/svg" xmlns:xlink="http://www.w3.org/1999/xlink" contentStyleType="text/css" height="730px" preserveAspectRatio="none" style="width:790px;height:730px;background:#FFFFFF;" version="1.1" viewBox="0 0 790 730" width="790px" zoomAndPan="magnify"><defs/><g><rect fill="#808000" height="205.8633" style="stroke:#181818;stroke-width:1.0;" width="10" x="31" y="46.4883"/><rect fill="#6B8E23" height="40.3105" style="stroke:#181818;stroke-width:1.0;" width="10" x="36" y="75.7988"/><rect fill="#6B8E23" height="76.6211" style="stroke:#181818;stroke-width:1.0;" width="10" x="36" y="175.7305"/><rect fill="#808000" height="56.3105" style="stroke:#181818;stroke-width:1.0;" width="10" x="31" y="366.2832"/><rect fill="#6B8E23" height="56.3105" style="stroke:#181818;stroke-width:1.0;" width="10" x="36" y="366.2832"/><rect fill="#808000" height="135.9316" style="stroke:#181818;stroke-width:1.0;" width="10" x="31" y="550.5254"/><rect fill="#6B8E23" height="77.6211" style="stroke:#181818;stroke-width:1.0;" width="10" x="36" y="550.5254"/><rect fill="#3CB371" height="35.3105" style="stroke:#181818;stroke-width:1.0;" width="10" x="41" y="550.5254"/><rect fill="#808000" height="113.9316" style="stroke:#181818;stroke-width:1.0;" width="10" x="245" y="252.3516"/><rect fill="#6B8E23" height="61.3105" style="stroke:#181818;stroke-width:1.0;" width="10" x="250" y="304.9727"/><rect fill="#808000" height="71.6211" style="stroke:#181818;stroke-width:1.0;" width="10" x="456" y="422.5938"/><rect fill="#808000" height="56.3105" style="stroke:#181818;stroke-width:1.0;" width="10" x="628" y="494.2148"/><line style="stroke:#181818;stroke-width:0.5;stroke-dasharray:5.0,5.0;" x1="36" x2="36" y1="36.4883" y2="695.457"/><line style="stroke:#181818;stroke-width:0.5;stroke-dasharray:5.0,5.0;" x1="250" x2="250" y1="36.4883" y2="695.457"/><line style="stroke:#181818;stroke-width:0.5;stroke-dasharray:5.0,5.0;" x1="461" x2="461" y1="36.4883" y2="695.457"/><line style="stroke:#181818;stroke-width:0.5;stroke-dasharray:5.0,5.0;" x1="633" x2="633" y1="36.4883" y2="695.457"/><rect fill="#E2E2F0" height="30.4883" rx="2.5" ry="2.5" style="stroke:#181818;stroke-width:0.5;" width="62" x="5" y="5"/><text fill="#000000" font-family="sans-serif" font-size="14" lengthAdjust="spacing" textLength="48" x="12" y="25.5352">actor 1</text><rect fill="#E2E2F0" height="30.4883" rx="2.5" ry="2.5" style="stroke:#181818;stroke-width:0.5;" width="62" x="5" y="694.457"/><text fill="#000000" font-family="sans-serif" font-size="14" lengthAdjust="spacing" textLength="48" x="12" y="714.9922">actor 1</text><rect fill="#E2E2F0" height="30.4883" rx="2.5" ry="2.5" style="stroke:#181818;stroke-width:0.5;" width="62" x="219" y="5"/><text fill="#000000" font-family="sans-serif" font-size="14" lengthAdjust="spacing" textLength="48" x="226" y="25.5352">actor 5</text><rect fill="#E2E2F0" height="30.4883" rx="2.5" ry="2.5" style="stroke:#181818;stroke-width:0.5;" width="62" x="219" y="694.457"/><text fill="#000000" font-family="sans-serif" font-size="14" lengthAdjust="spacing" textLength="48" x="226" y="714.9922">actor 5</text><rect fill="#E2E2F0" height="30.4883" rx="2.5" ry="2.5" style="stroke:#181818;stroke-width:0.5;" width="114" x="404" y="5"/><text fill="#000000" font-family="sans-serif" font-size="14" lengthAdjust="spacing" textLength="100" x="411" y="25.5352">actor1_func1()</text><rect fill="#E2E2F0" height="30.4883" rx="2.5" ry="2.5" style="stroke:#181818;stroke-width:0.5;" width="114" x="404" y="694.457"/><text fill="#000000" font-family="sans-serif" font-size="14" lengthAdjust="spacing" textLength="100" x="411" y="714.9922">actor1_func1()</text><rect fill="#E2E2F0" height="30.4883" rx="2.5" ry="2.5" style="stroke:#181818;stroke-width:0.5;" width="114" x="576" y="5"/><text fill="#000000" font-family="sans-serif" font-size="14" lengthAdjust="spacing" textLength="100" x="583" y="25.5352">actor2_func1()</text><rect fill="#E2E2F0" height="30.4883" rx="2.5" ry="2.5" style="stroke:#181818;stroke-width:0.5;" width="114" x="576" y="694.457"/><text fill="#000000" font-family="sans-serif" font-size="14" lengthAdjust="spacing" textLength="100" x="583" y="714.9922">actor2_func1()</text><rect fill="#808000" height="205.8633" style="stroke:#181818;stroke-width:1.0;" width="10" x="31" y="46.4883"/><rect fill="#6B8E23" height="40.3105" style="stroke:#181818;stroke-width:1.0;" width="10" x="36" y="75.7988"/><rect fill="#6B8E23" height="76.6211" style="stroke:#181818;stroke-width:1.0;" width="10" x="36" y="175.7305"/><rect fill="#808000" height="56.3105" style="stroke:#181818;stroke-width:1.0;" width="10" x="31" y="366.2832"/><rect fill="#6B8E23" height="56.3105" style="stroke:#181818;stroke-width:1.0;" width="10" x="36" y="366.2832"/><rect fill="#808000" height="135.9316" style="stroke:#181818;stroke-width:1.0;" width="10" x="31" y="550.5254"/><rect fill="#6B8E23" height="77.6211" style="stroke:#181818;stroke-width:1.0;" width="10" x="36" y="550.5254"/><rect fill="#3CB371" height="35.3105" style="stroke:#181818;stroke-width:1.0;" width="10" x="41" y="550.5254"/><rect fill="#808000" height="113.9316" style="stroke:#181818;stroke-width:1.0;" width="10" x="245" y="252.3516"/><rect fill="#6B8E23" height="61.3105" style="stroke:#181818;stroke-width:1.0;" width="10" x="250" y="304.9727"/><rect fill="#808000" height="71.6211" style="stroke:#181818;stroke-width:1.0;" width="10" x="456" y="422.5938"/><rect fill="#808000" height="56.3105" style="stroke:#181818;stroke-width:1.0;" width="10" x="628" y="494.2148"/><line style="stroke:#181818;stroke-width:1.0;" x1="41" x2="88" y1="62.7988" y2="62.7988"/><line style="stroke:#181818;stroke-width:1.0;" x1="88" x2="88" y1="62.7988" y2="75.7988"/><line style="stroke:#181818;stroke-width:1.0;" x1="47" x2="88" y1="75.7988" y2="75.7988"/><polygon fill="#181818" points="57,71.7988,47,75.7988,57,79.7988,53,75.7988" style="stroke:#181818;stroke-width:1.0;"/><text fill="#000000" font-family="sans-serif" font-size="13" lengthAdjust="spacing" textLength="98" x="53" y="58.0566">actor1 activity1</text><line style="stroke:#181818;stroke-width:1.0;" x1="46" x2="88" y1="115.1094" y2="115.1094"/><line style="stroke:#181818;stroke-width:1.0;" x1="88" x2="88" y1="115.1094" y2="128.1094"/><line style="stroke:#181818;stroke-width:1.0;" x1="41" x2="88" y1="128.1094" y2="128.1094"/><polygon fill="#181818" points="51,124.1094,41,128.1094,51,132.1094,47,128.1094" style="stroke:#181818;stroke-width:1.0;"/><text fill="#000000" font-family="sans-serif" font-size="13" lengthAdjust="spacing" textLength="129" x="53" y="110.3672">actor1 sub-activity1</text><line style="stroke:#181818;stroke-width:1.0;" x1="41" x2="88" y1="162.7305" y2="162.7305"/><line style="stroke:#181818;stroke-width:1.0;" x1="88" x2="88" y1="162.7305" y2="175.7305"/><line style="stroke:#181818;stroke-width:1.0;" x1="47" x2="88" y1="175.7305" y2="175.7305"/><polygon fill="#181818" points="57,171.7305,47,175.7305,57,179.7305,53,175.7305" style="stroke:#181818;stroke-width:1.0;"/><text fill="#000000" font-family="sans-serif" font-size="13" lengthAdjust="spacing" textLength="98" x="53" y="142.6777">actor1 activity2</text><text fill="#000000" font-family="sans-serif" font-size="13" lengthAdjust="spacing" textLength="110" x="53" y="157.9883">actor1 summary1</text><line style="stroke:#181818;stroke-width:1.0;" x1="46" x2="88" y1="225.3516" y2="225.3516"/><line style="stroke:#181818;stroke-width:1.0;" x1="88" x2="88" y1="225.3516" y2="238.3516"/><line style="stroke:#181818;stroke-width:1.0;" x1="47" x2="88" y1="238.3516" y2="238.3516"/><polygon fill="#181818" points="57,234.3516,47,238.3516,57,242.3516,53,238.3516" style="stroke:#181818;stroke-width:1.0;"/><text fill="#000000" font-family="sans-serif" font-size="13" lengthAdjust="spacing" textLength="129" x="53" y="205.2988">actor1 sub-activity2</text><text fill="#000000" font-family="sans-serif" font-size="13" lengthAdjust="spacing" textLength="129" x="53" y="220.6094">actor1 sub-activity3</text><polygon fill="#181818" points="233,248.3516,243,252.3516,233,256.3516,237,252.3516" style="stroke:#181818;stroke-width:1.0;"/><line style="stroke:#181818;stroke-width:1.0;" x1="36" x2="239" y1="252.3516" y2="252.3516"/><line style="stroke:#181818;stroke-width:1.0;" x1="255" x2="302" y1="291.9727" y2="291.9727"/><line style="stroke:#181818;stroke-width:1.0;" x1="302" x2="302" y1="291.9727" y2="304.9727"/><line style="stroke:#181818;stroke-width:1.0;" x1="261" x2="302" y1="304.9727" y2="304.9727"/><polygon fill="#181818" points="271,300.9727,261,304.9727,271,308.9727,267,304.9727" style="stroke:#181818;stroke-width:1.0;"/><text fill="#000000" font-family="sans-serif" font-size="13" lengthAdjust="spacing" textLength="136" x="267" y="271.9199">general func activity1</text><text fill="#000000" font-family="sans-serif" font-size="13" lengthAdjust="spacing" textLength="136" x="267" y="287.2305">general func activity2</text><line style="stroke:#181818;stroke-width:1.0;" x1="260" x2="302" y1="339.2832" y2="339.2832"/><line style="stroke:#181818;stroke-width:1.0;" x1="302" x2="302" y1="339.2832" y2="352.2832"/><line style="stroke:#181818;stroke-width:1.0;" x1="261" x2="302" y1="352.2832" y2="352.2832"/><polygon fill="#181818" points="271,348.2832,261,352.2832,271,356.2832,267,352.2832" style="stroke:#181818;stroke-width:1.0;"/><text fill="#000000" font-family="sans-serif" font-size="13" lengthAdjust="spacing" textLength="167" x="267" y="334.541">general func sub-activity1</text><polygon fill="#181818" points="57,362.2832,47,366.2832,57,370.2832,53,366.2832" style="stroke:#181818;stroke-width:1.0;"/><line style="stroke:#181818;stroke-width:1.0;" x1="51" x2="249" y1="366.2832" y2="366.2832"/><line style="stroke:#181818;stroke-width:1.0;" x1="46" x2="88" y1="395.5938" y2="395.5938"/><line style="stroke:#181818;stroke-width:1.0;" x1="88" x2="88" y1="395.5938" y2="408.5938"/><line style="stroke:#181818;stroke-width:1.0;" x1="47" x2="88" y1="408.5938" y2="408.5938"/><polygon fill="#181818" points="57,404.5938,47,408.5938,57,412.5938,53,408.5938" style="stroke:#181818;stroke-width:1.0;"/><text fill="#000000" font-family="sans-serif" font-size="13" lengthAdjust="spacing" textLength="141" x="53" y="390.8516">actor1 sub-summary1</text><polygon fill="#181818" points="444,418.5938,454,422.5938,444,426.5938,448,422.5938" style="stroke:#181818;stroke-width:1.0;"/><line style="stroke:#181818;stroke-width:1.0;" x1="36" x2="450" y1="422.5938" y2="422.5938"/><line style="stroke:#181818;stroke-width:1.0;" x1="466" x2="508" y1="467.2148" y2="467.2148"/><line style="stroke:#181818;stroke-width:1.0;" x1="508" x2="508" y1="467.2148" y2="480.2148"/><line style="stroke:#181818;stroke-width:1.0;" x1="467" x2="508" y1="480.2148" y2="480.2148"/><polygon fill="#181818" points="477,476.2148,467,480.2148,477,484.2148,473,480.2148" style="stroke:#181818;stroke-width:1.0;"/><text fill="#000000" font-family="sans-serif" font-size="13" lengthAdjust="spacing" textLength="138" x="473" y="447.1621">actor1 func1 activity1</text><text fill="#000000" font-family="sans-serif" font-size="13" lengthAdjust="spacing" textLength="138" x="473" y="462.4727">actor1 func1 activity2</text><polygon fill="#181818" points="616,490.2148,626,494.2148,616,498.2148,620,494.2148" style="stroke:#181818;stroke-width:1.0;"/><line style="stroke:#181818;stroke-width:1.0;" x1="461" x2="622" y1="494.2148" y2="494.2148"/><line style="stroke:#181818;stroke-width:1.0;" x1="638" x2="680" y1="523.5254" y2="523.5254"/><line style="stroke:#181818;stroke-width:1.0;" x1="680" x2="680" y1="523.5254" y2="536.5254"/><line style="stroke:#181818;stroke-width:1.0;" x1="639" x2="680" y1="536.5254" y2="536.5254"/><polygon fill="#181818" points="649,532.5254,639,536.5254,649,540.5254,645,536.5254" style="stroke:#181818;stroke-width:1.0;"/><text fill="#000000" font-family="sans-serif" font-size="13" lengthAdjust="spacing" textLength="138" x="645" y="518.7832">actor2 func1 activity1</text><polygon fill="#181818" points="62,546.5254,52,550.5254,62,554.5254,58,550.5254" style="stroke:#181818;stroke-width:1.0;"/><line style="stroke:#181818;stroke-width:1.0;" x1="56" x2="632" y1="550.5254" y2="550.5254"/><line style="stroke:#181818;stroke-width:1.0;" x1="51" x2="93" y1="584.8359" y2="584.8359"/><line style="stroke:#181818;stroke-width:1.0;" x1="93" x2="93" y1="584.8359" y2="597.8359"/><line style="stroke:#181818;stroke-width:1.0;" x1="46" x2="93" y1="597.8359" y2="597.8359"/><polygon fill="#181818" points="56,593.8359,46,597.8359,56,601.8359,52,597.8359" style="stroke:#181818;stroke-width:1.0;"/><text fill="#000000" font-family="sans-serif" font-size="13" lengthAdjust="spacing" textLength="160" x="58" y="580.0938">actor1 sub-sub-activity1</text><line style="stroke:#181818;stroke-width:1.0;" x1="46" x2="88" y1="627.1465" y2="627.1465"/><line style="stroke:#181818;stroke-width:1.0;" x1="88" x2="88" y1="627.1465" y2="640.1465"/><line style="stroke:#181818;stroke-width:1.0;" x1="41" x2="88" y1="640.1465" y2="640.1465"/><polygon fill="#181818" points="51,636.1465,41,640.1465,51,644.1465,47,640.1465" style="stroke:#181818;stroke-width:1.0;"/><text fill="#000000" font-family="sans-serif" font-size="13" lengthAdjust="spacing" textLength="129" x="53" y="622.4043">actor1 sub-activity4</text><line style="stroke:#181818;stroke-width:1.0;" x1="41" x2="83" y1="664.457" y2="664.457"/><line style="stroke:#181818;stroke-width:1.0;" x1="83" x2="83" y1="664.457" y2="677.457"/><line style="stroke:#181818;stroke-width:1.0;" x1="42" x2="83" y1="677.457" y2="677.457"/><polygon fill="#181818" points="52,673.457,42,677.457,52,681.457,48,677.457" style="stroke:#181818;stroke-width:1.0;"/><text fill="#000000" font-family="sans-serif" font-size="13" lengthAdjust="spacing" textLength="98" x="48" y="659.7148">actor1 activity3</text><!--SRC=[jLInJiCm4Dtp5KSO0aC6EsJ9m8J4X1XOAo4dkGPBjLDifrBvUa9QOYSufb9WivxlthtpUt9ojLUi4GmCjXzWL8TH4YL080NT2WHM6NvWXhSITboY1erxffZ16ieZ2DIQDQZxddCXGjoVMWKaXkld7JzWP87qtjuMC9p8QG8tHx9CyQ1O-HkDxihKKjNua-nI8NGZHquXcFfBPIwtHJClHHv3uL_42ywXV6v0FYKle469YkrWsydAsh2HNfmk3t0V8JnaQfAlXVYNpcC_E8ILBeQLopwlxntA2eCHNUtlc1HFBNdzsftStAxoqs6PsEhWdecZo05mJVRYD41AWslOZhbmkY2S1cUSXTEvy43pGdPiwIajsNTQjfqoRwZ-ApM-soUiUITUa3qgH7bPiDP-Qox3tQgFCVi4]--></g></svg>