<svg xmlns="http://www.w3.org/2000/svg" xmlns:xlink="http://www.w3.org/1999/xlink" contentStyleType="text/css" height="532px" preserveAspectRatio="none" style="width:471px;height:532px;background:#FFFFFF;" version="1.1" viewBox="0 0 471 532" width="471px" zoomAndPan="magnify"><defs/><g><line style="stroke:#181818;stroke-width:0.5;stroke-dasharray:5.0,5.0;" x1="43" x2="43" y1="67.4883" y2="136.1094"/><line style="stroke:#A80036;stroke-width:1.0;stroke-dasharray:1.0,4.0;" x1="43" x2="43" y1="136.1094" y2="177.0645"/><line style="stroke:#181818;stroke-width:0.5;stroke-dasharray:5.0,5.0;" x1="43" x2="43" y1="177.0645" y2="464.2383"/><rect fill="#FFFFFF" height="29.3105" style="stroke:#FFFFFF;stroke-width:1.0;" width="10" x="38" y="106.7988"/><line style="stroke:#181818;stroke-width:1.0;" x1="38" x2="38" y1="106.7988" y2="136.1094"/><line style="stroke:#181818;stroke-width:1.0;" x1="48" x2="48" y1="106.7988" y2="136.1094"/><line style="stroke:#181818;stroke-width:1.0;" x1="38" x2="48" y1="106.7988" y2="106.7988"/><rect fill="#FFFFFF" height="255.1738" style="stroke:#FFFFFF;stroke-width:1.0;" width="10" x="38" y="177.0645"/><line style="stroke:#181818;stroke-width:1.0;" x1="38" x2="38" y1="177.0645" y2="432.2383"/><line style="stroke:#181818;stroke-width:1.0;" x1="48" x2="48" y1="177.0645" y2="432.2383"/><line style="stroke:#181818;stroke-width:1.0;" x1="38" x2="48" y1="432.2383" y2="432.2383"/><line style="stroke:#181818;stroke-width:0.5;stroke-dasharray:5.0,5.0;" x1="211" x2="211" y1="67.4883" y2="136.1094"/><line style="stroke:#A80036;stroke-width:1.0;stroke-dasharray:1.0,4.0;" x1="211" x2="211" y1="136.1094" y2="177.0645"/><line style="stroke:#181818;stroke-width:0.5;stroke-dasharray:5.0,5.0;" x1="211" x2="211" y1="177.0645" y2="464.2383"/><rect fill="#FFFFFF" height="8" style="stroke:#FFFFFF;stroke-width:1.0;" width="10" x="206" y="128.1094"/><line style="stroke:#181818;stroke-width:1.0;" x1="206" x2="206" y1="128.1094" y2="136.1094"/><line style="stroke:#181818;stroke-width:1.0;" x1="216" x2="216" y1="128.1094" y2="136.1094"/><line style="stroke:#181818;stroke-width:1.0;" x1="206" x2="216" y1="128.1094" y2="128.1094"/><rect fill="#FFFFFF" height="6" style="stroke:#FFFFFF;stroke-width:1.0;" width="10" x="206" y="177.0645"/><line style="stroke:#181818;stroke-width:1.0;" x1="206" x2="206" y1="177.0645" y2="183.0645"/><line style="stroke:#181818;stroke-width:1.0;" x1="216" x2="216" y1="177.0645" y2="183.0645"/><line style="stroke:#181818;stroke-width:1.0;" x1="206" x2="216" y1="183.0645" y2="183.0645"/><rect fill="#FFFFFF" height="29.3105" style="stroke:#181818;stroke-width:1.0;" width="10" x="206" y="243.6855"/><rect fill="#FFFFFF" height="29.3105" style="stroke:#181818;stroke-width:1.0;" width="10" x="206" y="302.3066"/><rect fill="#FFFFFF" height="14" style="stroke:#181818;stroke-width:1.0;" width="10" x="206" y="374.9277"/><rect fill="#FFFFFF" height="14" style="stroke:#181818;stroke-width:1.0;" width="10" x="206" y="418.2383"/><line style="stroke:#181818;stroke-width:0.5;stroke-dasharray:5.0,5.0;" x1="360" x2="360" y1="67.4883" y2="136.1094"/><line style="stroke:#A80036;stroke-width:1.0;stroke-dasharray:1.0,4.0;" x1="360" x2="360" y1="136.1094" y2="177.0645"/><line style="stroke:#181818;stroke-width:0.5;stroke-dasharray:5.0,5.0;" x1="360" x2="360" y1="177.0645" y2="464.2383"/><line style="stroke:#181818;stroke-width:0.5;stroke-dasharray:5.0,5.0;" x1="436.5" x2="436.5" y1="67.4883" y2="136.1094"/><line style="stroke:#A80036;stroke-width:1.0;stroke-dasharray:1.0,4.0;" x1="436.5" x2="436.5" y1="136.1094" y2="177.0645"/><line style="stroke:#181818;stroke-width:0.5;stroke-dasharray:5.0,5.0;" x1="436.5" x2="436.5" y1="177.0645" y2="464.2383"/><rect fill="#E2E2F0" height="30.4883" rx="2.5" ry="2.5" style="stroke:#181818;stroke-width:0.5;" width="51" x="17.5" y="36"/><text fill="#000000" font-family="sans-serif" font-size="14" lengthAdjust="spacing" textLength="37" x="24.5" y="56.5352">LOOP</text><text fill="#000000" font-family="sans-serif" font-size="14" lengthAdjust="spacing" textLength="61" x="177.5" y="64.5352">lmuzxgq</text><ellipse cx="211" cy="35" fill="#E2E2F0" rx="12" ry="12" style="stroke:#181818;stroke-width:0.5;"/><line style="stroke:#181818;stroke-width:0.5;" x1="199" x2="223" y1="49" y2="49"/><rect fill="#E2E2F0" height="30.4883" rx="2.5" ry="2.5" style="stroke:#181818;stroke-width:0.5;" width="82" x="319" y="36"/><text fill="#000000" font-family="sans-serif" font-size="14" lengthAdjust="spacing" textLength="68" x="326" y="56.5352">awcijxrjrn</text><text fill="#000000" font-family="sans-serif" font-size="14" lengthAdjust="spacing" textLength="45" x="411" y="64.5352">dfuum</text><path d="M418.5,15 C418.5,5 436.5,5 436.5,5 C436.5,5 454.5,5 454.5,15 L454.5,41 C454.5,51 436.5,51 436.5,51 C436.5,51 418.5,51 418.5,41 L418.5,15 " fill="#E2E2F0" style="stroke:#181818;stroke-width:1.5;"/><path d="M418.5,15 C418.5,25 436.5,25 436.5,25 C436.5,25 454.5,25 454.5,15 " fill="none" style="stroke:#181818;stroke-width:1.5;"/><rect fill="#E2E2F0" height="30.4883" rx="2.5" ry="2.5" style="stroke:#181818;stroke-width:0.5;" width="51" x="17.5" y="464.2383"/><text fill="#000000" font-family="sans-serif" font-size="14" lengthAdjust="spacing" textLength="37" x="24.5" y="484.7734">LOOP</text><text fill="#000000" font-family="sans-serif" font-size="14" lengthAdjust="spacing" textLength="61" x="177.5" y="509.7734">lmuzxgq</text><ellipse cx="211" cy="480.2383" fill="#E2E2F0" rx="12" ry="12" style="stroke:#181818;stroke-width:0.5;"/><line style="stroke:#181818;stroke-width:0.5;" x1="199" x2="223" y1="494.2383" y2="494.2383"/><rect fill="#E2E2F0" height="30.4883" rx="2.5" ry="2.5" style="stroke:#181818;stroke-width:0.5;" width="82" x="319" y="464.2383"/><text fill="#000000" font-family="sans-serif" font-size="14" lengthAdjust="spacing" textLength="68" x="326" y="484.7734">awcijxrjrn</text><text fill="#000000" font-family="sans-serif" font-size="14" lengthAdjust="spacing" textLength="45" x="411" y="523.7734">dfuum</text><path d="M418.5,474.2383 C418.5,464.2383 436.5,464.2383 436.5,464.2383 C436.5,464.2383 454.5,464.2383 454.5,474.2383 L454.5,500.2383 C454.5,510.2383 436.5,510.2383 436.5,510.2383 C436.5,510.2383 418.5,510.2383 418.5,500.2383 L418.5,474.2383 " fill="#E2E2F0" style="stroke:#181818;stroke-width:1.5;"/><path d="M418.5,474.2383 C418.5,484.2383 436.5,484.2383 436.5,484.2383 C436.5,484.2383 454.5,484.2383 454.5,474.2383 " fill="none" style="stroke:#181818;stroke-width:1.5;"/><path d="M8,79.4883 L126,79.4883 L126,86.7988 L116,96.7988 L8,96.7988 L8,79.4883 " fill="#EEEEEE" style="stroke:#000000;stroke-width:1.5;"/><rect fill="none" height="360.75" style="stroke:#000000;stroke-width:1.5;" width="393" x="8" y="79.4883"/><text fill="#000000" font-family="sans-serif" font-size="13" font-weight="bold" lengthAdjust="spacing" textLength="73" x="23" y="93.0566">loop_lrbnb</text><polygon fill="#181818" points="194,124.1094,204,128.1094,194,132.1094,198,128.1094" style="stroke:#181818;stroke-width:1.0;"/><line style="stroke:#181818;stroke-width:1.0;" x1="48" x2="200" y1="128.1094" y2="128.1094"/><text fill="#000000" font-family="sans-serif" font-size="13" lengthAdjust="spacing" textLength="129" x="55" y="123.3672">shbg nxmtju vdyzbb</text><text fill="#000000" font-family="sans-serif" font-size="11" lengthAdjust="spacing" textLength="83" x="198.25" y="160.7441">zxmyxb adlfget</text><polygon fill="#181818" points="59,179.0645,49,183.0645,59,187.0645,55,183.0645" style="stroke:#181818;stroke-width:1.0;"/><line style="stroke:#181818;stroke-width:1.0;stroke-dasharray:2.0,2.0;" x1="53" x2="205" y1="183.0645" y2="183.0645"/><path d="M27,195.0645 L196,195.0645 L196,202.375 L186,212.375 L27,212.375 L27,195.0645 " fill="#EEEEEE" style="stroke:#000000;stroke-width:1.5;"/><rect fill="none" height="144.5527" style="stroke:#000000;stroke-width:1.5;" width="349" x="27" y="195.0645"/><text fill="#000000" font-family="sans-serif" font-size="13" font-weight="bold" lengthAdjust="spacing" textLength="124" x="42" y="208.6328">anjfn dingwezbbd</text><polygon fill="#181818" points="194,239.6855,204,243.6855,194,247.6855,198,243.6855" style="stroke:#181818;stroke-width:1.0;"/><line style="stroke:#181818;stroke-width:1.0;" x1="48" x2="200" y1="243.6855" y2="243.6855"/><text fill="#000000" font-family="sans-serif" font-size="13" lengthAdjust="spacing" textLength="84" x="55" y="238.9434">qcdqgs bnyvl</text><polygon fill="#181818" points="348,268.9961,358,272.9961,348,276.9961,352,272.9961" style="stroke:#181818;stroke-width:1.0;"/><line style="stroke:#181818;stroke-width:1.0;" x1="216" x2="354" y1="272.9961" y2="272.9961"/><text fill="#000000" font-family="sans-serif" font-size="13" lengthAdjust="spacing" textLength="125" x="223" y="268.2539">ncmw bnyvl qcdqgs</text><polygon fill="#181818" points="194,298.3066,204,302.3066,194,306.3066,198,302.3066" style="stroke:#181818;stroke-width:1.0;"/><line style="stroke:#181818;stroke-width:1.0;" x1="48" x2="200" y1="302.3066" y2="302.3066"/><text fill="#000000" font-family="sans-serif" font-size="13" lengthAdjust="spacing" textLength="83" x="55" y="297.5645">nzwc husbou</text><polygon fill="#181818" points="348,327.6172,358,331.6172,348,335.6172,352,331.6172" style="stroke:#181818;stroke-width:1.0;"/><line style="stroke:#181818;stroke-width:1.0;" x1="216" x2="354" y1="331.6172" y2="331.6172"/><text fill="#000000" font-family="sans-serif" font-size="13" lengthAdjust="spacing" textLength="124" x="223" y="326.875">ncmw husbou nzwc</text><polygon fill="#181818" points="194,370.9277,204,374.9277,194,378.9277,198,374.9277" style="stroke:#181818;stroke-width:1.0;"/><line style="stroke:#181818;stroke-width:1.0;" x1="48" x2="200" y1="374.9277" y2="374.9277"/><text fill="#000000" font-family="sans-serif" font-size="13" lengthAdjust="spacing" textLength="139" x="55" y="370.1855">hbki nxmtju yxmekob</text><polygon fill="#181818" points="59,384.9277,49,388.9277,59,392.9277,55,388.9277" style="stroke:#181818;stroke-width:1.0;"/><line style="stroke:#181818;stroke-width:1.0;stroke-dasharray:2.0,2.0;" x1="53" x2="205" y1="388.9277" y2="388.9277"/><polygon fill="#181818" points="194,414.2383,204,418.2383,194,422.2383,198,418.2383" style="stroke:#181818;stroke-width:1.0;"/><line style="stroke:#181818;stroke-width:1.0;" x1="48" x2="200" y1="418.2383" y2="418.2383"/><text fill="#000000" font-family="sans-serif" font-size="13" lengthAdjust="spacing" textLength="98" x="55" y="413.4961">hbki deoc nzwc</text><polygon fill="#181818" points="59,428.2383,49,432.2383,59,436.2383,55,432.2383" style="stroke:#181818;stroke-width:1.0;"/><line style="stroke:#181818;stroke-width:1.0;stroke-dasharray:2.0,2.0;" x1="53" x2="205" y1="432.2383" y2="432.2383"/><!--SRC=[dP9BRiGW44JtdA9p0Fi0KPGJH9hS86gWZV4OyE36lzF7uqyoaRr8ic7HTBsgGZmr4Or3O0eJS4ma6enibMtGCxnTBk-2F5iUeNPf6ipjnptsobP3hA8N6XabjWIwICa9OM983TGXD1zrb5uAL6mxP5gXudv2zhfZuHdQKXhmW-CgGQV7IJveTlCypwV1ZOC4r7LXYEU1YCJfde0EwriAz5NXGLjlUfgn-iJyflJDj23zsDL7strlbdnNdbLUkNxLR82p44SpF_KAojJAaFxejOeMm6bVycVbIdcr-ykEWwDhE7dQHVQIPL-3NrLPq9g2MZFzY_eustwS5fy0]--></g></svg>