<svg xmlns="http://www.w3.org/2000/svg" xmlns:xlink="http://www.w3.org/1999/xlink" contentStyleType="text/css" height="119px" preserveAspectRatio="none" style="width:145px;height:119px;background:#FFFFFF;" version="1.1" viewBox="0 0 145 119" width="145px" zoomAndPan="magnify"><defs/><g><line style="stroke:#181818;stroke-width:0.5;stroke-dasharray:5.0,5.0;" x1="36" x2="36" y1="36.4883" y2="68.4883"/><rect fill="#808000" height="18" style="stroke:#181818;stroke-width:1.0;" width="10" x="31" y="50.4883"/><rect fill="#6B8E23" height="18" style="stroke:#181818;stroke-width:1.0;" width="10" x="36" y="50.4883"/><rect fill="#3CB371" height="18" style="stroke:#181818;stroke-width:1.0;" width="10" x="41" y="50.4883"/><line style="stroke:#181818;stroke-width:0.5;stroke-dasharray:5.0,5.0;" x1="108" x2="108" y1="36.4883" y2="68.4883"/><rect fill="#E2E2F0" height="30.4883" rx="2.5" ry="2.5" style="stroke:#181818;stroke-width:0.5;" width="62" x="5" y="5"/><text fill="#000000" font-family="sans-serif" font-size="14" lengthAdjust="spacing" textLength="48" x="12" y="25.5352">actor 1</text><rect fill="#E2E2F0" height="30.4883" rx="2.5" ry="2.5" style="stroke:#181818;stroke-width:0.5;" width="62" x="77" y="5"/><text fill="#000000" font-family="sans-serif" font-size="14" lengthAdjust="spacing" textLength="48" x="84" y="25.5352">actor 5</text><rect fill="#E2E2F0" height="30.4883" rx="2.5" ry="2.5" style="stroke:#181818;stroke-width:0.5;" width="62" x="5" y="68.4883"/><text fill="#000000" font-family="sans-serif" font-size="14" lengthAdjust="spacing" textLength="48" x="12" y="89.0234">actor 1</text><rect fill="#E2E2F0" height="30.4883" rx="2.5" ry="2.5" style="stroke:#181818;stroke-width:0.5;" width="62" x="77" y="68.4883"/><text fill="#000000" font-family="sans-serif" font-size="14" lengthAdjust="spacing" textLength="48" x="84" y="89.0234">actor 5</text><polygon fill="#181818" points="62,46.4883,52,50.4883,62,54.4883,58,50.4883" style="stroke:#181818;stroke-width:1.0;"/><line style="stroke:#181818;stroke-width:1.0;" x1="56" x2="107" y1="50.4883" y2="50.4883"/><text fill="#888888" font-family="sans-serif" font-size="10" lengthAdjust="spacing" textLength="70" x="36.5" y="109.6445">1.2024.6beta1</text><!--SRC=[TOmn3i9030Hxly8SGe628WKj5H8LeiWBJB8WI-JkP9mhydge28BGhMQqiyWcjrxOaKPs6q1PpBNLBD4vIEl9k0vpT1UeUYqjufWOByztBQ09RFSVdQh3xuU-KVtE_3K7aykiFQ7JeMyWHmCYqJKbX_6gm1wQudhp1000]--></g></svg>