<svg xmlns="http://www.w3.org/2000/svg" xmlns:xlink="http://www.w3.org/1999/xlink" contentStyleType="text/css" height="765px" preserveAspectRatio="none" style="width:107px;height:765px;background:#FFFFFF;" version="1.1" viewBox="0 0 107 765" width="107px" zoomAndPan="magnify"><defs/><g><line style="stroke:#181818;stroke-width:0.5;stroke-dasharray:5.0,5.0;" x1="28.3618" x2="28.3618" y1="36.4883" y2="728.6133"/><line style="stroke:#181818;stroke-width:0.5;stroke-dasharray:5.0,5.0;" x1="81.4951" x2="81.4951" y1="36.4883" y2="728.6133"/><rect fill="#E2E2F0" height="30.4883" rx="2.5" ry="2.5" style="stroke:#181818;stroke-width:0.5;" width="46.7236" x="5" y="5"/><text fill="#000000" font-family="sans-serif" font-size="14" lengthAdjust="spacing" textLength="32.7236" x="12" y="25.5352">Alice</text><rect fill="#E2E2F0" height="30.4883" rx="2.5" ry="2.5" style="stroke:#181818;stroke-width:0.5;" width="39.4639" x="61.7632" y="5"/><text fill="#000000" font-family="sans-serif" font-size="14" lengthAdjust="spacing" textLength="25.4639" x="68.7632" y="25.5352">Bob</text><rect fill="#E2E2F0" height="30.4883" rx="2.5" ry="2.5" style="stroke:#181818;stroke-width:0.5;" width="46.7236" x="5" y="728.6133"/><text fill="#000000" font-family="sans-serif" font-size="14" lengthAdjust="spacing" textLength="32.7236" x="12" y="749.1484">Alice</text><rect fill="#E2E2F0" height="30.4883" rx="2.5" ry="2.5" style="stroke:#181818;stroke-width:0.5;" width="39.4639" x="61.7632" y="728.6133"/><text fill="#000000" font-family="sans-serif" font-size="14" lengthAdjust="spacing" textLength="25.4639" x="68.7632" y="749.1484">Bob</text><line style="stroke:#181818;stroke-width:1.0;" x1="28.3618" x2="70.3618" y1="65.6211" y2="65.6211"/><line style="stroke:#181818;stroke-width:1.0;" x1="70.3618" x2="70.3618" y1="65.6211" y2="78.6211"/><line style="stroke:#181818;stroke-width:1.0;" x1="29.3618" x2="70.3618" y1="78.6211" y2="78.6211"/><polygon fill="#181818" points="39.3618,74.6211,29.3618,78.6211,39.3618,82.6211,35.3618,78.6211" style="stroke:#181818;stroke-width:1.0;"/><text fill="#000000" font-family="monospace" font-size="13" lengthAdjust="spacing" textLength="15.6533" x="35.3618" y="60.5552">-&gt;</text><line style="stroke:#181818;stroke-width:1.0;" x1="28.3618" x2="70.3618" y1="107.7539" y2="107.7539"/><line style="stroke:#181818;stroke-width:1.0;" x1="70.3618" x2="70.3618" y1="107.7539" y2="120.7539"/><line style="stroke:#181818;stroke-width:1.0;" x1="28.3618" x2="70.3618" y1="120.7539" y2="120.7539"/><line style="stroke:#181818;stroke-width:1.0;" x1="29.3618" x2="39.3618" y1="120.7539" y2="116.7539"/><line style="stroke:#181818;stroke-width:1.0;" x1="29.3618" x2="39.3618" y1="120.7539" y2="124.7539"/><text fill="#000000" font-family="monospace" font-size="13" lengthAdjust="spacing" textLength="23.48" x="35.3618" y="102.688">-&gt;&gt;</text><line style="stroke:#181818;stroke-width:1.0;" x1="28.3618" x2="70.3618" y1="149.8867" y2="149.8867"/><line style="stroke:#181818;stroke-width:1.0;" x1="70.3618" x2="70.3618" y1="149.8867" y2="162.8867"/><line style="stroke:#181818;stroke-width:1.0;" x1="29.3618" x2="70.3618" y1="162.8867" y2="162.8867"/><polygon fill="#181818" points="38.3618,158.8867,28.3618,162.8867,38.3618,162.8867" style="stroke:#181818;stroke-width:1.0;"/><text fill="#000000" font-family="monospace" font-size="13" lengthAdjust="spacing" textLength="15.6533" x="35.3618" y="144.8208">-\</text><line style="stroke:#181818;stroke-width:1.0;" x1="28.3618" x2="70.3618" y1="192.0195" y2="192.0195"/><line style="stroke:#181818;stroke-width:1.0;" x1="70.3618" x2="70.3618" y1="192.0195" y2="205.0195"/><line style="stroke:#181818;stroke-width:1.0;" x1="28.3618" x2="70.3618" y1="205.0195" y2="205.0195"/><line style="stroke:#181818;stroke-width:1.0;" x1="29.3618" x2="39.3618" y1="205.0195" y2="201.0195"/><text fill="#000000" font-family="monospace" font-size="13" lengthAdjust="spacing" textLength="23.48" x="35.3618" y="186.9536">-\\</text><line style="stroke:#181818;stroke-width:1.0;" x1="28.3618" x2="70.3618" y1="234.1523" y2="234.1523"/><line style="stroke:#181818;stroke-width:1.0;" x1="70.3618" x2="70.3618" y1="234.1523" y2="247.1523"/><line style="stroke:#181818;stroke-width:1.0;" x1="29.3618" x2="70.3618" y1="247.1523" y2="247.1523"/><polygon fill="#181818" points="38.3618,247.1523,28.3618,247.1523,38.3618,251.1523" style="stroke:#181818;stroke-width:1.0;"/><text fill="#000000" font-family="monospace" font-size="13" lengthAdjust="spacing" textLength="15.6533" x="35.3618" y="229.0864">-/</text><line style="stroke:#181818;stroke-width:1.0;" x1="28.3618" x2="70.3618" y1="276.2852" y2="276.2852"/><line style="stroke:#181818;stroke-width:1.0;" x1="70.3618" x2="70.3618" y1="276.2852" y2="289.2852"/><line style="stroke:#181818;stroke-width:1.0;" x1="28.3618" x2="70.3618" y1="289.2852" y2="289.2852"/><line style="stroke:#181818;stroke-width:1.0;" x1="29.3618" x2="39.3618" y1="289.2852" y2="293.2852"/><text fill="#000000" font-family="monospace" font-size="13" lengthAdjust="spacing" textLength="23.48" x="35.3618" y="271.2192">-//</text><ellipse cx="27.8618" cy="317.668" fill="none" rx="4" ry="4" style="stroke:#181818;stroke-width:1.5;"/><line style="stroke:#181818;stroke-width:1.0;" x1="32.3618" x2="70.3618" y1="318.418" y2="318.418"/><line style="stroke:#181818;stroke-width:1.0;" x1="70.3618" x2="70.3618" y1="318.418" y2="331.418"/><line style="stroke:#181818;stroke-width:1.0;" x1="29.3618" x2="70.3618" y1="331.418" y2="331.418"/><polygon fill="#181818" points="39.3618,327.418,29.3618,331.418,39.3618,335.418,35.3618,331.418" style="stroke:#181818;stroke-width:1.0;"/><text fill="#000000" font-family="monospace" font-size="13" lengthAdjust="spacing" textLength="23.48" x="35.3618" y="313.3521">o-&gt;</text><ellipse cx="27.8618" cy="372.8008" fill="none" rx="4" ry="4" style="stroke:#181818;stroke-width:1.5;"/><line style="stroke:#181818;stroke-width:1.0;" x1="28.3618" x2="70.3618" y1="360.5508" y2="360.5508"/><line style="stroke:#181818;stroke-width:1.0;" x1="70.3618" x2="70.3618" y1="360.5508" y2="373.5508"/><line style="stroke:#181818;stroke-width:1.0;" x1="34.8618" x2="70.3618" y1="373.5508" y2="373.5508"/><polygon fill="#181818" points="44.8618,369.5508,34.8618,373.5508,44.8618,377.5508,40.8618,373.5508" style="stroke:#181818;stroke-width:1.0;"/><text fill="#000000" font-family="monospace" font-size="13" lengthAdjust="spacing" textLength="23.48" x="35.3618" y="355.4849">-&gt;o</text><ellipse cx="27.8618" cy="401.9336" fill="none" rx="4" ry="4" style="stroke:#181818;stroke-width:1.5;"/><ellipse cx="27.8618" cy="414.9336" fill="none" rx="4" ry="4" style="stroke:#181818;stroke-width:1.5;"/><line style="stroke:#181818;stroke-width:1.0;" x1="32.3618" x2="70.3618" y1="402.6836" y2="402.6836"/><line style="stroke:#181818;stroke-width:1.0;" x1="70.3618" x2="70.3618" y1="402.6836" y2="415.6836"/><line style="stroke:#181818;stroke-width:1.0;" x1="34.8618" x2="70.3618" y1="415.6836" y2="415.6836"/><polygon fill="#181818" points="44.8618,411.6836,34.8618,415.6836,44.8618,419.6836,40.8618,415.6836" style="stroke:#181818;stroke-width:1.0;"/><text fill="#000000" font-family="monospace" font-size="13" lengthAdjust="spacing" textLength="31.3066" x="35.3618" y="397.6177">o-&gt;o</text><line style="stroke:#181818;stroke-width:1.0;" x1="28.3618" x2="70.3618" y1="444.8164" y2="444.8164"/><line style="stroke:#181818;stroke-width:1.0;" x1="70.3618" x2="70.3618" y1="444.8164" y2="457.8164"/><line style="stroke:#181818;stroke-width:1.0;" x1="29.3618" x2="70.3618" y1="457.8164" y2="457.8164"/><polygon fill="#181818" points="38.3618,440.8164,28.3618,444.8164,38.3618,448.8164,34.3618,444.8164" style="stroke:#181818;stroke-width:1.0;"/><polygon fill="#181818" points="39.3618,453.8164,29.3618,457.8164,39.3618,461.8164,35.3618,457.8164" style="stroke:#181818;stroke-width:1.0;"/><text fill="#000000" font-family="monospace" font-size="13" lengthAdjust="spacing" textLength="23.48" x="35.3618" y="439.7505">&lt;-&gt;</text><ellipse cx="27.8618" cy="486.1992" fill="none" rx="4" ry="4" style="stroke:#181818;stroke-width:1.5;"/><ellipse cx="27.8618" cy="499.1992" fill="none" rx="4" ry="4" style="stroke:#181818;stroke-width:1.5;"/><line style="stroke:#181818;stroke-width:1.0;" x1="34.8618" x2="70.3618" y1="486.9492" y2="486.9492"/><line style="stroke:#181818;stroke-width:1.0;" x1="70.3618" x2="70.3618" y1="486.9492" y2="499.9492"/><line style="stroke:#181818;stroke-width:1.0;" x1="34.8618" x2="70.3618" y1="499.9492" y2="499.9492"/><polygon fill="#181818" points="44.8618,482.9492,34.8618,486.9492,44.8618,490.9492,40.8618,486.9492" style="stroke:#181818;stroke-width:1.0;"/><polygon fill="#181818" points="44.8618,495.9492,34.8618,499.9492,44.8618,503.9492,40.8618,499.9492" style="stroke:#181818;stroke-width:1.0;"/><text fill="#000000" font-family="monospace" font-size="13" lengthAdjust="spacing" textLength="39.1333" x="35.3618" y="481.8833">o&lt;-&gt;o</text><ellipse cx="27.8618" cy="541.332" fill="none" rx="4" ry="4" style="stroke:#181818;stroke-width:1.5;"/><line style="stroke:#181818;stroke-width:1.0;" x1="28.3618" x2="70.3618" y1="529.082" y2="529.082"/><line style="stroke:#181818;stroke-width:1.0;" x1="70.3618" x2="70.3618" y1="529.082" y2="542.082"/><line style="stroke:#181818;stroke-width:1.0;" x1="33.8618" x2="70.3618" y1="542.082" y2="542.082"/><line style="stroke:#181818;stroke-width:1.0;" x1="34.8618" x2="44.8618" y1="542.082" y2="538.082"/><line style="stroke:#181818;stroke-width:1.0;" x1="34.8618" x2="44.8618" y1="542.082" y2="546.082"/><text fill="#000000" font-family="monospace" font-size="13" lengthAdjust="spacing" textLength="31.3066" x="35.3618" y="524.0161">-&gt;&gt;o</text><ellipse cx="27.8618" cy="583.4648" fill="none" rx="4" ry="4" style="stroke:#181818;stroke-width:1.5;"/><line style="stroke:#181818;stroke-width:1.0;" x1="28.3618" x2="70.3618" y1="571.2148" y2="571.2148"/><line style="stroke:#181818;stroke-width:1.0;" x1="70.3618" x2="70.3618" y1="571.2148" y2="584.2148"/><line style="stroke:#181818;stroke-width:1.0;" x1="34.8618" x2="70.3618" y1="584.2148" y2="584.2148"/><polygon fill="#181818" points="43.8618,580.2148,33.8618,584.2148,43.8618,584.2148" style="stroke:#181818;stroke-width:1.0;"/><text fill="#000000" font-family="monospace" font-size="13" lengthAdjust="spacing" textLength="23.48" x="35.3618" y="566.1489">-\o</text><ellipse cx="27.8618" cy="625.5977" fill="none" rx="4" ry="4" style="stroke:#181818;stroke-width:1.5;"/><line style="stroke:#181818;stroke-width:1.0;" x1="28.3618" x2="70.3618" y1="613.3477" y2="613.3477"/><line style="stroke:#181818;stroke-width:1.0;" x1="70.3618" x2="70.3618" y1="613.3477" y2="626.3477"/><line style="stroke:#181818;stroke-width:1.0;" x1="33.8618" x2="70.3618" y1="626.3477" y2="626.3477"/><line style="stroke:#181818;stroke-width:1.0;" x1="34.8618" x2="44.8618" y1="626.3477" y2="622.3477"/><text fill="#000000" font-family="monospace" font-size="13" lengthAdjust="spacing" textLength="31.3066" x="35.3618" y="608.2817">-\\o</text><ellipse cx="27.8618" cy="667.7305" fill="none" rx="4" ry="4" style="stroke:#181818;stroke-width:1.5;"/><line style="stroke:#181818;stroke-width:1.0;" x1="28.3618" x2="70.3618" y1="655.4805" y2="655.4805"/><line style="stroke:#181818;stroke-width:1.0;" x1="70.3618" x2="70.3618" y1="655.4805" y2="668.4805"/><line style="stroke:#181818;stroke-width:1.0;" x1="34.8618" x2="70.3618" y1="668.4805" y2="668.4805"/><polygon fill="#181818" points="43.8618,668.4805,33.8618,668.4805,43.8618,672.4805" style="stroke:#181818;stroke-width:1.0;"/><text fill="#000000" font-family="monospace" font-size="13" lengthAdjust="spacing" textLength="23.48" x="35.3618" y="650.4146">-/o</text><ellipse cx="27.8618" cy="709.8633" fill="none" rx="4" ry="4" style="stroke:#181818;stroke-width:1.5;"/><line style="stroke:#181818;stroke-width:1.0;" x1="28.3618" x2="70.3618" y1="697.6133" y2="697.6133"/><line style="stroke:#181818;stroke-width:1.0;" x1="70.3618" x2="70.3618" y1="697.6133" y2="710.6133"/><line style="stroke:#181818;stroke-width:1.0;" x1="33.8618" x2="70.3618" y1="710.6133" y2="710.6133"/><line style="stroke:#181818;stroke-width:1.0;" x1="34.8618" x2="44.8618" y1="710.6133" y2="714.6133"/><text fill="#000000" font-family="monospace" font-size="13" lengthAdjust="spacing" textLength="31.3066" x="35.3618" y="692.5474">-//o</text><!--SRC=[LO-n3eCm34HtliBDZhnN2AdzZYm68OJKzYAQBltwDY61mvkVdiw-IrXjVfh42L-9wsTgWgrn6PTWhoYtnp9EOc-n4xvZ44buQ4pQNjAONCMvl3YNSS-uhzYpxNVRUyR_sR2ohRkjobWBHaidyr8-0N-2mmRRs7378TqUWYxhnKvBRGbkYLg7JteSBN5kMLAKTSLH4rmpXVy0]--></g></svg>