<svg xmlns="http://www.w3.org/2000/svg" xmlns:xlink="http://www.w3.org/1999/xlink" contentStyleType="text/css" height="322px" preserveAspectRatio="none" style="width:320px;height:322px;background:#FFFFFF;" version="1.1" viewBox="0 0 320 322" width="320px" zoomAndPan="magnify"><defs/><g><rect fill="#DDDDDD" height="310.8398" style="stroke:#181818;stroke-width:0.5;" width="68" x="31" y="6"/><rect fill="#DDDDDD" height="310.8398" style="stroke:#181818;stroke-width:0.5;" width="68" x="239" y="6"/><line style="stroke:#181818;stroke-width:0.5;stroke-dasharray:5.0,5.0;" x1="65" x2="65" y1="41.4883" y2="279.3516"/><line style="stroke:#181818;stroke-width:0.5;stroke-dasharray:5.0,5.0;" x1="184" x2="184" y1="41.4883" y2="279.3516"/><line style="stroke:#181818;stroke-width:0.5;stroke-dasharray:5.0,5.0;" x1="273" x2="273" y1="41.4883" y2="279.3516"/><rect fill="#E2E2F0" height="30.4883" rx="2.5" ry="2.5" style="stroke:#181818;stroke-width:0.5;" width="24" x="53" y="10"/><text fill="#000000" font-family="sans-serif" font-size="14" lengthAdjust="spacing" textLength="10" x="60" y="30.5352">A</text><rect fill="#E2E2F0" height="30.4883" rx="2.5" ry="2.5" style="stroke:#181818;stroke-width:0.5;" width="22" x="173" y="10"/><text fill="#000000" font-family="sans-serif" font-size="14" lengthAdjust="spacing" textLength="8" x="180" y="30.5352">B</text><rect fill="#E2E2F0" height="30.4883" rx="2.5" ry="2.5" style="stroke:#181818;stroke-width:0.5;" width="24" x="261" y="10"/><text fill="#000000" font-family="sans-serif" font-size="14" lengthAdjust="spacing" textLength="10" x="268" y="30.5352">C</text><rect fill="#E2E2F0" height="30.4883" rx="2.5" ry="2.5" style="stroke:#181818;stroke-width:0.5;" width="24" x="53" y="279.3516"/><text fill="#000000" font-family="sans-serif" font-size="14" lengthAdjust="spacing" textLength="10" x="60" y="299.8867">A</text><rect fill="#E2E2F0" height="30.4883" rx="2.5" ry="2.5" style="stroke:#181818;stroke-width:0.5;" width="22" x="173" y="279.3516"/><text fill="#000000" font-family="sans-serif" font-size="14" lengthAdjust="spacing" textLength="8" x="180" y="299.8867">B</text><rect fill="#E2E2F0" height="30.4883" rx="2.5" ry="2.5" style="stroke:#181818;stroke-width:0.5;" width="24" x="261" y="279.3516"/><text fill="#000000" font-family="sans-serif" font-size="14" lengthAdjust="spacing" textLength="10" x="268" y="299.8867">C</text><rect fill="#EEEEEE" height="3" style="stroke:#EEEEEE;stroke-width:1.0;" width="308" x="5" y="70.1436"/><line style="stroke:#000000;stroke-width:1.0;" x1="5" x2="313" y1="70.1436" y2="70.1436"/><line style="stroke:#000000;stroke-width:1.0;" x1="5" x2="313" y1="73.1436" y2="73.1436"/><rect fill="#EEEEEE" height="23.3105" style="stroke:#000000;stroke-width:2.0;" width="128" x="95" y="59.4883"/><text fill="#000000" font-family="sans-serif" font-size="13" font-weight="bold" lengthAdjust="spacing" textLength="110" x="101" y="76.0566">left edge arrows</text><polygon fill="#181818" points="172,110.1094,182,114.1094,172,118.1094,176,114.1094" style="stroke:#181818;stroke-width:1.0;"/><line style="stroke:#181818;stroke-width:1.0;" x1="5" x2="178" y1="114.1094" y2="114.1094"/><text fill="#000000" font-family="sans-serif" font-size="13" lengthAdjust="spacing" textLength="19" x="148" y="109.3672">Pre</text><polygon fill="#181818" points="195,110.1094,185,114.1094,195,118.1094,191,114.1094" style="stroke:#181818;stroke-width:1.0;"/><ellipse cx="272.5" cy="113.3594" fill="none" rx="4" ry="4" style="stroke:#181818;stroke-width:1.5;"/><line style="stroke:#181818;stroke-width:1.0;" x1="189" x2="268" y1="114.1094" y2="114.1094"/><rect fill="#EEEEEE" height="3" style="stroke:#EEEEEE;stroke-width:1.0;" width="308" x="5" y="142.7646"/><line style="stroke:#000000;stroke-width:1.0;" x1="5" x2="313" y1="142.7646" y2="142.7646"/><line style="stroke:#000000;stroke-width:1.0;" x1="5" x2="313" y1="145.7646" y2="145.7646"/><rect fill="#EEEEEE" height="23.3105" style="stroke:#000000;stroke-width:2.0;" width="139" x="89.5" y="132.1094"/><text fill="#000000" font-family="sans-serif" font-size="13" font-weight="bold" lengthAdjust="spacing" textLength="121" x="95.5" y="148.6777">right edge arrows</text><path d="M49,169.4199 L116,169.4199 L116,176.7305 L106,186.7305 L49,186.7305 L49,169.4199 " fill="none" style="stroke:#000000;stroke-width:1.5;"/><rect fill="none" height="56.6211" style="stroke:#000000;stroke-width:1.5;" width="202" x="49" y="169.4199"/><text fill="#000000" font-family="sans-serif" font-size="13" font-weight="bold" lengthAdjust="spacing" textLength="22" x="64" y="182.9883">opt</text><text fill="#000000" font-family="sans-serif" font-size="11" font-weight="bold" lengthAdjust="spacing" textLength="25" x="131" y="182.0547">[OK]</text><ellipse cx="64.5" cy="217.291" fill="none" rx="4" ry="4" style="stroke:#181818;stroke-width:1.5;"/><polygon fill="#181818" points="172,214.041,182,218.041,172,222.041,176,218.041" style="stroke:#181818;stroke-width:1.0;"/><line style="stroke:#181818;stroke-width:1.0;" x1="69" x2="178" y1="218.041" y2="218.041"/><polygon fill="#181818" points="195,214.041,185,218.041,195,222.041,191,218.041" style="stroke:#181818;stroke-width:1.0;"/><ellipse cx="306.5" cy="217.291" fill="none" rx="4" ry="4" style="stroke:#181818;stroke-width:1.5;"/><line style="stroke:#181818;stroke-width:1.0;" x1="189" x2="302" y1="218.041" y2="218.041"/><text fill="#000000" font-family="sans-serif" font-size="13" lengthAdjust="spacing" textLength="27" x="201" y="213.2988">yolo</text><ellipse cx="64.5" cy="260.6016" fill="none" rx="4" ry="4" style="stroke:#181818;stroke-width:1.5;"/><polygon fill="#181818" points="172,257.3516,182,261.3516,172,265.3516,176,261.3516" style="stroke:#181818;stroke-width:1.0;"/><line style="stroke:#181818;stroke-width:1.0;" x1="69" x2="178" y1="261.3516" y2="261.3516"/><polygon fill="#181818" points="195,257.3516,185,261.3516,195,265.3516,191,261.3516" style="stroke:#181818;stroke-width:1.0;"/><ellipse cx="306.5" cy="260.6016" fill="none" rx="4" ry="4" style="stroke:#181818;stroke-width:1.5;"/><line style="stroke:#181818;stroke-width:1.0;" x1="189" x2="302" y1="261.3516" y2="261.3516"/><text fill="#000000" font-family="sans-serif" font-size="13" lengthAdjust="spacing" textLength="27" x="201" y="256.6094">yolo</text><!--SRC=[TOwn3e9038RtFaMDYKmawcICc82ZW-p4eSg95-5wAMT4dzxJ126YM_F__RvsP8MAYj0fVg2JguBweeqbeGfJ4gUFsf9nAUMvDWNE5hq-uQRDvrE00pTWEmHZK2R7xpGPx6q-Ur64fJevL7cXa4JuLcCKGS3MZPsGgJscFB7RGf1nkCO4bvYAWc3YnrN8tXLu6MIzhgkyNdHn7lX_w15ZV1zeyRsttRdarw__soS0]--></g></svg>