<svg xmlns="http://www.w3.org/2000/svg" xmlns:xlink="http://www.w3.org/1999/xlink" contentStyleType="text/css" height="189px" preserveAspectRatio="none" style="width:367px;height:189px;background:#FFFFFF;" version="1.1" viewBox="0 0 367 189" width="367px" zoomAndPan="magnify"><defs/><g><line style="stroke:#181818;stroke-width:0.5;stroke-dasharray:5.0,5.0;" x1="36" x2="36" y1="36.4883" y2="153.1094"/><rect fill="#808000" height="108.6211" style="stroke:#181818;stroke-width:1.0;" width="10" x="31" y="44.4883"/><rect fill="#6B8E23" height="35.3105" style="stroke:#181818;stroke-width:1.0;" width="10" x="36" y="44.4883"/><rect fill="#3CB371" height="6" style="stroke:#181818;stroke-width:1.0;" width="10" x="41" y="44.4883"/><rect fill="#0000FF" height="13" style="stroke:#181818;stroke-width:1.0;" width="10" x="41" y="50.4883"/><line style="stroke:#181818;stroke-width:0.5;stroke-dasharray:5.0,5.0;" x1="186" x2="186" y1="36.4883" y2="153.1094"/><line style="stroke:#181818;stroke-width:0.5;stroke-dasharray:5.0,5.0;" x1="258" x2="258" y1="36.4883" y2="153.1094"/><line style="stroke:#181818;stroke-width:0.5;stroke-dasharray:5.0,5.0;" x1="330" x2="330" y1="36.4883" y2="153.1094"/><rect fill="#E2E2F0" height="30.4883" rx="2.5" ry="2.5" style="stroke:#181818;stroke-width:0.5;" width="62" x="5" y="5"/><text fill="#000000" font-family="sans-serif" font-size="14" lengthAdjust="spacing" textLength="48" x="12" y="25.5352">actor 1</text><rect fill="#E2E2F0" height="30.4883" rx="2.5" ry="2.5" style="stroke:#181818;stroke-width:0.5;" width="62" x="155" y="5"/><text fill="#000000" font-family="sans-serif" font-size="14" lengthAdjust="spacing" textLength="48" x="162" y="25.5352">actor 2</text><rect fill="#E2E2F0" height="30.4883" rx="2.5" ry="2.5" style="stroke:#181818;stroke-width:0.5;" width="62" x="227" y="5"/><text fill="#000000" font-family="sans-serif" font-size="14" lengthAdjust="spacing" textLength="48" x="234" y="25.5352">actor 3</text><rect fill="#E2E2F0" height="30.4883" rx="2.5" ry="2.5" style="stroke:#181818;stroke-width:0.5;" width="62" x="299" y="5"/><text fill="#000000" font-family="sans-serif" font-size="14" lengthAdjust="spacing" textLength="48" x="306" y="25.5352">actor 4</text><rect fill="#E2E2F0" height="30.4883" rx="2.5" ry="2.5" style="stroke:#181818;stroke-width:0.5;" width="62" x="5" y="153.1094"/><text fill="#000000" font-family="sans-serif" font-size="14" lengthAdjust="spacing" textLength="48" x="12" y="173.6445">actor 1</text><rect fill="#E2E2F0" height="30.4883" rx="2.5" ry="2.5" style="stroke:#181818;stroke-width:0.5;" width="62" x="155" y="153.1094"/><text fill="#000000" font-family="sans-serif" font-size="14" lengthAdjust="spacing" textLength="48" x="162" y="173.6445">actor 2</text><rect fill="#E2E2F0" height="30.4883" rx="2.5" ry="2.5" style="stroke:#181818;stroke-width:0.5;" width="62" x="227" y="153.1094"/><text fill="#000000" font-family="sans-serif" font-size="14" lengthAdjust="spacing" textLength="48" x="234" y="173.6445">actor 3</text><rect fill="#E2E2F0" height="30.4883" rx="2.5" ry="2.5" style="stroke:#181818;stroke-width:0.5;" width="62" x="299" y="153.1094"/><text fill="#000000" font-family="sans-serif" font-size="14" lengthAdjust="spacing" textLength="48" x="306" y="173.6445">actor 4</text><polygon fill="#181818" points="174,46.4883,184,50.4883,174,54.4883,178,50.4883" style="stroke:#181818;stroke-width:1.0;"/><line style="stroke:#181818;stroke-width:1.0;" x1="56" x2="180" y1="50.4883" y2="50.4883"/><polygon fill="#181818" points="246,46.4883,256,50.4883,246,54.4883,250,50.4883" style="stroke:#181818;stroke-width:1.0;"/><line style="stroke:#181818;stroke-width:1.0;" x1="186" x2="252" y1="50.4883" y2="50.4883"/><polygon fill="#181818" points="318,46.4883,328,50.4883,318,54.4883,322,50.4883" style="stroke:#181818;stroke-width:1.0;"/><line style="stroke:#181818;stroke-width:1.0;" x1="258" x2="324" y1="50.4883" y2="50.4883"/><line style="stroke:none;stroke-width:1.0;" x1="46" x2="88" y1="79.7988" y2="79.7988"/><line style="stroke:none;stroke-width:1.0;" x1="88" x2="88" y1="79.7988" y2="92.7988"/><line style="stroke:none;stroke-width:1.0;" x1="41" x2="88" y1="92.7988" y2="92.7988"/><polygon fill="none" points="51,88.7988,41,92.7988,51,96.7988,47,92.7988" style="stroke:none;stroke-width:1.0;"/><text fill="#000000" font-family="sans-serif" font-size="13" lengthAdjust="spacing" textLength="121" x="53" y="75.0566">actor1 sub-activity</text><line style="stroke:none;stroke-width:1.0;" x1="41" x2="83" y1="122.1094" y2="122.1094"/><line style="stroke:none;stroke-width:1.0;" x1="83" x2="83" y1="122.1094" y2="135.1094"/><line style="stroke:none;stroke-width:1.0;" x1="42" x2="83" y1="135.1094" y2="135.1094"/><polygon fill="none" points="52,131.1094,42,135.1094,52,139.1094,48,135.1094" style="stroke:none;stroke-width:1.0;"/><text fill="#000000" font-family="sans-serif" font-size="13" lengthAdjust="spacing" textLength="90" x="48" y="117.3672">actor1 activity</text><!--SRC=[KomeIapFJLGeISslKYWfAatbIamkoInBB4bLK0AoyeiK39KKbFrpCilmoBWK9IPXbVLDJSaipGrEJNGlIatDur97IEb6AwU1WO51h1r2YvK2c6MeK5oQf0l2O5CpIogvaBJ2rHi1ERfSQiXSk9on4bONEUK0lQY6K8IamqI9AoKLKmyNQOw6EvX2is3c0000]--></g></svg>