<svg xmlns="http://www.w3.org/2000/svg" xmlns:xlink="http://www.w3.org/1999/xlink" contentStyleType="text/css" height="384px" preserveAspectRatio="none" style="width:219px;height:384px;background:#FFFFFF;" version="1.1" viewBox="0 0 219 384" width="219px" zoomAndPan="magnify"><defs/><g><rect fill="#FFFFAA" height="55.3105" style="stroke:#FFFFAA;stroke-width:1.0;" width="146" x="34" y="48.4883"/><rect fill="#FFFFAA" height="55.3105" style="stroke:#FFFFAA;stroke-width:1.0;" width="146" x="39" y="121.7988"/><rect fill="#FFFFAA" height="55.3105" style="stroke:#FFFFAA;stroke-width:1.0;" width="151" x="34" y="195.1094"/><rect fill="#FFFFAA" height="55.3105" style="stroke:#FFFFAA;stroke-width:1.0;" width="141" x="39" y="268.4199"/><line style="stroke:#181818;stroke-width:0.5;stroke-dasharray:5.0,5.0;" x1="55" x2="55" y1="36.4883" y2="347.7305"/><rect fill="#FFFFFF" height="14" style="stroke:#181818;stroke-width:1.0;" width="10" x="50" y="81.7988"/><rect fill="#FFFFFF" height="14" style="stroke:#181818;stroke-width:1.0;" width="10" x="50" y="228.4199"/><line style="stroke:#181818;stroke-width:0.5;stroke-dasharray:5.0,5.0;" x1="164" x2="164" y1="36.4883" y2="347.7305"/><rect fill="#FFFFFF" height="14" style="stroke:#181818;stroke-width:1.0;" width="10" x="159" y="155.1094"/><rect fill="#FFFFFF" height="14" style="stroke:#181818;stroke-width:1.0;" width="10" x="159" y="228.4199"/><rect fill="#E2E2F0" height="30.4883" rx="2.5" ry="2.5" style="stroke:#181818;stroke-width:0.5;" width="100" x="5" y="5"/><text fill="#000000" font-family="sans-serif" font-size="14" lengthAdjust="spacing" textLength="86" x="12" y="25.5352">Particpant_A</text><rect fill="#E2E2F0" height="30.4883" rx="2.5" ry="2.5" style="stroke:#181818;stroke-width:0.5;" width="98" x="115" y="5"/><text fill="#000000" font-family="sans-serif" font-size="14" lengthAdjust="spacing" textLength="84" x="122" y="25.5352">Particpant_B</text><rect fill="#E2E2F0" height="30.4883" rx="2.5" ry="2.5" style="stroke:#181818;stroke-width:0.5;" width="100" x="5" y="347.7305"/><text fill="#000000" font-family="sans-serif" font-size="14" lengthAdjust="spacing" textLength="86" x="12" y="368.2656">Particpant_A</text><rect fill="#E2E2F0" height="30.4883" rx="2.5" ry="2.5" style="stroke:#181818;stroke-width:0.5;" width="98" x="115" y="347.7305"/><text fill="#000000" font-family="sans-serif" font-size="14" lengthAdjust="spacing" textLength="84" x="122" y="368.2656">Particpant_B</text><path d="M34,48.4883 L134,48.4883 L134,55.7988 L124,65.7988 L34,65.7988 L34,48.4883 " fill="#EEEEEE" style="stroke:#000000;stroke-width:1.5;"/><rect fill="none" height="55.3105" style="stroke:#000000;stroke-width:1.5;" width="146" x="34" y="48.4883"/><text fill="#000000" font-family="sans-serif" font-size="13" font-weight="bold" lengthAdjust="spacing" textLength="55" x="49" y="62.0566">Group 1</text><polygon fill="#181818" points="152,77.7988,162,81.7988,152,85.7988,156,81.7988" style="stroke:#181818;stroke-width:1.0;"/><line style="stroke:#181818;stroke-width:1.0;" x1="60" x2="158" y1="81.7988" y2="81.7988"/><polygon fill="#181818" points="71,91.7988,61,95.7988,71,99.7988,67,95.7988" style="stroke:#181818;stroke-width:1.0;"/><line style="stroke:#181818;stroke-width:1.0;" x1="65" x2="163" y1="95.7988" y2="95.7988"/><path d="M39,121.7988 L139,121.7988 L139,129.1094 L129,139.1094 L39,139.1094 L39,121.7988 " fill="#EEEEEE" style="stroke:#000000;stroke-width:1.5;"/><rect fill="none" height="55.3105" style="stroke:#000000;stroke-width:1.5;" width="146" x="39" y="121.7988"/><text fill="#000000" font-family="sans-serif" font-size="13" font-weight="bold" lengthAdjust="spacing" textLength="55" x="54" y="135.3672">Group 2</text><polygon fill="#181818" points="147,151.1094,157,155.1094,147,159.1094,151,155.1094" style="stroke:#181818;stroke-width:1.0;"/><line style="stroke:#181818;stroke-width:1.0;" x1="55" x2="153" y1="155.1094" y2="155.1094"/><polygon fill="#181818" points="66,165.1094,56,169.1094,66,173.1094,62,169.1094" style="stroke:#181818;stroke-width:1.0;"/><line style="stroke:#181818;stroke-width:1.0;" x1="60" x2="158" y1="169.1094" y2="169.1094"/><path d="M34,195.1094 L134,195.1094 L134,202.4199 L124,212.4199 L34,212.4199 L34,195.1094 " fill="#EEEEEE" style="stroke:#000000;stroke-width:1.5;"/><rect fill="none" height="55.3105" style="stroke:#000000;stroke-width:1.5;" width="151" x="34" y="195.1094"/><text fill="#000000" font-family="sans-serif" font-size="13" font-weight="bold" lengthAdjust="spacing" textLength="55" x="49" y="208.6777">Group 3</text><polygon fill="#181818" points="147,224.4199,157,228.4199,147,232.4199,151,228.4199" style="stroke:#181818;stroke-width:1.0;"/><line style="stroke:#181818;stroke-width:1.0;" x1="60" x2="153" y1="228.4199" y2="228.4199"/><polygon fill="#181818" points="71,238.4199,61,242.4199,71,246.4199,67,242.4199" style="stroke:#181818;stroke-width:1.0;"/><line style="stroke:#181818;stroke-width:1.0;" x1="65" x2="158" y1="242.4199" y2="242.4199"/><path d="M39,268.4199 L139,268.4199 L139,275.7305 L129,285.7305 L39,285.7305 L39,268.4199 " fill="#EEEEEE" style="stroke:#000000;stroke-width:1.5;"/><rect fill="none" height="55.3105" style="stroke:#000000;stroke-width:1.5;" width="141" x="39" y="268.4199"/><text fill="#000000" font-family="sans-serif" font-size="13" font-weight="bold" lengthAdjust="spacing" textLength="55" x="54" y="281.9883">Group 4</text><polygon fill="#181818" points="152,297.7305,162,301.7305,152,305.7305,156,301.7305" style="stroke:#181818;stroke-width:1.0;"/><line style="stroke:#181818;stroke-width:1.0;" x1="55" x2="158" y1="301.7305" y2="301.7305"/><polygon fill="#181818" points="66,311.7305,56,315.7305,66,319.7305,62,315.7305" style="stroke:#181818;stroke-width:1.0;"/><line style="stroke:#181818;stroke-width:1.0;" x1="60" x2="163" y1="315.7305" y2="315.7305"/><!--SRC=[KomeIapFJLGeISslKYWfAatbuaeloYyjK51EIqjKS0Sp3RaKW20WiQWaCxaWCQyatb51rmwPxmHMa9XSabcMM9AAeX9JguqkfjQKLEoQK_DIiBZ7YA1xjBK9sgkhYyDqOs9D9y-_G7j9zx49SJ60Dvo19WC0]--></g></svg>