<svg xmlns="http://www.w3.org/2000/svg" xmlns:xlink="http://www.w3.org/1999/xlink" contentStyleType="text/css" height="237px" preserveAspectRatio="none" style="width:216px;height:237px;background:#FFFFFF;" version="1.1" viewBox="0 0 216 237" width="216px" zoomAndPan="magnify"><defs/><g><rect fill="#FFFFAA" height="55.3105" style="stroke:#FFFFAA;stroke-width:1.0;" width="139.9761" x="38.3896" y="48.4883"/><rect fill="#FFFFAA" height="55.3105" style="stroke:#FFFFAA;stroke-width:1.0;" width="144.9761" x="38.3896" y="121.7988"/><line style="stroke:#181818;stroke-width:0.5;stroke-dasharray:5.0,5.0;" x1="54.3896" x2="54.3896" y1="36.4883" y2="201.1094"/><line style="stroke:#181818;stroke-width:0.5;stroke-dasharray:5.0,5.0;" x1="162.3657" x2="162.3657" y1="36.4883" y2="201.1094"/><rect fill="#FFFFFF" height="14" style="stroke:#181818;stroke-width:1.0;" width="10" x="157.3657" y="155.1094"/><rect fill="#E2E2F0" height="30.4883" rx="2.5" ry="2.5" style="stroke:#181818;stroke-width:0.5;" width="98.7793" x="5" y="5"/><text fill="#000000" font-family="sans-serif" font-size="14" lengthAdjust="spacing" textLength="84.7793" x="12" y="25.5352">Particpant_A</text><rect fill="#E2E2F0" height="30.4883" rx="2.5" ry="2.5" style="stroke:#181818;stroke-width:0.5;" width="97.1729" x="113.7793" y="5"/><text fill="#000000" font-family="sans-serif" font-size="14" lengthAdjust="spacing" textLength="83.1729" x="120.7793" y="25.5352">Particpant_B</text><rect fill="#E2E2F0" height="30.4883" rx="2.5" ry="2.5" style="stroke:#181818;stroke-width:0.5;" width="98.7793" x="5" y="201.1094"/><text fill="#000000" font-family="sans-serif" font-size="14" lengthAdjust="spacing" textLength="84.7793" x="12" y="221.6445">Particpant_A</text><rect fill="#E2E2F0" height="30.4883" rx="2.5" ry="2.5" style="stroke:#181818;stroke-width:0.5;" width="97.1729" x="113.7793" y="201.1094"/><text fill="#000000" font-family="sans-serif" font-size="14" lengthAdjust="spacing" textLength="83.1729" x="120.7793" y="221.6445">Particpant_B</text><path d="M38.3896,48.4883 L137.3066,48.4883 L137.3066,55.7988 L127.3066,65.7988 L38.3896,65.7988 L38.3896,48.4883 " fill="#EEEEEE" style="stroke:#000000;stroke-width:1.5;"/><rect fill="none" height="55.3105" style="stroke:#000000;stroke-width:1.5;" width="139.9761" x="38.3896" y="48.4883"/><text fill="#000000" font-family="sans-serif" font-size="13" font-weight="bold" lengthAdjust="spacing" textLength="53.917" x="53.3896" y="62.0566">Group 1</text><polygon fill="#181818" points="150.3657,77.7988,160.3657,81.7988,150.3657,85.7988,154.3657,81.7988" style="stroke:#181818;stroke-width:1.0;"/><line style="stroke:#181818;stroke-width:1.0;" x1="54.3896" x2="156.3657" y1="81.7988" y2="81.7988"/><polygon fill="#181818" points="65.3896,91.7988,55.3896,95.7988,65.3896,99.7988,61.3896,95.7988" style="stroke:#181818;stroke-width:1.0;"/><line style="stroke:#181818;stroke-width:1.0;" x1="59.3896" x2="161.3657" y1="95.7988" y2="95.7988"/><path d="M38.3896,121.7988 L137.3066,121.7988 L137.3066,129.1094 L127.3066,139.1094 L38.3896,139.1094 L38.3896,121.7988 " fill="#EEEEEE" style="stroke:#000000;stroke-width:1.5;"/><rect fill="none" height="55.3105" style="stroke:#000000;stroke-width:1.5;" width="144.9761" x="38.3896" y="121.7988"/><text fill="#000000" font-family="sans-serif" font-size="13" font-weight="bold" lengthAdjust="spacing" textLength="53.917" x="53.3896" y="135.3672">Group 2</text><polygon fill="#181818" points="145.3657,151.1094,155.3657,155.1094,145.3657,159.1094,149.3657,155.1094" style="stroke:#181818;stroke-width:1.0;"/><line style="stroke:#181818;stroke-width:1.0;" x1="54.3896" x2="151.3657" y1="155.1094" y2="155.1094"/><polygon fill="#181818" points="65.3896,165.1094,55.3896,169.1094,65.3896,173.1094,61.3896,169.1094" style="stroke:#181818;stroke-width:1.0;"/><line style="stroke:#181818;stroke-width:1.0;" x1="59.3896" x2="156.3657" y1="169.1094" y2="169.1094"/><!--SRC=[KomeIapFJLGeISslKYWfAatbuaeloYyjK51EIqjKS0Sp3RaKW20WiQWaCxaWCQyatb51rmwPxuIfm4ONLK5gNWeMauq8cgojJT1iNLsGwG00]--></g></svg>