<svg xmlns="http://www.w3.org/2000/svg" xmlns:xlink="http://www.w3.org/1999/xlink" contentStyleType="text/css" height="201px" preserveAspectRatio="none" style="width:143px;height:201px;background:#FFFFFF;" version="1.1" viewBox="0 0 143 201" width="143px" zoomAndPan="magnify"><defs/><g><rect fill="#FFFFFF" height="65.3105" style="stroke:#181818;stroke-width:1.0;" width="10" x="11.5" y="75.7988"/><rect fill="#FFFFFF" height="65.3105" style="stroke:#181818;stroke-width:1.0;" width="10" x="16.5" y="75.7988"/><rect fill="#FFFFFF" height="65.3105" style="stroke:#181818;stroke-width:1.0;" width="10" x="21.5" y="75.7988"/><line style="stroke:#181818;stroke-width:0.5;stroke-dasharray:5.0,5.0;" x1="16" x2="16" y1="36.4883" y2="166.1094"/><rect fill="#E2E2F0" height="30.4883" rx="2.5" ry="2.5" style="stroke:#181818;stroke-width:0.5;" width="23" x="5" y="5"/><text fill="#000000" font-family="sans-serif" font-size="14" lengthAdjust="spacing" textLength="9" x="12" y="25.5352">1</text><rect fill="#E2E2F0" height="30.4883" rx="2.5" ry="2.5" style="stroke:#181818;stroke-width:0.5;" width="23" x="5" y="165.1094"/><text fill="#000000" font-family="sans-serif" font-size="14" lengthAdjust="spacing" textLength="9" x="12" y="185.6445">1</text><rect fill="#FFFFFF" height="65.3105" style="stroke:#181818;stroke-width:1.0;" width="10" x="11.5" y="75.7988"/><rect fill="#FFFFFF" height="65.3105" style="stroke:#181818;stroke-width:1.0;" width="10" x="16.5" y="75.7988"/><rect fill="#FFFFFF" height="65.3105" style="stroke:#181818;stroke-width:1.0;" width="10" x="21.5" y="75.7988"/><ellipse cx="16" cy="62.0488" fill="none" rx="4" ry="4" style="stroke:#181818;stroke-width:1.5;"/><line style="stroke:#181818;stroke-width:1.0;" x1="20.5" x2="63.5" y1="62.7988" y2="62.7988"/><line style="stroke:#181818;stroke-width:1.0;" x1="63.5" x2="63.5" y1="62.7988" y2="75.7988"/><line style="stroke:#181818;stroke-width:1.0;" x1="22.5" x2="63.5" y1="75.7988" y2="75.7988"/><polygon fill="#181818" points="32.5,71.7988,22.5,75.7988,32.5,79.7988,28.5,75.7988" style="stroke:#181818;stroke-width:1.0;"/><text fill="#000000" font-family="sans-serif" font-size="13" lengthAdjust="spacing" textLength="98" x="28.5" y="58.0566">actor1 activity1</text><ellipse cx="31" cy="139.3594" fill="none" rx="4" ry="4" style="stroke:#181818;stroke-width:1.5;"/><line style="stroke:#181818;stroke-width:1.0;" x1="35.5" x2="73.5" y1="140.1094" y2="140.1094"/><line style="stroke:#181818;stroke-width:1.0;" x1="73.5" x2="73.5" y1="140.1094" y2="153.1094"/><line style="stroke:#181818;stroke-width:1.0;" x1="26.5" x2="73.5" y1="153.1094" y2="153.1094"/><polygon fill="#181818" points="36.5,149.1094,26.5,153.1094,36.5,157.1094,32.5,153.1094" style="stroke:#181818;stroke-width:1.0;"/><text fill="#000000" font-family="sans-serif" font-size="13" lengthAdjust="spacing" textLength="98" x="38.5" y="135.3672">actor1 activity2</text><!--SRC=[KrSiA4fCpqrKA4dDhr8eAIfDvUBYCbJ8rxLJCBHII4mkoIyo156PPPabbOPSO5PYIQe2BcPDZP5fJGrk8uouKbAHbEFa0000]--></g></svg>