<svg xmlns="http://www.w3.org/2000/svg" xmlns:xlink="http://www.w3.org/1999/xlink" contentStyleType="text/css" height="583px" preserveAspectRatio="none" style="width:272px;height:583px;background:#FFFFFF;" version="1.1" viewBox="0 0 272 583" width="272px" zoomAndPan="magnify"><defs/><g><line style="stroke:#181818;stroke-width:0.5;stroke-dasharray:5.0,5.0;" x1="16.8296" x2="16.8296" y1="36.4883" y2="547.457"/><line style="stroke:#181818;stroke-width:0.5;stroke-dasharray:5.0,5.0;" x1="78.1709" x2="78.1709" y1="36.4883" y2="547.457"/><rect fill="#FFFFFF" height="50.6211" style="stroke:#181818;stroke-width:1.0;" width="10" x="73.1709" y="109.1094"/><rect fill="#FFFFFF" height="50.6211" style="stroke:#181818;stroke-width:1.0;" width="10" x="73.1709" y="232.3516"/><rect fill="#FFFFFF" height="65.9316" style="stroke:#181818;stroke-width:1.0;" width="10" x="73.1709" y="355.5938"/><rect fill="#FFFFFF" height="35.3105" style="stroke:#181818;stroke-width:1.0;" width="10" x="73.1709" y="494.1465"/><rect fill="#E2E2F0" height="30.4883" rx="2.5" ry="2.5" style="stroke:#181818;stroke-width:0.5;" width="23.6592" x="5" y="5"/><text fill="#000000" font-family="sans-serif" font-size="14" lengthAdjust="spacing" textLength="9.6592" x="12" y="25.5352">A</text><rect fill="#E2E2F0" height="30.4883" rx="2.5" ry="2.5" style="stroke:#181818;stroke-width:0.5;" width="22.0527" x="67.1445" y="5"/><text fill="#000000" font-family="sans-serif" font-size="14" lengthAdjust="spacing" textLength="8.0527" x="74.1445" y="25.5352">B</text><rect fill="#E2E2F0" height="30.4883" rx="2.5" ry="2.5" style="stroke:#181818;stroke-width:0.5;" width="23.6592" x="5" y="547.457"/><text fill="#000000" font-family="sans-serif" font-size="14" lengthAdjust="spacing" textLength="9.6592" x="12" y="567.9922">A</text><rect fill="#E2E2F0" height="30.4883" rx="2.5" ry="2.5" style="stroke:#181818;stroke-width:0.5;" width="22.0527" x="67.1445" y="547.457"/><text fill="#000000" font-family="sans-serif" font-size="14" lengthAdjust="spacing" textLength="8.0527" x="74.1445" y="567.9922">B</text><rect fill="#EEEEEE" height="3" style="stroke:#EEEEEE;stroke-width:1.0;" width="260.3149" x="5" y="65.1436"/><line style="stroke:#000000;stroke-width:1.0;" x1="5" x2="265.3149" y1="65.1436" y2="65.1436"/><line style="stroke:#000000;stroke-width:1.0;" x1="5" x2="265.3149" y1="68.1436" y2="68.1436"/><rect fill="#EEEEEE" height="23.3105" style="stroke:#000000;stroke-width:2.0;" width="51.3242" x="109.4954" y="54.4883"/><text fill="#000000" font-family="sans-serif" font-size="13" font-weight="bold" lengthAdjust="spacing" textLength="33.0396" x="115.4954" y="71.0566">Bad I</text><polygon fill="#181818" points="61.1709,105.1094,71.1709,109.1094,61.1709,113.1094,65.1709,109.1094" style="stroke:#181818;stroke-width:1.0;"/><line style="stroke:#181818;stroke-width:1.0;" x1="16.8296" x2="67.1709" y1="109.1094" y2="109.1094"/><text fill="#000000" font-family="sans-serif" font-size="13" lengthAdjust="spacing" textLength="28.1138" x="23.8296" y="104.3672">ping</text><path d="M88.1709,92.7988 L88.1709,132.7988 L208.1709,132.7988 L208.1709,102.7988 L198.1709,92.7988 L88.1709,92.7988 " fill="#FEFFDD" style="stroke:#181818;stroke-width:0.5;"/><path d="M198.1709,92.7988 L198.1709,102.7988 L208.1709,102.7988 L198.1709,92.7988 " fill="#FEFFDD" style="stroke:#181818;stroke-width:0.5;"/><text fill="#000000" font-family="sans-serif" font-size="13" lengthAdjust="spacing" textLength="99.8486" x="94.1709" y="110.3672">Lifeline extends</text><text fill="#000000" font-family="sans-serif" font-size="13" lengthAdjust="spacing" textLength="86.125" x="98.2842" y="125.6777">past message</text><polygon fill="#181818" points="110.02,155.7305,120.02,159.7305,110.02,163.7305,114.02,159.7305" style="stroke:#181818;stroke-width:1.0;"/><line style="stroke:#181818;stroke-width:1.0;stroke-dasharray:2.0,2.0;" x1="83.1709" x2="116.02" y1="159.7305" y2="159.7305"/><text fill="#000000" font-family="sans-serif" font-size="13" lengthAdjust="spacing" textLength="19.8491" x="90.1709" y="154.9883">log</text><polygon fill="#181818" points="27.8296,155.7305,17.8296,159.7305,27.8296,163.7305,23.8296,159.7305" style="stroke:#181818;stroke-width:1.0;"/><line style="stroke:#181818;stroke-width:1.0;" x1="21.8296" x2="72.1709" y1="159.7305" y2="159.7305"/><text fill="#000000" font-family="sans-serif" font-size="13" lengthAdjust="spacing" textLength="32.3413" x="33.8296" y="154.9883">pong</text><rect fill="#EEEEEE" height="3" style="stroke:#EEEEEE;stroke-width:1.0;" width="260.3149" x="5" y="188.3857"/><line style="stroke:#000000;stroke-width:1.0;" x1="5" x2="265.3149" y1="188.3857" y2="188.3857"/><line style="stroke:#000000;stroke-width:1.0;" x1="5" x2="265.3149" y1="191.3857" y2="191.3857"/><rect fill="#EEEEEE" height="23.3105" style="stroke:#000000;stroke-width:2.0;" width="55.6343" x="107.3403" y="177.7305"/><text fill="#000000" font-family="sans-serif" font-size="13" font-weight="bold" lengthAdjust="spacing" textLength="37.3496" x="113.3403" y="194.2988">Bad II</text><polygon fill="#181818" points="61.1709,228.3516,71.1709,232.3516,61.1709,236.3516,65.1709,232.3516" style="stroke:#181818;stroke-width:1.0;"/><line style="stroke:#181818;stroke-width:1.0;" x1="16.8296" x2="67.1709" y1="232.3516" y2="232.3516"/><text fill="#000000" font-family="sans-serif" font-size="13" lengthAdjust="spacing" textLength="28.1138" x="23.8296" y="227.6094">ping</text><path d="M88.1709,216.041 L88.1709,256.041 L260.1709,256.041 L260.1709,226.041 L250.1709,216.041 L88.1709,216.041 " fill="#FEFFDD" style="stroke:#181818;stroke-width:0.5;"/><path d="M250.1709,216.041 L250.1709,226.041 L260.1709,226.041 L250.1709,216.041 " fill="#FEFFDD" style="stroke:#181818;stroke-width:0.5;"/><text fill="#000000" font-family="sans-serif" font-size="13" lengthAdjust="spacing" textLength="93.4883" x="94.1709" y="233.6094">equally broken</text><text fill="#000000" font-family="sans-serif" font-size="13" lengthAdjust="spacing" textLength="151.144" x="94.1709" y="248.9199">without --/++ notation</text><polygon fill="#181818" points="110.02,278.9727,120.02,282.9727,110.02,286.9727,114.02,282.9727" style="stroke:#181818;stroke-width:1.0;"/><line style="stroke:#181818;stroke-width:1.0;stroke-dasharray:2.0,2.0;" x1="83.1709" x2="116.02" y1="282.9727" y2="282.9727"/><text fill="#000000" font-family="sans-serif" font-size="13" lengthAdjust="spacing" textLength="19.8491" x="90.1709" y="278.2305">log</text><polygon fill="#181818" points="27.8296,278.9727,17.8296,282.9727,27.8296,286.9727,23.8296,282.9727" style="stroke:#181818;stroke-width:1.0;"/><line style="stroke:#181818;stroke-width:1.0;" x1="21.8296" x2="72.1709" y1="282.9727" y2="282.9727"/><text fill="#000000" font-family="sans-serif" font-size="13" lengthAdjust="spacing" textLength="32.3413" x="33.8296" y="278.2305">pong</text><rect fill="#EEEEEE" height="3" style="stroke:#EEEEEE;stroke-width:1.0;" width="260.3149" x="5" y="311.6279"/><line style="stroke:#000000;stroke-width:1.0;" x1="5" x2="265.3149" y1="311.6279" y2="311.6279"/><line style="stroke:#000000;stroke-width:1.0;" x1="5" x2="265.3149" y1="314.6279" y2="314.6279"/><rect fill="#EEEEEE" height="23.3105" style="stroke:#000000;stroke-width:2.0;" width="53.1968" x="108.5591" y="300.9727"/><text fill="#000000" font-family="sans-serif" font-size="13" font-weight="bold" lengthAdjust="spacing" textLength="34.9121" x="114.5591" y="317.541">Good</text><polygon fill="#181818" points="61.1709,351.5938,71.1709,355.5938,61.1709,359.5938,65.1709,355.5938" style="stroke:#181818;stroke-width:1.0;"/><line style="stroke:#181818;stroke-width:1.0;" x1="16.8296" x2="67.1709" y1="355.5938" y2="355.5938"/><text fill="#000000" font-family="sans-serif" font-size="13" lengthAdjust="spacing" textLength="28.1138" x="23.8296" y="350.8516">ping</text><path d="M88.1709,339.2832 L88.1709,394.2832 L207.1709,394.2832 L207.1709,349.2832 L197.1709,339.2832 L88.1709,339.2832 " fill="#FEFFDD" style="stroke:#181818;stroke-width:0.5;"/><path d="M197.1709,339.2832 L197.1709,349.2832 L207.1709,349.2832 L197.1709,339.2832 " fill="#FEFFDD" style="stroke:#181818;stroke-width:0.5;"/><text fill="#000000" font-family="sans-serif" font-size="13" lengthAdjust="spacing" textLength="98.6553" x="94.1709" y="356.8516">but not perfect:</text><text fill="#000000" font-family="sans-serif" font-size="13" lengthAdjust="spacing" textLength="90.8921" x="94.1709" y="372.1621">"log" too close</text><text fill="#000000" font-family="sans-serif" font-size="13" lengthAdjust="spacing" textLength="59.3252" x="98.2842" y="387.4727">to lifeline</text><polygon fill="#181818" points="27.8296,417.5254,17.8296,421.5254,27.8296,425.5254,23.8296,421.5254" style="stroke:#181818;stroke-width:1.0;"/><line style="stroke:#181818;stroke-width:1.0;" x1="21.8296" x2="72.1709" y1="421.5254" y2="421.5254"/><text fill="#000000" font-family="sans-serif" font-size="13" lengthAdjust="spacing" textLength="32.3413" x="33.8296" y="416.7832">pong</text><polygon fill="#181818" points="110.02,417.5254,120.02,421.5254,110.02,425.5254,114.02,421.5254" style="stroke:#181818;stroke-width:1.0;"/><line style="stroke:#181818;stroke-width:1.0;stroke-dasharray:2.0,2.0;" x1="78.1709" x2="116.02" y1="421.5254" y2="421.5254"/><text fill="#000000" font-family="sans-serif" font-size="13" lengthAdjust="spacing" textLength="19.8491" x="85.1709" y="416.7832">log</text><rect fill="#EEEEEE" height="3" style="stroke:#EEEEEE;stroke-width:1.0;" width="260.3149" x="5" y="450.1807"/><line style="stroke:#000000;stroke-width:1.0;" x1="5" x2="265.3149" y1="450.1807" y2="450.1807"/><line style="stroke:#000000;stroke-width:1.0;" x1="5" x2="265.3149" y1="453.1807" y2="453.1807"/><rect fill="#EEEEEE" height="23.3105" style="stroke:#000000;stroke-width:2.0;" width="46.7095" x="111.8027" y="439.5254"/><text fill="#000000" font-family="sans-serif" font-size="13" font-weight="bold" lengthAdjust="spacing" textLength="28.4248" x="117.8027" y="456.0938">Best</text><polygon fill="#181818" points="61.1709,490.1465,71.1709,494.1465,61.1709,498.1465,65.1709,494.1465" style="stroke:#181818;stroke-width:1.0;"/><line style="stroke:#181818;stroke-width:1.0;" x1="16.8296" x2="67.1709" y1="494.1465" y2="494.1465"/><text fill="#000000" font-family="sans-serif" font-size="13" lengthAdjust="spacing" textLength="28.1138" x="23.8296" y="489.4043">ping</text><path d="M88.1709,477.8359 L88.1709,502.8359 L198.1709,502.8359 L198.1709,487.8359 L188.1709,477.8359 L88.1709,477.8359 " fill="#FEFFDD" style="stroke:#181818;stroke-width:0.5;"/><path d="M188.1709,477.8359 L188.1709,487.8359 L198.1709,487.8359 L188.1709,477.8359 " fill="#FEFFDD" style="stroke:#181818;stroke-width:0.5;"/><text fill="#000000" font-family="sans-serif" font-size="13" lengthAdjust="spacing" textLength="89.6416" x="94.1709" y="495.4043">Looks perfect!</text><polygon fill="#181818" points="110.02,525.457,120.02,529.457,110.02,533.457,114.02,529.457" style="stroke:#181818;stroke-width:1.0;"/><line style="stroke:#181818;stroke-width:1.0;stroke-dasharray:2.0,2.0;" x1="83.1709" x2="116.02" y1="529.457" y2="529.457"/><text fill="#000000" font-family="sans-serif" font-size="13" lengthAdjust="spacing" textLength="19.8491" x="90.1709" y="524.7148">log</text><polygon fill="#181818" points="27.8296,525.457,17.8296,529.457,27.8296,533.457,23.8296,529.457" style="stroke:#181818;stroke-width:1.0;"/><line style="stroke:#181818;stroke-width:1.0;" x1="21.8296" x2="77.1709" y1="529.457" y2="529.457"/><text fill="#000000" font-family="sans-serif" font-size="13" lengthAdjust="spacing" textLength="32.3413" x="33.8296" y="524.7148">pong</text><!--SRC=[bP3TIiD048MliqznMa4lGb316mEfD0XIw2FaPfjCqwNRdPYT-FVqZiMsXYBYvS3mVUUSITVRTcSXn1-GVY1pjOXn85pStjpVcQ90QHiiK1HcZco64ccQ93aw5reJM0YzQpUIO-dMv5qWq9jGQ68LqDaes56CjYLJ8ijc3yZXkJMNob6O4hCzZ1LsKFrq9KVLl1RtObLNZgpqF5Zltx7gUKkX2gzEDZo8Sg_J5FffnN7uHNvKFv8zuJN74tFpT-ELUlH6H_sQQichC5Ny5CACsdCadK0O_diOSrvvd-GKx6i1qid-qN_9l8s719Dnpr6hizAV]--></g></svg>