<svg xmlns="http://www.w3.org/2000/svg" xmlns:xlink="http://www.w3.org/1999/xlink" contentStyleType="text/css" height="673px" preserveAspectRatio="none" style="width:118px;height:673px;background:#FFFFFF;" version="1.1" viewBox="0 0 118 673" width="118px" zoomAndPan="magnify"><defs/><g><line style="stroke:#181818;stroke-width:0.5;stroke-dasharray:5.0,5.0;" x1="28.5" x2="28.5" y1="36.4883" y2="637.1445"/><line style="stroke:#181818;stroke-width:0.5;stroke-dasharray:5.0,5.0;" x1="92.5" x2="92.5" y1="36.4883" y2="637.1445"/><rect fill="#E2E2F0" height="30.4883" rx="2.5" ry="2.5" style="stroke:#181818;stroke-width:0.5;" width="47" x="5" y="5"/><text fill="#000000" font-family="sans-serif" font-size="14" lengthAdjust="spacing" textLength="33" x="12" y="25.5352">Alice</text><rect fill="#E2E2F0" height="30.4883" rx="2.5" ry="2.5" style="stroke:#181818;stroke-width:0.5;" width="40" x="72.5" y="5"/><text fill="#000000" font-family="sans-serif" font-size="14" lengthAdjust="spacing" textLength="26" x="79.5" y="25.5352">Bob</text><rect fill="#E2E2F0" height="30.4883" rx="2.5" ry="2.5" style="stroke:#181818;stroke-width:0.5;" width="47" x="5" y="637.1445"/><text fill="#000000" font-family="sans-serif" font-size="14" lengthAdjust="spacing" textLength="33" x="12" y="657.6797">Alice</text><rect fill="#E2E2F0" height="30.4883" rx="2.5" ry="2.5" style="stroke:#181818;stroke-width:0.5;" width="40" x="72.5" y="637.1445"/><text fill="#000000" font-family="sans-serif" font-size="14" lengthAdjust="spacing" textLength="26" x="79.5" y="657.6797">Bob</text><polygon fill="#181818" points="39.5,61.6211,29.5,65.6211,39.5,69.6211,35.5,65.6211" style="stroke:#181818;stroke-width:1.0;"/><line style="stroke:#181818;stroke-width:1.0;" x1="33.5" x2="91.5" y1="65.6211" y2="65.6211"/><text fill="#000000" font-family="monospace" font-size="13" lengthAdjust="spacing" textLength="16" x="45.5" y="60.5552">&lt;-</text><line style="stroke:#181818;stroke-width:1.0;" x1="29.5" x2="39.5" y1="94.7539" y2="90.7539"/><line style="stroke:#181818;stroke-width:1.0;" x1="29.5" x2="39.5" y1="94.7539" y2="98.7539"/><line style="stroke:#181818;stroke-width:1.0;" x1="28.5" x2="91.5" y1="94.7539" y2="94.7539"/><text fill="#000000" font-family="monospace" font-size="13" lengthAdjust="spacing" textLength="24" x="45.5" y="89.688">&lt;&lt;-</text><polygon fill="#181818" points="39.5,119.8867,29.5,123.8867,39.5,123.8867" style="stroke:#181818;stroke-width:1.0;"/><line style="stroke:#181818;stroke-width:1.0;" x1="28.5" x2="91.5" y1="123.8867" y2="123.8867"/><text fill="#000000" font-family="monospace" font-size="13" lengthAdjust="spacing" textLength="16" x="45.5" y="118.8208">/-</text><line style="stroke:#181818;stroke-width:1.0;" x1="29.5" x2="39.5" y1="153.0195" y2="149.0195"/><line style="stroke:#181818;stroke-width:1.0;" x1="28.5" x2="91.5" y1="153.0195" y2="153.0195"/><text fill="#000000" font-family="monospace" font-size="13" lengthAdjust="spacing" textLength="24" x="45.5" y="147.9536">//-</text><polygon fill="#181818" points="39.5,182.1523,29.5,182.1523,39.5,186.1523" style="stroke:#181818;stroke-width:1.0;"/><line style="stroke:#181818;stroke-width:1.0;" x1="28.5" x2="91.5" y1="182.1523" y2="182.1523"/><text fill="#000000" font-family="monospace" font-size="13" lengthAdjust="spacing" textLength="16" x="45.5" y="177.0864">\-</text><line style="stroke:#181818;stroke-width:1.0;" x1="29.5" x2="39.5" y1="211.2852" y2="215.2852"/><line style="stroke:#181818;stroke-width:1.0;" x1="28.5" x2="91.5" y1="211.2852" y2="211.2852"/><text fill="#000000" font-family="monospace" font-size="13" lengthAdjust="spacing" textLength="24" x="45.5" y="206.2192">\\-</text><line style="stroke:#181818;stroke-width:2.0;" x1="35.5" x2="45.5" y1="235.418" y2="245.418"/><line style="stroke:#181818;stroke-width:2.0;" x1="35.5" x2="45.5" y1="245.418" y2="235.418"/><line style="stroke:#181818;stroke-width:1.0;" x1="40.5" x2="91.5" y1="240.418" y2="240.418"/><text fill="#000000" font-family="monospace" font-size="13" lengthAdjust="spacing" textLength="24" x="45.5" y="235.3521">x&lt;-</text><polygon fill="#181818" points="39.5,265.5508,29.5,269.5508,39.5,273.5508,35.5,269.5508" style="stroke:#181818;stroke-width:1.0;"/><line style="stroke:#181818;stroke-width:2.0;" x1="74.5" x2="84.5" y1="264.5508" y2="274.5508"/><line style="stroke:#181818;stroke-width:2.0;" x1="74.5" x2="84.5" y1="274.5508" y2="264.5508"/><line style="stroke:#181818;stroke-width:1.0;" x1="33.5" x2="79.5" y1="269.5508" y2="269.5508"/><text fill="#000000" font-family="monospace" font-size="13" lengthAdjust="spacing" textLength="24" x="45.5" y="264.4849">&lt;-x</text><polygon fill="#181818" points="39.5,294.6836,29.5,298.6836,39.5,302.6836,35.5,298.6836" style="stroke:#181818;stroke-width:1.0;"/><ellipse cx="92" cy="297.9336" fill="none" rx="4" ry="4" style="stroke:#181818;stroke-width:1.5;"/><line style="stroke:#181818;stroke-width:1.0;" x1="33.5" x2="87.5" y1="298.6836" y2="298.6836"/><text fill="#000000" font-family="monospace" font-size="13" lengthAdjust="spacing" textLength="24" x="45.5" y="293.6177">&lt;-o</text><ellipse cx="28" cy="327.0664" fill="none" rx="4" ry="4" style="stroke:#181818;stroke-width:1.5;"/><polygon fill="#181818" points="45,323.8164,35,327.8164,45,331.8164,41,327.8164" style="stroke:#181818;stroke-width:1.0;"/><line style="stroke:#181818;stroke-width:1.0;" x1="39" x2="91.5" y1="327.8164" y2="327.8164"/><text fill="#000000" font-family="monospace" font-size="13" lengthAdjust="spacing" textLength="24" x="45.5" y="322.7505">o&lt;-</text><ellipse cx="28" cy="356.1992" fill="none" rx="4" ry="4" style="stroke:#181818;stroke-width:1.5;"/><polygon fill="#181818" points="45,352.9492,35,356.9492,45,360.9492,41,356.9492" style="stroke:#181818;stroke-width:1.0;"/><ellipse cx="92" cy="356.1992" fill="none" rx="4" ry="4" style="stroke:#181818;stroke-width:1.5;"/><line style="stroke:#181818;stroke-width:1.0;" x1="39" x2="87.5" y1="356.9492" y2="356.9492"/><text fill="#000000" font-family="monospace" font-size="13" lengthAdjust="spacing" textLength="32" x="45.5" y="351.8833">o&lt;-o</text><polygon fill="#181818" points="39.5,382.082,29.5,386.082,39.5,390.082,35.5,386.082" style="stroke:#181818;stroke-width:1.0;"/><polygon fill="#181818" points="80.5,382.082,90.5,386.082,80.5,390.082,84.5,386.082" style="stroke:#181818;stroke-width:1.0;"/><line style="stroke:#181818;stroke-width:1.0;" x1="33.5" x2="86.5" y1="386.082" y2="386.082"/><text fill="#000000" font-family="monospace" font-size="13" lengthAdjust="spacing" textLength="24" x="45.5" y="381.0161">&lt;-&gt;</text><ellipse cx="28" cy="414.4648" fill="none" rx="4" ry="4" style="stroke:#181818;stroke-width:1.5;"/><polygon fill="#181818" points="45,411.2148,35,415.2148,45,419.2148,41,415.2148" style="stroke:#181818;stroke-width:1.0;"/><ellipse cx="92" cy="414.4648" fill="none" rx="4" ry="4" style="stroke:#181818;stroke-width:1.5;"/><polygon fill="#181818" points="75,411.2148,85,415.2148,75,419.2148,79,415.2148" style="stroke:#181818;stroke-width:1.0;"/><line style="stroke:#181818;stroke-width:1.0;" x1="39" x2="81" y1="415.2148" y2="415.2148"/><text fill="#000000" font-family="monospace" font-size="13" lengthAdjust="spacing" textLength="40" x="45.5" y="410.1489">o&lt;-&gt;o</text><line style="stroke:#181818;stroke-width:2.0;" x1="35.5" x2="45.5" y1="439.3477" y2="449.3477"/><line style="stroke:#181818;stroke-width:2.0;" x1="35.5" x2="45.5" y1="449.3477" y2="439.3477"/><line style="stroke:#181818;stroke-width:2.0;" x1="74.5" x2="84.5" y1="439.3477" y2="449.3477"/><line style="stroke:#181818;stroke-width:2.0;" x1="74.5" x2="84.5" y1="449.3477" y2="439.3477"/><line style="stroke:#181818;stroke-width:1.0;" x1="40.5" x2="79.5" y1="444.3477" y2="444.3477"/><text fill="#000000" font-family="monospace" font-size="13" lengthAdjust="spacing" textLength="40" x="45.5" y="439.2817">x&lt;-&gt;x</text><ellipse cx="28" cy="472.7305" fill="none" rx="4" ry="4" style="stroke:#181818;stroke-width:1.5;"/><line style="stroke:#181818;stroke-width:1.0;" x1="35" x2="45" y1="473.4805" y2="469.4805"/><line style="stroke:#181818;stroke-width:1.0;" x1="35" x2="45" y1="473.4805" y2="477.4805"/><line style="stroke:#181818;stroke-width:1.0;" x1="34" x2="91.5" y1="473.4805" y2="473.4805"/><text fill="#000000" font-family="monospace" font-size="13" lengthAdjust="spacing" textLength="32" x="45.5" y="468.4146">o&lt;&lt;-</text><ellipse cx="28" cy="501.8633" fill="none" rx="4" ry="4" style="stroke:#181818;stroke-width:1.5;"/><polygon fill="#181818" points="45,498.6133,35,502.6133,45,502.6133" style="stroke:#181818;stroke-width:1.0;"/><line style="stroke:#181818;stroke-width:1.0;" x1="34" x2="91.5" y1="502.6133" y2="502.6133"/><text fill="#000000" font-family="monospace" font-size="13" lengthAdjust="spacing" textLength="24" x="45.5" y="497.5474">o/-</text><ellipse cx="28" cy="530.9961" fill="none" rx="4" ry="4" style="stroke:#181818;stroke-width:1.5;"/><line style="stroke:#181818;stroke-width:1.0;" x1="35" x2="45" y1="531.7461" y2="527.7461"/><line style="stroke:#181818;stroke-width:1.0;" x1="34" x2="91.5" y1="531.7461" y2="531.7461"/><text fill="#000000" font-family="monospace" font-size="13" lengthAdjust="spacing" textLength="32" x="45.5" y="526.6802">o//-</text><ellipse cx="28" cy="560.1289" fill="none" rx="4" ry="4" style="stroke:#181818;stroke-width:1.5;"/><polygon fill="#181818" points="45,560.8789,35,560.8789,45,564.8789" style="stroke:#181818;stroke-width:1.0;"/><line style="stroke:#181818;stroke-width:1.0;" x1="34" x2="91.5" y1="560.8789" y2="560.8789"/><text fill="#000000" font-family="monospace" font-size="13" lengthAdjust="spacing" textLength="24" x="45.5" y="555.813">o\-</text><ellipse cx="28" cy="589.2617" fill="none" rx="4" ry="4" style="stroke:#181818;stroke-width:1.5;"/><line style="stroke:#181818;stroke-width:1.0;" x1="35" x2="45" y1="590.0117" y2="594.0117"/><line style="stroke:#181818;stroke-width:1.0;" x1="34" x2="91.5" y1="590.0117" y2="590.0117"/><text fill="#000000" font-family="monospace" font-size="13" lengthAdjust="spacing" textLength="32" x="45.5" y="584.9458">o\\-</text><ellipse cx="28" cy="618.3945" fill="none" rx="4" ry="4" style="stroke:#181818;stroke-width:1.5;"/><polygon fill="#181818" points="45,615.1445,35,619.1445,45,623.1445,41,619.1445" style="stroke:#181818;stroke-width:1.0;"/><line style="stroke:#181818;stroke-width:2.0;" x1="74.5" x2="84.5" y1="614.1445" y2="624.1445"/><line style="stroke:#181818;stroke-width:2.0;" x1="74.5" x2="84.5" y1="624.1445" y2="614.1445"/><line style="stroke:#181818;stroke-width:1.0;" x1="39" x2="79.5" y1="619.1445" y2="619.1445"/><text fill="#000000" font-family="monospace" font-size="13" lengthAdjust="spacing" textLength="32" x="45.5" y="614.0786">o&lt;-x</text><!--SRC=[LT112i8m40NGVKynPX-w5mdeERAPbY05TKgD43ozJJ99lzsqy_XCXtzQDxu_cMAGByNj4uQLjxZCoyglIDV7CWVYD_4VtsGYoZmDJ1TB-PdeJCRamPYibLKxZnWkG-KHqljGq6FMUqLl4Hid_5qwhh09RqkT1LcK1PT8No8rtbdQ4eTBt95s0cadxK2Nu42ND9r_qyBxTrMiempAnHjhJOADIEb7tLlqLfNKKlg1QN_z0000]--></g></svg>