<svg xmlns="http://www.w3.org/2000/svg" xmlns:xlink="http://www.w3.org/1999/xlink" contentStyleType="text/css" height="485px" preserveAspectRatio="none" style="width:356px;height:485px;background:#FFFFFF;" version="1.1" viewBox="0 0 356 485" width="356px" zoomAndPan="magnify"><defs/><g><text fill="#000000" font-family="sans-serif" font-size="14" font-weight="bold" lengthAdjust="spacing" textLength="54" x="152.5" y="28.5352">no teoz</text><rect fill="#FFFFFF" height="14" style="stroke:#181818;stroke-width:1.0;" width="10" x="65" y="114.2871"/><rect fill="#FFFFFF" height="14" style="stroke:#181818;stroke-width:1.0;" width="10" x="65" y="232.9082"/><rect fill="#FFFFFF" height="14" style="stroke:#181818;stroke-width:1.0;" width="10" x="65" y="351.5293"/><rect fill="#FFFFFF" height="14" style="stroke:#181818;stroke-width:1.0;" width="10" x="174" y="173.5977"/><rect fill="#FFFFFF" height="14" style="stroke:#181818;stroke-width:1.0;" width="10" x="174" y="232.9082"/><rect fill="#FFFFFF" height="14" style="stroke:#181818;stroke-width:1.0;" width="10" x="174" y="351.5293"/><rect fill="#FFFFAA" height="45.3105" style="stroke:#000000;stroke-width:1.5;" width="228" x="10" y="90.9766"/><rect fill="#FFFFAA" height="45.3105" style="stroke:#000000;stroke-width:1.5;" width="228" x="10" y="150.2871"/><rect fill="#FFFFAA" height="45.3105" style="stroke:#000000;stroke-width:1.5;" width="228" x="10" y="209.5977"/><rect fill="#FFFFAA" height="45.3105" style="stroke:#000000;stroke-width:1.5;" width="228" x="10" y="268.9082"/><rect fill="#FFFFAA" height="45.3105" style="stroke:#000000;stroke-width:1.5;" width="313" x="10" y="328.2188"/><rect fill="#FFFFAA" height="45.3105" style="stroke:#000000;stroke-width:1.5;" width="340" x="10" y="387.5293"/><line style="stroke:#181818;stroke-width:0.5;stroke-dasharray:5.0,5.0;" x1="70" x2="70" y1="73.9766" y2="449.8398"/><line style="stroke:#181818;stroke-width:0.5;stroke-dasharray:5.0,5.0;" x1="179" x2="179" y1="73.9766" y2="449.8398"/><rect fill="#E2E2F0" height="30.4883" rx="2.5" ry="2.5" style="stroke:#181818;stroke-width:0.5;" width="100" x="20" y="42.4883"/><text fill="#000000" font-family="sans-serif" font-size="14" lengthAdjust="spacing" textLength="86" x="27" y="63.0234">Particpant_A</text><rect fill="#E2E2F0" height="30.4883" rx="2.5" ry="2.5" style="stroke:#181818;stroke-width:0.5;" width="100" x="20" y="448.8398"/><text fill="#000000" font-family="sans-serif" font-size="14" lengthAdjust="spacing" textLength="86" x="27" y="469.375">Particpant_A</text><rect fill="#E2E2F0" height="30.4883" rx="2.5" ry="2.5" style="stroke:#181818;stroke-width:0.5;" width="98" x="130" y="42.4883"/><text fill="#000000" font-family="sans-serif" font-size="14" lengthAdjust="spacing" textLength="84" x="137" y="63.0234">Particpant_B</text><rect fill="#E2E2F0" height="30.4883" rx="2.5" ry="2.5" style="stroke:#181818;stroke-width:0.5;" width="98" x="130" y="448.8398"/><text fill="#000000" font-family="sans-serif" font-size="14" lengthAdjust="spacing" textLength="84" x="137" y="469.375">Particpant_B</text><rect fill="#FFFFFF" height="14" style="stroke:#181818;stroke-width:1.0;" width="10" x="65" y="114.2871"/><rect fill="#FFFFFF" height="14" style="stroke:#181818;stroke-width:1.0;" width="10" x="65" y="232.9082"/><rect fill="#FFFFFF" height="14" style="stroke:#181818;stroke-width:1.0;" width="10" x="65" y="351.5293"/><rect fill="#FFFFFF" height="14" style="stroke:#181818;stroke-width:1.0;" width="10" x="174" y="173.5977"/><rect fill="#FFFFFF" height="14" style="stroke:#181818;stroke-width:1.0;" width="10" x="174" y="232.9082"/><rect fill="#FFFFFF" height="14" style="stroke:#181818;stroke-width:1.0;" width="10" x="174" y="351.5293"/><path d="M10,90.9766 L110,90.9766 L110,98.2871 L100,108.2871 L10,108.2871 L10,90.9766 " fill="#EEEEEE" style="stroke:#000000;stroke-width:1.5;"/><rect fill="none" height="45.3105" style="stroke:#000000;stroke-width:1.5;" width="228" x="10" y="90.9766"/><text fill="#000000" font-family="sans-serif" font-size="13" font-weight="bold" lengthAdjust="spacing" textLength="55" x="25" y="104.5449">Group 1</text><polygon fill="#181818" points="167,110.2871,177,114.2871,167,118.2871,171,114.2871" style="stroke:#181818;stroke-width:1.0;"/><line style="stroke:#181818;stroke-width:1.0;" x1="75" x2="173" y1="114.2871" y2="114.2871"/><polygon fill="#181818" points="81,124.2871,71,128.2871,81,132.2871,77,128.2871" style="stroke:#181818;stroke-width:1.0;"/><line style="stroke:#181818;stroke-width:1.0;" x1="75" x2="178" y1="128.2871" y2="128.2871"/><path d="M10,150.2871 L110,150.2871 L110,157.5977 L100,167.5977 L10,167.5977 L10,150.2871 " fill="#EEEEEE" style="stroke:#000000;stroke-width:1.5;"/><rect fill="none" height="45.3105" style="stroke:#000000;stroke-width:1.5;" width="228" x="10" y="150.2871"/><text fill="#000000" font-family="sans-serif" font-size="13" font-weight="bold" lengthAdjust="spacing" textLength="55" x="25" y="163.8555">Group 2</text><polygon fill="#181818" points="162,169.5977,172,173.5977,162,177.5977,166,173.5977" style="stroke:#181818;stroke-width:1.0;"/><line style="stroke:#181818;stroke-width:1.0;" x1="70" x2="168" y1="173.5977" y2="173.5977"/><polygon fill="#181818" points="81,183.5977,71,187.5977,81,191.5977,77,187.5977" style="stroke:#181818;stroke-width:1.0;"/><line style="stroke:#181818;stroke-width:1.0;" x1="75" x2="178" y1="187.5977" y2="187.5977"/><path d="M10,209.5977 L110,209.5977 L110,216.9082 L100,226.9082 L10,226.9082 L10,209.5977 " fill="#EEEEEE" style="stroke:#000000;stroke-width:1.5;"/><rect fill="none" height="45.3105" style="stroke:#000000;stroke-width:1.5;" width="228" x="10" y="209.5977"/><text fill="#000000" font-family="sans-serif" font-size="13" font-weight="bold" lengthAdjust="spacing" textLength="55" x="25" y="223.166">Group 3</text><polygon fill="#181818" points="162,228.9082,172,232.9082,162,236.9082,166,232.9082" style="stroke:#181818;stroke-width:1.0;"/><line style="stroke:#181818;stroke-width:1.0;" x1="75" x2="168" y1="232.9082" y2="232.9082"/><polygon fill="#181818" points="81,242.9082,71,246.9082,81,250.9082,77,246.9082" style="stroke:#181818;stroke-width:1.0;"/><line style="stroke:#181818;stroke-width:1.0;" x1="75" x2="178" y1="246.9082" y2="246.9082"/><path d="M10,268.9082 L110,268.9082 L110,276.2188 L100,286.2188 L10,286.2188 L10,268.9082 " fill="#EEEEEE" style="stroke:#000000;stroke-width:1.5;"/><rect fill="none" height="45.3105" style="stroke:#000000;stroke-width:1.5;" width="228" x="10" y="268.9082"/><text fill="#000000" font-family="sans-serif" font-size="13" font-weight="bold" lengthAdjust="spacing" textLength="55" x="25" y="282.4766">Group 4</text><polygon fill="#181818" points="167,288.2188,177,292.2188,167,296.2188,171,292.2188" style="stroke:#181818;stroke-width:1.0;"/><line style="stroke:#181818;stroke-width:1.0;" x1="70" x2="173" y1="292.2188" y2="292.2188"/><polygon fill="#181818" points="81,302.2188,71,306.2188,81,310.2188,77,306.2188" style="stroke:#181818;stroke-width:1.0;"/><line style="stroke:#181818;stroke-width:1.0;" x1="75" x2="178" y1="306.2188" y2="306.2188"/><path d="M10,328.2188 L318,328.2188 L318,335.5293 L308,345.5293 L10,345.5293 L10,328.2188 " fill="#EEEEEE" style="stroke:#000000;stroke-width:1.5;"/><rect fill="none" height="45.3105" style="stroke:#000000;stroke-width:1.5;" width="313" x="10" y="328.2188"/><text fill="#000000" font-family="sans-serif" font-size="13" font-weight="bold" lengthAdjust="spacing" textLength="263" x="25" y="341.7871">Group 5, Which has a very long header</text><polygon fill="#181818" points="162,347.5293,172,351.5293,162,355.5293,166,351.5293" style="stroke:#181818;stroke-width:1.0;"/><line style="stroke:#181818;stroke-width:1.0;" x1="75" x2="168" y1="351.5293" y2="351.5293"/><polygon fill="#181818" points="81,361.5293,71,365.5293,81,369.5293,77,365.5293" style="stroke:#181818;stroke-width:1.0;"/><line style="stroke:#181818;stroke-width:1.0;" x1="75" x2="178" y1="365.5293" y2="365.5293"/><path d="M10,387.5293 L345,387.5293 L345,394.8398 L335,404.8398 L10,404.8398 L10,387.5293 " fill="#EEEEEE" style="stroke:#000000;stroke-width:1.5;"/><rect fill="none" height="45.3105" style="stroke:#000000;stroke-width:1.5;" width="340" x="10" y="387.5293"/><text fill="#000000" font-family="sans-serif" font-size="13" font-weight="bold" lengthAdjust="spacing" textLength="290" x="25" y="401.0977">Group 6, While also has a very long header</text><polygon fill="#181818" points="167,406.8398,177,410.8398,167,414.8398,171,410.8398" style="stroke:#181818;stroke-width:1.0;"/><line style="stroke:#181818;stroke-width:1.0;" x1="70" x2="173" y1="410.8398" y2="410.8398"/><polygon fill="#181818" points="81,420.8398,71,424.8398,81,428.8398,77,424.8398" style="stroke:#181818;stroke-width:1.0;"/><line style="stroke:#181818;stroke-width:1.0;" x1="75" x2="178" y1="424.8398" y2="424.8398"/><!--SRC=[pL8x3i8m3Drp2YC6XfA1xuIGO65bOqHMwZQHIbAbRYKuFLKcK0iDdV0KHtuVlsGsAJtcDmGczm3sDGasN11O5wv4xbrTmZJB44xXk13GrXaz6rMYvUi1vFwrFuO1L6mQP7gRx49tiWjDgHzCDXLTFyj1Fqaog2lb1_PLBFkuVLlTtpTUnxt0rvpxcJTpk6YZD6Yi0A4XVuV2sHmqOKh-3xFO1iVjVyMYScDjHyNr1000]--></g></svg>