<svg xmlns="http://www.w3.org/2000/svg" xmlns:xlink="http://www.w3.org/1999/xlink" contentStyleType="text/css" height="558px" preserveAspectRatio="none" style="width:181px;height:558px;background:#FFFFFF;" version="1.1" viewBox="0 0 181 558" width="181px" zoomAndPan="magnify"><defs/><g><rect fill="#DDDDDD" height="546.7031" style="stroke:#181818;stroke-width:0.5;" width="31.6592" x="18.5234" y="6"/><rect fill="#DDDDDD" height="546.7031" style="stroke:#181818;stroke-width:0.5;" width="30.0527" x="65.8354" y="6"/><rect fill="#DDDDDD" height="546.7031" style="stroke:#181818;stroke-width:0.5;" width="31.6865" x="111.5273" y="6"/><line style="stroke:#181818;stroke-width:0.5;stroke-dasharray:5.0,5.0;" x1="34.353" x2="34.353" y1="41.4883" y2="515.2148"/><line style="stroke:#181818;stroke-width:0.5;stroke-dasharray:5.0,5.0;" x1="80.8618" x2="80.8618" y1="41.4883" y2="515.2148"/><line style="stroke:#181818;stroke-width:0.5;stroke-dasharray:5.0,5.0;" x1="127.3706" x2="127.3706" y1="41.4883" y2="515.2148"/><rect fill="#E2E2F0" height="30.4883" rx="2.5" ry="2.5" style="stroke:#181818;stroke-width:0.5;" width="23.6592" x="22.5234" y="10"/><text fill="#000000" font-family="sans-serif" font-size="14" lengthAdjust="spacing" textLength="9.6592" x="29.5234" y="30.5352">A</text><rect fill="#E2E2F0" height="30.4883" rx="2.5" ry="2.5" style="stroke:#181818;stroke-width:0.5;" width="22.0527" x="69.8354" y="10"/><text fill="#000000" font-family="sans-serif" font-size="14" lengthAdjust="spacing" textLength="8.0527" x="76.8354" y="30.5352">B</text><rect fill="#E2E2F0" height="30.4883" rx="2.5" ry="2.5" style="stroke:#181818;stroke-width:0.5;" width="23.6865" x="115.5273" y="10"/><text fill="#000000" font-family="sans-serif" font-size="14" lengthAdjust="spacing" textLength="9.6865" x="122.5273" y="30.5352">C</text><rect fill="#E2E2F0" height="30.4883" rx="2.5" ry="2.5" style="stroke:#181818;stroke-width:0.5;" width="23.6592" x="22.5234" y="515.2148"/><text fill="#000000" font-family="sans-serif" font-size="14" lengthAdjust="spacing" textLength="9.6592" x="29.5234" y="535.75">A</text><rect fill="#E2E2F0" height="30.4883" rx="2.5" ry="2.5" style="stroke:#181818;stroke-width:0.5;" width="22.0527" x="69.8354" y="515.2148"/><text fill="#000000" font-family="sans-serif" font-size="14" lengthAdjust="spacing" textLength="8.0527" x="76.8354" y="535.75">B</text><rect fill="#E2E2F0" height="30.4883" rx="2.5" ry="2.5" style="stroke:#181818;stroke-width:0.5;" width="23.6865" x="115.5273" y="515.2148"/><text fill="#000000" font-family="sans-serif" font-size="14" lengthAdjust="spacing" textLength="9.6865" x="122.5273" y="535.75">C</text><polygon fill="#181818" points="68.8618,51.4883,78.8618,55.4883,68.8618,59.4883,72.8618,55.4883" style="stroke:#181818;stroke-width:1.0;"/><line style="stroke:#181818;stroke-width:1.0;" x1="34.353" x2="74.8618" y1="55.4883" y2="55.4883"/><polygon fill="#181818" points="115.3706,51.4883,125.3706,55.4883,115.3706,59.4883,119.3706,55.4883" style="stroke:#181818;stroke-width:1.0;"/><line style="stroke:#181818;stroke-width:1.0;" x1="80.8618" x2="121.3706" y1="55.4883" y2="55.4883"/><rect fill="#EEEEEE" height="3" style="stroke:#EEEEEE;stroke-width:1.0;" width="169.6519" x="5" y="84.1436"/><line style="stroke:#000000;stroke-width:1.0;" x1="5" x2="174.6519" y1="84.1436" y2="84.1436"/><line style="stroke:#000000;stroke-width:1.0;" x1="5" x2="174.6519" y1="87.1436" y2="87.1436"/><rect fill="#EEEEEE" height="23.3105" style="stroke:#000000;stroke-width:2.0;" width="104.27" x="37.6909" y="73.4883"/><text fill="#000000" font-family="sans-serif" font-size="13" font-weight="bold" lengthAdjust="spacing" textLength="85.9854" x="43.6909" y="90.0566">short arrows</text><ellipse cx="29.5" cy="127.3594" fill="none" rx="4" ry="4" style="stroke:#181818;stroke-width:1.5;"/><polygon fill="#181818" points="68.8618,124.1094,78.8618,128.1094,68.8618,132.1094,72.8618,128.1094" style="stroke:#181818;stroke-width:1.0;"/><line style="stroke:#181818;stroke-width:1.0;" x1="34" x2="74.8618" y1="128.1094" y2="128.1094"/><text fill="#000000" font-family="sans-serif" font-size="13" lengthAdjust="spacing" textLength="32.8618" x="37" y="123.3672">short</text><polygon fill="#181818" points="91.8618,124.1094,81.8618,128.1094,91.8618,132.1094,87.8618,128.1094" style="stroke:#181818;stroke-width:1.0;"/><ellipse cx="131.2236" cy="127.3594" fill="none" rx="4" ry="4" style="stroke:#181818;stroke-width:1.5;"/><line style="stroke:#181818;stroke-width:1.0;" x1="85.8618" x2="126.7236" y1="128.1094" y2="128.1094"/><text fill="#000000" font-family="sans-serif" font-size="13" lengthAdjust="spacing" textLength="32.8618" x="97.8618" y="123.3672">short</text><path d="M8,140.1094 L75.1851,140.1094 L75.1851,147.4199 L65.1851,157.4199 L8,157.4199 L8,140.1094 " fill="none" style="stroke:#000000;stroke-width:1.5;"/><rect fill="none" height="56.6211" style="stroke:#000000;stroke-width:1.5;" width="145.7236" x="8" y="140.1094"/><text fill="#000000" font-family="sans-serif" font-size="13" font-weight="bold" lengthAdjust="spacing" textLength="22.1851" x="23" y="153.6777">opt</text><ellipse cx="29.5" cy="187.9805" fill="none" rx="4" ry="4" style="stroke:#181818;stroke-width:1.5;"/><polygon fill="#181818" points="68.8618,184.7305,78.8618,188.7305,68.8618,192.7305,72.8618,188.7305" style="stroke:#181818;stroke-width:1.0;"/><line style="stroke:#181818;stroke-width:1.0;" x1="34" x2="74.8618" y1="188.7305" y2="188.7305"/><text fill="#000000" font-family="sans-serif" font-size="13" lengthAdjust="spacing" textLength="32.8618" x="37" y="183.9883">short</text><polygon fill="#181818" points="91.8618,184.7305,81.8618,188.7305,91.8618,192.7305,87.8618,188.7305" style="stroke:#181818;stroke-width:1.0;"/><ellipse cx="131.2236" cy="187.9805" fill="none" rx="4" ry="4" style="stroke:#181818;stroke-width:1.5;"/><line style="stroke:#181818;stroke-width:1.0;" x1="85.8618" x2="126.7236" y1="188.7305" y2="188.7305"/><text fill="#000000" font-family="sans-serif" font-size="13" lengthAdjust="spacing" textLength="32.8618" x="97.8618" y="183.9883">short</text><rect fill="#EEEEEE" height="3" style="stroke:#EEEEEE;stroke-width:1.0;" width="169.6519" x="5" y="231.3857"/><line style="stroke:#000000;stroke-width:1.0;" x1="5" x2="174.6519" y1="231.3857" y2="231.3857"/><line style="stroke:#000000;stroke-width:1.0;" x1="5" x2="174.6519" y1="234.3857" y2="234.3857"/><rect fill="#EEEEEE" height="23.3105" style="stroke:#000000;stroke-width:2.0;" width="138.1284" x="20.7617" y="220.7305"/><text fill="#000000" font-family="sans-serif" font-size="13" font-weight="bold" lengthAdjust="spacing" textLength="119.8438" x="26.7617" y="237.2988">right edge arrows</text><path d="M21.1143,258.041 L88.2993,258.041 L88.2993,265.3516 L78.2993,275.3516 L21.1143,275.3516 L21.1143,258.041 " fill="none" style="stroke:#000000;stroke-width:1.5;"/><rect fill="none" height="56.6211" style="stroke:#000000;stroke-width:1.5;" width="122.2563" x="21.1143" y="258.041"/><text fill="#000000" font-family="sans-serif" font-size="13" font-weight="bold" lengthAdjust="spacing" textLength="22.1851" x="36.1143" y="271.6094">opt</text><ellipse cx="10.5" cy="305.9121" fill="none" rx="4" ry="4" style="stroke:#181818;stroke-width:1.5;"/><polygon fill="#181818" points="68.8618,302.6621,78.8618,306.6621,68.8618,310.6621,72.8618,306.6621" style="stroke:#181818;stroke-width:1.0;"/><line style="stroke:#181818;stroke-width:1.0;" x1="15" x2="74.8618" y1="306.6621" y2="306.6621"/><text fill="#000000" font-family="sans-serif" font-size="13" lengthAdjust="spacing" textLength="19.7476" x="50.1143" y="301.9199">Pre</text><polygon fill="#181818" points="91.8618,302.6621,81.8618,306.6621,91.8618,310.6621,87.8618,306.6621" style="stroke:#181818;stroke-width:1.0;"/><ellipse cx="126.8706" cy="305.9121" fill="none" rx="4" ry="4" style="stroke:#181818;stroke-width:1.5;"/><line style="stroke:#181818;stroke-width:1.0;" x1="85.8618" x2="122.3706" y1="306.6621" y2="306.6621"/><text fill="#000000" font-family="sans-serif" font-size="13" lengthAdjust="spacing" textLength="22.5088" x="97.8618" y="301.9199">five</text><ellipse cx="10.5" cy="349.2227" fill="none" rx="4" ry="4" style="stroke:#181818;stroke-width:1.5;"/><polygon fill="#181818" points="68.8618,345.9727,78.8618,349.9727,68.8618,353.9727,72.8618,349.9727" style="stroke:#181818;stroke-width:1.0;"/><line style="stroke:#181818;stroke-width:1.0;" x1="15" x2="74.8618" y1="349.9727" y2="349.9727"/><text fill="#000000" font-family="sans-serif" font-size="13" lengthAdjust="spacing" textLength="19.7476" x="50.1143" y="345.2305">Pre</text><polygon fill="#181818" points="91.8618,345.9727,81.8618,349.9727,91.8618,353.9727,87.8618,349.9727" style="stroke:#181818;stroke-width:1.0;"/><ellipse cx="126.8706" cy="349.2227" fill="none" rx="4" ry="4" style="stroke:#181818;stroke-width:1.5;"/><line style="stroke:#181818;stroke-width:1.0;" x1="85.8618" x2="122.3706" y1="349.9727" y2="349.9727"/><text fill="#000000" font-family="sans-serif" font-size="13" lengthAdjust="spacing" textLength="22.5088" x="97.8618" y="345.2305">five</text><rect fill="#EEEEEE" height="3" style="stroke:#EEEEEE;stroke-width:1.0;" width="169.6519" x="5" y="378.6279"/><line style="stroke:#000000;stroke-width:1.0;" x1="5" x2="174.6519" y1="378.6279" y2="378.6279"/><line style="stroke:#000000;stroke-width:1.0;" x1="5" x2="174.6519" y1="381.6279" y2="381.6279"/><rect fill="#EEEEEE" height="23.3105" style="stroke:#000000;stroke-width:2.0;" width="128.1118" x="25.77" y="367.9727"/><text fill="#000000" font-family="sans-serif" font-size="13" font-weight="bold" lengthAdjust="spacing" textLength="109.8271" x="31.77" y="384.541">left edge arrows</text><path d="M18.353,405.2832 L85.5381,405.2832 L85.5381,412.5938 L75.5381,422.5938 L18.353,422.5938 L18.353,405.2832 " fill="none" style="stroke:#000000;stroke-width:1.5;"/><rect fill="none" height="56.6211" style="stroke:#000000;stroke-width:1.5;" width="102.5088" x="18.353" y="405.2832"/><text fill="#000000" font-family="sans-serif" font-size="13" font-weight="bold" lengthAdjust="spacing" textLength="22.1851" x="33.353" y="418.8516">opt</text><ellipse cx="33.853" cy="453.1543" fill="none" rx="4" ry="4" style="stroke:#181818;stroke-width:1.5;"/><polygon fill="#181818" points="68.8618,449.9043,78.8618,453.9043,68.8618,457.9043,72.8618,453.9043" style="stroke:#181818;stroke-width:1.0;"/><line style="stroke:#181818;stroke-width:1.0;" x1="38.353" x2="74.8618" y1="453.9043" y2="453.9043"/><text fill="#000000" font-family="sans-serif" font-size="13" lengthAdjust="spacing" textLength="22.5088" x="41.353" y="449.1621">five</text><polygon fill="#181818" points="91.8618,449.9043,81.8618,453.9043,91.8618,457.9043,87.8618,453.9043" style="stroke:#181818;stroke-width:1.0;"/><ellipse cx="168.1519" cy="453.1543" fill="none" rx="4" ry="4" style="stroke:#181818;stroke-width:1.5;"/><line style="stroke:#181818;stroke-width:1.0;" x1="85.8618" x2="163.6519" y1="453.9043" y2="453.9043"/><ellipse cx="33.853" cy="496.4648" fill="none" rx="4" ry="4" style="stroke:#181818;stroke-width:1.5;"/><polygon fill="#181818" points="68.8618,493.2148,78.8618,497.2148,68.8618,501.2148,72.8618,497.2148" style="stroke:#181818;stroke-width:1.0;"/><line style="stroke:#181818;stroke-width:1.0;" x1="38.353" x2="74.8618" y1="497.2148" y2="497.2148"/><text fill="#000000" font-family="sans-serif" font-size="13" lengthAdjust="spacing" textLength="22.5088" x="41.353" y="492.4727">five</text><polygon fill="#181818" points="91.8618,493.2148,81.8618,497.2148,91.8618,501.2148,87.8618,497.2148" style="stroke:#181818;stroke-width:1.0;"/><ellipse cx="168.1519" cy="496.4648" fill="none" rx="4" ry="4" style="stroke:#181818;stroke-width:1.5;"/><line style="stroke:#181818;stroke-width:1.0;" x1="85.8618" x2="163.6519" y1="497.2148" y2="497.2148"/><!--SRC=[XP11Zi8m34NtESL78y6A1RiHeY3Q2tIFM1XgIWGaaMjc4ASdALEcGW9sYT_tVv87GQW-4PJz5IfdDgFcO5qWeHDA4hLR6yXfILLbNOt9Tp-G-qiFRFp5XFyLB0sx2cdwJFANf7WGO8dnF4Q7oDEZC5c6Pkz5GIB-jq6McOLF4Kple8tEndxn6FYWNohackXWfn_pKPuqOkkzWgkQUwxdhbNNLGftJIZYVsT_k6rwduYU8-y-Qj8TkfvsxwzeZMahUSDl]--></g></svg>