<svg xmlns="http://www.w3.org/2000/svg" xmlns:xlink="http://www.w3.org/1999/xlink" contentStyleType="text/css" height="149px" preserveAspectRatio="none" style="width:155px;height:149px;background:#FFFFFF;" version="1.1" viewBox="0 0 155 149" width="155px" zoomAndPan="magnify"><defs/><g><line style="stroke:#181818;stroke-width:0.5;stroke-dasharray:5.0,5.0;" x1="26.8271" x2="26.8271" y1="36.4883" y2="113.1094"/><rect fill="#FFFFFF" height="29.3105" style="stroke:#181818;stroke-width:1.0;" width="10" x="21.8271" y="65.7988"/><line style="stroke:#181818;stroke-width:0.5;stroke-dasharray:5.0,5.0;" x1="118.1211" x2="118.1211" y1="36.4883" y2="113.1094"/><rect fill="#FFFFFF" height="29.3105" style="stroke:#181818;stroke-width:1.0;" width="10" x="113.1211" y="65.7988"/><rect fill="#E2E2F0" height="30.4883" rx="2.5" ry="2.5" style="stroke:#181818;stroke-width:0.5;" width="43.6543" x="5" y="5"/><text fill="#000000" font-family="sans-serif" font-size="14" lengthAdjust="spacing" textLength="29.6543" x="12" y="25.5352">First</text><rect fill="#E2E2F0" height="30.4883" rx="2.5" ry="2.5" style="stroke:#181818;stroke-width:0.5;" width="62.6104" x="86.8159" y="5"/><text fill="#000000" font-family="sans-serif" font-size="14" lengthAdjust="spacing" textLength="48.6104" x="93.8159" y="25.5352">Second</text><rect fill="#E2E2F0" height="30.4883" rx="2.5" ry="2.5" style="stroke:#181818;stroke-width:0.5;" width="43.6543" x="5" y="113.1094"/><text fill="#000000" font-family="sans-serif" font-size="14" lengthAdjust="spacing" textLength="29.6543" x="12" y="133.6445">First</text><rect fill="#E2E2F0" height="30.4883" rx="2.5" ry="2.5" style="stroke:#181818;stroke-width:0.5;" width="62.6104" x="86.8159" y="113.1094"/><text fill="#000000" font-family="sans-serif" font-size="14" lengthAdjust="spacing" textLength="48.6104" x="93.8159" y="133.6445">Second</text><polygon fill="#181818" points="101.1211,61.7988,111.1211,65.7988,101.1211,69.7988,105.1211,65.7988" style="stroke:#181818;stroke-width:1.0;"/><line style="stroke:#181818;stroke-width:1.0;" x1="31.8271" x2="107.1211" y1="65.7988" y2="65.7988"/><text fill="#000000" font-family="sans-serif" font-size="13" lengthAdjust="spacing" textLength="55.1611" x="38.8271" y="61.0566">message</text><polygon fill="#181818" points="42.8271,91.1094,32.8271,95.1094,42.8271,99.1094,38.8271,95.1094" style="stroke:#181818;stroke-width:1.0;"/><line style="stroke:#181818;stroke-width:1.0;" x1="36.8271" x2="112.1211" y1="95.1094" y2="95.1094"/><text fill="#000000" font-family="sans-serif" font-size="13" lengthAdjust="spacing" textLength="57.2939" x="48.8271" y="90.3672">response</text><!--SRC=[KtVBBohDLJ0qCpCpvb8iA4fCpqrKA4dDhr8eAIfDvNBBB2ekKT2rKmXEJSxFIr6mKiXDBIvEJ4_bIamkoInBB4bL02j1S24AkQ3gWJeX2gmKYbAB2_BpYbEvKbBHz289GBG10000]--></g></svg>