<svg xmlns="http://www.w3.org/2000/svg" xmlns:xlink="http://www.w3.org/1999/xlink" contentStyleType="text/css" height="220px" preserveAspectRatio="none" style="width:228px;height:220px;background:#FFFFFF;" version="1.1" viewBox="0 0 228 220" width="228px" zoomAndPan="magnify"><defs/><g><line style="stroke:#181818;stroke-width:0.5;stroke-dasharray:5.0,5.0;" x1="16" x2="16" y1="36.4883" y2="183.7305"/><rect fill="#FFFFFF" height="73.9316" style="stroke:#181818;stroke-width:1.0;" width="10" x="11" y="78.7988"/><line style="stroke:#181818;stroke-width:0.5;stroke-dasharray:5.0,5.0;" x1="211" x2="211" y1="36.4883" y2="183.7305"/><rect fill="#E2E2F0" height="30.4883" rx="2.5" ry="2.5" style="stroke:#181818;stroke-width:0.5;" width="22" x="5" y="5"/><text fill="#000000" font-family="sans-serif" font-size="14" lengthAdjust="spacing" textLength="8" x="12" y="25.5352">a</text><rect fill="#E2E2F0" height="30.4883" rx="2.5" ry="2.5" style="stroke:#181818;stroke-width:0.5;" width="23" x="199.5" y="5"/><text fill="#000000" font-family="sans-serif" font-size="14" lengthAdjust="spacing" textLength="9" x="206.5" y="25.5352">b</text><rect fill="#E2E2F0" height="30.4883" rx="2.5" ry="2.5" style="stroke:#181818;stroke-width:0.5;" width="22" x="5" y="183.7305"/><text fill="#000000" font-family="sans-serif" font-size="14" lengthAdjust="spacing" textLength="8" x="12" y="204.2656">a</text><rect fill="#E2E2F0" height="30.4883" rx="2.5" ry="2.5" style="stroke:#181818;stroke-width:0.5;" width="23" x="199.5" y="183.7305"/><text fill="#000000" font-family="sans-serif" font-size="14" lengthAdjust="spacing" textLength="9" x="206.5" y="204.2656">b</text><line style="stroke:#181818;stroke-width:1.0;" x1="16" x2="63" y1="65.7988" y2="65.7988"/><line style="stroke:#181818;stroke-width:1.0;" x1="63" x2="63" y1="65.7988" y2="78.7988"/><line style="stroke:#181818;stroke-width:1.0;" x1="22" x2="63" y1="78.7988" y2="78.7988"/><polygon fill="#181818" points="32,74.7988,22,78.7988,32,82.7988,28,78.7988" style="stroke:#181818;stroke-width:1.0;"/><text fill="#000000" font-family="sans-serif" font-size="13" lengthAdjust="spacing" textLength="22" x="28" y="61.0566">call</text><line style="stroke:#181818;stroke-width:1.0;" x1="209" x2="199" y1="123.4199" y2="119.4199"/><line style="stroke:#181818;stroke-width:1.0;" x1="209" x2="199" y1="123.4199" y2="127.4199"/><line style="stroke:#181818;stroke-width:1.0;" x1="21" x2="210" y1="123.4199" y2="123.4199"/><text fill="#000000" font-family="sans-serif" font-size="13" lengthAdjust="spacing" textLength="171" x="28" y="103.3672">an async message happens</text><text fill="#000000" font-family="sans-serif" font-size="13" lengthAdjust="spacing" textLength="89" x="28" y="118.6777">within the call</text><line style="stroke:#181818;stroke-width:1.0;stroke-dasharray:2.0,2.0;" x1="21" x2="63" y1="152.7305" y2="152.7305"/><line style="stroke:#181818;stroke-width:1.0;stroke-dasharray:2.0,2.0;" x1="63" x2="63" y1="152.7305" y2="165.7305"/><line style="stroke:#181818;stroke-width:1.0;stroke-dasharray:2.0,2.0;" x1="15" x2="63" y1="165.7305" y2="165.7305"/><line style="stroke:#181818;stroke-width:1.0;" x1="16" x2="26" y1="165.7305" y2="161.7305"/><line style="stroke:#181818;stroke-width:1.0;" x1="16" x2="26" y1="165.7305" y2="169.7305"/><text fill="#000000" font-family="sans-serif" font-size="13" lengthAdjust="spacing" textLength="38" x="28" y="147.9883">return</text><!--SRC=[FSin3e0W44JHtbECjV4259p4PZGR8C6Lm1gZfpTOMFtyuesbCko4oV70wYa3CNiGq-ImCUVlFLO7AjXktR1BQmo2o594sw9NifWK5kKdtVGuLB6pwWi0]--></g></svg>