<svg xmlns="http://www.w3.org/2000/svg" xmlns:xlink="http://www.w3.org/1999/xlink" contentStyleType="text/css" height="483px" preserveAspectRatio="none" style="width:784px;height:483px;background:#FFFFFF;" version="1.1" viewBox="0 0 784 483" width="784px" zoomAndPan="magnify"><defs><filter height="300%" id="f1es4540g22r3y" width="300%" x="-1" y="-1"><feGaussianBlur result="blurOut" stdDeviation="2.0"/><feColorMatrix in="blurOut" result="blurOut2" type="matrix" values="0 0 0 0 0 0 0 0 0 0 0 0 0 0 0 0 0 0 .4 0"/><feOffset dx="4.0" dy="4.0" in="blurOut2" result="blurOut3"/><feBlend in="SourceGraphic" in2="blurOut3" mode="normal"/></filter></defs><g><line style="stroke:#A80036;stroke-width:1.0;stroke-dasharray:5.0,5.0;" x1="568" x2="568" y1="40.4883" y2="439.2832"/><rect fill="#FFFFFF" filter="url(#f1es4540g22r3y)" height="240.8633" style="stroke:#A80036;stroke-width:1.0;" width="10" x="563" y="125.1094"/><rect fill="#FFFFFF" filter="url(#f1es4540g22r3y)" height="71.6211" style="stroke:#A80036;stroke-width:1.0;" width="10" x="568" y="209.7305"/><rect fill="#FEFECE" filter="url(#f1es4540g22r3y)" height="30.4883" style="stroke:#A80036;stroke-width:1.5;" width="65" x="533.5" y="5"/><text fill="#000000" font-family="sans-serif" font-size="14" lengthAdjust="spacing" textLength="51" x="540.5" y="25.5352">Testing</text><rect fill="#FEFECE" filter="url(#f1es4540g22r3y)" height="30.4883" style="stroke:#A80036;stroke-width:1.5;" width="65" x="533.5" y="439.2832"/><text fill="#000000" font-family="sans-serif" font-size="14" lengthAdjust="spacing" textLength="51" x="540.5" y="459.8184">Testing</text><line style="stroke:#008000;stroke-width:1.0;" x1="526" x2="567" y1="69.7988" y2="69.7988"/><line style="stroke:#008000;stroke-width:1.0;" x1="526" x2="526" y1="69.7988" y2="82.7988"/><line style="stroke:#008000;stroke-width:1.0;" x1="526" x2="566" y1="82.7988" y2="82.7988"/><polygon fill="#008000" points="556,78.7988,566,82.7988,556,86.7988,560,82.7988" style="stroke:#008000;stroke-width:1.0;"/><text fill="#000000" font-family="sans-serif" font-size="13" lengthAdjust="spacing" textLength="196" x="365" y="65.0566">1st self message, no activation</text><path d="M157,53.4883 L157,78.4883 L349,78.4883 L349,63.4883 L339,53.4883 L157,53.4883 " fill="#FBFB77" filter="url(#f1es4540g22r3y)" style="stroke:#A80036;stroke-width:1.0;"/><path d="M339,53.4883 L339,63.4883 L349,63.4883 L339,53.4883 " fill="#FBFB77" style="stroke:#A80036;stroke-width:1.0;"/><text fill="#000000" font-family="sans-serif" font-size="13" lengthAdjust="spacing" textLength="171" x="163" y="71.0566">A note on the self message</text><line style="stroke:#008000;stroke-width:1.0;" x1="526" x2="567" y1="112.1094" y2="112.1094"/><line style="stroke:#008000;stroke-width:1.0;" x1="526" x2="526" y1="112.1094" y2="125.1094"/><line style="stroke:#008000;stroke-width:1.0;" x1="526" x2="561" y1="125.1094" y2="125.1094"/><polygon fill="#008000" points="551,121.1094,561,125.1094,551,129.1094,555,125.1094" style="stroke:#008000;stroke-width:1.0;"/><text fill="#000000" font-family="sans-serif" font-size="13" lengthAdjust="spacing" textLength="233" x="328" y="107.3672">2nd self message, starting activation</text><line style="stroke:#008000;stroke-width:1.0;" x1="521" x2="562" y1="154.4199" y2="154.4199"/><line style="stroke:#008000;stroke-width:1.0;" x1="521" x2="521" y1="154.4199" y2="167.4199"/><line style="stroke:#008000;stroke-width:1.0;" x1="521" x2="561" y1="167.4199" y2="167.4199"/><polygon fill="#008000" points="551,163.4199,561,167.4199,551,171.4199,555,167.4199" style="stroke:#008000;stroke-width:1.0;"/><text fill="#000000" font-family="sans-serif" font-size="13" lengthAdjust="spacing" textLength="192" x="364" y="149.6777">2.5th self message, no change</text><path d="M583,138.1094 L583,163.1094 L775,163.1094 L775,148.1094 L765,138.1094 L583,138.1094 " fill="#FBFB77" filter="url(#f1es4540g22r3y)" style="stroke:#A80036;stroke-width:1.0;"/><path d="M765,138.1094 L765,148.1094 L775,148.1094 L765,138.1094 " fill="#FBFB77" style="stroke:#A80036;stroke-width:1.0;"/><text fill="#000000" font-family="sans-serif" font-size="13" lengthAdjust="spacing" textLength="171" x="589" y="155.6777">A note on the self message</text><line style="stroke:#008000;stroke-width:1.0;stroke-dasharray:2.0,2.0;" x1="521" x2="562" y1="196.7305" y2="196.7305"/><line style="stroke:#008000;stroke-width:1.0;stroke-dasharray:2.0,2.0;" x1="521" x2="521" y1="196.7305" y2="209.7305"/><line style="stroke:#008000;stroke-width:1.0;stroke-dasharray:2.0,2.0;" x1="521" x2="567" y1="209.7305" y2="209.7305"/><line style="stroke:#008000;stroke-width:1.0;" x1="566" x2="556" y1="209.7305" y2="213.7305"/><text fill="#000000" font-family="sans-serif" font-size="13" lengthAdjust="spacing" textLength="277" x="279" y="191.9883">3rd self message, staring another activation</text><line style="stroke:#008000;stroke-width:1.0;" x1="521" x2="567" y1="239.041" y2="239.041"/><line style="stroke:#008000;stroke-width:1.0;" x1="521" x2="521" y1="239.041" y2="252.041"/><line style="stroke:#008000;stroke-width:1.0;" x1="521" x2="567" y1="252.041" y2="252.041"/><line style="stroke:#008000;stroke-width:1.0;" x1="566" x2="556" y1="252.041" y2="248.041"/><line style="stroke:#008000;stroke-width:1.0;" x1="566" x2="556" y1="252.041" y2="256.041"/><text fill="#000000" font-family="sans-serif" font-size="13" lengthAdjust="spacing" textLength="338" x="218" y="234.2988">4th self message, continuing in the current activation</text><path d="M10,222.7305 L10,247.7305 L202,247.7305 L202,232.7305 L192,222.7305 L10,222.7305 " fill="#FBFB77" filter="url(#f1es4540g22r3y)" style="stroke:#A80036;stroke-width:1.0;"/><path d="M192,222.7305 L192,232.7305 L202,232.7305 L192,222.7305 " fill="#FBFB77" style="stroke:#A80036;stroke-width:1.0;"/><text fill="#000000" font-family="sans-serif" font-size="13" lengthAdjust="spacing" textLength="171" x="16" y="240.2988">A note on the self message</text><line style="stroke:#008000;stroke-width:1.0;" x1="521" x2="567" y1="281.3516" y2="281.3516"/><line style="stroke:#008000;stroke-width:1.0;" x1="521" x2="521" y1="281.3516" y2="294.3516"/><line style="stroke:#008000;stroke-width:1.0;" x1="521" x2="561" y1="294.3516" y2="294.3516"/><polygon fill="#008000" points="551,290.3516,561,294.3516,551,298.3516,555,294.3516" style="stroke:#008000;stroke-width:1.0;"/><text fill="#000000" font-family="sans-serif" font-size="13" lengthAdjust="spacing" textLength="226" x="330" y="276.6094">5th self message, deactivating once</text><line style="stroke:#008000;stroke-width:1.0;" x1="521" x2="562" y1="323.6621" y2="323.6621"/><line style="stroke:#008000;stroke-width:1.0;" x1="521" x2="521" y1="323.6621" y2="336.6621"/><line style="stroke:#008000;stroke-width:1.0;" x1="521" x2="561" y1="336.6621" y2="336.6621"/><polygon fill="#008000" points="551,332.6621,561,336.6621,551,340.6621,555,336.6621" style="stroke:#008000;stroke-width:1.0;"/><text fill="#000000" font-family="sans-serif" font-size="13" lengthAdjust="spacing" textLength="273" x="283" y="318.9199">6th self message, continuing the activation</text><line style="stroke:#008000;stroke-width:1.0;" x1="521" x2="562" y1="365.9727" y2="365.9727"/><line style="stroke:#008000;stroke-width:1.0;" x1="521" x2="521" y1="365.9727" y2="378.9727"/><line style="stroke:#008000;stroke-width:1.0;" x1="521" x2="566" y1="378.9727" y2="378.9727"/><polygon fill="#008000" points="556,374.9727,566,378.9727,556,382.9727,560,378.9727" style="stroke:#008000;stroke-width:1.0;"/><text fill="#000000" font-family="sans-serif" font-size="13" lengthAdjust="spacing" textLength="249" x="307" y="361.2305">7th self message, exiting the activation</text><line style="stroke:#008000;stroke-width:1.0;" x1="526" x2="567" y1="408.2832" y2="408.2832"/><line style="stroke:#008000;stroke-width:1.0;" x1="526" x2="526" y1="408.2832" y2="421.2832"/><line style="stroke:#008000;stroke-width:1.0;" x1="526" x2="566" y1="421.2832" y2="421.2832"/><polygon fill="#008000" points="556,417.2832,566,421.2832,556,425.2832,560,421.2832" style="stroke:#008000;stroke-width:1.0;"/><text fill="#000000" font-family="sans-serif" font-size="13" lengthAdjust="spacing" textLength="197" x="364" y="403.541">8th self message, no activation</text><!--SRC=[jP8_JyGm3CNtV0eZ1eQZI1n_LR6S65WP66-9KbyJqJh5SG61-EwaxPsW93eX93gbVdvzlzevw5ZNhGP1_mR2FQhmw0ZOX-dKQTOj17pgaGp2kren-vTRttY6EqOazQ6ExZMBCwxJ9F20GTAAepejBfNQQd1JxDhWaB4guJH8J6qsq688kiPZ80_QY7lMuZmfY0zvGMXm8-CRm6ggU0AnE7EF3KZLeESo5uiIbbJzI0mo04VvMsx67Aqd5s9JN6CrRRD7C7Qr_IFhUbtCQSyuHpl2HgD5paBFgCyJPkCfQlqWkmdCzCmOr_Llao-A4jBXLRWBZ2q-NZoL7_pblbyOKFPlRWY_IZw1hqv-vo_XEhVtBzCd]--></g></svg>