<svg xmlns="http://www.w3.org/2000/svg" xmlns:xlink="http://www.w3.org/1999/xlink" contentStyleType="text/css" height="673px" preserveAspectRatio="none" style="width:163px;height:673px;background:#FFFFFF;" version="1.1" viewBox="0 0 163 673" width="163px" zoomAndPan="magnify"><defs/><g><line style="stroke:#181818;stroke-width:0.5;stroke-dasharray:5.0,5.0;" x1="22.5" x2="22.5" y1="36.4883" y2="637.1445"/><line style="stroke:#181818;stroke-width:0.5;stroke-dasharray:5.0,5.0;" x1="73.5" x2="73.5" y1="36.4883" y2="637.1445"/><line style="stroke:#181818;stroke-width:0.5;stroke-dasharray:5.0,5.0;" x1="137.5" x2="137.5" y1="36.4883" y2="637.1445"/><rect fill="#E2E2F0" height="30.4883" rx="2.5" ry="2.5" style="stroke:#181818;stroke-width:0.5;" width="35" x="5" y="5"/><text fill="#000000" font-family="sans-serif" font-size="14" lengthAdjust="spacing" textLength="21" x="12" y="25.5352">Jim</text><rect fill="#E2E2F0" height="30.4883" rx="2.5" ry="2.5" style="stroke:#181818;stroke-width:0.5;" width="47" x="50" y="5"/><text fill="#000000" font-family="sans-serif" font-size="14" lengthAdjust="spacing" textLength="33" x="57" y="25.5352">Alice</text><rect fill="#E2E2F0" height="30.4883" rx="2.5" ry="2.5" style="stroke:#181818;stroke-width:0.5;" width="40" x="117.5" y="5"/><text fill="#000000" font-family="sans-serif" font-size="14" lengthAdjust="spacing" textLength="26" x="124.5" y="25.5352">Bob</text><rect fill="#E2E2F0" height="30.4883" rx="2.5" ry="2.5" style="stroke:#181818;stroke-width:0.5;" width="35" x="5" y="637.1445"/><text fill="#000000" font-family="sans-serif" font-size="14" lengthAdjust="spacing" textLength="21" x="12" y="657.6797">Jim</text><rect fill="#E2E2F0" height="30.4883" rx="2.5" ry="2.5" style="stroke:#181818;stroke-width:0.5;" width="47" x="50" y="637.1445"/><text fill="#000000" font-family="sans-serif" font-size="14" lengthAdjust="spacing" textLength="33" x="57" y="657.6797">Alice</text><rect fill="#E2E2F0" height="30.4883" rx="2.5" ry="2.5" style="stroke:#181818;stroke-width:0.5;" width="40" x="117.5" y="637.1445"/><text fill="#000000" font-family="sans-serif" font-size="14" lengthAdjust="spacing" textLength="26" x="124.5" y="657.6797">Bob</text><polygon fill="#181818" points="125.5,61.6211,135.5,65.6211,125.5,69.6211,129.5,65.6211" style="stroke:#181818;stroke-width:1.0;"/><line style="stroke:#181818;stroke-width:1.0;" x1="73.5" x2="131.5" y1="65.6211" y2="65.6211"/><text fill="#000000" font-family="monospace" font-size="13" lengthAdjust="spacing" textLength="16" x="80.5" y="60.5552">-&gt;</text><line style="stroke:#181818;stroke-width:1.0;" x1="135.5" x2="125.5" y1="94.7539" y2="90.7539"/><line style="stroke:#181818;stroke-width:1.0;" x1="135.5" x2="125.5" y1="94.7539" y2="98.7539"/><line style="stroke:#181818;stroke-width:1.0;" x1="73.5" x2="136.5" y1="94.7539" y2="94.7539"/><text fill="#000000" font-family="monospace" font-size="13" lengthAdjust="spacing" textLength="24" x="80.5" y="89.688">-&gt;&gt;</text><polygon fill="#181818" points="125.5,119.8867,135.5,123.8867,125.5,123.8867" style="stroke:#181818;stroke-width:1.0;"/><line style="stroke:#181818;stroke-width:1.0;" x1="73.5" x2="136.5" y1="123.8867" y2="123.8867"/><text fill="#000000" font-family="monospace" font-size="13" lengthAdjust="spacing" textLength="16" x="80.5" y="118.8208">-\</text><line style="stroke:#181818;stroke-width:1.0;" x1="135.5" x2="125.5" y1="153.0195" y2="149.0195"/><line style="stroke:#181818;stroke-width:1.0;" x1="73.5" x2="136.5" y1="153.0195" y2="153.0195"/><text fill="#000000" font-family="monospace" font-size="13" lengthAdjust="spacing" textLength="24" x="80.5" y="147.9536">-\\</text><polygon fill="#181818" points="125.5,182.1523,135.5,182.1523,125.5,186.1523" style="stroke:#181818;stroke-width:1.0;"/><line style="stroke:#181818;stroke-width:1.0;" x1="73.5" x2="136.5" y1="182.1523" y2="182.1523"/><text fill="#000000" font-family="monospace" font-size="13" lengthAdjust="spacing" textLength="16" x="80.5" y="177.0864">-/</text><line style="stroke:#181818;stroke-width:1.0;" x1="135.5" x2="125.5" y1="211.2852" y2="215.2852"/><line style="stroke:#181818;stroke-width:1.0;" x1="73.5" x2="136.5" y1="211.2852" y2="211.2852"/><text fill="#000000" font-family="monospace" font-size="13" lengthAdjust="spacing" textLength="24" x="80.5" y="206.2192">-//</text><line style="stroke:#181818;stroke-width:2.0;" x1="119.5" x2="129.5" y1="235.418" y2="245.418"/><line style="stroke:#181818;stroke-width:2.0;" x1="119.5" x2="129.5" y1="245.418" y2="235.418"/><line style="stroke:#181818;stroke-width:1.0;" x1="73.5" x2="124.5" y1="240.418" y2="240.418"/><text fill="#000000" font-family="monospace" font-size="13" lengthAdjust="spacing" textLength="24" x="80.5" y="235.3521">-&gt;x</text><line style="stroke:#181818;stroke-width:2.0;" x1="80.5" x2="90.5" y1="264.5508" y2="274.5508"/><line style="stroke:#181818;stroke-width:2.0;" x1="80.5" x2="90.5" y1="274.5508" y2="264.5508"/><polygon fill="#181818" points="125.5,265.5508,135.5,269.5508,125.5,273.5508,129.5,269.5508" style="stroke:#181818;stroke-width:1.0;"/><line style="stroke:#181818;stroke-width:1.0;" x1="85.5" x2="131.5" y1="269.5508" y2="269.5508"/><text fill="#000000" font-family="monospace" font-size="13" lengthAdjust="spacing" textLength="24" x="90.5" y="264.4849">x-&gt;</text><ellipse cx="73" cy="297.9336" fill="none" rx="4" ry="4" style="stroke:#181818;stroke-width:1.5;"/><polygon fill="#181818" points="125.5,294.6836,135.5,298.6836,125.5,302.6836,129.5,298.6836" style="stroke:#181818;stroke-width:1.0;"/><line style="stroke:#181818;stroke-width:1.0;" x1="77.5" x2="131.5" y1="298.6836" y2="298.6836"/><text fill="#000000" font-family="monospace" font-size="13" lengthAdjust="spacing" textLength="24" x="80.5" y="293.6177">o-&gt;</text><ellipse cx="137" cy="327.0664" fill="none" rx="4" ry="4" style="stroke:#181818;stroke-width:1.5;"/><polygon fill="#181818" points="120,323.8164,130,327.8164,120,331.8164,124,327.8164" style="stroke:#181818;stroke-width:1.0;"/><line style="stroke:#181818;stroke-width:1.0;" x1="73.5" x2="126" y1="327.8164" y2="327.8164"/><text fill="#000000" font-family="monospace" font-size="13" lengthAdjust="spacing" textLength="24" x="80.5" y="322.7505">-&gt;o</text><ellipse cx="73" cy="356.1992" fill="none" rx="4" ry="4" style="stroke:#181818;stroke-width:1.5;"/><ellipse cx="137" cy="356.1992" fill="none" rx="4" ry="4" style="stroke:#181818;stroke-width:1.5;"/><polygon fill="#181818" points="120,352.9492,130,356.9492,120,360.9492,124,356.9492" style="stroke:#181818;stroke-width:1.0;"/><line style="stroke:#181818;stroke-width:1.0;" x1="77.5" x2="126" y1="356.9492" y2="356.9492"/><text fill="#000000" font-family="monospace" font-size="13" lengthAdjust="spacing" textLength="32" x="80.5" y="351.8833">o-&gt;o</text><polygon fill="#181818" points="84.5,382.082,74.5,386.082,84.5,390.082,80.5,386.082" style="stroke:#181818;stroke-width:1.0;"/><polygon fill="#181818" points="125.5,382.082,135.5,386.082,125.5,390.082,129.5,386.082" style="stroke:#181818;stroke-width:1.0;"/><line style="stroke:#181818;stroke-width:1.0;" x1="78.5" x2="131.5" y1="386.082" y2="386.082"/><text fill="#000000" font-family="monospace" font-size="13" lengthAdjust="spacing" textLength="24" x="90.5" y="381.0161">&lt;-&gt;</text><ellipse cx="73" cy="414.4648" fill="none" rx="4" ry="4" style="stroke:#181818;stroke-width:1.5;"/><polygon fill="#181818" points="90,411.2148,80,415.2148,90,419.2148,86,415.2148" style="stroke:#181818;stroke-width:1.0;"/><ellipse cx="137" cy="414.4648" fill="none" rx="4" ry="4" style="stroke:#181818;stroke-width:1.5;"/><polygon fill="#181818" points="120,411.2148,130,415.2148,120,419.2148,124,415.2148" style="stroke:#181818;stroke-width:1.0;"/><line style="stroke:#181818;stroke-width:1.0;" x1="84" x2="126" y1="415.2148" y2="415.2148"/><text fill="#000000" font-family="monospace" font-size="13" lengthAdjust="spacing" textLength="40" x="90.5" y="410.1489">o&lt;-&gt;o</text><line style="stroke:#181818;stroke-width:2.0;" x1="80.5" x2="90.5" y1="439.3477" y2="449.3477"/><line style="stroke:#181818;stroke-width:2.0;" x1="80.5" x2="90.5" y1="449.3477" y2="439.3477"/><line style="stroke:#181818;stroke-width:2.0;" x1="119.5" x2="129.5" y1="439.3477" y2="449.3477"/><line style="stroke:#181818;stroke-width:2.0;" x1="119.5" x2="129.5" y1="449.3477" y2="439.3477"/><line style="stroke:#181818;stroke-width:1.0;" x1="85.5" x2="124.5" y1="444.3477" y2="444.3477"/><text fill="#000000" font-family="monospace" font-size="13" lengthAdjust="spacing" textLength="40" x="90.5" y="439.2817">x&lt;-&gt;x</text><ellipse cx="137" cy="472.7305" fill="none" rx="4" ry="4" style="stroke:#181818;stroke-width:1.5;"/><line style="stroke:#181818;stroke-width:1.0;" x1="130" x2="120" y1="473.4805" y2="469.4805"/><line style="stroke:#181818;stroke-width:1.0;" x1="130" x2="120" y1="473.4805" y2="477.4805"/><line style="stroke:#181818;stroke-width:1.0;" x1="73.5" x2="131" y1="473.4805" y2="473.4805"/><text fill="#000000" font-family="monospace" font-size="13" lengthAdjust="spacing" textLength="32" x="80.5" y="468.4146">-&gt;&gt;o</text><ellipse cx="137" cy="501.8633" fill="none" rx="4" ry="4" style="stroke:#181818;stroke-width:1.5;"/><polygon fill="#181818" points="120,498.6133,130,502.6133,120,502.6133" style="stroke:#181818;stroke-width:1.0;"/><line style="stroke:#181818;stroke-width:1.0;" x1="73.5" x2="131" y1="502.6133" y2="502.6133"/><text fill="#000000" font-family="monospace" font-size="13" lengthAdjust="spacing" textLength="24" x="80.5" y="497.5474">-\o</text><ellipse cx="137" cy="530.9961" fill="none" rx="4" ry="4" style="stroke:#181818;stroke-width:1.5;"/><line style="stroke:#181818;stroke-width:1.0;" x1="130" x2="120" y1="531.7461" y2="527.7461"/><line style="stroke:#181818;stroke-width:1.0;" x1="73.5" x2="131" y1="531.7461" y2="531.7461"/><text fill="#000000" font-family="monospace" font-size="13" lengthAdjust="spacing" textLength="32" x="80.5" y="526.6802">-\\o</text><ellipse cx="137" cy="560.1289" fill="none" rx="4" ry="4" style="stroke:#181818;stroke-width:1.5;"/><polygon fill="#181818" points="120,560.8789,130,560.8789,120,564.8789" style="stroke:#181818;stroke-width:1.0;"/><line style="stroke:#181818;stroke-width:1.0;" x1="73.5" x2="131" y1="560.8789" y2="560.8789"/><text fill="#000000" font-family="monospace" font-size="13" lengthAdjust="spacing" textLength="24" x="80.5" y="555.813">-/o</text><ellipse cx="137" cy="589.2617" fill="none" rx="4" ry="4" style="stroke:#181818;stroke-width:1.5;"/><line style="stroke:#181818;stroke-width:1.0;" x1="130" x2="120" y1="590.0117" y2="594.0117"/><line style="stroke:#181818;stroke-width:1.0;" x1="73.5" x2="131" y1="590.0117" y2="590.0117"/><text fill="#000000" font-family="monospace" font-size="13" lengthAdjust="spacing" textLength="32" x="80.5" y="584.9458">-//o</text><line style="stroke:#181818;stroke-width:2.0;" x1="80.5" x2="90.5" y1="614.1445" y2="624.1445"/><line style="stroke:#181818;stroke-width:2.0;" x1="80.5" x2="90.5" y1="624.1445" y2="614.1445"/><ellipse cx="137" cy="618.3945" fill="none" rx="4" ry="4" style="stroke:#181818;stroke-width:1.5;"/><polygon fill="#181818" points="120,615.1445,130,619.1445,120,623.1445,124,619.1445" style="stroke:#181818;stroke-width:1.0;"/><line style="stroke:#181818;stroke-width:1.0;" x1="85.5" x2="126" y1="619.1445" y2="619.1445"/><text fill="#000000" font-family="monospace" font-size="13" lengthAdjust="spacing" textLength="32" x="90.5" y="614.0786">x-&gt;o</text><!--SRC=[LP312i8m44Jl_OerzvAxX80U_OPSqb8aOfrI8nI_NfEcwNHl-nXsXtUQPdyVlSG1NudpPsWcFyVGXyc_ejp2AFujZmEyF4C_9EmF-8fE9E6kyT9QITF9MPJAYr8PMyPsmuxJhgQTO_oV5MjEwvhMch6kBnT-kHIyjDGaBnc3CIfkBVW8zZGuZHKRFcBssoR7IpejQnEJMvKcQTbKWLLXSy9D77PLEAf2aS9nZTqLs1Mg5B2KX7y0]--></g></svg>