<svg xmlns="http://www.w3.org/2000/svg" xmlns:xlink="http://www.w3.org/1999/xlink" contentStyleType="text/css" height="523px" preserveAspectRatio="none" style="width:124px;height:523px;background:#FFFFFF;" version="1.1" viewBox="0 0 124 523" width="124px" zoomAndPan="magnify"><defs/><g><rect fill="#FFFFFF" height="433" style="stroke:#181818;stroke-width:1.0;" width="10" x="20" y="46.4883"/><rect fill="#FFFFFF" height="230" style="stroke:#181818;stroke-width:1.0;" width="10" x="25" y="249.4883"/><rect fill="#FFFFFF" height="176" style="stroke:#181818;stroke-width:1.0;" width="10" x="30" y="303.4883"/><rect fill="#FFFFFF" height="122" style="stroke:#181818;stroke-width:1.0;" width="10" x="35" y="357.4883"/><rect fill="#FFFFFF" height="433" style="stroke:#181818;stroke-width:1.0;" width="10" x="90" y="46.4883"/><line style="stroke:#181818;stroke-width:0.5;stroke-dasharray:5.0,5.0;" x1="25" x2="25" y1="36.4883" y2="488.4883"/><line style="stroke:#181818;stroke-width:0.5;stroke-dasharray:5.0,5.0;" x1="94.5" x2="94.5" y1="36.4883" y2="488.4883"/><rect fill="#E2E2F0" height="30.4883" rx="2.5" ry="2.5" style="stroke:#181818;stroke-width:0.5;" width="40" x="5" y="5"/><text fill="#000000" font-family="sans-serif" font-size="14" lengthAdjust="spacing" textLength="26" x="12" y="25.5352">Bob</text><rect fill="#E2E2F0" height="30.4883" rx="2.5" ry="2.5" style="stroke:#181818;stroke-width:0.5;" width="40" x="5" y="487.4883"/><text fill="#000000" font-family="sans-serif" font-size="14" lengthAdjust="spacing" textLength="26" x="12" y="508.0234">Bob</text><rect fill="#E2E2F0" height="30.4883" rx="2.5" ry="2.5" style="stroke:#181818;stroke-width:0.5;" width="47" x="71.5" y="5"/><text fill="#000000" font-family="sans-serif" font-size="14" lengthAdjust="spacing" textLength="33" x="78.5" y="25.5352">Alice</text><rect fill="#E2E2F0" height="30.4883" rx="2.5" ry="2.5" style="stroke:#181818;stroke-width:0.5;" width="47" x="71.5" y="487.4883"/><text fill="#000000" font-family="sans-serif" font-size="14" lengthAdjust="spacing" textLength="33" x="78.5" y="508.0234">Alice</text><rect fill="#FFFFFF" height="433" style="stroke:#181818;stroke-width:1.0;" width="10" x="20" y="46.4883"/><rect fill="#FFFFFF" height="230" style="stroke:#181818;stroke-width:1.0;" width="10" x="25" y="249.4883"/><rect fill="#FFFFFF" height="176" style="stroke:#181818;stroke-width:1.0;" width="10" x="30" y="303.4883"/><rect fill="#FFFFFF" height="122" style="stroke:#181818;stroke-width:1.0;" width="10" x="35" y="357.4883"/><rect fill="#FFFFFF" height="433" style="stroke:#181818;stroke-width:1.0;" width="10" x="90" y="46.4883"/><line style="stroke:#181818;stroke-width:1.0;" x1="48" x2="89" y1="52.4883" y2="52.4883"/><line style="stroke:#181818;stroke-width:1.0;" x1="48" x2="48" y1="52.4883" y2="65.4883"/><line style="stroke:#181818;stroke-width:1.0;" x1="48" x2="88" y1="65.4883" y2="65.4883"/><polygon fill="#181818" points="78,61.4883,88,65.4883,78,69.4883,82,65.4883" style="stroke:#181818;stroke-width:1.0;"/><ellipse cx="89.5" cy="91.7383" fill="none" rx="4" ry="4" style="stroke:#181818;stroke-width:1.5;"/><line style="stroke:#181818;stroke-width:1.0;" x1="48" x2="89" y1="79.4883" y2="79.4883"/><line style="stroke:#181818;stroke-width:1.0;" x1="48" x2="48" y1="79.4883" y2="92.4883"/><line style="stroke:#181818;stroke-width:1.0;" x1="48" x2="82.5" y1="92.4883" y2="92.4883"/><polygon fill="#181818" points="72.5,88.4883,82.5,92.4883,72.5,96.4883,76.5,92.4883" style="stroke:#181818;stroke-width:1.0;"/><ellipse cx="89.5" cy="105.7383" fill="none" rx="4" ry="4" style="stroke:#181818;stroke-width:1.5;"/><ellipse cx="89.5" cy="118.7383" fill="none" rx="4" ry="4" style="stroke:#181818;stroke-width:1.5;"/><line style="stroke:#181818;stroke-width:1.0;" x1="48" x2="85" y1="106.4883" y2="106.4883"/><line style="stroke:#181818;stroke-width:1.0;" x1="48" x2="48" y1="106.4883" y2="119.4883"/><line style="stroke:#181818;stroke-width:1.0;" x1="48" x2="82.5" y1="119.4883" y2="119.4883"/><polygon fill="#181818" points="72.5,115.4883,82.5,119.4883,72.5,123.4883,76.5,119.4883" style="stroke:#181818;stroke-width:1.0;"/><line style="stroke:#181818;stroke-width:1.0;" x1="48" x2="89" y1="133.4883" y2="133.4883"/><line style="stroke:#181818;stroke-width:1.0;" x1="48" x2="48" y1="133.4883" y2="146.4883"/><line style="stroke:#181818;stroke-width:1.0;" x1="48" x2="89" y1="146.4883" y2="146.4883"/><line style="stroke:#181818;stroke-width:1.0;" x1="88" x2="78" y1="146.4883" y2="142.4883"/><line style="stroke:#181818;stroke-width:1.0;" x1="88" x2="78" y1="146.4883" y2="150.4883"/><line style="stroke:#181818;stroke-width:1.0;" x1="48" x2="89" y1="160.4883" y2="160.4883"/><line style="stroke:#181818;stroke-width:1.0;" x1="48" x2="48" y1="160.4883" y2="173.4883"/><line style="stroke:#181818;stroke-width:1.0;" x1="48" x2="89" y1="173.4883" y2="173.4883"/><polygon fill="#181818" points="78,169.4883,88,173.4883,78,173.4883" style="stroke:#181818;stroke-width:1.0;"/><line style="stroke:#181818;stroke-width:1.0;" x1="48" x2="89" y1="187.4883" y2="187.4883"/><line style="stroke:#181818;stroke-width:1.0;" x1="48" x2="48" y1="187.4883" y2="200.4883"/><line style="stroke:#181818;stroke-width:1.0;" x1="48" x2="89" y1="200.4883" y2="200.4883"/><line style="stroke:#181818;stroke-width:1.0;" x1="88" x2="78" y1="200.4883" y2="196.4883"/><line style="stroke:#181818;stroke-width:1.0;" x1="48" x2="89" y1="214.4883" y2="214.4883"/><line style="stroke:#181818;stroke-width:1.0;" x1="48" x2="48" y1="214.4883" y2="227.4883"/><line style="stroke:#181818;stroke-width:1.0;" x1="48" x2="89" y1="227.4883" y2="227.4883"/><polygon fill="#181818" points="78,227.4883,88,227.4883,78,231.4883" style="stroke:#181818;stroke-width:1.0;"/><line style="stroke:#181818;stroke-width:1.0;" x1="48" x2="89" y1="236.4883" y2="236.4883"/><line style="stroke:#181818;stroke-width:1.0;" x1="48" x2="48" y1="236.4883" y2="249.4883"/><line style="stroke:#181818;stroke-width:1.0;" x1="48" x2="94" y1="249.4883" y2="249.4883"/><line style="stroke:#181818;stroke-width:1.0;" x1="93" x2="83" y1="249.4883" y2="253.4883"/><ellipse cx="89.5" cy="267.7383" fill="none" rx="4" ry="4" style="stroke:#181818;stroke-width:1.5;"/><line style="stroke:#181818;stroke-width:1.0;" x1="48" x2="85" y1="268.4883" y2="268.4883"/><line style="stroke:#181818;stroke-width:1.0;" x1="48" x2="48" y1="268.4883" y2="281.4883"/><line style="stroke:#181818;stroke-width:1.0;" x1="48" x2="88" y1="281.4883" y2="281.4883"/><polygon fill="#181818" points="78,277.4883,88,281.4883,78,285.4883,82,281.4883" style="stroke:#181818;stroke-width:1.0;"/><ellipse cx="94.5" cy="302.7383" fill="none" rx="4" ry="4" style="stroke:#181818;stroke-width:1.5;"/><line style="stroke:#181818;stroke-width:1.0;" x1="48" x2="89" y1="290.4883" y2="290.4883"/><line style="stroke:#181818;stroke-width:1.0;" x1="48" x2="48" y1="290.4883" y2="303.4883"/><line style="stroke:#181818;stroke-width:1.0;" x1="48" x2="87.5" y1="303.4883" y2="303.4883"/><polygon fill="#181818" points="77.5,299.4883,87.5,303.4883,77.5,307.4883,81.5,303.4883" style="stroke:#181818;stroke-width:1.0;"/><ellipse cx="89.5" cy="321.7383" fill="none" rx="4" ry="4" style="stroke:#181818;stroke-width:1.5;"/><ellipse cx="89.5" cy="334.7383" fill="none" rx="4" ry="4" style="stroke:#181818;stroke-width:1.5;"/><line style="stroke:#181818;stroke-width:1.0;" x1="48" x2="85" y1="322.4883" y2="322.4883"/><line style="stroke:#181818;stroke-width:1.0;" x1="48" x2="48" y1="322.4883" y2="335.4883"/><line style="stroke:#181818;stroke-width:1.0;" x1="48" x2="82.5" y1="335.4883" y2="335.4883"/><polygon fill="#181818" points="72.5,331.4883,82.5,335.4883,72.5,339.4883,76.5,335.4883" style="stroke:#181818;stroke-width:1.0;"/><ellipse cx="94.5" cy="356.7383" fill="none" rx="4" ry="4" style="stroke:#181818;stroke-width:1.5;"/><line style="stroke:#181818;stroke-width:1.0;" x1="48" x2="89" y1="344.4883" y2="344.4883"/><line style="stroke:#181818;stroke-width:1.0;" x1="48" x2="48" y1="344.4883" y2="357.4883"/><line style="stroke:#181818;stroke-width:1.0;" x1="48" x2="88.5" y1="357.4883" y2="357.4883"/><line style="stroke:#181818;stroke-width:1.0;" x1="87.5" x2="77.5" y1="357.4883" y2="353.4883"/><line style="stroke:#181818;stroke-width:1.0;" x1="87.5" x2="77.5" y1="357.4883" y2="361.4883"/><ellipse cx="89.5" cy="388.7383" fill="none" rx="4" ry="4" style="stroke:#181818;stroke-width:1.5;"/><line style="stroke:#181818;stroke-width:1.0;" x1="48" x2="89" y1="376.4883" y2="376.4883"/><line style="stroke:#181818;stroke-width:1.0;" x1="48" x2="48" y1="376.4883" y2="389.4883"/><line style="stroke:#181818;stroke-width:1.0;" x1="48" x2="83.5" y1="389.4883" y2="389.4883"/><polygon fill="#181818" points="72.5,385.4883,82.5,389.4883,72.5,389.4883" style="stroke:#181818;stroke-width:1.0;"/><ellipse cx="89.5" cy="415.7383" fill="none" rx="4" ry="4" style="stroke:#181818;stroke-width:1.5;"/><line style="stroke:#181818;stroke-width:1.0;" x1="48" x2="89" y1="403.4883" y2="403.4883"/><line style="stroke:#181818;stroke-width:1.0;" x1="48" x2="48" y1="403.4883" y2="416.4883"/><line style="stroke:#181818;stroke-width:1.0;" x1="48" x2="83.5" y1="416.4883" y2="416.4883"/><line style="stroke:#181818;stroke-width:1.0;" x1="82.5" x2="72.5" y1="416.4883" y2="412.4883"/><ellipse cx="89.5" cy="442.7383" fill="none" rx="4" ry="4" style="stroke:#181818;stroke-width:1.5;"/><line style="stroke:#181818;stroke-width:1.0;" x1="48" x2="89" y1="430.4883" y2="430.4883"/><line style="stroke:#181818;stroke-width:1.0;" x1="48" x2="48" y1="430.4883" y2="443.4883"/><line style="stroke:#181818;stroke-width:1.0;" x1="48" x2="83.5" y1="443.4883" y2="443.4883"/><polygon fill="#181818" points="72.5,443.4883,82.5,443.4883,72.5,447.4883" style="stroke:#181818;stroke-width:1.0;"/><ellipse cx="89.5" cy="469.7383" fill="none" rx="4" ry="4" style="stroke:#181818;stroke-width:1.5;"/><line style="stroke:#181818;stroke-width:1.0;" x1="48" x2="89" y1="457.4883" y2="457.4883"/><line style="stroke:#181818;stroke-width:1.0;" x1="48" x2="48" y1="457.4883" y2="470.4883"/><line style="stroke:#181818;stroke-width:1.0;" x1="48" x2="83.5" y1="470.4883" y2="470.4883"/><line style="stroke:#181818;stroke-width:1.0;" x1="82.5" x2="72.5" y1="470.4883" y2="474.4883"/><!--SRC=[NOr13i8W44Ntd69SiJ9Se9lgmakmcJOJGsmPd59DQhoxj6YnPVLvFFBq8GXUUuH8F46KaPGURiu75EnXeFj8lYLuALsByFFC7GjSXCWh_LR9Ygvr0Ns44pU00pGRM7Sk_KuO5RRHFJ3I_smKGdM4-IGAlDsyNghyC4zJ56DMQWkrzaUt5TvLTiAtbuN5s0kbnhcyJ5jeBkC7]--></g></svg>