<svg xmlns="http://www.w3.org/2000/svg" xmlns:xlink="http://www.w3.org/1999/xlink" contentStyleType="text/css" height="240px" preserveAspectRatio="none" style="width:300px;height:240px;background:#FFFFFF;" version="1.1" viewBox="0 0 300 240" width="300px" zoomAndPan="magnify"><defs/><g><line style="stroke:#181818;stroke-width:0.5;stroke-dasharray:5.0,5.0;" x1="24.3618" x2="24.3618" y1="81.4883" y2="158.1094"/><rect fill="#FFFFFF" height="29.3105" style="stroke:#181818;stroke-width:1.0;" width="10" x="19.3618" y="110.7988"/><line style="stroke:#181818;stroke-width:0.5;stroke-dasharray:5.0,5.0;" x1="170.5459" x2="170.5459" y1="81.4883" y2="158.1094"/><rect fill="#FFFFFF" height="18" style="stroke:#181818;stroke-width:1.0;" width="10" x="165.5459" y="140.1094"/><line style="stroke:#181818;stroke-width:0.5;stroke-dasharray:5.0,5.0;" x1="223.1421" x2="223.1421" y1="81.4883" y2="158.1094"/><line style="stroke:#181818;stroke-width:0.5;stroke-dasharray:5.0,5.0;" x1="279.6382" x2="279.6382" y1="81.4883" y2="158.1094"/><text fill="#000000" font-family="sans-serif" font-size="14" lengthAdjust="spacing" textLength="32.7236" x="5" y="78.5352">Alice</text><ellipse cx="24.3618" cy="13.5" fill="#E2E2F0" rx="8" ry="8" style="stroke:#181818;stroke-width:0.5;"/><path d="M24.3618,21.5 L24.3618,48.5 M11.3618,29.5 L37.3618,29.5 M24.3618,48.5 L11.3618,63.5 M24.3618,48.5 L37.3618,63.5 " fill="none" style="stroke:#181818;stroke-width:0.5;"/><text fill="#000000" font-family="sans-serif" font-size="14" lengthAdjust="spacing" textLength="25.4639" x="154.814" y="78.5352">Bob</text><ellipse cx="170.5459" cy="13.5" fill="#E2E2F0" rx="8" ry="8" style="stroke:#181818;stroke-width:0.5;"/><path d="M170.5459,21.5 L170.5459,48.5 M157.5459,29.5 L183.5459,29.5 M170.5459,48.5 L157.5459,63.5 M170.5459,48.5 L183.5459,63.5 " fill="none" style="stroke:#181818;stroke-width:0.5;"/><text fill="#000000" font-family="sans-serif" font-size="14" lengthAdjust="spacing" textLength="47.7285" x="196.2778" y="78.5352">Charlie</text><ellipse cx="223.1421" cy="13.5" fill="#E2E2F0" rx="8" ry="8" style="stroke:#181818;stroke-width:0.5;"/><path d="M223.1421,21.5 L223.1421,48.5 M210.1421,29.5 L236.1421,29.5 M223.1421,48.5 L210.1421,63.5 M223.1421,48.5 L236.1421,63.5 " fill="none" style="stroke:#181818;stroke-width:0.5;"/><text fill="#000000" font-family="sans-serif" font-size="14" lengthAdjust="spacing" textLength="33.2637" x="260.0063" y="78.5352">Dave</text><ellipse cx="279.6382" cy="13.5" fill="#E2E2F0" rx="8" ry="8" style="stroke:#181818;stroke-width:0.5;"/><path d="M279.6382,21.5 L279.6382,48.5 M266.6382,29.5 L292.6382,29.5 M279.6382,48.5 L266.6382,63.5 M279.6382,48.5 L292.6382,63.5 " fill="none" style="stroke:#181818;stroke-width:0.5;"/><text fill="#000000" font-family="sans-serif" font-size="14" lengthAdjust="spacing" textLength="32.7236" x="5" y="231.6445">Alice</text><ellipse cx="24.3618" cy="166.6094" fill="#E2E2F0" rx="8" ry="8" style="stroke:#181818;stroke-width:0.5;"/><path d="M24.3618,174.6094 L24.3618,201.6094 M11.3618,182.6094 L37.3618,182.6094 M24.3618,201.6094 L11.3618,216.6094 M24.3618,201.6094 L37.3618,216.6094 " fill="none" style="stroke:#181818;stroke-width:0.5;"/><text fill="#000000" font-family="sans-serif" font-size="14" lengthAdjust="spacing" textLength="25.4639" x="154.814" y="231.6445">Bob</text><ellipse cx="170.5459" cy="166.6094" fill="#E2E2F0" rx="8" ry="8" style="stroke:#181818;stroke-width:0.5;"/><path d="M170.5459,174.6094 L170.5459,201.6094 M157.5459,182.6094 L183.5459,182.6094 M170.5459,201.6094 L157.5459,216.6094 M170.5459,201.6094 L183.5459,216.6094 " fill="none" style="stroke:#181818;stroke-width:0.5;"/><text fill="#000000" font-family="sans-serif" font-size="14" lengthAdjust="spacing" textLength="47.7285" x="196.2778" y="231.6445">Charlie</text><ellipse cx="223.1421" cy="166.6094" fill="#E2E2F0" rx="8" ry="8" style="stroke:#181818;stroke-width:0.5;"/><path d="M223.1421,174.6094 L223.1421,201.6094 M210.1421,182.6094 L236.1421,182.6094 M223.1421,201.6094 L210.1421,216.6094 M223.1421,201.6094 L236.1421,216.6094 " fill="none" style="stroke:#181818;stroke-width:0.5;"/><text fill="#000000" font-family="sans-serif" font-size="14" lengthAdjust="spacing" textLength="33.2637" x="260.0063" y="231.6445">Dave</text><ellipse cx="279.6382" cy="166.6094" fill="#E2E2F0" rx="8" ry="8" style="stroke:#181818;stroke-width:0.5;"/><path d="M279.6382,174.6094 L279.6382,201.6094 M266.6382,182.6094 L292.6382,182.6094 M279.6382,201.6094 L266.6382,216.6094 M279.6382,201.6094 L292.6382,216.6094 " fill="none" style="stroke:#181818;stroke-width:0.5;"/><polygon fill="#181818" points="40.3618,106.7988,30.3618,110.7988,40.3618,114.7988,36.3618,110.7988" style="stroke:#181818;stroke-width:1.0;"/><line style="stroke:#181818;stroke-width:1.0;" x1="34.3618" x2="169.5459" y1="110.7988" y2="110.7988"/><text fill="#000000" font-family="sans-serif" font-size="13" lengthAdjust="spacing" textLength="63.3813" x="46.3618" y="106.0566">message1</text><polygon fill="#181818" points="267.6382,138.1094,277.6382,142.1094,267.6382,146.1094,271.6382,142.1094" style="stroke:#181818;stroke-width:1.0;"/><line style="stroke:#181818;stroke-width:1.0;" x1="24.3618" x2="273.6382" y1="142.1094" y2="142.1094"/><polygon fill="#181818" points="211.1421,140.1094,221.1421,144.1094,211.1421,148.1094,215.1421,144.1094" style="stroke:#181818;stroke-width:1.0;"/><line style="stroke:#181818;stroke-width:1.0;" x1="24.3618" x2="217.1421" y1="144.1094" y2="144.1094"/><polygon fill="#181818" points="153.5459,136.1094,163.5459,140.1094,153.5459,144.1094,157.5459,140.1094" style="stroke:#181818;stroke-width:1.0;"/><line style="stroke:#181818;stroke-width:1.0;" x1="29.3618" x2="159.5459" y1="140.1094" y2="140.1094"/><text fill="#000000" font-family="sans-serif" font-size="13" lengthAdjust="spacing" textLength="117.1841" x="36.3618" y="135.3672">multicast message</text><!--SRC=[KomeIapFJLGeISslKYWfAatbKdVBBohDLJ0qiJ0mvafCBialKd3CoKnEXRATyfEWBEUCnAASJ9YuIs9PAXTGKa7N3g9UGLlRIY4tjRWuCJtLa0iY19G3AL43gmPIK2CKT7N1YajpIZAJ4ujBODe0]--></g></svg>