<svg xmlns="http://www.w3.org/2000/svg" xmlns:xlink="http://www.w3.org/1999/xlink" contentStyleType="text/css" height="673px" preserveAspectRatio="none" style="width:162px;height:673px;background:#FFFFFF;" version="1.1" viewBox="0 0 162 673" width="162px" zoomAndPan="magnify"><defs/><g><line style="stroke:#181818;stroke-width:0.5;stroke-dasharray:5.0,5.0;" x1="22.7358" x2="22.7358" y1="36.4883" y2="637.1445"/><line style="stroke:#181818;stroke-width:0.5;stroke-dasharray:5.0,5.0;" x1="73.8335" x2="73.8335" y1="36.4883" y2="637.1445"/><line style="stroke:#181818;stroke-width:0.5;stroke-dasharray:5.0,5.0;" x1="136.9668" x2="136.9668" y1="36.4883" y2="637.1445"/><rect fill="#E2E2F0" height="30.4883" rx="2.5" ry="2.5" style="stroke:#181818;stroke-width:0.5;" width="35.4717" x="5" y="5"/><text fill="#000000" font-family="sans-serif" font-size="14" lengthAdjust="spacing" textLength="21.4717" x="12" y="25.5352">Jim</text><rect fill="#E2E2F0" height="30.4883" rx="2.5" ry="2.5" style="stroke:#181818;stroke-width:0.5;" width="46.7236" x="50.4717" y="5"/><text fill="#000000" font-family="sans-serif" font-size="14" lengthAdjust="spacing" textLength="32.7236" x="57.4717" y="25.5352">Alice</text><rect fill="#E2E2F0" height="30.4883" rx="2.5" ry="2.5" style="stroke:#181818;stroke-width:0.5;" width="39.4639" x="117.2349" y="5"/><text fill="#000000" font-family="sans-serif" font-size="14" lengthAdjust="spacing" textLength="25.4639" x="124.2349" y="25.5352">Bob</text><rect fill="#E2E2F0" height="30.4883" rx="2.5" ry="2.5" style="stroke:#181818;stroke-width:0.5;" width="35.4717" x="5" y="637.1445"/><text fill="#000000" font-family="sans-serif" font-size="14" lengthAdjust="spacing" textLength="21.4717" x="12" y="657.6797">Jim</text><rect fill="#E2E2F0" height="30.4883" rx="2.5" ry="2.5" style="stroke:#181818;stroke-width:0.5;" width="46.7236" x="50.4717" y="637.1445"/><text fill="#000000" font-family="sans-serif" font-size="14" lengthAdjust="spacing" textLength="32.7236" x="57.4717" y="657.6797">Alice</text><rect fill="#E2E2F0" height="30.4883" rx="2.5" ry="2.5" style="stroke:#181818;stroke-width:0.5;" width="39.4639" x="117.2349" y="637.1445"/><text fill="#000000" font-family="sans-serif" font-size="14" lengthAdjust="spacing" textLength="25.4639" x="124.2349" y="657.6797">Bob</text><polygon fill="#181818" points="124.9668,61.6211,134.9668,65.6211,124.9668,69.6211,128.9668,65.6211" style="stroke:#181818;stroke-width:1.0;"/><line style="stroke:#181818;stroke-width:1.0;" x1="73.8335" x2="130.9668" y1="65.6211" y2="65.6211"/><text fill="#000000" font-family="monospace" font-size="13" lengthAdjust="spacing" textLength="15.6533" x="80.8335" y="60.5552">-&gt;</text><line style="stroke:#181818;stroke-width:1.0;" x1="134.9668" x2="124.9668" y1="94.7539" y2="90.7539"/><line style="stroke:#181818;stroke-width:1.0;" x1="134.9668" x2="124.9668" y1="94.7539" y2="98.7539"/><line style="stroke:#181818;stroke-width:1.0;" x1="73.8335" x2="135.9668" y1="94.7539" y2="94.7539"/><text fill="#000000" font-family="monospace" font-size="13" lengthAdjust="spacing" textLength="23.48" x="80.8335" y="89.688">-&gt;&gt;</text><polygon fill="#181818" points="124.9668,119.8867,134.9668,123.8867,124.9668,123.8867" style="stroke:#181818;stroke-width:1.0;"/><line style="stroke:#181818;stroke-width:1.0;" x1="73.8335" x2="135.9668" y1="123.8867" y2="123.8867"/><text fill="#000000" font-family="monospace" font-size="13" lengthAdjust="spacing" textLength="15.6533" x="80.8335" y="118.8208">-\</text><line style="stroke:#181818;stroke-width:1.0;" x1="134.9668" x2="124.9668" y1="153.0195" y2="149.0195"/><line style="stroke:#181818;stroke-width:1.0;" x1="73.8335" x2="135.9668" y1="153.0195" y2="153.0195"/><text fill="#000000" font-family="monospace" font-size="13" lengthAdjust="spacing" textLength="23.48" x="80.8335" y="147.9536">-\\</text><polygon fill="#181818" points="124.9668,182.1523,134.9668,182.1523,124.9668,186.1523" style="stroke:#181818;stroke-width:1.0;"/><line style="stroke:#181818;stroke-width:1.0;" x1="73.8335" x2="135.9668" y1="182.1523" y2="182.1523"/><text fill="#000000" font-family="monospace" font-size="13" lengthAdjust="spacing" textLength="15.6533" x="80.8335" y="177.0864">-/</text><line style="stroke:#181818;stroke-width:1.0;" x1="134.9668" x2="124.9668" y1="211.2852" y2="215.2852"/><line style="stroke:#181818;stroke-width:1.0;" x1="73.8335" x2="135.9668" y1="211.2852" y2="211.2852"/><text fill="#000000" font-family="monospace" font-size="13" lengthAdjust="spacing" textLength="23.48" x="80.8335" y="206.2192">-//</text><line style="stroke:#181818;stroke-width:2.0;" x1="118.9668" x2="128.9668" y1="235.418" y2="245.418"/><line style="stroke:#181818;stroke-width:2.0;" x1="118.9668" x2="128.9668" y1="245.418" y2="235.418"/><line style="stroke:#181818;stroke-width:1.0;" x1="73.8335" x2="123.9668" y1="240.418" y2="240.418"/><text fill="#000000" font-family="monospace" font-size="13" lengthAdjust="spacing" textLength="23.48" x="80.8335" y="235.3521">-&gt;x</text><line style="stroke:#181818;stroke-width:2.0;" x1="80.8335" x2="90.8335" y1="264.5508" y2="274.5508"/><line style="stroke:#181818;stroke-width:2.0;" x1="80.8335" x2="90.8335" y1="274.5508" y2="264.5508"/><polygon fill="#181818" points="124.9668,265.5508,134.9668,269.5508,124.9668,273.5508,128.9668,269.5508" style="stroke:#181818;stroke-width:1.0;"/><line style="stroke:#181818;stroke-width:1.0;" x1="85.8335" x2="130.9668" y1="269.5508" y2="269.5508"/><text fill="#000000" font-family="monospace" font-size="13" lengthAdjust="spacing" textLength="23.48" x="90.8335" y="264.4849">x-&gt;</text><ellipse cx="73.3335" cy="297.9336" fill="none" rx="4" ry="4" style="stroke:#181818;stroke-width:1.5;"/><polygon fill="#181818" points="124.9668,294.6836,134.9668,298.6836,124.9668,302.6836,128.9668,298.6836" style="stroke:#181818;stroke-width:1.0;"/><line style="stroke:#181818;stroke-width:1.0;" x1="77.8335" x2="130.9668" y1="298.6836" y2="298.6836"/><text fill="#000000" font-family="monospace" font-size="13" lengthAdjust="spacing" textLength="23.48" x="80.8335" y="293.6177">o-&gt;</text><ellipse cx="136.4668" cy="327.0664" fill="none" rx="4" ry="4" style="stroke:#181818;stroke-width:1.5;"/><polygon fill="#181818" points="119.4668,323.8164,129.4668,327.8164,119.4668,331.8164,123.4668,327.8164" style="stroke:#181818;stroke-width:1.0;"/><line style="stroke:#181818;stroke-width:1.0;" x1="73.8335" x2="125.4668" y1="327.8164" y2="327.8164"/><text fill="#000000" font-family="monospace" font-size="13" lengthAdjust="spacing" textLength="23.48" x="80.8335" y="322.7505">-&gt;o</text><ellipse cx="73.3335" cy="356.1992" fill="none" rx="4" ry="4" style="stroke:#181818;stroke-width:1.5;"/><ellipse cx="136.4668" cy="356.1992" fill="none" rx="4" ry="4" style="stroke:#181818;stroke-width:1.5;"/><polygon fill="#181818" points="119.4668,352.9492,129.4668,356.9492,119.4668,360.9492,123.4668,356.9492" style="stroke:#181818;stroke-width:1.0;"/><line style="stroke:#181818;stroke-width:1.0;" x1="77.8335" x2="125.4668" y1="356.9492" y2="356.9492"/><text fill="#000000" font-family="monospace" font-size="13" lengthAdjust="spacing" textLength="31.3066" x="80.8335" y="351.8833">o-&gt;o</text><polygon fill="#181818" points="84.8335,382.082,74.8335,386.082,84.8335,390.082,80.8335,386.082" style="stroke:#181818;stroke-width:1.0;"/><polygon fill="#181818" points="124.9668,382.082,134.9668,386.082,124.9668,390.082,128.9668,386.082" style="stroke:#181818;stroke-width:1.0;"/><line style="stroke:#181818;stroke-width:1.0;" x1="78.8335" x2="130.9668" y1="386.082" y2="386.082"/><text fill="#000000" font-family="monospace" font-size="13" lengthAdjust="spacing" textLength="23.48" x="90.8335" y="381.0161">&lt;-&gt;</text><ellipse cx="73.3335" cy="414.4648" fill="none" rx="4" ry="4" style="stroke:#181818;stroke-width:1.5;"/><polygon fill="#181818" points="90.3335,411.2148,80.3335,415.2148,90.3335,419.2148,86.3335,415.2148" style="stroke:#181818;stroke-width:1.0;"/><ellipse cx="136.4668" cy="414.4648" fill="none" rx="4" ry="4" style="stroke:#181818;stroke-width:1.5;"/><polygon fill="#181818" points="119.4668,411.2148,129.4668,415.2148,119.4668,419.2148,123.4668,415.2148" style="stroke:#181818;stroke-width:1.0;"/><line style="stroke:#181818;stroke-width:1.0;" x1="84.3335" x2="125.4668" y1="415.2148" y2="415.2148"/><text fill="#000000" font-family="monospace" font-size="13" lengthAdjust="spacing" textLength="39.1333" x="90.8335" y="410.1489">o&lt;-&gt;o</text><line style="stroke:#181818;stroke-width:2.0;" x1="80.8335" x2="90.8335" y1="439.3477" y2="449.3477"/><line style="stroke:#181818;stroke-width:2.0;" x1="80.8335" x2="90.8335" y1="449.3477" y2="439.3477"/><line style="stroke:#181818;stroke-width:2.0;" x1="118.9668" x2="128.9668" y1="439.3477" y2="449.3477"/><line style="stroke:#181818;stroke-width:2.0;" x1="118.9668" x2="128.9668" y1="449.3477" y2="439.3477"/><line style="stroke:#181818;stroke-width:1.0;" x1="85.8335" x2="123.9668" y1="444.3477" y2="444.3477"/><text fill="#000000" font-family="monospace" font-size="13" lengthAdjust="spacing" textLength="39.1333" x="90.8335" y="439.2817">x&lt;-&gt;x</text><ellipse cx="136.4668" cy="472.7305" fill="none" rx="4" ry="4" style="stroke:#181818;stroke-width:1.5;"/><line style="stroke:#181818;stroke-width:1.0;" x1="129.4668" x2="119.4668" y1="473.4805" y2="469.4805"/><line style="stroke:#181818;stroke-width:1.0;" x1="129.4668" x2="119.4668" y1="473.4805" y2="477.4805"/><line style="stroke:#181818;stroke-width:1.0;" x1="73.8335" x2="130.4668" y1="473.4805" y2="473.4805"/><text fill="#000000" font-family="monospace" font-size="13" lengthAdjust="spacing" textLength="31.3066" x="80.8335" y="468.4146">-&gt;&gt;o</text><ellipse cx="136.4668" cy="501.8633" fill="none" rx="4" ry="4" style="stroke:#181818;stroke-width:1.5;"/><polygon fill="#181818" points="119.4668,498.6133,129.4668,502.6133,119.4668,502.6133" style="stroke:#181818;stroke-width:1.0;"/><line style="stroke:#181818;stroke-width:1.0;" x1="73.8335" x2="130.4668" y1="502.6133" y2="502.6133"/><text fill="#000000" font-family="monospace" font-size="13" lengthAdjust="spacing" textLength="23.48" x="80.8335" y="497.5474">-\o</text><ellipse cx="136.4668" cy="530.9961" fill="none" rx="4" ry="4" style="stroke:#181818;stroke-width:1.5;"/><line style="stroke:#181818;stroke-width:1.0;" x1="129.4668" x2="119.4668" y1="531.7461" y2="527.7461"/><line style="stroke:#181818;stroke-width:1.0;" x1="73.8335" x2="130.4668" y1="531.7461" y2="531.7461"/><text fill="#000000" font-family="monospace" font-size="13" lengthAdjust="spacing" textLength="31.3066" x="80.8335" y="526.6802">-\\o</text><ellipse cx="136.4668" cy="560.1289" fill="none" rx="4" ry="4" style="stroke:#181818;stroke-width:1.5;"/><polygon fill="#181818" points="119.4668,560.8789,129.4668,560.8789,119.4668,564.8789" style="stroke:#181818;stroke-width:1.0;"/><line style="stroke:#181818;stroke-width:1.0;" x1="73.8335" x2="130.4668" y1="560.8789" y2="560.8789"/><text fill="#000000" font-family="monospace" font-size="13" lengthAdjust="spacing" textLength="23.48" x="80.8335" y="555.813">-/o</text><ellipse cx="136.4668" cy="589.2617" fill="none" rx="4" ry="4" style="stroke:#181818;stroke-width:1.5;"/><line style="stroke:#181818;stroke-width:1.0;" x1="129.4668" x2="119.4668" y1="590.0117" y2="594.0117"/><line style="stroke:#181818;stroke-width:1.0;" x1="73.8335" x2="130.4668" y1="590.0117" y2="590.0117"/><text fill="#000000" font-family="monospace" font-size="13" lengthAdjust="spacing" textLength="31.3066" x="80.8335" y="584.9458">-//o</text><line style="stroke:#181818;stroke-width:2.0;" x1="80.8335" x2="90.8335" y1="614.1445" y2="624.1445"/><line style="stroke:#181818;stroke-width:2.0;" x1="80.8335" x2="90.8335" y1="624.1445" y2="614.1445"/><ellipse cx="136.4668" cy="618.3945" fill="none" rx="4" ry="4" style="stroke:#181818;stroke-width:1.5;"/><polygon fill="#181818" points="119.4668,615.1445,129.4668,619.1445,119.4668,623.1445,123.4668,619.1445" style="stroke:#181818;stroke-width:1.0;"/><line style="stroke:#181818;stroke-width:1.0;" x1="85.8335" x2="125.4668" y1="619.1445" y2="619.1445"/><text fill="#000000" font-family="monospace" font-size="13" lengthAdjust="spacing" textLength="31.3066" x="90.8335" y="614.0786">x-&gt;o</text><!--SRC=[LP312i8m44Jl_OerzvAxX80U_OPSqb8aOfrI8nI_NfEcwNHl-nXsXtUQPdyVlSG1NudpPsWcFyVGXyc_ejp2AFujZmEyF4C_9EmF-8fE9E6kyT9QITF9MPJAYr8PMyPsmuxJhgQTO_oV5MjEwvhMch6kBnT-kHIyjDGaBnc3CIfkBVW8zZGuZHKRFcBssoR7IpejQnEJMvKcQTbKWLLXSy9D77PLEAf2aS9nZTqLs1Mg5B2KX7y0]--></g></svg>