<svg xmlns="http://www.w3.org/2000/svg" xmlns:xlink="http://www.w3.org/1999/xlink" contentStyleType="text/css" height="1096px" preserveAspectRatio="none" style="width:496px;height:1096px;background:#FFFFFF;" version="1.1" viewBox="0 0 496 1096" width="496px" zoomAndPan="magnify"><defs/><g><line style="stroke:#181818;stroke-width:0.5;stroke-dasharray:5.0,5.0;" x1="154" x2="154" y1="36.4883" y2="1059.8047"/><line style="stroke:#181818;stroke-width:0.5;stroke-dasharray:5.0,5.0;" x1="223" x2="223" y1="36.4883" y2="1059.8047"/><line style="stroke:#181818;stroke-width:0.5;stroke-dasharray:5.0,5.0;" x1="292" x2="292" y1="36.4883" y2="1059.8047"/><rect fill="#E2E2F0" height="30.4883" rx="2.5" ry="2.5" style="stroke:#181818;stroke-width:0.5;" width="24" x="142" y="5"/><text fill="#000000" font-family="sans-serif" font-size="14" lengthAdjust="spacing" textLength="10" x="149" y="25.5352">A</text><rect fill="#E2E2F0" height="30.4883" rx="2.5" ry="2.5" style="stroke:#181818;stroke-width:0.5;" width="22" x="212" y="5"/><text fill="#000000" font-family="sans-serif" font-size="14" lengthAdjust="spacing" textLength="8" x="219" y="25.5352">B</text><rect fill="#E2E2F0" height="30.4883" rx="2.5" ry="2.5" style="stroke:#181818;stroke-width:0.5;" width="24" x="280" y="5"/><text fill="#000000" font-family="sans-serif" font-size="14" lengthAdjust="spacing" textLength="10" x="287" y="25.5352">C</text><rect fill="#E2E2F0" height="30.4883" rx="2.5" ry="2.5" style="stroke:#181818;stroke-width:0.5;" width="24" x="142" y="1059.8047"/><text fill="#000000" font-family="sans-serif" font-size="14" lengthAdjust="spacing" textLength="10" x="149" y="1080.3398">A</text><rect fill="#E2E2F0" height="30.4883" rx="2.5" ry="2.5" style="stroke:#181818;stroke-width:0.5;" width="22" x="212" y="1059.8047"/><text fill="#000000" font-family="sans-serif" font-size="14" lengthAdjust="spacing" textLength="8" x="219" y="1080.3398">B</text><rect fill="#E2E2F0" height="30.4883" rx="2.5" ry="2.5" style="stroke:#181818;stroke-width:0.5;" width="24" x="280" y="1059.8047"/><text fill="#000000" font-family="sans-serif" font-size="14" lengthAdjust="spacing" textLength="10" x="287" y="1080.3398">C</text><rect fill="#EEEEEE" height="3" style="stroke:#EEEEEE;stroke-width:1.0;" width="484" x="5" y="65.1436"/><line style="stroke:#000000;stroke-width:1.0;" x1="5" x2="489" y1="65.1436" y2="65.1436"/><line style="stroke:#000000;stroke-width:1.0;" x1="5" x2="489" y1="68.1436" y2="68.1436"/><rect fill="#EEEEEE" height="23.3105" style="stroke:#000000;stroke-width:2.0;" width="131" x="181.5" y="54.4883"/><text fill="#000000" font-family="sans-serif" font-size="13" font-weight="bold" lengthAdjust="spacing" textLength="113" x="187.5" y="71.0566">two short arrows</text><path d="M164,91.7988 L231,91.7988 L231,99.1094 L221,109.1094 L164,109.1094 L164,91.7988 " fill="none" style="stroke:#000000;stroke-width:1.5;"/><rect fill="none" height="56.6211" style="stroke:#000000;stroke-width:1.5;" width="126" x="164" y="91.7988"/><text fill="#000000" font-family="sans-serif" font-size="13" font-weight="bold" lengthAdjust="spacing" textLength="22" x="179" y="105.3672">opt</text><text fill="#000000" font-family="sans-serif" font-size="11" font-weight="bold" lengthAdjust="spacing" textLength="25" x="246" y="104.4336">[OK]</text><ellipse cx="185.5" cy="139.6699" fill="none" rx="4" ry="4" style="stroke:#181818;stroke-width:1.5;"/><polygon fill="#181818" points="211,136.4199,221,140.4199,211,144.4199,215,140.4199" style="stroke:#181818;stroke-width:1.0;"/><line style="stroke:#181818;stroke-width:1.0;" x1="190" x2="217" y1="140.4199" y2="140.4199"/><text fill="#000000" font-family="sans-serif" font-size="13" lengthAdjust="spacing" textLength="19" x="193" y="135.6777">Pre</text><polygon fill="#181818" points="234,136.4199,224,140.4199,234,144.4199,230,140.4199" style="stroke:#181818;stroke-width:1.0;"/><ellipse cx="267.5" cy="139.6699" fill="none" rx="4" ry="4" style="stroke:#181818;stroke-width:1.5;"/><line style="stroke:#181818;stroke-width:1.0;" x1="228" x2="263" y1="140.4199" y2="140.4199"/><text fill="#000000" font-family="sans-serif" font-size="13" lengthAdjust="spacing" textLength="27" x="240" y="135.6777">yolo</text><ellipse cx="185.5" cy="182.9805" fill="none" rx="4" ry="4" style="stroke:#181818;stroke-width:1.5;"/><polygon fill="#181818" points="211,179.7305,221,183.7305,211,187.7305,215,183.7305" style="stroke:#181818;stroke-width:1.0;"/><line style="stroke:#181818;stroke-width:1.0;" x1="190" x2="217" y1="183.7305" y2="183.7305"/><text fill="#000000" font-family="sans-serif" font-size="13" lengthAdjust="spacing" textLength="19" x="193" y="178.9883">Pre</text><polygon fill="#181818" points="234,179.7305,224,183.7305,234,187.7305,230,183.7305" style="stroke:#181818;stroke-width:1.0;"/><ellipse cx="267.5" cy="182.9805" fill="none" rx="4" ry="4" style="stroke:#181818;stroke-width:1.5;"/><line style="stroke:#181818;stroke-width:1.0;" x1="228" x2="263" y1="183.7305" y2="183.7305"/><text fill="#000000" font-family="sans-serif" font-size="13" lengthAdjust="spacing" textLength="27" x="240" y="178.9883">yolo</text><path d="M95,195.7305 L162,195.7305 L162,203.041 L152,213.041 L95,213.041 L95,195.7305 " fill="none" style="stroke:#000000;stroke-width:1.5;"/><rect fill="none" height="56.6211" style="stroke:#000000;stroke-width:1.5;" width="126" x="95" y="195.7305"/><text fill="#000000" font-family="sans-serif" font-size="13" font-weight="bold" lengthAdjust="spacing" textLength="22" x="110" y="209.2988">opt</text><text fill="#000000" font-family="sans-serif" font-size="11" font-weight="bold" lengthAdjust="spacing" textLength="25" x="177" y="208.3652">[OK]</text><ellipse cx="116.5" cy="243.6016" fill="none" rx="4" ry="4" style="stroke:#181818;stroke-width:1.5;"/><polygon fill="#181818" points="142,240.3516,152,244.3516,142,248.3516,146,244.3516" style="stroke:#181818;stroke-width:1.0;"/><line style="stroke:#181818;stroke-width:1.0;" x1="121" x2="148" y1="244.3516" y2="244.3516"/><text fill="#000000" font-family="sans-serif" font-size="13" lengthAdjust="spacing" textLength="19" x="124" y="239.6094">Pre</text><polygon fill="#181818" points="165,240.3516,155,244.3516,165,248.3516,161,244.3516" style="stroke:#181818;stroke-width:1.0;"/><ellipse cx="198.5" cy="243.6016" fill="none" rx="4" ry="4" style="stroke:#181818;stroke-width:1.5;"/><line style="stroke:#181818;stroke-width:1.0;" x1="159" x2="194" y1="244.3516" y2="244.3516"/><text fill="#000000" font-family="sans-serif" font-size="13" lengthAdjust="spacing" textLength="27" x="171" y="239.6094">yolo</text><ellipse cx="116.5" cy="286.9121" fill="none" rx="4" ry="4" style="stroke:#181818;stroke-width:1.5;"/><polygon fill="#181818" points="142,283.6621,152,287.6621,142,291.6621,146,287.6621" style="stroke:#181818;stroke-width:1.0;"/><line style="stroke:#181818;stroke-width:1.0;" x1="121" x2="148" y1="287.6621" y2="287.6621"/><text fill="#000000" font-family="sans-serif" font-size="13" lengthAdjust="spacing" textLength="19" x="124" y="282.9199">Pre</text><polygon fill="#181818" points="165,283.6621,155,287.6621,165,291.6621,161,287.6621" style="stroke:#181818;stroke-width:1.0;"/><ellipse cx="198.5" cy="286.9121" fill="none" rx="4" ry="4" style="stroke:#181818;stroke-width:1.5;"/><line style="stroke:#181818;stroke-width:1.0;" x1="159" x2="194" y1="287.6621" y2="287.6621"/><text fill="#000000" font-family="sans-serif" font-size="13" lengthAdjust="spacing" textLength="27" x="171" y="282.9199">yolo</text><path d="M8,299.6621 L75,299.6621 L75,306.9727 L65,316.9727 L8,316.9727 L8,299.6621 " fill="none" style="stroke:#000000;stroke-width:1.5;"/><rect fill="none" height="56.6211" style="stroke:#000000;stroke-width:1.5;" width="162" x="8" y="299.6621"/><text fill="#000000" font-family="sans-serif" font-size="13" font-weight="bold" lengthAdjust="spacing" textLength="22" x="23" y="313.2305">opt</text><text fill="#000000" font-family="sans-serif" font-size="11" font-weight="bold" lengthAdjust="spacing" textLength="25" x="90" y="312.2969">[OK]</text><ellipse cx="29.5" cy="347.5332" fill="none" rx="4" ry="4" style="stroke:#181818;stroke-width:1.5;"/><polygon fill="#181818" points="142,344.2832,152,348.2832,142,352.2832,146,348.2832" style="stroke:#181818;stroke-width:1.0;"/><line style="stroke:#181818;stroke-width:1.0;" x1="34" x2="148" y1="348.2832" y2="348.2832"/><text fill="#000000" font-family="sans-serif" font-size="13" lengthAdjust="spacing" textLength="106" x="37" y="343.541">longer text short</text><ellipse cx="29.5" cy="390.8438" fill="none" rx="4" ry="4" style="stroke:#181818;stroke-width:1.5;"/><polygon fill="#181818" points="142,387.5938,152,391.5938,142,395.5938,146,391.5938" style="stroke:#181818;stroke-width:1.0;"/><line style="stroke:#181818;stroke-width:1.0;" x1="34" x2="148" y1="391.5938" y2="391.5938"/><text fill="#000000" font-family="sans-serif" font-size="13" lengthAdjust="spacing" textLength="106" x="37" y="386.8516">longer text short</text><rect fill="#EEEEEE" height="3" style="stroke:#EEEEEE;stroke-width:1.0;" width="484" x="5" y="420.249"/><line style="stroke:#000000;stroke-width:1.0;" x1="5" x2="489" y1="420.249" y2="420.249"/><line style="stroke:#000000;stroke-width:1.0;" x1="5" x2="489" y1="423.249" y2="423.249"/><rect fill="#EEEEEE" height="23.3105" style="stroke:#000000;stroke-width:2.0;" width="128" x="183" y="409.5938"/><text fill="#000000" font-family="sans-serif" font-size="13" font-weight="bold" lengthAdjust="spacing" textLength="110" x="189" y="426.1621">left edge arrows</text><path d="M164,446.9043 L231,446.9043 L231,454.2148 L221,464.2148 L164,464.2148 L164,446.9043 " fill="none" style="stroke:#000000;stroke-width:1.5;"/><rect fill="none" height="56.6211" style="stroke:#000000;stroke-width:1.5;" width="126" x="164" y="446.9043"/><text fill="#000000" font-family="sans-serif" font-size="13" font-weight="bold" lengthAdjust="spacing" textLength="22" x="179" y="460.4727">opt</text><text fill="#000000" font-family="sans-serif" font-size="11" font-weight="bold" lengthAdjust="spacing" textLength="25" x="246" y="459.5391">[OK]</text><ellipse cx="10.5" cy="494.7754" fill="none" rx="4" ry="4" style="stroke:#181818;stroke-width:1.5;"/><polygon fill="#181818" points="211,491.5254,221,495.5254,211,499.5254,215,495.5254" style="stroke:#181818;stroke-width:1.0;"/><line style="stroke:#181818;stroke-width:1.0;" x1="15" x2="217" y1="495.5254" y2="495.5254"/><text fill="#000000" font-family="sans-serif" font-size="13" lengthAdjust="spacing" textLength="19" x="193" y="490.7832">Pre</text><polygon fill="#181818" points="234,491.5254,224,495.5254,234,499.5254,230,495.5254" style="stroke:#181818;stroke-width:1.0;"/><ellipse cx="267.5" cy="494.7754" fill="none" rx="4" ry="4" style="stroke:#181818;stroke-width:1.5;"/><line style="stroke:#181818;stroke-width:1.0;" x1="228" x2="263" y1="495.5254" y2="495.5254"/><text fill="#000000" font-family="sans-serif" font-size="13" lengthAdjust="spacing" textLength="27" x="240" y="490.7832">yolo</text><ellipse cx="10.5" cy="538.0859" fill="none" rx="4" ry="4" style="stroke:#181818;stroke-width:1.5;"/><polygon fill="#181818" points="211,534.8359,221,538.8359,211,542.8359,215,538.8359" style="stroke:#181818;stroke-width:1.0;"/><line style="stroke:#181818;stroke-width:1.0;" x1="15" x2="217" y1="538.8359" y2="538.8359"/><text fill="#000000" font-family="sans-serif" font-size="13" lengthAdjust="spacing" textLength="19" x="193" y="534.0938">Pre</text><polygon fill="#181818" points="234,534.8359,224,538.8359,234,542.8359,230,538.8359" style="stroke:#181818;stroke-width:1.0;"/><ellipse cx="267.5" cy="538.0859" fill="none" rx="4" ry="4" style="stroke:#181818;stroke-width:1.5;"/><line style="stroke:#181818;stroke-width:1.0;" x1="228" x2="263" y1="538.8359" y2="538.8359"/><text fill="#000000" font-family="sans-serif" font-size="13" lengthAdjust="spacing" textLength="27" x="240" y="534.0938">yolo</text><rect fill="#EEEEEE" height="3" style="stroke:#EEEEEE;stroke-width:1.0;" width="484" x="5" y="567.4912"/><line style="stroke:#000000;stroke-width:1.0;" x1="5" x2="489" y1="567.4912" y2="567.4912"/><line style="stroke:#000000;stroke-width:1.0;" x1="5" x2="489" y1="570.4912" y2="570.4912"/><rect fill="#EEEEEE" height="23.3105" style="stroke:#000000;stroke-width:2.0;" width="139" x="177.5" y="556.8359"/><text fill="#000000" font-family="sans-serif" font-size="13" font-weight="bold" lengthAdjust="spacing" textLength="121" x="183.5" y="573.4043">right edge arrows</text><path d="M138,594.1465 L205,594.1465 L205,601.457 L195,611.457 L138,611.457 L138,594.1465 " fill="none" style="stroke:#000000;stroke-width:1.5;"/><rect fill="none" height="56.6211" style="stroke:#000000;stroke-width:1.5;" width="152" x="138" y="594.1465"/><text fill="#000000" font-family="sans-serif" font-size="13" font-weight="bold" lengthAdjust="spacing" textLength="22" x="153" y="607.7148">opt</text><text fill="#000000" font-family="sans-serif" font-size="11" font-weight="bold" lengthAdjust="spacing" textLength="25" x="220" y="606.7813">[OK]</text><ellipse cx="153.5" cy="642.0176" fill="none" rx="4" ry="4" style="stroke:#181818;stroke-width:1.5;"/><polygon fill="#181818" points="211,638.7676,221,642.7676,211,646.7676,215,642.7676" style="stroke:#181818;stroke-width:1.0;"/><line style="stroke:#181818;stroke-width:1.0;" x1="158" x2="217" y1="642.7676" y2="642.7676"/><polygon fill="#181818" points="234,638.7676,224,642.7676,234,646.7676,230,642.7676" style="stroke:#181818;stroke-width:1.0;"/><ellipse cx="482.5" cy="642.0176" fill="none" rx="4" ry="4" style="stroke:#181818;stroke-width:1.5;"/><line style="stroke:#181818;stroke-width:1.0;" x1="228" x2="478" y1="642.7676" y2="642.7676"/><text fill="#000000" font-family="sans-serif" font-size="13" lengthAdjust="spacing" textLength="27" x="240" y="638.0254">yolo</text><ellipse cx="153.5" cy="685.3281" fill="none" rx="4" ry="4" style="stroke:#181818;stroke-width:1.5;"/><polygon fill="#181818" points="211,682.0781,221,686.0781,211,690.0781,215,686.0781" style="stroke:#181818;stroke-width:1.0;"/><line style="stroke:#181818;stroke-width:1.0;" x1="158" x2="217" y1="686.0781" y2="686.0781"/><polygon fill="#181818" points="234,682.0781,224,686.0781,234,690.0781,230,686.0781" style="stroke:#181818;stroke-width:1.0;"/><ellipse cx="482.5" cy="685.3281" fill="none" rx="4" ry="4" style="stroke:#181818;stroke-width:1.5;"/><line style="stroke:#181818;stroke-width:1.0;" x1="228" x2="478" y1="686.0781" y2="686.0781"/><text fill="#000000" font-family="sans-serif" font-size="13" lengthAdjust="spacing" textLength="27" x="240" y="681.3359">yolo</text><rect fill="#EEEEEE" height="3" style="stroke:#EEEEEE;stroke-width:1.0;" width="484" x="5" y="714.7334"/><line style="stroke:#000000;stroke-width:1.0;" x1="5" x2="489" y1="714.7334" y2="714.7334"/><line style="stroke:#000000;stroke-width:1.0;" x1="5" x2="489" y1="717.7334" y2="717.7334"/><rect fill="#EEEEEE" height="23.3105" style="stroke:#000000;stroke-width:2.0;" width="263" x="115.5" y="704.0781"/><text fill="#000000" font-family="sans-serif" font-size="13" font-weight="bold" lengthAdjust="spacing" textLength="245" x="121.5" y="720.6465">extra long text on right edge arrows</text><path d="M138,741.3887 L205,741.3887 L205,748.6992 L195,758.6992 L138,758.6992 L138,741.3887 " fill="none" style="stroke:#000000;stroke-width:1.5;"/><rect fill="none" height="71.9316" style="stroke:#000000;stroke-width:1.5;" width="342" x="138" y="741.3887"/><text fill="#000000" font-family="sans-serif" font-size="13" font-weight="bold" lengthAdjust="spacing" textLength="22" x="153" y="754.957">opt</text><text fill="#000000" font-family="sans-serif" font-size="11" font-weight="bold" lengthAdjust="spacing" textLength="25" x="220" y="754.0234">[OK]</text><ellipse cx="153.5" cy="804.5703" fill="none" rx="4" ry="4" style="stroke:#181818;stroke-width:1.5;"/><polygon fill="#181818" points="211,801.3203,221,805.3203,211,809.3203,215,805.3203" style="stroke:#181818;stroke-width:1.0;"/><line style="stroke:#181818;stroke-width:1.0;" x1="158" x2="217" y1="805.3203" y2="805.3203"/><polygon fill="#181818" points="234,801.3203,224,805.3203,234,809.3203,230,805.3203" style="stroke:#181818;stroke-width:1.0;"/><ellipse cx="482.5" cy="804.5703" fill="none" rx="4" ry="4" style="stroke:#181818;stroke-width:1.5;"/><line style="stroke:#181818;stroke-width:1.0;" x1="228" x2="478" y1="805.3203" y2="805.3203"/><text fill="#000000" font-family="sans-serif" font-size="13" lengthAdjust="spacing" textLength="217" x="240" y="785.2676">This text extends the arrow length</text><text fill="#000000" font-family="sans-serif" font-size="13" lengthAdjust="spacing" textLength="103" x="240" y="800.5781">right edge arrow</text><ellipse cx="153.5" cy="863.1914" fill="none" rx="4" ry="4" style="stroke:#181818;stroke-width:1.5;"/><polygon fill="#181818" points="211,859.9414,221,863.9414,211,867.9414,215,863.9414" style="stroke:#181818;stroke-width:1.0;"/><line style="stroke:#181818;stroke-width:1.0;" x1="158" x2="217" y1="863.9414" y2="863.9414"/><polygon fill="#181818" points="234,859.9414,224,863.9414,234,867.9414,230,863.9414" style="stroke:#181818;stroke-width:1.0;"/><ellipse cx="482.5" cy="863.1914" fill="none" rx="4" ry="4" style="stroke:#181818;stroke-width:1.5;"/><line style="stroke:#181818;stroke-width:1.0;" x1="228" x2="478" y1="863.9414" y2="863.9414"/><text fill="#000000" font-family="sans-serif" font-size="13" lengthAdjust="spacing" textLength="217" x="240" y="843.8887">This text extends the arrow length</text><text fill="#000000" font-family="sans-serif" font-size="13" lengthAdjust="spacing" textLength="103" x="240" y="859.1992">right edge arrow</text><rect fill="#EEEEEE" height="3" style="stroke:#EEEEEE;stroke-width:1.0;" width="484" x="5" y="892.5967"/><line style="stroke:#000000;stroke-width:1.0;" x1="5" x2="489" y1="892.5967" y2="892.5967"/><line style="stroke:#000000;stroke-width:1.0;" x1="5" x2="489" y1="895.5967" y2="895.5967"/><rect fill="#EEEEEE" height="23.3105" style="stroke:#000000;stroke-width:2.0;" width="264" x="115" y="881.9414"/><text fill="#000000" font-family="sans-serif" font-size="13" font-weight="bold" lengthAdjust="spacing" textLength="246" x="121" y="898.5098">extra long text on right short arrows</text><path d="M164,919.252 L231,919.252 L231,926.5625 L221,936.5625 L164,936.5625 L164,919.252 " fill="none" style="stroke:#000000;stroke-width:1.5;"/><rect fill="none" height="71.9316" style="stroke:#000000;stroke-width:1.5;" width="316" x="164" y="919.252"/><text fill="#000000" font-family="sans-serif" font-size="13" font-weight="bold" lengthAdjust="spacing" textLength="22" x="179" y="932.8203">opt</text><text fill="#000000" font-family="sans-serif" font-size="11" font-weight="bold" lengthAdjust="spacing" textLength="25" x="246" y="931.8867">[OK]</text><ellipse cx="185.5" cy="982.4336" fill="none" rx="4" ry="4" style="stroke:#181818;stroke-width:1.5;"/><polygon fill="#181818" points="211,979.1836,221,983.1836,211,987.1836,215,983.1836" style="stroke:#181818;stroke-width:1.0;"/><line style="stroke:#181818;stroke-width:1.0;" x1="190" x2="217" y1="983.1836" y2="983.1836"/><text fill="#000000" font-family="sans-serif" font-size="13" lengthAdjust="spacing" textLength="19" x="193" y="978.4414">Pre</text><polygon fill="#181818" points="234,979.1836,224,983.1836,234,987.1836,230,983.1836" style="stroke:#181818;stroke-width:1.0;"/><ellipse cx="457.5" cy="982.4336" fill="none" rx="4" ry="4" style="stroke:#181818;stroke-width:1.5;"/><line style="stroke:#181818;stroke-width:1.0;" x1="228" x2="453" y1="983.1836" y2="983.1836"/><text fill="#000000" font-family="sans-serif" font-size="13" lengthAdjust="spacing" textLength="217" x="240" y="963.1309">This text extends the arrow length</text><text fill="#000000" font-family="sans-serif" font-size="13" lengthAdjust="spacing" textLength="72" x="240" y="978.4414">short arrow</text><ellipse cx="185.5" cy="1041.0547" fill="none" rx="4" ry="4" style="stroke:#181818;stroke-width:1.5;"/><polygon fill="#181818" points="211,1037.8047,221,1041.8047,211,1045.8047,215,1041.8047" style="stroke:#181818;stroke-width:1.0;"/><line style="stroke:#181818;stroke-width:1.0;" x1="190" x2="217" y1="1041.8047" y2="1041.8047"/><text fill="#000000" font-family="sans-serif" font-size="13" lengthAdjust="spacing" textLength="19" x="193" y="1037.0625">Pre</text><polygon fill="#181818" points="234,1037.8047,224,1041.8047,234,1045.8047,230,1041.8047" style="stroke:#181818;stroke-width:1.0;"/><ellipse cx="457.5" cy="1041.0547" fill="none" rx="4" ry="4" style="stroke:#181818;stroke-width:1.5;"/><line style="stroke:#181818;stroke-width:1.0;" x1="228" x2="453" y1="1041.8047" y2="1041.8047"/><text fill="#000000" font-family="sans-serif" font-size="13" lengthAdjust="spacing" textLength="217" x="240" y="1021.752">This text extends the arrow length</text><text fill="#000000" font-family="sans-serif" font-size="13" lengthAdjust="spacing" textLength="72" x="240" y="1037.0625">short arrow</text><!--SRC=[hPC_JyGm3CNtV0eZ96uw7J0XH3crZ0nqO0E6YEQIY5uSEKPtyEcnMWvQeANy6Ih5yUll-LdjNYHjrnhOu3CmFHgL7do8clGQIatixttKWKjTLJvOE3hfz0lSxkwF3vMAxtB8UrNHgowKoZBW3K9oI0oQ23S9ianXv7qc7PB8ZIYlBc4nyw4PRhPGIvoVGm6dK99H1t8wc-DIoYUiKPbGZGkcmFEtT_EluKE2gV0QWpKarrjkq_VHdzkogTgi64nbpUYcrCrtsnaLY0zvwwOOWOpQe7QGkwxBS5Si91Vf9cMR4SFVNA-TJor97d6NmhroP6t1ihiD7ms6f_mLRIpLFttVK-RgM8t-2ZzalG00]--></g></svg>