<svg xmlns="http://www.w3.org/2000/svg" xmlns:xlink="http://www.w3.org/1999/xlink" contentStyleType="text/css" height="412px" preserveAspectRatio="none" style="width:154px;height:412px;background:#FFFFFF;" version="1.1" viewBox="0 0 154 412" width="154px" zoomAndPan="magnify"><defs/><g><line style="stroke:#181818;stroke-width:0.5;stroke-dasharray:5.0,5.0;" x1="24.7319" x2="24.7319" y1="36.4883" y2="376.2832"/><rect fill="#FFFFFF" height="21.3105" style="stroke:#181818;stroke-width:1.0;" width="10" x="19.7319" y="79.7988"/><rect fill="#FFFFFF" height="21.3105" style="stroke:#181818;stroke-width:1.0;" width="10" x="19.7319" y="151.4199"/><rect fill="#FFFFFF" height="21.3105" style="stroke:#181818;stroke-width:1.0;" width="10" x="19.7319" y="223.041"/><rect fill="#FFFFFF" height="21.3105" style="stroke:#181818;stroke-width:1.0;" width="10" x="19.7319" y="294.6621"/><line style="stroke:#181818;stroke-width:0.5;stroke-dasharray:5.0,5.0;" x1="94.3442" x2="94.3442" y1="36.4883" y2="376.2832"/><rect fill="#FFFFFF" height="29.3105" style="stroke:#181818;stroke-width:1.0;" width="10" x="89.3442" y="101.1094"/><rect fill="#FFFFFF" height="29.3105" style="stroke:#181818;stroke-width:1.0;" width="10" x="89.3442" y="172.7305"/><rect fill="#FFFFFF" height="29.3105" style="stroke:#181818;stroke-width:1.0;" width="10" x="89.3442" y="244.3516"/><rect fill="#FFFFFF" height="29.3105" style="stroke:#181818;stroke-width:1.0;" width="10" x="89.3442" y="315.9727"/><rect fill="#E2E2F0" height="30.4883" rx="2.5" ry="2.5" style="stroke:#181818;stroke-width:0.5;" width="39.4639" x="5" y="5"/><text fill="#000000" font-family="sans-serif" font-size="14" lengthAdjust="spacing" textLength="25.4639" x="12" y="25.5352">Bob</text><rect fill="#E2E2F0" height="30.4883" rx="2.5" ry="2.5" style="stroke:#181818;stroke-width:0.5;" width="46.7236" x="70.9824" y="5"/><text fill="#000000" font-family="sans-serif" font-size="14" lengthAdjust="spacing" textLength="32.7236" x="77.9824" y="25.5352">Alice</text><rect fill="#E2E2F0" height="30.4883" rx="2.5" ry="2.5" style="stroke:#181818;stroke-width:0.5;" width="39.4639" x="5" y="376.2832"/><text fill="#000000" font-family="sans-serif" font-size="14" lengthAdjust="spacing" textLength="25.4639" x="12" y="396.8184">Bob</text><rect fill="#E2E2F0" height="30.4883" rx="2.5" ry="2.5" style="stroke:#181818;stroke-width:0.5;" width="46.7236" x="70.9824" y="376.2832"/><text fill="#000000" font-family="sans-serif" font-size="14" lengthAdjust="spacing" textLength="32.7236" x="77.9824" y="396.8184">Alice</text><path d="M8.1851,49.4883 L8.1851,74.4883 L110.1851,74.4883 L110.1851,59.4883 L100.1851,49.4883 L8.1851,49.4883 " fill="#FEFFDD" style="stroke:#181818;stroke-width:0.5;"/><path d="M100.1851,49.4883 L100.1851,59.4883 L110.1851,59.4883 L100.1851,49.4883 " fill="#FEFFDD" style="stroke:#181818;stroke-width:0.5;"/><text fill="#000000" font-family="sans-serif" font-size="13" lengthAdjust="spacing" textLength="57.1479" x="26.4641" y="67.0566">teoz true</text><polygon fill="#181818" points="77.3442,97.1094,87.3442,101.1094,77.3442,105.1094,81.3442,101.1094" style="stroke:#181818;stroke-width:1.0;"/><line style="stroke:#181818;stroke-width:1.0;" x1="29.7319" x2="83.3442" y1="101.1094" y2="101.1094"/><text fill="#000000" font-family="sans-serif" font-size="13" lengthAdjust="spacing" textLength="40.6123" x="36.7319" y="96.3672">not ok</text><line style="stroke:#181818;stroke-width:1.0;" x1="99.3442" x2="141.3442" y1="130.4199" y2="130.4199"/><line style="stroke:#181818;stroke-width:1.0;" x1="141.3442" x2="141.3442" y1="130.4199" y2="143.4199"/><line style="stroke:#181818;stroke-width:1.0;" x1="94.3442" x2="141.3442" y1="143.4199" y2="143.4199"/><polygon fill="#181818" points="104.3442,139.4199,94.3442,143.4199,104.3442,147.4199,100.3442,143.4199" style="stroke:#181818;stroke-width:1.0;"/><text fill="#000000" font-family="sans-serif" font-size="13" lengthAdjust="spacing" textLength="41.6152" x="106.3442" y="125.6777">style 1</text><polygon fill="#181818" points="77.3442,168.7305,87.3442,172.7305,77.3442,176.7305,81.3442,172.7305" style="stroke:#181818;stroke-width:1.0;"/><line style="stroke:#181818;stroke-width:1.0;" x1="29.7319" x2="83.3442" y1="172.7305" y2="172.7305"/><text fill="#000000" font-family="sans-serif" font-size="13" lengthAdjust="spacing" textLength="40.6123" x="36.7319" y="167.9883">not ok</text><line style="stroke:#181818;stroke-width:1.0;" x1="99.3442" x2="141.3442" y1="202.041" y2="202.041"/><line style="stroke:#181818;stroke-width:1.0;" x1="141.3442" x2="141.3442" y1="202.041" y2="215.041"/><line style="stroke:#181818;stroke-width:1.0;" x1="94.3442" x2="141.3442" y1="215.041" y2="215.041"/><polygon fill="#181818" points="104.3442,211.041,94.3442,215.041,104.3442,219.041,100.3442,215.041" style="stroke:#181818;stroke-width:1.0;"/><text fill="#000000" font-family="sans-serif" font-size="13" lengthAdjust="spacing" textLength="41.6152" x="106.3442" y="197.2988">style 1</text><polygon fill="#181818" points="77.3442,240.3516,87.3442,244.3516,77.3442,248.3516,81.3442,244.3516" style="stroke:#181818;stroke-width:1.0;"/><line style="stroke:#181818;stroke-width:1.0;" x1="29.7319" x2="83.3442" y1="244.3516" y2="244.3516"/><text fill="#000000" font-family="sans-serif" font-size="13" lengthAdjust="spacing" textLength="40.6123" x="36.7319" y="239.6094">not ok</text><line style="stroke:#181818;stroke-width:1.0;" x1="99.3442" x2="141.3442" y1="273.6621" y2="273.6621"/><line style="stroke:#181818;stroke-width:1.0;" x1="141.3442" x2="141.3442" y1="273.6621" y2="286.6621"/><line style="stroke:#181818;stroke-width:1.0;" x1="94.3442" x2="141.3442" y1="286.6621" y2="286.6621"/><polygon fill="#181818" points="104.3442,282.6621,94.3442,286.6621,104.3442,290.6621,100.3442,286.6621" style="stroke:#181818;stroke-width:1.0;"/><text fill="#000000" font-family="sans-serif" font-size="13" lengthAdjust="spacing" textLength="41.6152" x="106.3442" y="268.9199">style 1</text><polygon fill="#181818" points="77.3442,311.9727,87.3442,315.9727,77.3442,319.9727,81.3442,315.9727" style="stroke:#181818;stroke-width:1.0;"/><line style="stroke:#181818;stroke-width:1.0;" x1="29.7319" x2="83.3442" y1="315.9727" y2="315.9727"/><text fill="#000000" font-family="sans-serif" font-size="13" lengthAdjust="spacing" textLength="40.6123" x="36.7319" y="311.2305">not ok</text><line style="stroke:#181818;stroke-width:1.0;" x1="99.3442" x2="141.3442" y1="345.2832" y2="345.2832"/><line style="stroke:#181818;stroke-width:1.0;" x1="141.3442" x2="141.3442" y1="345.2832" y2="358.2832"/><line style="stroke:#181818;stroke-width:1.0;" x1="94.3442" x2="141.3442" y1="358.2832" y2="358.2832"/><polygon fill="#181818" points="104.3442,354.2832,94.3442,358.2832,104.3442,362.2832,100.3442,358.2832" style="stroke:#181818;stroke-width:1.0;"/><text fill="#000000" font-family="sans-serif" font-size="13" lengthAdjust="spacing" textLength="41.6152" x="106.3442" y="340.541">style 2</text><!--SRC=[KomeIapFJLGeISslKYWfAatboiilILN8BqijKd3AJz9HSCp9J4wrGf9FJ2x9B4i4gW5ASm6nWguTH962jhQkhfK2KBz2VZONM0WcPQLGN5APawfWo9MI2jSFbk72QnxSD2Hj86KGUOfCnsKqcW5Ki4a1ALI8Cjq8mtG0]--></g></svg>