<svg xmlns="http://www.w3.org/2000/svg" xmlns:xlink="http://www.w3.org/1999/xlink" contentStyleType="text/css" height="447px" preserveAspectRatio="none" style="width:356px;height:447px;background:#FFFFFF;" version="1.1" viewBox="0 0 356 447" width="356px" zoomAndPan="magnify"><defs/><g><rect fill="#FFFFFF" height="14" style="stroke:#181818;stroke-width:1.0;" width="10" x="65" y="76.7988"/><rect fill="#FFFFFF" height="14" style="stroke:#181818;stroke-width:1.0;" width="10" x="65" y="195.4199"/><rect fill="#FFFFFF" height="14" style="stroke:#181818;stroke-width:1.0;" width="10" x="65" y="314.041"/><rect fill="#FFFFFF" height="14" style="stroke:#181818;stroke-width:1.0;" width="10" x="174" y="136.1094"/><rect fill="#FFFFFF" height="14" style="stroke:#181818;stroke-width:1.0;" width="10" x="174" y="195.4199"/><rect fill="#FFFFFF" height="14" style="stroke:#181818;stroke-width:1.0;" width="10" x="174" y="314.041"/><rect fill="#FFFFAA" height="45.3105" style="stroke:#000000;stroke-width:1.5;" width="228" x="10" y="53.4883"/><rect fill="#FFFFAA" height="45.3105" style="stroke:#000000;stroke-width:1.5;" width="228" x="10" y="112.7988"/><rect fill="#FFFFAA" height="45.3105" style="stroke:#000000;stroke-width:1.5;" width="228" x="10" y="172.1094"/><rect fill="#FFFFAA" height="45.3105" style="stroke:#000000;stroke-width:1.5;" width="228" x="10" y="231.4199"/><rect fill="#FFFFAA" height="45.3105" style="stroke:#000000;stroke-width:1.5;" width="313" x="10" y="290.7305"/><rect fill="#FFFFAA" height="45.3105" style="stroke:#000000;stroke-width:1.5;" width="340" x="10" y="350.041"/><line style="stroke:#181818;stroke-width:0.5;stroke-dasharray:5.0,5.0;" x1="70" x2="70" y1="36.4883" y2="412.3516"/><line style="stroke:#181818;stroke-width:0.5;stroke-dasharray:5.0,5.0;" x1="179" x2="179" y1="36.4883" y2="412.3516"/><rect fill="#E2E2F0" height="30.4883" rx="2.5" ry="2.5" style="stroke:#181818;stroke-width:0.5;" width="100" x="20" y="5"/><text fill="#000000" font-family="sans-serif" font-size="14" lengthAdjust="spacing" textLength="86" x="27" y="25.5352">Particpant_A</text><rect fill="#E2E2F0" height="30.4883" rx="2.5" ry="2.5" style="stroke:#181818;stroke-width:0.5;" width="100" x="20" y="411.3516"/><text fill="#000000" font-family="sans-serif" font-size="14" lengthAdjust="spacing" textLength="86" x="27" y="431.8867">Particpant_A</text><rect fill="#E2E2F0" height="30.4883" rx="2.5" ry="2.5" style="stroke:#181818;stroke-width:0.5;" width="98" x="130" y="5"/><text fill="#000000" font-family="sans-serif" font-size="14" lengthAdjust="spacing" textLength="84" x="137" y="25.5352">Particpant_B</text><rect fill="#E2E2F0" height="30.4883" rx="2.5" ry="2.5" style="stroke:#181818;stroke-width:0.5;" width="98" x="130" y="411.3516"/><text fill="#000000" font-family="sans-serif" font-size="14" lengthAdjust="spacing" textLength="84" x="137" y="431.8867">Particpant_B</text><rect fill="#FFFFFF" height="14" style="stroke:#181818;stroke-width:1.0;" width="10" x="65" y="76.7988"/><rect fill="#FFFFFF" height="14" style="stroke:#181818;stroke-width:1.0;" width="10" x="65" y="195.4199"/><rect fill="#FFFFFF" height="14" style="stroke:#181818;stroke-width:1.0;" width="10" x="65" y="314.041"/><rect fill="#FFFFFF" height="14" style="stroke:#181818;stroke-width:1.0;" width="10" x="174" y="136.1094"/><rect fill="#FFFFFF" height="14" style="stroke:#181818;stroke-width:1.0;" width="10" x="174" y="195.4199"/><rect fill="#FFFFFF" height="14" style="stroke:#181818;stroke-width:1.0;" width="10" x="174" y="314.041"/><path d="M10,53.4883 L110,53.4883 L110,60.7988 L100,70.7988 L10,70.7988 L10,53.4883 " fill="#EEEEEE" style="stroke:#000000;stroke-width:1.5;"/><rect fill="none" height="45.3105" style="stroke:#000000;stroke-width:1.5;" width="228" x="10" y="53.4883"/><text fill="#000000" font-family="sans-serif" font-size="13" font-weight="bold" lengthAdjust="spacing" textLength="55" x="25" y="67.0566">Group 1</text><polygon fill="#181818" points="167,72.7988,177,76.7988,167,80.7988,171,76.7988" style="stroke:#181818;stroke-width:1.0;"/><line style="stroke:#181818;stroke-width:1.0;" x1="75" x2="173" y1="76.7988" y2="76.7988"/><polygon fill="#181818" points="81,86.7988,71,90.7988,81,94.7988,77,90.7988" style="stroke:#181818;stroke-width:1.0;"/><line style="stroke:#181818;stroke-width:1.0;" x1="75" x2="178" y1="90.7988" y2="90.7988"/><path d="M10,112.7988 L110,112.7988 L110,120.1094 L100,130.1094 L10,130.1094 L10,112.7988 " fill="#EEEEEE" style="stroke:#000000;stroke-width:1.5;"/><rect fill="none" height="45.3105" style="stroke:#000000;stroke-width:1.5;" width="228" x="10" y="112.7988"/><text fill="#000000" font-family="sans-serif" font-size="13" font-weight="bold" lengthAdjust="spacing" textLength="55" x="25" y="126.3672">Group 2</text><polygon fill="#181818" points="162,132.1094,172,136.1094,162,140.1094,166,136.1094" style="stroke:#181818;stroke-width:1.0;"/><line style="stroke:#181818;stroke-width:1.0;" x1="70" x2="168" y1="136.1094" y2="136.1094"/><polygon fill="#181818" points="81,146.1094,71,150.1094,81,154.1094,77,150.1094" style="stroke:#181818;stroke-width:1.0;"/><line style="stroke:#181818;stroke-width:1.0;" x1="75" x2="178" y1="150.1094" y2="150.1094"/><path d="M10,172.1094 L110,172.1094 L110,179.4199 L100,189.4199 L10,189.4199 L10,172.1094 " fill="#EEEEEE" style="stroke:#000000;stroke-width:1.5;"/><rect fill="none" height="45.3105" style="stroke:#000000;stroke-width:1.5;" width="228" x="10" y="172.1094"/><text fill="#000000" font-family="sans-serif" font-size="13" font-weight="bold" lengthAdjust="spacing" textLength="55" x="25" y="185.6777">Group 3</text><polygon fill="#181818" points="162,191.4199,172,195.4199,162,199.4199,166,195.4199" style="stroke:#181818;stroke-width:1.0;"/><line style="stroke:#181818;stroke-width:1.0;" x1="75" x2="168" y1="195.4199" y2="195.4199"/><polygon fill="#181818" points="81,205.4199,71,209.4199,81,213.4199,77,209.4199" style="stroke:#181818;stroke-width:1.0;"/><line style="stroke:#181818;stroke-width:1.0;" x1="75" x2="178" y1="209.4199" y2="209.4199"/><path d="M10,231.4199 L110,231.4199 L110,238.7305 L100,248.7305 L10,248.7305 L10,231.4199 " fill="#EEEEEE" style="stroke:#000000;stroke-width:1.5;"/><rect fill="none" height="45.3105" style="stroke:#000000;stroke-width:1.5;" width="228" x="10" y="231.4199"/><text fill="#000000" font-family="sans-serif" font-size="13" font-weight="bold" lengthAdjust="spacing" textLength="55" x="25" y="244.9883">Group 4</text><polygon fill="#181818" points="167,250.7305,177,254.7305,167,258.7305,171,254.7305" style="stroke:#181818;stroke-width:1.0;"/><line style="stroke:#181818;stroke-width:1.0;" x1="70" x2="173" y1="254.7305" y2="254.7305"/><polygon fill="#181818" points="81,264.7305,71,268.7305,81,272.7305,77,268.7305" style="stroke:#181818;stroke-width:1.0;"/><line style="stroke:#181818;stroke-width:1.0;" x1="75" x2="178" y1="268.7305" y2="268.7305"/><path d="M10,290.7305 L318,290.7305 L318,298.041 L308,308.041 L10,308.041 L10,290.7305 " fill="#EEEEEE" style="stroke:#000000;stroke-width:1.5;"/><rect fill="none" height="45.3105" style="stroke:#000000;stroke-width:1.5;" width="313" x="10" y="290.7305"/><text fill="#000000" font-family="sans-serif" font-size="13" font-weight="bold" lengthAdjust="spacing" textLength="263" x="25" y="304.2988">Group 5, Which has a very long header</text><polygon fill="#181818" points="162,310.041,172,314.041,162,318.041,166,314.041" style="stroke:#181818;stroke-width:1.0;"/><line style="stroke:#181818;stroke-width:1.0;" x1="75" x2="168" y1="314.041" y2="314.041"/><polygon fill="#181818" points="81,324.041,71,328.041,81,332.041,77,328.041" style="stroke:#181818;stroke-width:1.0;"/><line style="stroke:#181818;stroke-width:1.0;" x1="75" x2="178" y1="328.041" y2="328.041"/><path d="M10,350.041 L345,350.041 L345,357.3516 L335,367.3516 L10,367.3516 L10,350.041 " fill="#EEEEEE" style="stroke:#000000;stroke-width:1.5;"/><rect fill="none" height="45.3105" style="stroke:#000000;stroke-width:1.5;" width="340" x="10" y="350.041"/><text fill="#000000" font-family="sans-serif" font-size="13" font-weight="bold" lengthAdjust="spacing" textLength="290" x="25" y="363.6094">Group 6, While also has a very long header</text><polygon fill="#181818" points="167,369.3516,177,373.3516,167,377.3516,171,373.3516" style="stroke:#181818;stroke-width:1.0;"/><line style="stroke:#181818;stroke-width:1.0;" x1="70" x2="173" y1="373.3516" y2="373.3516"/><polygon fill="#181818" points="81,383.3516,71,387.3516,81,391.3516,77,387.3516" style="stroke:#181818;stroke-width:1.0;"/><line style="stroke:#181818;stroke-width:1.0;" x1="75" x2="178" y1="387.3516" y2="387.3516"/><!--SRC=[KrSiA4fCpqrKA4dDhr8eAIfDvU9AByelBL1GJajBL707Cmsv580W8B6e93Ev836l9DvHGTSEcUy4Lf2ON99PbbYIYg8IKwkDBgRMb5JicbFpKh2unuYWUxIr2Tghgul3T6DYJIVFlq1xIVUn2N4nW3USiPjiggCGdf6PdA6GaLYiaAXGbbfKgP2JdvUka96Qc99QH5bOq2OmpC1EpabLICmfpYVNtKI55m00]--></g></svg>