<svg xmlns="http://www.w3.org/2000/svg" xmlns:xlink="http://www.w3.org/1999/xlink" contentStyleType="text/css" height="558px" preserveAspectRatio="none" style="width:182px;height:558px;background:#FFFFFF;" version="1.1" viewBox="0 0 182 558" width="182px" zoomAndPan="magnify"><defs/><g><rect fill="#DDDDDD" height="546.7031" style="stroke:#181818;stroke-width:0.5;" width="32" x="18" y="6"/><rect fill="#DDDDDD" height="546.7031" style="stroke:#181818;stroke-width:0.5;" width="30" x="66" y="6"/><rect fill="#DDDDDD" height="546.7031" style="stroke:#181818;stroke-width:0.5;" width="32" x="112" y="6"/><line style="stroke:#181818;stroke-width:0.5;stroke-dasharray:5.0,5.0;" x1="34" x2="34" y1="41.4883" y2="515.2148"/><line style="stroke:#181818;stroke-width:0.5;stroke-dasharray:5.0,5.0;" x1="81" x2="81" y1="41.4883" y2="515.2148"/><line style="stroke:#181818;stroke-width:0.5;stroke-dasharray:5.0,5.0;" x1="128" x2="128" y1="41.4883" y2="515.2148"/><rect fill="#E2E2F0" height="30.4883" rx="2.5" ry="2.5" style="stroke:#181818;stroke-width:0.5;" width="24" x="22" y="10"/><text fill="#000000" font-family="sans-serif" font-size="14" lengthAdjust="spacing" textLength="10" x="29" y="30.5352">A</text><rect fill="#E2E2F0" height="30.4883" rx="2.5" ry="2.5" style="stroke:#181818;stroke-width:0.5;" width="22" x="70" y="10"/><text fill="#000000" font-family="sans-serif" font-size="14" lengthAdjust="spacing" textLength="8" x="77" y="30.5352">B</text><rect fill="#E2E2F0" height="30.4883" rx="2.5" ry="2.5" style="stroke:#181818;stroke-width:0.5;" width="24" x="116" y="10"/><text fill="#000000" font-family="sans-serif" font-size="14" lengthAdjust="spacing" textLength="10" x="123" y="30.5352">C</text><rect fill="#E2E2F0" height="30.4883" rx="2.5" ry="2.5" style="stroke:#181818;stroke-width:0.5;" width="24" x="22" y="515.2148"/><text fill="#000000" font-family="sans-serif" font-size="14" lengthAdjust="spacing" textLength="10" x="29" y="535.75">A</text><rect fill="#E2E2F0" height="30.4883" rx="2.5" ry="2.5" style="stroke:#181818;stroke-width:0.5;" width="22" x="70" y="515.2148"/><text fill="#000000" font-family="sans-serif" font-size="14" lengthAdjust="spacing" textLength="8" x="77" y="535.75">B</text><rect fill="#E2E2F0" height="30.4883" rx="2.5" ry="2.5" style="stroke:#181818;stroke-width:0.5;" width="24" x="116" y="515.2148"/><text fill="#000000" font-family="sans-serif" font-size="14" lengthAdjust="spacing" textLength="10" x="123" y="535.75">C</text><polygon fill="#181818" points="69,51.4883,79,55.4883,69,59.4883,73,55.4883" style="stroke:#181818;stroke-width:1.0;"/><line style="stroke:#181818;stroke-width:1.0;" x1="34" x2="75" y1="55.4883" y2="55.4883"/><polygon fill="#181818" points="116,51.4883,126,55.4883,116,59.4883,120,55.4883" style="stroke:#181818;stroke-width:1.0;"/><line style="stroke:#181818;stroke-width:1.0;" x1="81" x2="122" y1="55.4883" y2="55.4883"/><rect fill="#EEEEEE" height="3" style="stroke:#EEEEEE;stroke-width:1.0;" width="170" x="5" y="84.1436"/><line style="stroke:#000000;stroke-width:1.0;" x1="5" x2="175" y1="84.1436" y2="84.1436"/><line style="stroke:#000000;stroke-width:1.0;" x1="5" x2="175" y1="87.1436" y2="87.1436"/><rect fill="#EEEEEE" height="23.3105" style="stroke:#000000;stroke-width:2.0;" width="103" x="38.5" y="73.4883"/><text fill="#000000" font-family="sans-serif" font-size="13" font-weight="bold" lengthAdjust="spacing" textLength="85" x="44.5" y="90.0566">short arrows</text><ellipse cx="29.5" cy="127.3594" fill="none" rx="4" ry="4" style="stroke:#181818;stroke-width:1.5;"/><polygon fill="#181818" points="69,124.1094,79,128.1094,69,132.1094,73,128.1094" style="stroke:#181818;stroke-width:1.0;"/><line style="stroke:#181818;stroke-width:1.0;" x1="34" x2="75" y1="128.1094" y2="128.1094"/><text fill="#000000" font-family="sans-serif" font-size="13" lengthAdjust="spacing" textLength="33" x="37" y="123.3672">short</text><polygon fill="#181818" points="92,124.1094,82,128.1094,92,132.1094,88,128.1094" style="stroke:#181818;stroke-width:1.0;"/><ellipse cx="131.5" cy="127.3594" fill="none" rx="4" ry="4" style="stroke:#181818;stroke-width:1.5;"/><line style="stroke:#181818;stroke-width:1.0;" x1="86" x2="127" y1="128.1094" y2="128.1094"/><text fill="#000000" font-family="sans-serif" font-size="13" lengthAdjust="spacing" textLength="33" x="98" y="123.3672">short</text><path d="M8,140.1094 L75,140.1094 L75,147.4199 L65,157.4199 L8,157.4199 L8,140.1094 " fill="none" style="stroke:#000000;stroke-width:1.5;"/><rect fill="none" height="56.6211" style="stroke:#000000;stroke-width:1.5;" width="146" x="8" y="140.1094"/><text fill="#000000" font-family="sans-serif" font-size="13" font-weight="bold" lengthAdjust="spacing" textLength="22" x="23" y="153.6777">opt</text><ellipse cx="29.5" cy="187.9805" fill="none" rx="4" ry="4" style="stroke:#181818;stroke-width:1.5;"/><polygon fill="#181818" points="69,184.7305,79,188.7305,69,192.7305,73,188.7305" style="stroke:#181818;stroke-width:1.0;"/><line style="stroke:#181818;stroke-width:1.0;" x1="34" x2="75" y1="188.7305" y2="188.7305"/><text fill="#000000" font-family="sans-serif" font-size="13" lengthAdjust="spacing" textLength="33" x="37" y="183.9883">short</text><polygon fill="#181818" points="92,184.7305,82,188.7305,92,192.7305,88,188.7305" style="stroke:#181818;stroke-width:1.0;"/><ellipse cx="131.5" cy="187.9805" fill="none" rx="4" ry="4" style="stroke:#181818;stroke-width:1.5;"/><line style="stroke:#181818;stroke-width:1.0;" x1="86" x2="127" y1="188.7305" y2="188.7305"/><text fill="#000000" font-family="sans-serif" font-size="13" lengthAdjust="spacing" textLength="33" x="98" y="183.9883">short</text><rect fill="#EEEEEE" height="3" style="stroke:#EEEEEE;stroke-width:1.0;" width="170" x="5" y="231.3857"/><line style="stroke:#000000;stroke-width:1.0;" x1="5" x2="175" y1="231.3857" y2="231.3857"/><line style="stroke:#000000;stroke-width:1.0;" x1="5" x2="175" y1="234.3857" y2="234.3857"/><rect fill="#EEEEEE" height="23.3105" style="stroke:#000000;stroke-width:2.0;" width="139" x="20.5" y="220.7305"/><text fill="#000000" font-family="sans-serif" font-size="13" font-weight="bold" lengthAdjust="spacing" textLength="121" x="26.5" y="237.2988">right edge arrows</text><path d="M22,258.041 L89,258.041 L89,265.3516 L79,275.3516 L22,275.3516 L22,258.041 " fill="none" style="stroke:#000000;stroke-width:1.5;"/><rect fill="none" height="56.6211" style="stroke:#000000;stroke-width:1.5;" width="122" x="22" y="258.041"/><text fill="#000000" font-family="sans-serif" font-size="13" font-weight="bold" lengthAdjust="spacing" textLength="22" x="37" y="271.6094">opt</text><ellipse cx="10.5" cy="305.9121" fill="none" rx="4" ry="4" style="stroke:#181818;stroke-width:1.5;"/><polygon fill="#181818" points="69,302.6621,79,306.6621,69,310.6621,73,306.6621" style="stroke:#181818;stroke-width:1.0;"/><line style="stroke:#181818;stroke-width:1.0;" x1="15" x2="75" y1="306.6621" y2="306.6621"/><text fill="#000000" font-family="sans-serif" font-size="13" lengthAdjust="spacing" textLength="19" x="51" y="301.9199">Pre</text><polygon fill="#181818" points="92,302.6621,82,306.6621,92,310.6621,88,306.6621" style="stroke:#181818;stroke-width:1.0;"/><ellipse cx="127.5" cy="305.9121" fill="none" rx="4" ry="4" style="stroke:#181818;stroke-width:1.5;"/><line style="stroke:#181818;stroke-width:1.0;" x1="86" x2="123" y1="306.6621" y2="306.6621"/><text fill="#000000" font-family="sans-serif" font-size="13" lengthAdjust="spacing" textLength="23" x="98" y="301.9199">five</text><ellipse cx="10.5" cy="349.2227" fill="none" rx="4" ry="4" style="stroke:#181818;stroke-width:1.5;"/><polygon fill="#181818" points="69,345.9727,79,349.9727,69,353.9727,73,349.9727" style="stroke:#181818;stroke-width:1.0;"/><line style="stroke:#181818;stroke-width:1.0;" x1="15" x2="75" y1="349.9727" y2="349.9727"/><text fill="#000000" font-family="sans-serif" font-size="13" lengthAdjust="spacing" textLength="19" x="51" y="345.2305">Pre</text><polygon fill="#181818" points="92,345.9727,82,349.9727,92,353.9727,88,349.9727" style="stroke:#181818;stroke-width:1.0;"/><ellipse cx="127.5" cy="349.2227" fill="none" rx="4" ry="4" style="stroke:#181818;stroke-width:1.5;"/><line style="stroke:#181818;stroke-width:1.0;" x1="86" x2="123" y1="349.9727" y2="349.9727"/><text fill="#000000" font-family="sans-serif" font-size="13" lengthAdjust="spacing" textLength="23" x="98" y="345.2305">five</text><rect fill="#EEEEEE" height="3" style="stroke:#EEEEEE;stroke-width:1.0;" width="170" x="5" y="378.6279"/><line style="stroke:#000000;stroke-width:1.0;" x1="5" x2="175" y1="378.6279" y2="378.6279"/><line style="stroke:#000000;stroke-width:1.0;" x1="5" x2="175" y1="381.6279" y2="381.6279"/><rect fill="#EEEEEE" height="23.3105" style="stroke:#000000;stroke-width:2.0;" width="128" x="26" y="367.9727"/><text fill="#000000" font-family="sans-serif" font-size="13" font-weight="bold" lengthAdjust="spacing" textLength="110" x="32" y="384.541">left edge arrows</text><path d="M18,405.2832 L85,405.2832 L85,412.5938 L75,422.5938 L18,422.5938 L18,405.2832 " fill="none" style="stroke:#000000;stroke-width:1.5;"/><rect fill="none" height="56.6211" style="stroke:#000000;stroke-width:1.5;" width="103" x="18" y="405.2832"/><text fill="#000000" font-family="sans-serif" font-size="13" font-weight="bold" lengthAdjust="spacing" textLength="22" x="33" y="418.8516">opt</text><ellipse cx="33.5" cy="453.1543" fill="none" rx="4" ry="4" style="stroke:#181818;stroke-width:1.5;"/><polygon fill="#181818" points="69,449.9043,79,453.9043,69,457.9043,73,453.9043" style="stroke:#181818;stroke-width:1.0;"/><line style="stroke:#181818;stroke-width:1.0;" x1="38" x2="75" y1="453.9043" y2="453.9043"/><text fill="#000000" font-family="sans-serif" font-size="13" lengthAdjust="spacing" textLength="23" x="41" y="449.1621">five</text><polygon fill="#181818" points="92,449.9043,82,453.9043,92,457.9043,88,453.9043" style="stroke:#181818;stroke-width:1.0;"/><ellipse cx="168.5" cy="453.1543" fill="none" rx="4" ry="4" style="stroke:#181818;stroke-width:1.5;"/><line style="stroke:#181818;stroke-width:1.0;" x1="86" x2="164" y1="453.9043" y2="453.9043"/><ellipse cx="33.5" cy="496.4648" fill="none" rx="4" ry="4" style="stroke:#181818;stroke-width:1.5;"/><polygon fill="#181818" points="69,493.2148,79,497.2148,69,501.2148,73,497.2148" style="stroke:#181818;stroke-width:1.0;"/><line style="stroke:#181818;stroke-width:1.0;" x1="38" x2="75" y1="497.2148" y2="497.2148"/><text fill="#000000" font-family="sans-serif" font-size="13" lengthAdjust="spacing" textLength="23" x="41" y="492.4727">five</text><polygon fill="#181818" points="92,493.2148,82,497.2148,92,501.2148,88,497.2148" style="stroke:#181818;stroke-width:1.0;"/><ellipse cx="168.5" cy="496.4648" fill="none" rx="4" ry="4" style="stroke:#181818;stroke-width:1.5;"/><line style="stroke:#181818;stroke-width:1.0;" x1="86" x2="164" y1="497.2148" y2="497.2148"/><!--SRC=[XP11Zi8m34NtESL78y6A1RiHeY3Q2tIFM1XgIWGaaMjc4ASdALEcGW9sYT_tVv87GQW-4PJz5IfdDgFcO5qWeHDA4hLR6yXfILLbNOt9Tp-G-qiFRFp5XFyLB0sx2cdwJFANf7WGO8dnF4Q7oDEZC5c6Pkz5GIB-jq6McOLF4Kple8tEndxn6FYWNohackXWfn_pKPuqOkkzWgkQUwxdhbNNLGftJIZYVsT_k6rwduYU8-y-Qj8TkfvsxwzeZMahUSDl]--></g></svg>