<svg xmlns="http://www.w3.org/2000/svg" xmlns:xlink="http://www.w3.org/1999/xlink" contentStyleType="text/css" height="428px" preserveAspectRatio="none" style="width:237px;height:428px;background:#FFFFFF;" version="1.1" viewBox="0 0 237 428" width="237px" zoomAndPan="magnify"><defs/><g><line style="stroke:#181818;stroke-width:0.5;stroke-dasharray:5.0,5.0;" x1="17" x2="17" y1="36.4883" y2="392.2832"/><rect fill="#FFFFFF" height="44.6211" style="stroke:#181818;stroke-width:1.0;" width="10" x="12" y="50.4883"/><rect fill="#008000" height="44.6211" style="stroke:#181818;stroke-width:1.0;" width="10" x="12" y="172.4199"/><rect fill="#FF0000" height="44.6211" style="stroke:#181818;stroke-width:1.0;" width="10" x="12" y="294.3516"/><line style="stroke:#181818;stroke-width:0.5;stroke-dasharray:5.0,5.0;" x1="105" x2="105" y1="36.4883" y2="392.2832"/><line style="stroke:#181818;stroke-width:0.5;stroke-dasharray:5.0,5.0;" x1="198" x2="198" y1="36.4883" y2="392.2832"/><rect fill="#FF0000" height="48.3105" style="stroke:#181818;stroke-width:1.0;" width="10" x="193" y="95.1094"/><rect fill="#008000" height="48.3105" style="stroke:#181818;stroke-width:1.0;" width="10" x="193" y="217.041"/><rect fill="#FFFFFF" height="48.3105" style="stroke:#181818;stroke-width:1.0;" width="10" x="193" y="338.9727"/><rect fill="#E2E2F0" height="30.4883" rx="2.5" ry="2.5" style="stroke:#181818;stroke-width:0.5;" width="24" x="5" y="5"/><text fill="#000000" font-family="sans-serif" font-size="14" lengthAdjust="spacing" textLength="10" x="12" y="25.5352">A</text><rect fill="#E2E2F0" height="30.4883" rx="2.5" ry="2.5" style="stroke:#181818;stroke-width:0.5;" width="22" x="94" y="5"/><text fill="#000000" font-family="sans-serif" font-size="14" lengthAdjust="spacing" textLength="8" x="101" y="25.5352">B</text><rect fill="#E2E2F0" height="30.4883" rx="2.5" ry="2.5" style="stroke:#181818;stroke-width:0.5;" width="24" x="186" y="5"/><text fill="#000000" font-family="sans-serif" font-size="14" lengthAdjust="spacing" textLength="10" x="193" y="25.5352">C</text><rect fill="#E2E2F0" height="30.4883" rx="2.5" ry="2.5" style="stroke:#181818;stroke-width:0.5;" width="24" x="5" y="392.2832"/><text fill="#000000" font-family="sans-serif" font-size="14" lengthAdjust="spacing" textLength="10" x="12" y="412.8184">A</text><rect fill="#E2E2F0" height="30.4883" rx="2.5" ry="2.5" style="stroke:#181818;stroke-width:0.5;" width="22" x="94" y="392.2832"/><text fill="#000000" font-family="sans-serif" font-size="14" lengthAdjust="spacing" textLength="8" x="101" y="412.8184">B</text><rect fill="#E2E2F0" height="30.4883" rx="2.5" ry="2.5" style="stroke:#181818;stroke-width:0.5;" width="24" x="186" y="392.2832"/><text fill="#000000" font-family="sans-serif" font-size="14" lengthAdjust="spacing" textLength="10" x="193" y="412.8184">C</text><polygon fill="#FF0000" points="33,46.4883,23,50.4883,33,54.4883,29,50.4883" style="stroke:#FF0000;stroke-width:1.0;"/><ellipse cx="34.5" cy="49.7383" fill="none" rx="4" ry="4" style="stroke:#FF0000;stroke-width:1.5;"/><line style="stroke:#FF0000;stroke-width:1.0;" x1="27" x2="30" y1="50.4883" y2="50.4883"/><polygon fill="#181818" points="93,91.1094,103,95.1094,93,99.1094,97,95.1094" style="stroke:#181818;stroke-width:1.0;"/><line style="stroke:#181818;stroke-width:1.0;" x1="22" x2="99" y1="95.1094" y2="95.1094"/><text fill="#000000" font-family="sans-serif" font-size="13" lengthAdjust="spacing" textLength="58" x="29" y="75.0566">very long</text><text fill="#000000" font-family="sans-serif" font-size="13" lengthAdjust="spacing" textLength="64" x="29" y="90.3672">multi-line</text><polygon fill="#181818" points="181,91.1094,191,95.1094,181,99.1094,185,95.1094" style="stroke:#181818;stroke-width:1.0;"/><line style="stroke:#181818;stroke-width:1.0;" x1="105" x2="187" y1="95.1094" y2="95.1094"/><text fill="#000000" font-family="sans-serif" font-size="13" lengthAdjust="spacing" textLength="38" x="112" y="90.3672">single</text><path d="M170.5,108.1094 L170.5,133.1094 L225.5,133.1094 L225.5,118.1094 L215.5,108.1094 L170.5,108.1094 " fill="#FEFFDD" style="stroke:#181818;stroke-width:0.5;"/><path d="M215.5,108.1094 L215.5,118.1094 L225.5,118.1094 L215.5,108.1094 " fill="#FEFFDD" style="stroke:#181818;stroke-width:0.5;"/><text fill="#000000" font-family="sans-serif" font-size="13" lengthAdjust="spacing" textLength="34" x="176.5" y="125.6777">got it</text><rect fill="#EEEEEE" height="3" style="stroke:#EEEEEE;stroke-width:1.0;" width="225.5" x="5" y="151.4199"/><line style="stroke:#000000;stroke-width:1.0;" x1="5" x2="230.5" y1="151.4199" y2="151.4199"/><line style="stroke:#000000;stroke-width:1.0;" x1="5" x2="230.5" y1="154.4199" y2="154.4199"/><polygon fill="#181818" points="33,168.4199,23,172.4199,33,176.4199,29,172.4199" style="stroke:#181818;stroke-width:1.0;"/><ellipse cx="34.5" cy="171.6699" fill="none" rx="4" ry="4" style="stroke:#181818;stroke-width:1.5;"/><line style="stroke:#181818;stroke-width:1.0;" x1="27" x2="30" y1="172.4199" y2="172.4199"/><polygon fill="#181818" points="93,213.041,103,217.041,93,221.041,97,217.041" style="stroke:#181818;stroke-width:1.0;"/><line style="stroke:#181818;stroke-width:1.0;" x1="22" x2="99" y1="217.041" y2="217.041"/><text fill="#000000" font-family="sans-serif" font-size="13" lengthAdjust="spacing" textLength="58" x="29" y="196.9883">very long</text><text fill="#000000" font-family="sans-serif" font-size="13" lengthAdjust="spacing" textLength="64" x="29" y="212.2988">multi-line</text><polygon fill="#181818" points="181,213.041,191,217.041,181,221.041,185,217.041" style="stroke:#181818;stroke-width:1.0;"/><line style="stroke:#181818;stroke-width:1.0;" x1="105" x2="187" y1="217.041" y2="217.041"/><text fill="#000000" font-family="sans-serif" font-size="13" lengthAdjust="spacing" textLength="33" x="112" y="196.9883">same</text><text fill="#000000" font-family="sans-serif" font-size="13" lengthAdjust="spacing" textLength="40" x="112" y="212.2988">height</text><path d="M170.5,230.041 L170.5,255.041 L225.5,255.041 L225.5,240.041 L215.5,230.041 L170.5,230.041 " fill="#FEFFDD" style="stroke:#181818;stroke-width:0.5;"/><path d="M215.5,230.041 L215.5,240.041 L225.5,240.041 L215.5,230.041 " fill="#FEFFDD" style="stroke:#181818;stroke-width:0.5;"/><text fill="#000000" font-family="sans-serif" font-size="13" lengthAdjust="spacing" textLength="34" x="176.5" y="247.6094">got it</text><rect fill="#EEEEEE" height="3" style="stroke:#EEEEEE;stroke-width:1.0;" width="225.5" x="5" y="273.3516"/><line style="stroke:#000000;stroke-width:1.0;" x1="5" x2="230.5" y1="273.3516" y2="273.3516"/><line style="stroke:#000000;stroke-width:1.0;" x1="5" x2="230.5" y1="276.3516" y2="276.3516"/><polygon fill="#181818" points="33,290.3516,23,294.3516,33,298.3516,29,294.3516" style="stroke:#181818;stroke-width:1.0;"/><ellipse cx="34.5" cy="293.6016" fill="none" rx="4" ry="4" style="stroke:#181818;stroke-width:1.5;"/><line style="stroke:#181818;stroke-width:1.0;" x1="27" x2="30" y1="294.3516" y2="294.3516"/><polygon fill="#181818" points="93,334.9727,103,338.9727,93,342.9727,97,338.9727" style="stroke:#181818;stroke-width:1.0;"/><line style="stroke:#181818;stroke-width:1.0;" x1="22" x2="99" y1="338.9727" y2="338.9727"/><text fill="#000000" font-family="sans-serif" font-size="13" lengthAdjust="spacing" textLength="38" x="29" y="334.2305">single</text><polygon fill="#181818" points="181,334.9727,191,338.9727,181,342.9727,185,338.9727" style="stroke:#181818;stroke-width:1.0;"/><line style="stroke:#181818;stroke-width:1.0;" x1="105" x2="187" y1="338.9727" y2="338.9727"/><text fill="#000000" font-family="sans-serif" font-size="13" lengthAdjust="spacing" textLength="58" x="112" y="318.9199">very long</text><text fill="#000000" font-family="sans-serif" font-size="13" lengthAdjust="spacing" textLength="64" x="112" y="334.2305">multi-line</text><path d="M170.5,351.9727 L170.5,376.9727 L225.5,376.9727 L225.5,361.9727 L215.5,351.9727 L170.5,351.9727 " fill="#FEFFDD" style="stroke:#181818;stroke-width:0.5;"/><path d="M215.5,351.9727 L215.5,361.9727 L225.5,361.9727 L215.5,351.9727 " fill="#FEFFDD" style="stroke:#181818;stroke-width:0.5;"/><text fill="#000000" font-family="sans-serif" font-size="13" lengthAdjust="spacing" textLength="34" x="176.5" y="369.541">got it</text><!--SRC=[dOzD2i8m48NtESMJWbsKW2vRj5BhnZDO5q67D90cagO5FRrfAoA2YCxo_V2zcLsSa8s09tk3TnsnUD-s7M6vI5C655WT8aVd8xSR9Ccey1nRS8uCFRahj3MoCasdlU9Q6MBpmSvHXZo6RePM6Qc96Ui9DfHGPf3MGtcs8t7ogXV1ATawt0ITS8Ya8pA_KyTQYBQYeShKf6Jj_y67zK68dvdYRShZiLVsfttVw7S0]--></g></svg>