<svg xmlns="http://www.w3.org/2000/svg" xmlns:xlink="http://www.w3.org/1999/xlink" contentStyleType="text/css" height="766px" preserveAspectRatio="none" style="width:124px;height:766px;background:#FFFFFF;" version="1.1" viewBox="0 0 124 766" width="124px" zoomAndPan="magnify"><defs/><g><rect fill="#FFFFFF" height="675.125" style="stroke:#181818;stroke-width:1.0;" width="10" x="20" y="46.4883"/><rect fill="#FFFFFF" height="351.0625" style="stroke:#181818;stroke-width:1.0;" width="10" x="25" y="370.5508"/><rect fill="#FFFFFF" height="266.7969" style="stroke:#181818;stroke-width:1.0;" width="10" x="30" y="454.8164"/><rect fill="#FFFFFF" height="182.5313" style="stroke:#181818;stroke-width:1.0;" width="10" x="35" y="539.082"/><rect fill="#FFFFFF" height="675.125" style="stroke:#181818;stroke-width:1.0;" width="10" x="90" y="46.4883"/><line style="stroke:#181818;stroke-width:0.5;stroke-dasharray:5.0,5.0;" x1="25" x2="25" y1="36.4883" y2="730.6133"/><line style="stroke:#181818;stroke-width:0.5;stroke-dasharray:5.0,5.0;" x1="94.5" x2="94.5" y1="36.4883" y2="730.6133"/><rect fill="#E2E2F0" height="30.4883" rx="2.5" ry="2.5" style="stroke:#181818;stroke-width:0.5;" width="40" x="5" y="5"/><text fill="#000000" font-family="sans-serif" font-size="14" lengthAdjust="spacing" textLength="26" x="12" y="25.5352">Bob</text><rect fill="#E2E2F0" height="30.4883" rx="2.5" ry="2.5" style="stroke:#181818;stroke-width:0.5;" width="40" x="5" y="729.6133"/><text fill="#000000" font-family="sans-serif" font-size="14" lengthAdjust="spacing" textLength="26" x="12" y="750.1484">Bob</text><rect fill="#E2E2F0" height="30.4883" rx="2.5" ry="2.5" style="stroke:#181818;stroke-width:0.5;" width="47" x="71.5" y="5"/><text fill="#000000" font-family="sans-serif" font-size="14" lengthAdjust="spacing" textLength="33" x="78.5" y="25.5352">Alice</text><rect fill="#E2E2F0" height="30.4883" rx="2.5" ry="2.5" style="stroke:#181818;stroke-width:0.5;" width="47" x="71.5" y="729.6133"/><text fill="#000000" font-family="sans-serif" font-size="14" lengthAdjust="spacing" textLength="33" x="78.5" y="750.1484">Alice</text><rect fill="#FFFFFF" height="675.125" style="stroke:#181818;stroke-width:1.0;" width="10" x="20" y="46.4883"/><rect fill="#FFFFFF" height="351.0625" style="stroke:#181818;stroke-width:1.0;" width="10" x="25" y="370.5508"/><rect fill="#FFFFFF" height="266.7969" style="stroke:#181818;stroke-width:1.0;" width="10" x="30" y="454.8164"/><rect fill="#FFFFFF" height="182.5313" style="stroke:#181818;stroke-width:1.0;" width="10" x="35" y="539.082"/><rect fill="#FFFFFF" height="675.125" style="stroke:#181818;stroke-width:1.0;" width="10" x="90" y="46.4883"/><line style="stroke:#181818;stroke-width:1.0;" x1="48" x2="89" y1="67.6211" y2="67.6211"/><line style="stroke:#181818;stroke-width:1.0;" x1="48" x2="48" y1="67.6211" y2="80.6211"/><line style="stroke:#181818;stroke-width:1.0;" x1="48" x2="88" y1="80.6211" y2="80.6211"/><polygon fill="#181818" points="78,76.6211,88,80.6211,78,84.6211,82,80.6211" style="stroke:#181818;stroke-width:1.0;"/><text fill="#000000" font-family="monospace" font-size="13" lengthAdjust="spacing" textLength="16" x="47" y="62.5552">&lt;-</text><ellipse cx="89.5" cy="122.0039" fill="none" rx="4" ry="4" style="stroke:#181818;stroke-width:1.5;"/><line style="stroke:#181818;stroke-width:1.0;" x1="48" x2="89" y1="109.7539" y2="109.7539"/><line style="stroke:#181818;stroke-width:1.0;" x1="48" x2="48" y1="109.7539" y2="122.7539"/><line style="stroke:#181818;stroke-width:1.0;" x1="48" x2="82.5" y1="122.7539" y2="122.7539"/><polygon fill="#181818" points="72.5,118.7539,82.5,122.7539,72.5,126.7539,76.5,122.7539" style="stroke:#181818;stroke-width:1.0;"/><text fill="#000000" font-family="monospace" font-size="13" lengthAdjust="spacing" textLength="24" x="47" y="104.688">o&lt;-</text><ellipse cx="89.5" cy="151.1367" fill="none" rx="4" ry="4" style="stroke:#181818;stroke-width:1.5;"/><ellipse cx="89.5" cy="164.1367" fill="none" rx="4" ry="4" style="stroke:#181818;stroke-width:1.5;"/><line style="stroke:#181818;stroke-width:1.0;" x1="48" x2="85" y1="151.8867" y2="151.8867"/><line style="stroke:#181818;stroke-width:1.0;" x1="48" x2="48" y1="151.8867" y2="164.8867"/><line style="stroke:#181818;stroke-width:1.0;" x1="48" x2="82.5" y1="164.8867" y2="164.8867"/><polygon fill="#181818" points="72.5,160.8867,82.5,164.8867,72.5,168.8867,76.5,164.8867" style="stroke:#181818;stroke-width:1.0;"/><text fill="#000000" font-family="monospace" font-size="13" lengthAdjust="spacing" textLength="32" x="47" y="146.8208">o&lt;-o</text><line style="stroke:#181818;stroke-width:1.0;" x1="48" x2="89" y1="194.0195" y2="194.0195"/><line style="stroke:#181818;stroke-width:1.0;" x1="48" x2="48" y1="194.0195" y2="207.0195"/><line style="stroke:#181818;stroke-width:1.0;" x1="48" x2="89" y1="207.0195" y2="207.0195"/><line style="stroke:#181818;stroke-width:1.0;" x1="88" x2="78" y1="207.0195" y2="203.0195"/><line style="stroke:#181818;stroke-width:1.0;" x1="88" x2="78" y1="207.0195" y2="211.0195"/><text fill="#000000" font-family="monospace" font-size="13" lengthAdjust="spacing" textLength="24" x="47" y="188.9536">&lt;&lt;-</text><line style="stroke:#181818;stroke-width:1.0;" x1="48" x2="89" y1="236.1523" y2="236.1523"/><line style="stroke:#181818;stroke-width:1.0;" x1="48" x2="48" y1="236.1523" y2="249.1523"/><line style="stroke:#181818;stroke-width:1.0;" x1="48" x2="89" y1="249.1523" y2="249.1523"/><polygon fill="#181818" points="78,245.1523,88,249.1523,78,249.1523" style="stroke:#181818;stroke-width:1.0;"/><text fill="#000000" font-family="monospace" font-size="13" lengthAdjust="spacing" textLength="16" x="47" y="231.0864">/-</text><line style="stroke:#181818;stroke-width:1.0;" x1="48" x2="89" y1="278.2852" y2="278.2852"/><line style="stroke:#181818;stroke-width:1.0;" x1="48" x2="48" y1="278.2852" y2="291.2852"/><line style="stroke:#181818;stroke-width:1.0;" x1="48" x2="89" y1="291.2852" y2="291.2852"/><line style="stroke:#181818;stroke-width:1.0;" x1="88" x2="78" y1="291.2852" y2="287.2852"/><text fill="#000000" font-family="monospace" font-size="13" lengthAdjust="spacing" textLength="16" x="47" y="273.2192">//</text><line style="stroke:#181818;stroke-width:1.0;" x1="48" x2="89" y1="320.418" y2="320.418"/><line style="stroke:#181818;stroke-width:1.0;" x1="48" x2="48" y1="320.418" y2="333.418"/><line style="stroke:#181818;stroke-width:1.0;" x1="48" x2="89" y1="333.418" y2="333.418"/><polygon fill="#181818" points="78,333.418,88,333.418,78,337.418" style="stroke:#181818;stroke-width:1.0;"/><text fill="#000000" font-family="monospace" font-size="13" lengthAdjust="spacing" textLength="16" x="47" y="315.3521">\-</text><line style="stroke:#181818;stroke-width:1.0;" x1="48" x2="89" y1="357.5508" y2="357.5508"/><line style="stroke:#181818;stroke-width:1.0;" x1="48" x2="48" y1="357.5508" y2="370.5508"/><line style="stroke:#181818;stroke-width:1.0;" x1="48" x2="94" y1="370.5508" y2="370.5508"/><line style="stroke:#181818;stroke-width:1.0;" x1="93" x2="83" y1="370.5508" y2="374.5508"/><text fill="#000000" font-family="monospace" font-size="13" lengthAdjust="spacing" textLength="24" x="47" y="352.4849">\\-</text><ellipse cx="89.5" cy="403.9336" fill="none" rx="4" ry="4" style="stroke:#181818;stroke-width:1.5;"/><line style="stroke:#181818;stroke-width:1.0;" x1="48" x2="85" y1="404.6836" y2="404.6836"/><line style="stroke:#181818;stroke-width:1.0;" x1="48" x2="48" y1="404.6836" y2="417.6836"/><line style="stroke:#181818;stroke-width:1.0;" x1="48" x2="88" y1="417.6836" y2="417.6836"/><polygon fill="#181818" points="78,413.6836,88,417.6836,78,421.6836,82,417.6836" style="stroke:#181818;stroke-width:1.0;"/><text fill="#000000" font-family="monospace" font-size="13" lengthAdjust="spacing" textLength="24" x="47" y="399.6177">&lt;-o</text><ellipse cx="94.5" cy="454.0664" fill="none" rx="4" ry="4" style="stroke:#181818;stroke-width:1.5;"/><line style="stroke:#181818;stroke-width:1.0;" x1="48" x2="89" y1="441.8164" y2="441.8164"/><line style="stroke:#181818;stroke-width:1.0;" x1="48" x2="48" y1="441.8164" y2="454.8164"/><line style="stroke:#181818;stroke-width:1.0;" x1="48" x2="87.5" y1="454.8164" y2="454.8164"/><polygon fill="#181818" points="77.5,450.8164,87.5,454.8164,77.5,458.8164,81.5,454.8164" style="stroke:#181818;stroke-width:1.0;"/><text fill="#000000" font-family="monospace" font-size="13" lengthAdjust="spacing" textLength="24" x="47" y="436.7505">o&lt;-</text><ellipse cx="89.5" cy="488.1992" fill="none" rx="4" ry="4" style="stroke:#181818;stroke-width:1.5;"/><ellipse cx="89.5" cy="501.1992" fill="none" rx="4" ry="4" style="stroke:#181818;stroke-width:1.5;"/><line style="stroke:#181818;stroke-width:1.0;" x1="48" x2="85" y1="488.9492" y2="488.9492"/><line style="stroke:#181818;stroke-width:1.0;" x1="48" x2="48" y1="488.9492" y2="501.9492"/><line style="stroke:#181818;stroke-width:1.0;" x1="48" x2="82.5" y1="501.9492" y2="501.9492"/><polygon fill="#181818" points="72.5,497.9492,82.5,501.9492,72.5,505.9492,76.5,501.9492" style="stroke:#181818;stroke-width:1.0;"/><text fill="#000000" font-family="monospace" font-size="13" lengthAdjust="spacing" textLength="32" x="47" y="483.8833">o&lt;-o</text><ellipse cx="94.5" cy="538.332" fill="none" rx="4" ry="4" style="stroke:#181818;stroke-width:1.5;"/><line style="stroke:#181818;stroke-width:1.0;" x1="48" x2="89" y1="526.082" y2="526.082"/><line style="stroke:#181818;stroke-width:1.0;" x1="48" x2="48" y1="526.082" y2="539.082"/><line style="stroke:#181818;stroke-width:1.0;" x1="48" x2="88.5" y1="539.082" y2="539.082"/><line style="stroke:#181818;stroke-width:1.0;" x1="87.5" x2="77.5" y1="539.082" y2="535.082"/><line style="stroke:#181818;stroke-width:1.0;" x1="87.5" x2="77.5" y1="539.082" y2="543.082"/><text fill="#000000" font-family="monospace" font-size="13" lengthAdjust="spacing" textLength="32" x="47" y="521.0161">o&lt;&lt;-</text><ellipse cx="89.5" cy="585.4648" fill="none" rx="4" ry="4" style="stroke:#181818;stroke-width:1.5;"/><line style="stroke:#181818;stroke-width:1.0;" x1="48" x2="89" y1="573.2148" y2="573.2148"/><line style="stroke:#181818;stroke-width:1.0;" x1="48" x2="48" y1="573.2148" y2="586.2148"/><line style="stroke:#181818;stroke-width:1.0;" x1="48" x2="83.5" y1="586.2148" y2="586.2148"/><polygon fill="#181818" points="72.5,582.2148,82.5,586.2148,72.5,586.2148" style="stroke:#181818;stroke-width:1.0;"/><text fill="#000000" font-family="monospace" font-size="13" lengthAdjust="spacing" textLength="24" x="47" y="568.1489">o/-</text><ellipse cx="89.5" cy="627.5977" fill="none" rx="4" ry="4" style="stroke:#181818;stroke-width:1.5;"/><line style="stroke:#181818;stroke-width:1.0;" x1="48" x2="89" y1="615.3477" y2="615.3477"/><line style="stroke:#181818;stroke-width:1.0;" x1="48" x2="48" y1="615.3477" y2="628.3477"/><line style="stroke:#181818;stroke-width:1.0;" x1="48" x2="83.5" y1="628.3477" y2="628.3477"/><line style="stroke:#181818;stroke-width:1.0;" x1="82.5" x2="72.5" y1="628.3477" y2="624.3477"/><text fill="#000000" font-family="monospace" font-size="13" lengthAdjust="spacing" textLength="32" x="47" y="610.2817">o//-</text><ellipse cx="89.5" cy="669.7305" fill="none" rx="4" ry="4" style="stroke:#181818;stroke-width:1.5;"/><line style="stroke:#181818;stroke-width:1.0;" x1="48" x2="89" y1="657.4805" y2="657.4805"/><line style="stroke:#181818;stroke-width:1.0;" x1="48" x2="48" y1="657.4805" y2="670.4805"/><line style="stroke:#181818;stroke-width:1.0;" x1="48" x2="83.5" y1="670.4805" y2="670.4805"/><polygon fill="#181818" points="72.5,670.4805,82.5,670.4805,72.5,674.4805" style="stroke:#181818;stroke-width:1.0;"/><text fill="#000000" font-family="monospace" font-size="13" lengthAdjust="spacing" textLength="24" x="47" y="652.4146">o\-</text><ellipse cx="89.5" cy="711.8633" fill="none" rx="4" ry="4" style="stroke:#181818;stroke-width:1.5;"/><line style="stroke:#181818;stroke-width:1.0;" x1="48" x2="89" y1="699.6133" y2="699.6133"/><line style="stroke:#181818;stroke-width:1.0;" x1="48" x2="48" y1="699.6133" y2="712.6133"/><line style="stroke:#181818;stroke-width:1.0;" x1="48" x2="83.5" y1="712.6133" y2="712.6133"/><line style="stroke:#181818;stroke-width:1.0;" x1="82.5" x2="72.5" y1="712.6133" y2="716.6133"/><text fill="#000000" font-family="monospace" font-size="13" lengthAdjust="spacing" textLength="32" x="47" y="694.5474">o\\-</text><!--SRC=[RO-n3i8W441tlkBiqgbXDrsgWp_1Scs88RPSfQY9ndyNWUfXl8cyl2Flwitiy3WXU4rtyEwYHRsSZ9tHuGIBFb-q7JGyHDqvHxSzZUJWuBIsedwAO7apc1cjXntrW0lq1Un64xO3He63DrVqcZzxWT0sy1w4BLHLsrHLO5H0-b8gCKNU9Zl_a6N9Vv2PIIPA6PdYdagUKinJOI8keub74wykelbIxl-ffvI_qZzhl9hoAPHkMU5AUJZbRg1qpuT6_W80]--></g></svg>