<svg xmlns="http://www.w3.org/2000/svg" xmlns:xlink="http://www.w3.org/1999/xlink" contentStyleType="text/css" height="261px" preserveAspectRatio="none" style="width:680px;height:261px;background:#FFFFFF;" version="1.1" viewBox="0 0 680 261" width="680px" zoomAndPan="magnify"><defs/><g><line style="stroke:#181818;stroke-width:0.5;stroke-dasharray:5.0,5.0;" x1="357.5" x2="357.5" y1="36.4883" y2="225.7305"/><rect fill="#E2E2F0" height="30.4883" rx="2.5" ry="2.5" style="stroke:#181818;stroke-width:0.5;" width="43" x="336.5" y="5"/><text fill="#000000" font-family="sans-serif" font-size="14" lengthAdjust="spacing" textLength="29" x="343.5" y="25.5352">Test</text><rect fill="#E2E2F0" height="30.4883" rx="2.5" ry="2.5" style="stroke:#181818;stroke-width:0.5;" width="43" x="336.5" y="224.7305"/><text fill="#000000" font-family="sans-serif" font-size="14" lengthAdjust="spacing" textLength="29" x="343.5" y="245.2656">Test</text><line style="stroke:#181818;stroke-width:1.0;stroke-dasharray:2.0,2.0;" x1="358" x2="400" y1="67.7988" y2="67.7988"/><line style="stroke:#181818;stroke-width:1.0;stroke-dasharray:2.0,2.0;" x1="400" x2="400" y1="67.7988" y2="80.7988"/><line style="stroke:#181818;stroke-width:1.0;stroke-dasharray:2.0,2.0;" x1="359" x2="400" y1="80.7988" y2="80.7988"/><polygon fill="#181818" points="369,76.7988,359,80.7988,369,84.7988,365,80.7988" style="stroke:#181818;stroke-width:1.0;"/><text fill="#000000" font-family="sans-serif" font-size="13" lengthAdjust="spacing" textLength="28" x="365" y="63.0566">Text</text><path d="M408,54.9883 L408,79.9883 L673,79.9883 L673,64.9883 L663,54.9883 L408,54.9883 " fill="#FEFFDD" style="stroke:#181818;stroke-width:0.5;"/><path d="M663,54.9883 L663,64.9883 L673,64.9883 L663,54.9883 " fill="#FEFFDD" style="stroke:#181818;stroke-width:0.5;"/><text fill="#000000" font-family="sans-serif" font-size="13" lengthAdjust="spacing" textLength="244" x="414" y="72.5566">the location of the Comment is correct</text><line style="stroke:#181818;stroke-width:1.0;stroke-dasharray:2.0,2.0;" x1="358" x2="400" y1="110.1094" y2="110.1094"/><line style="stroke:#181818;stroke-width:1.0;stroke-dasharray:2.0,2.0;" x1="400" x2="400" y1="110.1094" y2="123.1094"/><line style="stroke:#181818;stroke-width:1.0;stroke-dasharray:2.0,2.0;" x1="359" x2="400" y1="123.1094" y2="123.1094"/><polygon fill="#181818" points="369,119.1094,359,123.1094,369,127.1094,365,123.1094" style="stroke:#181818;stroke-width:1.0;"/><text fill="#000000" font-family="sans-serif" font-size="13" lengthAdjust="spacing" textLength="28" x="365" y="105.3672">Text</text><path d="M88,97.2988 L88,122.2988 L353,122.2988 L353,107.2988 L343,97.2988 L88,97.2988 " fill="#FEFFDD" style="stroke:#181818;stroke-width:0.5;"/><path d="M343,97.2988 L343,107.2988 L353,107.2988 L343,97.2988 " fill="#FEFFDD" style="stroke:#181818;stroke-width:0.5;"/><text fill="#000000" font-family="sans-serif" font-size="13" lengthAdjust="spacing" textLength="244" x="94" y="114.8672">the location of the Comment is correct</text><line style="stroke:#181818;stroke-width:1.0;stroke-dasharray:2.0,2.0;" x1="316" x2="357" y1="152.4199" y2="152.4199"/><line style="stroke:#181818;stroke-width:1.0;stroke-dasharray:2.0,2.0;" x1="316" x2="316" y1="152.4199" y2="165.4199"/><line style="stroke:#181818;stroke-width:1.0;stroke-dasharray:2.0,2.0;" x1="316" x2="356" y1="165.4199" y2="165.4199"/><polygon fill="#181818" points="346,161.4199,356,165.4199,346,169.4199,350,165.4199" style="stroke:#181818;stroke-width:1.0;"/><text fill="#000000" font-family="sans-serif" font-size="13" lengthAdjust="spacing" textLength="28" x="320" y="147.6777">Text</text><path d="M363,139.6094 L363,164.6094 L666,164.6094 L666,149.6094 L656,139.6094 L363,139.6094 " fill="#FEFFDD" style="stroke:#181818;stroke-width:0.5;"/><path d="M656,139.6094 L656,149.6094 L666,149.6094 L656,139.6094 " fill="#FEFFDD" style="stroke:#181818;stroke-width:0.5;"/><text fill="#000000" font-family="sans-serif" font-size="13" lengthAdjust="spacing" textLength="282" x="369" y="157.1777">the location of the Comment is [now correct]</text><line style="stroke:#181818;stroke-width:1.0;stroke-dasharray:2.0,2.0;" x1="316" x2="357" y1="194.7305" y2="194.7305"/><line style="stroke:#181818;stroke-width:1.0;stroke-dasharray:2.0,2.0;" x1="316" x2="316" y1="194.7305" y2="207.7305"/><line style="stroke:#181818;stroke-width:1.0;stroke-dasharray:2.0,2.0;" x1="316" x2="356" y1="207.7305" y2="207.7305"/><polygon fill="#181818" points="346,203.7305,356,207.7305,346,211.7305,350,207.7305" style="stroke:#181818;stroke-width:1.0;"/><text fill="#000000" font-family="sans-serif" font-size="13" lengthAdjust="spacing" textLength="28" x="320" y="189.9883">Text</text><path d="M5,181.9199 L5,206.9199 L308,206.9199 L308,191.9199 L298,181.9199 L5,181.9199 " fill="#FEFFDD" style="stroke:#181818;stroke-width:0.5;"/><path d="M298,181.9199 L298,191.9199 L308,191.9199 L298,181.9199 " fill="#FEFFDD" style="stroke:#181818;stroke-width:0.5;"/><text fill="#000000" font-family="sans-serif" font-size="13" lengthAdjust="spacing" textLength="282" x="11" y="199.4883">the location of the Comment is [now correct]</text><!--SRC=[2qajBb7GrRLJ204oh81aHGbNNdv9ga9HPde6KA0a8rKX9pyviIGpFqyXFmtCTyxFpKtDAr78B5P8pYygIaqkuU8AmMLEJceQgSROwEgIwPpelFnoc66nU4mZob4eXW40]--></g></svg>