<svg xmlns="http://www.w3.org/2000/svg" xmlns:xlink="http://www.w3.org/1999/xlink" contentStyleType="text/css" height="273px" preserveAspectRatio="none" style="width:196px;height:273px;background:#FFFFFF;" version="1.1" viewBox="0 0 196 273" width="196px" zoomAndPan="magnify"><defs/><g><line style="stroke:#181818;stroke-width:0.5;stroke-dasharray:5.0,5.0;" x1="25" x2="25" y1="36.4883" y2="237.3516"/><rect fill="#FFFFFF" height="21.3105" style="stroke:#181818;stroke-width:1.0;" width="10" x="20" y="110.4541"/><rect fill="#FFFFFF" height="38.9658" style="stroke:#181818;stroke-width:1.0;" width="10" x="20" y="170.7305"/><line style="stroke:#181818;stroke-width:0.5;stroke-dasharray:5.0,5.0;" x1="117" x2="117" y1="36.4883" y2="237.3516"/><rect fill="#FFFFFF" height="22.6553" style="stroke:#181818;stroke-width:1.0;" width="10" x="112" y="170.7305"/><rect fill="#FFFFFF" height="22.6553" style="stroke:#181818;stroke-width:1.0;" width="10" x="112" y="209.6963"/><rect fill="#E2E2F0" height="30.4883" rx="2.5" ry="2.5" style="stroke:#181818;stroke-width:0.5;" width="40" x="5" y="5"/><text fill="#000000" font-family="sans-serif" font-size="14" lengthAdjust="spacing" textLength="26" x="12" y="25.5352">Bob</text><rect fill="#E2E2F0" height="30.4883" rx="2.5" ry="2.5" style="stroke:#181818;stroke-width:0.5;" width="47" x="93.5" y="5"/><text fill="#000000" font-family="sans-serif" font-size="14" lengthAdjust="spacing" textLength="33" x="100.5" y="25.5352">Alice</text><rect fill="#E2E2F0" height="30.4883" rx="2.5" ry="2.5" style="stroke:#181818;stroke-width:0.5;" width="40" x="5" y="237.3516"/><text fill="#000000" font-family="sans-serif" font-size="14" lengthAdjust="spacing" textLength="26" x="12" y="257.8867">Bob</text><rect fill="#E2E2F0" height="30.4883" rx="2.5" ry="2.5" style="stroke:#181818;stroke-width:0.5;" width="47" x="93.5" y="237.3516"/><text fill="#000000" font-family="sans-serif" font-size="14" lengthAdjust="spacing" textLength="33" x="100.5" y="257.8867">Alice</text><polygon fill="#181818" points="105,61.7988,115,65.7988,105,69.7988,109,65.7988" style="stroke:#181818;stroke-width:1.0;"/><line style="stroke:#181818;stroke-width:1.0;" x1="25" x2="111" y1="65.7988" y2="65.7988"/><text fill="#000000" font-family="sans-serif" font-size="13" lengthAdjust="spacing" textLength="55" x="32" y="61.0566">message</text><path d="M122,53.1436 L122,78.1436 L159,78.1436 L159,63.1436 L149,53.1436 L122,53.1436 " fill="#FEFFDD" style="stroke:#181818;stroke-width:0.5;"/><path d="M149,53.1436 L149,63.1436 L159,63.1436 L149,53.1436 " fill="#FEFFDD" style="stroke:#181818;stroke-width:0.5;"/><text fill="#000000" font-family="sans-serif" font-size="13" lengthAdjust="spacing" textLength="16" x="128" y="70.7119">ok</text><polygon fill="#181818" points="105,127.7646,115,131.7646,105,135.7646,109,131.7646" style="stroke:#181818;stroke-width:1.0;"/><line style="stroke:#181818;stroke-width:1.0;" x1="30" x2="111" y1="131.7646" y2="131.7646"/><text fill="#000000" font-family="sans-serif" font-size="13" lengthAdjust="spacing" textLength="64" x="37" y="127.0225">deactivate</text><path d="M122,119.1094 L122,144.1094 L159,144.1094 L159,129.1094 L149,119.1094 L122,119.1094 " fill="#FEFFDD" style="stroke:#181818;stroke-width:0.5;"/><path d="M149,119.1094 L149,129.1094 L159,129.1094 L149,119.1094 " fill="#FEFFDD" style="stroke:#181818;stroke-width:0.5;"/><text fill="#000000" font-family="sans-serif" font-size="13" lengthAdjust="spacing" textLength="16" x="128" y="136.6777">ok</text><polygon fill="#181818" points="100,166.7305,110,170.7305,100,174.7305,104,170.7305" style="stroke:#181818;stroke-width:1.0;"/><line style="stroke:#181818;stroke-width:1.0;" x1="30" x2="106" y1="170.7305" y2="170.7305"/><text fill="#000000" font-family="sans-serif" font-size="13" lengthAdjust="spacing" textLength="49" x="37" y="165.9883">activate</text><path d="M127,158.0752 L127,183.0752 L164,183.0752 L164,168.0752 L154,158.0752 L127,158.0752 " fill="#FEFFDD" style="stroke:#181818;stroke-width:0.5;"/><path d="M154,158.0752 L154,168.0752 L164,168.0752 L154,158.0752 " fill="#FEFFDD" style="stroke:#181818;stroke-width:0.5;"/><text fill="#000000" font-family="sans-serif" font-size="13" lengthAdjust="spacing" textLength="16" x="133" y="175.6436">ok</text><polygon fill="#181818" points="100,205.6963,110,209.6963,100,213.6963,104,209.6963" style="stroke:#181818;stroke-width:1.0;"/><line style="stroke:#181818;stroke-width:1.0;" x1="30" x2="106" y1="209.6963" y2="209.6963"/><text fill="#000000" font-family="sans-serif" font-size="13" lengthAdjust="spacing" textLength="63" x="37" y="204.9541">act+deact</text><path d="M127,197.041 L127,222.041 L189,222.041 L189,207.041 L179,197.041 L127,197.041 " fill="#FEFFDD" style="stroke:#181818;stroke-width:0.5;"/><path d="M179,197.041 L179,207.041 L189,207.041 L179,197.041 " fill="#FEFFDD" style="stroke:#181818;stroke-width:0.5;"/><text fill="#000000" font-family="sans-serif" font-size="13" lengthAdjust="spacing" textLength="41" x="133" y="214.6094">not ok</text><!--SRC=[ZSwn3i8W4CRndQVuN7GW30mECfZeu4iO1snFIYmz0zJ1fvVO6jD4JTUx-_zoYrkqBbXauWTox4ciR9iO1uvzW5xhZHPxFaDjiMjzHJ08b99r99ReE1EYTqq6NuQz0L_5SAcEZQzhwavZAeIjih_RqXHngYfbKDDx_uUUPb8Qp8W-yfnFHbI-gbzg6NwJdm00]--></g></svg>