<svg xmlns="http://www.w3.org/2000/svg" xmlns:xlink="http://www.w3.org/1999/xlink" contentStyleType="text/css" height="470px" preserveAspectRatio="none" style="width:449px;height:470px;background:#FFFFFF;" version="1.1" viewBox="0 0 449 470" width="449px" zoomAndPan="magnify"><defs/><g><line style="stroke:#181818;stroke-width:0.5;stroke-dasharray:5.0,5.0;" x1="25" x2="25" y1="36.4883" y2="433.6836"/><rect fill="#FFFFFF" height="389.1953" style="stroke:#181818;stroke-width:1.0;" width="10" x="20" y="44.4883"/><line style="stroke:#181818;stroke-width:0.5;stroke-dasharray:5.0,5.0;" x1="92" x2="92" y1="36.4883" y2="433.6836"/><rect fill="#E2E2F0" height="30.4883" rx="2.5" ry="2.5" style="stroke:#181818;stroke-width:0.5;" width="40" x="5" y="5"/><text fill="#000000" font-family="sans-serif" font-size="14" lengthAdjust="spacing" textLength="26" x="12" y="25.5352">Bob</text><rect fill="#E2E2F0" height="30.4883" rx="2.5" ry="2.5" style="stroke:#181818;stroke-width:0.5;" width="47" x="68.5" y="5"/><text fill="#000000" font-family="sans-serif" font-size="14" lengthAdjust="spacing" textLength="33" x="75.5" y="25.5352">Alice</text><rect fill="#E2E2F0" height="30.4883" rx="2.5" ry="2.5" style="stroke:#181818;stroke-width:0.5;" width="40" x="5" y="433.6836"/><text fill="#000000" font-family="sans-serif" font-size="14" lengthAdjust="spacing" textLength="26" x="12" y="454.2188">Bob</text><rect fill="#E2E2F0" height="30.4883" rx="2.5" ry="2.5" style="stroke:#181818;stroke-width:0.5;" width="47" x="68.5" y="433.6836"/><text fill="#000000" font-family="sans-serif" font-size="14" lengthAdjust="spacing" textLength="33" x="75.5" y="454.2188">Alice</text><line style="stroke:#181818;stroke-width:1.0;" x1="92" x2="134" y1="65.6211" y2="65.6211"/><line style="stroke:#181818;stroke-width:1.0;" x1="134" x2="134" y1="65.6211" y2="78.6211"/><line style="stroke:#181818;stroke-width:1.0;" x1="93" x2="134" y1="78.6211" y2="78.6211"/><polygon fill="#181818" points="102,61.6211,92,65.6211,102,69.6211,98,65.6211" style="stroke:#181818;stroke-width:1.0;"/><polygon fill="#181818" points="103,74.6211,93,78.6211,103,82.6211,99,78.6211" style="stroke:#181818;stroke-width:1.0;"/><text fill="#000000" font-family="monospace" font-size="13" lengthAdjust="spacing" textLength="24" x="107" y="60.5552">&lt;-&gt;</text><ellipse cx="91.5" cy="107.0039" fill="none" rx="4" ry="4" style="stroke:#181818;stroke-width:1.5;"/><ellipse cx="91.5" cy="120.0039" fill="none" rx="4" ry="4" style="stroke:#181818;stroke-width:1.5;"/><line style="stroke:#181818;stroke-width:1.0;" x1="98.5" x2="134" y1="107.7539" y2="107.7539"/><line style="stroke:#181818;stroke-width:1.0;" x1="134" x2="134" y1="107.7539" y2="120.7539"/><line style="stroke:#181818;stroke-width:1.0;" x1="98.5" x2="134" y1="120.7539" y2="120.7539"/><polygon fill="#181818" points="108.5,103.7539,98.5,107.7539,108.5,111.7539,104.5,107.7539" style="stroke:#181818;stroke-width:1.0;"/><polygon fill="#181818" points="108.5,116.7539,98.5,120.7539,108.5,124.7539,104.5,120.7539" style="stroke:#181818;stroke-width:1.0;"/><text fill="#000000" font-family="monospace" font-size="13" lengthAdjust="spacing" textLength="40" x="107" y="102.688">o&lt;-&gt;o</text><line style="stroke:#181818;stroke-width:1.0;" x1="104" x2="134" y1="149.8867" y2="149.8867"/><line style="stroke:#181818;stroke-width:1.0;" x1="134" x2="134" y1="149.8867" y2="162.8867"/><line style="stroke:#181818;stroke-width:1.0;" x1="105" x2="134" y1="162.8867" y2="162.8867"/><line style="stroke:#181818;stroke-width:2.0;" x1="98" x2="108" y1="144.8867" y2="154.8867"/><line style="stroke:#181818;stroke-width:2.0;" x1="98" x2="108" y1="154.8867" y2="144.8867"/><line style="stroke:#181818;stroke-width:2.0;" x1="98" x2="108" y1="157.8867" y2="167.8867"/><line style="stroke:#181818;stroke-width:2.0;" x1="98" x2="108" y1="167.8867" y2="157.8867"/><text fill="#000000" font-family="monospace" font-size="13" lengthAdjust="spacing" textLength="40" x="115" y="144.8208">x&lt;-&gt;x</text><ellipse cx="91.5" cy="204.2695" fill="none" rx="4" ry="4" style="stroke:#181818;stroke-width:1.5;"/><line style="stroke:#181818;stroke-width:1.0;" x1="104" x2="134" y1="192.0195" y2="192.0195"/><line style="stroke:#181818;stroke-width:1.0;" x1="134" x2="134" y1="192.0195" y2="205.0195"/><line style="stroke:#181818;stroke-width:1.0;" x1="98.5" x2="134" y1="205.0195" y2="205.0195"/><line style="stroke:#181818;stroke-width:2.0;" x1="98" x2="108" y1="187.0195" y2="197.0195"/><line style="stroke:#181818;stroke-width:2.0;" x1="98" x2="108" y1="197.0195" y2="187.0195"/><polygon fill="#181818" points="108.5,201.0195,98.5,205.0195,108.5,209.0195,104.5,205.0195" style="stroke:#181818;stroke-width:1.0;"/><text fill="#000000" font-family="monospace" font-size="13" lengthAdjust="spacing" textLength="32" x="99" y="186.9536">x-&gt;o</text><line style="stroke:#181818;stroke-width:1.0;" x1="92" x2="134" y1="234.1523" y2="234.1523"/><line style="stroke:#181818;stroke-width:1.0;" x1="134" x2="134" y1="234.1523" y2="247.1523"/><line style="stroke:#181818;stroke-width:1.0;" x1="105" x2="134" y1="247.1523" y2="247.1523"/><line style="stroke:#181818;stroke-width:2.0;" x1="98" x2="108" y1="242.1523" y2="252.1523"/><line style="stroke:#181818;stroke-width:2.0;" x1="98" x2="108" y1="252.1523" y2="242.1523"/><text fill="#000000" font-family="monospace" font-size="13" lengthAdjust="spacing" textLength="24" x="99" y="229.0864">-&gt;x</text><line style="stroke:#181818;stroke-width:1.0;" x1="104" x2="134" y1="276.2852" y2="276.2852"/><line style="stroke:#181818;stroke-width:1.0;" x1="134" x2="134" y1="276.2852" y2="289.2852"/><line style="stroke:#181818;stroke-width:1.0;" x1="93" x2="134" y1="289.2852" y2="289.2852"/><line style="stroke:#181818;stroke-width:2.0;" x1="98" x2="108" y1="271.2852" y2="281.2852"/><line style="stroke:#181818;stroke-width:2.0;" x1="98" x2="108" y1="281.2852" y2="271.2852"/><polygon fill="#181818" points="103,285.2852,93,289.2852,103,293.2852,99,289.2852" style="stroke:#181818;stroke-width:1.0;"/><text fill="#000000" font-family="monospace" font-size="13" lengthAdjust="spacing" textLength="24" x="99" y="271.2192">x-&gt;</text><line style="stroke:#181818;stroke-width:1.0;" x1="50" x2="91" y1="318.418" y2="318.418"/><line style="stroke:#181818;stroke-width:1.0;" x1="50" x2="50" y1="318.418" y2="331.418"/><line style="stroke:#181818;stroke-width:1.0;" x1="50" x2="79" y1="331.418" y2="331.418"/><line style="stroke:#181818;stroke-width:2.0;" x1="76" x2="86" y1="326.418" y2="336.418"/><line style="stroke:#181818;stroke-width:2.0;" x1="76" x2="86" y1="336.418" y2="326.418"/><text fill="#000000" font-family="monospace" font-size="13" lengthAdjust="spacing" textLength="24" x="54" y="313.3521">x&lt;-</text><line style="stroke:#181818;stroke-width:1.0;" x1="50" x2="79" y1="360.5508" y2="360.5508"/><line style="stroke:#181818;stroke-width:1.0;" x1="50" x2="50" y1="360.5508" y2="373.5508"/><line style="stroke:#181818;stroke-width:1.0;" x1="50" x2="90" y1="373.5508" y2="373.5508"/><line style="stroke:#181818;stroke-width:2.0;" x1="76" x2="86" y1="355.5508" y2="365.5508"/><line style="stroke:#181818;stroke-width:2.0;" x1="76" x2="86" y1="365.5508" y2="355.5508"/><polygon fill="#181818" points="80,369.5508,90,373.5508,80,377.5508,84,373.5508" style="stroke:#181818;stroke-width:1.0;"/><text fill="#000000" font-family="monospace" font-size="13" lengthAdjust="spacing" textLength="24" x="54" y="355.4849">&lt;-x</text><path d="M97,344.418 L97,369.418 L442,369.418 L442,354.418 L432,344.418 L97,344.418 " fill="#FEFFDD" style="stroke:#181818;stroke-width:0.5;"/><path d="M432,344.418 L432,354.418 L442,354.418 L432,344.418 " fill="#FEFFDD" style="stroke:#181818;stroke-width:0.5;"/><text fill="#000000" font-family="sans-serif" font-size="13" lengthAdjust="spacing" textLength="324" x="103" y="361.9863">The '&lt;-x' message now draws to the left and down.</text><ellipse cx="91.5" cy="414.9336" fill="none" rx="4" ry="4" style="stroke:#181818;stroke-width:1.5;"/><line style="stroke:#181818;stroke-width:1.0;" x1="50" x2="79" y1="402.6836" y2="402.6836"/><line style="stroke:#181818;stroke-width:1.0;" x1="50" x2="50" y1="402.6836" y2="415.6836"/><line style="stroke:#181818;stroke-width:1.0;" x1="50" x2="84.5" y1="415.6836" y2="415.6836"/><line style="stroke:#181818;stroke-width:2.0;" x1="76" x2="86" y1="397.6836" y2="407.6836"/><line style="stroke:#181818;stroke-width:2.0;" x1="76" x2="86" y1="407.6836" y2="397.6836"/><polygon fill="#181818" points="74.5,411.6836,84.5,415.6836,74.5,419.6836,78.5,415.6836" style="stroke:#181818;stroke-width:1.0;"/><text fill="#000000" font-family="monospace" font-size="13" lengthAdjust="spacing" textLength="32" x="45" y="397.6177">o&lt;-x</text><path d="M97,386.5508 L97,411.5508 L250,411.5508 L250,396.5508 L240,386.5508 L97,386.5508 " fill="#FEFFDD" style="stroke:#181818;stroke-width:0.5;"/><path d="M240,386.5508 L240,396.5508 L250,396.5508 L240,386.5508 " fill="#FEFFDD" style="stroke:#181818;stroke-width:0.5;"/><text fill="#000000" font-family="sans-serif" font-size="13" lengthAdjust="spacing" textLength="132" x="103" y="404.1191">Same with the 'o&lt;-x'</text><!--SRC=[TO_1JeOm48JlVOgHImz_y04CCVdru0FemUi2ApH2Ysr_8HhVtMqHn8EtdMzcPxDNawTk94Hs7uZ-mag7LsCdyZGYyDk5RSFuLFhilPlltU0y7ZopLVfBIIgQnana8-vS3O02wZ_uF1ZP5qnAKnFDEqLESuto5eJJ2JVeZTgjMYb29Lug4wyeaYeAeKu6jzEiCbzaMdQ-ojN8-HyZYunpUiDPR6aSqnkkoWEkoWohylaNLcKwbxHrye4tNH-p19vwXXPVO-GGg6E9p6WzpG7H8Oezy4i4sHQjc-rrtcFRfgRrvGN7bnVyT-gHHiPiOfzRTShgOzit]--></g></svg>