<svg xmlns="http://www.w3.org/2000/svg" xmlns:xlink="http://www.w3.org/1999/xlink" contentStyleType="text/css" height="269px" preserveAspectRatio="none" style="width:336px;height:269px;background:#FFFFFF;" version="1.1" viewBox="0 0 336 269" width="336px" zoomAndPan="magnify"><defs/><g><line style="stroke:#181818;stroke-width:0.5;stroke-dasharray:5.0,5.0;" x1="32.7632" x2="32.7632" y1="81.4883" y2="187.4199"/><rect fill="#FFFFFF" height="13" style="stroke:#181818;stroke-width:1.0;" width="10" x="27.7632" y="169.4199"/><line style="stroke:#181818;stroke-width:0.5;stroke-dasharray:5.0,5.0;" x1="126.8882" x2="126.8882" y1="81.4883" y2="187.4199"/><rect fill="#FFFFFF" height="21.3105" style="stroke:#181818;stroke-width:1.0;" width="10" x="121.8882" y="89.4883"/><rect fill="#FFFFFF" height="29.3105" style="stroke:#181818;stroke-width:1.0;" width="10" x="121.8882" y="140.1094"/><line style="stroke:#181818;stroke-width:0.5;stroke-dasharray:5.0,5.0;" x1="216.0132" x2="216.0132" y1="81.4883" y2="187.4199"/><rect fill="#FFFFFF" height="29.3105" style="stroke:#181818;stroke-width:1.0;" width="10" x="211.0132" y="110.7988"/><rect fill="#FFFFFF" height="13" style="stroke:#181818;stroke-width:1.0;" width="10" x="211.0132" y="169.4199"/><line style="stroke:#181818;stroke-width:0.5;stroke-dasharray:5.0,5.0;" x1="308.6929" x2="308.6929" y1="81.4883" y2="187.4199"/><rect fill="#FFFFFF" height="13" style="stroke:#181818;stroke-width:1.0;" width="10" x="303.6929" y="169.4199"/><text fill="#000000" font-family="sans-serif" font-size="14" lengthAdjust="spacing" textLength="49.5264" x="5" y="78.5352">Mallory</text><ellipse cx="32.7632" cy="13.5" fill="#E2E2F0" rx="8" ry="8" style="stroke:#181818;stroke-width:0.5;"/><path d="M32.7632,21.5 L32.7632,48.5 M19.7632,29.5 L45.7632,29.5 M32.7632,48.5 L19.7632,63.5 M32.7632,48.5 L45.7632,63.5 " fill="none" style="stroke:#181818;stroke-width:0.5;"/><text fill="#000000" font-family="sans-serif" font-size="14" lengthAdjust="spacing" textLength="25.4639" x="111.1563" y="78.5352">Bob</text><ellipse cx="126.8882" cy="13.5" fill="#E2E2F0" rx="8" ry="8" style="stroke:#181818;stroke-width:0.5;"/><path d="M126.8882,21.5 L126.8882,48.5 M113.8882,29.5 L139.8882,29.5 M126.8882,48.5 L113.8882,63.5 M126.8882,48.5 L139.8882,63.5 " fill="none" style="stroke:#181818;stroke-width:0.5;"/><text fill="#000000" font-family="sans-serif" font-size="14" lengthAdjust="spacing" textLength="32.7236" x="196.6514" y="78.5352">Alice</text><ellipse cx="216.0132" cy="13.5" fill="#E2E2F0" rx="8" ry="8" style="stroke:#181818;stroke-width:0.5;"/><path d="M216.0132,21.5 L216.0132,48.5 M203.0132,29.5 L229.0132,29.5 M216.0132,48.5 L203.0132,63.5 M216.0132,48.5 L229.0132,63.5 " fill="none" style="stroke:#181818;stroke-width:0.5;"/><text fill="#000000" font-family="sans-serif" font-size="14" lengthAdjust="spacing" textLength="47.7285" x="281.8286" y="78.5352">Charlie</text><ellipse cx="308.6929" cy="13.5" fill="#E2E2F0" rx="8" ry="8" style="stroke:#181818;stroke-width:0.5;"/><path d="M308.6929,21.5 L308.6929,48.5 M295.6929,29.5 L321.6929,29.5 M308.6929,48.5 L295.6929,63.5 M308.6929,48.5 L321.6929,63.5 " fill="none" style="stroke:#181818;stroke-width:0.5;"/><text fill="#000000" font-family="sans-serif" font-size="14" lengthAdjust="spacing" textLength="49.5264" x="5" y="260.9551">Mallory</text><ellipse cx="32.7632" cy="195.9199" fill="#E2E2F0" rx="8" ry="8" style="stroke:#181818;stroke-width:0.5;"/><path d="M32.7632,203.9199 L32.7632,230.9199 M19.7632,211.9199 L45.7632,211.9199 M32.7632,230.9199 L19.7632,245.9199 M32.7632,230.9199 L45.7632,245.9199 " fill="none" style="stroke:#181818;stroke-width:0.5;"/><text fill="#000000" font-family="sans-serif" font-size="14" lengthAdjust="spacing" textLength="25.4639" x="111.1563" y="260.9551">Bob</text><ellipse cx="126.8882" cy="195.9199" fill="#E2E2F0" rx="8" ry="8" style="stroke:#181818;stroke-width:0.5;"/><path d="M126.8882,203.9199 L126.8882,230.9199 M113.8882,211.9199 L139.8882,211.9199 M126.8882,230.9199 L113.8882,245.9199 M126.8882,230.9199 L139.8882,245.9199 " fill="none" style="stroke:#181818;stroke-width:0.5;"/><text fill="#000000" font-family="sans-serif" font-size="14" lengthAdjust="spacing" textLength="32.7236" x="196.6514" y="260.9551">Alice</text><ellipse cx="216.0132" cy="195.9199" fill="#E2E2F0" rx="8" ry="8" style="stroke:#181818;stroke-width:0.5;"/><path d="M216.0132,203.9199 L216.0132,230.9199 M203.0132,211.9199 L229.0132,211.9199 M216.0132,230.9199 L203.0132,245.9199 M216.0132,230.9199 L229.0132,245.9199 " fill="none" style="stroke:#181818;stroke-width:0.5;"/><text fill="#000000" font-family="sans-serif" font-size="14" lengthAdjust="spacing" textLength="47.7285" x="281.8286" y="260.9551">Charlie</text><ellipse cx="308.6929" cy="195.9199" fill="#E2E2F0" rx="8" ry="8" style="stroke:#181818;stroke-width:0.5;"/><path d="M308.6929,203.9199 L308.6929,230.9199 M295.6929,211.9199 L321.6929,211.9199 M308.6929,230.9199 L295.6929,245.9199 M308.6929,230.9199 L321.6929,245.9199 " fill="none" style="stroke:#181818;stroke-width:0.5;"/><line style="stroke:#181818;stroke-width:1.0;" x1="209.0132" x2="199.0132" y1="110.7988" y2="106.7988"/><line style="stroke:#181818;stroke-width:1.0;" x1="209.0132" x2="199.0132" y1="110.7988" y2="114.7988"/><line style="stroke:#181818;stroke-width:1.0;" x1="131.8882" x2="210.0132" y1="110.7988" y2="110.7988"/><text fill="#000000" font-family="sans-serif" font-size="13" lengthAdjust="spacing" textLength="51.9238" x="138.8882" y="106.0566">Hi Alice!</text><line style="stroke:#181818;stroke-width:1.0;" x1="132.8882" x2="142.8882" y1="140.1094" y2="136.1094"/><line style="stroke:#181818;stroke-width:1.0;" x1="132.8882" x2="142.8882" y1="140.1094" y2="144.1094"/><line style="stroke:#181818;stroke-width:1.0;" x1="131.8882" x2="210.0132" y1="140.1094" y2="140.1094"/><text fill="#000000" font-family="sans-serif" font-size="13" lengthAdjust="spacing" textLength="53.3838" x="148.8882" y="135.3672">Bye Bob!</text><line style="stroke:#181818;stroke-width:1.0;" x1="209.0132" x2="199.0132" y1="169.4199" y2="165.4199"/><line style="stroke:#181818;stroke-width:1.0;" x1="209.0132" x2="199.0132" y1="169.4199" y2="173.4199"/><line style="stroke:#181818;stroke-width:1.0;" x1="131.8882" x2="210.0132" y1="169.4199" y2="169.4199"/><text fill="#000000" font-family="sans-serif" font-size="13" lengthAdjust="spacing" textLength="60.125" x="138.8882" y="164.6777">Bye Alice!</text><line style="stroke:#181818;stroke-width:1.0;" x1="38.7632" x2="48.7632" y1="169.4199" y2="165.4199"/><line style="stroke:#181818;stroke-width:1.0;" x1="38.7632" x2="48.7632" y1="169.4199" y2="173.4199"/><line style="stroke:#181818;stroke-width:1.0;" x1="37.7632" x2="120.8882" y1="169.4199" y2="169.4199"/><text fill="#000000" font-family="sans-serif" font-size="13" lengthAdjust="spacing" textLength="60.125" x="54.7632" y="164.6777">Bye Alice!</text><line style="stroke:#181818;stroke-width:1.0;" x1="301.6929" x2="291.6929" y1="169.4199" y2="165.4199"/><line style="stroke:#181818;stroke-width:1.0;" x1="301.6929" x2="291.6929" y1="169.4199" y2="173.4199"/><line style="stroke:#181818;stroke-width:1.0;" x1="221.0132" x2="302.6929" y1="169.4199" y2="169.4199"/><text fill="#000000" font-family="sans-serif" font-size="13" lengthAdjust="spacing" textLength="63.6797" x="228.0132" y="164.6777">Bye C too!</text><!--SRC=[ROz1QiCm44NtSufl0iqYE538fbq44c_IHGunbeTcg1G5QTpWdhvox0OlkX7yz-PhfEgM-3CmJE8FBFL2wu-SUy7gTVUsmrtj0kuwDOrNzhXnOk_5moAQBQtpbrv75f1jy5BEfCxwu8aEpcB2kOp7D80pmeoEiHrZEyU3LoSZu1aq5qvU7yWHiJFzPfCotwBUxy6ewyq6xpZfrAs87wBz4yT1nYKLFHjFF1TUC9dmZvakSyLCeYb_ZHLridZ9Cl4oX6Lmlm00]--></g></svg>