<svg xmlns="http://www.w3.org/2000/svg" xmlns:xlink="http://www.w3.org/1999/xlink" contentStyleType="text/css" height="546px" preserveAspectRatio="none" style="width:209px;height:546px;background:#FFFFFF;" version="1.1" viewBox="0 0 209 546" width="209px" zoomAndPan="magnify"><defs/><g><line style="stroke:#181818;stroke-width:0.5;stroke-dasharray:5.0,5.0;" x1="34.8296" x2="34.8296" y1="36.4883" y2="510.2148"/><line style="stroke:#181818;stroke-width:0.5;stroke-dasharray:5.0,5.0;" x1="103.6855" x2="103.6855" y1="36.4883" y2="510.2148"/><line style="stroke:#181818;stroke-width:0.5;stroke-dasharray:5.0,5.0;" x1="172.5552" x2="172.5552" y1="36.4883" y2="510.2148"/><rect fill="#E2E2F0" height="30.4883" rx="2.5" ry="2.5" style="stroke:#181818;stroke-width:0.5;" width="23.6592" x="23" y="5"/><text fill="#000000" font-family="sans-serif" font-size="14" lengthAdjust="spacing" textLength="9.6592" x="30" y="25.5352">A</text><rect fill="#E2E2F0" height="30.4883" rx="2.5" ry="2.5" style="stroke:#181818;stroke-width:0.5;" width="22.0527" x="92.6592" y="5"/><text fill="#000000" font-family="sans-serif" font-size="14" lengthAdjust="spacing" textLength="8.0527" x="99.6592" y="25.5352">B</text><rect fill="#E2E2F0" height="30.4883" rx="2.5" ry="2.5" style="stroke:#181818;stroke-width:0.5;" width="23.6865" x="160.7119" y="5"/><text fill="#000000" font-family="sans-serif" font-size="14" lengthAdjust="spacing" textLength="9.6865" x="167.7119" y="25.5352">C</text><rect fill="#E2E2F0" height="30.4883" rx="2.5" ry="2.5" style="stroke:#181818;stroke-width:0.5;" width="23.6592" x="23" y="510.2148"/><text fill="#000000" font-family="sans-serif" font-size="14" lengthAdjust="spacing" textLength="9.6592" x="30" y="530.75">A</text><rect fill="#E2E2F0" height="30.4883" rx="2.5" ry="2.5" style="stroke:#181818;stroke-width:0.5;" width="22.0527" x="92.6592" y="510.2148"/><text fill="#000000" font-family="sans-serif" font-size="14" lengthAdjust="spacing" textLength="8.0527" x="99.6592" y="530.75">B</text><rect fill="#E2E2F0" height="30.4883" rx="2.5" ry="2.5" style="stroke:#181818;stroke-width:0.5;" width="23.6865" x="160.7119" y="510.2148"/><text fill="#000000" font-family="sans-serif" font-size="14" lengthAdjust="spacing" textLength="9.6865" x="167.7119" y="530.75">C</text><polygon fill="#181818" points="91.6855,46.4883,101.6855,50.4883,91.6855,54.4883,95.6855,50.4883" style="stroke:#181818;stroke-width:1.0;"/><line style="stroke:#181818;stroke-width:1.0;" x1="34.8296" x2="97.6855" y1="50.4883" y2="50.4883"/><polygon fill="#181818" points="114.6855,46.4883,104.6855,50.4883,114.6855,54.4883,110.6855,50.4883" style="stroke:#181818;stroke-width:1.0;"/><line style="stroke:#181818;stroke-width:1.0;" x1="108.6855" x2="171.5552" y1="50.4883" y2="50.4883"/><rect fill="#EEEEEE" height="3" style="stroke:#EEEEEE;stroke-width:1.0;" width="197.3984" x="5" y="79.1436"/><line style="stroke:#000000;stroke-width:1.0;" x1="5" x2="202.3984" y1="79.1436" y2="79.1436"/><line style="stroke:#000000;stroke-width:1.0;" x1="5" x2="202.3984" y1="82.1436" y2="82.1436"/><rect fill="#EEEEEE" height="23.3105" style="stroke:#000000;stroke-width:2.0;" width="104.27" x="51.5642" y="68.4883"/><text fill="#000000" font-family="sans-serif" font-size="13" font-weight="bold" lengthAdjust="spacing" textLength="85.9854" x="57.5642" y="85.0566">short arrows</text><path d="M32.1821,105.7988 L99.3672,105.7988 L99.3672,113.1094 L89.3672,123.1094 L32.1821,123.1094 L32.1821,105.7988 " fill="none" style="stroke:#000000;stroke-width:1.5;"/><rect fill="none" height="56.6211" style="stroke:#000000;stroke-width:1.5;" width="143.0068" x="32.1821" y="105.7988"/><text fill="#000000" font-family="sans-serif" font-size="13" font-weight="bold" lengthAdjust="spacing" textLength="22.1851" x="47.1821" y="119.3672">opt</text><ellipse cx="53.6821" cy="153.6699" fill="none" rx="4" ry="4" style="stroke:#181818;stroke-width:1.5;"/><polygon fill="#181818" points="91.6855,150.4199,101.6855,154.4199,91.6855,158.4199,95.6855,154.4199" style="stroke:#181818;stroke-width:1.0;"/><line style="stroke:#181818;stroke-width:1.0;" x1="58.1821" x2="97.6855" y1="154.4199" y2="154.4199"/><text fill="#000000" font-family="sans-serif" font-size="13" lengthAdjust="spacing" textLength="31.5034" x="61.1821" y="149.6777">word</text><polygon fill="#181818" points="114.6855,150.4199,104.6855,154.4199,114.6855,158.4199,110.6855,154.4199" style="stroke:#181818;stroke-width:1.0;"/><ellipse cx="152.689" cy="153.6699" fill="none" rx="4" ry="4" style="stroke:#181818;stroke-width:1.5;"/><line style="stroke:#181818;stroke-width:1.0;" x1="108.6855" x2="148.189" y1="154.4199" y2="154.4199"/><text fill="#000000" font-family="sans-serif" font-size="13" lengthAdjust="spacing" textLength="31.5034" x="120.6855" y="149.6777">word</text><ellipse cx="53.6821" cy="196.9805" fill="none" rx="4" ry="4" style="stroke:#181818;stroke-width:1.5;"/><polygon fill="#181818" points="91.6855,193.7305,101.6855,197.7305,91.6855,201.7305,95.6855,197.7305" style="stroke:#181818;stroke-width:1.0;"/><line style="stroke:#181818;stroke-width:1.0;" x1="58.1821" x2="97.6855" y1="197.7305" y2="197.7305"/><text fill="#000000" font-family="sans-serif" font-size="13" lengthAdjust="spacing" textLength="31.5034" x="61.1821" y="192.9883">word</text><polygon fill="#181818" points="114.6855,193.7305,104.6855,197.7305,114.6855,201.7305,110.6855,197.7305" style="stroke:#181818;stroke-width:1.0;"/><ellipse cx="152.689" cy="196.9805" fill="none" rx="4" ry="4" style="stroke:#181818;stroke-width:1.5;"/><line style="stroke:#181818;stroke-width:1.0;" x1="108.6855" x2="148.189" y1="197.7305" y2="197.7305"/><text fill="#000000" font-family="sans-serif" font-size="13" lengthAdjust="spacing" textLength="31.5034" x="120.6855" y="192.9883">word</text><rect fill="#EEEEEE" height="3" style="stroke:#EEEEEE;stroke-width:1.0;" width="197.3984" x="5" y="226.3857"/><line style="stroke:#000000;stroke-width:1.0;" x1="5" x2="202.3984" y1="226.3857" y2="226.3857"/><line style="stroke:#000000;stroke-width:1.0;" x1="5" x2="202.3984" y1="229.3857" y2="229.3857"/><rect fill="#EEEEEE" height="23.3105" style="stroke:#000000;stroke-width:2.0;" width="120.7612" x="43.3186" y="215.7305"/><text fill="#000000" font-family="sans-serif" font-size="13" font-weight="bold" lengthAdjust="spacing" textLength="102.4766" x="49.3186" y="232.2988">left edge arrow</text><path d="M32.1821,253.041 L99.3672,253.041 L99.3672,260.3516 L89.3672,270.3516 L32.1821,270.3516 L32.1821,253.041 " fill="none" style="stroke:#000000;stroke-width:1.5;"/><rect fill="none" height="56.6211" style="stroke:#000000;stroke-width:1.5;" width="87.5034" x="32.1821" y="253.041"/><text fill="#000000" font-family="sans-serif" font-size="13" font-weight="bold" lengthAdjust="spacing" textLength="22.1851" x="47.1821" y="266.6094">opt</text><ellipse cx="10.5" cy="300.9121" fill="none" rx="4" ry="4" style="stroke:#181818;stroke-width:1.5;"/><polygon fill="#181818" points="91.6855,297.6621,101.6855,301.6621,91.6855,305.6621,95.6855,301.6621" style="stroke:#181818;stroke-width:1.0;"/><line style="stroke:#181818;stroke-width:1.0;" x1="15" x2="97.6855" y1="301.6621" y2="301.6621"/><text fill="#000000" font-family="sans-serif" font-size="13" lengthAdjust="spacing" textLength="31.5034" x="61.1821" y="296.9199">word</text><ellipse cx="10.5" cy="344.2227" fill="none" rx="4" ry="4" style="stroke:#181818;stroke-width:1.5;"/><polygon fill="#181818" points="91.6855,340.9727,101.6855,344.9727,91.6855,348.9727,95.6855,344.9727" style="stroke:#181818;stroke-width:1.0;"/><line style="stroke:#181818;stroke-width:1.0;" x1="15" x2="97.6855" y1="344.9727" y2="344.9727"/><text fill="#000000" font-family="sans-serif" font-size="13" lengthAdjust="spacing" textLength="31.5034" x="61.1821" y="340.2305">word</text><rect fill="#EEEEEE" height="3" style="stroke:#EEEEEE;stroke-width:1.0;" width="197.3984" x="5" y="373.6279"/><line style="stroke:#000000;stroke-width:1.0;" x1="5" x2="202.3984" y1="373.6279" y2="373.6279"/><line style="stroke:#000000;stroke-width:1.0;" x1="5" x2="202.3984" y1="376.6279" y2="376.6279"/><rect fill="#EEEEEE" height="23.3105" style="stroke:#000000;stroke-width:2.0;" width="126.4932" x="40.4526" y="362.9727"/><text fill="#000000" font-family="sans-serif" font-size="13" font-weight="bold" lengthAdjust="spacing" textLength="112.4932" x="46.4526" y="379.541">right edge arrow</text><path d="M87.6855,400.2832 L154.8706,400.2832 L154.8706,407.5938 L144.8706,417.5938 L87.6855,417.5938 L87.6855,400.2832 " fill="none" style="stroke:#000000;stroke-width:1.5;"/><rect fill="none" height="56.6211" style="stroke:#000000;stroke-width:1.5;" width="87.5034" x="87.6855" y="400.2832"/><text fill="#000000" font-family="sans-serif" font-size="13" font-weight="bold" lengthAdjust="spacing" textLength="22.1851" x="102.6855" y="413.8516">opt</text><polygon fill="#181818" points="114.6855,444.9043,104.6855,448.9043,114.6855,452.9043,110.6855,448.9043" style="stroke:#181818;stroke-width:1.0;"/><ellipse cx="195.8984" cy="448.1543" fill="none" rx="4" ry="4" style="stroke:#181818;stroke-width:1.5;"/><line style="stroke:#181818;stroke-width:1.0;" x1="108.6855" x2="191.3984" y1="448.9043" y2="448.9043"/><text fill="#000000" font-family="sans-serif" font-size="13" lengthAdjust="spacing" textLength="31.5034" x="120.6855" y="444.1621">word</text><polygon fill="#181818" points="114.6855,488.2148,104.6855,492.2148,114.6855,496.2148,110.6855,492.2148" style="stroke:#181818;stroke-width:1.0;"/><ellipse cx="195.8984" cy="491.4648" fill="none" rx="4" ry="4" style="stroke:#181818;stroke-width:1.5;"/><line style="stroke:#181818;stroke-width:1.0;" x1="108.6855" x2="191.3984" y1="492.2148" y2="492.2148"/><text fill="#000000" font-family="sans-serif" font-size="13" lengthAdjust="spacing" textLength="31.5034" x="120.6855" y="487.4727">word</text><!--SRC=[XSt12i8m40JGUxvYHF3MWpSHOx7-GE_YOJ4n3TeaR5OAVhqjLcYXu767dJUhnEHQWjZuXl3Bglpm8H5JYvfO_Cqd2bAJCJuuR7SAEA4ueb8RL3WKE2kjaPl80cAENORMAYPP2rF8lMI3g38E5UpHHJPZCvQ_smRpvwEVUDgxm1fdlpDBAvUPCQZpf5VOksRAB2ZZzdNgp98F]--></g></svg>