<svg xmlns="http://www.w3.org/2000/svg" xmlns:xlink="http://www.w3.org/1999/xlink" contentStyleType="text/css" height="415px" preserveAspectRatio="none" style="width:305px;height:415px;background:#FFFFFF;" version="1.1" viewBox="0 0 305 415" width="305px" zoomAndPan="magnify"><defs/><g><rect fill="#DDDDDD" height="403.4609" style="stroke:#181818;stroke-width:0.5;" width="68" x="50" y="6"/><rect fill="#FFC0CB" height="56.6211" style="stroke:#FFC0CB;stroke-width:1.0;" width="126" x="144" y="67.4883"/><rect fill="#20DD00" fill-opacity="0.56471" height="56.6211" style="stroke:#20DD0090;stroke-width:1.0;" width="202" x="68" y="216.7305"/><rect fill="#FFC0CB" height="56.6211" style="stroke:#FFC0CB;stroke-width:1.0;" width="202" x="68" y="291.3516"/><line style="stroke:#181818;stroke-width:0.5;stroke-dasharray:5.0,5.0;" x1="84" x2="84" y1="41.4883" y2="371.9727"/><line style="stroke:#181818;stroke-width:0.5;stroke-dasharray:5.0,5.0;" x1="203" x2="203" y1="41.4883" y2="371.9727"/><line style="stroke:#181818;stroke-width:0.5;stroke-dasharray:5.0,5.0;" x1="272" x2="272" y1="41.4883" y2="371.9727"/><rect fill="#E2E2F0" height="30.4883" rx="2.5" ry="2.5" style="stroke:#181818;stroke-width:0.5;" width="24" x="72" y="10"/><text fill="#000000" font-family="sans-serif" font-size="14" lengthAdjust="spacing" textLength="10" x="79" y="30.5352">A</text><rect fill="#E2E2F0" height="30.4883" rx="2.5" ry="2.5" style="stroke:#181818;stroke-width:0.5;" width="22" x="192" y="10"/><text fill="#000000" font-family="sans-serif" font-size="14" lengthAdjust="spacing" textLength="8" x="199" y="30.5352">B</text><rect fill="#E2E2F0" height="30.4883" rx="2.5" ry="2.5" style="stroke:#181818;stroke-width:0.5;" width="24" x="260" y="10"/><text fill="#000000" font-family="sans-serif" font-size="14" lengthAdjust="spacing" textLength="10" x="267" y="30.5352">C</text><rect fill="#E2E2F0" height="30.4883" rx="2.5" ry="2.5" style="stroke:#181818;stroke-width:0.5;" width="24" x="72" y="371.9727"/><text fill="#000000" font-family="sans-serif" font-size="14" lengthAdjust="spacing" textLength="10" x="79" y="392.5078">A</text><rect fill="#E2E2F0" height="30.4883" rx="2.5" ry="2.5" style="stroke:#181818;stroke-width:0.5;" width="22" x="192" y="371.9727"/><text fill="#000000" font-family="sans-serif" font-size="14" lengthAdjust="spacing" textLength="8" x="199" y="392.5078">B</text><rect fill="#E2E2F0" height="30.4883" rx="2.5" ry="2.5" style="stroke:#181818;stroke-width:0.5;" width="24" x="260" y="371.9727"/><text fill="#000000" font-family="sans-serif" font-size="14" lengthAdjust="spacing" textLength="10" x="267" y="392.5078">C</text><polygon fill="#181818" points="191,51.4883,201,55.4883,191,59.4883,195,55.4883" style="stroke:#181818;stroke-width:1.0;"/><line style="stroke:#181818;stroke-width:1.0;" x1="84" x2="197" y1="55.4883" y2="55.4883"/><polygon fill="#181818" points="260,51.4883,270,55.4883,260,59.4883,264,55.4883" style="stroke:#181818;stroke-width:1.0;"/><line style="stroke:#181818;stroke-width:1.0;" x1="203" x2="266" y1="55.4883" y2="55.4883"/><path d="M144,67.4883 L211,67.4883 L211,74.7988 L201,84.7988 L144,84.7988 L144,67.4883 " fill="none" style="stroke:#000000;stroke-width:1.5;"/><rect fill="none" height="56.6211" style="stroke:#000000;stroke-width:1.5;" width="126" x="144" y="67.4883"/><text fill="#000000" font-family="sans-serif" font-size="13" font-weight="bold" lengthAdjust="spacing" textLength="22" x="159" y="81.0566">opt</text><text fill="#000000" font-family="sans-serif" font-size="11" font-weight="bold" lengthAdjust="spacing" textLength="28" x="226" y="80.123">[bad]</text><ellipse cx="165.5" cy="115.3594" fill="none" rx="4" ry="4" style="stroke:#181818;stroke-width:1.5;"/><polygon fill="#181818" points="191,112.1094,201,116.1094,191,120.1094,195,116.1094" style="stroke:#181818;stroke-width:1.0;"/><line style="stroke:#181818;stroke-width:1.0;" x1="170" x2="197" y1="116.1094" y2="116.1094"/><text fill="#000000" font-family="sans-serif" font-size="13" lengthAdjust="spacing" textLength="19" x="173" y="111.3672">Pre</text><polygon fill="#181818" points="214,112.1094,204,116.1094,214,120.1094,210,116.1094" style="stroke:#181818;stroke-width:1.0;"/><ellipse cx="247.5" cy="115.3594" fill="none" rx="4" ry="4" style="stroke:#181818;stroke-width:1.5;"/><line style="stroke:#181818;stroke-width:1.0;" x1="208" x2="243" y1="116.1094" y2="116.1094"/><text fill="#000000" font-family="sans-serif" font-size="13" lengthAdjust="spacing" textLength="27" x="220" y="111.3672">yolo</text><path d="M8,142.1094 L75,142.1094 L75,149.4199 L65,159.4199 L8,159.4199 L8,142.1094 " fill="none" style="stroke:#000000;stroke-width:1.5;"/><rect fill="none" height="56.6211" style="stroke:#000000;stroke-width:1.5;" width="262" x="8" y="142.1094"/><text fill="#000000" font-family="sans-serif" font-size="13" font-weight="bold" lengthAdjust="spacing" textLength="22" x="23" y="155.6777">opt</text><text fill="#000000" font-family="sans-serif" font-size="11" font-weight="bold" lengthAdjust="spacing" textLength="52" x="90" y="154.7441">[expand?]</text><ellipse cx="10.5" cy="189.9805" fill="none" rx="4" ry="4" style="stroke:#181818;stroke-width:1.5;"/><polygon fill="#181818" points="191,186.7305,201,190.7305,191,194.7305,195,190.7305" style="stroke:#181818;stroke-width:1.0;"/><line style="stroke:#181818;stroke-width:1.0;" x1="15" x2="197" y1="190.7305" y2="190.7305"/><text fill="#000000" font-family="sans-serif" font-size="13" lengthAdjust="spacing" textLength="19" x="18" y="185.9883">Pre</text><polygon fill="#181818" points="214,186.7305,204,190.7305,214,194.7305,210,190.7305" style="stroke:#181818;stroke-width:1.0;"/><ellipse cx="247.5" cy="189.9805" fill="none" rx="4" ry="4" style="stroke:#181818;stroke-width:1.5;"/><line style="stroke:#181818;stroke-width:1.0;" x1="208" x2="243" y1="190.7305" y2="190.7305"/><text fill="#000000" font-family="sans-serif" font-size="13" lengthAdjust="spacing" textLength="27" x="220" y="185.9883">yolo</text><path d="M68,216.7305 L135,216.7305 L135,224.041 L125,234.041 L68,234.041 L68,216.7305 " fill="none" style="stroke:#000000;stroke-width:1.5;"/><rect fill="none" height="56.6211" style="stroke:#000000;stroke-width:1.5;" width="202" x="68" y="216.7305"/><text fill="#000000" font-family="sans-serif" font-size="13" font-weight="bold" lengthAdjust="spacing" textLength="22" x="83" y="230.2988">opt</text><text fill="#000000" font-family="sans-serif" font-size="11" font-weight="bold" lengthAdjust="spacing" textLength="25" x="150" y="229.3652">[OK]</text><ellipse cx="83.5" cy="264.6016" fill="none" rx="4" ry="4" style="stroke:#181818;stroke-width:1.5;"/><polygon fill="#181818" points="191,261.3516,201,265.3516,191,269.3516,195,265.3516" style="stroke:#181818;stroke-width:1.0;"/><line style="stroke:#181818;stroke-width:1.0;" x1="88" x2="197" y1="265.3516" y2="265.3516"/><polygon fill="#181818" points="214,261.3516,204,265.3516,214,269.3516,210,265.3516" style="stroke:#181818;stroke-width:1.0;"/><ellipse cx="247.5" cy="264.6016" fill="none" rx="4" ry="4" style="stroke:#181818;stroke-width:1.5;"/><line style="stroke:#181818;stroke-width:1.0;" x1="208" x2="243" y1="265.3516" y2="265.3516"/><text fill="#000000" font-family="sans-serif" font-size="13" lengthAdjust="spacing" textLength="27" x="220" y="260.6094">yolo</text><path d="M68,291.3516 L135,291.3516 L135,298.6621 L125,308.6621 L68,308.6621 L68,291.3516 " fill="none" style="stroke:#000000;stroke-width:1.5;"/><rect fill="none" height="56.6211" style="stroke:#000000;stroke-width:1.5;" width="202" x="68" y="291.3516"/><text fill="#000000" font-family="sans-serif" font-size="13" font-weight="bold" lengthAdjust="spacing" textLength="22" x="83" y="304.9199">opt</text><text fill="#000000" font-family="sans-serif" font-size="11" font-weight="bold" lengthAdjust="spacing" textLength="33" x="150" y="303.9863">[bad?]</text><ellipse cx="83.5" cy="339.2227" fill="none" rx="4" ry="4" style="stroke:#181818;stroke-width:1.5;"/><polygon fill="#181818" points="191,335.9727,201,339.9727,191,343.9727,195,339.9727" style="stroke:#181818;stroke-width:1.0;"/><line style="stroke:#181818;stroke-width:1.0;" x1="88" x2="197" y1="339.9727" y2="339.9727"/><polygon fill="#181818" points="214,335.9727,204,339.9727,214,343.9727,210,339.9727" style="stroke:#181818;stroke-width:1.0;"/><ellipse cx="295.5" cy="339.2227" fill="none" rx="4" ry="4" style="stroke:#181818;stroke-width:1.5;"/><line style="stroke:#181818;stroke-width:1.0;" x1="208" x2="291" y1="339.9727" y2="339.9727"/><text fill="#000000" font-family="sans-serif" font-size="13" lengthAdjust="spacing" textLength="27" x="220" y="335.2305">yolo</text><!--SRC=[hP0nRy8m48Nt-nMlYaIc29UfhQf613Q6PaSCHsq52_1PnaXfVtqlaKghqgbYiy_ttlVyxcBYxiZ8JZwGqzdHQUz3vCH7j9ooV_EHGsxPMXywt3_yU6-a_vhF36sbf_Yjm9nSi1Ycm1pL2ngQe1aE2vAOYvmud5JWTBU8FkonPOjfwSCOffnIBOCAJsYJ6xNFbTHwVPU3K3d10jLwvwrrOQEcAeKB1qwTW_eFPAY9XhZ2kLuJsfhMjm3ytcl-H1OpirmQysZmkXeBaKiZj_hLfSJw6h3v1-0J]--></g></svg>