<svg xmlns="http://www.w3.org/2000/svg" xmlns:xlink="http://www.w3.org/1999/xlink" contentStyleType="text/css" height="250px" preserveAspectRatio="none" style="width:488px;height:250px;background:#FFFFFF;" version="1.1" viewBox="0 0 488 250" width="488px" zoomAndPan="magnify"><defs/><g><text fill="#000000" font-family="sans-serif" font-size="14" font-weight="bold" lengthAdjust="spacing" textLength="114" x="193.5" y="28.5352">Par2 with Puma</text><rect fill="none" height="46.6211" style="stroke:#000000;stroke-width:1.5;" width="234.5" x="20" y="144.5977"/><line style="stroke:#181818;stroke-width:0.5;stroke-dasharray:5.0,5.0;" x1="53" x2="53" y1="73.9766" y2="215.2188"/><line style="stroke:#181818;stroke-width:0.5;stroke-dasharray:5.0,5.0;" x1="224.5" x2="224.5" y1="73.9766" y2="215.2188"/><line style="stroke:#181818;stroke-width:0.5;stroke-dasharray:5.0,5.0;" x1="395" x2="395" y1="73.9766" y2="215.2188"/><line style="stroke:#181818;stroke-width:0.5;stroke-dasharray:5.0,5.0;" x1="459" x2="459" y1="73.9766" y2="215.2188"/><rect fill="#E2E2F0" height="30.4883" rx="2.5" ry="2.5" style="stroke:#181818;stroke-width:0.5;" width="47" x="30" y="42.4883"/><text fill="#000000" font-family="sans-serif" font-size="14" lengthAdjust="spacing" textLength="33" x="37" y="63.0234">Alice</text><rect fill="#E2E2F0" height="30.4883" rx="2.5" ry="2.5" style="stroke:#181818;stroke-width:0.5;" width="47" x="30" y="214.2188"/><text fill="#000000" font-family="sans-serif" font-size="14" lengthAdjust="spacing" textLength="33" x="37" y="234.7539">Alice</text><rect fill="#E2E2F0" height="30.4883" rx="2.5" ry="2.5" style="stroke:#181818;stroke-width:0.5;" width="40" x="204.5" y="42.4883"/><text fill="#000000" font-family="sans-serif" font-size="14" lengthAdjust="spacing" textLength="26" x="211.5" y="63.0234">Bob</text><rect fill="#E2E2F0" height="30.4883" rx="2.5" ry="2.5" style="stroke:#181818;stroke-width:0.5;" width="40" x="204.5" y="214.2188"/><text fill="#000000" font-family="sans-serif" font-size="14" lengthAdjust="spacing" textLength="26" x="211.5" y="234.7539">Bob</text><rect fill="#E2E2F0" height="30.4883" rx="2.5" ry="2.5" style="stroke:#181818;stroke-width:0.5;" width="63" x="364" y="42.4883"/><text fill="#000000" font-family="sans-serif" font-size="14" lengthAdjust="spacing" textLength="49" x="371" y="63.0234">Charlie</text><rect fill="#E2E2F0" height="30.4883" rx="2.5" ry="2.5" style="stroke:#181818;stroke-width:0.5;" width="63" x="364" y="214.2188"/><text fill="#000000" font-family="sans-serif" font-size="14" lengthAdjust="spacing" textLength="49" x="371" y="234.7539">Charlie</text><rect fill="#E2E2F0" height="30.4883" rx="2.5" ry="2.5" style="stroke:#181818;stroke-width:0.5;" width="45" x="437" y="42.4883"/><text fill="#000000" font-family="sans-serif" font-size="14" lengthAdjust="spacing" textLength="31" x="444" y="63.0234">Sally</text><rect fill="#E2E2F0" height="30.4883" rx="2.5" ry="2.5" style="stroke:#181818;stroke-width:0.5;" width="45" x="437" y="214.2188"/><text fill="#000000" font-family="sans-serif" font-size="14" lengthAdjust="spacing" textLength="31" x="444" y="234.7539">Sally</text><polygon fill="#181818" points="212.5,125.5977,222.5,129.5977,212.5,133.5977,216.5,129.5977" style="stroke:#181818;stroke-width:1.0;"/><line style="stroke:#181818;stroke-width:1.0;" x1="53.5" x2="218.5" y1="129.5977" y2="129.5977"/><text fill="#000000" font-family="sans-serif" font-size="13" lengthAdjust="spacing" textLength="147" x="60.5" y="124.8555">Authentication Request</text><polygon fill="#181818" points="383.5,154.9082,393.5,158.9082,383.5,162.9082,387.5,158.9082" style="stroke:#181818;stroke-width:1.0;"/><line style="stroke:#181818;stroke-width:1.0;" x1="224.5" x2="389.5" y1="158.9082" y2="158.9082"/><text fill="#000000" font-family="sans-serif" font-size="13" lengthAdjust="spacing" textLength="36" x="231.5" y="154.166">b to c</text><polygon fill="#181818" points="235.5,125.5977,225.5,129.5977,235.5,133.5977,231.5,129.5977" style="stroke:#181818;stroke-width:1.0;"/><line style="stroke:#181818;stroke-width:1.0;" x1="229.5" x2="394.5" y1="129.5977" y2="129.5977"/><text fill="#000000" font-family="sans-serif" font-size="13" lengthAdjust="spacing" textLength="147" x="241.5" y="124.8555">Authentication Request</text><path d="M20,144.5977 L82,144.5977 L82,151.9082 L72,161.9082 L20,161.9082 L20,144.5977 " fill="#EEEEEE" style="stroke:#000000;stroke-width:1.5;"/><rect fill="none" height="46.6211" style="stroke:#000000;stroke-width:1.5;" width="234.5" x="20" y="144.5977"/><text fill="#000000" font-family="sans-serif" font-size="13" font-weight="bold" lengthAdjust="spacing" textLength="17" x="35" y="158.166">alt</text><text fill="#000000" font-family="sans-serif" font-size="11" font-weight="bold" lengthAdjust="spacing" textLength="28" x="97" y="157.2324">[test]</text><polygon fill="#181818" points="212.5,179.2188,222.5,183.2188,212.5,187.2188,216.5,183.2188" style="stroke:#181818;stroke-width:1.0;"/><line style="stroke:#181818;stroke-width:1.0;" x1="53.5" x2="218.5" y1="183.2188" y2="183.2188"/><text fill="#000000" font-family="sans-serif" font-size="13" lengthAdjust="spacing" textLength="34" x="60.5" y="178.4766">again</text><polygon fill="#181818" points="447.5,125.5977,457.5,129.5977,447.5,133.5977,451.5,129.5977" style="stroke:#181818;stroke-width:1.0;"/><line style="stroke:#181818;stroke-width:1.0;" x1="395.5" x2="453.5" y1="129.5977" y2="129.5977"/><text fill="#000000" font-family="sans-serif" font-size="13" lengthAdjust="spacing" textLength="16" x="402.5" y="124.8555">hi!</text><!--SRC=[XSun3i8m38NXFQTudPXO63iW5IvGmGdSOZMMtAG4HmXEJwA2XCI0Lt_wRHDJHazfXxkOHvzdSfjcIJJD1EFuXANCRYd2eKwdCZAsUnpYqABBvZcOZ6GI0qvypNopLHPGtT5JKc6q660HesEzyIhUgpynKYkVVAhVzqkJ9fBWE5n-inMTIVLHc9UceXS0]--></g></svg>