<svg xmlns="http://www.w3.org/2000/svg" xmlns:xlink="http://www.w3.org/1999/xlink" contentStyleType="text/css" height="200px" preserveAspectRatio="none" style="width:143px;height:200px;background:#FFFFFF;" version="1.1" viewBox="0 0 143 200" width="143px" zoomAndPan="magnify"><defs/><g><line style="stroke:#181818;stroke-width:0.5;stroke-dasharray:5.0,5.0;" x1="16.5" x2="16.5" y1="36.4883" y2="164.1094"/><rect fill="#FFFFFF" height="54.3105" style="stroke:#181818;stroke-width:1.0;" width="10" x="11.5" y="78.7988"/><rect fill="#FFFFFF" height="54.3105" style="stroke:#181818;stroke-width:1.0;" width="10" x="16.5" y="78.7988"/><rect fill="#FFFFFF" height="54.3105" style="stroke:#181818;stroke-width:1.0;" width="10" x="21.5" y="78.7988"/><rect fill="#E2E2F0" height="30.4883" rx="2.5" ry="2.5" style="stroke:#181818;stroke-width:0.5;" width="23" x="5" y="5"/><text fill="#000000" font-family="sans-serif" font-size="14" lengthAdjust="spacing" textLength="9" x="12" y="25.5352">1</text><rect fill="#E2E2F0" height="30.4883" rx="2.5" ry="2.5" style="stroke:#181818;stroke-width:0.5;" width="23" x="5" y="164.1094"/><text fill="#000000" font-family="sans-serif" font-size="14" lengthAdjust="spacing" textLength="9" x="12" y="184.6445">1</text><ellipse cx="16" cy="65.0488" fill="none" rx="4" ry="4" style="stroke:#181818;stroke-width:1.5;"/><line style="stroke:#181818;stroke-width:1.0;" x1="20.5" x2="73.5" y1="65.7988" y2="65.7988"/><line style="stroke:#181818;stroke-width:1.0;" x1="73.5" x2="73.5" y1="65.7988" y2="78.7988"/><line style="stroke:#181818;stroke-width:1.0;" x1="32.5" x2="73.5" y1="78.7988" y2="78.7988"/><polygon fill="#181818" points="42.5,74.7988,32.5,78.7988,42.5,82.7988,38.5,78.7988" style="stroke:#181818;stroke-width:1.0;"/><text fill="#000000" font-family="sans-serif" font-size="13" lengthAdjust="spacing" textLength="98" x="38.5" y="61.0566">actor1 activity1</text><ellipse cx="31" cy="132.3594" fill="none" rx="4" ry="4" style="stroke:#181818;stroke-width:1.5;"/><line style="stroke:#181818;stroke-width:1.0;" x1="35.5" x2="73.5" y1="133.1094" y2="133.1094"/><line style="stroke:#181818;stroke-width:1.0;" x1="73.5" x2="73.5" y1="133.1094" y2="146.1094"/><line style="stroke:#181818;stroke-width:1.0;" x1="16.5" x2="73.5" y1="146.1094" y2="146.1094"/><polygon fill="#181818" points="26.5,142.1094,16.5,146.1094,26.5,150.1094,22.5,146.1094" style="stroke:#181818;stroke-width:1.0;"/><text fill="#000000" font-family="sans-serif" font-size="13" lengthAdjust="spacing" textLength="98" x="38.5" y="128.3672">actor1 activity2</text><!--SRC=[KomeIapFJLGeISslKYWfAatbuk8oLCZNjLCmj598J2x9Bp84KPbbcIMLXbnWLc99gW8kPasDaMbD3MuZZBXIKf6Ku-G00000]--></g></svg>