<svg xmlns="http://www.w3.org/2000/svg" xmlns:xlink="http://www.w3.org/1999/xlink" contentStyleType="text/css" height="330px" preserveAspectRatio="none" style="width:226px;height:330px;background:#FFFFFF;" version="1.1" viewBox="0 0 226 330" width="226px" zoomAndPan="magnify"><defs/><g><line style="stroke:#181818;stroke-width:0.5;stroke-dasharray:5.0,5.0;" x1="39.2959" x2="39.2959" y1="36.4883" y2="293.6621"/><line style="stroke:#181818;stroke-width:0.5;stroke-dasharray:5.0,5.0;" x1="138.2793" x2="138.2793" y1="36.4883" y2="293.6621"/><rect fill="#E2E2F0" height="30.4883" rx="2.5" ry="2.5" style="stroke:#181818;stroke-width:0.5;" width="68.5918" x="5" y="5"/><text fill="#000000" font-family="sans-serif" font-size="14" lengthAdjust="spacing" textLength="54.5918" x="12" y="25.5352">browser</text><rect fill="#E2E2F0" height="30.4883" rx="2.5" ry="2.5" style="stroke:#181818;stroke-width:0.5;" width="109.375" x="83.5918" y="5"/><text fill="#000000" font-family="sans-serif" font-size="14" lengthAdjust="spacing" textLength="95.375" x="90.5918" y="25.5352">ssl_server.exe</text><rect fill="#E2E2F0" height="30.4883" rx="2.5" ry="2.5" style="stroke:#181818;stroke-width:0.5;" width="68.5918" x="5" y="293.6621"/><text fill="#000000" font-family="sans-serif" font-size="14" lengthAdjust="spacing" textLength="54.5918" x="12" y="314.1973">browser</text><rect fill="#E2E2F0" height="30.4883" rx="2.5" ry="2.5" style="stroke:#181818;stroke-width:0.5;" width="109.375" x="83.5918" y="293.6621"/><text fill="#000000" font-family="sans-serif" font-size="14" lengthAdjust="spacing" textLength="95.375" x="90.5918" y="314.1973">ssl_server.exe</text><polygon fill="#181818" points="126.2793,61.7988,136.2793,65.7988,126.2793,69.7988,130.2793,65.7988" style="stroke:#181818;stroke-width:1.0;"/><line style="stroke:#181818;stroke-width:1.0;" x1="39.2959" x2="132.2793" y1="65.7988" y2="65.7988"/><text fill="#000000" font-family="sans-serif" font-size="13" lengthAdjust="spacing" textLength="8.2202" x="46.2959" y="61.0566">1</text><polygon fill="#181818" points="126.2793,91.1094,136.2793,95.1094,126.2793,99.1094,130.2793,95.1094" style="stroke:#181818;stroke-width:1.0;"/><line style="stroke:#181818;stroke-width:1.0;" x1="39.2959" x2="132.2793" y1="95.1094" y2="95.1094"/><text fill="#000000" font-family="sans-serif" font-size="13" lengthAdjust="spacing" textLength="8.2202" x="46.2959" y="90.3672">2</text><polygon fill="#181818" points="126.2793,120.4199,136.2793,124.4199,126.2793,128.4199,130.2793,124.4199" style="stroke:#181818;stroke-width:1.0;"/><line style="stroke:#181818;stroke-width:1.0;" x1="39.2959" x2="132.2793" y1="124.4199" y2="124.4199"/><text fill="#000000" font-family="sans-serif" font-size="13" lengthAdjust="spacing" textLength="8.2202" x="46.2959" y="119.6777">3</text><polygon fill="#181818" points="126.2793,149.7305,136.2793,153.7305,126.2793,157.7305,130.2793,153.7305" style="stroke:#181818;stroke-width:1.0;"/><line style="stroke:#181818;stroke-width:1.0;" x1="39.2959" x2="132.2793" y1="153.7305" y2="153.7305"/><text fill="#000000" font-family="sans-serif" font-size="13" lengthAdjust="spacing" textLength="8.2202" x="46.2959" y="148.9883">4</text><polygon fill="#181818" points="126.2793,179.041,136.2793,183.041,126.2793,187.041,130.2793,183.041" style="stroke:#181818;stroke-width:1.0;"/><line style="stroke:#181818;stroke-width:1.0;" x1="39.2959" x2="132.2793" y1="183.041" y2="183.041"/><text fill="#000000" font-family="sans-serif" font-size="13" lengthAdjust="spacing" textLength="8.2202" x="46.2959" y="178.2988">5</text><path d="M23.2959,195.041 L204.5991,195.041 L204.5991,202.3516 L194.5991,212.3516 L23.2959,212.3516 L23.2959,195.041 " fill="#EEEEEE" style="stroke:#000000;stroke-width:1.5;"/><rect fill="none" height="56.6211" style="stroke:#000000;stroke-width:1.5;" width="197.3032" x="23.2959" y="195.041"/><text fill="#000000" font-family="sans-serif" font-size="13" font-weight="bold" lengthAdjust="spacing" textLength="136.3032" x="38.2959" y="208.6094">SSL Application data</text><polygon fill="#181818" points="126.2793,239.6621,136.2793,243.6621,126.2793,247.6621,130.2793,243.6621" style="stroke:#181818;stroke-width:1.0;"/><line style="stroke:#181818;stroke-width:1.0;" x1="39.2959" x2="132.2793" y1="243.6621" y2="243.6621"/><text fill="#000000" font-family="sans-serif" font-size="13" lengthAdjust="spacing" textLength="11.8257" x="46.2959" y="238.9199">in</text><line style="stroke:#181818;stroke-width:2.0;" x1="30.2959" x2="48.2959" y1="265.6621" y2="283.6621"/><line style="stroke:#181818;stroke-width:2.0;" x1="30.2959" x2="48.2959" y1="283.6621" y2="265.6621"/><!--SRC=[VSox2i9048NXVfxYMANIuAsn4EpjyW1XT8Um47UNsOaQdzuKbZBTWO_phuhoy62Ov0zC9o6wQNvLKQpFg7Nib_aKtSXRSCBMrPshUrSFhXw9QD0y5NJT5PTIndXdYpaXiB5xZOaa1RJDtokQTaa7gQPvngz3Nm00]--></g></svg>