<svg xmlns="http://www.w3.org/2000/svg" xmlns:xlink="http://www.w3.org/1999/xlink" contentStyleType="text/css" height="175px" preserveAspectRatio="none" style="width:73px;height:175px;background:#FFFFFF;" version="1.1" viewBox="0 0 73 175" width="73px" zoomAndPan="magnify"><defs/><g><line style="stroke:#181818;stroke-width:0.5;stroke-dasharray:5.0,5.0;" x1="16" x2="16" y1="36.4883" y2="139.1094"/><rect fill="#FFFFFF" height="29.3105" style="stroke:#181818;stroke-width:1.0;" width="10" x="11" y="78.7988"/><rect fill="#E2E2F0" height="30.4883" rx="2.5" ry="2.5" style="stroke:#181818;stroke-width:0.5;" width="22" x="5" y="5"/><text fill="#000000" font-family="sans-serif" font-size="14" lengthAdjust="spacing" textLength="8" x="12" y="25.5352">a</text><rect fill="#E2E2F0" height="30.4883" rx="2.5" ry="2.5" style="stroke:#181818;stroke-width:0.5;" width="22" x="5" y="139.1094"/><text fill="#000000" font-family="sans-serif" font-size="14" lengthAdjust="spacing" textLength="8" x="12" y="159.6445">a</text><line style="stroke:#181818;stroke-width:1.0;" x1="16" x2="63" y1="65.7988" y2="65.7988"/><line style="stroke:#181818;stroke-width:1.0;" x1="63" x2="63" y1="65.7988" y2="78.7988"/><line style="stroke:#181818;stroke-width:1.0;" x1="22" x2="63" y1="78.7988" y2="78.7988"/><polygon fill="#181818" points="32,74.7988,22,78.7988,32,82.7988,28,78.7988" style="stroke:#181818;stroke-width:1.0;"/><text fill="#000000" font-family="sans-serif" font-size="13" lengthAdjust="spacing" textLength="22" x="28" y="61.0566">call</text><line style="stroke:#181818;stroke-width:1.0;" x1="21" x2="63" y1="108.1094" y2="108.1094"/><line style="stroke:#181818;stroke-width:1.0;" x1="63" x2="63" y1="108.1094" y2="121.1094"/><line style="stroke:#181818;stroke-width:1.0;" x1="16" x2="63" y1="121.1094" y2="121.1094"/><polygon fill="#181818" points="26,117.1094,16,121.1094,26,125.1094,22,121.1094" style="stroke:#181818;stroke-width:1.0;"/><text fill="#000000" font-family="sans-serif" font-size="13" lengthAdjust="spacing" textLength="38" x="28" y="103.3672">return</text><!--SRC=[KomeIapFJLGeISslKYWfAatbIbJGjLD8LD3Mjb98Jip9WV5rTQqKYb9BIelo0000]--></g></svg>