<svg xmlns="http://www.w3.org/2000/svg" xmlns:xlink="http://www.w3.org/1999/xlink" contentStyleType="text/css" height="268px" preserveAspectRatio="none" style="width:345px;height:268px;background:#FFFFFF;" version="1.1" viewBox="0 0 345 268" width="345px" zoomAndPan="magnify"><defs/><g><line style="stroke:#181818;stroke-width:0.5;stroke-dasharray:5.0,5.0;" x1="24" x2="24" y1="36.4883" y2="231.6855"/><line style="stroke:#181818;stroke-width:0.5;stroke-dasharray:5.0,5.0;" x1="103" x2="103" y1="36.4883" y2="231.6855"/><line style="stroke:#181818;stroke-width:0.5;stroke-dasharray:5.0,5.0;" x1="193" x2="193" y1="36.4883" y2="231.6855"/><line style="stroke:#181818;stroke-width:0.5;stroke-dasharray:5.0,5.0;" x1="272" x2="272" y1="36.4883" y2="231.6855"/><rect fill="#E2E2F0" height="30.4883" rx="2.5" ry="2.5" style="stroke:#181818;stroke-width:0.5;" width="24" x="12" y="5"/><text fill="#000000" font-family="sans-serif" font-size="14" lengthAdjust="spacing" textLength="10" x="19" y="25.5352">A</text><rect fill="#E2E2F0" height="30.4883" rx="2.5" ry="2.5" style="stroke:#181818;stroke-width:0.5;" width="22" x="92" y="5"/><text fill="#000000" font-family="sans-serif" font-size="14" lengthAdjust="spacing" textLength="8" x="99" y="25.5352">B</text><rect fill="#E2E2F0" height="30.4883" rx="2.5" ry="2.5" style="stroke:#181818;stroke-width:0.5;" width="24" x="181" y="5"/><text fill="#000000" font-family="sans-serif" font-size="14" lengthAdjust="spacing" textLength="10" x="188" y="25.5352">C</text><rect fill="#E2E2F0" height="30.4883" rx="2.5" ry="2.5" style="stroke:#181818;stroke-width:0.5;" width="24" x="260" y="5"/><text fill="#000000" font-family="sans-serif" font-size="14" lengthAdjust="spacing" textLength="10" x="267" y="25.5352">D</text><rect fill="#E2E2F0" height="30.4883" rx="2.5" ry="2.5" style="stroke:#181818;stroke-width:0.5;" width="24" x="12" y="231.6855"/><text fill="#000000" font-family="sans-serif" font-size="14" lengthAdjust="spacing" textLength="10" x="19" y="252.2207">A</text><rect fill="#E2E2F0" height="30.4883" rx="2.5" ry="2.5" style="stroke:#181818;stroke-width:0.5;" width="22" x="92" y="231.6855"/><text fill="#000000" font-family="sans-serif" font-size="14" lengthAdjust="spacing" textLength="8" x="99" y="252.2207">B</text><rect fill="#E2E2F0" height="30.4883" rx="2.5" ry="2.5" style="stroke:#181818;stroke-width:0.5;" width="24" x="181" y="231.6855"/><text fill="#000000" font-family="sans-serif" font-size="14" lengthAdjust="spacing" textLength="10" x="188" y="252.2207">C</text><rect fill="#E2E2F0" height="30.4883" rx="2.5" ry="2.5" style="stroke:#181818;stroke-width:0.5;" width="24" x="260" y="231.6855"/><text fill="#000000" font-family="sans-serif" font-size="14" lengthAdjust="spacing" textLength="10" x="267" y="252.2207">D</text><path d="M8,48.4883 L70,48.4883 L70,55.7988 L60,65.7988 L8,65.7988 L8,48.4883 " fill="#EEEEEE" style="stroke:#000000;stroke-width:1.5;"/><rect fill="none" height="129.8867" style="stroke:#000000;stroke-width:1.5;" width="161" x="8" y="48.4883"/><text fill="#000000" font-family="sans-serif" font-size="13" font-weight="bold" lengthAdjust="spacing" textLength="17" x="23" y="62.0566">alt</text><line style="stroke:#000000;stroke-width:1.0;stroke-dasharray:2.0,2.0;" x1="8" x2="169" y1="116.1094" y2="116.1094"/><text fill="#000000" font-family="sans-serif" font-size="11" font-weight="bold" lengthAdjust="spacing" textLength="47" x="13" y="128.7441">[default]</text><polygon fill="#181818" points="91,93.1094,101,97.1094,91,101.1094,95,97.1094" style="stroke:#181818;stroke-width:1.0;"/><line style="stroke:#181818;stroke-width:1.0;" x1="24" x2="97" y1="97.1094" y2="97.1094"/><text fill="#000000" font-family="sans-serif" font-size="13" lengthAdjust="spacing" textLength="55" x="31" y="92.3672">message</text><line style="stroke:#181818;stroke-width:1.0;" x1="103" x2="145" y1="157.375" y2="157.375"/><line style="stroke:#181818;stroke-width:1.0;" x1="145" x2="145" y1="157.375" y2="170.375"/><line style="stroke:#181818;stroke-width:1.0;" x1="104" x2="145" y1="170.375" y2="170.375"/><polygon fill="#181818" points="114,166.375,104,170.375,114,174.375,110,170.375" style="stroke:#181818;stroke-width:1.0;"/><text fill="#000000" font-family="sans-serif" font-size="13" lengthAdjust="spacing" textLength="33" x="110" y="152.6328">other</text><path d="M177,48.4883 L239,48.4883 L239,55.7988 L229,65.7988 L177,65.7988 L177,48.4883 " fill="#EEEEEE" style="stroke:#000000;stroke-width:1.5;"/><rect fill="none" height="129.8867" style="stroke:#000000;stroke-width:1.5;" width="161" x="177" y="48.4883"/><text fill="#000000" font-family="sans-serif" font-size="13" font-weight="bold" lengthAdjust="spacing" textLength="17" x="192" y="62.0566">alt</text><line style="stroke:#000000;stroke-width:1.0;stroke-dasharray:2.0,2.0;" x1="177" x2="338" y1="116.1094" y2="116.1094"/><text fill="#000000" font-family="sans-serif" font-size="11" font-weight="bold" lengthAdjust="spacing" textLength="47" x="182" y="128.7441">[default]</text><polygon fill="#181818" points="260,93.1094,270,97.1094,260,101.1094,264,97.1094" style="stroke:#181818;stroke-width:1.0;"/><line style="stroke:#181818;stroke-width:1.0;" x1="193" x2="266" y1="97.1094" y2="97.1094"/><text fill="#000000" font-family="sans-serif" font-size="13" lengthAdjust="spacing" textLength="55" x="200" y="92.3672">message</text><line style="stroke:#181818;stroke-width:1.0;" x1="272" x2="314" y1="157.375" y2="157.375"/><line style="stroke:#181818;stroke-width:1.0;" x1="314" x2="314" y1="157.375" y2="170.375"/><line style="stroke:#181818;stroke-width:1.0;" x1="273" x2="314" y1="170.375" y2="170.375"/><polygon fill="#181818" points="283,166.375,273,170.375,283,174.375,279,170.375" style="stroke:#181818;stroke-width:1.0;"/><text fill="#000000" font-family="sans-serif" font-size="13" lengthAdjust="spacing" textLength="33" x="279" y="152.6328">other</text><!--SRC=[ZOv12eCm44NtESNKHLpb0Yw4njoYT36GgHRKI18tFNrDKg535Vet-P37-tDPFFOJGYJtWkXN4ZLiSKii9UMgMjt0H25W__cdsPOYETgfrXoXfUBujvMX9rQnEu-L6Hi3WQK7hb-OpfYB0tcnkz9RoxG41hX3iWr-o-c6oTZlXWPr6vxMqdpVfhe6Ac2fn1i0]--></g></svg>