<svg xmlns="http://www.w3.org/2000/svg" xmlns:xlink="http://www.w3.org/1999/xlink" contentStyleType="text/css" height="190px" preserveAspectRatio="none" style="width:711px;height:190px;background:#FFFFFF;" version="1.1" viewBox="0 0 711 190" width="711px" zoomAndPan="magnify"><defs/><g><line style="stroke:#181818;stroke-width:0.5;stroke-dasharray:5.0,5.0;" x1="27" x2="27" y1="36.4883" y2="154.4199"/><line style="stroke:#181818;stroke-width:0.5;stroke-dasharray:5.0,5.0;" x1="135" x2="135" y1="36.4883" y2="154.4199"/><rect fill="#FFFFFF" height="29.3105" style="stroke:#181818;stroke-width:1.0;" width="10" x="130" y="65.7988"/><line style="stroke:#181818;stroke-width:0.5;stroke-dasharray:5.0,5.0;" x1="243" x2="243" y1="36.4883" y2="154.4199"/><rect fill="#FFFFFF" height="35.3105" style="stroke:#181818;stroke-width:1.0;" width="10" x="238" y="95.1094"/><line style="stroke:#181818;stroke-width:0.5;stroke-dasharray:5.0,5.0;" x1="346" x2="346" y1="36.4883" y2="154.4199"/><line style="stroke:#181818;stroke-width:0.5;stroke-dasharray:5.0,5.0;" x1="394" x2="394" y1="36.4883" y2="154.4199"/><rect fill="#FFFFFF" height="19" style="stroke:#181818;stroke-width:1.0;" width="10" x="389" y="130.4199"/><line style="stroke:#181818;stroke-width:0.5;stroke-dasharray:5.0,5.0;" x1="469" x2="469" y1="36.4883" y2="154.4199"/><rect fill="#E2E2F0" height="30.4883" rx="2.5" ry="2.5" style="stroke:#181818;stroke-width:0.5;" width="44" x="5" y="5"/><text fill="#000000" font-family="sans-serif" font-size="14" lengthAdjust="spacing" textLength="30" x="12" y="25.5352">AAA</text><rect fill="#E2E2F0" height="30.4883" rx="2.5" ry="2.5" style="stroke:#181818;stroke-width:0.5;" width="38" x="116" y="5"/><text fill="#000000" font-family="sans-serif" font-size="14" lengthAdjust="spacing" textLength="24" x="123" y="25.5352">BBB</text><rect fill="#E2E2F0" height="30.4883" rx="2.5" ry="2.5" style="stroke:#181818;stroke-width:0.5;" width="44" x="221" y="5"/><text fill="#000000" font-family="sans-serif" font-size="14" lengthAdjust="spacing" textLength="30" x="228" y="25.5352">DDD</text><rect fill="#E2E2F0" height="30.4883" rx="2.5" ry="2.5" style="stroke:#181818;stroke-width:0.5;" width="38" x="327" y="5"/><text fill="#000000" font-family="sans-serif" font-size="14" lengthAdjust="spacing" textLength="24" x="334" y="25.5352">EEE</text><rect fill="#E2E2F0" height="30.4883" rx="2.5" ry="2.5" style="stroke:#181818;stroke-width:0.5;" width="38" x="375" y="5"/><text fill="#000000" font-family="sans-serif" font-size="14" lengthAdjust="spacing" textLength="24" x="382" y="25.5352">FFF</text><rect fill="#E2E2F0" height="30.4883" rx="2.5" ry="2.5" style="stroke:#181818;stroke-width:0.5;" width="44" x="447" y="5"/><text fill="#000000" font-family="sans-serif" font-size="14" lengthAdjust="spacing" textLength="30" x="454" y="25.5352">GGG</text><rect fill="#E2E2F0" height="30.4883" rx="2.5" ry="2.5" style="stroke:#181818;stroke-width:0.5;" width="44" x="5" y="154.4199"/><text fill="#000000" font-family="sans-serif" font-size="14" lengthAdjust="spacing" textLength="30" x="12" y="174.9551">AAA</text><rect fill="#E2E2F0" height="30.4883" rx="2.5" ry="2.5" style="stroke:#181818;stroke-width:0.5;" width="38" x="116" y="154.4199"/><text fill="#000000" font-family="sans-serif" font-size="14" lengthAdjust="spacing" textLength="24" x="123" y="174.9551">BBB</text><rect fill="#E2E2F0" height="30.4883" rx="2.5" ry="2.5" style="stroke:#181818;stroke-width:0.5;" width="44" x="221" y="154.4199"/><text fill="#000000" font-family="sans-serif" font-size="14" lengthAdjust="spacing" textLength="30" x="228" y="174.9551">DDD</text><rect fill="#E2E2F0" height="30.4883" rx="2.5" ry="2.5" style="stroke:#181818;stroke-width:0.5;" width="38" x="327" y="154.4199"/><text fill="#000000" font-family="sans-serif" font-size="14" lengthAdjust="spacing" textLength="24" x="334" y="174.9551">EEE</text><rect fill="#E2E2F0" height="30.4883" rx="2.5" ry="2.5" style="stroke:#181818;stroke-width:0.5;" width="38" x="375" y="154.4199"/><text fill="#000000" font-family="sans-serif" font-size="14" lengthAdjust="spacing" textLength="24" x="382" y="174.9551">FFF</text><rect fill="#E2E2F0" height="30.4883" rx="2.5" ry="2.5" style="stroke:#181818;stroke-width:0.5;" width="44" x="447" y="154.4199"/><text fill="#000000" font-family="sans-serif" font-size="14" lengthAdjust="spacing" textLength="30" x="454" y="174.9551">GGG</text><polygon fill="#181818" points="118,61.7988,128,65.7988,118,69.7988,122,65.7988" style="stroke:#181818;stroke-width:1.0;"/><line style="stroke:#181818;stroke-width:1.0;" x1="27" x2="124" y1="65.7988" y2="65.7988"/><text fill="#000000" font-family="sans-serif" font-size="13" font-weight="bold" lengthAdjust="spacing" textLength="9" x="34" y="61.0566">1</text><text fill="#000000" font-family="sans-serif" font-size="13" lengthAdjust="spacing" textLength="66" x="47" y="61.0566">Message 0</text><polygon fill="#22A722" points="226,91.1094,236,95.1094,226,99.1094,230,95.1094" style="stroke:#22A722;stroke-width:1.0;"/><line style="stroke:#22A722;stroke-width:1.0;" x1="140" x2="232" y1="95.1094" y2="95.1094"/><text fill="#000000" font-family="sans-serif" font-size="13" font-weight="bold" lengthAdjust="spacing" textLength="9" x="147" y="90.3672">2</text><text fill="#000000" font-family="sans-serif" font-size="13" lengthAdjust="spacing" textLength="66" x="160" y="90.3672">Message 1</text><polygon fill="#181818" points="334,91.1094,344,95.1094,334,99.1094,338,95.1094" style="stroke:#181818;stroke-width:1.0;"/><line style="stroke:#181818;stroke-width:1.0;" x1="248" x2="340" y1="95.1094" y2="95.1094"/><text fill="#000000" font-family="sans-serif" font-size="13" font-weight="bold" lengthAdjust="spacing" textLength="9" x="255" y="90.3672">3</text><text fill="#000000" font-family="sans-serif" font-size="13" lengthAdjust="spacing" textLength="66" x="268" y="90.3672">Message 2</text><path d="M351,78.7988 L351,103.7988 L581,103.7988 L581,88.7988 L571,78.7988 L351,78.7988 " fill="#FF0000" style="stroke:#181818;stroke-width:0.5;"/><path d="M571,78.7988 L571,88.7988 L581,88.7988 L571,78.7988 " fill="#FF0000" style="stroke:#181818;stroke-width:0.5;"/><text fill="#000000" font-family="sans-serif" font-size="13" lengthAdjust="spacing" textLength="209" x="357" y="96.3672">&lt;-- Expect 1 &amp; 2 to be same row</text><polygon fill="#22A722" points="377,126.4199,387,130.4199,377,134.4199,381,130.4199" style="stroke:#22A722;stroke-width:1.0;"/><line style="stroke:#22A722;stroke-width:1.0;" x1="248" x2="383" y1="130.4199" y2="130.4199"/><text fill="#000000" font-family="sans-serif" font-size="13" font-weight="bold" lengthAdjust="spacing" textLength="9" x="255" y="125.6777">4</text><text fill="#000000" font-family="sans-serif" font-size="13" lengthAdjust="spacing" textLength="38" x="268" y="125.6777">Msg 3</text><polygon fill="#181818" points="457,126.4199,467,130.4199,457,134.4199,461,130.4199" style="stroke:#181818;stroke-width:1.0;"/><line style="stroke:#181818;stroke-width:1.0;" x1="399" x2="463" y1="130.4199" y2="130.4199"/><text fill="#000000" font-family="sans-serif" font-size="13" font-weight="bold" lengthAdjust="spacing" textLength="9" x="406" y="125.6777">5</text><text fill="#000000" font-family="sans-serif" font-size="13" lengthAdjust="spacing" textLength="38" x="419" y="125.6777">Msg 4</text><path d="M474,114.1094 L474,139.1094 L704,139.1094 L704,124.1094 L694,114.1094 L474,114.1094 " fill="#FF0000" style="stroke:#181818;stroke-width:0.5;"/><path d="M694,114.1094 L694,124.1094 L704,124.1094 L694,114.1094 " fill="#FF0000" style="stroke:#181818;stroke-width:0.5;"/><text fill="#000000" font-family="sans-serif" font-size="13" lengthAdjust="spacing" textLength="209" x="480" y="131.6777">&lt;-- Expect 3 &amp; 4 to be same row</text><!--SRC=[VOxDQi9G48NtynH70dOHBZGtWQWK8I4_TE4JI1TN7QABUEN-QEdJTrAe5XVT3CoPC-SxiuipmsWGs7uXkCZqykvzP2HbliGSdNLnH5OiofnC3FOSnnqxggeAQeswhjDqXGrxRmR6Aua0jKsqhagjFzPeckPnpkZ0PXzELnDuUgNx8ZQQJtCARTlsyQFfRCNWJiCn875yME5DARIV5zu7PD9G8rZi6DwCuhCt-edvqw7hkZHLIZBzW5mu8aoSlkz_rU9VIYwKuedo3G00]--></g></svg>