<svg xmlns="http://www.w3.org/2000/svg" xmlns:xlink="http://www.w3.org/1999/xlink" contentStyleType="text/css" height="463.2px" preserveAspectRatio="none" style="width:468px;height:463px;background:#FFFFFF;" version="1.1" viewBox="0 0 468 463" width="468px" zoomAndPan="magnify"><defs/><g><line style="stroke:#181818;stroke-width:0.4000000000000001;stroke-dasharray:5.0,5.0;" x1="69.6" x2="69.6" y1="42.3813" y2="457.6109"/><rect fill="#FFFFFF" height="381.3813" style="stroke:#181818;stroke-width:0.8000000000000002;" width="8" x="65.6" y="76.2297"/><line style="stroke:#181818;stroke-width:0.4000000000000001;stroke-dasharray:5.0,5.0;" x1="191.2" x2="191.2" y1="42.3813" y2="457.6109"/><rect fill="#FFFFFF" height="332.3328" style="stroke:#181818;stroke-width:0.8000000000000002;" width="8" x="187.2" y="99.6781"/><rect fill="#FFFFFF" height="10.4" style="stroke:#181818;stroke-width:0.8000000000000002;" width="8" x="191.2" y="133.5266"/><rect fill="#FFFFFF" height="10.4" style="stroke:#181818;stroke-width:0.8000000000000002;" width="8" x="191.2" y="408.5625"/><line style="stroke:#181818;stroke-width:0.4000000000000001;stroke-dasharray:5.0,5.0;" x1="335.2" x2="335.2" y1="42.3813" y2="457.6109"/><rect fill="#FFFFFF" height="192.6906" style="stroke:#181818;stroke-width:0.8000000000000002;" width="8" x="331.2" y="156.975"/><rect fill="#FFFFFF" height="145.7938" style="stroke:#181818;stroke-width:0.8000000000000002;" width="8" x="335.2" y="190.8234"/><rect fill="#FFFFFF" height="111.9453" style="stroke:#181818;stroke-width:0.8000000000000002;" width="8" x="339.2" y="224.6719"/><rect fill="#FFFFFF" height="78.0969" style="stroke:#181818;stroke-width:0.8000000000000002;" width="8" x="343.2" y="258.5203"/><rect fill="#FFFFFF" height="44.2484" style="stroke:#181818;stroke-width:0.8000000000000002;" width="8" x="347.2" y="292.3688"/><rect fill="#FFFFFF" height="10.4" style="stroke:#181818;stroke-width:0.8000000000000002;" width="8" x="351.2" y="326.2172"/><rect fill="#E2E2F0" height="37.5813" rx="2" ry="2" style="stroke:#181818;stroke-width:0.4000000000000001;" width="131.2" x="4" y="4"/><text fill="#000000" font-family="sans-serif" font-size="11.2" lengthAdjust="spacing" textLength="85.6" x="26.8" y="20.4281">Function Group</text><text fill="#000000" font-family="sans-serif" font-size="11.2" lengthAdjust="spacing" textLength="120" x="9.6" y="33.6188">S_ABAP_TRACE_DATA</text><rect fill="#E2E2F0" height="37.5813" rx="2" ry="2" style="stroke:#181818;stroke-width:0.4000000000000001;" width="96" x="143.2" y="4"/><text fill="#000000" font-family="sans-serif" font-size="11.2" lengthAdjust="spacing" textLength="30.4" x="176" y="20.4281">PROG</text><text fill="#000000" font-family="sans-serif" font-size="11.2" lengthAdjust="spacing" textLength="84.8" x="148.8" y="33.6188">ZZZ_RECURSIVE</text><rect fill="#E2E2F0" height="37.5813" rx="2" ry="2" style="stroke:#181818;stroke-width:0.4000000000000001;" width="176" x="247.2" y="4"/><text fill="#000000" font-family="sans-serif" font-size="11.2" lengthAdjust="spacing" textLength="164.8" x="252.8" y="20.4281">ObjectId:7 of Class LCL_CLASS</text><text fill="#000000" font-family="sans-serif" font-size="11.2" lengthAdjust="spacing" textLength="84.8" x="292.8" y="33.6188">ZZZ_RECURSIVE</text><line style="stroke:#181818;stroke-width:0.8000000000000002;" x1="69.6" x2="107.2" y1="65.8297" y2="65.8297"/><line style="stroke:#181818;stroke-width:0.8000000000000002;" x1="107.2" x2="107.2" y1="65.8297" y2="76.2297"/><line style="stroke:#181818;stroke-width:0.8000000000000002;" x1="74.4" x2="107.2" y1="76.2297" y2="76.2297"/><polygon fill="#181818" points="82.4,73.0297,74.4,76.2297,82.4,79.4297,79.2,76.2297" style="stroke:#181818;stroke-width:0.8000000000000002;"/><text fill="#000000" font-family="sans-serif" font-size="10.4" font-weight="bold" lengthAdjust="spacing" textLength="7.2" x="79.2" y="62.0359">1</text><text fill="#000000" font-family="sans-serif" font-size="10.4" lengthAdjust="spacing" textLength="3.2" x="89.6" y="62.0359">&#160;</text><polygon fill="#181818" points="177.6,96.4781,185.6,99.6781,177.6,102.8781,180.8,99.6781" style="stroke:#181818;stroke-width:0.8000000000000002;"/><line style="stroke:#181818;stroke-width:0.8000000000000002;" x1="73.6" x2="182.4" y1="99.6781" y2="99.6781"/><text fill="#000000" font-family="sans-serif" font-size="10.4" font-weight="bold" lengthAdjust="spacing" textLength="7.2" x="79.2" y="95.8844">2</text><text fill="#000000" font-family="sans-serif" font-size="10.4" lengthAdjust="spacing" textLength="78.4" x="89.6" y="95.8844">ZZZ_RECURSIVE</text><line style="stroke:#181818;stroke-width:0.8000000000000002;" x1="195.2" x2="232.8" y1="123.1266" y2="123.1266"/><line style="stroke:#181818;stroke-width:0.8000000000000002;" x1="232.8" x2="232.8" y1="123.1266" y2="133.5266"/><line style="stroke:#181818;stroke-width:0.8000000000000002;" x1="200" x2="232.8" y1="133.5266" y2="133.5266"/><polygon fill="#181818" points="208,130.3266,200,133.5266,208,136.7266,204.8,133.5266" style="stroke:#181818;stroke-width:0.8000000000000002;"/><text fill="#000000" font-family="sans-serif" font-size="10.4" font-weight="bold" lengthAdjust="spacing" textLength="7.2" x="204.8" y="119.3328">3</text><text fill="#000000" font-family="sans-serif" font-size="10.4" lengthAdjust="spacing" textLength="39.2" x="215.2" y="119.3328">Perform</text><polygon fill="#181818" points="321.6,153.775,329.6,156.975,321.6,160.175,324.8,156.975" style="stroke:#181818;stroke-width:0.8000000000000002;"/><line style="stroke:#181818;stroke-width:0.8000000000000002;" x1="195.2" x2="326.4" y1="156.975" y2="156.975"/><text fill="#000000" font-family="sans-serif" font-size="10.4" font-weight="bold" lengthAdjust="spacing" textLength="7.2" x="200.8" y="153.1813">4</text><text fill="#000000" font-family="sans-serif" font-size="10.4" lengthAdjust="spacing" textLength="87.2" x="211.2" y="153.1813">Call method ADD</text><line style="stroke:#181818;stroke-width:0.8000000000000002;" x1="339.2" x2="376.8" y1="180.4234" y2="180.4234"/><line style="stroke:#181818;stroke-width:0.8000000000000002;" x1="376.8" x2="376.8" y1="180.4234" y2="190.8234"/><line style="stroke:#181818;stroke-width:0.8000000000000002;" x1="344" x2="376.8" y1="190.8234" y2="190.8234"/><polygon fill="#181818" points="352,187.6234,344,190.8234,352,194.0234,348.8,190.8234" style="stroke:#181818;stroke-width:0.8000000000000002;"/><text fill="#000000" font-family="sans-serif" font-size="10.4" font-weight="bold" lengthAdjust="spacing" textLength="7.2" x="348.8" y="176.6297">5</text><text fill="#000000" font-family="sans-serif" font-size="10.4" lengthAdjust="spacing" textLength="87.2" x="359.2" y="176.6297">Call method ADD</text><line style="stroke:#181818;stroke-width:0.8000000000000002;" x1="343.2" x2="380.8" y1="214.2719" y2="214.2719"/><line style="stroke:#181818;stroke-width:0.8000000000000002;" x1="380.8" x2="380.8" y1="214.2719" y2="224.6719"/><line style="stroke:#181818;stroke-width:0.8000000000000002;" x1="348" x2="380.8" y1="224.6719" y2="224.6719"/><polygon fill="#181818" points="356,221.4719,348,224.6719,356,227.8719,352.8,224.6719" style="stroke:#181818;stroke-width:0.8000000000000002;"/><text fill="#000000" font-family="sans-serif" font-size="10.4" font-weight="bold" lengthAdjust="spacing" textLength="7.2" x="352.8" y="210.4781">6</text><text fill="#000000" font-family="sans-serif" font-size="10.4" lengthAdjust="spacing" textLength="87.2" x="363.2" y="210.4781">Call method ADD</text><line style="stroke:#181818;stroke-width:0.8000000000000002;" x1="347.2" x2="384.8" y1="248.1203" y2="248.1203"/><line style="stroke:#181818;stroke-width:0.8000000000000002;" x1="384.8" x2="384.8" y1="248.1203" y2="258.5203"/><line style="stroke:#181818;stroke-width:0.8000000000000002;" x1="352" x2="384.8" y1="258.5203" y2="258.5203"/><polygon fill="#181818" points="360,255.3203,352,258.5203,360,261.7203,356.8,258.5203" style="stroke:#181818;stroke-width:0.8000000000000002;"/><text fill="#000000" font-family="sans-serif" font-size="10.4" font-weight="bold" lengthAdjust="spacing" textLength="7.2" x="356.8" y="244.3266">7</text><text fill="#000000" font-family="sans-serif" font-size="10.4" lengthAdjust="spacing" textLength="87.2" x="367.2" y="244.3266">Call method ADD</text><line style="stroke:#181818;stroke-width:0.8000000000000002;" x1="351.2" x2="388.8" y1="281.9688" y2="281.9688"/><line style="stroke:#181818;stroke-width:0.8000000000000002;" x1="388.8" x2="388.8" y1="281.9688" y2="292.3688"/><line style="stroke:#181818;stroke-width:0.8000000000000002;" x1="356" x2="388.8" y1="292.3688" y2="292.3688"/><polygon fill="#181818" points="364,289.1688,356,292.3688,364,295.5688,360.8,292.3688" style="stroke:#181818;stroke-width:0.8000000000000002;"/><text fill="#000000" font-family="sans-serif" font-size="10.4" font-weight="bold" lengthAdjust="spacing" textLength="7.2" x="360.8" y="278.175">8</text><text fill="#000000" font-family="sans-serif" font-size="10.4" lengthAdjust="spacing" textLength="87.2" x="371.2" y="278.175">Call method ADD</text><line style="stroke:#181818;stroke-width:0.8000000000000002;" x1="355.2" x2="392.8" y1="315.8172" y2="315.8172"/><line style="stroke:#181818;stroke-width:0.8000000000000002;" x1="392.8" x2="392.8" y1="315.8172" y2="326.2172"/><line style="stroke:#181818;stroke-width:0.8000000000000002;" x1="360" x2="392.8" y1="326.2172" y2="326.2172"/><polygon fill="#181818" points="368,323.0172,360,326.2172,368,329.4172,364.8,326.2172" style="stroke:#181818;stroke-width:0.8000000000000002;"/><text fill="#000000" font-family="sans-serif" font-size="10.4" font-weight="bold" lengthAdjust="spacing" textLength="7.2" x="364.8" y="312.0234">9</text><text fill="#000000" font-family="sans-serif" font-size="10.4" lengthAdjust="spacing" textLength="87.2" x="375.2" y="312.0234">Call method ADD</text><polygon fill="#181818" points="204,346.4656,196,349.6656,204,352.8656,200.8,349.6656" style="stroke:#181818;stroke-width:0.8000000000000002;"/><line style="stroke:#181818;stroke-width:0.8000000000000002;stroke-dasharray:2.0,2.0;" x1="199.2" x2="330.4" y1="349.6656" y2="349.6656"/><text fill="#000000" font-family="sans-serif" font-size="10.4" font-weight="bold" lengthAdjust="spacing" textLength="14.4" x="208.8" y="345.8719">10</text><text fill="#000000" font-family="sans-serif" font-size="10.4" lengthAdjust="spacing" textLength="3.2" x="226.4" y="345.8719">&#160;</text><path d="M56.8,359.2656 L116,359.2656 L116,365.1141 L108,373.1141 L56.8,373.1141 L56.8,359.2656 " fill="#EEEEEE" style="stroke:#000000;stroke-width:1.2000000000000002;"/><rect fill="none" height="79.1453" style="stroke:#000000;stroke-width:1.2000000000000002;" width="250.4" x="56.8" y="359.2656"/><text fill="#000000" font-family="sans-serif" font-size="10.4" font-weight="bold" lengthAdjust="spacing" textLength="23.2" x="68.8" y="370.1203">loop</text><text fill="#000000" font-family="sans-serif" font-size="8.8" font-weight="bold" lengthAdjust="spacing" textLength="40" x="128" y="369.3734">[2 times]</text><line style="stroke:#181818;stroke-width:0.8000000000000002;" x1="195.2" x2="232.8" y1="398.1625" y2="398.1625"/><line style="stroke:#181818;stroke-width:0.8000000000000002;" x1="232.8" x2="232.8" y1="398.1625" y2="408.5625"/><line style="stroke:#181818;stroke-width:0.8000000000000002;" x1="200" x2="232.8" y1="408.5625" y2="408.5625"/><polygon fill="#181818" points="208,405.3625,200,408.5625,208,411.7625,204.8,408.5625" style="stroke:#181818;stroke-width:0.8000000000000002;"/><text fill="#000000" font-family="sans-serif" font-size="10.4" font-weight="bold" lengthAdjust="spacing" textLength="14.4" x="204.8" y="394.3688">11</text><text fill="#000000" font-family="sans-serif" font-size="10.4" lengthAdjust="spacing" textLength="66.4" x="222.4" y="394.3688">SYSTEM-EXIT</text><polygon fill="#181818" points="82.4,428.8109,74.4,432.0109,82.4,435.2109,79.2,432.0109" style="stroke:#181818;stroke-width:0.8000000000000002;"/><line style="stroke:#181818;stroke-width:0.8000000000000002;stroke-dasharray:2.0,2.0;" x1="77.6" x2="186.4" y1="432.0109" y2="432.0109"/><text fill="#000000" font-family="sans-serif" font-size="10.4" font-weight="bold" lengthAdjust="spacing" textLength="14.4" x="87.2" y="428.2172">12</text><text fill="#000000" font-family="sans-serif" font-size="10.4" lengthAdjust="spacing" textLength="3.2" x="104.8" y="428.2172">&#160;</text><!--SRC=[rP51IyD048Nl-ol6tYisEIWv26iQIw7IaaIffH2coQHTJNR2xaR5NszQn3OY7hnvd3VVOsRUx5H1K3Ax3Ry9R1thjjwG4JR7Yk3Y_4gSDGQtDO8ZVWTdMXBsMUa63TPWTrZmgz9RAB6o93hLgLmrg1qCRbkTEyKQ9eRRPgsJJDx8HPR6CeooiKpb0D32g6zQnFF9MgzMgooEmliucJv41yphO_FD4-LkMWINm2M45LeBit2MXJEP93_vVJ62uJMC0e7TKY_eg9jyaBm0eCSV2KzudyI2JCccFcqLz9tp0mYngg0cj-C2v7Xyv7tX_o_avBo_5TsCVNPzKLJC3NZWL4tsArr87fCqkXj6osdwMyJx1_P5qiK7]--></g></svg>