<svg xmlns="http://www.w3.org/2000/svg" xmlns:xlink="http://www.w3.org/1999/xlink" contentStyleType="text/css" height="240px" preserveAspectRatio="none" style="width:302px;height:240px;background:#FFFFFF;" version="1.1" viewBox="0 0 302 240" width="302px" zoomAndPan="magnify"><defs/><g><line style="stroke:#181818;stroke-width:0.5;stroke-dasharray:5.0,5.0;" x1="24.5" x2="24.5" y1="81.4883" y2="158.1094"/><rect fill="#FFFFFF" height="29.3105" style="stroke:#181818;stroke-width:1.0;" width="10" x="19.5" y="110.7988"/><line style="stroke:#181818;stroke-width:0.5;stroke-dasharray:5.0,5.0;" x1="171.5" x2="171.5" y1="81.4883" y2="158.1094"/><rect fill="#FFFFFF" height="18" style="stroke:#181818;stroke-width:1.0;" width="10" x="166.5" y="140.1094"/><line style="stroke:#181818;stroke-width:0.5;stroke-dasharray:5.0,5.0;" x1="225" x2="225" y1="81.4883" y2="158.1094"/><line style="stroke:#181818;stroke-width:0.5;stroke-dasharray:5.0,5.0;" x1="282" x2="282" y1="81.4883" y2="158.1094"/><text fill="#000000" font-family="sans-serif" font-size="14" lengthAdjust="spacing" textLength="33" x="5" y="78.5352">Alice</text><ellipse cx="24.5" cy="13.5" fill="#E2E2F0" rx="8" ry="8" style="stroke:#181818;stroke-width:0.5;"/><path d="M24.5,21.5 L24.5,48.5 M11.5,29.5 L37.5,29.5 M24.5,48.5 L11.5,63.5 M24.5,48.5 L37.5,63.5 " fill="none" style="stroke:#181818;stroke-width:0.5;"/><text fill="#000000" font-family="sans-serif" font-size="14" lengthAdjust="spacing" textLength="26" x="155.5" y="78.5352">Bob</text><ellipse cx="171.5" cy="13.5" fill="#E2E2F0" rx="8" ry="8" style="stroke:#181818;stroke-width:0.5;"/><path d="M171.5,21.5 L171.5,48.5 M158.5,29.5 L184.5,29.5 M171.5,48.5 L158.5,63.5 M171.5,48.5 L184.5,63.5 " fill="none" style="stroke:#181818;stroke-width:0.5;"/><text fill="#000000" font-family="sans-serif" font-size="14" lengthAdjust="spacing" textLength="49" x="197.5" y="78.5352">Charlie</text><ellipse cx="225" cy="13.5" fill="#E2E2F0" rx="8" ry="8" style="stroke:#181818;stroke-width:0.5;"/><path d="M225,21.5 L225,48.5 M212,29.5 L238,29.5 M225,48.5 L212,63.5 M225,48.5 L238,63.5 " fill="none" style="stroke:#181818;stroke-width:0.5;"/><text fill="#000000" font-family="sans-serif" font-size="14" lengthAdjust="spacing" textLength="33" x="262.5" y="78.5352">Dave</text><ellipse cx="282" cy="13.5" fill="#E2E2F0" rx="8" ry="8" style="stroke:#181818;stroke-width:0.5;"/><path d="M282,21.5 L282,48.5 M269,29.5 L295,29.5 M282,48.5 L269,63.5 M282,48.5 L295,63.5 " fill="none" style="stroke:#181818;stroke-width:0.5;"/><text fill="#000000" font-family="sans-serif" font-size="14" lengthAdjust="spacing" textLength="33" x="5" y="231.6445">Alice</text><ellipse cx="24.5" cy="166.6094" fill="#E2E2F0" rx="8" ry="8" style="stroke:#181818;stroke-width:0.5;"/><path d="M24.5,174.6094 L24.5,201.6094 M11.5,182.6094 L37.5,182.6094 M24.5,201.6094 L11.5,216.6094 M24.5,201.6094 L37.5,216.6094 " fill="none" style="stroke:#181818;stroke-width:0.5;"/><text fill="#000000" font-family="sans-serif" font-size="14" lengthAdjust="spacing" textLength="26" x="155.5" y="231.6445">Bob</text><ellipse cx="171.5" cy="166.6094" fill="#E2E2F0" rx="8" ry="8" style="stroke:#181818;stroke-width:0.5;"/><path d="M171.5,174.6094 L171.5,201.6094 M158.5,182.6094 L184.5,182.6094 M171.5,201.6094 L158.5,216.6094 M171.5,201.6094 L184.5,216.6094 " fill="none" style="stroke:#181818;stroke-width:0.5;"/><text fill="#000000" font-family="sans-serif" font-size="14" lengthAdjust="spacing" textLength="49" x="197.5" y="231.6445">Charlie</text><ellipse cx="225" cy="166.6094" fill="#E2E2F0" rx="8" ry="8" style="stroke:#181818;stroke-width:0.5;"/><path d="M225,174.6094 L225,201.6094 M212,182.6094 L238,182.6094 M225,201.6094 L212,216.6094 M225,201.6094 L238,216.6094 " fill="none" style="stroke:#181818;stroke-width:0.5;"/><text fill="#000000" font-family="sans-serif" font-size="14" lengthAdjust="spacing" textLength="33" x="262.5" y="231.6445">Dave</text><ellipse cx="282" cy="166.6094" fill="#E2E2F0" rx="8" ry="8" style="stroke:#181818;stroke-width:0.5;"/><path d="M282,174.6094 L282,201.6094 M269,182.6094 L295,182.6094 M282,201.6094 L269,216.6094 M282,201.6094 L295,216.6094 " fill="none" style="stroke:#181818;stroke-width:0.5;"/><polygon fill="#181818" points="40.5,106.7988,30.5,110.7988,40.5,114.7988,36.5,110.7988" style="stroke:#181818;stroke-width:1.0;"/><line style="stroke:#181818;stroke-width:1.0;" x1="34.5" x2="170.5" y1="110.7988" y2="110.7988"/><text fill="#000000" font-family="sans-serif" font-size="13" lengthAdjust="spacing" textLength="63" x="46.5" y="106.0566">message1</text><polygon fill="#181818" points="270,138.1094,280,142.1094,270,146.1094,274,142.1094" style="stroke:#181818;stroke-width:1.0;"/><line style="stroke:#181818;stroke-width:1.0;" x1="24.5" x2="276" y1="142.1094" y2="142.1094"/><polygon fill="#181818" points="213,140.1094,223,144.1094,213,148.1094,217,144.1094" style="stroke:#181818;stroke-width:1.0;"/><line style="stroke:#181818;stroke-width:1.0;" x1="24.5" x2="219" y1="144.1094" y2="144.1094"/><polygon fill="#181818" points="154.5,136.1094,164.5,140.1094,154.5,144.1094,158.5,140.1094" style="stroke:#181818;stroke-width:1.0;"/><line style="stroke:#181818;stroke-width:1.0;" x1="29.5" x2="160.5" y1="140.1094" y2="140.1094"/><text fill="#000000" font-family="sans-serif" font-size="13" lengthAdjust="spacing" textLength="118" x="36.5" y="135.3672">multicast message</text><!--SRC=[KomeIapFJLGeISslKYWfAatbKdVBBohDLJ0qiJ0mvafCBialKd3CoKnEXRATyfEWBEUCnAASJ9YuIs9PAXTGKa7N3g9UGLlRIY4tjRWuCJtLa0iY19G3AL43gmPIK2CKT7N1YajpIZAJ4ujBODe0]--></g></svg>