<svg xmlns="http://www.w3.org/2000/svg" xmlns:xlink="http://www.w3.org/1999/xlink" contentStyleType="text/css" height="765px" preserveAspectRatio="none" style="width:107px;height:765px;background:#FFFFFF;" version="1.1" viewBox="0 0 107 765" width="107px" zoomAndPan="magnify"><defs/><g><line style="stroke:#181818;stroke-width:0.5;stroke-dasharray:5.0,5.0;" x1="24.7319" x2="24.7319" y1="36.4883" y2="728.6133"/><line style="stroke:#181818;stroke-width:0.5;stroke-dasharray:5.0,5.0;" x1="77.8257" x2="77.8257" y1="36.4883" y2="728.6133"/><rect fill="#E2E2F0" height="30.4883" rx="2.5" ry="2.5" style="stroke:#181818;stroke-width:0.5;" width="39.4639" x="5" y="5"/><text fill="#000000" font-family="sans-serif" font-size="14" lengthAdjust="spacing" textLength="25.4639" x="12" y="25.5352">Bob</text><rect fill="#E2E2F0" height="30.4883" rx="2.5" ry="2.5" style="stroke:#181818;stroke-width:0.5;" width="46.7236" x="54.4639" y="5"/><text fill="#000000" font-family="sans-serif" font-size="14" lengthAdjust="spacing" textLength="32.7236" x="61.4639" y="25.5352">Alice</text><rect fill="#E2E2F0" height="30.4883" rx="2.5" ry="2.5" style="stroke:#181818;stroke-width:0.5;" width="39.4639" x="5" y="728.6133"/><text fill="#000000" font-family="sans-serif" font-size="14" lengthAdjust="spacing" textLength="25.4639" x="12" y="749.1484">Bob</text><rect fill="#E2E2F0" height="30.4883" rx="2.5" ry="2.5" style="stroke:#181818;stroke-width:0.5;" width="46.7236" x="54.4639" y="728.6133"/><text fill="#000000" font-family="sans-serif" font-size="14" lengthAdjust="spacing" textLength="32.7236" x="61.4639" y="749.1484">Alice</text><line style="stroke:#181818;stroke-width:1.0;" x1="35.8257" x2="76.8257" y1="65.6211" y2="65.6211"/><line style="stroke:#181818;stroke-width:1.0;" x1="35.8257" x2="35.8257" y1="65.6211" y2="78.6211"/><line style="stroke:#181818;stroke-width:1.0;" x1="35.8257" x2="75.8257" y1="78.6211" y2="78.6211"/><polygon fill="#181818" points="65.8257,74.6211,75.8257,78.6211,65.8257,82.6211,69.8257,78.6211" style="stroke:#181818;stroke-width:1.0;"/><text fill="#000000" font-family="monospace" font-size="13" lengthAdjust="spacing" textLength="15.6533" x="34.8257" y="60.5552">&lt;-</text><ellipse cx="77.3257" cy="120.0039" fill="none" rx="4" ry="4" style="stroke:#181818;stroke-width:1.5;"/><line style="stroke:#181818;stroke-width:1.0;" x1="35.8257" x2="76.8257" y1="107.7539" y2="107.7539"/><line style="stroke:#181818;stroke-width:1.0;" x1="35.8257" x2="35.8257" y1="107.7539" y2="120.7539"/><line style="stroke:#181818;stroke-width:1.0;" x1="35.8257" x2="70.3257" y1="120.7539" y2="120.7539"/><polygon fill="#181818" points="60.3257,116.7539,70.3257,120.7539,60.3257,124.7539,64.3257,120.7539" style="stroke:#181818;stroke-width:1.0;"/><text fill="#000000" font-family="monospace" font-size="13" lengthAdjust="spacing" textLength="23.48" x="34.8257" y="102.688">o&lt;-</text><ellipse cx="77.3257" cy="149.1367" fill="none" rx="4" ry="4" style="stroke:#181818;stroke-width:1.5;"/><ellipse cx="77.3257" cy="162.1367" fill="none" rx="4" ry="4" style="stroke:#181818;stroke-width:1.5;"/><line style="stroke:#181818;stroke-width:1.0;" x1="35.8257" x2="72.8257" y1="149.8867" y2="149.8867"/><line style="stroke:#181818;stroke-width:1.0;" x1="35.8257" x2="35.8257" y1="149.8867" y2="162.8867"/><line style="stroke:#181818;stroke-width:1.0;" x1="35.8257" x2="70.3257" y1="162.8867" y2="162.8867"/><polygon fill="#181818" points="60.3257,158.8867,70.3257,162.8867,60.3257,166.8867,64.3257,162.8867" style="stroke:#181818;stroke-width:1.0;"/><text fill="#000000" font-family="monospace" font-size="13" lengthAdjust="spacing" textLength="31.3066" x="34.8257" y="144.8208">o&lt;-o</text><line style="stroke:#181818;stroke-width:1.0;" x1="35.8257" x2="76.8257" y1="192.0195" y2="192.0195"/><line style="stroke:#181818;stroke-width:1.0;" x1="35.8257" x2="35.8257" y1="192.0195" y2="205.0195"/><line style="stroke:#181818;stroke-width:1.0;" x1="35.8257" x2="76.8257" y1="205.0195" y2="205.0195"/><line style="stroke:#181818;stroke-width:1.0;" x1="75.8257" x2="65.8257" y1="205.0195" y2="201.0195"/><line style="stroke:#181818;stroke-width:1.0;" x1="75.8257" x2="65.8257" y1="205.0195" y2="209.0195"/><text fill="#000000" font-family="monospace" font-size="13" lengthAdjust="spacing" textLength="23.48" x="34.8257" y="186.9536">&lt;&lt;-</text><line style="stroke:#181818;stroke-width:1.0;" x1="35.8257" x2="76.8257" y1="234.1523" y2="234.1523"/><line style="stroke:#181818;stroke-width:1.0;" x1="35.8257" x2="35.8257" y1="234.1523" y2="247.1523"/><line style="stroke:#181818;stroke-width:1.0;" x1="35.8257" x2="76.8257" y1="247.1523" y2="247.1523"/><polygon fill="#181818" points="65.8257,243.1523,75.8257,247.1523,65.8257,247.1523" style="stroke:#181818;stroke-width:1.0;"/><text fill="#000000" font-family="monospace" font-size="13" lengthAdjust="spacing" textLength="15.6533" x="34.8257" y="229.0864">/-</text><line style="stroke:#181818;stroke-width:1.0;" x1="35.8257" x2="76.8257" y1="276.2852" y2="276.2852"/><line style="stroke:#181818;stroke-width:1.0;" x1="35.8257" x2="35.8257" y1="276.2852" y2="289.2852"/><line style="stroke:#181818;stroke-width:1.0;" x1="35.8257" x2="76.8257" y1="289.2852" y2="289.2852"/><line style="stroke:#181818;stroke-width:1.0;" x1="75.8257" x2="65.8257" y1="289.2852" y2="285.2852"/><text fill="#000000" font-family="monospace" font-size="13" lengthAdjust="spacing" textLength="15.6533" x="34.8257" y="271.2192">//</text><line style="stroke:#181818;stroke-width:1.0;" x1="35.8257" x2="76.8257" y1="318.418" y2="318.418"/><line style="stroke:#181818;stroke-width:1.0;" x1="35.8257" x2="35.8257" y1="318.418" y2="331.418"/><line style="stroke:#181818;stroke-width:1.0;" x1="35.8257" x2="76.8257" y1="331.418" y2="331.418"/><polygon fill="#181818" points="65.8257,331.418,75.8257,331.418,65.8257,335.418" style="stroke:#181818;stroke-width:1.0;"/><text fill="#000000" font-family="monospace" font-size="13" lengthAdjust="spacing" textLength="15.6533" x="34.8257" y="313.3521">\-</text><line style="stroke:#181818;stroke-width:1.0;" x1="35.8257" x2="76.8257" y1="360.5508" y2="360.5508"/><line style="stroke:#181818;stroke-width:1.0;" x1="35.8257" x2="35.8257" y1="360.5508" y2="373.5508"/><line style="stroke:#181818;stroke-width:1.0;" x1="35.8257" x2="76.8257" y1="373.5508" y2="373.5508"/><line style="stroke:#181818;stroke-width:1.0;" x1="75.8257" x2="65.8257" y1="373.5508" y2="377.5508"/><text fill="#000000" font-family="monospace" font-size="13" lengthAdjust="spacing" textLength="23.48" x="34.8257" y="355.4849">\\-</text><ellipse cx="77.3257" cy="401.9336" fill="none" rx="4" ry="4" style="stroke:#181818;stroke-width:1.5;"/><line style="stroke:#181818;stroke-width:1.0;" x1="35.8257" x2="72.8257" y1="402.6836" y2="402.6836"/><line style="stroke:#181818;stroke-width:1.0;" x1="35.8257" x2="35.8257" y1="402.6836" y2="415.6836"/><line style="stroke:#181818;stroke-width:1.0;" x1="35.8257" x2="75.8257" y1="415.6836" y2="415.6836"/><polygon fill="#181818" points="65.8257,411.6836,75.8257,415.6836,65.8257,419.6836,69.8257,415.6836" style="stroke:#181818;stroke-width:1.0;"/><text fill="#000000" font-family="monospace" font-size="13" lengthAdjust="spacing" textLength="23.48" x="34.8257" y="397.6177">&lt;-o</text><ellipse cx="77.3257" cy="457.0664" fill="none" rx="4" ry="4" style="stroke:#181818;stroke-width:1.5;"/><line style="stroke:#181818;stroke-width:1.0;" x1="35.8257" x2="76.8257" y1="444.8164" y2="444.8164"/><line style="stroke:#181818;stroke-width:1.0;" x1="35.8257" x2="35.8257" y1="444.8164" y2="457.8164"/><line style="stroke:#181818;stroke-width:1.0;" x1="35.8257" x2="70.3257" y1="457.8164" y2="457.8164"/><polygon fill="#181818" points="60.3257,453.8164,70.3257,457.8164,60.3257,461.8164,64.3257,457.8164" style="stroke:#181818;stroke-width:1.0;"/><text fill="#000000" font-family="monospace" font-size="13" lengthAdjust="spacing" textLength="23.48" x="34.8257" y="439.7505">o&lt;-</text><ellipse cx="77.3257" cy="486.1992" fill="none" rx="4" ry="4" style="stroke:#181818;stroke-width:1.5;"/><ellipse cx="77.3257" cy="499.1992" fill="none" rx="4" ry="4" style="stroke:#181818;stroke-width:1.5;"/><line style="stroke:#181818;stroke-width:1.0;" x1="35.8257" x2="72.8257" y1="486.9492" y2="486.9492"/><line style="stroke:#181818;stroke-width:1.0;" x1="35.8257" x2="35.8257" y1="486.9492" y2="499.9492"/><line style="stroke:#181818;stroke-width:1.0;" x1="35.8257" x2="70.3257" y1="499.9492" y2="499.9492"/><polygon fill="#181818" points="60.3257,495.9492,70.3257,499.9492,60.3257,503.9492,64.3257,499.9492" style="stroke:#181818;stroke-width:1.0;"/><text fill="#000000" font-family="monospace" font-size="13" lengthAdjust="spacing" textLength="31.3066" x="34.8257" y="481.8833">o&lt;-o</text><ellipse cx="77.3257" cy="541.332" fill="none" rx="4" ry="4" style="stroke:#181818;stroke-width:1.5;"/><line style="stroke:#181818;stroke-width:1.0;" x1="35.8257" x2="76.8257" y1="529.082" y2="529.082"/><line style="stroke:#181818;stroke-width:1.0;" x1="35.8257" x2="35.8257" y1="529.082" y2="542.082"/><line style="stroke:#181818;stroke-width:1.0;" x1="35.8257" x2="71.3257" y1="542.082" y2="542.082"/><line style="stroke:#181818;stroke-width:1.0;" x1="70.3257" x2="60.3257" y1="542.082" y2="538.082"/><line style="stroke:#181818;stroke-width:1.0;" x1="70.3257" x2="60.3257" y1="542.082" y2="546.082"/><text fill="#000000" font-family="monospace" font-size="13" lengthAdjust="spacing" textLength="31.3066" x="34.8257" y="524.0161">o&lt;&lt;-</text><ellipse cx="77.3257" cy="583.4648" fill="none" rx="4" ry="4" style="stroke:#181818;stroke-width:1.5;"/><line style="stroke:#181818;stroke-width:1.0;" x1="35.8257" x2="76.8257" y1="571.2148" y2="571.2148"/><line style="stroke:#181818;stroke-width:1.0;" x1="35.8257" x2="35.8257" y1="571.2148" y2="584.2148"/><line style="stroke:#181818;stroke-width:1.0;" x1="35.8257" x2="71.3257" y1="584.2148" y2="584.2148"/><polygon fill="#181818" points="60.3257,580.2148,70.3257,584.2148,60.3257,584.2148" style="stroke:#181818;stroke-width:1.0;"/><text fill="#000000" font-family="monospace" font-size="13" lengthAdjust="spacing" textLength="23.48" x="34.8257" y="566.1489">o/-</text><ellipse cx="77.3257" cy="625.5977" fill="none" rx="4" ry="4" style="stroke:#181818;stroke-width:1.5;"/><line style="stroke:#181818;stroke-width:1.0;" x1="35.8257" x2="76.8257" y1="613.3477" y2="613.3477"/><line style="stroke:#181818;stroke-width:1.0;" x1="35.8257" x2="35.8257" y1="613.3477" y2="626.3477"/><line style="stroke:#181818;stroke-width:1.0;" x1="35.8257" x2="71.3257" y1="626.3477" y2="626.3477"/><line style="stroke:#181818;stroke-width:1.0;" x1="70.3257" x2="60.3257" y1="626.3477" y2="622.3477"/><text fill="#000000" font-family="monospace" font-size="13" lengthAdjust="spacing" textLength="31.3066" x="34.8257" y="608.2817">o//-</text><ellipse cx="77.3257" cy="667.7305" fill="none" rx="4" ry="4" style="stroke:#181818;stroke-width:1.5;"/><line style="stroke:#181818;stroke-width:1.0;" x1="35.8257" x2="76.8257" y1="655.4805" y2="655.4805"/><line style="stroke:#181818;stroke-width:1.0;" x1="35.8257" x2="35.8257" y1="655.4805" y2="668.4805"/><line style="stroke:#181818;stroke-width:1.0;" x1="35.8257" x2="71.3257" y1="668.4805" y2="668.4805"/><polygon fill="#181818" points="60.3257,668.4805,70.3257,668.4805,60.3257,672.4805" style="stroke:#181818;stroke-width:1.0;"/><text fill="#000000" font-family="monospace" font-size="13" lengthAdjust="spacing" textLength="23.48" x="34.8257" y="650.4146">o\-</text><ellipse cx="77.3257" cy="709.8633" fill="none" rx="4" ry="4" style="stroke:#181818;stroke-width:1.5;"/><line style="stroke:#181818;stroke-width:1.0;" x1="35.8257" x2="76.8257" y1="697.6133" y2="697.6133"/><line style="stroke:#181818;stroke-width:1.0;" x1="35.8257" x2="35.8257" y1="697.6133" y2="710.6133"/><line style="stroke:#181818;stroke-width:1.0;" x1="35.8257" x2="71.3257" y1="710.6133" y2="710.6133"/><line style="stroke:#181818;stroke-width:1.0;" x1="70.3257" x2="60.3257" y1="710.6133" y2="714.6133"/><text fill="#000000" font-family="monospace" font-size="13" lengthAdjust="spacing" textLength="31.3066" x="34.8257" y="692.5474">o\\-</text><!--SRC=[RSwn3W8X3CRn_PwYib-w6nPz3fRUXHWIjGHnyUczerIBaV6NB-L_o8KkDu8Q-GMrFEEKgTIqfapt2cTUW1wm37YwfZNkJ1E1ds5_14Tmpi_ERSO3ybTvP6xkPTqlz37Q2zWDpH2nMR2x8BiGp2viJxX_hwLiK_-M_dIoXAhgraOnAgAPeghjOirYoVreypS0]--></g></svg>