<svg xmlns="http://www.w3.org/2000/svg" xmlns:xlink="http://www.w3.org/1999/xlink" contentStyleType="text/css" height="239px" preserveAspectRatio="none" style="width:272px;height:239px;background:#FFFFFF;" version="1.1" viewBox="0 0 272 239" width="272px" zoomAndPan="magnify"><defs/><g><rect fill="none" height="59.6211" style="stroke:#000000;stroke-width:1.5;" width="137" x="129" y="53.4883"/><rect fill="none" height="59.6211" style="stroke:#000000;stroke-width:1.5;" width="161" x="10" y="127.1094"/><line style="stroke:#181818;stroke-width:0.5;stroke-dasharray:5.0,5.0;" x1="150" x2="150" y1="36.4883" y2="203.7305"/><rect fill="#E2E2F0" height="30.4883" rx="2.5" ry="2.5" style="stroke:#181818;stroke-width:0.5;" width="22" x="139" y="5"/><text fill="#000000" font-family="sans-serif" font-size="14" lengthAdjust="spacing" textLength="8" x="146" y="25.5352">a</text><rect fill="#E2E2F0" height="30.4883" rx="2.5" ry="2.5" style="stroke:#181818;stroke-width:0.5;" width="22" x="139" y="202.7305"/><text fill="#000000" font-family="sans-serif" font-size="14" lengthAdjust="spacing" textLength="8" x="146" y="223.2656">a</text><path d="M129,53.4883 L215,53.4883 L215,60.7988 L205,70.7988 L129,70.7988 L129,53.4883 " fill="#EEEEEE" style="stroke:#000000;stroke-width:1.5;"/><rect fill="none" height="59.6211" style="stroke:#000000;stroke-width:1.5;" width="137" x="129" y="53.4883"/><text fill="#000000" font-family="sans-serif" font-size="13" font-weight="bold" lengthAdjust="spacing" textLength="41" x="144" y="67.0566">group</text><line style="stroke:#181818;stroke-width:1.0;" x1="150" x2="192" y1="92.1094" y2="92.1094"/><line style="stroke:#181818;stroke-width:1.0;" x1="192" x2="192" y1="92.1094" y2="105.1094"/><line style="stroke:#181818;stroke-width:1.0;" x1="151" x2="192" y1="105.1094" y2="105.1094"/><polygon fill="#181818" points="161,101.1094,151,105.1094,161,109.1094,157,105.1094" style="stroke:#181818;stroke-width:1.0;"/><text fill="#000000" font-family="sans-serif" font-size="13" lengthAdjust="spacing" textLength="97" x="157" y="87.3672">This works fine</text><path d="M10,127.1094 L96,127.1094 L96,134.4199 L86,144.4199 L10,144.4199 L10,127.1094 " fill="#EEEEEE" style="stroke:#000000;stroke-width:1.5;"/><rect fill="none" height="59.6211" style="stroke:#000000;stroke-width:1.5;" width="161" x="10" y="127.1094"/><text fill="#000000" font-family="sans-serif" font-size="13" font-weight="bold" lengthAdjust="spacing" textLength="41" x="25" y="140.6777">group</text><line style="stroke:#181818;stroke-width:1.0;" x1="108" x2="149" y1="165.7305" y2="165.7305"/><line style="stroke:#181818;stroke-width:1.0;" x1="108" x2="108" y1="165.7305" y2="178.7305"/><line style="stroke:#181818;stroke-width:1.0;" x1="108" x2="148" y1="178.7305" y2="178.7305"/><polygon fill="#181818" points="138,174.7305,148,178.7305,138,182.7305,142,178.7305" style="stroke:#181818;stroke-width:1.0;"/><text fill="#000000" font-family="sans-serif" font-size="13" lengthAdjust="spacing" textLength="121" x="22" y="160.9883">This does not work</text><!--SRC=[Io_ABotWKW22H0LTEo1XfH2IaLciK9vVb5sia9QPbygLcfV2bOwap4ONeImbFxLO8I-_1AmUf180]--></g></svg>