<svg xmlns="http://www.w3.org/2000/svg" xmlns:xlink="http://www.w3.org/1999/xlink" contentStyleType="text/css" height="470px" preserveAspectRatio="none" style="width:154px;height:470px;background:#FFFFFF;" version="1.1" viewBox="0 0 154 470" width="154px" zoomAndPan="magnify"><defs/><g><line style="stroke:#181818;stroke-width:0.5;stroke-dasharray:5.0,5.0;" x1="24.7319" x2="24.7319" y1="36.4883" y2="433.6836"/><line style="stroke:#181818;stroke-width:0.5;stroke-dasharray:5.0,5.0;" x1="85.6919" x2="85.6919" y1="36.4883" y2="433.6836"/><rect fill="#E2E2F0" height="30.4883" rx="2.5" ry="2.5" style="stroke:#181818;stroke-width:0.5;" width="39.4639" x="5" y="5"/><text fill="#000000" font-family="sans-serif" font-size="14" lengthAdjust="spacing" textLength="25.4639" x="12" y="25.5352">Bob</text><rect fill="#E2E2F0" height="30.4883" rx="2.5" ry="2.5" style="stroke:#181818;stroke-width:0.5;" width="46.7236" x="62.3301" y="5"/><text fill="#000000" font-family="sans-serif" font-size="14" lengthAdjust="spacing" textLength="32.7236" x="69.3301" y="25.5352">Alice</text><rect fill="#E2E2F0" height="30.4883" rx="2.5" ry="2.5" style="stroke:#181818;stroke-width:0.5;" width="39.4639" x="5" y="433.6836"/><text fill="#000000" font-family="sans-serif" font-size="14" lengthAdjust="spacing" textLength="25.4639" x="12" y="454.2188">Bob</text><rect fill="#E2E2F0" height="30.4883" rx="2.5" ry="2.5" style="stroke:#181818;stroke-width:0.5;" width="46.7236" x="62.3301" y="433.6836"/><text fill="#000000" font-family="sans-serif" font-size="14" lengthAdjust="spacing" textLength="32.7236" x="69.3301" y="454.2188">Alice</text><line style="stroke:#181818;stroke-width:1.0;" x1="85.6919" x2="127.6919" y1="65.6211" y2="65.6211"/><line style="stroke:#181818;stroke-width:1.0;" x1="127.6919" x2="127.6919" y1="65.6211" y2="78.6211"/><line style="stroke:#181818;stroke-width:1.0;" x1="86.6919" x2="127.6919" y1="78.6211" y2="78.6211"/><polygon fill="#181818" points="95.6919,61.6211,85.6919,65.6211,95.6919,69.6211,91.6919,65.6211" style="stroke:#181818;stroke-width:1.0;"/><polygon fill="#181818" points="96.6919,74.6211,86.6919,78.6211,96.6919,82.6211,92.6919,78.6211" style="stroke:#181818;stroke-width:1.0;"/><text fill="#000000" font-family="monospace" font-size="13" lengthAdjust="spacing" textLength="23.48" x="100.5186" y="60.5552">&lt;-&gt;</text><ellipse cx="85.1919" cy="107.0039" fill="none" rx="4" ry="4" style="stroke:#181818;stroke-width:1.5;"/><ellipse cx="85.1919" cy="120.0039" fill="none" rx="4" ry="4" style="stroke:#181818;stroke-width:1.5;"/><line style="stroke:#181818;stroke-width:1.0;" x1="92.1919" x2="127.6919" y1="107.7539" y2="107.7539"/><line style="stroke:#181818;stroke-width:1.0;" x1="127.6919" x2="127.6919" y1="107.7539" y2="120.7539"/><line style="stroke:#181818;stroke-width:1.0;" x1="92.1919" x2="127.6919" y1="120.7539" y2="120.7539"/><polygon fill="#181818" points="102.1919,103.7539,92.1919,107.7539,102.1919,111.7539,98.1919,107.7539" style="stroke:#181818;stroke-width:1.0;"/><polygon fill="#181818" points="102.1919,116.7539,92.1919,120.7539,102.1919,124.7539,98.1919,120.7539" style="stroke:#181818;stroke-width:1.0;"/><text fill="#000000" font-family="monospace" font-size="13" lengthAdjust="spacing" textLength="39.1333" x="100.5186" y="102.688">o&lt;-&gt;o</text><line style="stroke:#181818;stroke-width:1.0;" x1="97.6919" x2="127.6919" y1="149.8867" y2="149.8867"/><line style="stroke:#181818;stroke-width:1.0;" x1="127.6919" x2="127.6919" y1="149.8867" y2="162.8867"/><line style="stroke:#181818;stroke-width:1.0;" x1="98.6919" x2="127.6919" y1="162.8867" y2="162.8867"/><line style="stroke:#181818;stroke-width:2.0;" x1="91.6919" x2="101.6919" y1="144.8867" y2="154.8867"/><line style="stroke:#181818;stroke-width:2.0;" x1="91.6919" x2="101.6919" y1="154.8867" y2="144.8867"/><line style="stroke:#181818;stroke-width:2.0;" x1="91.6919" x2="101.6919" y1="157.8867" y2="167.8867"/><line style="stroke:#181818;stroke-width:2.0;" x1="91.6919" x2="101.6919" y1="167.8867" y2="157.8867"/><text fill="#000000" font-family="monospace" font-size="13" lengthAdjust="spacing" textLength="39.1333" x="108.3452" y="144.8208">x&lt;-&gt;x</text><ellipse cx="85.1919" cy="204.2695" fill="none" rx="4" ry="4" style="stroke:#181818;stroke-width:1.5;"/><line style="stroke:#181818;stroke-width:1.0;" x1="97.6919" x2="127.6919" y1="192.0195" y2="192.0195"/><line style="stroke:#181818;stroke-width:1.0;" x1="127.6919" x2="127.6919" y1="192.0195" y2="205.0195"/><line style="stroke:#181818;stroke-width:1.0;" x1="92.1919" x2="127.6919" y1="205.0195" y2="205.0195"/><line style="stroke:#181818;stroke-width:2.0;" x1="91.6919" x2="101.6919" y1="187.0195" y2="197.0195"/><line style="stroke:#181818;stroke-width:2.0;" x1="91.6919" x2="101.6919" y1="197.0195" y2="187.0195"/><polygon fill="#181818" points="102.1919,201.0195,92.1919,205.0195,102.1919,209.0195,98.1919,205.0195" style="stroke:#181818;stroke-width:1.0;"/><text fill="#000000" font-family="monospace" font-size="13" lengthAdjust="spacing" textLength="31.3066" x="92.6919" y="186.9536">x-&gt;o</text><line style="stroke:#181818;stroke-width:1.0;" x1="85.6919" x2="127.6919" y1="234.1523" y2="234.1523"/><line style="stroke:#181818;stroke-width:1.0;" x1="127.6919" x2="127.6919" y1="234.1523" y2="247.1523"/><line style="stroke:#181818;stroke-width:1.0;" x1="98.6919" x2="127.6919" y1="247.1523" y2="247.1523"/><line style="stroke:#181818;stroke-width:2.0;" x1="91.6919" x2="101.6919" y1="242.1523" y2="252.1523"/><line style="stroke:#181818;stroke-width:2.0;" x1="91.6919" x2="101.6919" y1="252.1523" y2="242.1523"/><text fill="#000000" font-family="monospace" font-size="13" lengthAdjust="spacing" textLength="23.48" x="92.6919" y="229.0864">-&gt;x</text><line style="stroke:#181818;stroke-width:1.0;" x1="97.6919" x2="127.6919" y1="276.2852" y2="276.2852"/><line style="stroke:#181818;stroke-width:1.0;" x1="127.6919" x2="127.6919" y1="276.2852" y2="289.2852"/><line style="stroke:#181818;stroke-width:1.0;" x1="86.6919" x2="127.6919" y1="289.2852" y2="289.2852"/><line style="stroke:#181818;stroke-width:2.0;" x1="91.6919" x2="101.6919" y1="271.2852" y2="281.2852"/><line style="stroke:#181818;stroke-width:2.0;" x1="91.6919" x2="101.6919" y1="281.2852" y2="271.2852"/><polygon fill="#181818" points="96.6919,285.2852,86.6919,289.2852,96.6919,293.2852,92.6919,289.2852" style="stroke:#181818;stroke-width:1.0;"/><text fill="#000000" font-family="monospace" font-size="13" lengthAdjust="spacing" textLength="23.48" x="92.6919" y="271.2192">x-&gt;</text><line style="stroke:#181818;stroke-width:1.0;" x1="43.6919" x2="84.6919" y1="318.418" y2="318.418"/><line style="stroke:#181818;stroke-width:1.0;" x1="43.6919" x2="43.6919" y1="318.418" y2="331.418"/><line style="stroke:#181818;stroke-width:1.0;" x1="43.6919" x2="72.6919" y1="331.418" y2="331.418"/><line style="stroke:#181818;stroke-width:2.0;" x1="69.6919" x2="79.6919" y1="326.418" y2="336.418"/><line style="stroke:#181818;stroke-width:2.0;" x1="69.6919" x2="79.6919" y1="336.418" y2="326.418"/><text fill="#000000" font-family="monospace" font-size="13" lengthAdjust="spacing" textLength="23.48" x="42.6919" y="313.3521">x&lt;-</text><line style="stroke:#181818;stroke-width:1.0;" x1="43.6919" x2="72.6919" y1="360.5508" y2="360.5508"/><line style="stroke:#181818;stroke-width:1.0;" x1="43.6919" x2="43.6919" y1="360.5508" y2="373.5508"/><line style="stroke:#181818;stroke-width:1.0;" x1="43.6919" x2="83.6919" y1="373.5508" y2="373.5508"/><line style="stroke:#181818;stroke-width:2.0;" x1="69.6919" x2="79.6919" y1="355.5508" y2="365.5508"/><line style="stroke:#181818;stroke-width:2.0;" x1="69.6919" x2="79.6919" y1="365.5508" y2="355.5508"/><polygon fill="#181818" points="73.6919,369.5508,83.6919,373.5508,73.6919,377.5508,77.6919,373.5508" style="stroke:#181818;stroke-width:1.0;"/><text fill="#000000" font-family="monospace" font-size="13" lengthAdjust="spacing" textLength="23.48" x="42.6919" y="355.4849">&lt;-x</text><ellipse cx="85.1919" cy="414.9336" fill="none" rx="4" ry="4" style="stroke:#181818;stroke-width:1.5;"/><line style="stroke:#181818;stroke-width:1.0;" x1="43.6919" x2="72.6919" y1="402.6836" y2="402.6836"/><line style="stroke:#181818;stroke-width:1.0;" x1="43.6919" x2="43.6919" y1="402.6836" y2="415.6836"/><line style="stroke:#181818;stroke-width:1.0;" x1="43.6919" x2="78.1919" y1="415.6836" y2="415.6836"/><line style="stroke:#181818;stroke-width:2.0;" x1="69.6919" x2="79.6919" y1="397.6836" y2="407.6836"/><line style="stroke:#181818;stroke-width:2.0;" x1="69.6919" x2="79.6919" y1="407.6836" y2="397.6836"/><polygon fill="#181818" points="68.1919,411.6836,78.1919,415.6836,68.1919,419.6836,72.1919,415.6836" style="stroke:#181818;stroke-width:1.0;"/><text fill="#000000" font-family="monospace" font-size="13" lengthAdjust="spacing" textLength="31.3066" x="39.5586" y="397.6177">o&lt;-x</text><!--SRC=[LSv12W8n30NG_PpYstqk847GKxZD36Keg2srGl3qjXaxrbNoN_uYXvHblGkAZs-K_F9Jabp24f8y2Yvn1Y1Fp7zyleN5DvP9m7H2A-48vrfohcgiIzpLahdMJNVVudQm_lTWmTZQdItqDiPsPwQ1cGoPhZzaqlwVOlnFw_m0]--></g></svg>