<svg xmlns="http://www.w3.org/2000/svg" xmlns:xlink="http://www.w3.org/1999/xlink" contentStyleType="text/css" height="273px" preserveAspectRatio="none" style="width:194px;height:273px;background:#FFFFFF;" version="1.1" viewBox="0 0 194 273" width="194px" zoomAndPan="magnify"><defs/><g><line style="stroke:#181818;stroke-width:0.5;stroke-dasharray:5.0,5.0;" x1="24.7319" x2="24.7319" y1="36.4883" y2="237.3516"/><rect fill="#FFFFFF" height="21.3105" style="stroke:#181818;stroke-width:1.0;" width="10" x="19.7319" y="110.4541"/><rect fill="#FFFFFF" height="38.9658" style="stroke:#181818;stroke-width:1.0;" width="10" x="19.7319" y="170.7305"/><line style="stroke:#181818;stroke-width:0.5;stroke-dasharray:5.0,5.0;" x1="116.8911" x2="116.8911" y1="36.4883" y2="237.3516"/><rect fill="#FFFFFF" height="22.6553" style="stroke:#181818;stroke-width:1.0;" width="10" x="111.8911" y="170.7305"/><rect fill="#FFFFFF" height="22.6553" style="stroke:#181818;stroke-width:1.0;" width="10" x="111.8911" y="209.6963"/><rect fill="#E2E2F0" height="30.4883" rx="2.5" ry="2.5" style="stroke:#181818;stroke-width:0.5;" width="39.4639" x="5" y="5"/><text fill="#000000" font-family="sans-serif" font-size="14" lengthAdjust="spacing" textLength="25.4639" x="12" y="25.5352">Bob</text><rect fill="#E2E2F0" height="30.4883" rx="2.5" ry="2.5" style="stroke:#181818;stroke-width:0.5;" width="46.7236" x="93.5293" y="5"/><text fill="#000000" font-family="sans-serif" font-size="14" lengthAdjust="spacing" textLength="32.7236" x="100.5293" y="25.5352">Alice</text><rect fill="#E2E2F0" height="30.4883" rx="2.5" ry="2.5" style="stroke:#181818;stroke-width:0.5;" width="39.4639" x="5" y="237.3516"/><text fill="#000000" font-family="sans-serif" font-size="14" lengthAdjust="spacing" textLength="25.4639" x="12" y="257.8867">Bob</text><rect fill="#E2E2F0" height="30.4883" rx="2.5" ry="2.5" style="stroke:#181818;stroke-width:0.5;" width="46.7236" x="93.5293" y="237.3516"/><text fill="#000000" font-family="sans-serif" font-size="14" lengthAdjust="spacing" textLength="32.7236" x="100.5293" y="257.8867">Alice</text><polygon fill="#181818" points="104.8911,61.7988,114.8911,65.7988,104.8911,69.7988,108.8911,65.7988" style="stroke:#181818;stroke-width:1.0;"/><line style="stroke:#181818;stroke-width:1.0;" x1="24.7319" x2="110.8911" y1="65.7988" y2="65.7988"/><text fill="#000000" font-family="sans-serif" font-size="13" lengthAdjust="spacing" textLength="55.1611" x="31.7319" y="61.0566">message</text><path d="M121.8911,53.1436 L121.8911,78.1436 L157.8911,78.1436 L157.8911,63.1436 L147.8911,53.1436 L121.8911,53.1436 " fill="#FEFFDD" style="stroke:#181818;stroke-width:0.5;"/><path d="M147.8911,53.1436 L147.8911,63.1436 L157.8911,63.1436 L147.8911,53.1436 " fill="#FEFFDD" style="stroke:#181818;stroke-width:0.5;"/><text fill="#000000" font-family="sans-serif" font-size="13" lengthAdjust="spacing" textLength="15.5835" x="127.8911" y="70.7119">ok</text><polygon fill="#181818" points="104.8911,127.7646,114.8911,131.7646,104.8911,135.7646,108.8911,131.7646" style="stroke:#181818;stroke-width:1.0;"/><line style="stroke:#181818;stroke-width:1.0;" x1="29.7319" x2="110.8911" y1="131.7646" y2="131.7646"/><text fill="#000000" font-family="sans-serif" font-size="13" lengthAdjust="spacing" textLength="63.8955" x="36.7319" y="127.0225">deactivate</text><path d="M121.8911,119.1094 L121.8911,144.1094 L157.8911,144.1094 L157.8911,129.1094 L147.8911,119.1094 L121.8911,119.1094 " fill="#FEFFDD" style="stroke:#181818;stroke-width:0.5;"/><path d="M147.8911,119.1094 L147.8911,129.1094 L157.8911,129.1094 L147.8911,119.1094 " fill="#FEFFDD" style="stroke:#181818;stroke-width:0.5;"/><text fill="#000000" font-family="sans-serif" font-size="13" lengthAdjust="spacing" textLength="15.5835" x="127.8911" y="136.6777">ok</text><polygon fill="#181818" points="99.8911,166.7305,109.8911,170.7305,99.8911,174.7305,103.8911,170.7305" style="stroke:#181818;stroke-width:1.0;"/><line style="stroke:#181818;stroke-width:1.0;" x1="29.7319" x2="105.8911" y1="170.7305" y2="170.7305"/><text fill="#000000" font-family="sans-serif" font-size="13" lengthAdjust="spacing" textLength="48.4707" x="36.7319" y="165.9883">activate</text><path d="M126.8911,158.0752 L126.8911,183.0752 L162.8911,183.0752 L162.8911,168.0752 L152.8911,158.0752 L126.8911,158.0752 " fill="#FEFFDD" style="stroke:#181818;stroke-width:0.5;"/><path d="M152.8911,158.0752 L152.8911,168.0752 L162.8911,168.0752 L152.8911,158.0752 " fill="#FEFFDD" style="stroke:#181818;stroke-width:0.5;"/><text fill="#000000" font-family="sans-serif" font-size="13" lengthAdjust="spacing" textLength="15.5835" x="132.8911" y="175.6436">ok</text><polygon fill="#181818" points="99.8911,205.6963,109.8911,209.6963,99.8911,213.6963,103.8911,209.6963" style="stroke:#181818;stroke-width:1.0;"/><line style="stroke:#181818;stroke-width:1.0;" x1="29.7319" x2="105.8911" y1="209.6963" y2="209.6963"/><text fill="#000000" font-family="sans-serif" font-size="13" lengthAdjust="spacing" textLength="63.1592" x="36.7319" y="204.9541">act+deact</text><path d="M126.8911,197.041 L126.8911,222.041 L187.8911,222.041 L187.8911,207.041 L177.8911,197.041 L126.8911,197.041 " fill="#FEFFDD" style="stroke:#181818;stroke-width:0.5;"/><path d="M177.8911,197.041 L177.8911,207.041 L187.8911,207.041 L177.8911,197.041 " fill="#FEFFDD" style="stroke:#181818;stroke-width:0.5;"/><text fill="#000000" font-family="sans-serif" font-size="13" lengthAdjust="spacing" textLength="40.6123" x="132.8911" y="214.6094">not ok</text><!--SRC=[ZSwn3i8W4CRndQVuN7GW30mECfZeu4iO1snFIYmz0zJ1fvVO6jD4JTUx-_zoYrkqBbXauWTox4ciR9iO1uvzW5xhZHPxFaDjiMjzHJ08b99r99ReE1EYTqq6NuQz0L_5SAcEZQzhwavZAeIjih_RqXHngYfbKDDx_uUUPb8Qp8W-yfnFHbI-gbzg6NwJdm00]--></g></svg>